<svg width="307" height="224" viewBox="0 0 307 224" fill="none" xmlns="http://www.w3.org/2000/svg">
  <g clip-path="url(#clip0)">
    <path d="M102.175 -62.8881L101.978 -7.6583C101.978 -7.46105 101.781 -7.06655 101.583 -7.06655L52.4682 21.5346C51.8764 21.9291 51.2847 21.5346 51.2847 20.9429L51.4819 -34.287C51.4819 -34.4842 51.6791 -34.8787 51.8764 -34.8787L100.991 -63.4799C101.386 -63.8744 102.175 -63.4799 102.175 -62.8881Z" stroke="#505573" stroke-miterlimit="10"/>
    <path d="M51.2848 -34.287L51.0876 21.1401C51.0876 21.7318 50.4958 22.1263 49.9041 21.7318L0.394463 -6.86932C0.197213 -7.06657 0 -7.26382 0 -7.65832L0.197261 -63.0854C0.197261 -63.6771 0.788961 -64.0716 1.38071 -63.6771L50.8903 -35.076C51.2848 -34.8787 51.2848 -34.4842 51.2848 -34.287Z" stroke="#505573" stroke-miterlimit="10"/>
    <path d="M46.1563 -30.9338L45.9591 13.0528C45.9591 13.4473 45.3673 13.8418 44.9728 13.6445L5.72021 -9.23641C5.52296 -9.43366 5.32568 -9.6309 5.32568 -9.82815L5.52294 -53.8148C5.52294 -54.2093 6.11469 -54.6038 6.50919 -54.4065L45.7618 -31.7228C45.9591 -31.3283 46.1563 -31.1311 46.1563 -30.9338Z" stroke="#505573" stroke-miterlimit="10"/>
    <path d="M40.8305 -27.5808V4.76813C40.8305 5.16263 40.436 5.35988 40.0415 5.16264L11.0459 -11.6036C10.8486 -11.6036 10.8486 -11.8008 10.8486 -11.9981V-44.347C10.8486 -44.7415 11.2431 -44.9387 11.6376 -44.7415L40.6333 -27.9753C40.6333 -27.9753 40.8305 -27.778 40.8305 -27.5808Z" stroke="#505573" stroke-miterlimit="10"/>
    <path d="M153.067 23.9014L152.869 79.1313C152.869 79.3285 152.672 79.723 152.475 79.723L103.36 108.324C102.768 108.719 102.176 108.324 102.176 107.732L102.374 52.5026C102.374 52.3053 102.571 51.9108 102.768 51.9108L151.883 23.3097C152.475 22.9152 153.067 23.3097 153.067 23.9014Z" stroke="#505573" stroke-miterlimit="10"/>
    <path d="M102.373 52.5026L102.176 107.93C102.176 108.521 101.584 108.916 100.992 108.521L51.4829 79.9202C51.2857 79.723 51.0884 79.5257 51.0884 79.1312L51.2856 23.7042C51.2856 23.1124 51.8774 22.7179 52.4691 23.1124L101.979 51.7136C102.176 51.9108 102.373 52.1081 102.373 52.5026Z" stroke="#505573" stroke-miterlimit="10"/>
    <path d="M97.0484 55.8557L96.8512 99.8423C96.8512 100.237 96.2594 100.631 95.8649 100.434L56.8095 77.5531C56.6123 77.3559 56.415 77.1586 56.415 76.9614L56.6122 32.9748C56.6122 32.5803 57.204 32.1858 57.5985 32.383L96.8512 55.0667C97.0484 55.264 97.0484 55.4612 97.0484 55.8557Z" stroke="#505573" stroke-miterlimit="10"/>
    <path d="M91.7227 59.012V91.3609C91.7227 91.7554 91.3282 91.9526 90.9337 91.7554L61.938 74.9892C61.7407 74.9892 61.7407 74.792 61.7407 74.5947V42.2458C61.7407 41.8513 62.1352 41.6541 62.5297 41.8513L91.5254 58.6175C91.7226 58.8148 91.7227 59.012 91.7227 59.012Z" stroke="#505573" stroke-miterlimit="10"/>
    <path d="M86.5941 62.365V83.2734C86.5941 83.4707 86.3968 83.6679 86.1996 83.4707L67.4609 72.6219L67.2637 72.4247V51.5163C67.2637 51.319 67.4609 51.1218 67.6581 51.319L86.3968 62.1677L86.5941 62.365Z" stroke="#505573" stroke-miterlimit="10"/>
    <path d="M81.2683 65.7183V75.1863C81.2683 75.3836 81.0711 75.3835 81.0711 75.3835L72.5894 70.4523C72.5894 70.4523 72.5894 70.4523 72.5894 70.2551V60.7871C72.5894 60.5898 72.7866 60.5898 72.7866 60.5898L81.2683 65.7183ZM81.2683 65.7183C81.0711 65.7183 81.2683 65.7183 81.2683 65.7183Z" stroke="#505573" stroke-miterlimit="10"/>
    <path d="M151.882 23.1128L102.767 51.7139C102.57 51.9112 102.175 51.9112 101.978 51.7139L52.4682 23.1128C51.8765 22.7183 51.8765 22.1265 52.4682 21.732L101.583 -6.86915C101.781 -7.0664 102.175 -7.0664 102.372 -6.86915L151.882 21.732C152.474 22.1265 152.474 22.9155 151.882 23.1128Z" stroke="#505573" stroke-miterlimit="10"/>
    <path d="M204.745 110.1L204.548 165.329C204.548 165.527 204.35 165.921 204.153 165.921L155.038 194.522C154.446 194.917 153.854 194.522 153.854 193.931L154.052 138.701C154.052 138.504 154.249 138.109 154.446 138.109L203.561 109.508C203.956 109.113 204.745 109.508 204.745 110.1Z" stroke="#505573" stroke-miterlimit="10"/>
    <path d="M153.855 138.503L153.657 193.93C153.657 194.522 153.066 194.916 152.474 194.522L102.964 165.921C102.767 165.723 102.57 165.526 102.57 165.132L102.767 109.705C102.767 109.113 103.359 108.718 103.951 109.113L153.46 137.714C153.855 138.109 153.855 138.306 153.855 138.503Z" stroke="#505573" stroke-miterlimit="10"/>
    <path d="M148.528 141.857L148.331 185.843C148.331 186.238 147.739 186.632 147.345 186.435L108.29 163.751C108.092 163.554 107.895 163.357 107.895 163.16L108.092 119.173C108.092 118.779 108.684 118.384 109.079 118.581L148.331 141.265C148.528 141.462 148.528 141.659 148.528 141.857Z" stroke="#505573" stroke-miterlimit="10"/>
    <path d="M143.4 145.21V177.559C143.4 177.953 143.005 178.15 142.611 177.953L113.615 161.187C113.418 161.187 113.418 160.99 113.418 160.792V128.444C113.418 128.049 113.812 127.852 114.207 128.049L143.203 144.815C143.203 144.815 143.4 145.013 143.4 145.21Z" stroke="#505573" stroke-miterlimit="10"/>
    <path d="M138.074 148.563V169.472C138.074 169.669 137.877 169.866 137.68 169.669L118.941 158.82L118.744 158.623V137.715C118.744 137.517 118.941 137.32 119.138 137.517L137.877 148.366C137.877 148.366 138.074 148.366 138.074 148.563Z" stroke="#505573" stroke-miterlimit="10"/>
    <path d="M132.749 151.917V161.385C132.749 161.582 132.552 161.582 132.552 161.582L124.07 156.651C124.07 156.651 124.07 156.651 124.07 156.453V146.985C124.07 146.788 124.268 146.788 124.268 146.788L132.749 151.917ZM132.749 151.917C132.749 151.719 132.749 151.917 132.749 151.917Z" stroke="#505573" stroke-miterlimit="10"/>
    <path d="M203.562 109.31L154.447 137.912C154.249 138.109 153.855 138.109 153.658 137.912L104.148 109.31C103.556 108.916 103.556 108.324 104.148 107.93L153.263 79.3286C153.46 79.1314 153.855 79.1314 154.052 79.3286L203.562 107.93C203.956 108.324 203.956 109.113 203.562 109.31Z" stroke="#505573" stroke-miterlimit="10"/>
    <path d="M204.352 108.916L204.549 164.343C204.549 164.935 205.141 165.329 205.732 164.935L255.242 136.334C255.439 136.137 255.636 135.939 255.636 135.545L255.439 80.1177C255.439 79.526 254.847 79.1315 254.256 79.526L204.746 108.127C204.549 108.324 204.352 108.522 204.352 108.916Z" stroke="#505573" stroke-miterlimit="10"/>
    <path d="M209.678 112.269L209.875 156.256C209.875 156.65 210.467 157.045 210.861 156.848L250.114 134.164C250.311 133.967 250.508 133.769 250.508 133.572L250.311 89.5856C250.311 89.1911 249.719 88.7966 249.325 88.9939L210.072 111.678C209.875 111.678 209.678 111.875 209.678 112.269Z" stroke="#505573" stroke-miterlimit="10"/>
    <path d="M215.003 115.425V147.774C215.003 148.168 215.398 148.366 215.792 148.168L244.788 131.402C244.985 131.402 244.985 131.205 244.985 131.008V98.6589C244.985 98.2644 244.591 98.0671 244.196 98.2644L215.201 115.031C215.201 115.228 215.003 115.425 215.003 115.425Z" stroke="#505573" stroke-miterlimit="10"/>
    <path d="M220.328 118.779V139.687C220.328 139.884 220.525 140.081 220.722 139.884L239.461 129.036L239.658 128.838V107.93C239.658 107.733 239.461 107.535 239.264 107.733L220.525 118.581C220.328 118.581 220.328 118.779 220.328 118.779Z" stroke="#505573" stroke-miterlimit="10"/>
    <path d="M225.654 122.132V131.6C225.654 131.797 225.851 131.797 225.851 131.797L234.333 126.866C234.333 126.866 234.333 126.866 234.333 126.669V117.201C234.333 117.003 234.136 117.003 234.136 117.003L225.654 122.132Z" stroke="#505573" stroke-miterlimit="10"/>
    <path d="M154.841 79.5258L203.956 108.127C204.154 108.324 204.548 108.324 204.745 108.127L254.255 79.5258C254.847 79.1313 254.847 78.5396 254.255 78.1451L205.14 49.5439C204.943 49.3467 204.548 49.3467 204.351 49.5439L154.841 78.1451C154.25 78.5396 154.25 79.3286 154.841 79.5258Z" stroke="#505573" stroke-miterlimit="10"/>
    <path d="M255.438 196.297L255.635 251.725C255.635 252.316 256.227 252.711 256.819 252.316L306.328 223.715C306.526 223.518 306.723 223.321 306.723 222.926L306.526 167.499C306.526 166.907 305.934 166.513 305.342 166.907L255.832 195.508C255.438 195.706 255.438 196.1 255.438 196.297Z" stroke="#505573" stroke-miterlimit="10"/>
    <path d="M260.764 199.651L260.961 243.637C260.961 244.032 261.553 244.426 261.947 244.229L301.2 221.545C301.397 221.348 301.594 221.151 301.594 220.954L301.397 176.967C301.397 176.572 300.805 176.178 300.411 176.375L261.158 199.059C260.764 199.256 260.764 199.453 260.764 199.651Z" stroke="#505573" stroke-miterlimit="10"/>
    <path d="M265.892 203.004V235.353C265.892 235.747 266.286 235.944 266.681 235.747L295.676 218.981C295.874 218.981 295.874 218.784 295.874 218.586V186.238C295.874 185.843 295.479 185.646 295.085 185.843L266.089 202.609C266.089 202.609 265.892 202.806 265.892 203.004Z" stroke="#505573" stroke-miterlimit="10"/>
    <path d="M271.217 206.357V227.266C271.217 227.463 271.414 227.66 271.612 227.463L290.35 216.614L290.548 216.417V195.508C290.548 195.311 290.35 195.114 290.153 195.311L271.415 206.16C271.415 206.16 271.217 206.16 271.217 206.357Z" stroke="#505573" stroke-miterlimit="10"/>
    <path d="M276.544 209.513V218.981C276.544 219.178 276.741 219.178 276.741 219.178L285.223 214.247C285.223 214.247 285.223 214.247 285.223 214.05V204.582C285.223 204.385 285.026 204.385 285.026 204.385L276.544 209.513Z" stroke="#505573" stroke-miterlimit="10"/>
    <path d="M205.731 167.104L254.847 195.706C255.044 195.903 255.438 195.903 255.636 195.706L305.145 167.104C305.737 166.71 305.737 166.118 305.145 165.724L256.03 137.123C255.833 136.925 255.438 136.925 255.241 137.123L205.731 165.724C205.337 165.921 205.337 166.71 205.731 167.104Z" stroke="#505573" stroke-miterlimit="10"/>
    <path d="M255.636 197.086L255.439 252.316C255.439 252.514 255.242 252.908 255.045 252.908L205.93 281.509C205.338 281.904 204.746 281.509 204.746 280.917L204.943 225.688C204.943 225.49 205.141 225.096 205.338 225.096L254.453 196.495C255.045 196.1 255.636 196.495 255.636 197.086Z" stroke="#505573" stroke-miterlimit="10"/>
    <path d="M204.943 225.688L204.746 281.115C204.746 281.706 204.154 282.101 203.562 281.706L154.053 253.105C153.855 252.908 153.658 252.711 153.658 252.316L153.855 196.889C153.855 196.297 154.447 195.903 155.039 196.297L204.549 224.899C204.746 225.096 204.943 225.49 204.943 225.688Z" stroke="#505573" stroke-miterlimit="10"/>
    <path d="M199.617 229.041L199.42 273.027C199.42 273.422 198.828 273.816 198.433 273.619L159.181 250.935C158.983 250.738 158.786 250.541 158.786 250.344L158.983 206.357C158.983 205.963 159.575 205.568 159.97 205.765L199.222 228.449C199.42 228.646 199.617 228.844 199.617 229.041Z" stroke="#505573" stroke-miterlimit="10"/>
    <path d="M194.292 232.394V264.743C194.292 265.138 193.898 265.335 193.503 265.138L164.507 248.372C164.31 248.372 164.31 248.174 164.31 247.977V215.628C164.31 215.234 164.705 215.036 165.099 215.234L194.095 232C194.292 232 194.292 232.197 194.292 232.394Z" stroke="#505573" stroke-miterlimit="10"/>
    <path d="M254.452 196.495L205.337 225.096C205.139 225.293 204.745 225.293 204.548 225.096L155.038 196.495C154.446 196.1 154.446 195.508 155.038 195.114L204.153 166.513C204.35 166.315 204.745 166.315 204.942 166.513L254.452 195.114C255.043 195.311 255.043 196.1 254.452 196.495Z" stroke="#505573" stroke-miterlimit="10"/>
    <path d="M153.46 197.678L153.263 252.908C153.263 253.105 153.066 253.5 152.868 253.5L103.753 282.101C103.162 282.496 102.57 282.101 102.57 281.509L102.767 226.279C102.767 226.082 102.964 225.688 103.162 225.688L152.277 197.087C152.868 196.692 153.46 197.087 153.46 197.678Z" stroke="#505573" stroke-miterlimit="10"/>
    <path d="M102.768 226.279L102.57 281.706C102.57 282.298 101.979 282.693 101.387 282.298L51.8774 253.697C51.6801 253.5 51.4829 253.303 51.4829 252.908L51.6801 197.481C51.6801 196.889 52.2719 196.495 52.8636 196.889L102.373 225.49C102.57 225.688 102.768 226.082 102.768 226.279Z" stroke="#505573" stroke-miterlimit="10"/>
    <path d="M97.4415 229.633L97.2442 273.619C97.2442 274.014 96.6525 274.408 96.258 274.211L57.0054 251.527C56.8081 251.33 56.6108 251.133 56.6108 250.935L56.8081 206.949C56.8081 206.554 57.3998 206.16 57.7943 206.357L97.047 229.041C97.4415 229.238 97.4415 229.435 97.4415 229.633Z" stroke="#505573" stroke-miterlimit="10"/>
    <path d="M92.1171 232.986V265.335C92.1171 265.729 91.7226 265.926 91.3281 265.729L62.3325 248.963C62.1353 248.963 62.1353 248.766 62.1353 248.568V216.219C62.1353 215.825 62.5297 215.628 62.9242 215.825L91.9199 232.591C92.1172 232.591 92.1171 232.788 92.1171 232.986Z" stroke="#505573" stroke-miterlimit="10"/>
    <path d="M152.277 197.086L103.162 225.688C102.965 225.885 102.57 225.885 102.373 225.688L52.8632 197.086C52.2715 196.692 52.2715 196.1 52.8632 195.706L101.978 167.104C102.176 166.907 102.57 166.907 102.767 167.104L152.277 195.706C152.869 195.903 152.869 196.692 152.277 197.086Z" stroke="#505573" stroke-miterlimit="10"/>
    <path d="M204.154 -6.27729L203.956 48.9525C203.956 49.1498 203.759 49.5443 203.562 49.5443L154.447 78.1455C153.855 78.54 153.263 78.1454 153.263 77.5537L153.46 22.3239C153.46 22.1266 153.658 21.7321 153.855 21.7321L202.97 -6.86903C203.562 -7.26353 204.154 -6.86904 204.154 -6.27729Z" stroke="#505573" stroke-miterlimit="10"/>
    <path d="M202.97 -6.86918L153.855 21.732C153.658 21.9292 153.263 21.9292 153.066 21.732L103.557 -6.86918C102.965 -7.26368 102.965 -7.85543 103.557 -8.24993L152.672 -36.8511C152.869 -37.0483 153.263 -37.0483 153.461 -36.8511L202.97 -8.24993C203.562 -8.05268 203.562 -7.26368 202.97 -6.86918Z" stroke="#505573" stroke-miterlimit="10"/>
    <path d="M254.651 -35.4705L254.453 19.7593C254.453 19.9566 254.256 20.3511 254.059 20.3511L204.944 49.1495C204.352 49.544 203.76 49.1495 203.76 48.5578L203.958 -6.67208C203.958 -6.86933 204.155 -7.26383 204.352 -7.26383L253.467 -35.865C254.059 -36.4567 254.651 -36.0622 254.651 -35.4705Z" stroke="#505573" stroke-miterlimit="10"/>
  </g>
  <defs>
    <clipPath id="clip0">
      <rect width="307" height="224" fill="white"/>
    </clipPath>
  </defs>
</svg>
