<svg width="144" height="121" viewBox="0 0 144 121" fill="none" xmlns="http://www.w3.org/2000/svg">
  <rect x="9" y="21" width="52" height="52" rx="26" fill="white"/>
  <g clip-path="url(#clip0)">
    <path d="M61.2502 47.0001C61.2502 61.4976 49.4976 73.2502 35.0001 73.2502C20.5026 73.2502 8.75002 61.4976 8.75002 47.0001C8.75002 32.5026 20.5026 20.75 35.0001 20.75C49.4976 20.75 61.2502 32.5026 61.2502 47.0001Z" fill="white"/>
    <path d="M22.2562 47.0001C22.2562 48.5304 20.9956 49.7709 19.4406 49.7709C17.8856 49.7709 16.625 48.5304 16.625 47.0001C16.625 45.4698 17.8856 44.2293 19.4406 44.2293C20.9956 44.2293 22.2562 45.4698 22.2562 47.0001Z" fill="#181B2B"/>
    <path d="M50.5596 49.7709C52.1146 49.7709 53.3752 48.5304 53.3752 47.0001C53.3752 45.4698 52.1146 44.2293 50.5596 44.2293C49.0046 44.2293 47.744 45.4698 47.744 47.0001C47.744 48.5304 49.0046 49.7709 50.5596 49.7709Z" fill="#181B2B"/>
    <path d="M40.6229 36.5213C38.2583 35.2832 35.625 34.8915 33.4081 35.4116C31.1504 35.9414 29.1916 37.4895 28.8272 40.0749C28.5249 42.2191 29.1721 43.8963 30.2951 45.2225C31.3422 46.4591 32.7936 47.3725 34.023 48.1298C35.3452 48.9442 36.4419 49.5974 37.2535 50.3892C37.9991 51.1166 38.3984 51.8642 38.3984 52.8624C38.3984 53.9828 38.055 54.5609 37.6927 54.8908C37.2929 55.2547 36.65 55.5138 35.7427 55.5776C33.8728 55.7091 31.5927 54.9573 30.3324 53.9969L28.3313 56.5437C30.2085 57.9742 33.2792 58.9793 35.9756 58.7897C37.3515 58.6929 38.7957 58.2718 39.9122 57.2556C41.0662 56.2051 41.6683 54.703 41.6683 52.8624C41.6683 50.7974 40.7526 49.2701 39.5548 48.1015C38.423 46.9973 36.9481 46.1332 35.7569 45.3996C34.473 44.6087 33.4694 43.9431 32.8064 43.1602C32.2194 42.4668 31.9016 41.6839 32.066 40.5177C32.2013 39.5579 32.8785 38.8463 34.166 38.5442C35.4944 38.2325 37.3156 38.4367 39.0879 39.3647L40.6229 36.5213Z" fill="#181B2B"/>
    <path fill-rule="evenodd" clip-rule="evenodd" d="M35.0001 71.3361C48.4405 71.3361 59.3361 60.4405 59.3361 47.0001C59.3361 33.5597 48.4405 22.6641 35.0001 22.6641C21.5597 22.6641 10.6641 33.5597 10.6641 47.0001C10.6641 60.4405 21.5597 71.3361 35.0001 71.3361ZM61.2502 47.0001C61.2502 61.4976 49.4976 73.2502 35.0001 73.2502C20.5026 73.2502 8.75002 61.4976 8.75002 47.0001C8.75002 32.5026 20.5026 20.75 35.0001 20.75C49.4976 20.75 61.2502 32.5026 61.2502 47.0001Z" fill="#222639"/>
  </g>
  <rect x="94" width="50" height="50" rx="25" fill="white"/>
  <path d="M119.653 6.42822L119.402 7.2744V31.8286L119.653 32.0771L131.14 25.3399L119.653 6.42822Z" fill="#343434"/>
  <path d="M119.653 6.42822L108.167 25.3399L119.653 32.0772V20.1593V6.42822Z" fill="#8C8C8C"/>
  <path d="M119.653 34.2352L119.512 34.4062V43.1529L119.653 43.5627L131.147 27.5013L119.653 34.2352Z" fill="#3C3C3B"/>
  <path d="M119.653 43.5626V34.235L108.167 27.5012L119.653 43.5626Z" fill="#8C8C8C"/>
  <path d="M119.653 32.077L131.14 25.3399L119.653 20.1594V32.077Z" fill="#141414"/>
  <path d="M108.167 25.34L119.653 32.0771V20.1594L108.167 25.34Z" fill="#393939"/>
  <rect x="73.9819" y="78.9819" width="39.6365" height="39.6365" rx="19.8182" fill="white"/>
  <path d="M93.8 82.45C102.831 82.45 110.15 89.7708 110.15 98.8C110.15 107.831 102.831 115.15 93.8 115.15C84.7708 115.15 77.45 107.83 77.45 98.8C77.45 89.7708 84.7708 82.45 93.8 82.45Z" fill="#F5AC37"/>
  <path d="M94.4012 99.9546H100.614C100.746 99.9546 100.809 99.9546 100.819 99.7809C100.869 99.1489 100.869 98.5132 100.819 97.8805C100.819 97.7576 100.757 97.7068 100.624 97.7068H88.2598C88.1068 97.7068 88.0656 97.7576 88.0656 97.9011V99.7199C88.0656 99.9546 88.0656 99.9546 88.3106 99.9546H94.4012ZM100.125 95.5812C100.142 95.5349 100.142 95.4841 100.125 95.4385C100.021 95.2126 99.8981 94.997 99.7553 94.7947C99.5405 94.4489 99.2874 94.1303 98.999 93.8441C98.8629 93.6712 98.7054 93.5159 98.5288 93.3842C97.6444 92.6316 96.593 92.0989 95.4629 91.831C94.8927 91.703 94.31 91.642 93.7258 91.6471H88.2385C88.0855 91.6471 88.0649 91.7082 88.0649 91.8413V95.4686C88.0649 95.6217 88.0649 95.6629 88.2591 95.6629H100.051C100.051 95.6629 100.153 95.6423 100.174 95.5812H100.124H100.125ZM100.125 102.08C99.951 102.061 99.7759 102.061 99.6023 102.08H88.2701C88.1171 102.08 88.0656 102.08 88.0656 102.285V105.831C88.0656 105.994 88.0656 106.036 88.2701 106.036H93.5021C93.7523 106.055 94.0024 106.037 94.2474 105.985C95.0067 105.93 95.7535 105.766 96.4658 105.494C96.7247 105.404 96.9749 105.287 97.2111 105.147H97.2824C98.509 104.509 99.5052 103.507 100.134 102.277C100.134 102.277 100.205 102.122 100.125 102.082V102.08ZM86.0121 107.874V107.813V105.432V104.625V102.224C86.0121 102.09 86.0121 102.071 85.8487 102.071H83.6312C83.5083 102.071 83.4575 102.071 83.4575 101.907V99.9656H85.8281C85.9606 99.9656 86.0121 99.9656 86.0121 99.792V97.8709C86.0121 97.748 86.0121 97.7179 85.8487 97.7179H83.6312C83.5083 97.7179 83.4575 97.7179 83.4575 97.5545V95.7563C83.4575 95.6437 83.4575 95.6136 83.6209 95.6136H85.8178C85.9709 95.6136 86.0121 95.6136 86.0121 95.4193V89.9115C86.0121 89.7481 86.0121 89.7069 86.2166 89.7069H93.8803C94.4365 89.729 94.9891 89.79 95.5358 89.8908C96.6622 90.0991 97.7445 90.5015 98.7341 91.0762C99.3904 91.4624 99.9945 91.9289 100.532 92.466C100.937 92.8861 101.302 93.3408 101.626 93.825C101.947 94.3157 102.214 94.8403 102.424 95.3884C102.45 95.5312 102.587 95.6276 102.729 95.6033H104.558C104.793 95.6033 104.793 95.6033 104.803 95.8284V97.5045C104.803 97.6678 104.742 97.709 104.578 97.709H103.168C103.025 97.709 102.984 97.709 102.994 97.893C103.05 98.5154 103.05 99.1401 102.994 99.7625C102.994 99.9362 102.994 99.9568 103.189 99.9568H104.803C104.874 100.049 104.803 100.141 104.803 100.233C104.813 100.352 104.813 100.472 104.803 100.59V101.827C104.803 102.001 104.752 102.052 104.598 102.052H102.667C102.532 102.026 102.401 102.113 102.37 102.246C101.91 103.442 101.175 104.514 100.224 105.373C99.8767 105.686 99.5118 105.98 99.1307 106.252C98.7216 106.487 98.3235 106.732 97.9042 106.927C97.1323 107.274 96.323 107.53 95.4923 107.693C94.7036 107.834 93.9038 107.898 93.1011 107.887H86.0091V107.876L86.0121 107.874Z" fill="#FEFEFD"/>
  <defs>
    <clipPath id="clip0">
      <rect width="52.5002" height="52.5002" fill="white" transform="translate(8.75002 20.75)"/>
    </clipPath>
  </defs>
</svg>
