<svg width="368" height="231" fill="none" xmlns="http://www.w3.org/2000/svg"><rect x=".5" y=".5" width="367" height="230" rx="3.5" fill="#fff" stroke="#E7EAF3"/><g filter="url(#filter0_d)"><rect x="68" y="16" width="233" height="40" rx="20" fill="#fff"/><rect x="68.398" y="16.398" width="232.204" height="39.205" rx="19.602" stroke="#F1F3F9" stroke-width=".796"/></g><path d="M88.814 38h2.618c2.288 0 3.806-1.54 3.806-3.663 0-2.112-1.518-3.674-3.806-3.674h-2.618V38zm1.1-.968v-5.401h1.518c1.727 0 2.673 1.199 2.673 2.706 0 1.485-.979 2.695-2.673 2.695h-1.518zm7.118-5.236a.63.63 0 0 0 .638-.627.638.638 0 0 0-.638-.638.646.646 0 0 0-.638.638c0 .352.297.627.638.627zM96.548 38h.99v-5.313h-.99V38zm2.105-.693c.54.55 1.32.825 2.211.825 1.397 0 2.145-.715 2.145-1.628 0-1.221-1.1-1.474-2.024-1.683-.66-.154-1.232-.308-1.232-.77 0-.429.418-.693 1.089-.693s1.265.275 1.573.649l.44-.693c-.451-.429-1.111-.759-2.024-.759-1.298 0-2.024.726-2.024 1.573 0 1.144 1.056 1.386 1.958 1.595.682.154 1.287.33 1.287.858 0 .451-.396.759-1.144.759-.715 0-1.419-.363-1.782-.759l-.473.726zm7.071.825c.517 0 .825-.143 1.034-.341l-.253-.748c-.099.11-.308.209-.539.209-.341 0-.517-.275-.517-.649v-3.047h1.078v-.869h-1.078v-1.452h-.99v1.452h-.88v.869h.88v3.267c0 .836.429 1.309 1.265 1.309zm1.899-.132h.99v-3.696c.231-.396.902-.77 1.397-.77.132 0 .242.011.341.033v-1.001c-.704 0-1.331.407-1.738.935v-.814h-.99V38zm4.201-6.204a.63.63 0 0 0 .638-.627.638.638 0 0 0-.638-.638.646.646 0 0 0-.638.638c0 .352.297.627.638.627zM111.34 38h.99v-5.313h-.99V38zm2.567 0h.99v-.759a2.181 2.181 0 0 0 1.738.891c1.375 0 2.365-1.045 2.365-2.783 0-1.705-.979-2.794-2.365-2.794-.693 0-1.32.33-1.738.902v-2.794h-.99V38zm.99-1.518v-2.255c.264-.429.869-.792 1.474-.792.99 0 1.606.803 1.606 1.914 0 1.111-.616 1.903-1.606 1.903-.605 0-1.21-.341-1.474-.77zM123.853 38h.99v-5.313h-.99v3.817c-.297.396-.858.748-1.474.748-.682 0-1.122-.264-1.122-1.144v-3.421h-.99v3.751c0 1.122.561 1.694 1.694 1.694.814 0 1.485-.418 1.892-.858V38zm4.021.132c.517 0 .825-.143 1.034-.341l-.253-.748c-.099.11-.308.209-.539.209-.341 0-.517-.275-.517-.649v-3.047h1.078v-.869h-1.078v-1.452h-.99v1.452h-.88v.869h.88v3.267c0 .836.429 1.309 1.265 1.309zm1.569-2.794c0 1.672 1.166 2.794 2.75 2.794.858 0 1.606-.275 2.134-.792l-.462-.649c-.396.407-1.012.627-1.573.627-1.067 0-1.727-.748-1.804-1.65h4.202v-.242c0-1.628-.99-2.871-2.585-2.871-1.551 0-2.662 1.243-2.662 2.783zm2.662-1.969c1.122 0 1.595.88 1.617 1.584h-3.245c.055-.726.561-1.584 1.628-1.584zM139.713 38h.99v-7.337h-.99v2.794c-.429-.572-1.056-.902-1.738-.902-1.386 0-2.376 1.089-2.376 2.794 0 1.738.99 2.783 2.376 2.783.704 0 1.342-.363 1.738-.891V38zm0-1.518c-.275.429-.869.77-1.474.77-.99 0-1.606-.803-1.606-1.903 0-1.111.616-1.914 1.606-1.914.605 0 1.199.352 1.474.781v2.266zM146.532 38h1.067l2.189-5.313h-1.067l-1.661 4.169-1.661-4.169h-1.056L146.532 38zm3.598-.693c.539.55 1.32.825 2.211.825 1.397 0 2.145-.715 2.145-1.628 0-1.221-1.1-1.474-2.024-1.683-.66-.154-1.232-.308-1.232-.77 0-.429.418-.693 1.089-.693s1.265.275 1.573.649l.44-.693c-.451-.429-1.111-.759-2.024-.759-1.298 0-2.024.726-2.024 1.573 0 1.144 1.056 1.386 1.958 1.595.682.154 1.287.33 1.287.858 0 .451-.396.759-1.144.759-.715 0-1.419-.363-1.782-.759l-.473.726zm73.015.693h1.067l2.189-5.313h-1.067l-1.661 4.169-1.661-4.169h-1.056L223.145 38zm3.598-.693c.539.55 1.32.825 2.211.825 1.397 0 2.145-.715 2.145-1.628 0-1.221-1.1-1.474-2.024-1.683-.66-.154-1.232-.308-1.232-.77 0-.429.418-.693 1.089-.693s1.265.275 1.573.649l.44-.693c-.451-.429-1.111-.759-2.024-.759-1.298 0-2.024.726-2.024 1.573 0 1.144 1.056 1.386 1.958 1.595.682.154 1.287.33 1.287.858 0 .451-.396.759-1.144.759-.715 0-1.419-.363-1.782-.759l-.473.726z" fill="#2F354D"/><path d="M162.049 38.132c1.441 0 2.332-.693 2.915-1.551l-.935-.495a2.326 2.326 0 0 1-1.98 1.067c-1.485 0-2.629-1.177-2.629-2.816 0-1.65 1.144-2.816 2.629-2.816.869 0 1.595.451 1.98 1.067l.935-.495c-.572-.858-1.474-1.551-2.915-1.551-2.09 0-3.762 1.54-3.762 3.795s1.672 3.795 3.762 3.795zm6.344 0c1.661 0 2.684-1.254 2.684-2.794 0-1.529-1.023-2.783-2.684-2.783-1.65 0-2.684 1.254-2.684 2.783 0 1.54 1.034 2.794 2.684 2.794zm0-.88c-1.056 0-1.65-.902-1.65-1.914 0-1.001.594-1.903 1.65-1.903 1.067 0 1.65.902 1.65 1.903 0 1.012-.583 1.914-1.65 1.914zm7.527.748h.99v-3.729c0-1.122-.583-1.716-1.705-1.716-.825 0-1.529.451-1.881.88v-.748h-.99V38h.99v-3.795c.286-.396.847-.77 1.463-.77.682 0 1.133.286 1.133 1.166V38zm2.229-2.662c0 1.595 1.1 2.794 2.706 2.794 1.001 0 1.606-.418 1.991-.935l-.66-.605a1.51 1.51 0 0 1-1.287.66c-1.045 0-1.716-.814-1.716-1.914s.671-1.903 1.716-1.903c.539 0 .968.209 1.287.66l.66-.605c-.385-.517-.99-.935-1.991-.935-1.606 0-2.706 1.188-2.706 2.783zm5.457 0c0 1.672 1.166 2.794 2.75 2.794.858 0 1.606-.275 2.134-.792l-.462-.649c-.396.407-1.012.627-1.573.627-1.067 0-1.727-.748-1.804-1.65h4.202v-.242c0-1.628-.99-2.871-2.585-2.871-1.551 0-2.662 1.243-2.662 2.783zm2.662-1.969c1.122 0 1.595.88 1.617 1.584h-3.245c.055-.726.561-1.584 1.628-1.584zm5.286 4.763c.517 0 .825-.143 1.034-.341l-.253-.748c-.099.11-.308.209-.539.209-.341 0-.517-.275-.517-.649v-3.047h1.078v-.869h-1.078v-1.452h-.99v1.452h-.88v.869h.88v3.267c0 .836.429 1.309 1.265 1.309zm1.899-.132h.99v-3.696c.231-.396.902-.77 1.397-.77.132 0 .242.011.341.033v-1.001c-.704 0-1.331.407-1.738.935v-.814h-.99V38zm6.995 0h.99v-3.586c0-1.353-.979-1.859-2.134-1.859-.858 0-1.584.286-2.178.869l.429.682c.473-.473.99-.704 1.595-.704.759 0 1.298.396 1.298 1.056v.88c-.407-.473-1.023-.704-1.738-.704-.891 0-1.848.528-1.848 1.738 0 1.166.968 1.76 1.848 1.76.715 0 1.32-.253 1.738-.715V38zm0-1.166c-.297.396-.814.605-1.364.605-.715 0-1.221-.429-1.221-1.056s.506-1.056 1.221-1.056c.55 0 1.067.209 1.364.605v.902zm4.039 1.298c.517 0 .825-.143 1.034-.341l-.253-.748c-.099.11-.308.209-.539.209-.341 0-.517-.275-.517-.649v-3.047h1.078v-.869h-1.078v-1.452h-.99v1.452h-.88v.869h.88v3.267c0 .836.429 1.309 1.265 1.309zm1.57-2.794c0 1.672 1.166 2.794 2.75 2.794.858 0 1.606-.275 2.134-.792l-.462-.649c-.396.407-1.012.627-1.573.627-1.067 0-1.727-.748-1.804-1.65h4.202v-.242c0-1.628-.99-2.871-2.585-2.871-1.551 0-2.662 1.243-2.662 2.783zm2.662-1.969c1.122 0 1.595.88 1.617 1.584h-3.245c.055-.726.561-1.584 1.628-1.584zM216.326 38h.99v-7.337h-.99v2.794c-.429-.572-1.056-.902-1.738-.902-1.386 0-2.376 1.089-2.376 2.794 0 1.738.99 2.783 2.376 2.783.704 0 1.342-.363 1.738-.891V38zm0-1.518c-.275.429-.869.77-1.474.77-.99 0-1.606-.803-1.606-1.903 0-1.111.616-1.914 1.606-1.914.605 0 1.199.352 1.474.781v2.266z" fill="#9FAAC4"/><path d="M235.209 38h4.928v-.968h-3.828v-2.288h3.751v-.968h-3.751v-2.145h3.828v-.968h-4.928V38zm7.746.132c.517 0 .825-.143 1.034-.341l-.253-.748c-.099.11-.308.209-.539.209-.341 0-.517-.275-.517-.649v-3.047h1.078v-.869h-1.078v-1.452h-.99v1.452h-.88v.869h.88v3.267c0 .836.429 1.309 1.265 1.309zm5.486-.132h.99v-3.751c0-1.122-.572-1.694-1.705-1.694-.814 0-1.529.451-1.881.88v-2.772h-.99V38h.99v-3.795c.286-.396.847-.77 1.463-.77.682 0 1.133.264 1.133 1.144V38zm2.239-2.662c0 1.672 1.166 2.794 2.75 2.794.858 0 1.606-.275 2.134-.792l-.462-.649c-.396.407-1.012.627-1.573.627-1.067 0-1.727-.748-1.804-1.65h4.202v-.242c0-1.628-.99-2.871-2.585-2.871-1.551 0-2.662 1.243-2.662 2.783zm2.662-1.969c1.122 0 1.595.88 1.617 1.584h-3.245c.055-.726.561-1.584 1.628-1.584zM257.165 38h.99v-3.696c.231-.396.902-.77 1.397-.77.132 0 .242.011.341.033v-1.001c-.704 0-1.331.407-1.738.935v-.814h-.99V38zm3.387-2.662c0 1.672 1.166 2.794 2.75 2.794.858 0 1.606-.275 2.134-.792l-.462-.649c-.396.407-1.012.627-1.573.627-1.067 0-1.727-.748-1.804-1.65h4.202v-.242c0-1.628-.99-2.871-2.585-2.871-1.551 0-2.662 1.243-2.662 2.783zm2.662-1.969c1.122 0 1.595.88 1.617 1.584h-3.245c.055-.726.561-1.584 1.628-1.584zM270.623 38h.99v-5.313h-.99v3.817c-.297.396-.858.748-1.474.748-.682 0-1.122-.264-1.122-1.144v-3.421h-.99v3.751c0 1.122.561 1.694 1.694 1.694.814 0 1.485-.418 1.892-.858V38zm9.016 0h.99v-3.839c0-1.067-.528-1.606-1.507-1.606-.781 0-1.485.495-1.793.99-.165-.572-.638-.99-1.441-.99-.792 0-1.496.55-1.716.88v-.748h-.99V38h.99v-3.795c.264-.385.781-.77 1.298-.77.671 0 .935.407.935 1.023V38h.99v-3.806c.253-.385.781-.759 1.32-.759.649 0 .924.407.924 1.023V38z" fill="#FF5B5B"/><path d="M367 210.225l-1.565-.49a.503.503 0 0 0-.504.125l-2.255 2.27a.497.497 0 0 1-.306.145l-8.61.843a.504.504 0 0 1-.221-.028l-1.601-.585a.494.494 0 0 0-.297-.014l-5.679 1.482a.49.49 0 0 1-.212.008l-8.695-1.512a.481.481 0 0 0-.2.006l-3.454.811a.502.502 0 0 1-.304-.024l-2.234-.916a.5.5 0 0 0-.421.019l-2.877 1.502a.503.503 0 0 1-.499-.021l-7.546-4.782-2.818-2.39a.498.498 0 0 0-.344-.118l-6.853.282-6.605-.479a.52.52 0 0 0-.142.01l-4.064.884a.5.5 0 0 1-.509-.192l-1.417-1.923a.5.5 0 0 0-.619-.154l-5.998 2.869a.5.5 0 0 1-.554-.083l-4.962-4.575a.5.5 0 0 0-.693.014l-3.843 3.844a.501.501 0 0 1-.6.082l-1.707-.965a.5.5 0 0 0-.393-.043l-3.678 1.134a.5.5 0 0 1-.379-.034l-6.297-3.287a.504.504 0 0 0-.406-.025l-2.134.796a.502.502 0 0 1-.472-.067l-6.754-5.009a.495.495 0 0 1-.126-.136l-8.481-13.532-5.97-10.538a.5.5 0 0 0-.801-.094l-2.44 2.617a.5.5 0 0 1-.783-.067l-1.314-2a.5.5 0 0 0-.892.114l-3.131 9.21c-.166.488-.873.436-.965-.071l-1.745-9.562a.5.5 0 0 0-.765-.329l-.431.281a.5.5 0 0 1-.695-.149l-4.97-7.777a.5.5 0 0 0-.761-.098l-2.386 2.211a.5.5 0 0 1-.797-.164l-3.36-7.567a.5.5 0 0 0-.907-.015l-3.007 6.198a.498.498 0 0 1-.695.217l-1.45-.82a.502.502 0 0 0-.58.063l-3.23 2.89a.503.503 0 0 1-.483.105l-1.022-.32a.499.499 0 0 0-.644.406l-.512 3.606a.5.5 0 0 1-.861.27l-1.818-1.957a.5.5 0 0 0-.785.067l-2.321 3.557a.5.5 0 0 1-.727.12l-2.358-1.846a.5.5 0 0 0-.404-.097l-2.647.518a.477.477 0 0 1-.192 0l-2.431-.475a.499.499 0 0 0-.573.343l-2.734 8.854a.5.5 0 0 1-.445.352l-2.498.163a.495.495 0 0 1-.24-.045l-2.311-1.055a.5.5 0 0 0-.692.33l-2.707 10.447a.5.5 0 0 1-.549.37l-2.366-.308a.496.496 0 0 0-.307.058l-2.641 1.464a.5.5 0 0 0-.239.303l-2.839 10.156a.5.5 0 0 1-.327.34l-2.52.822a.498.498 0 0 1-.375-.026l-2.603-1.274a.503.503 0 0 0-.375-.026l-2.575.84a.499.499 0 0 1-.386-.032l-2.738-1.429a.497.497 0 0 0-.09-.036l-2.867-.842a.456.456 0 0 1-.102-.042l-2.629-1.458a.503.503 0 0 0-.551.043l-2.564 2.007a.494.494 0 0 1-.324.106l-2.786-.091-2.896-.094a.501.501 0 0 1-.139-.025l-2.715-.885a.498.498 0 0 0-.362.021l-2.758 1.259a.54.54 0 0 1-.067.025l-2.84.833a.466.466 0 0 1-.189.018l-2.775-.271a.502.502 0 0 0-.189.018l-2.766.811a.486.486 0 0 1-.221.014l-2.855-.465-2.803-.732a.502.502 0 0 0-.322.024l-2.755 1.168a.459.459 0 0 1-.115.033l-2.811.459a.517.517 0 0 1-.192-.006l-2.781-.635a.495.495 0 0 0-.184-.007l-2.875.421-2.859.42a.495.495 0 0 1-.213-.015l-2.485-.729a.5.5 0 0 0-.574.23l-2.609 4.538a.5.5 0 0 1-.486.248l-2.644-.283-2.967-.51-2.968-.509-2.967-.509-2.752-.472a.498.498 0 0 0-.389.096l-2.62 2.01a.498.498 0 0 1-.39.096l-2.752-.472-2.908-.499a.503.503 0 0 1-.114-.034l-2.913-1.26-2.808-1.533a.502.502 0 0 0-.336-.052l-2.61.512a.499.499 0 0 1-.416-.107l-2.629-2.192a.495.495 0 0 0-.235-.109l-2.835-.487-2.853-.602a.501.501 0 0 1-.207-.098l-2.512-1.987a.5.5 0 0 0-.678.053l-2.469 2.678a.498.498 0 0 1-.452.154l-2.412-.414a.5.5 0 0 0-.472.177l-2.74 3.352a.511.511 0 0 1-.1.094l-2.509 1.757a.5.5 0 0 1-.69-.115l-2.432-3.33a.499.499 0 0 0-.623-.154l-2.553 1.249a.548.548 0 0 1-.079.03l-2.835.832a.502.502 0 0 0-.167.086l-2.892 2.264-2.787 2a.501.501 0 0 1-.399.083l-2.659-.585a.491.491 0 0 1-.167-.071l-2.813-1.853a.492.492 0 0 0-.168-.071l-2.832-.622-2.788-.613a.501.501 0 0 0-.408.089l-2.6 1.963a.497.497 0 0 1-.409.089l-2.555-.561a.497.497 0 0 0-.354.053l-2.614 1.483a.497.497 0 0 1-.354.053l-2.8-.615L2 211.363" stroke="#FF5B5B" stroke-width="1.5"/><path d="M367 199.621l-1.33-1.035a.5.5 0 0 0-.771.209l-2.254 5.637a.501.501 0 0 1-.347.3l-8.394 2.041a.5.5 0 0 1-.454-.116l-1.373-1.246a.5.5 0 0 0-.608-.05l-5.388 3.493a.5.5 0 0 1-.47.04l-8.425-3.642a.5.5 0 0 0-.45.027l-3.155 1.841a.5.5 0 0 1-.609-.081l-1.921-1.958a.5.5 0 0 0-.753.045l-2.552 3.309a.5.5 0 0 1-.818-.037l-7.408-11.663-2.816-5.934a.498.498 0 0 0-.502-.283l-6.627.678a.499.499 0 0 1-.139-.005l-6.435-1.159a.502.502 0 0 0-.327.052l-3.755 2.029a.5.5 0 0 1-.717-.298l-1.416-4.772a.5.5 0 0 0-.861-.18l-5.561 6.61a.5.5 0 0 1-.841-.122l-4.764-10.916a.5.5 0 0 0-.922.014l-3.666 9.109a.5.5 0 0 1-.871.103l-1.395-1.96a.5.5 0 0 0-.711-.107l-3.126 2.395a.5.5 0 0 1-.774-.229l-5.849-16.344c-.17-.475-.857-.428-.96.066l-1.836 8.769c-.106.506-.816.539-.967.044l-6.018-19.627a.5.5 0 0 0-.953-.01l-7.406 22.459c-.163.495-.881.441-.968-.074l-5.664-33.826c-.084-.504-.781-.572-.961-.093l-2.134 5.688a.5.5 0 0 1-.951-.048l-1.345-5.087c-.131-.495-.834-.497-.967-.002l-2.959 11.028c-.141.526-.902.48-.978-.059l-1.688-11.893a.5.5 0 0 0-.92-.192l-.141.227a.5.5 0 0 1-.91-.138l-4.908-19.086a.5.5 0 0 0-.943-.075l-2.099 4.832a.5.5 0 0 1-.95-.111l-3.319-18.575c-.098-.545-.877-.551-.983-.008l-2.974 15.232a.5.5 0 0 1-.898.194l-1.045-1.468a.5.5 0 0 0-.863.085l-3.091 6.871a.5.5 0 0 1-.763.189l-.581-.452a.5.5 0 0 0-.807.377l-.616 17.122c-.02.546-.777.669-.968.157l-1.538-4.113a.5.5 0 0 0-.952.048l-2.236 8.517a.5.5 0 0 1-.928.102l-2.147-4.176a.5.5 0 0 0-.664-.221l-2.309 1.122a.494.494 0 0 1-.437 0l-2.749-1.336-2.852-.925a.506.506 0 0 0-.235-.018l-2.575.418a.5.5 0 0 1-.455-.163l-2.397-2.72a.5.5 0 0 0-.761.013l-2.378 2.891a.5.5 0 0 1-.541.158l-2.298-.745a.502.502 0 0 0-.559.182l-2.675 3.686a.506.506 0 0 0-.092.242l-2.933 28.419a.5.5 0 0 1-.182.337l-2.421 1.962a.5.5 0 0 1-.701-.071l-2.337-2.841a.5.5 0 0 0-.701-.07l-2.184 1.77a.5.5 0 0 1-.71-.083l-2.611-3.386a.479.479 0 0 0-.102-.099l-2.846-2.076a.521.521 0 0 1-.11-.11l-2.443-3.367a.501.501 0 0 0-.85.065l-2.443 4.752a.498.498 0 0 1-.485.27l-2.635-.213-2.813-.228a.505.505 0 0 1-.275-.11l-2.474-2.006a.5.5 0 0 0-.69.058l-2.614 2.966a.47.47 0 0 1-.081.073l-2.736 1.996a.496.496 0 0 1-.412.082l-2.517-.612a.499.499 0 0 0-.413.082l-2.555 1.864a.5.5 0 0 1-.483.059l-2.665-1.08a.478.478 0 0 1-.084-.044l-2.579-1.672a.5.5 0 0 0-.635.076l-2.607 2.746a.5.5 0 0 1-.175.119l-2.643 1.071a.498.498 0 0 1-.434-.028l-2.556-1.45a.499.499 0 0 0-.418-.035l-2.751 1.003-2.717.991a.501.501 0 0 1-.466-.066l-2.14-1.562a.5.5 0 0 0-.782.292l-2.681 11.586a.5.5 0 0 1-.616.371l-2.433-.649a.53.53 0 0 1-.067-.023l-2.935-1.252-2.968-1.265-2.967-1.265-2.543-1.085a.5.5 0 0 0-.639.228l-2.539 4.84a.499.499 0 0 1-.639.227l-2.543-1.084-2.87-1.224a.496.496 0 0 1-.17-.119l-2.895-3.112-2.72-3.69a.5.5 0 0 0-.621-.153l-2.195 1.07a.5.5 0 0 1-.67-.232l-2.614-5.421a.497.497 0 0 0-.255-.242l-2.794-1.192-2.827-1.484a.501.501 0 0 1-.213-.216l-2.378-4.675a.5.5 0 0 0-.914.052l-2.388 6.438a.5.5 0 0 1-.665.286l-1.984-.846a.5.5 0 0 0-.671.304l-2.782 8.458a.527.527 0 0 1-.041.093l-2.359 4.105a.5.5 0 0 1-.913-.108l-2.372-8.072a.5.5 0 0 0-.866-.176l-2.327 2.829a.457.457 0 0 1-.091.086l-2.82 2.058a.503.503 0 0 0-.151.175l-2.913 5.667-2.726 4.862a.5.5 0 0 1-.676.194l-2.416-1.319a.505.505 0 0 1-.187-.178l-2.828-4.632a.498.498 0 0 0-.187-.178l-2.805-1.532-2.57-1.402a.5.5 0 0 0-.68.203l-2.493 4.675a.5.5 0 0 1-.68.204l-2.134-1.165a.499.499 0 0 0-.648.149l-2.432 3.429a.5.5 0 0 1-.648.15l-2.598-1.418L2 202.448" stroke="#9FAAC4" stroke-width="1.5"/><path d="M367 178.245l-1.227-1.503a.5.5 0 0 0-.872.194l-2.288 9.003a.5.5 0 0 1-.306.343l-8.296 3.174a.501.501 0 0 1-.588-.181l-1.286-1.836a.5.5 0 0 0-.767-.063l-5.221 5.326a.5.5 0 0 1-.638.063l-8.229-5.596a.502.502 0 0 0-.62.045l-2.973 2.73a.5.5 0 0 1-.763-.103l-1.801-2.887a.5.5 0 0 0-.873.044l-2.449 4.996a.5.5 0 0 1-.913-.033l-7.37-18.257-2.841-9.418a.5.5 0 0 0-.558-.349l-6.507 1.048a.504.504 0 0 1-.215-.013l-6.314-1.788a.499.499 0 0 0-.46.1l-3.592 3.053a.5.5 0 0 1-.815-.288l-1.433-7.597a.5.5 0 0 0-.932-.143l-5.419 10.132a.5.5 0 0 1-.922-.102l-4.729-17.041c-.137-.494-.839-.487-.966.009l-3.634 14.208a.5.5 0 0 1-.94.082l-1.309-2.893a.5.5 0 0 0-.84-.113l-3.076 3.708a.5.5 0 0 1-.834-.099l-5.96-12.158a.5.5 0 0 0-.861-.062l-1.551 2.259a.5.5 0 0 1-.885-.12l-6.249-18.116a.5.5 0 0 0-.946.002l-7.39 21.63c-.17.497-.892.43-.968-.09l-5.633-38.871c-.079-.545-.854-.58-.981-.044l-2.161 9.061c-.127.53-.889.504-.98-.033l-1.289-7.671c-.094-.562-.906-.553-.988.011l-2.973 20.404c-.086.59-.948.561-.994-.033l-1.711-22.108c-.041-.53-.77-.638-.964-.144l-.023.058c-.185.474-.877.4-.959-.102l-4.902-29.985c-.086-.53-.832-.57-.975-.053l-2.044 7.403c-.146.53-.917.47-.979-.077l-3.314-29.18c-.067-.589-.92-.593-.993-.005l-2.972 23.95c-.062.5-.744.604-.952.144l-.931-2.058a.5.5 0 0 0-.936.069l-3.072 10.743a.5.5 0 0 1-.868.179l-.411-.503a.5.5 0 0 0-.887.298l-.56 15.422c-.021.582-.851.664-.986.098l-1.543-6.492c-.126-.53-.889-.504-.979.034l-2.225 13.331c-.086.515-.806.57-.968.073l-2.116-6.473a.5.5 0 0 0-.779-.242l-2.104 1.609a.5.5 0 0 1-.607 0l-2.628-2.01a.463.463 0 0 0-.076-.048l-2.759-1.407a.497.497 0 0 0-.351-.039l-2.413.615a.5.5 0 0 1-.559-.24l-2.329-4.156a.5.5 0 0 0-.879.012l-2.31 4.418a.5.5 0 0 1-.671.214l-2.063-1.052a.5.5 0 0 0-.681.236l-2.719 5.892a.531.531 0 0 0-.041.141l-2.939 21.286a.491.491 0 0 1-.102.24l-2.406 3.068a.5.5 0 0 1-.836-.077l-2.25-4.303a.501.501 0 0 0-.837-.077l-1.998 2.548a.5.5 0 0 1-.842-.089l-2.588-5.279a.521.521 0 0 0-.072-.108l-2.877-3.302a.489.489 0 0 1-.078-.119l-2.403-5.21a.5.5 0 0 0-.93.054l-2.443 7.477a.5.5 0 0 1-.539.34l-2.557-.326-2.764-.352a.5.5 0 0 1-.33-.188l-2.378-3.031a.5.5 0 0 0-.83.064l-2.575 4.597a.55.55 0 0 1-.059.084l-2.705 3.103a.499.499 0 0 1-.555.139l-2.315-.886a.5.5 0 0 0-.556.139l-2.455 2.817a.501.501 0 0 1-.646.093l-2.556-1.63a.464.464 0 0 1-.088-.071l-2.476-2.525a.5.5 0 0 0-.785.091l-2.574 4.266a.496.496 0 0 1-.159.163l-2.55 1.626a.5.5 0 0 1-.601-.049l-2.416-2.156a.5.5 0 0 0-.582-.061l-2.655 1.523-2.611 1.499a.501.501 0 0 1-.626-.106l-1.984-2.276a.5.5 0 0 0-.872.255l-2.715 18.467a.501.501 0 0 1-.688.389l-2.329-.976a.542.542 0 0 1-.085-.046l-2.927-1.964-2.968-1.991-2.967-1.991-2.422-1.624a.5.5 0 0 0-.753.257l-2.552 7.654a.5.5 0 0 1-.753.257l-2.422-1.625-2.874-1.928a.494.494 0 0 1-.152-.16l-2.91-4.92-2.703-5.77a.5.5 0 0 0-.757-.185l-1.956 1.5a.5.5 0 0 1-.783-.25l-2.65-8.647a.5.5 0 0 0-.2-.269l-2.82-1.891-2.855-2.358a.5.5 0 0 1-.158-.232l-2.371-7.335c-.156-.482-.846-.454-.963.039l-2.39 10.138a.5.5 0 0 1-.765.3l-1.752-1.175a.5.5 0 0 0-.768.313l-2.809 13.435a.462.462 0 0 1-.02.069l-2.328 6.378c-.175.477-.868.42-.961-.08l-2.368-12.676a.5.5 0 0 0-.934-.14l-2.27 4.342a.481.481 0 0 1-.067.097l-2.862 3.284a.509.509 0 0 0-.098.173l-2.936 8.984-2.723 7.641a.5.5 0 0 1-.797.212l-2.32-1.993a.493.493 0 0 1-.14-.198l-2.877-7.412a.503.503 0 0 0-.14-.199l-2.828-2.428-2.45-2.105a.5.5 0 0 0-.8.219l-2.492 7.354a.5.5 0 0 1-.8.218l-1.899-1.63a.5.5 0 0 0-.781.173l-2.398 5.318a.5.5 0 0 1-.782.173l-2.48-2.13L2 162.692" stroke="#2F354D" stroke-width="1.5"/><defs><filter id="filter0_d" x="48" y="3.955" width="273" height="80" filterUnits="userSpaceOnUse" color-interpolation-filters="sRGB"><feFlood flood-opacity="0" result="BackgroundImageFix"/><feColorMatrix in="SourceAlpha" values="0 0 0 0 0 0 0 0 0 0 0 0 0 0 0 0 0 0 127 0"/><feOffset dy="7.955"/><feGaussianBlur stdDeviation="10"/><feColorMatrix values="0 0 0 0 0.476616 0 0 0 0 0.521707 0 0 0 0 0.620087 0 0 0 0.1 0"/><feBlend in2="BackgroundImageFix" result="effect1_dropShadow"/><feBlend in="SourceGraphic" in2="effect1_dropShadow" result="shape"/></filter></defs></svg>