<svg width="368" height="231" fill="none" xmlns="http://www.w3.org/2000/svg"><rect x=".5" y=".5" width="367" height="230" rx="3.5" fill="#fff" stroke="#E7EAF3"/><mask id="a" maskUnits="userSpaceOnUse" x="0" y="0" width="368" height="231"><rect x=".5" y=".5" width="367" height="230" rx="3.5" fill="#fff" stroke="#E7EAF3"/></mask><g mask="url(#a)"><circle opacity=".5" cx="184" cy="116" r="127.5" stroke="#E7EAF3"/><circle opacity=".5" cx="184" cy="116" r="79.5" stroke="#E7EAF3"/><g opacity=".15" filter="url(#filter0_f)"><rect x="144" y="113" width="81" height="28" rx="6.222" fill="#7A859E"/></g><g filter="url(#filter1_d)"><rect x="140" y="96" width="89" height="40" rx="20" fill="#fff"/><rect x="140.389" y="96.389" width="88.222" height="39.222" rx="19.611" stroke="#F1F3F9" stroke-width=".778"/></g><g opacity=".15" filter="url(#filter2_f)"><rect x="273" y="41" width="32" height="28" rx="6.222" fill="#7A859E"/></g><g filter="url(#filter3_d)"><rect x="269" y="25" width="40" height="40" rx="20" fill="#fff"/><rect x="269.389" y="25.389" width="39.222" height="39.222" rx="19.611" stroke="#F1F3F9" stroke-width=".778"/></g><g opacity=".5"><path d="M289 57c6.627 0 12-5.373 12-12s-5.373-12-12-12-12 5.373-12 12 5.373 12 12 12z" fill="#000"/><path d="M285.165 41.708L289 53.75l-5.691-3.565 1.856-8.477 3.835-5.24v3.675l-5.691 10.042h11.387l-5.691-10.042v-3.675l3.835 5.24 1.856 8.477-5.691 3.565 3.835-12.042" stroke="#fff" stroke-width=".64" stroke-linecap="round" stroke-linejoin="round"/></g><g opacity=".15" filter="url(#filter4_f)"><rect x="273" y="184" width="32" height="28" rx="6.222" fill="#7A859E"/></g><g filter="url(#filter5_d)"><rect x="269" y="168" width="40" height="40" rx="20" fill="#fff"/><rect x="269.389" y="168.389" width="39.222" height="39.222" rx="19.611" stroke="#F1F3F9" stroke-width=".778"/></g><g opacity=".5"><path d="M289 200c6.627 0 12-5.373 12-12s-5.373-12-12-12-12 5.373-12 12 5.373 12 12 12z" fill="#008CE7"/><path d="M291.314 182.003h-5.457l-.451 2.525 4.921.008c2.424 0 3.143.88 3.12 2.34-.011.748-.337 2.014-.475 2.422-.373 1.095-1.141 2.342-4.019 2.338l-4.784-.003-.451 2.528h5.442c1.92 0 2.737-.224 3.6-.622 1.916-.884 3.057-2.776 3.515-5.246.679-3.675-.168-6.29-4.961-6.29z" fill="#fff"/><path d="M288.855 187.849c.178-.739.234-1.035.234-1.035h-5.584c-1.428 0-1.632.93-1.768 1.492a23.412 23.412 0 0 0-.234 1.036h5.585c1.427 0 1.631-.93 1.767-1.493z" fill="#fff"/></g><g opacity=".15" filter="url(#filter6_f)"><rect x="65" y="41" width="32" height="28" rx="6.222" fill="#7A859E"/></g><g filter="url(#filter7_d)"><rect x="61" y="25" width="40" height="40" rx="20" fill="#fff"/><rect x="61.389" y="25.389" width="39.222" height="39.222" rx="19.611" stroke="#F1F3F9" stroke-width=".778"/></g><path d="M83.385 57c-1.713 0-2.963-.413-3.75-1.238a3.82 3.82 0 0 1-1.177-2.666c-.01-.307.062-.61.206-.882.134-.234.328-.428.562-.563a1.962 1.962 0 0 1 1.752 0 1.5 1.5 0 0 1 .559.563c.148.27.222.574.213.882.016.367-.09.73-.3 1.031a1.4 1.4 0 0 1-.712.522c.281.358.68.606 1.125.7.498.146 1.014.22 1.533.222a3.419 3.419 0 0 0 1.932-.577 3.375 3.375 0 0 0 1.26-1.707c.286-.82.425-1.684.412-2.553a7.008 7.008 0 0 0-.45-2.655 3.278 3.278 0 0 0-1.301-1.65 3.461 3.461 0 0 0-1.875-.537 3.566 3.566 0 0 0-1.624.552l-1.204.603v-.603l5.411-7.26h-7.5v7.533c-.02.544.123 1.081.413 1.542a1.42 1.42 0 0 0 1.26.603 2.111 2.111 0 0 0 1.245-.438c.405-.297.757-.66 1.043-1.073a.375.375 0 0 1 .135-.18.278.278 0 0 1 .18-.067.623.623 0 0 1 .353.15.75.75 0 0 1 .192.51 2.98 2.98 0 0 1-.068.375 3.63 3.63 0 0 1-1.286 1.597 3.191 3.191 0 0 1-1.805.548c-1.623 0-2.748-.32-3.374-.96a3.595 3.595 0 0 1-.93-2.625v-7.514H72v-1.4h3.832v-3.191l-.877-.878V33h2.546l.957.495v4.29l9.907-.03.986.99-6.075 6.104a4.082 4.082 0 0 1 1.148-.277c.78.034 1.54.251 2.22.634a4.561 4.561 0 0 1 1.913 1.706c.413.627.706 1.325.862 2.06a8.67 8.67 0 0 1 .207 1.762 7.373 7.373 0 0 1-.75 3.266 4.79 4.79 0 0 1-2.25 2.25 7.281 7.281 0 0 1-3.241.75z" fill="#2C7DF7" opacity=".5"/><g opacity=".15" filter="url(#filter8_f)"><rect x="65" y="184" width="32" height="28" rx="6.222" fill="#7A859E"/></g><g filter="url(#filter9_d)"><rect x="61" y="168" width="40" height="40" rx="20" fill="#fff"/><rect x="61.389" y="168.389" width="39.222" height="39.222" rx="19.611" stroke="#F1F3F9" stroke-width=".778"/></g><g opacity=".5"><path d="M81 200c6.627 0 12-5.373 12-12s-5.373-12-12-12-12 5.373-12 12 5.373 12 12 12z" fill="#001D57"/><path d="M84.374 179.966l.903.903-1.708 1.755a3.38 3.38 0 0 1 .553 1.859 3.335 3.335 0 0 1-.943 2.348 3.136 3.136 0 0 1-1.663.92v1.529a3.21 3.21 0 0 1 1.66.915 3.34 3.34 0 0 1 .946 2.352 3.335 3.335 0 0 1-.946 2.351 3.187 3.187 0 0 1-2.303.977 3.185 3.185 0 0 1-2.302-.977 3.355 3.355 0 0 1-.946-2.351c0-.885.336-1.724.944-2.349a3.135 3.135 0 0 1 1.662-.919v-1.53a3.196 3.196 0 0 1-1.66-.915 3.355 3.355 0 0 1-.946-2.352c0-.885.336-1.724.947-2.351a3.202 3.202 0 0 1 2.302-.977c.645 0 1.265.196 1.796.562l1.705-1.75zm-3.5 10.543a1.897 1.897 0 0 0-1.393.592 2.065 2.065 0 0 0-.581 1.446c0 .544.206 1.052.581 1.445a1.93 1.93 0 0 0 2.785 0 2.06 2.06 0 0 0 .581-1.445c0-.544-.206-1.051-.583-1.448a1.909 1.909 0 0 0-.634-.44 1.906 1.906 0 0 0-.756-.15zm1.39-4.568c.376-.388.586-.908.583-1.448a2.023 2.023 0 0 0-.581-1.446 1.94 1.94 0 0 0-2.15-.441 1.9 1.9 0 0 0-.635.441 2.061 2.061 0 0 0-.581 1.446c0 .544.206 1.051.581 1.445a1.943 1.943 0 0 0 1.393.593c.533 0 1.025-.207 1.39-.59z" fill="#fff"/></g></g><path d="M166 128c6.627 0 12-5.373 12-12s-5.373-12-12-12-12 5.373-12 12 5.373 12 12 12z" fill="#F7931A"/><path d="M171.392 114.515c.235-1.572-.962-2.417-2.599-2.981l.531-2.13-1.296-.323-.517 2.074c-.341-.086-.69-.165-1.039-.245l.521-2.087-1.296-.323-.531 2.129a35.089 35.089 0 0 1-.828-.195l.002-.007-1.788-.446-.345 1.385s.962.22.942.234c.525.131.619.478.603.754l-.604 2.426c.036.009.082.023.135.043l-.137-.034-.848 3.399c-.064.159-.227.399-.595.308.014.019-.942-.235-.942-.235l-.643 1.484 1.687.421c.314.078.621.161.924.238l-.537 2.154 1.296.322.531-2.13c.354.096.697.184 1.033.268l-.529 2.121 1.296.323.536-2.15c2.211.419 3.873.25 4.573-1.75.564-1.609-.028-2.538-1.191-3.143.847-.195 1.485-.753 1.655-1.904zm-2.963 4.154c-.399 1.61-3.111.739-3.99.521l.713-2.854c.879.22 3.697.654 3.277 2.333zm.402-4.177c-.366 1.465-2.622.72-3.353.538l.645-2.588c.731.182 3.089.522 2.708 2.05z" fill="#fff"/><path d="M202.422 104l-.162.547v15.866l.162.16 7.422-4.353-7.422-12.22z" fill="#343434"/><path d="M202.422 104L195 116.22l7.422 4.353V104z" fill="#8C8C8C"/><path d="M202.422 121.968l-.091.11v5.652l.091.265 7.427-10.379-7.427 4.352z" fill="#3C3C3B"/><path d="M202.422 127.995v-6.027L195 117.616l7.422 10.379z" fill="#8C8C8C"/><path d="M202.422 120.573l7.422-4.353-7.422-3.348v7.701z" fill="#141414"/><path d="M195 116.22l7.422 4.353v-7.701L195 116.22z" fill="#393939"/><defs><filter id="filter0_f" x="97.333" y="66.333" width="174.333" height="121.333" filterUnits="userSpaceOnUse" color-interpolation-filters="sRGB"><feFlood flood-opacity="0" result="BackgroundImageFix"/><feBlend in="SourceGraphic" in2="BackgroundImageFix" result="shape"/><feGaussianBlur stdDeviation="23.333" result="effect1_foregroundBlur"/></filter><filter id="filter1_d" x="108.889" y="72.667" width="151.222" height="102.222" filterUnits="userSpaceOnUse" color-interpolation-filters="sRGB"><feFlood flood-opacity="0" result="BackgroundImageFix"/><feColorMatrix in="SourceAlpha" values="0 0 0 0 0 0 0 0 0 0 0 0 0 0 0 0 0 0 127 0"/><feOffset dy="7.778"/><feGaussianBlur stdDeviation="15.556"/><feColorMatrix values="0 0 0 0 0.476616 0 0 0 0 0.521707 0 0 0 0 0.620087 0 0 0 0.06 0"/><feBlend in2="BackgroundImageFix" result="effect1_dropShadow"/><feBlend in="SourceGraphic" in2="effect1_dropShadow" result="shape"/></filter><filter id="filter2_f" x="226.333" y="-5.667" width="125.333" height="121.333" filterUnits="userSpaceOnUse" color-interpolation-filters="sRGB"><feFlood flood-opacity="0" result="BackgroundImageFix"/><feBlend in="SourceGraphic" in2="BackgroundImageFix" result="shape"/><feGaussianBlur stdDeviation="23.333" result="effect1_foregroundBlur"/></filter><filter id="filter3_d" x="237.889" y="1.667" width="102.222" height="102.222" filterUnits="userSpaceOnUse" color-interpolation-filters="sRGB"><feFlood flood-opacity="0" result="BackgroundImageFix"/><feColorMatrix in="SourceAlpha" values="0 0 0 0 0 0 0 0 0 0 0 0 0 0 0 0 0 0 127 0"/><feOffset dy="7.778"/><feGaussianBlur stdDeviation="15.556"/><feColorMatrix values="0 0 0 0 0.476616 0 0 0 0 0.521707 0 0 0 0 0.620087 0 0 0 0.06 0"/><feBlend in2="BackgroundImageFix" result="effect1_dropShadow"/><feBlend in="SourceGraphic" in2="effect1_dropShadow" result="shape"/></filter><filter id="filter4_f" x="226.333" y="137.333" width="125.333" height="121.333" filterUnits="userSpaceOnUse" color-interpolation-filters="sRGB"><feFlood flood-opacity="0" result="BackgroundImageFix"/><feBlend in="SourceGraphic" in2="BackgroundImageFix" result="shape"/><feGaussianBlur stdDeviation="23.333" result="effect1_foregroundBlur"/></filter><filter id="filter5_d" x="237.889" y="144.667" width="102.222" height="102.222" filterUnits="userSpaceOnUse" color-interpolation-filters="sRGB"><feFlood flood-opacity="0" result="BackgroundImageFix"/><feColorMatrix in="SourceAlpha" values="0 0 0 0 0 0 0 0 0 0 0 0 0 0 0 0 0 0 127 0"/><feOffset dy="7.778"/><feGaussianBlur stdDeviation="15.556"/><feColorMatrix values="0 0 0 0 0.476616 0 0 0 0 0.521707 0 0 0 0 0.620087 0 0 0 0.06 0"/><feBlend in2="BackgroundImageFix" result="effect1_dropShadow"/><feBlend in="SourceGraphic" in2="effect1_dropShadow" result="shape"/></filter><filter id="filter6_f" x="18.333" y="-5.667" width="125.333" height="121.333" filterUnits="userSpaceOnUse" color-interpolation-filters="sRGB"><feFlood flood-opacity="0" result="BackgroundImageFix"/><feBlend in="SourceGraphic" in2="BackgroundImageFix" result="shape"/><feGaussianBlur stdDeviation="23.333" result="effect1_foregroundBlur"/></filter><filter id="filter7_d" x="29.889" y="1.667" width="102.222" height="102.222" filterUnits="userSpaceOnUse" color-interpolation-filters="sRGB"><feFlood flood-opacity="0" result="BackgroundImageFix"/><feColorMatrix in="SourceAlpha" values="0 0 0 0 0 0 0 0 0 0 0 0 0 0 0 0 0 0 127 0"/><feOffset dy="7.778"/><feGaussianBlur stdDeviation="15.556"/><feColorMatrix values="0 0 0 0 0.476616 0 0 0 0 0.521707 0 0 0 0 0.620087 0 0 0 0.06 0"/><feBlend in2="BackgroundImageFix" result="effect1_dropShadow"/><feBlend in="SourceGraphic" in2="effect1_dropShadow" result="shape"/></filter><filter id="filter8_f" x="18.333" y="137.333" width="125.333" height="121.333" filterUnits="userSpaceOnUse" color-interpolation-filters="sRGB"><feFlood flood-opacity="0" result="BackgroundImageFix"/><feBlend in="SourceGraphic" in2="BackgroundImageFix" result="shape"/><feGaussianBlur stdDeviation="23.333" result="effect1_foregroundBlur"/></filter><filter id="filter9_d" x="29.889" y="144.667" width="102.222" height="102.222" filterUnits="userSpaceOnUse" color-interpolation-filters="sRGB"><feFlood flood-opacity="0" result="BackgroundImageFix"/><feColorMatrix in="SourceAlpha" values="0 0 0 0 0 0 0 0 0 0 0 0 0 0 0 0 0 0 127 0"/><feOffset dy="7.778"/><feGaussianBlur stdDeviation="15.556"/><feColorMatrix values="0 0 0 0 0.476616 0 0 0 0 0.521707 0 0 0 0 0.620087 0 0 0 0.06 0"/><feBlend in2="BackgroundImageFix" result="effect1_dropShadow"/><feBlend in="SourceGraphic" in2="effect1_dropShadow" result="shape"/></filter></defs></svg>