<svg width="484" height="324" fill="none" xmlns="http://www.w3.org/2000/svg"><rect x=".5" y=".5" width="483" height="323" rx="3.5" fill="#fff" stroke="#E7EAF3"/><mask id="a" maskUnits="userSpaceOnUse" x="0" y="0" width="484" height="324"><rect x=".5" y=".5" width="483" height="323" rx="3.5" fill="#fff" stroke="#E7EAF3"/></mask><g mask="url(#a)"><path d="M62.644 307h4.83v-1.03h-2.96c1.79-1.35 2.92-2.45 2.92-3.68 0-1.33-1.13-2.06-2.42-2.06-.93 0-1.87.36-2.46 1.07l.68.77c.42-.48 1.02-.8 1.8-.8.61 0 1.21.32 1.21 1.02 0 .96-1.01 1.83-3.6 3.79v.92zm5.857-3.33c0 1.68.8 3.45 2.67 3.45 1.87 0 2.67-1.77 2.67-3.45 0-1.68-.8-3.44-2.67-3.44-1.87 0-2.67 1.76-2.67 3.44zm4.15 0c0 1.27-.39 2.41-1.48 2.41-1.09 0-1.48-1.14-1.48-2.41 0-1.27.39-2.4 1.48-2.4 1.09 0 1.48 1.13 1.48 2.4zm3.522 3.33h1.17v-6.67h-1.02l-1.92 1.94.68.71 1.09-1.13V307zm2.619-.63c.45.45 1.09.74 1.91.74 1.93 0 2.94-1.52 2.94-3.44 0-1.86-.79-3.45-2.75-3.45-1.49 0-2.46 1.01-2.46 2.24 0 1.42 1.04 2.16 2.24 2.16.78 0 1.48-.49 1.79-.94v.2c0 1.09-.55 2.19-1.76 2.19-.63 0-1.02-.22-1.37-.58l-.54.88zm3.65-3.54c-.33.48-.89.78-1.46.78-.72 0-1.36-.37-1.36-1.19 0-.53.46-1.16 1.33-1.16 1.03 0 1.43.85 1.49 1.57zm1.916 2.2h2.4v-.9h-2.4v.9zm6.158 1.97h1.17v-1.51h.89v-1.03h-.89v-4.13h-1.61l-2.74 4.22v.94h3.18V307zm0-5.62v3.08h-2.03l2.03-3.08zm-67.038-21.71c0 1.68.8 3.45 2.67 3.45 1.87 0 2.67-1.77 2.67-3.45 0-1.68-.8-3.44-2.67-3.44-1.87 0-2.67 1.76-2.67 3.44zm4.15 0c0 1.27-.39 2.41-1.48 2.41-1.09 0-1.48-1.14-1.48-2.41 0-1.27.39-2.4 1.48-2.4 1.09 0 1.48 1.13 1.48 2.4zm8.25 3.33h1.05v-6.67h-1.05v2.51c-.39-.51-.95-.79-1.55-.79-1.25 0-2.15.98-2.15 2.54 0 1.59.91 2.53 2.15 2.53.62 0 1.18-.3 1.55-.78v.66zm0-1.45c-.24.36-.75.64-1.25.64-.83 0-1.36-.67-1.36-1.6 0-.94.53-1.61 1.36-1.61.5 0 1.01.29 1.25.65v1.92zM41.24 283h1.05v-3.2c0-1.3-.94-1.75-2.01-1.75-.77 0-1.47.25-2.03.78l.43.73c.42-.41.89-.61 1.43-.61.67 0 1.13.34 1.13.9v.72c-.35-.41-.91-.62-1.56-.62-.79 0-1.68.46-1.68 1.57 0 1.07.89 1.6 1.68 1.6.64 0 1.2-.23 1.56-.64v.52zm0-1.1c-.24.33-.69.5-1.15.5-.59 0-1.03-.34-1.03-.86 0-.53.44-.87 1.03-.87.46 0 .91.17 1.15.5v.73zm2.362 2.05l-.16.94c.15.04.44.07.59.07.75-.01 1.33-.27 1.66-1.09l2.33-5.7h-1.13l-1.41 3.62-1.41-3.62h-1.12l1.98 4.89-.24.55c-.14.32-.36.42-.69.42-.12 0-.29-.03-.4-.08zm409.038-2.89c0-1.34-1.12-1.73-2.16-2.01v-1.72c.5.1.97.33 1.34.7l.67-.87c-.52-.5-1.19-.82-2.01-.9v-.94h-.8v.92c-1.29.11-2.12.92-2.12 1.94 0 1.3 1.09 1.68 2.12 1.94v1.93a2.94 2.94 0 0 1-1.68-.89l-.65.9c.53.56 1.29.97 2.33 1.05v.89h.8v-.9c1.5-.14 2.16-1.02 2.16-2.04zm-3.88-2.96c0-.45.35-.76.92-.82v1.56c-.53-.15-.92-.35-.92-.74zm1.72 3.95v-1.72c.56.17.97.38.97.84 0 .38-.28.78-.97.88zm4.495.95h1.17v-6.67h-1.02l-1.92 1.94.68.71 1.09-1.13V283zm5.759 0h1.32l-2.05-2.64 2.01-2.19h-1.3l-2.13 2.33v-4.17h-1.05V283h1.05v-1.3l.67-.69 1.48 1.99zM10.102 235h4.83v-1.03h-2.96c1.79-1.35 2.92-2.45 2.92-3.68 0-1.33-1.13-2.06-2.42-2.06-.93 0-1.87.36-2.46 1.07l.68.77c.42-.48 1.02-.8 1.8-.8.61 0 1.21.32 1.21 1.02 0 .96-1.01 1.83-3.6 3.79v.92zm5.867-1.71c0 1.2 1.19 1.83 2.56 1.83 1.36 0 2.55-.64 2.55-1.83 0-.85-.69-1.46-1.5-1.73.75-.24 1.4-.73 1.4-1.58 0-1.23-1.28-1.75-2.45-1.75-1.19 0-2.45.52-2.45 1.75 0 .85.64 1.34 1.39 1.58-.81.27-1.5.88-1.5 1.73zm3.82-3.13c0 .63-.85.87-1.26.94-.41-.07-1.27-.31-1.27-.94 0-.56.54-.89 1.27-.89.71 0 1.26.33 1.26.89zm.11 2.98c0 .58-.63.94-1.37.94-.76 0-1.38-.36-1.38-.94 0-.69.96-1 1.38-1.05.41.05 1.37.36 1.37 1.05zm9.055 1.86h1.1l1.5-4.83h-1.09l-1.02 3.51-1.15-3.51h-.92l-1.15 3.51-1.02-3.51h-1.09l1.5 4.83h1.1l1.12-3.54 1.12 3.54zm3.03-2.42c0 1.53 1.08 2.54 2.53 2.54.77 0 1.48-.24 1.96-.7l-.48-.69c-.34.34-.9.53-1.37.53-.91 0-1.46-.6-1.54-1.33h3.73v-.25c0-1.52-.93-2.63-2.38-2.63-1.43 0-2.45 1.13-2.45 2.53zm2.45-1.67c.95 0 1.34.71 1.36 1.28h-2.72c.05-.59.46-1.28 1.36-1.28zm3.116 1.67c0 1.53 1.08 2.54 2.53 2.54.77 0 1.48-.24 1.96-.7l-.48-.69c-.34.34-.9.53-1.37.53-.91 0-1.46-.6-1.54-1.33h3.73v-.25c0-1.52-.93-2.63-2.38-2.63-1.43 0-2.45 1.13-2.45 2.53zm2.45-1.67c.95 0 1.34.71 1.36 1.28h-2.72c.05-.59.46-1.28 1.36-1.28zm6.616 4.09h1.32l-2.05-2.64 2.01-2.19h-1.3l-2.13 2.33v-4.17h-1.05V235h1.05v-1.3l.67-.69 1.48 1.99zm406.024-49.94c0-1.34-1.12-1.73-2.16-2.01v-1.72c.5.1.97.33 1.34.7l.67-.87c-.52-.5-1.19-.82-2.01-.9v-.94h-.8v.92c-1.29.11-2.12.92-2.12 1.94 0 1.3 1.09 1.68 2.12 1.94v1.93a2.94 2.94 0 0 1-1.68-.89l-.65.9c.53.56 1.29.97 2.33 1.05v.89h.8v-.9c1.5-.14 2.16-1.02 2.16-2.04zm-3.88-2.96c0-.45.35-.76.92-.82v1.56c-.53-.15-.92-.35-.92-.74zm1.72 3.95v-1.72c.56.17.97.38.97.84 0 .38-.28.78-.97.88zm4.495.95h1.17v-6.67h-1.02l-1.92 1.94.68.71 1.09-1.13V187zm2.289-3.33c0 1.68.8 3.45 2.67 3.45 1.87 0 2.67-1.77 2.67-3.45 0-1.68-.8-3.44-2.67-3.44-1.87 0-2.67 1.76-2.67 3.44zm4.15 0c0 1.27-.39 2.41-1.48 2.41-1.09 0-1.48-1.14-1.48-2.41 0-1.27.39-2.4 1.48-2.4 1.09 0 1.48 1.13 1.48 2.4zm5.482 3.33h1.32l-2.05-2.64 2.01-2.19h-1.3l-2.13 2.33v-4.17h-1.05V187h1.05v-1.3l.67-.69 1.48 1.99zm-448.119 0h1.17v-6.67h-1.02l-1.92 1.94.68.71 1.09-1.13V187zm2.4-.59c0 .38.32.7.7.7.38 0 .7-.32.7-.7 0-.38-.32-.7-.7-.7-.38 0-.7.32-.7.7zm2.952.59h1.17v-6.67h-1.02l-1.92 1.94.68.71 1.09-1.13V187zm5.077.95l-.16.94c.15.04.44.07.59.07.75-.01 1.33-.27 1.66-1.09l2.33-5.7h-1.13l-1.41 3.62-1.41-3.62h-1.12l1.98 4.89-.24.55c-.14.32-.36.42-.69.42-.12 0-.29-.03-.4-.08zm4.78-3.37c0 1.53 1.08 2.54 2.53 2.54.77 0 1.48-.24 1.96-.7l-.48-.69c-.34.34-.9.53-1.37.53-.91 0-1.46-.6-1.54-1.33h3.73v-.25c0-1.52-.93-2.63-2.38-2.63-1.43 0-2.45 1.13-2.45 2.53zm2.45-1.67c.95 0 1.34.71 1.36 1.28h-2.72c.05-.59.46-1.28 1.36-1.28zm6.366 4.09h1.05v-3.2c0-1.3-.94-1.75-2.01-1.75-.77 0-1.47.25-2.03.78l.43.73c.42-.41.89-.61 1.43-.61.67 0 1.13.34 1.13.9v.72c-.35-.41-.91-.62-1.56-.62-.79 0-1.68.46-1.68 1.57 0 1.07.89 1.6 1.68 1.6.64 0 1.2-.23 1.56-.64v.52zm0-1.1c-.24.33-.69.5-1.15.5-.59 0-1.03-.34-1.03-.86 0-.53.44-.87 1.03-.87.46 0 .91.17 1.15.5v.73zm2.411 1.1h1.05v-3.29c.21-.34.8-.64 1.24-.64.13 0 .24.01.33.03v-1.04c-.63 0-1.21.36-1.57.82v-.71h-1.05V187zM452.64 89.06c0-1.34-1.12-1.73-2.16-2.01v-1.72c.5.1.97.33 1.34.7l.67-.87c-.52-.5-1.19-.82-2.01-.9v-.94h-.8v.92c-1.29.11-2.12.92-2.12 1.94 0 1.3 1.09 1.68 2.12 1.94v1.93a2.94 2.94 0 0 1-1.68-.89l-.65.9c.53.56 1.29.97 2.33 1.05V92h.8v-.9c1.5-.14 2.16-1.02 2.16-2.04zm-3.88-2.96c0-.45.35-.76.92-.82v1.56c-.53-.15-.92-.35-.92-.74zm1.72 3.95v-1.72c.56.17.97.38.97.84 0 .38-.28.78-.97.88zm4.495.95h1.17v-6.67h-1.02l-1.92 1.94.68.71 1.09-1.13V91zm2.289-3.33c0 1.68.8 3.45 2.67 3.45 1.87 0 2.67-1.77 2.67-3.45 0-1.68-.8-3.44-2.67-3.44-1.87 0-2.67 1.76-2.67 3.44zm4.15 0c0 1.27-.39 2.41-1.48 2.41-1.09 0-1.48-1.14-1.48-2.41 0-1.27.39-2.4 1.48-2.4 1.09 0 1.48 1.13 1.48 2.4zm2.012 0c0 1.68.8 3.45 2.67 3.45 1.87 0 2.67-1.77 2.67-3.45 0-1.68-.8-3.44-2.67-3.44-1.87 0-2.67 1.76-2.67 3.44zm4.15 0c0 1.27-.39 2.41-1.48 2.41-1.09 0-1.48-1.14-1.48-2.41 0-1.27.39-2.4 1.48-2.4 1.09 0 1.48 1.13 1.48 2.4zm5.482 3.33h1.32l-2.05-2.64 2.01-2.19h-1.3l-2.13 2.33v-4.17h-1.05V91h1.05v-1.3l.67-.69 1.48 1.99zM9.871 139h1.17v-6.67h-1.02l-1.92 1.94.68.71 1.09-1.13V139zm2.399-.59c0 .38.32.7.7.7.38 0 .7-.32.7-.7 0-.38-.32-.7-.7-.7-.38 0-.7.32-.7.7zm2.341-2.73c0 1.85.79 3.44 2.75 3.44 1.49 0 2.46-1 2.46-2.24 0-1.42-1.03-2.15-2.23-2.15-.79 0-1.49.48-1.79.93-.01-.06-.01-.12-.01-.19 0-1.17.65-2.2 1.76-2.2.64 0 1.02.22 1.37.59l.55-.89c-.45-.44-1.09-.74-1.92-.74-1.93 0-2.94 1.52-2.94 3.45zm4.03 1.24c0 .54-.46 1.16-1.34 1.16-1.03 0-1.42-.84-1.49-1.56.34-.48.89-.79 1.46-.79.73 0 1.37.37 1.37 1.19zm5.026 2.08h1.17v-1.51h.89v-1.03h-.89v-4.13h-1.61l-2.74 4.22v.94h3.18V139zm0-5.62v3.08h-2.03l2.03-3.08zm5.54 6.57l-.16.94c.15.04.44.07.59.07.75-.01 1.33-.27 1.66-1.09l2.33-5.7h-1.13l-1.41 3.62-1.41-3.62h-1.12l1.98 4.89-.24.55c-.14.32-.36.42-.69.42-.12 0-.29-.03-.4-.08zm4.779-3.37c0 1.53 1.08 2.54 2.53 2.54.77 0 1.48-.24 1.96-.7l-.48-.69c-.34.34-.9.53-1.37.53-.91 0-1.46-.6-1.54-1.33h3.73v-.25c0-1.52-.93-2.63-2.38-2.63-1.43 0-2.45 1.13-2.45 2.53zm2.45-1.67c.95 0 1.34.71 1.36 1.28h-2.72c.05-.59.46-1.28 1.36-1.28zm6.366 4.09h1.05v-3.2c0-1.3-.94-1.75-2.01-1.75-.77 0-1.47.25-2.03.78l.43.73c.42-.41.89-.61 1.43-.61.67 0 1.13.34 1.13.9v.72c-.35-.41-.91-.62-1.56-.62-.79 0-1.68.46-1.68 1.57 0 1.07.89 1.6 1.68 1.6.64 0 1.2-.23 1.56-.64v.52zm0-1.1c-.24.33-.69.5-1.15.5-.59 0-1.03-.34-1.03-.86 0-.53.44-.87 1.03-.87.46 0 .91.17 1.15.5v.73zm2.411 1.1h1.05v-3.29c.21-.34.8-.64 1.24-.64.13 0 .24.01.33.03v-1.04c-.63 0-1.21.36-1.57.82v-.71h-1.05V139zm102.67 168h4.83v-1.03h-2.96c1.79-1.35 2.92-2.45 2.92-3.68 0-1.33-1.13-2.06-2.42-2.06-.93 0-1.87.36-2.46 1.07l.68.77c.42-.48 1.02-.8 1.8-.8.61 0 1.21.32 1.21 1.02 0 .96-1.01 1.83-3.6 3.79v.92zm5.857-3.33c0 1.68.8 3.45 2.67 3.45 1.87 0 2.67-1.77 2.67-3.45 0-1.68-.8-3.44-2.67-3.44-1.87 0-2.67 1.76-2.67 3.44zm4.15 0c0 1.27-.39 2.41-1.48 2.41-1.09 0-1.48-1.14-1.48-2.41 0-1.27.39-2.4 1.48-2.4 1.09 0 1.48 1.13 1.48 2.4zm3.522 3.33h1.17v-6.67h-1.02l-1.92 1.94.68.71 1.09-1.13V307zm2.619-.63c.45.45 1.09.74 1.91.74 1.93 0 2.94-1.52 2.94-3.44 0-1.86-.79-3.45-2.75-3.45-1.49 0-2.46 1.01-2.46 2.24 0 1.42 1.04 2.16 2.24 2.16.78 0 1.48-.49 1.79-.94v.2c0 1.09-.55 2.19-1.76 2.19-.63 0-1.02-.22-1.37-.58l-.54.88zm3.65-3.54c-.33.48-.89.78-1.46.78-.72 0-1.36-.37-1.36-1.19 0-.53.46-1.16 1.33-1.16 1.03 0 1.43.85 1.49 1.57zm1.916 2.2h2.4v-.9h-2.4v.9zm3.908 1.97h1.28l2.59-5.86v-.81h-4.81v1.03h3.46l-2.52 5.64zm57.058 0h4.83v-1.03h-2.96c1.79-1.35 2.92-2.45 2.92-3.68 0-1.33-1.13-2.06-2.42-2.06-.93 0-1.87.36-2.46 1.07l.68.77c.42-.48 1.02-.8 1.8-.8.61 0 1.21.32 1.21 1.02 0 .96-1.01 1.83-3.6 3.79v.92zm5.858-3.33c0 1.68.8 3.45 2.67 3.45 1.87 0 2.67-1.77 2.67-3.45 0-1.68-.8-3.44-2.67-3.44-1.87 0-2.67 1.76-2.67 3.44zm4.15 0c0 1.27-.39 2.41-1.48 2.41-1.09 0-1.48-1.14-1.48-2.41 0-1.27.39-2.4 1.48-2.4 1.09 0 1.48 1.13 1.48 2.4zm3.522 3.33h1.17v-6.67h-1.02l-1.92 1.94.68.71 1.09-1.13V307zm2.619-.63c.45.45 1.09.74 1.91.74 1.93 0 2.94-1.52 2.94-3.44 0-1.86-.79-3.45-2.75-3.45-1.49 0-2.46 1.01-2.46 2.24 0 1.42 1.04 2.16 2.24 2.16.78 0 1.48-.49 1.79-.94v.2c0 1.09-.55 2.19-1.76 2.19-.63 0-1.02-.22-1.37-.58l-.54.88zm3.65-3.54c-.33.48-.89.78-1.46.78-.72 0-1.36-.37-1.36-1.19 0-.53.46-1.16 1.33-1.16 1.03 0 1.43.85 1.49 1.57zm1.916 2.2h2.4v-.9h-2.4v.9zm4.618 1.97h1.17v-6.67h-1.02l-1.92 1.94.68.71 1.09-1.13V307zm2.288-3.33c0 1.68.8 3.45 2.67 3.45 1.87 0 2.67-1.77 2.67-3.45 0-1.68-.8-3.44-2.67-3.44-1.87 0-2.67 1.76-2.67 3.44zm4.15 0c0 1.27-.39 2.41-1.48 2.41-1.09 0-1.48-1.14-1.48-2.41 0-1.27.39-2.4 1.48-2.4 1.09 0 1.48 1.13 1.48 2.4zm53.658 3.33h4.83v-1.03h-2.96c1.79-1.35 2.92-2.45 2.92-3.68 0-1.33-1.13-2.06-2.42-2.06-.93 0-1.87.36-2.46 1.07l.68.77c.42-.48 1.02-.8 1.8-.8.61 0 1.21.32 1.21 1.02 0 .96-1.01 1.83-3.6 3.79v.92zm5.857-3.33c0 1.68.8 3.45 2.67 3.45 1.87 0 2.67-1.77 2.67-3.45 0-1.68-.8-3.44-2.67-3.44-1.87 0-2.67 1.76-2.67 3.44zm4.15 0c0 1.27-.39 2.41-1.48 2.41-1.09 0-1.48-1.14-1.48-2.41 0-1.27.39-2.4 1.48-2.4 1.09 0 1.48 1.13 1.48 2.4zm2.103 3.33h4.83v-1.03h-2.96c1.79-1.35 2.92-2.45 2.92-3.68 0-1.33-1.13-2.06-2.42-2.06-.93 0-1.87.36-2.46 1.07l.68.77c.42-.48 1.02-.8 1.8-.8.61 0 1.21.32 1.21 1.02 0 .96-1.01 1.83-3.6 3.79v.92zm5.857-3.33c0 1.68.8 3.45 2.67 3.45 1.87 0 2.67-1.77 2.67-3.45 0-1.68-.8-3.44-2.67-3.44-1.87 0-2.67 1.76-2.67 3.44zm4.15 0c0 1.27-.39 2.41-1.48 2.41-1.09 0-1.48-1.14-1.48-2.41 0-1.27.39-2.4 1.48-2.4 1.09 0 1.48 1.13 1.48 2.4zm1.902 1.36h2.4v-.9h-2.4v.9zm4.618 1.97h1.17v-6.67h-1.02l-1.92 1.94.68.71 1.09-1.13V307zm55.362 0h4.83v-1.03h-2.96c1.79-1.35 2.92-2.45 2.92-3.68 0-1.33-1.13-2.06-2.42-2.06-.93 0-1.87.36-2.46 1.07l.68.77c.42-.48 1.02-.8 1.8-.8.61 0 1.21.32 1.21 1.02 0 .96-1.01 1.83-3.6 3.79v.92zm5.857-3.33c0 1.68.8 3.45 2.67 3.45 1.87 0 2.67-1.77 2.67-3.45 0-1.68-.8-3.44-2.67-3.44-1.87 0-2.67 1.76-2.67 3.44zm4.15 0c0 1.27-.39 2.41-1.48 2.41-1.09 0-1.48-1.14-1.48-2.41 0-1.27.39-2.4 1.48-2.4 1.09 0 1.48 1.13 1.48 2.4zm2.103 3.33h4.83v-1.03h-2.96c1.79-1.35 2.92-2.45 2.92-3.68 0-1.33-1.13-2.06-2.42-2.06-.93 0-1.87.36-2.46 1.07l.68.77c.42-.48 1.02-.8 1.8-.8.61 0 1.21.32 1.21 1.02 0 .96-1.01 1.83-3.6 3.79v.92zm5.857-3.33c0 1.68.8 3.45 2.67 3.45 1.87 0 2.67-1.77 2.67-3.45 0-1.68-.8-3.44-2.67-3.44-1.87 0-2.67 1.76-2.67 3.44zm4.15 0c0 1.27-.39 2.41-1.48 2.41-1.09 0-1.48-1.14-1.48-2.41 0-1.27.39-2.4 1.48-2.4 1.09 0 1.48 1.13 1.48 2.4zm1.902 1.36h2.4v-.9h-2.4v.9zm6.158 1.97h1.17v-1.51h.89v-1.03h-.89v-4.13h-1.61l-2.74 4.22v.94h3.18V307zm0-5.62v3.08h-2.03l2.03-3.08z" fill="#9FAAC4"/><mask id="b" maskUnits="userSpaceOnUse" x="56" y="65" width="383" height="222"><rect x="56.5" y="65.5" width="382" height="221" rx="3.5" fill="#fff" stroke="#E7EAF3"/></mask><g mask="url(#b)" fill-opacity=".1"><path d="M79.5 259.141l-25 6.094v24.377H441v-81.4l-6.5.87-4 2.612-9 2.176-6 1.306-6-1.306-2.5-1.305-28 5.223-27.5 5.659v-2.612l-10.5 4.353v-1.741l-9.5 3.918v-1.306h-6l-7.5 2.611-6.5-1.305-5-1.306h-10l-5.5-2.612-2-1.741h-8.5l-4-1.741-2.5-.871-3.5.871-3.5-3.047-7 .87-12 1.306-17 4.353-22.5 6.529-3 .871-1-.871-17 6.094-2.5-3.047h-2l-7.5 3.047v-1.305l-96 25.247v-.871z" fill="#72FFFF" stroke="#68DBF4"/><path d="M64.5 116.8l-9.5 2.612v170.2h385.5V72.4l-8 2.176-3-2.176-12 2.612-5 1.305-3-1.305-36 7.4-21.5 2.611-.5-1.74-10.5 3.482-1-1.306-8.5 2.611-1-1.305-20 4.788-.5-3.483-13.756 1.742-4.244-.87-12 .87-1.5.87-1-.87-6.5 1.74-4-.87-4.5.87-31 6.53-.709-1.74L208.5 102l-1-2.177-2 .871-.5-1.741-18.5 4.788-1.5-7.4-1.5.87-.5-3.046-4 1.74-1-.87-3 .87-.5-.87-12.5 3.483-12 2.176-15 3.918-10 .435-45 11.318-2.5-1.306-8.5 2.611-.5-.87-3.5 1.306-.5-1.306z" fill="#5275FF" stroke="#5275FF"/><path d="M58 186.882l-3.5-5.223v107.517H441v-99.247l-1-.87-1 2.176-1-4.788-2 1.306v4.788l-2-2.612-1 12.189-1-4.353-1.5 2.611-1.5-22.635-.5.435-1.5-7.4-3 2.612-5.5-8.706-1 2.612-2.5-3.482-1 2.612-1-1.742-2 4.353-4-.87-2.5 6.094-2.5-3.483-2 1.306-2 5.224-1.5-2.177-4 7.836-1-1.741-1 1.305-2.5-2.611-1.5 2.611-1.5 3.047-3-3.047-2.5-2.611-1.5 2.176-2.5-.87v-1.742l-2.5 5.659-1-3.047-3-7.835-2-2.177h-2.5l-1-3.917-3.5 1.306-.5-2.177-2 2.177-1 11.317-1.5-5.659-2 2.177-4-4.353-2 3.482-2-2.176-1 3.047-1-2.177-1 2.177-2-10.882-4-2.612-2.5.87-2-3.482-2 1.741-1 3.483-1.5 1.741-1.5-5.224-2 1.741-2-3.482-.5 1.741-2 1.741-2-6.529-2.5-1.741-1.5 4.788-3 6.094-1-2.612-1.5 1.742-1-5.224-2 6.094-1.5-4.353-2-5.223-.5-5.224-2.5 6.965-1-3.047-1 7.4-1-8.271-1.5 1.741-.5-3.917-2.5 7.835-1 9.576-1.5-1.305-3 9.576-2-1.741-1 1.741-1-6.094-1.5 2.176-2.5-3.047v4.353l-2 3.047-1-2.176-1.5 5.223-2-6.094-4 18.718-1-.871-2.5 4.789h-2l-2-2.612v2.612l-3 .87-3 1.741v-2.611l-4.5 2.611-1.5 10.447-2 2.612-5.5-.87v1.741l-5-.436-1 3.048-1.5-1.742h-2L228.5 213l-2.5.871-.5 6.094-5-1.306-1.5 3.917-1.5-.87-2 .87-2-2.611-2 .435-2-2.176-3 1.741-2.5-6.094-2 2.611-1 1.742-2.5-3.048-.5 2.177-1.5-5.224-1.5 3.483-1-1.741-2.5 11.753-2.5-5.659-1.5 2.611-2.5-10.882-1.5 1.306-.5-2.176-2 5.658-.5-3.482-1-3.918-1.5-2.176v-10.012l-2.5-.435-1.5-7.4-3.5-.435-3.5 1.741-4.5-1.741-2.5-.871-1 2.612h-1.5l-1.5-3.483-2.5 1.306-2.5-1.306-2 2.177-1-2.612-1.5.435-1.5 3.483-1-2.612-2 2.612-3.5-1.741-1-6.965-2.5 3.047-1-.871-1 2.612-1.5 2.612-3.5-.435-1.5 3.482-2.5-3.482v-4.789h-1.5l-1-4.788-1 1.306-2-4.353-1.5 1.306-1-1.306-1 6.529-2.5-.87-3 8.706-2.5-4.789v1.306l-2.5.871-2 1.306-.5 3.917-1-2.611-1.5 2.611-2-6.529-1.5 1.306h-1l-1 .871-1.5-5.659-1.5-3.918-1 1.741-1-1.741-2 1.741-2 2.177v-2.177h-1.5l-1.5-6.964L79.5 176l-1.5-2.612-1 1.306-1.5-4.788-2.5-3.482-2 5.223-1-3.047-1 3.047-1.5-3.047-.5 3.047-1 .435-2 5.224-1.5-2.177-1 2.177-1.5 9.141-1-2.612-1 3.047z" fill="#26C953" stroke="#26C953"/></g><g opacity=".15" filter="url(#filter0_f)"><rect x="30.154" y="28.923" width="102.156" height="31.385" rx="4.923" fill="#7A859E"/></g><g filter="url(#filter1_d)"><rect x="16" y="16" width="147.091" height="36.773" rx="18.386" fill="#fff"/><rect x="16.308" y="16.308" width="146.476" height="36.157" rx="18.079" stroke="#F1F3F9" stroke-width=".615"/></g><path d="M60.102 37.462h.92v-7.389h-1.319L57.4 35.7l-2.293-5.627h-1.318v7.389h.92v-6.148l2.503 6.148h.377l2.514-6.148v6.148zm5.955 0h.83v-3.678c0-1.296-.94-1.805-2.07-1.805-.876 0-1.562.288-2.138.886l.387.576c.477-.51.997-.742 1.64-.742.775 0 1.351.41 1.351 1.13v.963c-.432-.498-1.041-.731-1.772-.731-.909 0-1.872.565-1.872 1.761 0 1.163.963 1.773 1.872 1.773.72 0 1.329-.255 1.772-.743v.61zm0-1.13c-.321.443-.886.664-1.473.664-.776 0-1.318-.487-1.318-1.163 0-.686.543-1.174 1.318-1.174.587 0 1.152.222 1.473.665v1.008zm5.963 1.13h.964l-2.06-2.748 1.938-2.603H71.9l-1.485 2.039-1.484-2.039h-.964l1.939 2.604-2.05 2.747h.953l1.606-2.194 1.606 2.194zm2.33-6.248c.31 0 .565-.255.565-.565a.558.558 0 0 0-.565-.554.556.556 0 0 0-.554.554c0 .31.255.565.554.565zm-.41 6.248h.831v-5.35h-.83v5.35zm8.947 0h.83v-3.866c0-1.075-.52-1.617-1.495-1.617-.775 0-1.496.509-1.795.996-.155-.553-.62-.997-1.44-.997-.786 0-1.506.565-1.728.909v-.776h-.83v5.35h.83v-3.91c.288-.432.864-.83 1.407-.83.698 0 .986.432.986 1.107v3.634h.83V33.54c.278-.42.865-.82 1.419-.82.686 0 .986.433.986 1.108v3.634zm5.833 0h.83v-3.678c0-1.296-.94-1.805-2.07-1.805-.876 0-1.563.288-2.139.886l.388.576c.476-.51.997-.742 1.64-.742.775 0 1.35.41 1.35 1.13v.963c-.431-.498-1.04-.731-1.771-.731-.909 0-1.872.565-1.872 1.761 0 1.163.963 1.773 1.872 1.773.72 0 1.329-.255 1.772-.743v.61zm0-1.13c-.321.443-.886.664-1.473.664-.776 0-1.319-.487-1.319-1.163 0-.686.543-1.174 1.319-1.174.587 0 1.152.222 1.473.665v1.008zm2.496 1.13h.83v-7.389h-.83v7.389zm11.691 0h.92v-7.389h-1.319l-2.304 5.627-2.293-5.627h-1.318v7.389h.92v-6.148l2.503 6.148h.377l2.514-6.148v6.148zm2.3-2.681c0 1.673 1.141 2.814 2.725 2.814.875 0 1.595-.288 2.127-.82l-.399-.543c-.421.432-1.041.676-1.651.676-1.152 0-1.861-.842-1.927-1.85h4.331v-.21c0-1.607-.953-2.87-2.57-2.87-1.528 0-2.636 1.252-2.636 2.803zm2.625-2.116c1.219 0 1.75.986 1.761 1.784h-3.511c.044-.82.609-1.784 1.75-1.784zm7.272 4.797h.831v-3.678c0-1.296-.942-1.805-2.072-1.805-.875 0-1.562.288-2.138.886l.388.576c.476-.51.997-.742 1.64-.742.775 0 1.351.41 1.351 1.13v.963c-.432-.498-1.041-.731-1.772-.731-.909 0-1.872.565-1.872 1.761 0 1.163.963 1.773 1.872 1.773.72 0 1.329-.255 1.772-.743v.61zm0-1.13c-.321.443-.886.664-1.473.664-.776 0-1.318-.487-1.318-1.163 0-.686.542-1.174 1.318-1.174.587 0 1.152.222 1.473.665v1.008zm6.107 1.13h.831v-3.756c0-1.163-.587-1.728-1.706-1.728-.797 0-1.528.466-1.905.909v-.776h-.831v5.35h.831v-3.91c.31-.432.93-.83 1.584-.83.72 0 1.196.299 1.196 1.24v3.5zm10.685 0h1.019l-2.979-7.389h-1.141l-2.969 7.389h1.019l.654-1.64h3.744l.653 1.64zm-2.525-6.57l1.595 4.11h-3.201l1.606-4.11zm4.466 7.943c.631.62 1.252.798 2.16.798 1.307 0 2.548-.554 2.548-2.326V32.11h-.831v.809c-.432-.587-1.074-.942-1.794-.942-1.407 0-2.382 1.064-2.382 2.78 0 1.729.986 2.77 2.382 2.77.753 0 1.406-.41 1.794-.953v.765c0 1.174-.831 1.606-1.717 1.606-.764 0-1.296-.2-1.739-.731l-.421.62zm3.877-2.913c-.288.465-.93.875-1.595.875-1.074 0-1.717-.864-1.717-2.038 0-1.185.643-2.038 1.717-2.038.665 0 1.307.398 1.595.864v2.337zm2.185-1.141c0 1.673 1.141 2.814 2.725 2.814.875 0 1.595-.288 2.127-.82l-.399-.543c-.421.432-1.041.676-1.651.676-1.152 0-1.861-.842-1.927-1.85h4.331v-.21c0-1.607-.953-2.87-2.57-2.87-1.529 0-2.636 1.252-2.636 2.803zm2.625-2.116c1.219 0 1.75.986 1.761 1.784h-3.511c.044-.82.609-1.784 1.75-1.784z" fill="#2F354D"/><circle opacity=".5" cx="35.693" cy="34.462" r="9.846" fill="#DAE0FD"/><path fill-rule="evenodd" clip-rule="evenodd" d="M29.231 34.462c0-.51.542-.923 1.212-.923h10.5c.669 0 1.212.413 1.212.923s-.543.923-1.212.923h-10.5c-.67 0-1.212-.413-1.212-.923z" fill="#5275FF"/><circle cx="35.693" cy="34.462" r="3.077" fill="#ECF0FE" stroke="#5275FF" stroke-width="1.231"/><g opacity=".15" filter="url(#filter2_f)"><rect x="184.953" y="28.979" width="148.173" height="31.365" rx="4.923" fill="#7A859E"/></g><g filter="url(#filter3_d)"><rect x="170.893" y="16" width="176.72" height="36.988" rx="18.494" fill="#fff"/><rect x="171.201" y="16.308" width="176.104" height="36.373" rx="18.186" stroke="#F1F3F9" stroke-width=".615"/></g><path d="M214.995 37.462h.92v-7.389h-1.318l-2.305 5.627-2.293-5.627h-1.318v7.389h.92v-6.148l2.503 6.148h.377l2.514-6.148v6.148zm5.955 0h.831v-3.678c0-1.296-.941-1.805-2.071-1.805-.875 0-1.562.288-2.138.886l.387.576c.477-.51.997-.742 1.64-.742.775 0 1.351.41 1.351 1.13v.963c-.432-.498-1.041-.731-1.772-.731-.908 0-1.872.565-1.872 1.761 0 1.163.964 1.773 1.872 1.773.72 0 1.329-.255 1.772-.743v.61zm0-1.13c-.321.443-.886.664-1.473.664-.775 0-1.318-.487-1.318-1.163 0-.686.543-1.174 1.318-1.174.587 0 1.152.222 1.473.665v1.008zm5.964 1.13h.963l-2.06-2.748 1.939-2.603h-.964l-1.485 2.039-1.484-2.039h-.964l1.939 2.604-2.049 2.747h.952l1.606-2.194 1.607 2.194zm2.329-6.248a.567.567 0 0 0 .565-.565.557.557 0 0 0-.565-.554.555.555 0 0 0-.553.554c0 .31.254.565.553.565zm-.409 6.248h.83v-5.35h-.83v5.35zm8.946 0h.83v-3.866c0-1.075-.52-1.617-1.495-1.617-.775 0-1.495.509-1.794.996-.156-.553-.621-.997-1.44-.997-.787 0-1.507.565-1.729.909v-.776h-.83v5.35h.83v-3.91c.288-.432.864-.83 1.407-.83.698 0 .986.432.986 1.107v3.634h.831V33.54c.277-.42.864-.82 1.418-.82.687 0 .986.433.986 1.108v3.634zm5.833 0h.831v-3.678c0-1.296-.942-1.805-2.072-1.805-.875 0-1.561.288-2.137.886l.387.576c.477-.51.997-.742 1.64-.742.775 0 1.351.41 1.351 1.13v.963c-.432-.498-1.041-.731-1.772-.731-.909 0-1.872.565-1.872 1.761 0 1.163.963 1.773 1.872 1.773.72 0 1.329-.255 1.772-.743v.61zm0-1.13c-.321.443-.886.664-1.473.664-.776 0-1.318-.487-1.318-1.163 0-.686.542-1.174 1.318-1.174.587 0 1.152.222 1.473.665v1.008zm2.496 1.13h.831v-7.389h-.831v7.389zm11.691 0h.92v-7.389h-1.318l-2.304 5.627-2.293-5.627h-1.319v7.389h.92v-6.148l2.503 6.148h.377l2.514-6.148v6.148zm2.3-2.681c0 1.673 1.141 2.814 2.725 2.814.875 0 1.595-.288 2.127-.82l-.399-.543c-.421.432-1.041.676-1.65.676-1.153 0-1.861-.842-1.928-1.85h4.331v-.21c0-1.607-.952-2.87-2.57-2.87-1.528 0-2.636 1.252-2.636 2.803zm2.625-2.116c1.219 0 1.75.986 1.762 1.784h-3.512c.044-.82.609-1.784 1.75-1.784zm7.272 4.797h.831v-3.678c0-1.296-.942-1.805-2.071-1.805-.876 0-1.562.288-2.138.886l.387.576c.477-.51.997-.742 1.64-.742.775 0 1.351.41 1.351 1.13v.963c-.432-.498-1.041-.731-1.772-.731-.908 0-1.872.565-1.872 1.761 0 1.163.964 1.773 1.872 1.773.72 0 1.329-.255 1.772-.743v.61zm0-1.13c-.321.443-.886.664-1.473.664-.775 0-1.318-.487-1.318-1.163 0-.686.543-1.174 1.318-1.174.587 0 1.152.222 1.473.665v1.008zm6.108 1.13h.83v-3.756c0-1.163-.587-1.728-1.706-1.728-.797 0-1.528.466-1.905.909v-.776h-.831v5.35h.831v-3.91c.31-.432.931-.83 1.584-.83.72 0 1.197.299 1.197 1.24v3.5zm5.379 0h2.525c2.293 0 3.789-1.584 3.789-3.689 0-2.094-1.496-3.7-3.789-3.7h-2.525v7.389zm.919-.82v-5.75h1.606c1.828 0 2.836 1.286 2.836 2.881 0 1.584-1.041 2.869-2.836 2.869h-1.606zm9.141.953c1.628 0 2.647-1.263 2.647-2.814 0-1.55-1.019-2.802-2.647-2.802-1.629 0-2.648 1.251-2.648 2.802 0 1.55 1.019 2.814 2.648 2.814zm0-.743c-1.141 0-1.784-.974-1.784-2.071 0-1.086.643-2.06 1.784-2.06s1.772.974 1.772 2.06c0 1.097-.631 2.071-1.772 2.071zm4.002.61h.83v-7.389h-.83v7.389zm2.488 0h.83v-7.389h-.83v7.389zm5.833 0h.831v-3.678c0-1.296-.942-1.805-2.072-1.805-.875 0-1.562.288-2.138.886l.388.576c.476-.51.997-.742 1.64-.742.775 0 1.351.41 1.351 1.13v.963c-.432-.498-1.041-.731-1.772-.731-.909 0-1.872.565-1.872 1.761 0 1.163.963 1.773 1.872 1.773.72 0 1.329-.255 1.772-.743v.61zm0-1.13c-.321.443-.886.664-1.473.664-.776 0-1.318-.487-1.318-1.163 0-.686.542-1.174 1.318-1.174.587 0 1.152.222 1.473.665v1.008zm2.496 1.13h.831v-3.789c.244-.432.942-.853 1.451-.853.133 0 .233.011.332.034V32c-.731 0-1.351.41-1.783.974v-.864h-.831v5.35zm11.852 0h1.019l-2.98-7.389h-1.141l-2.969 7.389h1.019l.654-1.64h3.744l.654 1.64zm-2.526-6.57l1.595 4.11h-3.201l1.606-4.11zm4.466 7.943c.632.62 1.252.798 2.16.798 1.307 0 2.548-.554 2.548-2.326V32.11h-.831v.809c-.432-.587-1.074-.942-1.794-.942-1.407 0-2.382 1.064-2.382 2.78 0 1.729.986 2.77 2.382 2.77.753 0 1.407-.41 1.794-.953v.765c0 1.174-.83 1.606-1.717 1.606-.764 0-1.296-.2-1.739-.731l-.421.62zm3.877-2.913c-.288.465-.93.875-1.595.875-1.074 0-1.717-.864-1.717-2.038 0-1.185.643-2.038 1.717-2.038.665 0 1.307.398 1.595.864v2.337zm2.185-1.141c0 1.673 1.141 2.814 2.725 2.814.875 0 1.595-.288 2.127-.82l-.399-.543c-.421.432-1.041.676-1.65.676-1.153 0-1.861-.842-1.928-1.85h4.331v-.21c0-1.607-.952-2.87-2.57-2.87-1.528 0-2.636 1.252-2.636 2.803zm2.625-2.116c1.219 0 1.75.986 1.762 1.784h-3.512c.044-.82.609-1.784 1.75-1.784z" fill="#2F354D"/><circle cx="190.586" cy="34.462" r="9.846" fill="#E5F9FD"/><path fill-rule="evenodd" clip-rule="evenodd" d="M184.125 34.462c0-.51.542-.923 1.211-.923h10.5c.669 0 1.212.413 1.212.923s-.543.923-1.212.923h-10.5c-.669 0-1.211-.413-1.211-.923z" fill="#68DBF4"/><circle cx="190.586" cy="34.462" r="3.077" fill="#ECF0FE" stroke="#68DBF4" stroke-width="1.231"/><g opacity=".15" filter="url(#filter4_f)"><rect x="374.767" y="28.923" width="65.232" height="31.385" rx="4.923" fill="#7A859E"/></g><g filter="url(#filter5_d)"><rect x="357" y="16" width="111" height="37" rx="18.5" fill="#fff"/><rect x="357.308" y="16.308" width="110.385" height="36.385" rx="18.192" stroke="#F1F3F9" stroke-width=".615"/></g><path d="M394.864 37h3.367c1.352 0 2.138-.809 2.138-1.994 0-.886-.653-1.695-1.44-1.817.676-.144 1.296-.764 1.296-1.694 0-1.108-.786-1.884-2.071-1.884h-3.29V37zm.919-4.187V30.43h2.216c.831 0 1.274.532 1.274 1.197 0 .675-.443 1.185-1.274 1.185h-2.216zm0 3.367v-2.547h2.26c.909 0 1.374.598 1.374 1.273 0 .787-.51 1.274-1.374 1.274h-2.26zm7.691.82h.92v-6.569h2.348v-.82h-5.605v.82h2.337V37zm7.654.133c1.341 0 2.227-.62 2.847-1.462l-.786-.432c-.421.631-1.186 1.074-2.061 1.074-1.584 0-2.813-1.252-2.813-3.002 0-1.761 1.229-3.002 2.813-3.002.875 0 1.64.454 2.061 1.075l.775-.432c-.587-.83-1.495-1.462-2.836-1.462-2.093 0-3.766 1.55-3.766 3.821s1.673 3.822 3.766 3.822zm6.875-.133h.919v-2.935h2.049c1.463 0 2.316-1.02 2.316-2.227 0-1.207-.831-2.227-2.316-2.227h-2.968V37zm4.331-5.162c0 .83-.598 1.407-1.473 1.407h-1.939V30.43h1.939c.875 0 1.473.576 1.473 1.407zM424.471 37h.831v-3.788c.243-.432.941-.853 1.451-.853.133 0 .232.01.332.033v-.853c-.731 0-1.351.41-1.783.975v-.864h-.831V37zm4.066-6.247c.31 0 .565-.255.565-.566a.558.558 0 0 0-.565-.553.556.556 0 0 0-.554.553c0 .31.255.566.554.566zm-.41 6.247h.831v-5.35h-.831V37zm2.178-2.68c0 1.594 1.075 2.813 2.67 2.813.975 0 1.551-.399 1.96-.93l-.553-.51c-.355.476-.809.698-1.363.698-1.141 0-1.85-.886-1.85-2.072 0-1.185.709-2.06 1.85-2.06.554 0 1.008.21 1.363.698l.553-.51c-.409-.531-.985-.93-1.96-.93-1.595 0-2.67 1.218-2.67 2.802zm5.485 0c0 1.672 1.141 2.813 2.725 2.813.875 0 1.595-.288 2.126-.82l-.398-.543c-.421.432-1.042.676-1.651.676-1.152 0-1.861-.842-1.927-1.85h4.331v-.21c0-1.606-.953-2.87-2.57-2.87-1.529 0-2.636 1.253-2.636 2.803zm2.625-2.116c1.218 0 1.75.985 1.761 1.783h-3.511c.044-.82.609-1.783 1.75-1.783zm8.001 7l.498-.387c-.709-1.396-1.152-2.67-1.152-4.509 0-1.85.443-3.113 1.152-4.52l-.498-.376c-.997 1.374-1.562 3.113-1.562 4.896 0 1.784.565 3.534 1.562 4.896zm6.724-4.242c0-1.451-1.207-1.872-2.348-2.194v-2.403c.62.088 1.196.354 1.628.842l.554-.676c-.532-.565-1.263-.93-2.182-1.008v-1.03h-.676V29.5c-1.329.088-2.304.897-2.304 2.049 0 1.363 1.174 1.75 2.304 2.05v2.691a3.074 3.074 0 0 1-1.983-1.03l-.553.698c.553.631 1.406 1.096 2.536 1.163v.986h.676v-.997c1.717-.122 2.348-1.152 2.348-2.15zm-4.375-3.467c0-.654.554-1.12 1.351-1.164v2.26c-.742-.21-1.351-.465-1.351-1.096zm2.027 4.785v-2.504c.764.233 1.407.51 1.407 1.263 0 .51-.344 1.152-1.407 1.241zm4.24-1.972c0 1.84-.443 3.113-1.163 4.509l.498.387c1.008-1.362 1.573-3.112 1.573-4.896 0-1.783-.565-3.522-1.573-4.896l-.498.377c.72 1.406 1.163 2.67 1.163 4.52z" fill="#2F354D"/><circle cx="376.613" cy="34.462" r="9.846" fill="#EDF8F5"/><path fill-rule="evenodd" clip-rule="evenodd" d="M370.152 34.462c0-.51.542-.923 1.211-.923h10.501c.669 0 1.211.413 1.211.923s-.542.923-1.211.923h-10.501c-.669 0-1.211-.413-1.211-.923z" fill="#21B074"/><circle cx="376.613" cy="34.462" r="3.077" fill="#EDF8F5" stroke="#21B074" stroke-width="1.231"/></g><defs><filter id="filter0_f" x="-6.77" y="-8.001" width="176.004" height="105.233" filterUnits="userSpaceOnUse" color-interpolation-filters="sRGB"><feFlood flood-opacity="0" result="BackgroundImageFix"/><feBlend in="SourceGraphic" in2="BackgroundImageFix" result="shape"/><feGaussianBlur stdDeviation="18.462" result="effect1_foregroundBlur"/></filter><filter id="filter1_d" x="-8.616" y="-2.462" width="196.323" height="86.005" filterUnits="userSpaceOnUse" color-interpolation-filters="sRGB"><feFlood flood-opacity="0" result="BackgroundImageFix"/><feColorMatrix in="SourceAlpha" values="0 0 0 0 0 0 0 0 0 0 0 0 0 0 0 0 0 0 127 0"/><feOffset dy="6.154"/><feGaussianBlur stdDeviation="12.308"/><feColorMatrix values="0 0 0 0 0.476616 0 0 0 0 0.521707 0 0 0 0 0.620087 0 0 0 0.06 0"/><feBlend in2="BackgroundImageFix" result="effect1_dropShadow"/><feBlend in="SourceGraphic" in2="effect1_dropShadow" result="shape"/></filter><filter id="filter2_f" x="148.03" y="-7.945" width="222.021" height="105.213" filterUnits="userSpaceOnUse" color-interpolation-filters="sRGB"><feFlood flood-opacity="0" result="BackgroundImageFix"/><feBlend in="SourceGraphic" in2="BackgroundImageFix" result="shape"/><feGaussianBlur stdDeviation="18.462" result="effect1_foregroundBlur"/></filter><filter id="filter3_d" x="146.277" y="-2.462" width="225.952" height="86.22" filterUnits="userSpaceOnUse" color-interpolation-filters="sRGB"><feFlood flood-opacity="0" result="BackgroundImageFix"/><feColorMatrix in="SourceAlpha" values="0 0 0 0 0 0 0 0 0 0 0 0 0 0 0 0 0 0 127 0"/><feOffset dy="6.154"/><feGaussianBlur stdDeviation="12.308"/><feColorMatrix values="0 0 0 0 0.476616 0 0 0 0 0.521707 0 0 0 0 0.620087 0 0 0 0.06 0"/><feBlend in2="BackgroundImageFix" result="effect1_dropShadow"/><feBlend in="SourceGraphic" in2="effect1_dropShadow" result="shape"/></filter><filter id="filter4_f" x="337.843" y="-8.001" width="139.08" height="105.233" filterUnits="userSpaceOnUse" color-interpolation-filters="sRGB"><feFlood flood-opacity="0" result="BackgroundImageFix"/><feBlend in="SourceGraphic" in2="BackgroundImageFix" result="shape"/><feGaussianBlur stdDeviation="18.462" result="effect1_foregroundBlur"/></filter><filter id="filter5_d" x="332.384" y="-2.462" width="160.232" height="86.232" filterUnits="userSpaceOnUse" color-interpolation-filters="sRGB"><feFlood flood-opacity="0" result="BackgroundImageFix"/><feColorMatrix in="SourceAlpha" values="0 0 0 0 0 0 0 0 0 0 0 0 0 0 0 0 0 0 127 0"/><feOffset dy="6.154"/><feGaussianBlur stdDeviation="12.308"/><feColorMatrix values="0 0 0 0 0.476616 0 0 0 0 0.521707 0 0 0 0 0.620087 0 0 0 0.06 0"/><feBlend in2="BackgroundImageFix" result="effect1_dropShadow"/><feBlend in="SourceGraphic" in2="effect1_dropShadow" result="shape"/></filter></defs></svg>