<svg width="368" height="231" fill="none" xmlns="http://www.w3.org/2000/svg"><rect x=".5" y=".5" width="367" height="230" rx="3.5" fill="#fff" stroke="#E7EAF3"/><g filter="url(#filter0_d)"><rect x="78" y="16" width="211" height="40" rx="20" fill="#fff"/><rect x="78.398" y="16.398" width="210.204" height="39.205" rx="19.602" stroke="#F1F3F9" stroke-width=".796"/></g><path d="M105.6 39.524h1.32l-3.18-8.004h-1.5l-3.18 8.004h1.32l.648-1.656h3.924l.648 1.656zm-2.616-6.96l1.62 4.236h-3.228l1.608-4.236zm6.174 6.96h1.164l2.388-5.796h-1.164l-1.812 4.548-1.812-4.548h-1.152l2.388 5.796zm4.069-2.904c0 1.824 1.272 3.048 3 3.048.936 0 1.752-.3 2.328-.864l-.504-.708c-.432.444-1.104.684-1.716.684-1.164 0-1.884-.816-1.968-1.8h4.584v-.264c0-1.776-1.08-3.132-2.82-3.132-1.692 0-2.904 1.356-2.904 3.036zm2.904-2.148c1.224 0 1.74.96 1.764 1.728h-3.54c.06-.792.612-1.728 1.776-1.728zm4.171 5.052h1.08v-4.032c.252-.432.984-.84 1.524-.84a1.7 1.7 0 0 1 .372.036v-1.092c-.768 0-1.452.444-1.896 1.02v-.888h-1.08v5.796zm7.63 0h1.08v-3.912c0-1.476-1.068-2.028-2.328-2.028-.936 0-1.728.312-2.376.948l.468.744c.516-.516 1.08-.768 1.74-.768.828 0 1.416.432 1.416 1.152v.96c-.444-.516-1.116-.768-1.896-.768-.972 0-2.016.576-2.016 1.896 0 1.272 1.056 1.92 2.016 1.92.78 0 1.44-.276 1.896-.78v.636zm0-1.272c-.324.432-.888.66-1.488.66-.78 0-1.332-.468-1.332-1.152 0-.684.552-1.152 1.332-1.152.6 0 1.164.228 1.488.66v.984zm2.763 2.76c.696.66 1.404.864 2.376.864 1.428 0 2.88-.588 2.88-2.58v-5.568h-1.08v.84c-.468-.624-1.152-.984-1.908-.984-1.5 0-2.58 1.128-2.58 2.988 0 1.896 1.08 3 2.58 3 .78 0 1.464-.42 1.908-.996v.756c0 1.224-.9 1.656-1.8 1.656-.792 0-1.38-.216-1.86-.768l-.516.792zm4.176-3.264c-.3.468-.96.864-1.608.864-1.08 0-1.752-.84-1.752-2.04 0-1.188.672-2.028 1.752-2.028.648 0 1.308.384 1.608.852v2.352zm2.438-1.128c0 1.824 1.272 3.048 3 3.048.936 0 1.752-.3 2.328-.864l-.504-.708c-.432.444-1.104.684-1.716.684-1.164 0-1.884-.816-1.968-1.8h4.584v-.264c0-1.776-1.08-3.132-2.82-3.132-1.692 0-2.904 1.356-2.904 3.036zm2.904-2.148c1.224 0 1.74.96 1.764 1.728h-3.54c.06-.792.612-1.728 1.776-1.728zm7.288 5.052h4.836v-1.056h-3.636V31.52h-1.2v8.004zm8.486.144c1.812 0 2.928-1.368 2.928-3.048 0-1.668-1.116-3.036-2.928-3.036-1.8 0-2.928 1.368-2.928 3.036 0 1.68 1.128 3.048 2.928 3.048zm0-.96c-1.152 0-1.8-.984-1.8-2.088 0-1.092.648-2.076 1.8-2.076 1.164 0 1.8.984 1.8 2.076 0 1.104-.636 2.088-1.8 2.088zm4.251 2.304c.696.66 1.404.864 2.376.864 1.428 0 2.88-.588 2.88-2.58v-5.568h-1.08v.84c-.468-.624-1.152-.984-1.908-.984-1.5 0-2.58 1.128-2.58 2.988 0 1.896 1.08 3 2.58 3 .78 0 1.464-.42 1.908-.996v.756c0 1.224-.9 1.656-1.8 1.656-.792 0-1.38-.216-1.86-.768l-.516.792zm4.176-3.264c-.3.468-.96.864-1.608.864-1.08 0-1.752-.84-1.752-2.04 0-1.188.672-2.028 1.752-2.028.648 0 1.308.384 1.608.852v2.352zm10.523 1.776h1.392l-2.052-3.204c1.02-.132 1.992-.9 1.992-2.34 0-1.476-1.044-2.46-2.568-2.46h-3.372v8.004h1.2V36.44h1.5l1.908 3.084zm.096-5.544c0 .84-.624 1.404-1.488 1.404h-2.016v-2.808h2.016c.864 0 1.488.564 1.488 1.404zM177 36.62c0 1.824 1.272 3.048 3 3.048.936 0 1.752-.3 2.328-.864l-.504-.708c-.432.444-1.104.684-1.716.684-1.164 0-1.884-.816-1.968-1.8h4.584v-.264c0-1.776-1.08-3.132-2.82-3.132-1.692 0-2.904 1.356-2.904 3.036zm2.904-2.148c1.224 0 1.74.96 1.764 1.728h-3.54c.06-.792.612-1.728 1.776-1.728zm5.767 5.196c.564 0 .9-.156 1.128-.372l-.276-.816c-.108.12-.336.228-.588.228-.372 0-.564-.3-.564-.708v-3.324h1.176v-.948h-1.176v-1.584h-1.08v1.584h-.96v.948h.96v3.564c0 .912.468 1.428 1.38 1.428zm5.984-.144h1.08v-5.796h-1.08v4.164c-.324.432-.936.816-1.608.816-.744 0-1.224-.288-1.224-1.248v-3.732h-1.08v4.092c0 1.224.612 1.848 1.848 1.848.888 0 1.62-.456 2.064-.936v.792zm2.791 0h1.08v-4.032c.252-.432.984-.84 1.524-.84a1.7 1.7 0 0 1 .372.036v-1.092c-.768 0-1.452.444-1.896 1.02v-.888h-1.08v5.796zm7.967 0h1.08v-4.068c0-1.224-.636-1.872-1.86-1.872-.9 0-1.668.492-2.052.96v-.816h-1.08v5.796h1.08v-4.14c.312-.432.924-.84 1.596-.84.744 0 1.236.312 1.236 1.272v3.708zm2.287-.756c.588.6 1.44.9 2.412.9 1.524 0 2.34-.78 2.34-1.776 0-1.332-1.2-1.608-2.208-1.836-.72-.168-1.344-.336-1.344-.84 0-.468.456-.756 1.188-.756s1.38.3 1.716.708l.48-.756c-.492-.468-1.212-.828-2.208-.828-1.416 0-2.208.792-2.208 1.716 0 1.248 1.152 1.512 2.136 1.74.744.168 1.404.36 1.404.936 0 .492-.432.828-1.248.828-.78 0-1.548-.396-1.944-.828l-.516.792zm9.475.756h1.08v-4.848h1.176v-.948h-1.176v-.384c0-.696.324-1.056.864-1.056.192 0 .372.048.516.132l.252-.804c-.252-.144-.576-.216-.948-.216-1.032 0-1.764.696-1.764 1.944v.384h-.96v.948h.96v4.848zm5.855.144c1.812 0 2.928-1.368 2.928-3.048 0-1.668-1.116-3.036-2.928-3.036-1.8 0-2.928 1.368-2.928 3.036 0 1.68 1.128 3.048 2.928 3.048zm0-.96c-1.152 0-1.8-.984-1.8-2.088 0-1.092.648-2.076 1.8-2.076 1.164 0 1.8.984 1.8 2.076 0 1.104-.636 2.088-1.8 2.088zm4.299.816h1.08v-4.032c.252-.432.984-.84 1.524-.84a1.7 1.7 0 0 1 .372.036v-1.092c-.768 0-1.452.444-1.896 1.02v-.888h-1.08v5.796zm7.172 0h3.852c1.476 0 2.316-.9 2.316-2.16 0-.972-.696-1.836-1.548-1.968.732-.156 1.392-.828 1.392-1.836 0-1.164-.828-2.04-2.256-2.04h-3.756v8.004zm1.2-4.608v-2.34h2.328c.804 0 1.248.516 1.248 1.176 0 .66-.444 1.164-1.248 1.164h-2.328zm0 3.552v-2.496h2.388c.888 0 1.344.576 1.344 1.236 0 .78-.504 1.26-1.344 1.26h-2.388zm6.957-5.712c.384 0 .696-.3.696-.684a.697.697 0 0 0-.696-.696.704.704 0 0 0-.696.696c0 .384.324.684.696.684zm-.528 6.768h1.08v-5.796h-1.08v5.796zm4.396.144c.564 0 .9-.156 1.128-.372l-.276-.816c-.108.12-.336.228-.588.228-.372 0-.564-.3-.564-.708v-3.324h1.176v-.948h-1.176v-1.584h-1.08v1.584h-.96v.948h.96v3.564c0 .912.468 1.428 1.38 1.428zm1.712-3.048c0 1.74 1.2 3.048 2.952 3.048 1.092 0 1.752-.456 2.172-1.02l-.72-.66c-.348.48-.816.72-1.404.72-1.14 0-1.872-.888-1.872-2.088 0-1.2.732-2.076 1.872-2.076.588 0 1.056.228 1.404.72l.72-.66c-.42-.564-1.08-1.02-2.172-1.02-1.752 0-2.952 1.296-2.952 3.036zm8.882 3.048c1.812 0 2.928-1.368 2.928-3.048 0-1.668-1.116-3.036-2.928-3.036-1.8 0-2.928 1.368-2.928 3.036 0 1.68 1.128 3.048 2.928 3.048zm0-.96c-1.152 0-1.8-.984-1.8-2.088 0-1.092.648-2.076 1.8-2.076 1.164 0 1.8.984 1.8 2.076 0 1.104-.636 2.088-1.8 2.088zm4.827-5.952c.384 0 .696-.3.696-.684a.697.697 0 0 0-.696-.696.704.704 0 0 0-.696.696c0 .384.324.684.696.684zm-.528 6.768h1.08v-5.796h-1.08v5.796zm6.712 0h1.08v-4.068c0-1.224-.636-1.872-1.86-1.872-.9 0-1.668.492-2.052.96v-.816h-1.08v5.796h1.08v-4.14c.312-.432.924-.84 1.596-.84.744 0 1.236.312 1.236 1.272v3.708zM41.91 206h1.405v-8.004h-1.98l-2.184 5.388-2.173-5.388h-1.98V206h1.405v-6.06L38.85 206h.6l2.46-6.06V206zm5.688.144c1.86 0 2.988-1.38 2.988-3.048 0-1.656-1.128-3.036-2.988-3.036-1.836 0-2.976 1.38-2.976 3.036 0 1.668 1.14 3.048 2.976 3.048zm0-1.116c-1.068 0-1.668-.9-1.668-1.932 0-1.02.6-1.92 1.668-1.92 1.08 0 1.68.9 1.68 1.92 0 1.032-.6 1.932-1.68 1.932zm8.175.972h1.26v-4.08c0-1.188-.624-1.86-1.872-1.86-.912 0-1.656.48-2.04.936v-.792h-1.26V206h1.26v-4.044c.288-.396.84-.78 1.488-.78.708 0 1.164.3 1.164 1.2V206z" fill="#2F354D"/><path d="M85.004 206h1.404v-6.768h2.424v-1.236H82.58v1.236h2.424V206zm7.992 0h1.26v-5.796h-1.26v4.068c-.3.396-.852.756-1.488.756-.708 0-1.164-.276-1.164-1.176v-3.648h-1.26v4.104c0 1.188.612 1.836 1.86 1.836.912 0 1.632-.444 2.052-.912V206zm2.536-2.904c0 1.836 1.296 3.048 3.036 3.048.924 0 1.776-.288 2.352-.84l-.576-.828c-.408.408-1.08.636-1.644.636-1.092 0-1.752-.72-1.848-1.596h4.476v-.3c0-1.824-1.116-3.156-2.856-3.156-1.716 0-2.94 1.356-2.94 3.036zm2.94-2.004c1.14 0 1.608.852 1.632 1.536H96.84c.06-.708.552-1.536 1.632-1.536zM133.466 206h1.5l2.28-8.004h-1.572l-1.548 6.168-1.656-6.168h-1.116l-1.656 6.168-1.56-6.168h-1.572l2.292 8.004h1.5l1.548-5.904 1.56 5.904zm3.844-2.904c0 1.836 1.296 3.048 3.036 3.048.924 0 1.776-.288 2.352-.84l-.576-.828c-.408.408-1.08.636-1.644.636-1.092 0-1.752-.72-1.848-1.596h4.476v-.3c0-1.824-1.116-3.156-2.856-3.156-1.716 0-2.94 1.356-2.94 3.036zm2.94-2.004c1.14 0 1.608.852 1.632 1.536h-3.264c.06-.708.552-1.536 1.632-1.536zm8.179 4.908h1.26v-8.004h-1.26v3.012c-.468-.612-1.14-.948-1.86-.948-1.5 0-2.58 1.176-2.58 3.048 0 1.908 1.092 3.036 2.58 3.036.744 0 1.416-.36 1.86-.936V206zm0-1.74c-.288.432-.9.768-1.5.768-.996 0-1.632-.804-1.632-1.92 0-1.128.636-1.932 1.632-1.932.6 0 1.212.348 1.5.78v2.304zm28.554 1.74h1.404v-6.768h2.424v-1.236h-6.252v1.236h2.424V206zm8.905 0h1.26v-4.104c0-1.188-.624-1.836-1.872-1.836a2.77 2.77 0 0 0-2.052.936v-3h-1.26V206h1.26v-4.044c.3-.396.852-.78 1.488-.78.708 0 1.176.276 1.176 1.176V206zm6.809 0h1.26v-5.796h-1.26v4.068c-.3.396-.852.756-1.488.756-.708 0-1.164-.276-1.164-1.176v-3.648h-1.26v4.104c0 1.188.612 1.836 1.86 1.836.912 0 1.632-.444 2.052-.912V206zm31.259 0h1.404v-3.456h3.996v-1.236h-3.996v-2.076h4.08v-1.236h-5.484V206zm6.702 0h1.26v-3.948c.252-.408.96-.768 1.488-.768.156 0 .288.012.396.036v-1.248c-.756 0-1.452.432-1.884.984v-.852h-1.26V206zm4.784-6.756c.432 0 .78-.348.78-.78a.778.778 0 0 0-.78-.78c-.42 0-.78.348-.78.78 0 .432.36.78.78.78zm-.624 6.756h1.26v-5.796h-1.26V206zm32.823-1.128c.708.756 1.776 1.272 3.252 1.272 2.16 0 3.096-1.14 3.096-2.472 0-1.74-1.572-2.148-2.892-2.484-.948-.24-1.764-.444-1.764-1.068 0-.6.528-.996 1.356-.996.84 0 1.692.288 2.316.912l.804-1.044c-.744-.72-1.752-1.116-3-1.116-1.752 0-2.916 1.02-2.916 2.34 0 1.692 1.536 2.076 2.844 2.4.972.252 1.824.468 1.824 1.188 0 .528-.456 1.092-1.608 1.092a3.453 3.453 0 0 1-2.532-1.104l-.78 1.08zM278.786 206h1.26v-3.84c0-1.56-1.128-2.1-2.412-2.1-.924 0-1.764.3-2.436.936l.516.876c.504-.492 1.068-.732 1.716-.732.804 0 1.356.408 1.356 1.08v.864c-.42-.492-1.092-.744-1.872-.744-.948 0-2.016.552-2.016 1.884 0 1.284 1.068 1.92 2.016 1.92.768 0 1.44-.276 1.872-.768V206zm0-1.32c-.288.396-.828.6-1.38.6-.708 0-1.236-.408-1.236-1.032 0-.636.528-1.044 1.236-1.044.552 0 1.092.204 1.38.6v.876zm4.633 1.464c.588 0 .96-.156 1.188-.372l-.3-.948c-.096.108-.324.204-.564.204-.36 0-.552-.288-.552-.684v-3.036h1.176v-1.104h-1.176v-1.584h-1.26v1.584h-.96v1.104h.96v3.348c0 .96.516 1.488 1.488 1.488zm29.046-1.272c.708.756 1.776 1.272 3.252 1.272 2.16 0 3.096-1.14 3.096-2.472 0-1.74-1.572-2.148-2.892-2.484-.948-.24-1.764-.444-1.764-1.068 0-.6.528-.996 1.356-.996.84 0 1.692.288 2.316.912l.804-1.044c-.744-.72-1.752-1.116-3-1.116-1.752 0-2.916 1.02-2.916 2.34 0 1.692 1.536 2.076 2.844 2.4.972.252 1.824.468 1.824 1.188 0 .528-.456 1.092-1.608 1.092a3.453 3.453 0 0 1-2.532-1.104l-.78 1.08zM323.982 206h1.26v-5.796h-1.26v4.068c-.3.396-.852.756-1.488.756-.708 0-1.164-.276-1.164-1.176v-3.648h-1.26v4.104c0 1.188.612 1.836 1.86 1.836.912 0 1.632-.444 2.052-.912V206zm6.809 0h1.26v-4.08c0-1.188-.624-1.86-1.872-1.86-.912 0-1.656.48-2.04.936v-.792h-1.26V206h1.26v-4.044c.288-.396.84-.78 1.488-.78.708 0 1.164.3 1.164 1.2V206z" fill="#9FAAC4"/><path fill="#E7EAF3" d="M1 152h366v2H1z"/><rect x="38" y="43" width="16" height="115" rx="8" fill="#D6F6D6"/><rect x="42" y="47.571" width="8" height="105.429" rx="4" fill="#26C953"/><rect x="88" y="89" width="8" height="64" rx="4" fill="#26C953"/><rect x="134" y="103" width="8" height="50" rx="4" fill="#26C953"/><rect x="180" y="76" width="8" height="77" rx="4" fill="#26C953"/><rect x="226" y="153" width="8" height="25" rx="4" fill="#FF5B5B"/><rect x="272" y="103" width="8" height="50" rx="4" fill="#26C953"/><rect x="318" y="131" width="8" height="22" rx="4" fill="#26C953"/><defs><filter id="filter0_d" x="58" y="3.955" width="251" height="80" filterUnits="userSpaceOnUse" color-interpolation-filters="sRGB"><feFlood flood-opacity="0" result="BackgroundImageFix"/><feColorMatrix in="SourceAlpha" values="0 0 0 0 0 0 0 0 0 0 0 0 0 0 0 0 0 0 127 0"/><feOffset dy="7.955"/><feGaussianBlur stdDeviation="10"/><feColorMatrix values="0 0 0 0 0.476616 0 0 0 0 0.521707 0 0 0 0 0.620087 0 0 0 0.1 0"/><feBlend in2="BackgroundImageFix" result="effect1_dropShadow"/><feBlend in="SourceGraphic" in2="effect1_dropShadow" result="shape"/></filter></defs></svg>