<svg width="484" height="324" fill="none" xmlns="http://www.w3.org/2000/svg"><rect x=".5" y=".5" width="483" height="323" rx="3.5" fill="#fff" stroke="#E7EAF3"/><mask id="a" maskUnits="userSpaceOnUse" x="0" y="0" width="484" height="324"><rect x=".5" y=".5" width="483" height="323" rx="3.5" fill="#F9FAFC" stroke="#E7EAF3"/></mask><g mask="url(#a)"><path d="M63.644 301h4.83v-1.03h-2.96c1.79-1.35 2.92-2.45 2.92-3.68 0-1.33-1.13-2.06-2.42-2.06-.93 0-1.87.36-2.46 1.07l.68.77c.42-.48 1.02-.8 1.8-.8.61 0 1.21.32 1.21 1.02 0 .96-1.01 1.83-3.6 3.79v.92zm5.857-3.33c0 1.68.8 3.45 2.67 3.45 1.87 0 2.67-1.77 2.67-3.45 0-1.68-.8-3.44-2.67-3.44-1.87 0-2.67 1.76-2.67 3.44zm4.15 0c0 1.27-.39 2.41-1.48 2.41-1.09 0-1.48-1.14-1.48-2.41 0-1.27.39-2.4 1.48-2.4 1.09 0 1.48 1.13 1.48 2.4zm3.522 3.33h1.17v-6.67h-1.02l-1.92 1.94.68.71 1.09-1.13V301zm2.619-.63c.45.45 1.09.74 1.91.74 1.93 0 2.94-1.52 2.94-3.44 0-1.86-.79-3.45-2.75-3.45-1.49 0-2.46 1.01-2.46 2.24 0 1.42 1.04 2.16 2.24 2.16.78 0 1.48-.49 1.79-.94v.2c0 1.09-.55 2.19-1.76 2.19-.63 0-1.02-.22-1.37-.58l-.54.88zm3.65-3.54c-.33.48-.89.78-1.46.78-.72 0-1.36-.37-1.36-1.19 0-.53.46-1.16 1.33-1.16 1.03 0 1.43.85 1.49 1.57zm1.916 2.2h2.4v-.9h-2.4v.9zm6.158 1.97h1.17v-1.51h.89v-1.03h-.89v-4.13h-1.61l-2.74 4.22v.94h3.18V301zm0-5.62v3.08h-2.03l2.03-3.08zm-60.353-20.32c0-1.34-1.12-1.73-2.16-2.01v-1.72c.5.1.97.33 1.34.7l.67-.87c-.52-.5-1.19-.82-2.01-.9v-.94h-.8v.92c-1.29.11-2.12.92-2.12 1.94 0 1.3 1.09 1.68 2.12 1.94v1.93a2.94 2.94 0 0 1-1.68-.89l-.65.9c.53.56 1.29.97 2.33 1.05v.89h.8v-.9c1.5-.14 2.16-1.02 2.16-2.04zm-3.88-2.96c0-.45.35-.76.92-.82v1.56c-.53-.15-.92-.35-.92-.74zm1.72 3.95v-1.72c.56.17.97.38.97.84 0 .38-.28.78-.97.88zm3.135.04c.54.64 1.33 1.03 2.48 1.03 1.49 0 2.54-.87 2.54-2.26 0-1.36-1.01-2.15-2.13-2.15-.64 0-1.19.26-1.51.58v-1.93h3.2v-1.03h-4.37v3.73l.83.24c.42-.4.89-.58 1.46-.58.82 0 1.34.47 1.34 1.19 0 .65-.53 1.17-1.37 1.17-.75 0-1.35-.28-1.8-.79l-.67.8zm5.846-2.42c0 1.68.8 3.45 2.67 3.45 1.87 0 2.67-1.77 2.67-3.45 0-1.68-.8-3.44-2.67-3.44-1.87 0-2.67 1.76-2.67 3.44zm4.15 0c0 1.27-.39 2.41-1.48 2.41-1.09 0-1.48-1.14-1.48-2.41 0-1.27.39-2.4 1.48-2.4 1.09 0 1.48 1.13 1.48 2.4zm5.482 3.33h1.32l-2.05-2.64 2.01-2.19h-1.3l-2.13 2.33v-4.17h-1.05V277h1.05v-1.3l.67-.69 1.48 1.99zm400.794-3.33c0 1.68.8 3.45 2.67 3.45 1.87 0 2.67-1.77 2.67-3.45 0-1.68-.8-3.44-2.67-3.44-1.87 0-2.67 1.76-2.67 3.44zm4.15 0c0 1.27-.39 2.41-1.48 2.41-1.09 0-1.48-1.14-1.48-2.41 0-1.27.39-2.4 1.48-2.4 1.09 0 1.48 1.13 1.48 2.4zM27.199 227.06c0-1.34-1.12-1.73-2.16-2.01v-1.72c.5.1.97.33 1.34.7l.67-.87c-.52-.5-1.19-.82-2.01-.9v-.94h-.8v.92c-1.29.11-2.12.92-2.12 1.94 0 1.3 1.09 1.68 2.12 1.94v1.93a2.94 2.94 0 0 1-1.68-.89l-.65.9c.53.56 1.29.97 2.33 1.05v.89h.8v-.9c1.5-.14 2.16-1.02 2.16-2.04zm-3.88-2.96c0-.45.35-.76.92-.82v1.56c-.53-.15-.92-.35-.92-.74zm1.72 3.95v-1.72c.56.17.97.38.97.84 0 .38-.28.78-.97.88zm4.494.95h1.17v-6.67h-1.02l-1.92 1.94.68.71 1.09-1.13V229zm2.29-3.33c0 1.68.8 3.45 2.67 3.45 1.87 0 2.67-1.77 2.67-3.45 0-1.68-.8-3.44-2.67-3.44-1.87 0-2.67 1.76-2.67 3.44zm4.15 0c0 1.27-.39 2.41-1.48 2.41-1.09 0-1.48-1.14-1.48-2.41 0-1.27.39-2.4 1.48-2.4 1.09 0 1.48 1.13 1.48 2.4zm2.011 0c0 1.68.8 3.45 2.67 3.45 1.87 0 2.67-1.77 2.67-3.45 0-1.68-.8-3.44-2.67-3.44-1.87 0-2.67 1.76-2.67 3.44zm4.15 0c0 1.27-.39 2.41-1.48 2.41-1.09 0-1.48-1.14-1.48-2.41 0-1.27.39-2.4 1.48-2.4 1.09 0 1.48 1.13 1.48 2.4zm5.482 3.33h1.32l-2.05-2.64 2.01-2.19h-1.3l-2.13 2.33v-4.17h-1.05V229h1.05v-1.3l.67-.69 1.48 1.99zm400.944-8.91c.54.64 1.33 1.03 2.48 1.03 1.49 0 2.54-.87 2.54-2.26 0-1.36-1.01-2.15-2.13-2.15-.64 0-1.19.26-1.51.58v-1.93h3.2v-1.03h-4.37v3.73l.83.24c.42-.4.89-.58 1.46-.58.82 0 1.34.47 1.34 1.19 0 .65-.53 1.17-1.37 1.17-.75 0-1.35-.28-1.8-.79l-.67.8zm5.846-2.42c0 1.68.8 3.45 2.67 3.45 1.87 0 2.67-1.77 2.67-3.45 0-1.68-.8-3.44-2.67-3.44-1.87 0-2.67 1.76-2.67 3.44zm4.15 0c0 1.27-.39 2.41-1.48 2.41-1.09 0-1.48-1.14-1.48-2.41 0-1.27.39-2.4 1.48-2.4 1.09 0 1.48 1.13 1.48 2.4zm5.482 3.33h1.32l-2.05-2.64 2.01-2.19h-1.3l-2.13 2.33v-4.17h-1.05V221h1.05v-1.3l.67-.69 1.48 1.99zm-14.118-56h1.17v-6.67h-1.02l-1.92 1.94.68.71 1.09-1.13V165zm2.289-3.33c0 1.68.8 3.45 2.67 3.45 1.87 0 2.67-1.77 2.67-3.45 0-1.68-.8-3.44-2.67-3.44-1.87 0-2.67 1.76-2.67 3.44zm4.15 0c0 1.27-.39 2.41-1.48 2.41-1.09 0-1.48-1.14-1.48-2.41 0-1.27.39-2.4 1.48-2.4 1.09 0 1.48 1.13 1.48 2.4zm2.012 0c0 1.68.8 3.45 2.67 3.45 1.87 0 2.67-1.77 2.67-3.45 0-1.68-.8-3.44-2.67-3.44-1.87 0-2.67 1.76-2.67 3.44zm4.15 0c0 1.27-.39 2.41-1.48 2.41-1.09 0-1.48-1.14-1.48-2.41 0-1.27.39-2.4 1.48-2.4 1.09 0 1.48 1.13 1.48 2.4zm5.482 3.33h1.32l-2.05-2.64 2.01-2.19h-1.3l-2.13 2.33v-4.17h-1.05V165h1.05v-1.3l.67-.69 1.48 1.99zM27.365 179.06c0-1.34-1.12-1.73-2.16-2.01v-1.72c.5.1.97.33 1.34.7l.67-.87c-.52-.5-1.19-.82-2.01-.9v-.94h-.8v.92c-1.29.11-2.12.92-2.12 1.94 0 1.3 1.09 1.68 2.12 1.94v1.93a2.94 2.94 0 0 1-1.68-.89l-.65.9c.53.56 1.29.97 2.33 1.05v.89h.8v-.9c1.5-.14 2.16-1.02 2.16-2.04zm-3.88-2.96c0-.45.35-.76.92-.82v1.56c-.53-.15-.92-.35-.92-.74zm1.72 3.95v-1.72c.56.17.97.38.97.84 0 .38-.28.78-.97.88zm4.494.95h1.17v-6.67h-1.02l-1.92 1.94.68.71 1.09-1.13V181zm2.44-.91c.54.64 1.33 1.03 2.48 1.03 1.49 0 2.54-.87 2.54-2.26 0-1.36-1.01-2.15-2.13-2.15-.64 0-1.19.26-1.51.58v-1.93h3.2v-1.03h-4.37v3.73l.83.24c.42-.4.89-.58 1.46-.58.82 0 1.34.47 1.34 1.19 0 .65-.53 1.17-1.37 1.17-.75 0-1.35-.28-1.8-.79l-.67.8zm5.845-2.42c0 1.68.8 3.45 2.67 3.45 1.87 0 2.67-1.77 2.67-3.45 0-1.68-.8-3.44-2.67-3.44-1.87 0-2.67 1.76-2.67 3.44zm4.15 0c0 1.27-.39 2.41-1.48 2.41-1.09 0-1.48-1.14-1.48-2.41 0-1.27.39-2.4 1.48-2.4 1.09 0 1.48 1.13 1.48 2.4zm5.482 3.33h1.32l-2.05-2.64 2.01-2.19h-1.3l-2.13 2.33v-4.17h-1.05V181h1.05v-1.3l.67-.69 1.48 1.99zm402.304-72h1.17v-6.67h-1.02l-1.92 1.94.68.71 1.09-1.13V109zm2.439-.91c.54.64 1.33 1.03 2.48 1.03 1.49 0 2.54-.87 2.54-2.26 0-1.36-1.01-2.15-2.13-2.15-.64 0-1.19.26-1.51.58v-1.93h3.2v-1.03h-4.37v3.73l.83.24c.42-.4.89-.58 1.46-.58.82 0 1.34.47 1.34 1.19 0 .65-.53 1.17-1.37 1.17-.75 0-1.35-.28-1.8-.79l-.67.8zm5.846-2.42c0 1.68.8 3.45 2.67 3.45 1.87 0 2.67-1.77 2.67-3.45 0-1.68-.8-3.44-2.67-3.44-1.87 0-2.67 1.76-2.67 3.44zm4.15 0c0 1.27-.39 2.41-1.48 2.41-1.09 0-1.48-1.14-1.48-2.41 0-1.27.39-2.4 1.48-2.4 1.09 0 1.48 1.13 1.48 2.4zm5.482 3.33h1.32l-2.05-2.64 2.01-2.19h-1.3l-2.13 2.33v-4.17h-1.05V109h1.05v-1.3l.67-.69 1.48 1.99zM25.05 131.06c0-1.34-1.12-1.73-2.16-2.01v-1.72c.5.1.97.33 1.34.7l.67-.87c-.52-.5-1.19-.82-2.01-.9v-.94h-.8v.92c-1.29.11-2.12.92-2.12 1.94 0 1.3 1.09 1.68 2.12 1.94v1.93a2.94 2.94 0 0 1-1.68-.89l-.65.9c.53.56 1.29.97 2.33 1.05v.89h.8v-.9c1.5-.14 2.16-1.02 2.16-2.04zm-3.88-2.96c0-.45.35-.76.92-.82v1.56c-.53-.15-.92-.35-.92-.74zm1.72 3.95v-1.72c.56.17.97.38.97.84 0 .38-.28.78-.97.88zm3.075.95h4.83v-1.03h-2.96c1.79-1.35 2.92-2.45 2.92-3.68 0-1.33-1.13-2.06-2.42-2.06-.93 0-1.87.36-2.46 1.07l.68.77c.42-.48 1.02-.8 1.8-.8.61 0 1.21.32 1.21 1.02 0 .96-1.01 1.83-3.6 3.79v.92zm5.857-3.33c0 1.68.8 3.45 2.67 3.45 1.87 0 2.67-1.77 2.67-3.45 0-1.68-.8-3.44-2.67-3.44-1.87 0-2.67 1.76-2.67 3.44zm4.15 0c0 1.27-.39 2.41-1.48 2.41-1.09 0-1.48-1.14-1.48-2.41 0-1.27.39-2.4 1.48-2.4 1.09 0 1.48 1.13 1.48 2.4zm2.012 0c0 1.68.8 3.45 2.67 3.45 1.87 0 2.67-1.77 2.67-3.45 0-1.68-.8-3.44-2.67-3.44-1.87 0-2.67 1.76-2.67 3.44zm4.15 0c0 1.27-.39 2.41-1.48 2.41-1.09 0-1.48-1.14-1.48-2.41 0-1.27.39-2.4 1.48-2.4 1.09 0 1.48 1.13 1.48 2.4zm5.482 3.33h1.32l-2.05-2.64 2.01-2.19h-1.3l-2.13 2.33v-4.17h-1.05V133h1.05v-1.3l.67-.69 1.48 1.99zm101.267 168h4.83v-1.03h-2.96c1.79-1.35 2.92-2.45 2.92-3.68 0-1.33-1.13-2.06-2.42-2.06-.93 0-1.87.36-2.46 1.07l.68.77c.42-.48 1.02-.8 1.8-.8.61 0 1.21.32 1.21 1.02 0 .96-1.01 1.83-3.6 3.79v.92zm5.857-3.33c0 1.68.8 3.45 2.67 3.45 1.87 0 2.67-1.77 2.67-3.45 0-1.68-.8-3.44-2.67-3.44-1.87 0-2.67 1.76-2.67 3.44zm4.15 0c0 1.27-.39 2.41-1.48 2.41-1.09 0-1.48-1.14-1.48-2.41 0-1.27.39-2.4 1.48-2.4 1.09 0 1.48 1.13 1.48 2.4zm3.522 3.33h1.17v-6.67h-1.02l-1.92 1.94.68.71 1.09-1.13V301zm2.619-.63c.45.45 1.09.74 1.91.74 1.93 0 2.94-1.52 2.94-3.44 0-1.86-.79-3.45-2.75-3.45-1.49 0-2.46 1.01-2.46 2.24 0 1.42 1.04 2.16 2.24 2.16.78 0 1.48-.49 1.79-.94v.2c0 1.09-.55 2.19-1.76 2.19-.63 0-1.02-.22-1.37-.58l-.54.88zm3.65-3.54c-.33.48-.89.78-1.46.78-.72 0-1.36-.37-1.36-1.19 0-.53.46-1.16 1.33-1.16 1.03 0 1.43.85 1.49 1.57zm1.916 2.2h2.4v-.9h-2.4v.9zm3.908 1.97h1.28l2.59-5.86v-.81h-4.81v1.03h3.46l-2.52 5.64zm57.058 0h4.83v-1.03h-2.96c1.79-1.35 2.92-2.45 2.92-3.68 0-1.33-1.13-2.06-2.42-2.06-.93 0-1.87.36-2.46 1.07l.68.77c.42-.48 1.02-.8 1.8-.8.61 0 1.21.32 1.21 1.02 0 .96-1.01 1.83-3.6 3.79v.92zm5.858-3.33c0 1.68.8 3.45 2.67 3.45 1.87 0 2.67-1.77 2.67-3.45 0-1.68-.8-3.44-2.67-3.44-1.87 0-2.67 1.76-2.67 3.44zm4.15 0c0 1.27-.39 2.41-1.48 2.41-1.09 0-1.48-1.14-1.48-2.41 0-1.27.39-2.4 1.48-2.4 1.09 0 1.48 1.13 1.48 2.4zm3.522 3.33h1.17v-6.67h-1.02l-1.92 1.94.68.71 1.09-1.13V301zm2.619-.63c.45.45 1.09.74 1.91.74 1.93 0 2.94-1.52 2.94-3.44 0-1.86-.79-3.45-2.75-3.45-1.49 0-2.46 1.01-2.46 2.24 0 1.42 1.04 2.16 2.24 2.16.78 0 1.48-.49 1.79-.94v.2c0 1.09-.55 2.19-1.76 2.19-.63 0-1.02-.22-1.37-.58l-.54.88zm3.65-3.54c-.33.48-.89.78-1.46.78-.72 0-1.36-.37-1.36-1.19 0-.53.46-1.16 1.33-1.16 1.03 0 1.43.85 1.49 1.57zm1.916 2.2h2.4v-.9h-2.4v.9zm4.618 1.97h1.17v-6.67h-1.02l-1.92 1.94.68.71 1.09-1.13V301zm2.288-3.33c0 1.68.8 3.45 2.67 3.45 1.87 0 2.67-1.77 2.67-3.45 0-1.68-.8-3.44-2.67-3.44-1.87 0-2.67 1.76-2.67 3.44zm4.15 0c0 1.27-.39 2.41-1.48 2.41-1.09 0-1.48-1.14-1.48-2.41 0-1.27.39-2.4 1.48-2.4 1.09 0 1.48 1.13 1.48 2.4zm53.658 3.33h4.83v-1.03h-2.96c1.79-1.35 2.92-2.45 2.92-3.68 0-1.33-1.13-2.06-2.42-2.06-.93 0-1.87.36-2.46 1.07l.68.77c.42-.48 1.02-.8 1.8-.8.61 0 1.21.32 1.21 1.02 0 .96-1.01 1.83-3.6 3.79v.92zm5.857-3.33c0 1.68.8 3.45 2.67 3.45 1.87 0 2.67-1.77 2.67-3.45 0-1.68-.8-3.44-2.67-3.44-1.87 0-2.67 1.76-2.67 3.44zm4.15 0c0 1.27-.39 2.41-1.48 2.41-1.09 0-1.48-1.14-1.48-2.41 0-1.27.39-2.4 1.48-2.4 1.09 0 1.48 1.13 1.48 2.4zm2.103 3.33h4.83v-1.03h-2.96c1.79-1.35 2.92-2.45 2.92-3.68 0-1.33-1.13-2.06-2.42-2.06-.93 0-1.87.36-2.46 1.07l.68.77c.42-.48 1.02-.8 1.8-.8.61 0 1.21.32 1.21 1.02 0 .96-1.01 1.83-3.6 3.79v.92zm5.857-3.33c0 1.68.8 3.45 2.67 3.45 1.87 0 2.67-1.77 2.67-3.45 0-1.68-.8-3.44-2.67-3.44-1.87 0-2.67 1.76-2.67 3.44zm4.15 0c0 1.27-.39 2.41-1.48 2.41-1.09 0-1.48-1.14-1.48-2.41 0-1.27.39-2.4 1.48-2.4 1.09 0 1.48 1.13 1.48 2.4zm1.902 1.36h2.4v-.9h-2.4v.9zm4.618 1.97h1.17v-6.67h-1.02l-1.92 1.94.68.71 1.09-1.13V301zm55.362 0h4.83v-1.03h-2.96c1.79-1.35 2.92-2.45 2.92-3.68 0-1.33-1.13-2.06-2.42-2.06-.93 0-1.87.36-2.46 1.07l.68.77c.42-.48 1.02-.8 1.8-.8.61 0 1.21.32 1.21 1.02 0 .96-1.01 1.83-3.6 3.79v.92zm5.857-3.33c0 1.68.8 3.45 2.67 3.45 1.87 0 2.67-1.77 2.67-3.45 0-1.68-.8-3.44-2.67-3.44-1.87 0-2.67 1.76-2.67 3.44zm4.15 0c0 1.27-.39 2.41-1.48 2.41-1.09 0-1.48-1.14-1.48-2.41 0-1.27.39-2.4 1.48-2.4 1.09 0 1.48 1.13 1.48 2.4zm2.103 3.33h4.83v-1.03h-2.96c1.79-1.35 2.92-2.45 2.92-3.68 0-1.33-1.13-2.06-2.42-2.06-.93 0-1.87.36-2.46 1.07l.68.77c.42-.48 1.02-.8 1.8-.8.61 0 1.21.32 1.21 1.02 0 .96-1.01 1.83-3.6 3.79v.92zm5.857-3.33c0 1.68.8 3.45 2.67 3.45 1.87 0 2.67-1.77 2.67-3.45 0-1.68-.8-3.44-2.67-3.44-1.87 0-2.67 1.76-2.67 3.44zm4.15 0c0 1.27-.39 2.41-1.48 2.41-1.09 0-1.48-1.14-1.48-2.41 0-1.27.39-2.4 1.48-2.4 1.09 0 1.48 1.13 1.48 2.4zm1.902 1.36h2.4v-.9h-2.4v.9zm6.158 1.97h1.17v-1.51h.89v-1.03h-.89v-4.13h-1.61l-2.74 4.22v.94h3.18V301zm0-5.62v3.08h-2.03l2.03-3.08z" fill="#9FAAC4"/><mask id="b" maskUnits="userSpaceOnUse" x="57" y="59" width="383" height="222"><rect x="57.5" y="59.5" width="382" height="221" rx="3.5" fill="#fff" stroke="#E7EAF3"/></mask><g mask="url(#b)" fill-opacity=".1" stroke-width="1.166"><path d="M225.086 216.867l2.488-4.198a1 1 0 0 1 1.376-.346l2.664 1.605a.979.979 0 0 0 .176.084l3.318 1.199a.99.99 0 0 1 .354.221l3.458 3.333 3.207 2.836a1 1 0 0 0 .923.216l2.887-.781a1.02 1.02 0 0 0 .369-.189l3.281-2.664c.109-.088.235-.153.369-.189l3.352-.907 3.13-.847a1 1 0 0 1 .942.233l2.798 2.601a1 1 0 0 0 .942.233l2.624-.71a1 1 0 0 1 .834.146l2.82 1.97a1 1 0 0 0 .834.145l3.184-.861 3.465-.938c.097-.026.189-.067.274-.12l3.121-1.976a1 1 0 0 0 .446-.648l3.405-17.022a1 1 0 0 1 .719-.769l2.794-.756c.144-.039.278-.11.392-.208l3.438-2.965 3.21-2.132a1 1 0 0 1 .859-.119l2.778.893c.241.077.502.06.731-.047l2.765-1.296c.305-.143.518-.431.566-.764l3.397-23.814a1 1 0 0 1 1.102-.852l2.476.279a.998.998 0 0 0 .373-.029l3.312-.896a.993.993 0 0 0 .184-.069l2.953-1.467a1.002 1.002 0 0 1 1.067.113l2.836 2.252c.179.142.402.218.631.216l3.012-.028c.161-.002.319-.042.461-.118l2.932-1.566a1 1 0 0 1 .929-.006l3.032 1.561c.074.039.144.086.207.142l2.844 2.534a1 1 0 0 0 1.338-.007l2.12-1.929a1 1 0 0 1 1.481.15l2.955 4.052 3.196 5.313a1 1 0 0 0 1.175.433l2.541-.853a.996.996 0 0 1 .62-.006l2.871.91a1 1 0 0 0 .815-.095l2.719-1.626c.312-.187.7-.189 1.015-.008l2.57 1.489c.326.188.73.178 1.046-.027l2.538-1.651a1 1 0 0 1 1.108.012l2.802 1.906a.996.996 0 0 0 .572.174l3.297-.032 3.031-.028a1 1 0 0 0 .863-.512l2.838-5.07a1.001 1.001 0 0 1 1.363-.383l2.578 1.45c.106.059.221.099.34.117l3.083.467c.225.035.431.144.585.311l3.181 3.45a1 1 0 0 0 .465.285l2.971.835a.997.997 0 0 0 .71-.064l2.571-1.258a1 1 0 0 1 1.2.249l3.107 3.642 3.611 3.191 3.175 2.169c.273.186.62.225.927.106l3.036-1.183c.056-.022.109-.049.16-.08l3.417-2.1a.978.978 0 0 0 .211-.174l2.627-2.849a1 1 0 0 1 1.584.15l2.7 4.339c.139.223.36.382.615.443l6.823 1.645 3.165.897c.283.08.587.032.831-.132l2.903-1.955c.208-.139.46-.196.708-.159l3.067.464a.992.992 0 0 0 .317-.003l3.193-.543a.994.994 0 0 0 .463-.21l2.261-1.838a1 1 0 0 1 1.586.478l2.731 8.751a1 1 0 0 0 1.585.478l1.295-1.053a1 1 0 0 1 1.591.498l2.922 10.065a.999.999 0 0 0 1.203.691l2.461-.616a1.01 1.01 0 0 0 .387-.194l2.561-2.081a.999.999 0 0 1 1.478.245l2.713 4.334c.185.295.51.472.857.469l3.051-.029 3.261-.031a.995.995 0 0 0 .621-.224l2.716-2.207a1 1 0 0 1 1.253-.007l2.717 2.157a.997.997 0 0 0 .602.216l5.842.112a1 1 0 0 1 .981 1V292a1 1 0 0 1-1 1H-2a1 1 0 0 1-1-1V190.687a.848.848 0 0 1 1.379-.661c.26.209.617.246.914.096l5.574-2.822a1 1 0 0 1 1.218.25l3.553 4.245 4.79 4.336a.995.995 0 0 1 .26.375l3.964 10.064a1 1 0 0 0 1.502.454l1.238-.862c.27-.188.616-.231.924-.116l3.665 1.379c.23.086.483.085.711-.003l.697-.269a1 1 0 0 1 1.353.819l.468 4.065c.104.897 1.248 1.209 1.792.488l1.159-1.536a1 1 0 0 1 1.682.134l2.253 4.255a1 1 0 0 0 1.578.252l2.26-2.179a1 1 0 0 1 .928-.252l2.843.685c.154.037.315.037.469 0l3.376-.814 3.492-.561c.08-.012.16-.016.239-.009l3.187.256c.198.016.396-.028.57-.125l2.233-1.256a1 1 0 0 1 1.454.603l3.029 10.872a1 1 0 0 0 1.122.719l2.335-.375a.995.995 0 0 1 .722.162l2.701 1.844a1 1 0 0 0 1.15-.015l2.595-1.876a1 1 0 0 1 .958-.118l2.637 1.06c.291.116.62.09.889-.072l2.757-1.661a1 1 0 0 1 .89-.072l2.669 1.073c.3.12.64.088.913-.087l3.082-1.981c.063-.04.13-.074.2-.099l3.386-1.224a.995.995 0 0 0 .224-.115l2.834-1.935a1 1 0 0 1 1.258.106l2.717 2.62c.197.189.462.29.734.279l3.184-.128 3.439-.138c.114-.005.226-.029.332-.071l3.006-1.208a.999.999 0 0 1 .863.057l3.12 1.755a.93.93 0 0 0 .151.068l3.309 1.197a.995.995 0 0 0 .459.052l2.796-.337c.358-.043.711.11.925.4l2.887 3.919c.231.312.621.463 1.002.387l2.987-.6 3.212-1.032a.999.999 0 0 1 .769.065l2.351 1.228a.622.622 0 0 1 .078 1.055c-.561.41-.133 1.292.536 1.104l.131-.037a.637.637 0 0 1 .291-.014l3.464.626 2.706.489a.999.999 0 0 0 1.143-.724l2.908-10.811a1 1 0 0 1 1.692-.428l2.032 2.146a1 1 0 0 0 .857.304l3.105-.41 3.611-.764 3.121-.659a1 1 0 0 1 .866.226l2.858 2.501a1 1 0 0 0 .865.226l2.609-.552a1 1 0 0 1 .894.252l2.849 2.692a.999.999 0 0 0 .893.251l3.098-.654 3.473-.734c.091-.02.18-.052.263-.096l3.486-1.857 3.245-2.182c.233-.157.521-.208.793-.143l2.765.668a.997.997 0 0 0 .867-.197l10.195-8.324c.124-.101.27-.171.426-.204l3.373-.713 3.355-.872c.168-.044.321-.131.446-.252l2.605-2.539a1 1 0 0 1 1.498.117l2.546 3.401a.998.998 0 0 0 1.007.379l2.322-.49a1 1 0 0 1 1.04.425l3.159 4.762c.05.076.111.145.18.205l2.602 2.245a1 1 0 0 0 1.514-.248z" fill="#14C393" stroke="#14C393"/><path d="M259.859 183.421l-2.415-9.601c-.208-.83-1.295-1.032-1.787-.332l-2.282 3.241a1.068 1.068 0 0 1-.169.186l-3.341 2.846a1.003 1.003 0 0 0-.266.359l-3.519 7.995-3.122 6.508c-.26.541-.934.733-1.44.411l-2.434-1.553a.996.996 0 0 1-.349-.38l-3.363-6.436a.996.996 0 0 0-.349-.38l-3.331-2.125-2.696-1.719a1 1 0 0 0-1.447.428l-2.656 5.819a1 1 0 0 1-1.447.428l-1.779-1.135a1 1 0 0 0-1.392.324l-2.525 4.158a1 1 0 0 1-1.393.324l-2.773-1.769-3.435-2.19a1.01 1.01 0 0 1-.293-.286l-2.169-3.237c-.493-.736-1.629-.514-1.81.353l-2.83 13.599a1 1 0 0 1-1.517.639l-2.153-1.373a1.004 1.004 0 0 1-.36-.402l-3.487-7.087-3.028-4.741a1 1 0 0 0-1.446-.259l-2.017 1.528a1 1 0 0 1-1.345-.126l-2.942-3.251a.943.943 0 0 1-.098-.128l-3.173-4.905a1 1 0 0 0-1.096-.423l-2.504.665a1 1 0 0 1-.794-.123l-3.096-1.975a.998.998 0 0 1-.222-.193l-2.562-2.998a1 1 0 0 0-1.643.178l-2.63 4.923a1.002 1.002 0 0 1-.905.529l-2.527-.056a.998.998 0 0 1-.76-.378l-2.551-3.21a1 1 0 0 0-1.554-.014l-2.747 3.335a.985.985 0 0 0-.131.206l-2.646 5.556a1 1 0 0 1-1.809-.008l-1.618-3.471c-.387-.829-1.592-.747-1.862.127l-2.845 9.196-3.229 12.654a1 1 0 0 1-1.59.536l-1.799-1.423a1 1 0 0 0-1.219-.018l-2.174 1.624a1 1 0 0 1-1.414-.223l-2.215-3.123a1 1 0 0 0-1.622-.012l-1.937 2.643a1 1 0 0 1-1.644-.044l-1.964-3.011a1 1 0 0 0-1.686.017l-2.48 3.979a1.001 1.001 0 0 1-.871.47l-3.041-.067-2.839-.064a1 1 0 0 1-.951-.769l-2.941-12.384a1 1 0 0 0-1.771-.372l-2.151 2.851a1 1 0 0 1-.461.34l-2.901 1.036a1 1 0 0 0-.594.578l-3.33 8.512a.994.994 0 0 1-.379.469l-2.614 1.733a1 1 0 0 1-1.309-.178l-1.918-2.213a1 1 0 0 0-1.696.315l-3.031 8.374-3.611 7.522-2.974 4.787a1 1 0 0 1-1.526.208l-2.639-2.423a1.005 1.005 0 0 1-.146-.169l-3.481-5.043a.982.982 0 0 1-.109-.204l-2.452-6.269c-.352-.901-1.651-.827-1.898.109l-2.722 10.307a1 1 0 0 1-.472.614l-6.856 3.895-2.757 1.842a1 1 0 0 1-1.402-.298l-2.636-4.183a1 1 0 0 0-1.181-.409l-2.5.891c-.23.082-.481.077-.708-.013l-2.916-1.17a1.002 1.002 0 0 1-.514-.465l-1.977-3.788c-.452-.866-1.75-.637-1.878.331l-2.78 21.002c-.129.969-1.427 1.198-1.879.332l-.661-1.268c-.454-.87-1.76-.633-1.88.341l-3.03 24.618a1 1 0 0 1-1.502.739l-2.05-1.21a.999.999 0 0 1-.378-.399l-2.287-4.381c-.422-.809-1.619-.676-1.853.206l-2.747 10.345a1 1 0 0 1-.99.743l-2.823-.063-3.02-.068a1 1 0 0 1-.864-.537l-2.462-4.716a1 1 0 0 0-1.768-.008l-2.45 4.585a.998.998 0 0 1-.837.527l-5.637.254a1 1 0 0 0-.955.999V292a1 1 0 0 0 1 1h489a1 1 0 0 0 1-1V50.486c0-.73-.978-.973-1.319-.327a.7.7 0 0 1-1.155.123l-4.978-5.941a1 1 0 0 0-1.709.308l-3.477 9.792-4.906 10.469a.986.986 0 0 0-.081.26l-4.048 24.224c-.153.914-1.358 1.147-1.84.356l-.688-1.13a1 1 0 0 0-1.518-.228l-2.946 2.612a1 1 0 0 1-1.336-.008l-.025-.022a1 1 0 0 0-1.671.69l-.53 10.836c-.054 1.112-1.612 1.316-1.951.256l-.808-2.524c-.311-.97-1.705-.909-1.928.086l-2.138 9.513c-.211.941-1.502 1.067-1.891.183l-1.94-4.409a1 1 0 0 0-1.409-.466l-2.154 1.223a1 1 0 0 1-.988 0l-3.049-1.732a.94.94 0 0 0-.14-.066l-3.275-1.24a1.004 1.004 0 0 0-.54-.048l-2.723.516a1 1 0 0 1-.985-.38l-1.737-2.303c-.543-.72-1.686-.41-1.792.485l-3.168 26.808a1 1 0 0 1-1.347.818l-1.645-.623a1 1 0 0 0-1.203.408l-2.303 3.706a1 1 0 0 1-1.712-.021l-2.136-3.641a1 1 0 0 0-1.55-.22l-1.858 1.759a1 1 0 0 1-1.505-.151l-2.279-3.237a1 1 0 0 0-1.506-.151l-1.905 1.805a1 1 0 0 1-1.522-.175l-2.876-4.358a1.034 1.034 0 0 0-.186-.21l-3.385-2.884a1.012 1.012 0 0 1-.2-.233l-2.528-4.069a1 1 0 0 0-1.765.125l-2.556 5.809a1 1 0 0 1-1.009.592l-2.892-.274-3.268-.309a1.002 1.002 0 0 1-.593-.269l-2.549-2.413a1 1 0 0 0-1.486.124l-2.871 3.806a.969.969 0 0 1-.149.158l-3.12 2.659a1.001 1.001 0 0 1-.922.201l-2.159-.613a1 1 0 0 0-1.228.663l-2.977 9.525a1 1 0 0 1-1.382.605l-2.478-1.173a1.02 1.02 0 0 1-.176-.107l-2.758-2.089a1 1 0 0 0-1.38.167l-2.565 3.158a.998.998 0 0 0-.089 1.133l1.328 2.282c.478.821-.48 1.725-1.272 1.2a.898.898 0 0 0-.848-.078l-3.166 1.349-3.041 1.296a1 1 0 0 1-1.041-.159l-2.081-1.773a1 1 0 0 0-1.577.388l-2.748 6.841a1 1 0 0 1-1.225.582l-2.653-.826a1.126 1.126 0 0 1-.149-.059l-3.539-1.764-2.706-1.348a.999.999 0 0 0-1.345.459l-2.729 5.629a1 1 0 0 1-1.346.459l-1.774-.884a1 1 0 0 0-1.358.486l-2.758 6.143a1 1 0 0 1-1.358.485l-2.679-1.335-3.413-1.7a1.006 1.006 0 0 1-.336-.272l-3.473-4.36-3.101-4.915a.999.999 0 0 0-1.34-.335l-2.588 1.473a1.011 1.011 0 0 0-.393.409l-10.179 19.677a1 1 0 0 1-1.334.435l-2.729-1.36-3.343-2.049a1.006 1.006 0 0 1-.394-.454l-2.421-5.562c-.369-.847-1.591-.784-1.87.096l-2.451 7.719a1 1 0 0 1-1.399.592l-1.484-.739a1 1 0 0 0-1.409.624l-3.258 11.578a1.085 1.085 0 0 1-.065.17l-2.368 4.815c-.411.836-1.64.706-1.867-.197z" fill="#8358FF" stroke="#8358FF"/></g><g opacity=".15" filter="url(#filter0_f)"><rect x="41.22" y="39.723" width="124.285" height="38.184" rx="5.99" fill="#7A859E"/></g><g filter="url(#filter1_d)"><rect x="24" y="24" width="159.474" height="44.922" rx="22.461" fill="#fff"/><rect x="24.374" y="24.374" width="158.725" height="44.174" rx="22.087" stroke="#F1F3F9" stroke-width=".749"/></g><path d="M76.334 50.728h1.079v-8.989h-1.119v7.102l-5.175-7.102h-1.146v8.989h1.119v-7.25l5.242 7.25zm2.763-3.261c0 2.035 1.388 3.423 3.316 3.423 1.064 0 1.94-.35 2.587-.998l-.485-.66c-.512.526-1.267.822-2.008.822-1.402 0-2.264-1.024-2.345-2.25h5.27v-.257c0-1.954-1.16-3.49-3.127-3.49-1.86 0-3.208 1.523-3.208 3.41zm3.194-2.574c1.483 0 2.13 1.199 2.143 2.17h-4.272c.054-.998.741-2.17 2.13-2.17zm6.422 5.997c.593 0 .956-.175 1.212-.418l-.296-.755c-.135.148-.404.27-.687.27-.445 0-.66-.35-.66-.836v-4.043h1.32v-.89h-1.32V42.44H87.27v1.779h-1.079v.89h1.079v4.258c0 .97.485 1.523 1.442 1.523zm7.95-.162h1.01l2.076-6.51h-1.051l-1.59 5.19-1.712-5.19h-.862l-1.712 5.19-1.59-5.19H90.18l2.075 6.51h1.01l1.699-5.229 1.698 5.229zm7.107.162c1.981 0 3.221-1.537 3.221-3.423 0-1.887-1.24-3.41-3.221-3.41s-3.221 1.523-3.221 3.41c0 1.886 1.24 3.423 3.221 3.423zm0-.903c-1.388 0-2.169-1.186-2.169-2.52 0-1.321.781-2.507 2.169-2.507s2.157 1.186 2.157 2.507c0 1.334-.769 2.52-2.157 2.52zm4.869.741h1.011v-4.61c.296-.525 1.145-1.037 1.765-1.037.162 0 .283.014.404.04v-1.037c-.889 0-1.644.499-2.169 1.186v-1.051h-1.011v6.509zm8.882 0h1.294l-2.898-3.558 2.884-2.951h-1.28l-3.423 3.463V41.74h-1.011v8.989h1.011v-1.86l1.078-1.065 2.345 2.925zm5.64-4.488c0 2.79 2.062 4.663 4.622 4.663 1.469 0 2.696-.62 3.531-1.55v-3.248h-4.204v.998h3.086v1.833c-.445.444-1.334.97-2.413.97-1.967 0-3.463-1.536-3.463-3.666 0-2.143 1.496-3.652 3.463-3.652 1.079 0 2.035.512 2.601 1.24l.89-.553c-.795-.983-1.9-1.684-3.491-1.684-2.56 0-4.622 1.86-4.622 4.65zm9.931 4.488h1.011v-4.61c.296-.525 1.145-1.037 1.765-1.037.162 0 .283.014.404.04v-1.037c-.889 0-1.644.499-2.169 1.186v-1.051h-1.011v6.509zm7.292.162c1.981 0 3.221-1.537 3.221-3.423 0-1.887-1.24-3.41-3.221-3.41s-3.221 1.523-3.221 3.41c0 1.886 1.24 3.423 3.221 3.423zm0-.903c-1.388 0-2.17-1.186-2.17-2.52 0-1.321.782-2.507 2.17-2.507s2.156 1.186 2.156 2.507c0 1.334-.768 2.52-2.156 2.52zm10.502.741h1.01l2.076-6.51h-1.051l-1.591 5.19-1.711-5.19h-.863l-1.711 5.19-1.59-5.19h-1.052l2.076 6.51h1.011l1.698-5.229 1.698 5.229zm5.907.162c.593 0 .957-.175 1.213-.418l-.296-.755c-.135.148-.404.27-.687.27-.445 0-.661-.35-.661-.836v-4.043h1.321v-.89h-1.321V42.44h-1.011v1.779h-1.078v.89h1.078v4.258c0 .97.486 1.523 1.442 1.523zm6.725-.162h1.01v-4.596c0-1.415-.714-2.075-2.075-2.075-.984 0-1.873.566-2.332 1.105V41.74h-1.01v8.989h1.01v-4.757c.391-.526 1.146-1.011 1.928-1.011.876 0 1.469.337 1.469 1.482v4.286z" fill="#2F354D"/><circle opacity=".1" cx="47.959" cy="46.461" r="11.979" fill="#8358FF"/><path fill-rule="evenodd" clip-rule="evenodd" d="M40.097 46.461c0-.62.66-1.123 1.474-1.123h12.775c.814 0 1.474.503 1.474 1.123s-.66 1.123-1.474 1.123H41.571c-.814 0-1.474-.503-1.474-1.123z" fill="#8358FF"/><circle cx="47.959" cy="46.461" r="3.744" fill="#ECF0FE" stroke="#8358FF" stroke-width="1.497"/><g opacity=".15" filter="url(#filter2_f)"><rect x="214.171" y="39.723" width="79.363" height="38.184" rx="5.99" fill="#7A859E"/></g><g filter="url(#filter3_d)"><rect x="192.458" y="24" width="120.541" height="44.922" rx="22.461" fill="#fff"/><rect x="192.833" y="24.374" width="119.793" height="44.174" rx="22.087" stroke="#F1F3F9" stroke-width=".749"/></g><path d="M238.432 50.728h5.889v-.997h-4.77v-3.1h4.676v-.997h-4.676v-2.898h4.77v-.997h-5.889v8.989zm9.896 0h1.119v-7.992h2.857v-.997h-6.819v.997h2.843v7.992zm11.837 0h1.119v-8.989h-1.119v3.868h-5.256v-3.868h-1.118v8.989h1.118v-4.124h5.256v4.124zm6.694 0h1.119v-3.571h2.493c1.779 0 2.817-1.24 2.817-2.71 0-1.468-1.011-2.708-2.817-2.708h-3.612v8.989zm5.27-6.28c0 1.01-.728 1.711-1.793 1.711h-2.358v-3.423h2.358c1.065 0 1.793.701 1.793 1.712zm2.6 6.28h1.01v-4.61c.297-.525 1.146-1.037 1.766-1.037.162 0 .283.014.404.04v-1.037c-.889 0-1.644.499-2.17 1.186v-1.051h-1.01v6.509zm4.947-7.6a.69.69 0 0 0 .687-.688.679.679 0 0 0-.687-.674.676.676 0 0 0-.674.674c0 .377.31.687.674.687zm-.499 7.6h1.011v-6.51h-1.011v6.51zm2.65-3.261c0 1.94 1.307 3.423 3.248 3.423 1.185 0 1.886-.486 2.385-1.132l-.674-.62c-.431.58-.984.849-1.658.849-1.388 0-2.25-1.078-2.25-2.52s.862-2.507 2.25-2.507c.674 0 1.227.256 1.658.849l.674-.62c-.499-.647-1.2-1.132-2.385-1.132-1.941 0-3.248 1.482-3.248 3.41zm6.672 0c0 2.035 1.388 3.423 3.315 3.423 1.065 0 1.941-.35 2.588-.998l-.485-.66c-.512.526-1.267.822-2.008.822-1.402 0-2.264-1.024-2.345-2.25h5.269v-.257c0-1.954-1.159-3.49-3.126-3.49-1.86 0-3.208 1.523-3.208 3.41zm3.194-2.574c1.483 0 2.129 1.199 2.143 2.17h-4.272c.054-.998.741-2.17 2.129-2.17z" fill="#2F354D"/><circle cx="216.417" cy="46.461" r="11.979" fill="#EDF8F5"/><path fill-rule="evenodd" clip-rule="evenodd" d="M208.556 46.461c0-.62.66-1.123 1.474-1.123h12.774c.815 0 1.474.503 1.474 1.123s-.659 1.123-1.474 1.123H210.03c-.814 0-1.474-.503-1.474-1.123z" fill="#21B074"/><circle cx="216.417" cy="46.461" r="3.744" fill="#EDF8F5" stroke="#21B074" stroke-width="1.497"/></g><defs><filter id="filter0_f" x="-3.702" y="-5.199" width="214.13" height="128.028" filterUnits="userSpaceOnUse" color-interpolation-filters="sRGB"><feFlood flood-opacity="0" result="BackgroundImageFix"/><feBlend in="SourceGraphic" in2="BackgroundImageFix" result="shape"/><feGaussianBlur stdDeviation="22.461" result="effect1_foregroundBlur"/></filter><filter id="filter1_d" x="-5.948" y="1.539" width="219.37" height="104.819" filterUnits="userSpaceOnUse" color-interpolation-filters="sRGB"><feFlood flood-opacity="0" result="BackgroundImageFix"/><feColorMatrix in="SourceAlpha" values="0 0 0 0 0 0 0 0 0 0 0 0 0 0 0 0 0 0 127 0"/><feOffset dy="7.487"/><feGaussianBlur stdDeviation="14.974"/><feColorMatrix values="0 0 0 0 0.476616 0 0 0 0 0.521707 0 0 0 0 0.620087 0 0 0 0.06 0"/><feBlend in2="BackgroundImageFix" result="effect1_dropShadow"/><feBlend in="SourceGraphic" in2="effect1_dropShadow" result="shape"/></filter><filter id="filter2_f" x="169.249" y="-5.199" width="169.207" height="128.028" filterUnits="userSpaceOnUse" color-interpolation-filters="sRGB"><feFlood flood-opacity="0" result="BackgroundImageFix"/><feBlend in="SourceGraphic" in2="BackgroundImageFix" result="shape"/><feGaussianBlur stdDeviation="22.461" result="effect1_foregroundBlur"/></filter><filter id="filter3_d" x="162.51" y="1.539" width="180.438" height="104.819" filterUnits="userSpaceOnUse" color-interpolation-filters="sRGB"><feFlood flood-opacity="0" result="BackgroundImageFix"/><feColorMatrix in="SourceAlpha" values="0 0 0 0 0 0 0 0 0 0 0 0 0 0 0 0 0 0 127 0"/><feOffset dy="7.487"/><feGaussianBlur stdDeviation="14.974"/><feColorMatrix values="0 0 0 0 0.476616 0 0 0 0 0.521707 0 0 0 0 0.620087 0 0 0 0.06 0"/><feBlend in2="BackgroundImageFix" result="effect1_dropShadow"/><feBlend in="SourceGraphic" in2="effect1_dropShadow" result="shape"/></filter></defs></svg>