<svg width="484" height="324" fill="none" xmlns="http://www.w3.org/2000/svg"><rect x=".5" y=".5" width="483" height="323" rx="3.5" fill="#fff" stroke="#E7EAF3"/><mask id="a" maskUnits="userSpaceOnUse" x="0" y="0" width="484" height="324"><rect x=".5" y=".5" width="483" height="323" rx="3.5" fill="#fff" stroke="#E7EAF3"/></mask><g mask="url(#a)"><path d="M225.131 197.26l2.425-7.073a1 1 0 0 1 1.667-.368l2.389 2.489c.057.059.122.111.192.155l3.301 2.063c.134.084.246.198.328.334l3.487 5.811 3.136 4.793a.998.998 0 0 0 1.26.358l2.587-1.21c.156-.073.291-.185.391-.325l3.305-4.639c.1-.14.235-.252.391-.325l3.318-1.552 2.862-1.339a1 1 0 0 1 1.272.378l2.673 4.295c.268.43.814.592 1.273.378l2.106-.985a1 1 0 0 1 1.194.268l2.6 3.139a.998.998 0 0 0 1.193.268l2.935-1.373 3.431-1.604a.995.995 0 0 0 .314-.231l3.259-3.565a.997.997 0 0 0 .255-.56l3.509-30.326a1 1 0 0 1 .57-.79l2.854-1.335c.164-.077.305-.198.406-.349l3.456-5.15 3.079-3.536a1 1 0 0 1 1.24-.217l2.312 1.284a1 1 0 0 0 1.115-.097l2.754-2.232a1 1 0 0 0 .367-.695l3.484-42.213a1 1 0 0 1 1.188-.9l2.214.432a1 1 0 0 0 .615-.076l3.173-1.484a.992.992 0 0 0 .227-.147l2.685-2.304a1 1 0 0 1 1.46.17l2.667 3.661c.192.263.5.416.825.411l2.71-.044c.246-.004.482-.099.662-.265l2.664-2.46a1.001 1.001 0 0 1 1.344-.012l2.833 2.523c.066.059.125.127.174.202l2.689 4.143a1 1 0 0 0 1.683-.008l1.752-2.756a1 1 0 0 1 1.765.148l2.87 6.802 3.212 9.23a1 1 0 0 0 1.446.537l2.075-1.204a1 1 0 0 1 .982-.013l2.448 1.34a1 1 0 0 0 1.199-.181l2.373-2.454a1 1 0 0 1 1.426-.011l2.143 2.144a1 1 0 0 0 1.454-.042l2.142-2.407a1 1 0 0 1 1.509.017l2.56 3.012a1 1 0 0 0 .778.352l3.138-.052 2.896-.047a.999.999 0 0 0 .935-.692l2.895-8.94a1 1 0 0 1 1.649-.409l2.269 2.206c.124.12.276.206.443.25l2.933.769c.27.07.498.25.629.496l3.252 6.098a1 1 0 0 0 .445.428l2.733 1.329a1 1 0 0 0 1.083-.136l2.137-1.807a1 1 0 0 1 1.543.321l3.044 6.169 3.611 5.516 3.032 3.579a1 1 0 0 0 1.322.183l2.775-1.869c.061-.042.118-.09.169-.144l3.443-3.658a.986.986 0 0 0 .154-.214l2.488-4.665c.408-.765 1.529-.684 1.823.132l2.698 7.495c.096.264.297.476.557.584l6.814 2.84 2.917 1.429a1 1 0 0 0 1.198-.246l2.7-3.142a1 1 0 0 1 1.011-.316l2.738.716c.176.046.361.043.535-.008l3.012-.886a.999.999 0 0 0 .533-.38l2.033-2.857c.513-.721 1.642-.469 1.799.402l2.767 15.326c.157.871 1.285 1.124 1.799.402l.833-1.17c.516-.726 1.653-.465 1.801.414l2.999 17.862a1 1 0 0 0 1.383.752l2.183-.945c.167-.073.312-.19.418-.338l2.343-3.293a1 1 0 0 1 1.755.239l2.718 7.506a1 1 0 0 0 .957.66l2.897-.048 3.106-.051a1 1 0 0 0 .798-.42l2.513-3.53a.999.999 0 0 1 1.622-.009l2.506 3.438a.999.999 0 0 0 .775.411l5.706.188a1 1 0 0 1 .967 1V328a1 1 0 0 1-1 1H-2a1 1 0 0 1-1-1V151.357c0-.715.915-1.01 1.333-.43a.735.735 0 0 0 1.081.123l5.174-4.528a1 1 0 0 1 1.559.316l3.49 7.21 4.872 7.622c.062.097.106.204.132.316l4.025 17.664a1 1 0 0 0 1.744.417l.845-1.018a1 1 0 0 1 1.315-.199l3.215 2.09a.999.999 0 0 0 1.1-.006l.271-.181a1 1 0 0 1 1.553.766l.515 7.721c.07 1.045 1.495 1.293 1.914.333l.888-2.036c.372-.851 1.601-.78 1.873.107l2.161 7.053c.254.828 1.368.964 1.814.222l2.01-3.351a1 1 0 0 1 1.242-.409l2.429 1.012a.996.996 0 0 0 .77 0l3.225-1.344 3.411-.947a.99.99 0 0 1 .406-.027l2.92.405a.998.998 0 0 0 .835-.273l1.882-1.83a1 1 0 0 1 1.684.558l3.127 19.405a1 1 0 0 0 1.255.804l1.917-.532a.999.999 0 0 1 1.03.317l2.413 2.847a1 1 0 0 0 1.544-.022l2.268-2.835a1 1 0 0 1 1.351-.196l2.142 1.487a.999.999 0 0 0 1.292-.129l2.43-2.53a1 1 0 0 1 1.29-.128l2.187 1.518a1 1 0 0 0 1.313-.153l2.927-3.252a1.05 1.05 0 0 1 .214-.179l3.359-2.099a1 1 0 0 0 .233-.202l2.608-3.078a1 1 0 0 1 1.62.132l2.577 4.295a1 1 0 0 0 .927.483l2.999-.209 3.336-.231c.18-.013.353-.074.501-.176l2.708-1.881a1 1 0 0 1 1.268.105l2.943 2.861c.051.05.107.094.167.131l3.18 1.987a.995.995 0 0 0 .734.131l2.415-.503c.466-.097.937.149 1.124.587l2.923 6.859a1 1 0 0 0 1.248.552l2.647-.919c.054-.019.107-.042.157-.07l2.91-1.617a1.002 1.002 0 0 1 1.156.132l2.384 2.152a1 1 0 0 1 .113 1.364l-.739.931c-.554.698.221 1.664 1.023 1.274a.838.838 0 0 1 .616-.046l3.294 1.029 2.503.782a.999.999 0 0 0 1.286-.8l2.98-19.151c.147-.944 1.407-1.165 1.865-.327l1.835 3.349c.215.392.664.594 1.1.495l2.874-.657 3.611-1.319 2.868-1.048a1 1 0 0 1 1.178.388l2.74 4.144a1 1 0 0 0 1.177.388l2.1-.767a.999.999 0 0 1 1.196.417l2.756 4.502a1 1 0 0 0 1.196.417l2.842-1.038 3.424-1.251c.123-.045.237-.115.334-.204l3.464-3.19 3.137-3.646a.998.998 0 0 1 1.143-.271l2.267.947c.432.18.931.037 1.202-.345l10.124-14.29a1 1 0 0 1 .473-.361l3.318-1.213 3.323-1.494a1 1 0 0 0 .449-.402l2.45-4.127a1 1 0 0 1 1.778.113l2.458 5.677a1 1 0 0 0 1.261.542l1.8-.658a1.001 1.001 0 0 1 1.277.581l3.218 8.385c.026.07.061.136.103.199l2.425 3.617a1 1 0 0 0 1.777-.233z" fill="#14C393" fill-opacity=".05" stroke="#14C393" stroke-width="1.166"/><path d="M55.862 270.337l-3.84-41.886a.5.5 0 0 0-.785-.363l-3.169 2.222a.481.481 0 0 1-.093.052l-3.595 1.513a.5.5 0 0 0-.304.411l-3.889 39.151-3.465 17.547c-.105.529-.857.541-.978.015l-2.78-12.091c-.125-.542-.908-.506-.983.045l-3.012 22.223c-.079.583-.925.574-.992-.011l-3.401-29.812a.521.521 0 0 0-.014-.072l-3.438-12.894c-.135-.507-.859-.49-.971.022l-2.833 12.947c-.121.553-.922.512-.985-.05l-3.067-27.03c-.067-.593-.93-.59-.994.004L8.93 273.628a.5.5 0 0 1-.647.424l-3.363-1.059-3.857-1.215a.506.506 0 0 0-.127-.023l-6.413-.286a.5.5 0 0 0-.522.499V330.5a.5.5 0 0 0 .5.5h496a.5.5 0 0 0 .5-.5v-51.809a.5.5 0 0 0-.5-.5h-9.687a.501.501 0 0 0-.411.215l-3.155 4.553a.503.503 0 0 1-.342.21l-10.989 1.542a.501.501 0 0 1-.57-.478l-2.187-62.322c-.021-.62-.929-.653-.996-.037l-6.865 62.569c-.057.517-.769.614-.962.13l-10.358-25.995c-.187-.468-.871-.397-.957.1l-4.473 25.765a.5.5 0 0 1-.746.345l-2.519-1.481a.5.5 0 0 0-.553.031l-3.506 2.623a.5.5 0 0 1-.79-.304l-9.487-48.24c-.111-.564-.929-.527-.988.045l-3.563 34.728a.488.488 0 0 1-.097.248l-8.806 11.791a.5.5 0 0 1-.813-.016l-8.213-11.948a.5.5 0 0 0-.561-.194l-5.125 1.597a.498.498 0 0 1-.593-.248l-1.998-3.886a.5.5 0 0 0-.727-.184l-7.753 5.317a.5.5 0 0 1-.768-.293l-6.646-27.128c-.127-.519-.869-.504-.976.018l-5.432 26.529-2.59 13.066c-.099.497-.788.549-.961.074l-4.776-13.14-8.135-38.568c-.118-.561-.934-.514-.987.057l-3.022 32.643a.5.5 0 0 1-.862.296l-8-8.506a.501.501 0 0 0-.832.164l-10.381 27.167a.5.5 0 0 1-.956-.073l-7.717-35.645a.5.5 0 0 0-.908-.167l-3.26 5.013a.5.5 0 0 1-.873-.064l-2.074-4.525a.5.5 0 0 0-.919.024l-4.344 10.933c-.183.46-.852.403-.954-.081l-2.414-11.438a.5.5 0 0 0-.831-.262l-.799.748a.5.5 0 0 1-.798-.162l-6.716-15.068a.5.5 0 0 0-.857-.097l-3.31 4.397a.5.5 0 0 1-.877-.153l-4.642-14.992a.5.5 0 0 0-.952-.012l-4.173 12.333a.5.5 0 0 1-.788.228l-1.986-1.608a.499.499 0 0 0-.709.081l-4.343 5.571a.501.501 0 0 1-.6.149l-1.457-.654a.5.5 0 0 0-.702.406l-.771 7.783a.5.5 0 0 1-.917.223l-2.414-3.726a.5.5 0 0 0-.915.202l-3.277 23.243c-.08.567-.895.577-.989.013l-3.293-19.816a.5.5 0 0 0-.629-.4l-3.246.911a.495.495 0 0 1-.27 0l-3.56-.998a.5.5 0 0 1-.32-.276l-3.377-7.467a.5.5 0 0 0-.908-.007l-2.95 6.248a.5.5 0 0 1-.921-.038l-3.032-8.122a.5.5 0 0 0-.937.003l-3.308 9.015a.5.5 0 0 1-.561.32l-3.279-.614a.502.502 0 0 0-.403.1l-3.575 2.842a.5.5 0 0 0-.186.342l-3.87 39.008a.5.5 0 0 1-.286.404l-3.399 1.589a.497.497 0 0 1-.498-.043l-3.505-2.459a.5.5 0 0 1-.208-.338l-3.858-26.841a.504.504 0 0 0-.196-.329l-3.576-2.676a.494.494 0 0 1-.198-.35l-3.876-38.927a.503.503 0 0 0-.187-.342l-3.03-2.408a.5.5 0 0 0-.809.345l-3.789 40.709a.5.5 0 0 1-.521.453l-3.441-.161-3.82-.179a.51.51 0 0 1-.189-.046l-3.576-1.673a.501.501 0 0 0-.486.035l-3.527 2.309a.5.5 0 0 0-.208.286l-3.406 12.465c-.133.486-.819.493-.962.01l-3.261-11.022a.5.5 0 0 0-.674-.319l-3.254 1.369a.5.5 0 0 1-.308.026l-3.76-.879-3.692-1.381a.502.502 0 0 0-.435.041l-3.643 2.215a.509.509 0 0 1-.145.059l-3.302.772a.5.5 0 0 1-.61-.423l-3.356-26.282c-.074-.582-.916-.583-.992-.001l-3.373 26.022a.5.5 0 0 1-.393.425l-3.419.72a.497.497 0 0 1-.297-.029l-3.154-1.327a.5.5 0 0 0-.692.407l-3.42 32.086c-.063.586-.91.601-.993.018l-3.305-23.267a.499.499 0 0 0-.376-.415l-3.59-.884-3.919-.964-3.575-.88a.497.497 0 0 1-.378-.436l-3.775-38.519a.5.5 0 0 0-.867-.288l-3.051 3.356a.506.506 0 0 0-.127.285l-3.843 37.328a.5.5 0 0 1-.617.435l-3.284-.808a.505.505 0 0 1-.144-.061l-3.851-2.388-3.271-2.56a.5.5 0 0 0-.8.301l-3.3 17.567c-.103.552-.898.54-.985-.016l-3.35-21.512a.502.502 0 0 0-.374-.409l-3.595-.884-3.666-1.11a.5.5 0 0 1-.332-.329l-3.102-9.872c-.163-.52-.922-.441-.974.101l-3.626 37.528a.5.5 0 0 1-.618.437l-2.99-.736a.5.5 0 0 0-.554.238l-3.043 5.34a.5.5 0 0 1-.927-.162l-3.68-21.126z" fill="#68DBF4" fill-opacity=".05" stroke="#68DBF4" stroke-width="1.5"/><path d="M483 228.13l-1.825-2.193a.5.5 0 0 0-.869.194l-3.119 12.05a.5.5 0 0 1-.308.343l-10.847 4.074a.5.5 0 0 1-.675-.462L462.917 56l-7.622 185.985c-.024.606-.904.653-.994.053l-10.288-69.124c-.088-.593-.954-.557-.993.041l-4.496 69.345a.5.5 0 0 1-.921.236l-2.133-3.357a.5.5 0 0 0-.869.045l-3.201 6.412c-.227.454-.909.32-.946-.187L420.301 107.22l-3.917 102.209a.452.452 0 0 1-.018.115l-8.789 31.506c-.138.493-.839.486-.966-.01l-8.156-31.767a.5.5 0 0 0-.805-.259l-4.618 3.855a.5.5 0 0 1-.812-.29l-2.026-10.553a.5.5 0 0 0-.93-.144l-7.363 13.519c-.236.434-.892.299-.937-.193l-6.655-72.73c-.056-.611-.95-.604-.997.007l-5.424 70.927-2.586 34.93c-.045.598-.914.625-.995.03l-4.746-34.96-8.817-111.923-3.337 96.515c-.019.553-.788.67-.972.149l-7.749-22.059c-.174-.494-.893-.423-.967.095l-10.345 72.478c-.084.591-.945.564-.993-.03l-7.716-95.414c-.046-.566-.85-.629-.984-.077l-3.104 12.781c-.128.528-.887.502-.979-.034l-2.003-11.702c-.096-.561-.904-.552-.987.011l-4.282 28.85c-.088.589-.947.56-.993-.034l-2.425-30.758c-.041-.527-.767-.637-.963-.146l-.501 1.255c-.187.47-.874.396-.957-.103l-6.686-40.159c-.088-.527-.83-.567-.975-.053l-3.115 11.08c-.148.528-.915.467-.978-.078l-4.622-39.963c-.068-.587-.919-.591-.993-.005l-4.161 32.925c-.063.499-.74.603-.95.147l-1.648-3.576a.5.5 0 0 0-.934.069l-4.262 14.634a.5.5 0 0 1-.864.18l-1.012-1.216a.5.5 0 0 0-.884.301l-.798 21.569c-.021.58-.849.663-.985.099l-2.262-9.344c-.136-.56-.955-.484-.985.091l-3.739 70.992-3.861-62.2a.5.5 0 0 0-.8-.369l-2.876 2.161a.5.5 0 0 1-.601 0l-3.459-2.598a.499.499 0 0 1-.192-.317l-3.403-20.147c-.094-.553-.888-.556-.986-.003l-2.865 16.246c-.099.561-.909.547-.988-.017l-2.982-21.386c-.08-.575-.911-.574-.99.001l-3.333 24.321a.5.5 0 0 1-.719.379l-2.836-1.42a.5.5 0 0 0-.676.234l-3.658 7.784a.521.521 0 0 0-.047.194l-3.909 105.495a.501.501 0 0 1-.109.294l-3.341 4.183a.5.5 0 0 1-.832-.077l-3.509-6.59a.51.51 0 0 1-.058-.208l-3.907-72.771a.514.514 0 0 0-.052-.197l-3.824-7.66a.502.502 0 0 1-.053-.205l-3.911-105.16a.485.485 0 0 0-.047-.195l-2.995-6.374c-.223-.475-.934-.33-.952.195l-3.828 110.114a.5.5 0 0 1-.562.479l-3.375-.422-3.718-.466a.497.497 0 0 1-.328-.184l-3.332-4.171a.5.5 0 0 0-.825.064l-3.501 6.137a.485.485 0 0 0-.063.197l-3.431 33.615c-.061.597-.928.6-.994.004l-3.278-29.662a.5.5 0 0 0-.871-.277l-2.891 3.257a.499.499 0 0 1-.639.092l-3.512-2.198a.505.505 0 0 1-.089-.071l-3.43-3.436a.5.5 0 0 0-.78.092l-3.525 5.738a.519.519 0 0 1-.161.162l-3.095 1.937a.5.5 0 0 1-.765-.4l-3.878-81.305-3.905 80.656a.502.502 0 0 1-.254.411l-3.327 1.875a.5.5 0 0 1-.619-.104l-2.827-3.185a.5.5 0 0 0-.874.312l-3.869 97.165-3.905-73.601a.505.505 0 0 0-.224-.391l-3.708-2.442-3.919-2.582-3.704-2.439a.5.5 0 0 1-.224-.4l-3.81-104.1c-.02-.554-.795-.668-.973-.142l-3.022 8.898a.53.53 0 0 0-.026.142l-3.882 100.952a.5.5 0 0 1-.774.398l-3.084-2.031a.5.5 0 0 1-.153-.16l-3.86-6.408-3.102-6.5c-.22-.464-.914-.332-.95.18l-3.856 54.967-3.834-65.931a.5.5 0 0 0-.224-.388l-3.71-2.443-3.76-3.05a.498.498 0 0 1-.181-.33l-3.135-26.71c-.072-.613-.974-.577-.996.04L67.65 247.672a.5.5 0 0 1-.775.399l-2.564-1.689a.5.5 0 0 0-.764.313l-3.013 14.155c-.121.568-.95.508-.988-.072l-3.684-56.619-3.855-112.58c-.018-.51-.7-.669-.941-.217l-3.014 5.659a.502.502 0 0 1-.067.097l-3.76 4.237a.497.497 0 0 0-.126.313l-3.912 105.434-3.458 46.881c-.045.614-.944.619-.997.006l-3.382-39.393L28.43 292l-3.858-90.573-3.432-34.462c-.06-.606-.946-.598-.996.009l-3.47 42.452-3.918-92.481-3.851 96.629a.5.5 0 0 1-.822.363l-3.164-2.669L1 207.963" stroke="#FF5B5B" stroke-width="1.5"/><g opacity=".15" filter="url(#filter0_f)"><rect x="38" y="40" width="100" height="38" rx="5.99" fill="#7A859E"/></g><g filter="url(#filter1_d)"><rect x="24" y="24" width="128" height="45" rx="22.5" fill="#fff"/><rect x="24.374" y="24.374" width="127.251" height="44.251" rx="22.126" stroke="#F1F3F9" stroke-width=".749"/></g><path d="M76.412 44h1.078v-8.989h-1.118v7.102l-5.175-7.102H70.05V44h1.119v-7.25L76.412 44zm5.863 0h1.388l3.625-8.989h-1.28l-3.033 7.763-3.032-7.763h-1.28L82.275 44zm8.412 0h1.118v-7.992h2.857v-.997h-6.819v.997h2.844V44zm14.139 0h1.32l-2.426-3.666c1.227-.108 2.332-.997 2.332-2.614 0-1.658-1.173-2.709-2.817-2.709h-3.611V44h1.118v-3.571h1.793L104.826 44zm.067-6.28c0 1.01-.728 1.725-1.792 1.725h-2.359v-3.437h2.359c1.064 0 1.792.701 1.792 1.712zm6.696 6.28h1.011v-4.474c0-1.577-1.146-2.197-2.52-2.197-1.065 0-1.901.35-2.601 1.078l.471.701c.58-.62 1.213-.903 1.995-.903.943 0 1.644.499 1.644 1.375v1.172c-.526-.606-1.267-.89-2.156-.89-1.105 0-2.278.688-2.278 2.143 0 1.415 1.173 2.157 2.278 2.157.876 0 1.617-.31 2.156-.903V44zm0-1.375c-.391.54-1.078.809-1.792.809-.944 0-1.604-.593-1.604-1.415 0-.836.66-1.429 1.604-1.429.714 0 1.401.27 1.792.809v1.226zm4.681 1.537c.593 0 .957-.175 1.213-.418l-.296-.755c-.135.149-.405.27-.688.27-.445 0-.66-.35-.66-.836V38.38h1.321v-.89h-1.321v-1.778h-1.011v1.779h-1.078v.89h1.078v4.258c0 .97.485 1.523 1.442 1.523zm2.816-7.763a.69.69 0 0 0 .687-.687.679.679 0 0 0-.687-.674.676.676 0 0 0-.674.674c0 .377.31.687.674.687zM118.587 44h1.011v-6.51h-1.011V44zm5.871.162c1.981 0 3.221-1.537 3.221-3.423 0-1.887-1.24-3.41-3.221-3.41s-3.221 1.523-3.221 3.41c0 1.886 1.24 3.423 3.221 3.423zm0-.903c-1.388 0-2.17-1.186-2.17-2.52 0-1.321.782-2.507 2.17-2.507s2.156 1.186 2.156 2.507c0 1.334-.768 2.52-2.156 2.52z" fill="#2F354D"/><path d="M70.85 59.99l.45-.35c-.64-1.26-1.04-2.41-1.04-4.07 0-1.67.4-2.81 1.04-4.08l-.45-.34c-.9 1.24-1.41 2.81-1.41 4.42 0 1.61.51 3.19 1.41 4.42zm4.54-1.87c1.21 0 2.01-.56 2.57-1.32l-.71-.39c-.38.57-1.07.97-1.86.97-1.43 0-2.54-1.13-2.54-2.71 0-1.59 1.11-2.71 2.54-2.71.79 0 1.48.41 1.86.97l.7-.39c-.53-.75-1.35-1.32-2.56-1.32-1.89 0-3.4 1.4-3.4 3.45 0 2.05 1.51 3.45 3.4 3.45zm3.968-5.76c.28 0 .51-.23.51-.51s-.23-.5-.51-.5c-.27 0-.5.22-.5.5s.23.51.5.51zm-.37 5.64h.75v-4.83h-.75V58zm2.246 0h.75v-3.42c.22-.39.85-.77 1.31-.77.12 0 .21.01.3.03v-.77c-.66 0-1.22.37-1.61.88v-.78h-.75V58zm3.021-2.42c0 1.44.97 2.54 2.41 2.54.88 0 1.4-.36 1.77-.84l-.5-.46c-.32.43-.73.63-1.23.63-1.03 0-1.67-.8-1.67-1.87s.64-1.86 1.67-1.86c.5 0 .91.19 1.23.63l.5-.46c-.37-.48-.89-.84-1.77-.84-1.44 0-2.41 1.1-2.41 2.53zM89.486 58h.75v-6.67h-.75V58zm5.506 0h.75v-4.83h-.75v3.55c-.28.39-.84.73-1.43.73-.65 0-1.08-.25-1.08-1.1v-3.18h-.75v3.41c0 1.05.53 1.54 1.54 1.54.72 0 1.35-.38 1.72-.8V58zm2.248 0h.75v-6.67h-.75V58zm5.266 0h.75v-3.32c0-1.17-.85-1.63-1.87-1.63-.79 0-1.41.26-1.93.8l.35.52c.43-.46.9-.67 1.48-.67.7 0 1.22.37 1.22 1.02v.87c-.39-.45-.94-.66-1.6-.66-.82 0-1.69.51-1.69 1.59 0 1.05.87 1.6 1.69 1.6.65 0 1.2-.23 1.6-.67V58zm0-1.02c-.29.4-.8.6-1.33.6-.7 0-1.19-.44-1.19-1.05 0-.62.49-1.06 1.19-1.06.53 0 1.04.2 1.33.6v.91zm3.474 1.14c.44 0 .71-.13.9-.31l-.22-.56c-.1.11-.3.2-.51.2-.33 0-.49-.26-.49-.62v-3h.98v-.66h-.98v-1.32h-.75v1.32h-.8v.66h.8v3.16c0 .72.36 1.13 1.07 1.13zm2.089-5.76c.28 0 .51-.23.51-.51s-.23-.5-.51-.5c-.27 0-.5.22-.5.5s.23.51.5.51zm-.37 5.64h.75v-4.83h-.75V58zm4.356.12c1.47 0 2.39-1.14 2.39-2.54 0-1.4-.92-2.53-2.39-2.53-1.47 0-2.39 1.13-2.39 2.53s.92 2.54 2.39 2.54zm0-.67c-1.03 0-1.61-.88-1.61-1.87 0-.98.58-1.86 1.61-1.86 1.03 0 1.6.88 1.6 1.86 0 .99-.57 1.87-1.6 1.87zm6.873.55h.75v-3.39c0-1.05-.53-1.56-1.54-1.56-.72 0-1.38.42-1.72.82v-.7h-.75V58h.75v-3.53c.28-.39.84-.75 1.43-.75.65 0 1.08.27 1.08 1.12V58zm2.718-2.43c0 1.66-.4 2.81-1.05 4.07l.45.35c.91-1.23 1.42-2.81 1.42-4.42 0-1.61-.51-3.18-1.42-4.42l-.45.34c.65 1.27 1.05 2.41 1.05 4.08z" fill="#7A859E"/><circle cx="47.959" cy="46.461" r="11.979" fill="#FFE6E6"/><path fill-rule="evenodd" clip-rule="evenodd" d="M40.097 46.461c0-.62.66-1.123 1.474-1.123h12.775c.814 0 1.474.503 1.474 1.123s-.66 1.123-1.474 1.123H41.571c-.814 0-1.474-.503-1.474-1.123z" fill="#FF5B5B"/><circle cx="47.959" cy="46.461" r="3.744" fill="#FFE6E6" stroke="#FF5B5B" stroke-width="1.497"/><g opacity=".15" filter="url(#filter2_f)"><rect x="174" y="40" width="100" height="38" rx="5.99" fill="#7A859E"/></g><g filter="url(#filter3_d)"><rect x="160" y="24" width="128" height="45" rx="22.5" fill="#fff"/><rect x="160.374" y="24.374" width="127.251" height="44.251" rx="22.126" stroke="#F1F3F9" stroke-width=".749"/></g><path d="M212.412 44h1.078v-8.989h-1.118v7.102l-5.175-7.102h-1.146V44h1.119v-7.25l5.242 7.25zm5.863 0h1.388l3.625-8.989h-1.28l-3.033 7.763-3.032-7.763h-1.28L218.275 44zm8.412 0h1.118v-7.992h2.857v-.997h-6.819v.997h2.844V44zm14.139 0h1.32l-2.426-3.666c1.227-.108 2.332-.997 2.332-2.614 0-1.658-1.173-2.709-2.817-2.709h-3.611V44h1.118v-3.571h1.793L240.826 44zm.067-6.28c0 1.01-.728 1.725-1.792 1.725h-2.359v-3.437h2.359c1.064 0 1.792.701 1.792 1.712zm6.696 6.28h1.011v-4.474c0-1.577-1.146-2.197-2.52-2.197-1.065 0-1.901.35-2.601 1.078l.471.701c.58-.62 1.213-.903 1.995-.903.943 0 1.644.499 1.644 1.375v1.172c-.526-.606-1.267-.89-2.156-.89-1.105 0-2.278.688-2.278 2.143 0 1.415 1.173 2.157 2.278 2.157.876 0 1.617-.31 2.156-.903V44zm0-1.375c-.391.54-1.078.809-1.792.809-.944 0-1.604-.593-1.604-1.415 0-.836.66-1.429 1.604-1.429.714 0 1.401.27 1.792.809v1.226zm4.681 1.537c.593 0 .957-.175 1.213-.418l-.296-.755c-.135.149-.405.27-.688.27-.445 0-.66-.35-.66-.836V38.38h1.321v-.89h-1.321v-1.778h-1.011v1.779h-1.078v.89h1.078v4.258c0 .97.485 1.523 1.442 1.523zm2.816-7.763a.69.69 0 0 0 .687-.687.679.679 0 0 0-.687-.674.676.676 0 0 0-.674.674c0 .377.31.687.674.687zM254.587 44h1.011v-6.51h-1.011V44zm5.871.162c1.981 0 3.221-1.537 3.221-3.423 0-1.887-1.24-3.41-3.221-3.41s-3.221 1.523-3.221 3.41c0 1.886 1.24 3.423 3.221 3.423zm0-.903c-1.388 0-2.17-1.186-2.17-2.52 0-1.321.782-2.507 2.17-2.507s2.156 1.186 2.156 2.507c0 1.334-.768 2.52-2.156 2.52z" fill="#2F354D"/><path d="M206.85 59.99l.45-.35c-.64-1.26-1.04-2.41-1.04-4.07 0-1.67.4-2.81 1.04-4.08l-.45-.34c-.9 1.24-1.41 2.81-1.41 4.42 0 1.61.51 3.19 1.41 4.42zm3.06-1.99h.83v-5.93h2.12v-.74h-5.06v.74h2.11V58zm3.174 0h.75v-3.42c.22-.39.85-.77 1.31-.77.12 0 .21.01.3.03v-.77c-.66 0-1.22.37-1.61.88v-.78h-.75V58zm6.431 0h.87l-1.86-2.48 1.75-2.35h-.87l-1.34 1.84-1.34-1.84h-.87l1.75 2.35-1.85 2.48h.86l1.45-1.98 1.45 1.98zm6.331 0h1.03l2.69-6.67h-.95l-2.25 5.76-2.25-5.76h-.95l2.68 6.67zm6.077.12c1.47 0 2.39-1.14 2.39-2.54 0-1.4-.92-2.53-2.39-2.53-1.47 0-2.39 1.13-2.39 2.53s.92 2.54 2.39 2.54zm0-.67c-1.03 0-1.611-.88-1.611-1.87 0-.98.581-1.86 1.611-1.86s1.6.88 1.6 1.86c0 .99-.57 1.87-1.6 1.87zm3.612.55h.75v-6.67h-.75V58zm5.506 0h.75v-4.83h-.75v3.55c-.28.39-.84.73-1.43.73-.65 0-1.08-.25-1.08-1.1v-3.18h-.75v3.41c0 1.05.53 1.54 1.54 1.54.72 0 1.35-.38 1.72-.8V58zm8.078 0h.75v-3.49c0-.97-.47-1.46-1.35-1.46-.7 0-1.35.46-1.62.9-.14-.5-.56-.9-1.3-.9-.71 0-1.36.51-1.56.82v-.7h-.75V58h.75v-3.53c.26-.39.78-.75 1.27-.75.63 0 .89.39.89 1V58h.75v-3.54c.25-.38.78-.74 1.28-.74.62 0 .89.39.89 1V58zm1.966-2.42c0 1.51 1.03 2.54 2.46 2.54.79 0 1.44-.26 1.92-.74l-.36-.49c-.38.39-.94.61-1.49.61-1.04 0-1.68-.76-1.74-1.67h3.91v-.19c0-1.45-.86-2.59-2.32-2.59-1.38 0-2.38 1.13-2.38 2.53zm2.37-1.91c1.1 0 1.58.89 1.59 1.61h-3.17c.04-.74.55-1.61 1.58-1.61zm4.015 1.9c0 1.66-.4 2.81-1.05 4.07l.45.35c.91-1.23 1.42-2.81 1.42-4.42 0-1.61-.51-3.18-1.42-4.42l-.45.34c.65 1.27 1.05 2.41 1.05 4.08z" fill="#7A859E"/><circle cx="183.959" cy="46.461" r="11.979" fill="#E5F9FD"/><path fill-rule="evenodd" clip-rule="evenodd" d="M176.097 46.461c0-.62.66-1.123 1.474-1.123h12.775c.814 0 1.474.503 1.474 1.123s-.66 1.123-1.474 1.123h-12.775c-.814 0-1.474-.503-1.474-1.123z" fill="#68DBF4"/><circle cx="183.959" cy="46.461" r="3.744" fill="#E5F9FD" stroke="#68DBF4" stroke-width="1.497"/><g opacity=".15" filter="url(#filter4_f)"><rect x="317.712" y="39.723" width="79.363" height="38.184" rx="5.99" fill="#7A859E"/></g><g filter="url(#filter5_d)"><rect x="296" y="24" width="120.541" height="44.922" rx="22.461" fill="#fff"/><rect x="296.374" y="24.374" width="119.793" height="44.174" rx="22.087" stroke="#F1F3F9" stroke-width=".749"/></g><path d="M341.974 50.728h5.889v-.997h-4.771v-3.1h4.677v-.997h-4.677v-2.898h4.771v-.997h-5.889v8.989zm9.896 0h1.119v-7.992h2.857v-.997h-6.82v.997h2.844v7.992zm11.837 0h1.118v-8.989h-1.118v3.868h-5.256v-3.868h-1.119v8.989h1.119v-4.124h5.256v4.124zm6.694 0h1.118v-3.571h2.494c1.779 0 2.816-1.24 2.816-2.71 0-1.468-1.01-2.708-2.816-2.708h-3.612v8.989zm5.269-6.28c0 1.01-.727 1.711-1.792 1.711h-2.359v-3.423h2.359c1.065 0 1.792.701 1.792 1.712zm2.6 6.28h1.011v-4.609c.296-.526 1.145-1.038 1.765-1.038.162 0 .283.014.405.04v-1.037c-.89 0-1.645.499-2.17 1.186v-1.051h-1.011v6.509zm4.947-7.6a.69.69 0 0 0 .687-.688.679.679 0 0 0-.687-.674.676.676 0 0 0-.674.674c0 .377.31.687.674.687zm-.498 7.6h1.01v-6.51h-1.01v6.51zm2.649-3.261c0 1.94 1.307 3.423 3.248 3.423 1.186 0 1.887-.485 2.385-1.132l-.673-.62c-.432.58-.984.849-1.658.849-1.388 0-2.251-1.078-2.251-2.52s.863-2.507 2.251-2.507c.674 0 1.226.256 1.658.849l.673-.62c-.498-.647-1.199-1.132-2.385-1.132-1.941 0-3.248 1.482-3.248 3.41zm6.673 0c0 2.035 1.388 3.423 3.315 3.423 1.065 0 1.941-.35 2.587-.998l-.485-.66c-.512.526-1.266.822-2.008.822-1.401 0-2.264-1.024-2.345-2.25h5.27v-.257c0-1.954-1.159-3.49-3.127-3.49-1.86 0-3.207 1.523-3.207 3.41zm3.194-2.574c1.482 0 2.129 1.199 2.142 2.17h-4.272c.054-.998.742-2.17 2.13-2.17z" fill="#2F354D"/><circle cx="319.959" cy="46.461" r="11.979" fill="#EDF8F5"/><path fill-rule="evenodd" clip-rule="evenodd" d="M312.097 46.461c0-.62.66-1.123 1.474-1.123h12.775c.814 0 1.474.503 1.474 1.123s-.66 1.123-1.474 1.123h-12.775c-.814 0-1.474-.503-1.474-1.123z" fill="#21B074"/><circle cx="319.959" cy="46.461" r="3.744" fill="#EDF8F5" stroke="#21B074" stroke-width="1.497"/></g><defs><filter id="filter0_f" x="-6.922" y="-4.922" width="189.845" height="127.845" filterUnits="userSpaceOnUse" color-interpolation-filters="sRGB"><feFlood flood-opacity="0" result="BackgroundImageFix"/><feBlend in="SourceGraphic" in2="BackgroundImageFix" result="shape"/><feGaussianBlur stdDeviation="22.461" result="effect1_foregroundBlur"/></filter><filter id="filter1_d" x="-5.948" y="1.539" width="187.896" height="104.896" filterUnits="userSpaceOnUse" color-interpolation-filters="sRGB"><feFlood flood-opacity="0" result="BackgroundImageFix"/><feColorMatrix in="SourceAlpha" values="0 0 0 0 0 0 0 0 0 0 0 0 0 0 0 0 0 0 127 0"/><feOffset dy="7.487"/><feGaussianBlur stdDeviation="14.974"/><feColorMatrix values="0 0 0 0 0.476616 0 0 0 0 0.521707 0 0 0 0 0.620087 0 0 0 0.06 0"/><feBlend in2="BackgroundImageFix" result="effect1_dropShadow"/><feBlend in="SourceGraphic" in2="effect1_dropShadow" result="shape"/></filter><filter id="filter2_f" x="129.078" y="-4.922" width="189.845" height="127.845" filterUnits="userSpaceOnUse" color-interpolation-filters="sRGB"><feFlood flood-opacity="0" result="BackgroundImageFix"/><feBlend in="SourceGraphic" in2="BackgroundImageFix" result="shape"/><feGaussianBlur stdDeviation="22.461" result="effect1_foregroundBlur"/></filter><filter id="filter3_d" x="130.052" y="1.539" width="187.896" height="104.896" filterUnits="userSpaceOnUse" color-interpolation-filters="sRGB"><feFlood flood-opacity="0" result="BackgroundImageFix"/><feColorMatrix in="SourceAlpha" values="0 0 0 0 0 0 0 0 0 0 0 0 0 0 0 0 0 0 127 0"/><feOffset dy="7.487"/><feGaussianBlur stdDeviation="14.974"/><feColorMatrix values="0 0 0 0 0.476616 0 0 0 0 0.521707 0 0 0 0 0.620087 0 0 0 0.06 0"/><feBlend in2="BackgroundImageFix" result="effect1_dropShadow"/><feBlend in="SourceGraphic" in2="effect1_dropShadow" result="shape"/></filter><filter id="filter4_f" x="272.79" y="-5.199" width="169.207" height="128.028" filterUnits="userSpaceOnUse" color-interpolation-filters="sRGB"><feFlood flood-opacity="0" result="BackgroundImageFix"/><feBlend in="SourceGraphic" in2="BackgroundImageFix" result="shape"/><feGaussianBlur stdDeviation="22.461" result="effect1_foregroundBlur"/></filter><filter id="filter5_d" x="266.052" y="1.539" width="180.438" height="104.819" filterUnits="userSpaceOnUse" color-interpolation-filters="sRGB"><feFlood flood-opacity="0" result="BackgroundImageFix"/><feColorMatrix in="SourceAlpha" values="0 0 0 0 0 0 0 0 0 0 0 0 0 0 0 0 0 0 127 0"/><feOffset dy="7.487"/><feGaussianBlur stdDeviation="14.974"/><feColorMatrix values="0 0 0 0 0.476616 0 0 0 0 0.521707 0 0 0 0 0.620087 0 0 0 0.06 0"/><feBlend in2="BackgroundImageFix" result="effect1_dropShadow"/><feBlend in="SourceGraphic" in2="effect1_dropShadow" result="shape"/></filter></defs></svg>