<svg width="484" height="324" fill="none" xmlns="http://www.w3.org/2000/svg"><rect x=".5" y=".5" width="483" height="323" rx="3.5" fill="#fff" stroke="#E7EAF3"/><mask id="a" maskUnits="userSpaceOnUse" x="0" y="0" width="484" height="324"><rect x=".5" y=".5" width="483" height="323" rx="3.5" fill="#F9FAFC" stroke="#E7EAF3"/></mask><g mask="url(#a)"><rect x="-1" y="231" width="486" height="2" rx="1" fill="#F9FAFC"/><rect x="-1" y="148" width="486" height="2" rx="1" fill="#F9FAFC"/><rect x="-1" y="65" width="486" height="2" rx="1" fill="#F9FAFC"/><path d="M-.596 171.727l2.969-3.134 2.968-4.18 2.969 7.314 2.968-3.483 2.97 1.742 2.968-.697 2.968 1.393 2.969 1.045 2.969 1.219 2.968-1.567 2.969 1.393 2.969-2.438 2.968-2.09 2.969-1.045 2.968-4.179 2.969-2.263 2.969-1.132 2.968-2.873 2.969 3.134 2.968 3.134 2.97-1.741 2.968 3.483 2.968 2.089 2.969-3.134 2.969-2.438 2.968 1.741 2.969-4.527 2.968 10.1 2.97-6.884 2.968-6.883 2.968 7.048 2.969.082 2.969.082 2.968-13.848 2.969 7.047 2.969 2.171 2.968-29.868 2.969 7.048 2.968-27.779 2.969 7.047 2.969 1.475 2.968-1.311 2.969 5.836 2.969-2.457 5.937-4.18 2.968-13.93 2.969 9.403 2.969 5.328 2.968 3.379 2.969-5.921 2.969-7.662 2.968-10.161 2.969 4.241 2.968-2.438 2.969-9.403 2.969 9.403 2.968-4.875 2.969 15.487 2.969.082 2.968.082 2.969 5.244 2.968-5.079 2.969-5.02 2.969 5.184 2.968-2.747 2.969 2.911 2.969-7.438 2.968 30.42 2.969 7.889 2.968-7.724 2.969-4.466 2.969 4.63 2.968.082 2.969-6.883 2.969 4.303 2.952 2.334 2.985-.983 2.968 5.687 2.969 4.064 2.969-2.786 2.968 5.76 2.969 7.474 2.969 2.346 2.968-17.669 2.969 5.487 2.968 2.345 2.99 2.362 2.948-6.015 2.968 2.346 2.969-8.06 3.014 2.382 2.923 2.31 2.969 7.037 2.968 2.346 2.969-7.665 2.969-8.358 2.968-3.134 2.969-5.224 2.969 14.627 2.968-7.48 2.969-13.068 2.969 1.833 2.968-11.584 2.969 8.45 2.968 2.255 2.969 1.833 2.916 8.748 3.021-2.132 2.969 5.83 2.969 4.618 2.968 1.833 2.969 1.832 2.968-8.192 2.969 1.832 2.969 1.833 2.968 1.832 2.969 1.833 2.969 1.145 2.968-18.575 2.969 3.135 2.969-1.567 2.968-1.568 2.969 2.438 2.968-1.741 2.969-4.527 2.969 2.786 2.968 1.741 2.969-3.134 2.968 1.044 2.969-3.134 2.969-4.876 2.968 3.483 2.969.348 2.969.348 2.968-8.358 2.969 5.921 2.969 3.134 2.968 5.572 2.969-3.482 2.968 5.223 2.969-3.482 2.969-38.194 2.968-5.92 2.969 1.392 2.968-5.223 2.969 4.875 2.969-.696 2.968 1.393 2.969 2.09 2.969-2.09 2.968 8.358 2.969-16.368 2.969 11.492.742-18.806 1.855 2.09 3.711-11.94 2.226 4.526L468.818 30l4.082 33.07 3.34-11.13 5.566 31.33 1.484-3.483 2.227 43.88" stroke="#14C393" stroke-width="1.5"/><g opacity=".15" filter="url(#filter0_f)"><rect x="143.457" y="266.706" width="198.882" height="40.572" rx="6.364" fill="#7A859E"/></g><g filter="url(#filter1_d)"><rect x="118" y="250" width="249" height="47.732" rx="23.866" fill="#fff"/><rect x="118.398" y="250.398" width="248.204" height="46.936" rx="23.468" stroke="#F1F3F9" stroke-width=".796"/></g><path d="M166.849 278.524h1.188v-3.795h2.649c1.89 0 2.993-1.317 2.993-2.878 0-1.561-1.074-2.878-2.993-2.878h-3.837v9.551zm5.598-6.673c0 1.074-.773 1.819-1.904 1.819h-2.506v-3.637h2.506c1.131 0 1.904.744 1.904 1.818zm2.763 6.673h1.074v-4.897c.315-.559 1.217-1.103 1.876-1.103.172 0 .3.014.429.043v-1.103c-.945 0-1.747.53-2.305 1.261v-1.117h-1.074v6.916zm5.256-8.076c.401 0 .731-.33.731-.73a.722.722 0 0 0-.731-.716.718.718 0 0 0-.716.716c0 .4.33.73.716.73zm-.53 8.076h1.074v-6.916h-1.074v6.916zm2.816-3.465c0 2.062 1.389 3.637 3.451 3.637 1.26 0 2.005-.516 2.534-1.203l-.716-.659c-.458.616-1.045.902-1.761.902-1.475 0-2.391-1.145-2.391-2.677 0-1.533.916-2.664 2.391-2.664.716 0 1.303.272 1.761.902l.716-.658c-.529-.688-1.274-1.203-2.534-1.203-2.062 0-3.451 1.575-3.451 3.623zm7.09 0c0 2.162 1.475 3.637 3.522 3.637 1.131 0 2.062-.372 2.75-1.06l-.516-.701c-.544.558-1.346.873-2.134.873-1.489 0-2.405-1.088-2.491-2.391h5.599v-.272c0-2.077-1.232-3.709-3.322-3.709-1.976 0-3.408 1.618-3.408 3.623zm3.393-2.735c1.575 0 2.263 1.274 2.277 2.305h-4.539c.057-1.06.787-2.305 2.262-2.305zm12.632-3.053a.45.45 0 0 0-.718 0l-2.722 3.513c-.24.311-.026.772.359.772h2.086v4.525c0 .308.284.558.636.558.351 0 .636-.25.636-.558v-4.525h2.085c.386 0 .6-.461.359-.772l-2.721-3.513zm31.383 9.253h1.145v-9.551h-1.188v7.546l-5.499-7.546h-1.217v9.551h1.188v-7.704l5.571 7.704zm2.935-3.465c0 2.162 1.475 3.637 3.523 3.637 1.131 0 2.062-.372 2.749-1.06l-.515-.701c-.545.558-1.346.873-2.134.873-1.489 0-2.406-1.088-2.492-2.391h5.599v-.272c0-2.077-1.231-3.709-3.322-3.709-1.976 0-3.408 1.618-3.408 3.623zm3.394-2.735c1.575 0 2.262 1.274 2.277 2.305h-4.54c.058-1.06.788-2.305 2.263-2.305zm6.823 6.372c.63 0 1.016-.186 1.289-.444l-.316-.802c-.143.158-.429.286-.73.286-.472 0-.701-.372-.701-.887v-4.296h1.403v-.945h-1.403v-1.89h-1.074v1.89h-1.146v.945h1.146v4.525c0 1.031.515 1.618 1.532 1.618zm8.447-.172h1.074l2.206-6.916h-1.117l-1.69 5.513-1.819-5.513h-.916l-1.819 5.513-1.689-5.513h-1.117l2.205 6.916h1.074l1.804-5.556 1.804 5.556zm7.552.172c2.105 0 3.423-1.633 3.423-3.637 0-2.005-1.318-3.623-3.423-3.623s-3.422 1.618-3.422 3.623c0 2.004 1.317 3.637 3.422 3.637zm0-.96c-1.475 0-2.305-1.26-2.305-2.677 0-1.404.83-2.664 2.305-2.664s2.291 1.26 2.291 2.664c0 1.417-.816 2.677-2.291 2.677zm5.173.788h1.074v-4.897c.315-.559 1.217-1.103 1.876-1.103.172 0 .301.014.43.043v-1.103c-.945 0-1.747.53-2.306 1.261v-1.117h-1.074v6.916zm9.438 0h1.375l-3.079-3.78 3.064-3.136h-1.36l-3.637 3.68v-6.315h-1.074v9.551h1.074v-1.976l1.145-1.131 2.492 3.107zm13.238 0h1.318l-3.852-9.551h-1.475l-3.838 9.551h1.317l.845-2.119h4.84l.845 2.119zm-3.265-8.491l2.062 5.312h-4.138l2.076-5.312zm5.387 5.026c0 2.062 1.389 3.637 3.451 3.637 1.26 0 2.005-.516 2.535-1.203l-.716-.659c-.458.616-1.045.902-1.761.902-1.475 0-2.392-1.145-2.392-2.677 0-1.533.917-2.664 2.392-2.664.716 0 1.303.272 1.761.902l.716-.658c-.53-.688-1.275-1.203-2.535-1.203-2.062 0-3.451 1.575-3.451 3.623zm9.238 3.637c.63 0 1.017-.186 1.289-.444l-.315-.802c-.143.158-.43.286-.73.286-.473 0-.702-.372-.702-.887v-4.296h1.403v-.945h-1.403v-1.89h-1.074v1.89h-1.146v.945h1.146v4.525c0 1.031.515 1.618 1.532 1.618zm2.992-8.248c.401 0 .73-.33.73-.73a.72.72 0 0 0-.73-.716.718.718 0 0 0-.716.716c0 .4.329.73.716.73zm-.53 8.076h1.074v-6.916h-1.074v6.916zm5.064 0h1.174l2.878-6.916h-1.174l-2.291 5.67-2.306-5.67h-1.159l2.878 6.916zm5.702-8.076c.401 0 .731-.33.731-.73a.722.722 0 0 0-.731-.716.718.718 0 0 0-.716.716c0 .4.33.73.716.73zm-.53 8.076h1.074v-6.916h-1.074v6.916zm4.964.172c.63 0 1.016-.186 1.288-.444l-.315-.802c-.143.158-.429.286-.73.286-.472 0-.701-.372-.701-.887v-4.296h1.403v-.945h-1.403v-1.89h-1.074v1.89h-1.146v.945h1.146v4.525c0 1.031.515 1.618 1.532 1.618zm2.247 1.561l-.172.973c.201.058.559.101.788.101.916-.015 1.618-.401 2.033-1.404l3.466-8.319h-1.175l-2.291 5.67-2.305-5.67h-1.16l2.892 6.988-.458 1.045c-.243.573-.558.73-1.031.73a1.66 1.66 0 0 1-.587-.114zm14.074-1.796a.451.451 0 0 0 .718 0l2.722-3.514c.24-.311.026-.771-.359-.771h-2.086v-4.525c0-.309-.284-.558-.636-.558-.351 0-.636.249-.636.558v4.525h-2.085c-.386 0-.6.46-.359.771l2.721 3.514z" fill="#2F354D"/><circle cx="143.457" cy="273.866" r="12.728" fill="#FFE6E6"/><path fill-rule="evenodd" clip-rule="evenodd" d="M143.457 282.219c-.659 0-1.193-.701-1.193-1.566v-13.574c0-.865.534-1.566 1.193-1.566s1.193.701 1.193 1.566v13.574c0 .865-.534 1.566-1.193 1.566z" fill="#FF5B5B"/><path opacity=".3" fill-rule="evenodd" clip-rule="evenodd" d="M139.081 282.219c-.659 0-1.193-.701-1.193-1.566v-8.005c0-.865.534-1.567 1.193-1.567.66 0 1.194.702 1.194 1.567v8.005c0 .865-.534 1.566-1.194 1.566zm8.751 0c-.659 0-1.193-.701-1.193-1.566v-4.823c0-.865.534-1.566 1.193-1.566s1.194.701 1.194 1.566v4.823c0 .865-.535 1.566-1.194 1.566z" fill="#FF5B5B"/><rect x="100" y="185" width="4" height="48" rx="2" fill="#FF5B5B"/><rect x="296" y="185" width="4" height="48" rx="2" fill="#FF5B5B"/><rect x="148" y="185" width="4" height="48" rx="2" fill="#FF5B5B"/><rect x="107" y="185" width="4" height="48" rx="2" fill="#FF5B5B"/><rect x="357" y="185" width="4" height="48" rx="2" fill="#F0BB35"/><rect x="363" y="185" width="4" height="48" rx="2" fill="#F0BB35"/><rect x="418" y="185" width="4" height="48" rx="2" fill="#FF5B5B"/><rect x="455" y="185" width="4" height="48" rx="2" fill="#FF5B5B"/></g><defs><filter id="filter0_f" x="95.725" y="218.974" width="294.345" height="136.035" filterUnits="userSpaceOnUse" color-interpolation-filters="sRGB"><feFlood flood-opacity="0" result="BackgroundImageFix"/><feBlend in="SourceGraphic" in2="BackgroundImageFix" result="shape"/><feGaussianBlur stdDeviation="23.866" result="effect1_foregroundBlur"/></filter><filter id="filter1_d" x="86.179" y="226.134" width="312.642" height="111.374" filterUnits="userSpaceOnUse" color-interpolation-filters="sRGB"><feFlood flood-opacity="0" result="BackgroundImageFix"/><feColorMatrix in="SourceAlpha" values="0 0 0 0 0 0 0 0 0 0 0 0 0 0 0 0 0 0 127 0"/><feOffset dy="7.955"/><feGaussianBlur stdDeviation="15.911"/><feColorMatrix values="0 0 0 0 0.476616 0 0 0 0 0.521707 0 0 0 0 0.620087 0 0 0 0.06 0"/><feBlend in2="BackgroundImageFix" result="effect1_dropShadow"/><feBlend in="SourceGraphic" in2="effect1_dropShadow" result="shape"/></filter></defs></svg>