<svg width="484" height="324" fill="none" xmlns="http://www.w3.org/2000/svg"><rect x=".5" y=".5" width="483" height="323" rx="3.5" fill="#fff" stroke="#E7EAF3"/><mask id="a" maskUnits="userSpaceOnUse" x="0" y="0" width="484" height="324"><rect x=".5" y=".5" width="483" height="323" rx="3.5" fill="#fff" stroke="#E7EAF3"/></mask><g mask="url(#a)"><path d="M48.9 310h5.485v-1.236h-4.08v-2.22H54.3v-1.236h-3.996v-2.076h4.08v-1.236H48.9V310zm8.63.144c.589 0 .96-.156 1.189-.372l-.3-.948c-.096.108-.324.204-.564.204-.36 0-.552-.288-.552-.684v-3.036h1.176v-1.104h-1.176v-1.584h-1.26v1.584h-.96v1.104h.96v3.348c0 .96.516 1.488 1.488 1.488zm6.017-.144h1.26v-4.104c0-1.188-.624-1.836-1.872-1.836a2.77 2.77 0 0 0-2.052.936v-3h-1.26V310h1.26v-4.044c.3-.396.852-.78 1.488-.78.708 0 1.176.276 1.176 1.176V310zm2.536-2.904c0 1.836 1.296 3.048 3.036 3.048.924 0 1.776-.288 2.352-.84l-.576-.828c-.408.408-1.08.636-1.644.636-1.092 0-1.752-.72-1.848-1.596h4.476v-.3c0-1.824-1.116-3.156-2.856-3.156-1.716 0-2.94 1.356-2.94 3.036zm2.94-2.004c1.14 0 1.608.852 1.632 1.536h-3.264c.06-.708.552-1.536 1.632-1.536zm4.1 4.908h1.26v-3.948c.252-.408.96-.768 1.488-.768.156 0 .288.012.396.036v-1.248c-.756 0-1.452.432-1.884.984v-.852h-1.26V310zm3.8-2.904c0 1.836 1.296 3.048 3.036 3.048.924 0 1.776-.288 2.352-.84l-.576-.828c-.408.408-1.08.636-1.644.636-1.092 0-1.752-.72-1.848-1.596h4.476v-.3c0-1.824-1.116-3.156-2.856-3.156-1.716 0-2.94 1.356-2.94 3.036zm2.94-2.004c1.14 0 1.608.852 1.632 1.536H78.23c.06-.708.552-1.536 1.632-1.536zM87.874 310h1.26v-5.796h-1.26v4.068c-.3.396-.852.756-1.487.756-.709 0-1.165-.276-1.165-1.176v-3.648h-1.26v4.104c0 1.188.612 1.836 1.86 1.836.912 0 1.632-.444 2.052-.912V310zm10.001 0h1.26v-4.188c0-1.176-.6-1.752-1.668-1.752-.864 0-1.632.54-1.968 1.068-.192-.636-.72-1.068-1.584-1.068-.876 0-1.644.576-1.884.936v-.792h-1.26V310h1.26v-4.044c.264-.384.78-.78 1.332-.78.684 0 .96.42.96 1.044V310h1.26v-4.056c.252-.372.78-.768 1.344-.768.672 0 .948.42.948 1.044V310zm51.237 0h1.404v-8.004h-1.98l-2.184 5.388-2.172-5.388h-1.98V310h1.404v-6.06l2.448 6.06h.6l2.46-6.06V310zm6.611 0h1.26v-3.84c0-1.56-1.128-2.1-2.412-2.1-.924 0-1.764.3-2.436.936l.516.876c.504-.492 1.068-.732 1.716-.732.804 0 1.356.408 1.356 1.08v.864c-.42-.492-1.092-.744-1.872-.744-.948 0-2.016.552-2.016 1.884 0 1.284 1.068 1.92 2.016 1.92.768 0 1.44-.276 1.872-.768V310zm0-1.32c-.288.396-.828.6-1.38.6-.708 0-1.236-.408-1.236-1.032 0-.636.528-1.044 1.236-1.044.552 0 1.092.204 1.38.6v.876zm6.734 1.32h1.584l-2.46-3.168 2.412-2.628h-1.56L159.877 307v-5.004h-1.26V310h1.26v-1.56l.804-.828 1.776 2.388zm1.812-2.904c0 1.836 1.296 3.048 3.036 3.048.924 0 1.776-.288 2.352-.84l-.576-.828c-.408.408-1.08.636-1.644.636-1.092 0-1.752-.72-1.848-1.596h4.476v-.3c0-1.824-1.116-3.156-2.856-3.156-1.716 0-2.94 1.356-2.94 3.036zm2.94-2.004c1.14 0 1.608.852 1.632 1.536h-3.265c.061-.708.553-1.536 1.633-1.536zm4.099 4.908h1.26v-3.948c.252-.408.96-.768 1.488-.768.156 0 .288.012.396.036v-1.248c-.756 0-1.452.432-1.884.984v-.852h-1.26V310zm60.546 0h4.044c1.5 0 2.328-.924 2.328-2.16 0-.984-.696-1.836-1.548-1.968.744-.156 1.392-.828 1.392-1.836 0-1.128-.816-2.04-2.28-2.04h-3.936V310zm1.404-4.692v-2.076h2.244c.72 0 1.128.444 1.128 1.044 0 .6-.408 1.032-1.128 1.032h-2.244zm0 3.456v-2.22h2.304c.804 0 1.224.504 1.224 1.104 0 .696-.456 1.116-1.224 1.116h-2.304zM245.299 310h1.536l-3.144-8.004h-1.752L238.795 310h1.536l.588-1.536h3.792l.588 1.536zm-2.484-6.816l1.5 4.044h-3l1.5-4.044zm6.017 6.816h1.404v-6.768h2.424v-1.236h-6.252v1.236h2.424V310zm70.986-3.996c0 2.016.96 4.14 3.204 4.14s3.204-2.124 3.204-4.14c0-2.016-.96-4.128-3.204-4.128s-3.204 2.112-3.204 4.128zm4.98 0c0 1.524-.468 2.892-1.776 2.892s-1.776-1.368-1.776-2.892c0-1.524.468-2.88 1.776-2.88s1.776 1.356 1.776 2.88zm6.399 3.996h1.416l-2.136-2.976 2.004-2.82h-1.416l-1.368 1.968-1.38-1.968h-1.416l2.004 2.82-2.124 2.976h1.404l1.512-2.136 1.5 2.136zm68.65 0h1.728l-3.492-4.224 3.252-3.78h-1.74l-3.132 3.816v-3.816h-1.404V310h1.404v-2.556l.696-.816 2.688 3.372zm1.854 1.14l-.192 1.128c.18.048.528.084.708.084.9-.012 1.596-.324 1.992-1.308l2.796-6.84h-1.356l-1.692 4.344-1.692-4.344h-1.344l2.376 5.868-.288.66c-.168.384-.432.504-.828.504-.144 0-.348-.036-.48-.096zm6.095-1.14h1.26v-.792c.444.576 1.104.936 1.86.936 1.476 0 2.568-1.128 2.568-3.036 0-1.872-1.08-3.048-2.568-3.048-.732 0-1.404.336-1.86.948v-3.012h-1.26V310zm1.26-1.74v-2.292c.276-.432.9-.792 1.488-.792 1.008 0 1.644.804 1.644 1.932s-.636 1.92-1.644 1.92c-.588 0-1.212-.336-1.488-.768zm5.353-1.164c0 1.836 1.296 3.048 3.036 3.048.924 0 1.776-.288 2.352-.84l-.576-.828c-.408.408-1.08.636-1.644.636-1.092 0-1.752-.72-1.848-1.596h4.476v-.3c0-1.824-1.116-3.156-2.856-3.156-1.716 0-2.94 1.356-2.94 3.036zm2.94-2.004c1.14 0 1.608.852 1.632 1.536h-3.264c.06-.708.552-1.536 1.632-1.536zm4.1 4.908h1.26v-3.948c.252-.408.96-.768 1.488-.768.156 0 .288.012.396.036v-1.248c-.756 0-1.452.432-1.884.984v-.852h-1.26V310z" fill="#9FAAC4"/><path fill="#F9FAFC" d="M1 286h482v2H1zm0-83h482v2H1zm0-83h482v2H1zm0-83h482v2H1z"/><g opacity=".3"><rect x="54" y="171.429" width="4" height="116.571" rx="2" fill="#5275FF"/><rect x="66" y="159.771" width="4" height="128.229" rx="2" fill="#FF5B5B"/><rect x="78" y="152" width="4" height="136" rx="2" fill="#FFAD4D"/><rect x="90" y="159.771" width="4" height="128.229" rx="2" fill="#26C953"/></g><g opacity=".3"><rect x="138" y="182.571" width="4" height="105.429" rx="2" fill="#5275FF"/><rect x="150" y="172.029" width="4" height="115.971" rx="2" fill="#FF5B5B"/><rect x="162" y="165" width="4" height="123" rx="2" fill="#FFAD4D"/><rect x="174" y="172.029" width="4" height="115.971" rx="2" fill="#26C953"/></g><g opacity=".3"><rect x="222" y="228" width="4" height="60" rx="2" fill="#5275FF"/><rect x="234" y="222" width="4" height="66" rx="2" fill="#FF5B5B"/><rect x="246" y="218" width="4" height="70" rx="2" fill="#FFAD4D"/><rect x="258" y="222" width="4" height="66" rx="2" fill="#26C953"/></g><rect x="306" y="126" width="4" height="162" rx="2" fill="#5275FF"/><rect x="318" y="109.8" width="4" height="178.2" rx="2" fill="#FF5B5B"/><rect x="330" y="99" width="4" height="189" rx="2" fill="#FFAD4D"/><rect x="342" y="109.8" width="4" height="178.2" rx="2" fill="#26C953"/><path d="M306.701 85.908c.648.768 1.596 1.236 2.976 1.236 1.788 0 3.048-1.044 3.048-2.712 0-1.632-1.212-2.58-2.556-2.58-.768 0-1.428.312-1.812.696v-2.316h3.84v-1.236h-5.244v4.476l.996.288c.504-.48 1.068-.696 1.752-.696.984 0 1.608.564 1.608 1.428 0 .78-.636 1.404-1.644 1.404-.9 0-1.62-.336-2.16-.948l-.804.96zM314.677 87h1.536l3.108-7.032v-.972h-5.772v1.236h4.152L314.677 87zm4.422-.708c0 .456.384.84.84.84a.85.85 0 0 0 .84-.84.85.85 0 0 0-.84-.84.85.85 0 0 0-.84.84zm3.205-.048c.54.54 1.308.888 2.292.888 2.316 0 3.528-1.824 3.528-4.128 0-2.232-.948-4.14-3.3-4.14-1.788 0-2.952 1.212-2.952 2.688 0 1.704 1.248 2.592 2.688 2.592.936 0 1.776-.588 2.148-1.128v.24c0 1.308-.66 2.628-2.112 2.628-.756 0-1.224-.264-1.644-.696l-.648 1.056zm4.38-4.248a2.164 2.164 0 0 1-1.752.936c-.864 0-1.632-.444-1.632-1.428 0-.636.552-1.392 1.596-1.392 1.236 0 1.716 1.02 1.788 1.884zm2.431 1.008c0 2.016.96 4.14 3.204 4.14s3.204-2.124 3.204-4.14c0-2.016-.96-4.128-3.204-4.128s-3.204 2.112-3.204 4.128zm4.98 0c0 1.524-.468 2.892-1.776 2.892s-1.776-1.368-1.776-2.892c0-1.524.468-2.88 1.776-2.88s1.776 1.356 1.776 2.88zm2.259-2.124c0 1.116.792 1.968 1.98 1.968 1.2 0 2.004-.852 2.004-1.968 0-1.128-.804-2.004-2.004-2.004-1.188 0-1.98.876-1.98 2.004zm1.212 6.12h.792l5.124-8.004h-.804L337.566 87zm1.836-6.12c0 .684-.444 1.176-1.068 1.176-.612 0-1.056-.492-1.056-1.176 0-.72.444-1.2 1.056-1.2.624 0 1.068.48 1.068 1.2zm1.26 4.296c0 1.116.792 1.968 1.98 1.968s1.992-.852 1.992-1.968c0-1.128-.804-2.004-1.992-2.004s-1.98.876-1.98 2.004zm3.048 0c0 .696-.444 1.176-1.068 1.176-.624 0-1.056-.48-1.056-1.176 0-.72.432-1.2 1.056-1.2.624 0 1.068.48 1.068 1.2z" fill="#26C953"/><g opacity=".3"><rect x="390" y="164.571" width="4" height="123.429" rx="2" fill="#5275FF"/><rect x="402" y="152.229" width="4" height="135.771" rx="2" fill="#FF5B5B"/><rect x="414" y="144" width="4" height="144" rx="2" fill="#FFAD4D"/><rect x="426" y="152.229" width="4" height="135.771" rx="2" fill="#26C953"/></g><g opacity=".15" filter="url(#filter0_f)"><rect x="28" y="33" width="101" height="28" rx="6.222" fill="#7A859E"/></g><g filter="url(#filter1_d)"><rect x="20" y="24" width="117" height="32" rx="16" fill="#fff"/><rect x="20.389" y="24.389" width="116.222" height="31.222" rx="15.611" stroke="#F1F3F9" stroke-width=".778"/></g><path d="M54.312 42.836c.516.72 1.548 1.308 2.94 1.308 1.812 0 2.928-.972 2.928-2.316 0-1.26-1.104-1.884-1.86-1.956.792-.144 1.74-.732 1.74-1.848 0-1.344-1.176-2.148-2.808-2.148-1.284 0-2.232.54-2.832 1.248l.636.744c.588-.6 1.248-.924 2.088-.924.948 0 1.716.432 1.716 1.248 0 .828-.792 1.188-1.764 1.188-.312 0-.732 0-.864-.012v1.092c.12-.012.54-.012.864-.012 1.164 0 1.884.372 1.884 1.26 0 .84-.66 1.368-1.764 1.368-.9 0-1.728-.408-2.232-1.02l-.672.78zM69.771 44h1.116l1.824-5.796h-1.128l-1.32 4.416-1.452-4.416h-.936l-1.452 4.416-1.32-4.416h-1.128L65.799 44h1.116l1.428-4.452L69.77 44zm3.542-2.904c0 1.824 1.272 3.048 3 3.048.936 0 1.752-.3 2.328-.864l-.504-.708c-.432.444-1.104.684-1.716.684-1.164 0-1.884-.816-1.968-1.8h4.584v-.264c0-1.776-1.08-3.132-2.82-3.132-1.692 0-2.904 1.356-2.904 3.036zm2.904-2.148c1.224 0 1.74.96 1.764 1.728h-3.54c.06-.792.612-1.728 1.776-1.728zm3.81 2.148c0 1.824 1.272 3.048 3 3.048.936 0 1.752-.3 2.328-.864l-.504-.708c-.432.444-1.104.684-1.716.684-1.164 0-1.884-.816-1.968-1.8h4.584v-.264c0-1.776-1.08-3.132-2.82-3.132-1.692 0-2.904 1.356-2.904 3.036zm2.904-2.148c1.224 0 1.74.96 1.764 1.728h-3.54c.06-.792.612-1.728 1.776-1.728zM90.991 44h1.367l-2.52-3.168 2.496-2.628h-1.356l-2.796 2.94v-5.148h-1.08V44h1.08v-1.608l.876-.888L90.99 44zm1.748-.756c.588.6 1.44.9 2.412.9 1.524 0 2.34-.78 2.34-1.776 0-1.332-1.2-1.608-2.208-1.836-.72-.168-1.344-.336-1.344-.84 0-.468.456-.756 1.188-.756s1.38.3 1.716.708l.48-.756c-.492-.468-1.212-.828-2.208-.828-1.416 0-2.208.792-2.208 1.716 0 1.248 1.152 1.512 2.136 1.74.744.168 1.404.36 1.404.936 0 .492-.432.828-1.248.828-.78 0-1.548-.396-1.944-.828l-.516.792zm12.787.756h1.08v-3.912c0-1.476-1.068-2.028-2.328-2.028-.936 0-1.728.312-2.376.948l.468.744c.516-.516 1.08-.768 1.74-.768.828 0 1.416.432 1.416 1.152v.96c-.444-.516-1.116-.768-1.896-.768-.972 0-2.016.576-2.016 1.896 0 1.272 1.056 1.92 2.016 1.92.78 0 1.44-.276 1.896-.78V44zm0-1.272c-.324.432-.888.66-1.488.66-.78 0-1.332-.468-1.332-1.152 0-.684.552-1.152 1.332-1.152.6 0 1.164.228 1.488.66v.984zm2.763 2.76c.696.66 1.404.864 2.376.864 1.428 0 2.88-.588 2.88-2.58v-5.568h-1.08v.84c-.468-.624-1.152-.984-1.908-.984-1.5 0-2.58 1.128-2.58 2.988 0 1.896 1.08 3 2.58 3 .78 0 1.464-.42 1.908-.996v.756c0 1.224-.9 1.656-1.8 1.656-.792 0-1.38-.216-1.86-.768l-.516.792zm4.176-3.264c-.3.468-.96.864-1.608.864-1.08 0-1.752-.84-1.752-2.04 0-1.188.672-2.028 1.752-2.028.648 0 1.308.384 1.608.852v2.352zm5.365 1.92c1.812 0 2.928-1.368 2.928-3.048 0-1.668-1.116-3.036-2.928-3.036-1.8 0-2.928 1.368-2.928 3.036 0 1.68 1.128 3.048 2.928 3.048zm0-.96c-1.152 0-1.8-.984-1.8-2.088 0-1.092.648-2.076 1.8-2.076 1.164 0 1.8.984 1.8 2.076 0 1.104-.636 2.088-1.8 2.088z" fill="#2F354D"/><circle cx="38" cy="40" r="10" fill="#DAE0FD"/><circle cx="38" cy="40" r="4" fill="#5275FF"/><g opacity=".15" filter="url(#filter2_f)"><rect x="153" y="33" width="101" height="28" rx="6.222" fill="#7A859E"/></g><g filter="url(#filter3_d)"><rect x="145" y="24" width="117" height="32" rx="16" fill="#fff"/><rect x="145.389" y="24.389" width="116.222" height="31.222" rx="15.611" stroke="#F1F3F9" stroke-width=".778"/></g><path d="M179.624 44h5.64v-1.056h-3.732c2.196-1.692 3.696-3.096 3.696-4.656 0-1.596-1.356-2.412-2.796-2.412-1.116 0-2.208.444-2.868 1.272l.708.78c.492-.588 1.224-.984 2.172-.984.78 0 1.56.408 1.56 1.344 0 1.26-1.38 2.46-4.38 4.764V44zm15.452 0h1.116l1.824-5.796h-1.128l-1.32 4.416-1.452-4.416h-.936l-1.452 4.416-1.32-4.416h-1.128L191.104 44h1.116l1.428-4.452L195.076 44zm3.541-2.904c0 1.824 1.272 3.048 3 3.048.936 0 1.752-.3 2.328-.864l-.504-.708c-.432.444-1.104.684-1.716.684-1.164 0-1.884-.816-1.968-1.8h4.584v-.264c0-1.776-1.08-3.132-2.82-3.132-1.692 0-2.904 1.356-2.904 3.036zm2.904-2.148c1.224 0 1.74.96 1.764 1.728h-3.54c.06-.792.612-1.728 1.776-1.728zm3.811 2.148c0 1.824 1.272 3.048 3 3.048.936 0 1.752-.3 2.328-.864l-.504-.708c-.432.444-1.104.684-1.716.684-1.164 0-1.884-.816-1.968-1.8h4.584v-.264c0-1.776-1.08-3.132-2.82-3.132-1.692 0-2.904 1.356-2.904 3.036zm2.904-2.148c1.224 0 1.74.96 1.764 1.728h-3.54c.06-.792.612-1.728 1.776-1.728zM216.295 44h1.368l-2.52-3.168 2.496-2.628h-1.356l-2.796 2.94v-5.148h-1.08V44h1.08v-1.608l.876-.888L216.295 44zm1.749-.756c.588.6 1.44.9 2.412.9 1.524 0 2.34-.78 2.34-1.776 0-1.332-1.2-1.608-2.208-1.836-.72-.168-1.344-.336-1.344-.84 0-.468.456-.756 1.188-.756s1.38.3 1.716.708l.48-.756c-.492-.468-1.212-.828-2.208-.828-1.416 0-2.208.792-2.208 1.716 0 1.248 1.152 1.512 2.136 1.74.744.168 1.404.36 1.404.936 0 .492-.432.828-1.248.828-.78 0-1.548-.396-1.944-.828l-.516.792zm12.787.756h1.08v-3.912c0-1.476-1.068-2.028-2.328-2.028-.936 0-1.728.312-2.376.948l.468.744c.516-.516 1.08-.768 1.74-.768.828 0 1.416.432 1.416 1.152v.96c-.444-.516-1.116-.768-1.896-.768-.972 0-2.016.576-2.016 1.896 0 1.272 1.056 1.92 2.016 1.92.78 0 1.44-.276 1.896-.78V44zm0-1.272c-.324.432-.888.66-1.488.66-.78 0-1.332-.468-1.332-1.152 0-.684.552-1.152 1.332-1.152.6 0 1.164.228 1.488.66v.984zm2.762 2.76c.696.66 1.404.864 2.376.864 1.428 0 2.88-.588 2.88-2.58v-5.568h-1.08v.84c-.468-.624-1.152-.984-1.908-.984-1.5 0-2.58 1.128-2.58 2.988 0 1.896 1.08 3 2.58 3 .78 0 1.464-.42 1.908-.996v.756c0 1.224-.9 1.656-1.8 1.656-.792 0-1.38-.216-1.86-.768l-.516.792zm4.176-3.264c-.3.468-.96.864-1.608.864-1.08 0-1.752-.84-1.752-2.04 0-1.188.672-2.028 1.752-2.028.648 0 1.308.384 1.608.852v2.352zm5.366 1.92c1.812 0 2.928-1.368 2.928-3.048 0-1.668-1.116-3.036-2.928-3.036-1.8 0-2.928 1.368-2.928 3.036 0 1.68 1.128 3.048 2.928 3.048zm0-.96c-1.152 0-1.8-.984-1.8-2.088 0-1.092.648-2.076 1.8-2.076 1.164 0 1.8.984 1.8 2.076 0 1.104-.636 2.088-1.8 2.088z" fill="#2F354D"/><circle cx="163" cy="40" r="10" fill="#FFE6E6"/><circle cx="163" cy="40" r="4" fill="#FF5B5B"/><g opacity=".15" filter="url(#filter4_f)"><rect x="274" y="33" width="93" height="28" rx="6.222" fill="#7A859E"/></g><g filter="url(#filter5_d)"><rect x="270" y="24" width="101" height="32" rx="16" fill="#fff"/><rect x="270.389" y="24.389" width="100.222" height="31.222" rx="15.611" stroke="#F1F3F9" stroke-width=".778"/></g><path d="M311.02 44h1.284l2.28-8.004h-1.344l-1.656 6.42-1.74-6.42h-.972l-1.752 6.42-1.656-6.42h-1.344L306.412 44h1.284l1.656-6.18L311.02 44zm3.714-2.904c0 1.824 1.272 3.048 3 3.048.936 0 1.752-.3 2.328-.864l-.504-.708c-.432.444-1.104.684-1.716.684-1.164 0-1.884-.816-1.968-1.8h4.584v-.264c0-1.776-1.08-3.132-2.82-3.132-1.692 0-2.904 1.356-2.904 3.036zm2.904-2.148c1.224 0 1.74.96 1.764 1.728h-3.54c.06-.792.612-1.728 1.776-1.728zm3.811 2.148c0 1.824 1.272 3.048 3 3.048.936 0 1.752-.3 2.328-.864l-.504-.708c-.432.444-1.104.684-1.716.684-1.164 0-1.884-.816-1.968-1.8h4.584v-.264c0-1.776-1.08-3.132-2.82-3.132-1.692 0-2.904 1.356-2.904 3.036zm2.904-2.148c1.224 0 1.74.96 1.764 1.728h-3.54c.06-.792.612-1.728 1.776-1.728zM332.412 44h1.368l-2.52-3.168 2.496-2.628H332.4l-2.796 2.94v-5.148h-1.08V44h1.08v-1.608l.876-.888L332.412 44zm9.016 0h1.08v-3.912c0-1.476-1.068-2.028-2.328-2.028-.936 0-1.728.312-2.376.948l.468.744c.516-.516 1.08-.768 1.74-.768.828 0 1.416.432 1.416 1.152v.96c-.444-.516-1.116-.768-1.896-.768-.972 0-2.016.576-2.016 1.896 0 1.272 1.056 1.92 2.016 1.92.78 0 1.44-.276 1.896-.78V44zm0-1.272c-.324.432-.888.66-1.488.66-.78 0-1.332-.468-1.332-1.152 0-.684.552-1.152 1.332-1.152.6 0 1.164.228 1.488.66v.984zm2.763 2.76c.696.66 1.404.864 2.376.864 1.428 0 2.88-.588 2.88-2.58v-5.568h-1.08v.84c-.468-.624-1.152-.984-1.908-.984-1.5 0-2.58 1.128-2.58 2.988 0 1.896 1.08 3 2.58 3 .78 0 1.464-.42 1.908-.996v.756c0 1.224-.9 1.656-1.8 1.656-.792 0-1.38-.216-1.86-.768l-.516.792zm4.176-3.264c-.3.468-.96.864-1.608.864-1.08 0-1.752-.84-1.752-2.04 0-1.188.672-2.028 1.752-2.028.648 0 1.308.384 1.608.852v2.352zm5.366 1.92c1.812 0 2.928-1.368 2.928-3.048 0-1.668-1.116-3.036-2.928-3.036-1.8 0-2.928 1.368-2.928 3.036 0 1.68 1.128 3.048 2.928 3.048zm0-.96c-1.152 0-1.8-.984-1.8-2.088 0-1.092.648-2.076 1.8-2.076 1.164 0 1.8.984 1.8 2.076 0 1.104-.636 2.088-1.8 2.088z" fill="#2F354D"/><circle cx="288" cy="40" r="10" fill="#FFF3E4"/><circle cx="288" cy="40" r="4" fill="#FFAD4D"/><g opacity=".15" filter="url(#filter6_f)"><rect x="387" y="33" width="69" height="28" rx="6.222" fill="#7A859E"/></g><g filter="url(#filter7_d)"><rect x="379" y="24" width="85" height="32" rx="16" fill="#fff"/><rect x="379.389" y="24.389" width="84.222" height="31.222" rx="15.611" stroke="#F1F3F9" stroke-width=".778"/></g><path d="M415.844 44h1.2v-6.948h2.472v-1.056h-6.156v1.056h2.484V44zm6.143.144c1.812 0 2.928-1.368 2.928-3.048 0-1.668-1.116-3.036-2.928-3.036-1.8 0-2.928 1.368-2.928 3.036 0 1.68 1.128 3.048 2.928 3.048zm0-.96c-1.152 0-1.8-.984-1.8-2.088 0-1.092.648-2.076 1.8-2.076 1.164 0 1.8.984 1.8 2.076 0 1.104-.636 2.088-1.8 2.088zm8.427.816h1.08v-8.004h-1.08v3.048c-.468-.624-1.152-.984-1.896-.984-1.512 0-2.592 1.188-2.592 3.048 0 1.896 1.08 3.036 2.592 3.036.768 0 1.464-.396 1.896-.972V44zm0-1.656c-.3.468-.948.84-1.608.84-1.08 0-1.752-.876-1.752-2.076 0-1.212.672-2.088 1.752-2.088.66 0 1.308.384 1.608.852v2.472zM436.799 44h1.08v-3.912c0-1.476-1.068-2.028-2.328-2.028-.936 0-1.728.312-2.376.948l.468.744c.516-.516 1.08-.768 1.74-.768.828 0 1.416.432 1.416 1.152v.96c-.444-.516-1.116-.768-1.896-.768-.972 0-2.016.576-2.016 1.896 0 1.272 1.056 1.92 2.016 1.92.78 0 1.44-.276 1.896-.78V44zm0-1.272c-.324.432-.888.66-1.488.66-.78 0-1.332-.468-1.332-1.152 0-.684.552-1.152 1.332-1.152.6 0 1.164.228 1.488.66v.984zm2.691 2.568l-.168.972c.168.048.492.084.672.084.84-.012 1.476-.336 1.848-1.248l2.856-6.9h-1.164l-1.812 4.548-1.812-4.548h-1.152l2.388 5.856-.336.768c-.18.432-.444.564-.84.564-.144 0-.348-.036-.48-.096z" fill="#2F354D"/><circle cx="397" cy="40" r="10" fill="#D6F6D6"/><circle cx="397" cy="40" r="4" fill="#26C953"/></g><defs><filter id="filter0_f" x="-18.667" y="-13.667" width="194.333" height="121.333" filterUnits="userSpaceOnUse" color-interpolation-filters="sRGB"><feFlood flood-opacity="0" result="BackgroundImageFix"/><feBlend in="SourceGraphic" in2="BackgroundImageFix" result="shape"/><feGaussianBlur stdDeviation="23.333" result="effect1_foregroundBlur"/></filter><filter id="filter1_d" x="-11.111" y=".667" width="179.222" height="94.222" filterUnits="userSpaceOnUse" color-interpolation-filters="sRGB"><feFlood flood-opacity="0" result="BackgroundImageFix"/><feColorMatrix in="SourceAlpha" values="0 0 0 0 0 0 0 0 0 0 0 0 0 0 0 0 0 0 127 0"/><feOffset dy="7.778"/><feGaussianBlur stdDeviation="15.556"/><feColorMatrix values="0 0 0 0 0.476616 0 0 0 0 0.521707 0 0 0 0 0.620087 0 0 0 0.06 0"/><feBlend in2="BackgroundImageFix" result="effect1_dropShadow"/><feBlend in="SourceGraphic" in2="effect1_dropShadow" result="shape"/></filter><filter id="filter2_f" x="106.333" y="-13.667" width="194.333" height="121.333" filterUnits="userSpaceOnUse" color-interpolation-filters="sRGB"><feFlood flood-opacity="0" result="BackgroundImageFix"/><feBlend in="SourceGraphic" in2="BackgroundImageFix" result="shape"/><feGaussianBlur stdDeviation="23.333" result="effect1_foregroundBlur"/></filter><filter id="filter3_d" x="113.889" y=".667" width="179.222" height="94.222" filterUnits="userSpaceOnUse" color-interpolation-filters="sRGB"><feFlood flood-opacity="0" result="BackgroundImageFix"/><feColorMatrix in="SourceAlpha" values="0 0 0 0 0 0 0 0 0 0 0 0 0 0 0 0 0 0 127 0"/><feOffset dy="7.778"/><feGaussianBlur stdDeviation="15.556"/><feColorMatrix values="0 0 0 0 0.476616 0 0 0 0 0.521707 0 0 0 0 0.620087 0 0 0 0.06 0"/><feBlend in2="BackgroundImageFix" result="effect1_dropShadow"/><feBlend in="SourceGraphic" in2="effect1_dropShadow" result="shape"/></filter><filter id="filter4_f" x="227.333" y="-13.667" width="186.333" height="121.333" filterUnits="userSpaceOnUse" color-interpolation-filters="sRGB"><feFlood flood-opacity="0" result="BackgroundImageFix"/><feBlend in="SourceGraphic" in2="BackgroundImageFix" result="shape"/><feGaussianBlur stdDeviation="23.333" result="effect1_foregroundBlur"/></filter><filter id="filter5_d" x="238.889" y=".667" width="163.222" height="94.222" filterUnits="userSpaceOnUse" color-interpolation-filters="sRGB"><feFlood flood-opacity="0" result="BackgroundImageFix"/><feColorMatrix in="SourceAlpha" values="0 0 0 0 0 0 0 0 0 0 0 0 0 0 0 0 0 0 127 0"/><feOffset dy="7.778"/><feGaussianBlur stdDeviation="15.556"/><feColorMatrix values="0 0 0 0 0.476616 0 0 0 0 0.521707 0 0 0 0 0.620087 0 0 0 0.06 0"/><feBlend in2="BackgroundImageFix" result="effect1_dropShadow"/><feBlend in="SourceGraphic" in2="effect1_dropShadow" result="shape"/></filter><filter id="filter6_f" x="340.333" y="-13.667" width="162.333" height="121.333" filterUnits="userSpaceOnUse" color-interpolation-filters="sRGB"><feFlood flood-opacity="0" result="BackgroundImageFix"/><feBlend in="SourceGraphic" in2="BackgroundImageFix" result="shape"/><feGaussianBlur stdDeviation="23.333" result="effect1_foregroundBlur"/></filter><filter id="filter7_d" x="347.889" y=".667" width="147.222" height="94.222" filterUnits="userSpaceOnUse" color-interpolation-filters="sRGB"><feFlood flood-opacity="0" result="BackgroundImageFix"/><feColorMatrix in="SourceAlpha" values="0 0 0 0 0 0 0 0 0 0 0 0 0 0 0 0 0 0 127 0"/><feOffset dy="7.778"/><feGaussianBlur stdDeviation="15.556"/><feColorMatrix values="0 0 0 0 0.476616 0 0 0 0 0.521707 0 0 0 0 0.620087 0 0 0 0.06 0"/><feBlend in2="BackgroundImageFix" result="effect1_dropShadow"/><feBlend in="SourceGraphic" in2="effect1_dropShadow" result="shape"/></filter></defs></svg>