<svg width="1072" height="184" viewBox="0 0 1072 184" fill="none" xmlns="http://www.w3.org/2000/svg">
  <g opacity="0.5">
    <g clip-path="url(#clip0)">
      <g filter="url(#filter0_d)">
        <rect width="1072" height="184" rx="8" fill="#FFF3E4"/>
      </g>
      <g clip-path="url(#clip1)">
        <rect opacity="0.4" width="3" height="142.945" rx="1.5" transform="matrix(-1 0 0 1 1054 44.7362)" fill="#FFAD4D"/>
        <rect opacity="0.4" width="3" height="124.54" rx="1.5" transform="matrix(-1 0 0 1 1036 63.1411)" fill="#FFAD4D"/>
        <rect opacity="0.4" width="3" height="114.11" rx="1.5" transform="matrix(-1 0 0 1 1018 73.5705)" fill="#FFAD4D"/>
        <rect opacity="0.4" width="3" height="116.564" rx="1.5" transform="matrix(-1 0 0 1 1000 71.1165)" fill="#FFAD4D"/>
        <rect opacity="0.4" width="3" height="113.497" rx="1.5" transform="matrix(-1 0 0 1 982 74.184)" fill="#FFAD4D"/>
        <rect opacity="0.4" width="3" height="142.945" rx="1.5" transform="matrix(-1 0 0 1 964 44.7362)" fill="#FFAD4D"/>
        <rect opacity="0.4" width="3" height="151.534" rx="1.5" transform="matrix(-1 0 0 1 946 36.1472)" fill="#FFAD4D"/>
        <rect opacity="0.4" width="3" height="122.086" rx="1.5" transform="matrix(-1 0 0 1 928 65.5951)" fill="#FFAD4D"/>
        <rect opacity="0.4" width="3" height="51" rx="1.5" transform="matrix(-1 0 0 1 910 137)" fill="#FFAD4D"/>
        <rect opacity="0.4" width="3" height="54" rx="1.5" transform="matrix(-1 0 0 1 892 134)" fill="#FFAD4D"/>
        <rect opacity="0.4" width="3" height="76" rx="1.5" transform="matrix(-1 0 0 1 874 112)" fill="#FFAD4D"/>
        <rect opacity="0.4" width="3" height="49" rx="1.5" transform="matrix(-1 0 0 1 856 139)" fill="#FFAD4D"/>
        <rect opacity="0.6" width="3" height="48" rx="1.5" transform="matrix(-1 0 0 1 838 140)" fill="#FFAD4D"/>
        <rect opacity="0.4" width="3" height="57" rx="1.5" transform="matrix(-1 0 0 1 820 131)" fill="#FFAD4D"/>
        <rect opacity="0.4" width="3" height="44" rx="1.5" transform="matrix(-1 0 0 1 802 144)" fill="#FFAD4D"/>
        <rect opacity="0.4" width="3" height="94" rx="1.5" transform="matrix(-1 0 0 1 784 99)" fill="#FFAD4D"/>
        <rect opacity="0.4" width="3" height="94" rx="1.5" transform="matrix(-1 0 0 1 766 99)" fill="#FFAD4D"/>
        <rect opacity="0.4" width="3" height="67" rx="1.5" transform="matrix(-1 0 0 1 748 130)" fill="#FFAD4D"/>
        <rect opacity="0.4" width="3" height="61" rx="1.5" transform="matrix(-1 0 0 1 730 128)" fill="#FFAD4D"/>
        <rect opacity="0.4" width="3" height="56" rx="1.5" transform="matrix(-1 0 0 1 712 143)" fill="#FFAD4D"/>
        <rect opacity="0.4" width="3" height="51" rx="1.5" transform="matrix(-1 0 0 1 694 148)" fill="#FFAD4D"/>
        <rect opacity="0.4" width="3" height="46" rx="1.5" transform="matrix(-1 0 0 1 676 153)" fill="#FFAD4D"/>
        <rect opacity="0.4" width="3" height="56" rx="1.5" transform="matrix(-1 0 0 1 658 143)" fill="#FFAD4D"/>
        <rect opacity="0.4" width="3" height="53" rx="1.5" transform="matrix(-1 0 0 1 640 146)" fill="#FFAD4D"/>
        <rect opacity="0.4" width="3" height="32" rx="1.5" transform="matrix(-1 0 0 1 622 167)" fill="#FFAD4D"/>
        <rect opacity="0.4" width="3" height="34" rx="1.5" transform="matrix(-1 0 0 1 604 165)" fill="#FFAD4D"/>
        <rect opacity="0.4" width="3" height="28" rx="1.5" transform="matrix(-1 0 0 1 586 171)" fill="#FFAD4D"/>
        <rect opacity="0.4" width="3" height="28" rx="1.5" transform="matrix(-1 0 0 1 568 171)" fill="#FFAD4D"/>
        <rect opacity="0.4" width="3" height="32" rx="1.5" transform="matrix(-1 0 0 1 550 167)" fill="#FFAD4D"/>
        <rect opacity="0.4" width="3" height="28" rx="1.5" transform="matrix(-1 0 0 1 532 171)" fill="#FFAD4D"/>
        <rect opacity="0.4" width="3" height="35" rx="1.5" transform="matrix(-1 0 0 1 514 164)" fill="#FFAD4D"/>
        <rect opacity="0.4" width="3" height="32" rx="1.5" transform="matrix(-1 0 0 1 496 167)" fill="#FFAD4D"/>
        <rect opacity="0.4" width="3" height="28" rx="1.5" transform="matrix(-1 0 0 1 478 171)" fill="#FFAD4D"/>
        <rect opacity="0.4" width="3" height="30" rx="1.5" transform="matrix(-1 0 0 1 460 169)" fill="#FFAD4D"/>
        <rect opacity="0.4" width="3" height="29" rx="1.5" transform="matrix(-1 0 0 1 442 165)" fill="#FFAD4D"/>
        <rect opacity="0.4" width="3" height="26" rx="1.5" transform="matrix(-1 0 0 1 424 168)" fill="#FFAD4D"/>
        <rect opacity="0.4" width="3" height="50" rx="1.5" transform="matrix(-1 0 0 1 406 137)" fill="#FFAD4D"/>
        <rect opacity="0.4" width="3" height="50" rx="1.5" transform="matrix(-1 0 0 1 388 137)" fill="#FFAD4D"/>
        <rect opacity="0.4" width="3" height="49" rx="1.5" transform="matrix(-1 0 0 1 370 149)" fill="#FFAD4D"/>
        <rect opacity="0.4" width="3" height="51" rx="1.5" transform="matrix(-1 0 0 1 352 147)" fill="#FFAD4D"/>
        <rect opacity="0.4" width="3" height="60" rx="1.5" transform="matrix(-1 0 0 1 334 137)" fill="#FFAD4D"/>
        <rect opacity="0.4" width="3" height="79" rx="1.5" transform="matrix(-1 0 0 1 316 136)" fill="#FFAD4D"/>
        <rect opacity="0.4" width="3" height="83" rx="1.5" transform="matrix(-1 0 0 1 298 130)" fill="#FFAD4D"/>
        <rect opacity="0.4" width="3" height="103" rx="1.5" transform="matrix(-1 0 0 1 280 110)" fill="#FFAD4D"/>
        <rect opacity="0.4" width="3" height="68.2353" rx="1.5" transform="matrix(-1 0 0 1 262 145.294)" fill="#FFAD4D"/>
        <rect opacity="0.4" width="3" height="68.2353" rx="1.5" transform="matrix(-1 0 0 1 244 128.294)" fill="#FFAD4D"/>
        <rect opacity="0.4" width="3" height="61.1765" rx="1.5" transform="matrix(-1 0 0 1 226 135.353)" fill="#FFAD4D"/>
        <rect opacity="0.4" width="3" height="83.4356" rx="1.5" transform="matrix(-1 0 0 1 208 113.245)" fill="#FFAD4D"/>
        <rect opacity="0.4" width="3" height="105.521" rx="1.5" transform="matrix(-1 0 0 1 190 91.1595)" fill="#FFAD4D"/>
        <rect opacity="0.4" width="3" height="110.429" rx="1.5" transform="matrix(-1 0 0 1 172 77.2515)" fill="#FFAD4D"/>
        <rect opacity="0.4" width="3" height="103.067" rx="1.5" transform="matrix(-1 0 0 1 154 84.6135)" fill="#FFAD4D"/>
        <rect opacity="0.4" width="3" height="155.215" rx="1.5" transform="matrix(-1 0 0 1 136 32.4662)" fill="#FFAD4D"/>
        <rect opacity="0.4" width="3" height="136.196" rx="1.5" transform="matrix(-1 0 0 1 118 51.4846)" fill="#FFAD4D"/>
        <rect opacity="0.4" width="3" height="114.11" rx="1.5" transform="matrix(-1 0 0 1 100 73.5705)" fill="#FFAD4D"/>
        <rect opacity="0.4" width="3" height="124" rx="1.5" transform="matrix(-1 0 0 1 82 60)" fill="#FFAD4D"/>
        <rect opacity="0.4" width="3" height="141" rx="1.5" transform="matrix(-1 0 0 1 64 43)" fill="#FFAD4D"/>
        <rect opacity="0.4" width="3" height="112" rx="1.5" transform="matrix(-1 0 0 1 46 72)" fill="#FFAD4D"/>
        <rect opacity="0.4" width="3" height="127" rx="1.5" transform="matrix(-1 0 0 1 28 57)" fill="#FFAD4D"/>
      </g>
      <g clip-path="url(#clip2)">
        <rect opacity="0.6" width="3" height="85.2761" rx="1.5" transform="matrix(-1 0 0 1 1054 98.7239)" fill="#FFAD4D"/>
        <rect opacity="0.6" width="3" height="74.1189" rx="1.5" transform="matrix(-1 0 0 1 1036 109.881)" fill="#FFAD4D"/>
        <rect opacity="0.6" width="3" height="67.9119" rx="1.5" transform="matrix(-1 0 0 1 1018 116.088)" fill="#FFAD4D"/>
        <rect opacity="0.6" width="3" height="69.3723" rx="1.5" transform="matrix(-1 0 0 1 1000 114.628)" fill="#FFAD4D"/>
        <rect opacity="0.6" width="3" height="67.5468" rx="1.5" transform="matrix(-1 0 0 1 982 116.453)" fill="#FFAD4D"/>
        <rect opacity="0.6" width="3" height="85.0724" rx="1.5" transform="matrix(-1 0 0 1 964 98.9276)" fill="#FFAD4D"/>
        <rect opacity="0.6" width="3" height="90.1841" rx="1.5" transform="matrix(-1 0 0 1 946 93.816)" fill="#FFAD4D"/>
        <rect opacity="0.6" width="3" height="90.1841" rx="1.5" transform="matrix(-1 0 0 1 928 93.816)" fill="#FFAD4D"/>
        <rect opacity="0.6" width="3" height="30" rx="1.5" transform="matrix(-1 0 0 1 910 156)" fill="#FFAD4D"/>
        <rect opacity="0.6" width="3" height="32" rx="1.5" transform="matrix(-1 0 0 1 892 154)" fill="#FFAD4D"/>
        <rect opacity="0.6" width="3" height="45" rx="1.5" transform="matrix(-1 0 0 1 874 140)" fill="#FFAD4D"/>
        <rect opacity="0.6" width="3" height="41" rx="1.5" transform="matrix(-1 0 0 1 856 144)" fill="#FFAD4D"/>
        <rect opacity="0.4" width="3" height="49" rx="1.5" transform="matrix(-1 0 0 1 838 136)" fill="#FFAD4D"/>
        <rect opacity="0.6" width="3" height="45" rx="1.5" transform="matrix(-1 0 0 1 820 140)" fill="#FFAD4D"/>
        <rect opacity="0.6" width="3" height="31" rx="1.5" transform="matrix(-1 0 0 1 802 154)" fill="#FFAD4D"/>
        <rect opacity="0.6" width="3" height="63" rx="1.5" transform="matrix(-1 0 0 1 784 126)" fill="#FFAD4D"/>
        <rect opacity="0.6" width="3" height="63" rx="1.5" transform="matrix(-1 0 0 1 766 126)" fill="#FFAD4D"/>
        <rect opacity="0.6" width="3" height="41" rx="1.5" transform="matrix(-1 0 0 1 748 152)" fill="#FFAD4D"/>
        <rect opacity="0.6" width="3" height="30" rx="1.5" transform="matrix(-1 0 0 1 730 156)" fill="#FFAD4D"/>
        <rect opacity="0.6" width="3" height="17" rx="1.5" transform="matrix(-1 0 0 1 712 180)" fill="#FFAD4D"/>
        <rect opacity="0.6" width="3" height="16" rx="1.5" transform="matrix(-1 0 0 1 694 181)" fill="#FFAD4D"/>
        <rect opacity="0.6" width="3" height="15" rx="1.5" transform="matrix(-1 0 0 1 676 182)" fill="#FFAD4D"/>
        <rect opacity="0.6" width="3" height="15" rx="1.5" transform="matrix(-1 0 0 1 658 182)" fill="#FFAD4D"/>
        <rect opacity="0.6" width="3" height="15" rx="1.5" transform="matrix(-1 0 0 1 640 182)" fill="#FFAD4D"/>
        <rect opacity="0.6" width="3" height="14" rx="1.5" transform="matrix(-1 0 0 1 622 183)" fill="#FFAD4D"/>
        <rect opacity="0.6" width="3" height="18" rx="1.5" transform="matrix(-1 0 0 1 604 179)" fill="#FFAD4D"/>
        <rect opacity="0.6" width="3" height="14" rx="1.5" transform="matrix(-1 0 0 1 550 183)" fill="#FFAD4D"/>
        <rect opacity="0.6" width="3" height="17" rx="1.5" transform="matrix(-1 0 0 1 532 180)" fill="#FFAD4D"/>
        <rect opacity="0.6" width="3" height="14" rx="1.5" transform="matrix(-1 0 0 1 514 183)" fill="#FFAD4D"/>
        <rect opacity="0.6" width="3" height="16" rx="1.5" transform="matrix(-1 0 0 1 478 181)" fill="#FFAD4D"/>
        <rect opacity="0.6" width="3" height="12" rx="1.5" transform="matrix(-1 0 0 1 442 180)" fill="#FFAD4D"/>
        <rect opacity="0.6" width="3" height="15" rx="1.5" transform="matrix(-1 0 0 1 424 177)" fill="#FFAD4D"/>
        <rect opacity="0.6" width="3" height="24" rx="1.5" transform="matrix(-1 0 0 1 406 168)" fill="#FFAD4D"/>
        <rect opacity="0.6" width="3" height="24" rx="1.5" transform="matrix(-1 0 0 1 388 168)" fill="#FFAD4D"/>
        <rect opacity="0.6" width="3" height="44" rx="1.5" transform="matrix(-1 0 0 1 334 149)" fill="#FFAD4D"/>
        <rect opacity="0.6" width="3" height="32.9412" rx="1.5" transform="matrix(-1 0 0 1 316 179.235)" fill="#FFAD4D"/>
        <rect opacity="0.6" width="3" height="59" rx="1.5" transform="matrix(-1 0 0 1 280 150)" fill="#FFAD4D"/>
        <rect opacity="0.6" width="3" height="40" rx="1.5" transform="matrix(-1 0 0 1 262 171.176)" fill="#FFAD4D"/>
        <rect opacity="0.6" width="3" height="40" rx="1.5" transform="matrix(-1 0 0 1 244 154.176)" fill="#FFAD4D"/>
        <rect opacity="0.6" width="3" height="36.4706" rx="1.5" transform="matrix(-1 0 0 1 226 157.706)" fill="#FFAD4D"/>
        <rect opacity="0.6" width="3" height="49.6932" rx="1.5" transform="matrix(-1 0 0 1 208 143.307)" fill="#FFAD4D"/>
        <rect opacity="0.6" width="3" height="61.9632" rx="1.5" transform="matrix(-1 0 0 1 190 131.037)" fill="#FFAD4D"/>
        <rect opacity="0.6" width="3" height="65.6442" rx="1.5" transform="matrix(-1 0 0 1 172 118.356)" fill="#FFAD4D"/>
        <rect opacity="0.6" width="3" height="61.3497" rx="1.5" transform="matrix(-1 0 0 1 154 122.65)" fill="#FFAD4D"/>
        <rect opacity="0.6" width="3" height="55.8282" rx="1.5" transform="matrix(-1 0 0 1 136 128.172)" fill="#FFAD4D"/>
        <rect opacity="0.6" width="3" height="53.3742" rx="1.5" transform="matrix(-1 0 0 1 118 130.626)" fill="#FFAD4D"/>
        <rect opacity="0.6" width="3" height="40.4908" rx="1.5" transform="matrix(-1 0 0 1 100 143.509)" fill="#FFAD4D"/>
        <rect opacity="0.6" width="3" height="39.2638" rx="1.5" transform="matrix(-1 0 0 1 82 144.736)" fill="#FFAD4D"/>
        <rect opacity="0.6" width="3" height="49.6932" rx="1.5" transform="matrix(-1 0 0 1 64 134.307)" fill="#FFAD4D"/>
        <rect opacity="0.6" width="3" height="34.9693" rx="1.5" transform="matrix(-1 0 0 1 46 149.031)" fill="#FFAD4D"/>
        <rect opacity="0.6" width="3" height="34.9693" rx="1.5" transform="matrix(-1 0 0 1 28 149.031)" fill="#FFAD4D"/>
      </g>
      <circle opacity="0.5" cx="116.5" cy="53" r="9" fill="#FFAD4D"/>
      <circle opacity="0.5" cx="207" cy="114" r="9" fill="#FFAD4D"/>
      <circle opacity="0.5" cx="998.5" cy="72" r="9" fill="#FFAD4D"/>
      <circle cx="116.5" cy="53" r="3" fill="white" stroke="#FFAD4D" stroke-width="2"/>
      <circle cx="207" cy="114" r="3" fill="white" stroke="#FFAD4D" stroke-width="2"/>
      <circle cx="998.5" cy="72" r="3" fill="white" stroke="#FFAD4D" stroke-width="2"/>
    </g>
  </g>
  <defs>
    <filter id="filter0_d" x="-8" y="-4" width="1088" height="200" filterUnits="userSpaceOnUse" color-interpolation-filters="sRGB">
      <feFlood flood-opacity="0" result="BackgroundImageFix"/>
      <feColorMatrix in="SourceAlpha" type="matrix" values="0 0 0 0 0 0 0 0 0 0 0 0 0 0 0 0 0 0 127 0"/>
      <feOffset dy="4"/>
      <feGaussianBlur stdDeviation="4"/>
      <feColorMatrix type="matrix" values="0 0 0 0 0.0941176 0 0 0 0 0.105882 0 0 0 0 0.168627 0 0 0 0.02 0"/>
      <feBlend mode="normal" in2="BackgroundImageFix" result="effect1_dropShadow"/>
      <feBlend mode="normal" in="SourceGraphic" in2="effect1_dropShadow" result="shape"/>
    </filter>
    <clipPath id="clip0">
      <rect width="1072" height="184" fill="white"/>
    </clipPath>
    <clipPath id="clip1">
      <rect width="1408" height="188.957" transform="matrix(-1 0 0 1 1252 -1.27609)" fill="white"/>
    </clipPath>
    <clipPath id="clip2">
      <rect width="1436" height="184.706" transform="matrix(-1 0 0 1 1252 -0.705879)" fill="white"/>
    </clipPath>
  </defs>
</svg>
