<svg width="368" height="231" fill="none" xmlns="http://www.w3.org/2000/svg"><rect x=".5" y=".5" width="367" height="230" rx="3.5" fill="#fff" stroke="#E7EAF3"/><mask id="a" maskUnits="userSpaceOnUse" x="0" y="0" width="368" height="231"><rect x=".5" y=".5" width="367" height="230" rx="3.5" fill="#fff" stroke="#E7EAF3"/></mask><g mask="url(#a)"><rect x="1" y="145" width="366" height="2" rx="1" fill="#F9FAFC"/><rect x="1" y="62" width="366" height="2" rx="1" fill="#F9FAFC"/><path fill="#FF5B5B" fill-opacity=".2" d="M124 48h20v182h-20zm66 0h33v182h-33zm158 0h4v182h-4zM98 48h4v182h-4zm11 0h4v182h-4zm170 0h4v182h-4z"/><path opacity=".5" fill="#FF5B5B" d="M124 48h20v4h-20zm66 0h33v4h-33zm158 0h4v4h-4zM98 48h4v4h-4zm11 0h4v4h-4zm170 0h4v4h-4z"/><path fill="#26C953" fill-opacity=".2" d="M163 48h4v182h-4z"/><path opacity=".5" fill="#26C953" d="M163 99h1v131h-1z"/><path fill="#26C953" fill-opacity=".2" d="M40 49h20v181H40z"/><path opacity=".5" fill="#26C953" d="M40 100h2v130h-2z"/><path opacity=".5" fill="#FF5B5B" d="M98 100h2v130h-2zm250 0h1v130h-1zm-217-9h2v139h-2zm79 58h2v81h-2zm-15-64h2v145h-2zm4 20h2v125h-2zm4 29h2v96h-2zm-68-17h2v113h-2zm79 47h2v66h-2z"/><path fill="#26C953" fill-opacity=".2" d="M303 48h12v182h-12z"/><path opacity=".5" fill="#26C953" d="M310 106h2v124h-2zm-4-20h2v144h-2zm-3-38h12v4h-12z"/><path fill="#26C953" fill-opacity=".2" d="M251 48h22v182h-22z"/><path opacity=".5" fill="#26C953" d="M263 106h2v124h-2zm-4-20h2v144h-2zm-3-12h1v156h-1zm-2 6h1v150h-1zm-2 13h1v137h-1zm-1-45h22v4h-22z"/><path fill="#26C953" fill-opacity=".2" d="M229 48h12v182h-12z"/><path opacity=".5" fill="#26C953" d="M236 106h2v124h-2zm-4-20h2v144h-2zm-3-38h12v4h-12zm-66 0h4v4h-4zM40 49h20v4H40z"/><path d="M367 50h-7l-5.078 13.083L349.397 30l-5.023 27.523-3.014-4.53-5.023 11.946-2.511-2.09-1.005 18.813-4.018-11.497-4.018 16.374-4.019-8.36-4.018 2.09-4.018-2.09-4.019-1.395-4.018.697-4.018-4.877-4.018 5.226-4.019-1.394-4.018 5.923-4.019 38.208-4.018 3.484-4.018-5.226-4.018 3.484-4.019-5.574-4.018-3.136-4.018-5.922-4.019 8.361-4.018-.348-4.018-.349-4.019-3.484-4.018 4.878-4.018 3.135-4.019-1.045-4.018 3.136-4.018-1.742-4.019-2.787-4.018 4.529-4.018 1.742-4.019-2.439-4.018 1.568-4.018 1.567-4.019-3.135-4.018 18.582-4.018-1.146-4.018-1.833-4.019-1.833-4.018-1.834-4.018-1.833-4.019 8.196-4.018-1.833-4.018-1.834-4.019-4.62-4.018-5.831-4.09 2.132-3.947-8.752-4.018-1.833-4.018-2.256-4.019-8.453-4.018 11.588-4.018-1.833-4.019 13.073-4.018 7.482-4.018-14.632-4.019 5.226-4.018 3.135-4.018 8.362-4.019 7.667-4.018-2.346-4.018-7.041-3.957-2.311-4.08-2.382-4.018 8.062-4.018-2.346-3.991 6.018-4.046-2.363-4.018-2.347-4.019-5.489-4.018 17.676-4.018-2.347-4.019-7.477-4.018-5.762-4.018 2.788-4.019-4.066-4.018-5.689-4.04.982-3.997-2.334-4.018-4.305-4.018 6.886-4.019-.082-4.018-4.631L1 125.5" stroke="#2F354D" stroke-width="1.5"/><path d="M367 48.404h-7.566l-4.524 11.364L349.381 26l-5.026 28.093-3.016-4.623-5.026 12.193-2.514-2.133-1.005 19.203-4.021-11.735-4.021 16.713-4.021-8.534-4.021 2.133-4.021-2.133-4.022-1.423-4.021.712-4.021-4.98-4.021 5.335-4.021-1.422-4.021 6.045-4.021 39-4.021 3.557-4.021-5.335-4.021 3.556-4.022-5.689-4.021-3.201-4.021-6.045-4.021 8.534-4.021-.355-4.021-.356-4.021-3.556-4.021 4.979-4.022 3.2-4.021-1.067-4.021 3.201-4.021-1.778-4.021-2.845-4.021 4.623-4.021 1.778-4.021-2.489-4.021 1.6-4.021 1.6-4.022-3.2-4.021 18.966-4.021-1.169-4.021-1.871-4.021-1.871-4.021-1.871-4.021-1.872-4.021 8.366-4.021-1.872-4.021-1.871-4.022-4.715-4.021-5.953-4.093 2.177-3.949-8.934-4.021-1.871-4.021-2.303-4.021-8.628-4.021 11.829-4.021-1.872-4.022 13.344-4.021 7.638-4.021-14.936-4.021 5.334-4.021 3.201-4.021 8.534-4.021 7.827-4.021-2.395-4.021-7.187-3.96-2.359-4.083-2.431-4.02 8.229-4.022-2.395-3.993 6.143-4.05-2.412-4.02-2.396-4.021-5.602L51.317 150l-4.022-2.395-4.02-7.633-4.022-5.881-4.02 2.845-4.022-4.15-4.021-5.807-4.043 1.003-4-2.382-4.02-4.395-4.022 7.029-4.02-.084L3.062 124 1 124.077" stroke="#FF5B5B" stroke-width="1.5"/><path d="M367 46.765h-7.566l-4.524 9.548L349.381 22l-5.026 28.547-3.016-4.698-5.026 12.39-2.514-2.168-1.005 19.512-4.021-11.924-4.021 16.983-4.021-8.672-4.021 2.168-4.021-2.168-4.022-1.445-4.021.722-4.021-5.059-4.021 5.42-4.021-1.445-4.021 6.143-4.021 39.629-4.021 3.614-4.021-5.42-4.021 3.613-4.022-5.781-4.021-3.252-4.021-6.143-4.021 8.672-4.021-.361-4.021-.362-4.021-3.613-4.021 5.059-4.021 3.252-4.021-1.084-4.022 3.252-4.021-1.807-4.021-2.891-4.021 4.698-4.021 1.807-4.021-2.53-4.021 1.626-4.021 1.626-4.021-3.252-4.022 19.273-4.021-1.189-4.021-1.901-4.021-1.901-4.021-1.901-4.021-1.902-4.021 8.5-4.021-1.901-4.021-1.901-4.022-4.792-4.021-6.049-4.093 2.212-3.949-9.077-4.021-1.902-4.021-2.34-4.021-8.767-4.021 12.019-4.021-1.901-4.022 13.559-4.021 7.76-4.021-15.176-4.021 5.42-4.021 3.252-4.021 8.673-4.021 7.953-4.021-2.434-4.021-7.303-3.96-2.397-4.083-2.471-4.02 8.363-4.022-2.434-3.993 6.242-4.05-2.451-4.02-2.434-4.021-5.693L51.317 148l-4.022-2.434-4.02-7.755-4.022-5.976-4.02 2.891-4.022-4.218-4.021-5.9-4.043 1.019-4-2.421-4.02-4.465-4.021 7.142-4.022-.085-4.02-2.804L1 123" stroke="#14C393" stroke-width="1.5"/></g></svg>