<svg xmlns="http://www.w3.org/2000/svg" width="217" height="40" fill="none">
  <defs/>
  <g fill="#000" clip-path="url(#clip0)">
    <path d="M0 0h15.9c3 0 5.3.8 7 2a8 8 0 012.8 6.4c0 3.1-1.2 5-3.8 6.2v.2c3.4 1 5.3 4.1 5.3 7.7 0 3.5-1.3 6.2-3.5 7.8a12 12 0 01-7.4 2H0V0zm14.3 12.6c1.7 0 3-1 3-2.9C17.2 8 16 7 14.1 7H8.7v5.5h5.6v.1zm.7 12.5c2 0 3.4-1.2 3.4-3.3 0-2.2-1.5-3.2-3.4-3.2H8.8v6.6H15zM28.7 0H37v32.4h-8.3V0zM38.7 20.8c0-7.3 4.7-12.1 12-12.1s11.9 5 11.9 12.1c0 7.4-4.6 12.2-12 12.2-7.2 0-12-4.8-12-12.2zm15.6 0c0-4-1.3-6.5-3.8-6.5s-3.7 2.5-3.7 6.5 1.2 6.7 3.7 6.7c2.5-.1 3.8-2.6 3.8-6.7zM63.5 20.8c0-7.3 4.7-12.1 12-12.1 7.4 0 11.9 4.8 11.9 12.1 0 7.4-4.6 12.2-12 12.2-7.2 0-11.9-4.8-11.9-12.2zm15.7 0c0-4-1.3-6.5-3.8-6.5s-3.7 2.5-3.7 6.5 1.2 6.7 3.7 6.7c2.5-.1 3.8-2.6 3.8-6.7zM89 9.2h7.8v3.5h.2a7.3 7.3 0 017-4.1c2.9 0 5 1.4 6.2 4h.1c1.9-3.1 4.3-4 7.2-4 5.4 0 7.6 4 7.6 9.2v14.5h-8v-13c0-2.4-.8-4-2.8-4-2 0-3 2-3 4.4v12.6h-8.1v-13c0-2.4-.8-4-2.8-4-2 0-3 2-3 4.4v12.6H89v-23zM135.3 29.2v3h-7.8V0h8v11.6h.2c1.5-2 3.6-3.1 6.6-3.1 5.8 0 9.1 5.2 9.1 12.2 0 7.8-3.6 12.3-9.6 12.3a7.1 7.1 0 01-6.5-3.8zm7.8-8.6c0-3.7-1.3-6.1-3.8-6.1s-4 2.4-4 6c0 3.8 1.6 6.2 4 6.2 2.5 0 3.8-2.3 3.8-6.1zM152.4 20.8c0-7.3 4.7-12.2 11.6-12.2 3.5 0 6 1 8.1 3 2.7 2.6 3.9 6.6 3.8 11.3h-15.5c.4 2.9 1.7 4.4 4.1 4.4 1.5 0 2.7-.7 3.2-2.2h7.8c-1.3 5.3-5.4 8-11.2 8-7.2-.2-12-5-12-12.3zm8-2.5h7.4c-.2-2.8-1.7-4.2-3.6-4.2-2.3 0-3.5 1.5-3.8 4.2zM185 13.2h.2c1.7-3.2 3.9-4.5 6.6-4.5.7 0 1.1.1 1.4.3v7h-.2c-4.8-.8-7.5 1.5-7.5 6.7v9.7h-8.2V9.2h7.7v4zM194 32.4h7.8c.4 1 1.4 1.9 3.3 1.9 2.6 0 3.6-1.6 3.6-4v-1.7h-.2a6.9 6.9 0 01-5.6 2.6c-5 0-9.3-3.7-9.3-11 0-6.6 3.5-11.7 9-11.7 3 0 4.9 1.2 6.1 3.2h.2V9.2h7.7v20c0 3.7-1.2 6.5-3.2 8.2-2 1.8-4.8 2.5-8.1 2.5-6.2.1-10.5-2.4-11.3-7.5zm15-12.5c0-2.8-1.4-5.2-3.7-5.2-2.3 0-3.7 2-3.7 5.2 0 3.1 1.4 5.3 3.7 5.3 2.3 0 3.7-2.3 3.7-5.3z"/>
  </g>
  <defs>
    <clipPath id="clip0">
      <path fill="#fff" d="M0 0h216.6v40H0z"/>
    </clipPath>
  </defs>
</svg>
