<svg xmlns="http://www.w3.org/2000/svg" width="205" height="40" fill="none">
  <path fill="#F3BB2D" d="M18 20c0 1.1.84 1.94 1.93 1.94 1.1 0 1.95-.85 1.95-1.94 0-1.09-.86-1.94-1.95-1.94A1.96 1.96 0 0018 20zm16.28-1.9c-1.1 0-1.94.85-1.94 1.94 0 1.09.85 1.94 1.94 1.94 1.09 0 1.94-.85 1.94-1.94 0-1.1-.85-1.95-1.94-1.95zm0 14.58c-1.1 0-1.94.85-1.94 1.94 0 1.1.85 1.94 1.94 1.94 1.09 0 1.94-.85 1.94-1.94 0-1.09-.85-1.94-1.94-1.94z"/>
  <path fill="#F3BB2D" d="M38.4 2.04a5.13 5.13 0 00-7.46-.6l-.24.23-.48.37a5 5 0 01-6.64-.37v-.14A5.32 5.32 0 0021.3.2c-.14 0-.38-.13-.48-.13h-1.94c-.14 0-.24 0-.38.13h-.24c-.13 0-.23.14-.37.14 0 0-.14 0-.14.14-.13 0-.24.13-.37.13 0 0-.14 0-.14.14-.13.14-.24.14-.37.24 0 0-.14 0-.14.13-.14.14-.24.14-.37.24l-.14.14-.24.24-.48.37A4.82 4.82 0 019 1.74s-.14 0-.14-.14l-.24-.24A4.7 4.7 0 006.1.17H3.92c0 .14-.14.14-.24.24h-.03c-.62.24-1.2.48-1.7.95l-.14.14-.38.37c-.48.48-.71 1.1-.95 1.57 0 .14-.14.24-.14.38 0 .13-.14.24-.14.47-.13.86-.13 1.7.14 2.53 0 .13.14.23.14.37v.14c0 .13.13.23.13.37.14.14.14.24.24.48.24.13.48.37.62.48l.23.23.24.24a4.92 4.92 0 01-.13 6.89c-.24.23-.62.6-.72.85-.14.13-.14.24-.24.47v.14c-.13.14-.13.24-.24.38v.13c0 .14-.13.24-.13.38v.13c0 .14 0 .24-.14.38v1.8c0 .14 0 .24.14.38v.13c.24.86.71 1.7 1.43 2.42a4.92 4.92 0 010 6.99l-.14.14-.24.23v.14c-.13.14-.24.24-.24.38 0 0 0 .13-.13.13-.14.14-.14.24-.24.38l-.14.13c0 .14-.13.14-.13.24 0 .1-.14.14-.14.24 0 .14 0 .14-.14.24A3.77 3.77 0 000 34.42v.95c.14.37.14.72.37.95 0 .14.14.24.14.24s0 .14.14.14c0 .14.13.24.13.37 0 0 0 .14.14.14.14.24.24.37.37.48 0 0 0 .13.14.13 0 0 0 .14.14.14 0 .14.13.14.13.14l.14.13c.14.14.24.14.24.24l.13.14s.14 0 .14.13c.14.14.24.24.38.24 0 0 .13 0 .13.14.14.13.24.13.38.24h.07c.13.13.23.13.47.13.14 0 .38.14.48.14h.14c.13 0 .23 0 .37.14h1.1c.37 0 .6-.14.95-.14h.13c.14 0 .24-.14.38-.14h.06c.14 0 .24-.13.38-.13h.14c.23-.14.6-.38.85-.48l.37-.38.14-.13a4.74 4.74 0 016.98 0 5.15 5.15 0 007.84-.38 5.31 5.31 0 000-6.4 5.13 5.13 0 00-7.46-.62l-.24.24-.48.38a5 5 0 01-6.64-.38l-.24-.24-.37-.47a5 5 0 01.37-6.65 4.71 4.71 0 001.57-3.6v-.38a4.4 4.4 0 00-1.43-3.28c0-.13-.14-.13-.14-.23l-.37-.48a5 5 0 01.37-6.65l.14-.13.13-.14a4.74 4.74 0 016.99 0l.13.14.14.13.24.24c.14 0 .14.14.24.14.1 0 .13.14.24.14.1 0 .13.13.23.13s.14.14.24.14c.1 0 .14.13.24.13.1 0 .14.14.24.14.1 0 .14 0 .24.14.14 0 .14 0 .24.13h2.04c.14 0 .24 0 .38-.13h.23c.14 0 .24-.14.38-.14h.14c.13 0 .23-.14.47-.24.48-.24.96-.61 1.33-.95l.14-.14a4.74 4.74 0 016.98 0 4.97 4.97 0 007.74-.24c1.3-2.21 1.3-4.87-.14-6.68z"/>
  <path fill="#101820" d="M65.9 17a6.81 6.81 0 00-2.18-1.56 5.99 5.99 0 00-5.32 0c-.71.37-1.32.85-1.8 1.56a6.25 6.25 0 00-1.1 2.18c-.23.86-.37 1.7-.37 2.53 0 .81.14 1.7.48 2.52.24.85.72 1.43 1.2 2.04.47.62 1.19 1.1 1.94 1.43.71.38 1.56.48 2.52.48 1.09 0 1.94-.24 2.65-.61A6.7 6.7 0 0065.97 26l2.52 2.66a8.17 8.17 0 01-3.27 2.28c-1.2.48-2.52.72-3.99.72-1.43 0-2.9-.24-4.09-.72a9.43 9.43 0 01-3.13-2.04 9.43 9.43 0 01-2.05-3.14c-.47-1.2-.71-2.66-.71-4.09 0-1.43.24-2.9.71-4.09.48-1.19 1.2-2.28 2.05-3.27a9.43 9.43 0 013.13-2.04c1.2-.48 2.66-.72 4.1-.72 1.42 0 2.75.24 3.98.72a9.25 9.25 0 013.37 2.28L65.9 17zm8.18 4.47c0 .95.14 1.94.48 2.66.23.85.71 1.56 1.19 2.18.48.6 1.2 1.09 1.94 1.32.72.38 1.7.48 2.66.48.95 0 1.8-.13 2.66-.48a9.26 9.26 0 001.94-1.32c.48-.62.95-1.33 1.2-2.18.23-.86.47-1.7.47-2.66a6.5 6.5 0 00-.48-2.66 6.42 6.42 0 00-1.2-2.18 4.07 4.07 0 00-1.93-1.33 5.98 5.98 0 00-2.66-.48c-.95 0-1.8.14-2.66.48-.71.37-1.43.85-1.94 1.33a6.42 6.42 0 00-1.2 2.18c-.23.85-.47 1.7-.47 2.66zm-3.85 0a9.66 9.66 0 012.9-7.26 8.63 8.63 0 013.27-2.18c1.19-.48 2.52-.85 3.98-.85 1.47 0 2.76.24 3.99.85 1.2.48 2.28 1.2 3.27 2.18.96.95 1.57 2.04 2.18 3.27.48 1.2.72 2.52.72 3.99 0 1.43-.24 2.76-.72 3.98a9.66 9.66 0 01-2.18 3.28 10.57 10.57 0 01-7.26 3.03 8.74 8.74 0 01-3.98-.85 9.66 9.66 0 01-3.27-2.18 10.57 10.57 0 01-2.19-3.28c-.34-1.22-.71-2.55-.71-3.98zm24.02 9.78h3.61V11.96h-3.6v19.29zm-.85-26.3c0-.72.24-1.34.72-1.95a2.6 2.6 0 011.8-.85c.72 0 1.33.24 1.8.85.48.48.72 1.2.72 1.94 0 .75-.24 1.33-.71 1.94a2.6 2.6 0 01-1.8.86c-.72 0-1.34-.24-1.81-.86a2.85 2.85 0 01-.72-1.94zm9.5 6.98h3.65v3h.14a4.71 4.71 0 012.42-2.53 8.03 8.03 0 013.98-.95c.96 0 1.81.14 2.66.48.86.23 1.57.71 2.18 1.33a8.41 8.41 0 011.57 2.28c.38.95.61 2.04.61 3.37v12.44h-3.67V19.9a5.36 5.36 0 00-1.33-3.85 3.04 3.04 0 00-1.44-.85 5.74 5.74 0 00-3.75.14 4.68 4.68 0 00-2.8 3.24c-.23.84-.36 1.8-.36 2.89v10.02h-3.62V11.96l-.23-.03zm30.54 16.28c.95 0 1.8-.13 2.66-.47a6.87 6.87 0 002.04-1.43c.48-.62.95-1.33 1.2-2.18.23-.86.47-1.7.47-2.77 0-.95-.14-1.94-.48-2.75a6.43 6.43 0 00-1.19-2.19A5.83 5.83 0 00136.1 15a6.35 6.35 0 00-2.66-.47c-.96 0-1.8.13-2.66.47-.85.38-1.43.85-2.04 1.43a6.43 6.43 0 00-1.2 2.18 9.7 9.7 0 00-.47 2.76c0 .96.13 1.95.47 2.77.24.85.72 1.56 1.2 2.18a4.8 4.8 0 002.04 1.43c.72.24 1.7.47 2.66.47zm10.02 2.9h-3.62v-2.76h-.13a7.2 7.2 0 01-2.9 2.42c-1.2.61-2.52.85-3.85.85-1.43 0-2.9-.24-4.09-.71a8.03 8.03 0 01-3.13-2.18 8.88 8.88 0 01-1.94-3.28 11.73 11.73 0 010-8.08c.47-1.18 1.09-2.27 1.94-3.26a8.4 8.4 0 013.13-2.18c1.2-.48 2.52-.72 4.1-.72 1.32 0 2.65.24 3.84.85a6.66 6.66 0 012.76 2.42h.14V0h3.61v31.11h.14zm18.43-11.21c0-.85-.14-1.57-.37-2.28a4.6 4.6 0 00-1.1-1.8 7.63 7.63 0 00-1.7-1.2c-.71-.24-1.43-.48-2.42-.48-.85 0-1.7.14-2.42.48-.71.37-1.33.71-1.94 1.33a4.8 4.8 0 00-1.2 1.8c-.23.72-.47 1.33-.47 1.95h11.59l.03.2zm-11.55 3a5.79 5.79 0 002.04 4.09 6.97 6.97 0 004.47 1.46 5 5 0 003-.85 8.5 8.5 0 002.28-2.04l2.76 2.18c-2.04 2.65-4.94 3.98-8.55 3.98-1.57 0-2.9-.23-4.1-.71a8.04 8.04 0 01-3.13-2.18 8.14 8.14 0 01-1.94-3.27c-.48-1.2-.71-2.53-.71-3.99 0-1.43.23-2.76.71-3.99.48-1.19 1.2-2.28 2.05-3.27.85-.95 1.94-1.57 3.13-2.18 1.2-.48 2.52-.71 3.99-.71 1.7 0 3.13.23 4.32.85a8.15 8.15 0 012.9 2.28c.72.95 1.33 2.04 1.7 3.27.38 1.2.48 2.42.48 3.75v1.33h-15.4zm29.64-6.14c-.47-.47-.95-.95-1.56-1.32a4.47 4.47 0 00-2.29-.62c-.85 0-1.56.24-2.28.62-.61.37-.95.85-.95 1.56 0 .62.23 1.1.61 1.33.38.38.85.62 1.33.85.48.24 1.09.38 1.57.48.61.14 1.09.24 1.43.24.71.24 1.56.37 2.18.72.71.23 1.33.6 1.8 1.09.48.47.86.95 1.2 1.56.24.62.47 1.33.47 2.29 0 1.09-.23 2.04-.71 2.76a7.54 7.54 0 01-1.8 1.94c-.72.51-1.57.85-2.53 1.09a11.88 11.88 0 01-6.98-.34 7.62 7.62 0 01-3.28-2.66l2.77-2.28c.6.61 1.19 1.09 1.94 1.56.75.48 1.56.72 2.66.72.47 0 .95 0 1.43-.14.47-.13.85-.23 1.19-.47.37-.24.61-.48.85-.72a1.94 1.94 0 00-.1-2.42 4.22 4.22 0 00-1.2-.85 5.9 5.9 0 00-1.43-.48l-1.43-.37c-.71-.24-1.56-.38-2.18-.61a6.92 6.92 0 01-1.8-.96 6.1 6.1 0 01-1.33-1.57 4.44 4.44 0 01-.48-2.28c0-.95.24-1.94.61-2.66a4.8 4.8 0 011.7-1.8 7.85 7.85 0 012.3-1.1 10.05 10.05 0 016.4.34 6.26 6.26 0 012.9 2.43l-3 2.07zM187 .48h3.62V20l8.2-8.21h4.95l-8.8 8.69 9.65 10.36h-5.18l-8.79-9.88v9.88h-3.61V.48"/>
</svg>
