<svg xmlns="http://www.w3.org/2000/svg" width="258" height="61" fill="none">
  <path fill="#263238" d="M37.5 44l-10.8 4.6v-.4c-2 .5-4.4.8-6.5 1C10 49 2 43.6 1.9 37.3v-2.3c3.3 4.8 10.1 8 18.3 8 2.7 0 5.6-.4 8-1l.9-2.3c-2.8.8-6 1.4-9 1.4-10 0-18-5.3-18.2-11.7v-1.9c3.3 4.5 10.1 7.7 18.3 7.5 3.7.2 7.2-.6 10.3-1.9l.5-2.3c-3 1.5-6.8 2.4-10.8 2.3C10.1 33.3 2.1 28 2 21.5v-1.9c3.3 4.6 10.1 7.8 18.3 8 4.7-.2 9-1.4 12.7-3.3l.4-2.8c-3.2 2.4-8 4-13 4.2C10 25.5 2 20.2 1.8 13.5 2 7.2 10.1 2 20.2 1.8c6 .1 11.7 2.2 15 5.7l.3.5H38l-.4-.5C34.2 3 27.5 0 20.2 0 9 0 0 6.1 0 13.5v24.3C.4 45.1 9.1 51 20.1 51c7.3 0 13.9-2.9 17.4-7z"/>
  <path fill="#FABF2C" d="M33 60.4l3.9-16-11 4.7 6.7-27.9H19.9l3.3-13.7h40.6l-3.3 13.7H47.3l-2.9 7.6 14.7-6.2-26 37.8zm6.7-19.3l-1.9 9.4L53.4 27l-12.8 5.7 5.7-13.2h12.8l2.3-10H24.6l-2.4 10H35l-6.2 26.4 10.9-4.7z"/>
  <path fill="#263238" d="M90.8 32c0 1.6-.5 2.7-1.4 3.6-1 .9-2.2 1.3-4 1.3-1.6 0-3-.6-4-1.6-1-1.1-1.5-2.5-1.5-4.3v-2.7a6 6 0 011.5-4.3c1-1 2.3-1.6 4-1.6 1.7 0 3 .4 4 1.3 1 .8 1.5 2 1.4 3.5h-2.7c0-.9-.3-1.6-.7-2-.4-.4-1.1-.6-2-.6-.9 0-1.5.3-2 1s-.7 1.5-.7 2.6V31c0 1.1.2 2 .7 2.7.5.7 1.2 1 2.1 1 .9 0 1.5-.2 2-.6.3-.4.6-1.1.6-2h2.7zm15.5-1a5.6 5.6 0 01-5.9 6c-1.7-.1-3-.7-4.2-1.8a6 6 0 01-1.6-4.3v-2.5a6 6 0 011.6-4.3c1-1.1 2.5-1.7 4.2-1.7 1.8 0 3.2.5 4.3 1.7a5.8 5.8 0 011.6 4.3v2.5zm-2.8-2.7c0-1-.3-2-.8-2.7-.6-.7-1.3-1-2.3-1-1 0-1.7.3-2.2 1-.5.7-.8 1.6-.8 2.7V31c0 1 .2 2 .8 2.7.5.7 1.3 1.1 2.2 1.1 1 0 1.7-.3 2.3-1 .5-.8.8-1.7.8-2.8v-2.6zm10.2 8.4h-2.9V22.6h2.9v14zm16.2 0h-2.8l-5.7-9.5v9.5h-2.8V22.6h2.8L127 32v-9.5h2.8v14zm14.3-12h-4v12h-2.9v-12h-4v-2.1h10.9v2.2zm11.7 5.8h-5.3v4h6.3v2.2h-9V22.6h9v2.2h-6.2v3.5h5.2v2.2zm7.8 4h6.4v2.2h-9.2V22.6h2.8v12zm18.4-4H177v4h6.2v2.2h-9V22.6h9v2.2h-6.2v3.5h5.2v2.2zm15.9 4.3c-.5.5-1.1 1-2 1.5-.9.4-2 .6-3.4.6-1.7 0-3-.5-4.1-1.6-1.1-1-1.7-2.4-1.7-4.1v-3c0-1.7.6-3 1.6-4.2 1-1 2.4-1.6 4-1.6 1.8 0 3.1.4 4 1.3a4 4 0 011.4 3.2H195c0-.7-.2-1.3-.7-1.7-.4-.4-1-.6-1.8-.6-1 0-1.6.3-2.2 1-.5.6-.7 1.5-.7 2.5v3c0 1 .2 2 .8 2.6.6.7 1.3 1 2.2 1a5 5 0 001.6-.2c.4-.1.7-.3.9-.5v-2.8h-2.7v-2h5.5v5.6zm7.3-3.8v5.7h-2.9V22.6h5a6 6 0 013.7 1c1 .8 1.4 1.9 1.4 3.1 0 .8-.2 1.4-.6 2-.3.5-.9.9-1.6 1.2.8.3 1.4.7 1.8 1.3.3.5.5 1.3.5 2.1v1c0 .4 0 .9.2 1.3 0 .4.3.7.6 1v.2h-3l-.5-1-.1-1.4v-1c0-.7-.2-1.3-.6-1.7-.3-.4-1-.6-1.6-.6h-2.3zm0-2.1h2c.8 0 1.4-.2 1.8-.5.4-.4.6-.8.6-1.5s-.2-1.2-.6-1.6c-.4-.4-1-.5-1.8-.5h-2v4.1zm19.2 4.8h-4.6l-.9 3h-3l4.8-14h2.9l4.7 14h-3l-.9-3zm-3.9-2.3h3.2l-1.5-5-1.7 5zm14 .2v5H232v-14h5.4c1.6 0 2.9.4 3.8 1.2 1 .8 1.4 2 1.4 3.3 0 1.3-.5 2.4-1.4 3.3-1 .8-2.2 1.2-3.8 1.2h-2.6zm0-2.2h2.7c.7 0 1.4-.2 1.8-.6.4-.5.6-1 .6-1.7s-.2-1.2-.6-1.6c-.4-.5-1-.7-1.8-.7h-2.6v4.6zm23.4 7.3h-2.8v-5.9h-5.8v5.9h-2.8V22.6h2.8v6h5.8v-6h2.8v14z"/>
</svg>
