<svg width="148" height="40" viewBox="0 0 148 40" fill="none" xmlns="http://www.w3.org/2000/svg">
  <g clip-path="url(#clip0)">
    <path d="M148 27.3638C147.845 27.3579 147.907 27.4803 147.897 27.5526C147.782 28.4153 147.678 29.2815 147.375 30.1022C147.081 30.843 146.646 31.5186 146.095 32.0911C144.978 33.3335 143.458 34.1341 141.809 34.3493C139.678 34.6466 137.762 34.0777 136.115 32.6729C135.358 32.027 134.741 31.2299 134.305 30.3319C133.868 29.434 133.621 28.4545 133.578 27.4554C133.535 26.4562 133.698 25.4589 134.057 24.5264C134.415 23.5939 134.961 22.7464 135.661 22.0372C137.164 20.5403 138.977 19.7604 141.095 19.8793C143.639 20.0203 145.605 21.2188 147 23.3767C147.092 23.5178 147.082 23.6099 146.923 23.6938C146.136 24.0917 145.352 24.4932 144.57 24.8981C144.431 24.9704 144.365 24.9401 144.274 24.8106C143.283 23.3884 141.918 22.7122 140.212 22.9593C138.469 23.2112 137.271 24.2417 136.774 25.9508C136.609 26.5003 136.558 27.0781 136.624 27.6483C136.69 28.2185 136.872 28.769 137.158 29.2654C137.444 29.7618 137.828 30.1936 138.287 30.5339C138.745 30.8742 139.268 31.1158 139.823 31.2436C140.667 31.4398 141.551 31.3727 142.356 31.051C143.162 30.7293 143.851 30.1683 144.333 29.4424C144.363 29.3969 144.424 29.3538 144.379 29.292C144.334 29.2302 144.258 29.2559 144.195 29.2559H141.085C140.761 29.2559 140.761 29.2559 140.761 28.9248C140.761 28.4107 140.761 27.8965 140.761 27.3824C140.761 27.1936 140.818 27.1166 141.017 27.1178C143.247 27.1224 145.477 27.1224 147.707 27.1178C147.814 27.1178 147.895 27.2215 148.004 27.1656L148 27.3638Z" fill="#575757"/>
    <path d="M24.1482 0.233154C24.0997 0.349735 24.1482 0.476808 24.1482 0.598052C24.1482 5.2162 24.1482 9.83396 24.1482 14.4513C24.1482 14.6903 24.0846 14.7719 23.8441 14.7591C23.4753 14.7405 23.1041 14.7463 22.7341 14.7591C22.5572 14.7591 22.4959 14.6997 22.511 14.5259C22.5202 14.4269 22.511 14.3266 22.511 14.2275V0.624865C22.511 0.494295 22.511 0.363725 22.511 0.233154H24.1482Z" fill="#F4AA07"/>
    <path d="M30.518 0.233154V0.847535C30.518 5.39185 30.518 9.9385 30.518 14.4875C30.518 14.6903 30.4682 14.7731 30.2567 14.7638C29.9028 14.7498 29.549 14.7568 29.1952 14.7638C29.0276 14.7638 28.9478 14.7043 28.964 14.5306C28.9697 14.4478 28.964 14.3651 28.964 14.2823C28.964 9.73642 28.964 5.18978 28.964 0.642353C28.962 0.502507 28.9867 0.363586 29.0368 0.233154H30.518Z" fill="#F4AA07"/>
    <path d="M27.1604 0.233179C27.2344 0.321249 27.271 0.435194 27.2621 0.550278C27.2621 5.2034 27.2621 9.85614 27.2621 14.5085C27.2621 14.6915 27.209 14.7626 27.024 14.758C26.6701 14.7486 26.3163 14.7498 25.9625 14.758C25.8145 14.758 25.7475 14.7055 25.7544 14.5563C25.7544 14.498 25.7544 14.4397 25.7544 14.3826C25.7544 9.83671 25.7544 5.29006 25.7544 0.742637C25.7544 0.571263 25.7671 0.399889 25.774 0.228516L27.1604 0.233179Z" fill="#F4AA07"/>
    <path d="M3.79366 3.26425C4.00872 2.90751 4.36253 2.69884 4.67703 2.45635C5.79322 1.58242 7.06941 0.939049 8.43253 0.563078C8.86496 0.438649 9.30649 0.34899 9.75297 0.294942C9.80153 0.294942 9.85241 0.287947 9.87669 0.233154H20.2968C20.254 0.679658 20.2864 1.12733 20.2772 1.57383C20.2702 1.96787 20.2633 1.97604 19.8759 1.97604C17.0038 1.97604 14.1317 1.97021 11.2607 1.97604C9.26427 1.9556 7.31712 2.60113 5.72228 3.81218C4.18815 4.9622 3.01614 6.53456 2.34719 8.34017C1.92399 9.46242 1.68952 10.648 1.65344 11.8481C1.57152 13.658 1.94711 15.4592 2.74494 17.0826C3.77631 19.167 5.34072 20.7129 7.46706 21.6455C8.43034 22.0784 9.46779 22.3188 10.5219 22.3532C13.6241 22.4336 16.7252 22.3672 19.8274 22.3881C20.1997 22.3881 20.1997 22.3881 20.1997 22.753C20.1997 23.1354 20.1927 23.5166 20.1997 23.8979C20.1997 24.0832 20.1546 24.1672 19.9511 24.1672C16.8084 24.1613 13.6646 24.1905 10.5219 24.1462C9.15308 24.1109 7.80758 23.781 6.57559 23.1786C5.38015 22.6184 4.29385 21.8469 3.36816 20.9006C2.33974 19.8463 1.52033 18.6039 0.953906 17.2399C0.512991 16.179 0.212108 15.0643 0.0589687 13.9244C0.0589334 13.9037 0.0534547 13.8835 0.0430934 13.8656C0.032732 13.8478 0.0178602 13.8331 0 13.823L0 10.7371C0.102906 10.5109 0.115625 10.2591 0.151469 10.0259C0.362146 8.84467 0.739441 7.69989 1.27188 6.62644C1.80244 5.55206 2.48523 4.56124 3.29878 3.68511C3.40658 3.54766 3.54372 3.43649 3.7 3.35985C3.71388 3.43796 3.66069 3.48226 3.61328 3.52772C3.36469 3.76905 3.13344 4.02786 2.90797 4.29133C2.28791 5.02274 1.76297 5.83096 1.34588 6.69639C0.893522 7.62285 0.557915 8.60275 0.346875 9.61323C0.199262 10.3409 0.100755 11.0778 0.0520312 11.8189C0.013875 12.3529 0.078625 12.8892 0.122562 13.4266C0.19275 14.1827 0.326194 14.9315 0.521469 15.6649C1.22637 18.362 2.88007 20.7085 5.17422 22.2669C5.96764 22.7998 6.8282 23.2232 7.733 23.526C9.04881 23.9666 10.4132 24.0669 11.788 24.0716C12.7257 24.0716 13.6646 24.0716 14.6023 24.0716C16.3367 24.0716 18.071 24.0716 19.8123 24.0716C20.0436 24.0716 20.1199 24.0051 20.1049 23.7755C20.0875 23.5108 20.1049 23.245 20.1049 22.9792C20.1049 22.5129 20.1049 22.5129 19.6539 22.5129C16.8643 22.5129 14.0746 22.5129 11.285 22.5129C10.5793 22.5128 9.87545 22.441 9.18409 22.2984C8.24116 22.1049 7.33587 21.7576 6.50391 21.2701C5.24136 20.5343 4.16027 19.52 3.34156 18.3032C2.89508 17.6493 2.52604 16.9451 2.24197 16.2047C1.96384 15.4722 1.76685 14.711 1.65459 13.9349C1.54926 13.2102 1.51056 12.4773 1.53897 11.7455C1.55943 11.1179 1.63684 10.4935 1.77022 9.8802C1.96687 8.96782 2.28176 8.0855 2.70678 7.25597C3.71248 5.27024 5.3375 3.67275 7.33178 2.70933C8.61406 2.09961 9.98306 1.8443 11.3891 1.83381C14.1294 1.81166 16.8697 1.82681 19.61 1.82798C19.6922 1.82563 19.7745 1.82913 19.8563 1.83847C20.1326 1.87811 20.1465 1.86878 20.1477 1.57966C20.1477 1.24741 20.1315 0.913985 20.1477 0.584062C20.1638 0.335745 20.0968 0.262299 19.8389 0.263465C17.131 0.273958 14.4231 0.263465 11.7151 0.27046C10.4537 0.259213 9.19805 0.44322 7.992 0.816058C6.74015 1.2222 5.57188 1.85422 4.54406 2.68135C4.29663 2.87487 4.0885 3.12552 3.79366 3.26425Z" fill="#F9CA64"/>
    <path d="M56.7856 27.1691C56.7856 24.9296 56.7856 22.6901 56.7856 20.4494C56.7856 20.2162 56.8516 20.1393 57.0909 20.1393C59.3467 20.1486 61.6003 20.1393 63.8561 20.1498C64.6389 20.1404 65.4141 20.3061 66.1258 20.6348C67.1908 21.1465 67.6926 22.0337 67.7747 23.1855C67.8174 23.7813 67.8024 24.3817 67.5515 24.9447C67.2758 25.5437 66.822 26.0412 66.253 26.3682C66.1871 26.409 66.0773 26.4218 66.0807 26.5244C66.0842 26.627 66.1964 26.6235 66.2692 26.6492C66.898 26.8762 67.4434 27.2908 67.8329 27.8378C68.2224 28.3848 68.4376 29.0384 68.4499 29.7117C68.4661 30.4019 68.458 31.0874 68.1666 31.7367C67.7319 32.7055 66.9907 33.3374 66.031 33.7279C65.2579 34.0337 64.4333 34.185 63.6029 34.1733C61.4789 34.1651 59.356 34.1733 57.2331 34.1733C56.7371 34.1733 56.7926 34.2129 56.7937 33.7431C56.7922 31.5506 56.7895 29.3593 56.7856 27.1691ZM61.7726 31.76C62.1345 31.76 62.4975 31.76 62.8594 31.76C63.2475 31.7675 63.6352 31.7323 64.0157 31.6551C64.6944 31.4931 65.1823 31.1235 65.335 30.4065C65.4092 30.0315 65.4005 29.6446 65.3095 29.2734C65.2572 29.0256 65.1455 28.7946 64.9843 28.6003C64.8231 28.406 64.6172 28.2545 64.3845 28.1589C63.929 27.949 63.4433 27.9339 62.96 27.9257C62.0142 27.9117 61.0672 27.9257 60.1203 27.9164C59.9075 27.9164 59.8555 27.9922 59.8578 28.1927C59.8647 29.2967 59.8659 30.3996 59.8578 31.5036C59.8578 31.7216 59.9341 31.7682 60.1307 31.7647C60.6695 31.7531 61.221 31.7612 61.7726 31.76ZM59.8509 24.1823V25.2315C59.8509 25.8214 59.8509 25.8273 60.4382 25.8203C61.4245 25.8086 62.412 25.8681 63.3971 25.7666C63.7681 25.7299 64.1167 25.5709 64.3892 25.3143C64.7765 24.9576 64.8077 24.4912 64.795 24.0086C64.7965 23.7626 64.7295 23.5212 64.6015 23.3117C64.4735 23.1023 64.2898 22.9334 64.0712 22.8241C63.5809 22.549 63.0306 22.5735 62.5068 22.5537C61.6974 22.5234 60.895 22.5537 60.0879 22.542C59.8994 22.542 59.8451 22.6143 59.8474 22.7927C59.8555 23.2543 59.8509 23.7195 59.8509 24.1835V24.1823Z" fill="#575757"/>
    <path d="M28.9847 17.7937C26.8618 17.7937 24.7389 17.7937 22.6161 17.7995C22.3617 17.7995 22.2831 17.7249 22.2969 17.4754C22.3154 17.1362 22.312 16.7946 22.2969 16.4553C22.2865 16.2327 22.3698 16.1744 22.5825 16.1744C25.6366 16.1798 28.6898 16.1798 31.7424 16.1744C32.6882 16.1744 33.634 16.1802 34.5809 16.1744C36.6067 16.158 38.5122 16.6185 40.2709 17.6386C41.6448 18.435 42.8372 19.5138 43.7708 20.805C44.4034 21.6639 44.918 22.605 45.3006 23.6029C46.0197 25.5008 46.3042 27.457 46.0278 29.4832C45.6995 31.9069 44.6623 33.9937 43.0748 35.8217C41.7679 37.3375 40.1113 38.5058 38.2509 39.2235C36.644 39.8556 34.9139 40.1045 33.1958 39.951C31.4943 39.8186 29.8366 39.3428 28.321 38.552C27.1194 37.9258 26.0411 37.0839 25.139 36.0677C24.0778 34.8825 23.2925 33.4733 22.8404 31.9431C22.5267 30.8335 22.3782 29.6831 22.3998 28.5296C22.3998 27.5841 22.4056 26.6387 22.3998 25.6932C22.3998 25.46 22.4496 25.3621 22.7028 25.3772C23.0725 25.3977 23.4431 25.3977 23.8128 25.3772C24.044 25.3668 24.1065 25.4589 24.1042 25.6815C24.0938 26.5605 24.1042 27.4407 24.0984 28.3197C24.0891 29.4949 24.1863 30.6514 24.5678 31.7752C25.3425 34.0439 26.7855 35.7564 28.8344 36.9584C30.5942 37.9901 32.5066 38.4331 34.5289 38.3748C36.3741 38.3183 38.1637 37.7252 39.6823 36.6669C41.6118 35.3802 43.0772 33.4991 43.8599 31.3042C44.223 30.3156 44.4185 29.2724 44.438 28.2183C44.454 27.3306 44.3557 26.4446 44.1455 25.5824C43.7468 23.9065 42.9496 22.3537 41.8225 21.0579C40.774 19.8336 39.4322 18.9001 37.9248 18.3463C37.0156 17.9994 36.0536 17.8144 35.0816 17.7995C33.0489 17.7925 31.0162 17.7995 28.9835 17.7995L28.9847 17.7937Z" fill="#F4AA07"/>
    <path d="M120.045 27.1401C120.045 24.8842 120.045 22.6272 120.045 20.3714C120.045 20.1557 120.1 20.0858 120.322 20.0881C121.324 20.0997 122.326 20.0997 123.328 20.0881C123.412 20.0827 123.497 20.1008 123.572 20.1405C123.647 20.1802 123.71 20.2399 123.753 20.3131C125.675 23.0333 127.6 25.7535 129.528 28.4737C129.569 28.5332 129.605 28.6311 129.686 28.6101C129.793 28.5822 129.747 28.4702 129.747 28.3956C129.747 25.7322 129.747 23.0691 129.747 20.4064C129.747 20.0939 129.747 20.0939 130.065 20.0939C130.759 20.0939 131.453 20.0939 132.139 20.0939C132.325 20.0939 132.395 20.1394 132.395 20.3457C132.39 24.8753 132.39 29.4044 132.395 33.9332C132.395 34.1512 132.317 34.199 132.121 34.1967C131.427 34.1885 130.722 34.1862 130.024 34.1967C129.939 34.204 129.854 34.1876 129.778 34.1494C129.702 34.1111 129.638 34.0525 129.593 33.9799C128.359 32.2304 127.12 30.484 125.874 28.7407L122.671 24.2302C122.63 24.1719 122.594 24.0798 122.508 24.1136C122.423 24.1474 122.471 24.2302 122.471 24.2908C122.471 27.4851 122.471 30.6791 122.471 33.8726C122.471 34.1979 122.471 34.1967 122.144 34.1967C121.535 34.1967 120.925 34.1874 120.317 34.2025C120.095 34.2025 120.038 34.1337 120.04 33.9181C120.048 31.6529 120.045 29.3971 120.045 27.1401Z" fill="#575757"/>
    <path d="M106.411 10.0259C106.257 6.27318 109.579 2.71048 113.647 2.7233C117.624 2.73612 120.943 6.05051 120.931 10.1203C120.918 14.0654 117.518 17.557 113.309 17.3868C109.749 17.2458 106.226 13.9897 106.411 10.0259ZM109.33 10.0574C109.263 12.389 111.274 14.3709 113.523 14.4268C115.951 14.4863 118.018 12.445 117.987 10.0131C117.958 7.67332 116.011 5.72409 113.677 5.68911C111.275 5.65414 109.257 7.78174 109.33 10.0597V10.0574Z" fill="#888888"/>
    <path d="M70.5313 27.1761C70.5313 24.9366 70.5313 22.6971 70.5313 20.4576C70.5313 20.2244 70.5902 20.1393 70.8342 20.1393C72.9652 20.1486 75.0973 20.1218 77.2271 20.1533C78.6458 20.1731 79.8865 20.6662 80.7976 21.8181C81.289 22.4383 81.526 23.1692 81.6243 23.9433C81.7547 24.8595 81.6302 25.7943 81.2647 26.6433C81.0393 27.1892 80.6936 27.6762 80.2539 28.0674C79.8142 28.4587 79.292 28.7439 78.7267 28.9015C78.4805 28.975 78.5175 29.0472 78.6319 29.2116C79.7273 30.7855 80.8196 32.3616 81.9087 33.9401C81.9527 34.0054 82.051 34.0567 81.9943 34.1511C81.9515 34.2211 81.8579 34.1884 81.7873 34.1884C80.7999 34.1884 79.8125 34.1884 78.825 34.1884C78.7482 34.1946 78.6712 34.179 78.6026 34.1436C78.534 34.1082 78.4765 34.0543 78.4365 33.9879C77.3959 32.4724 76.331 30.9568 75.2892 29.4413C75.1354 29.2151 74.9736 29.1184 74.7042 29.1428C74.4347 29.163 74.1642 29.163 73.8948 29.1428C73.6786 29.1288 73.6126 29.2011 73.6138 29.4215C73.6231 30.9067 73.6138 32.3908 73.6242 33.876C73.6242 34.1092 73.5687 34.1954 73.3224 34.1919C72.4922 34.178 71.6609 34.1791 70.8296 34.1919C70.5983 34.1919 70.5347 34.1232 70.5359 33.8923C70.5312 31.6551 70.5313 29.4156 70.5313 27.1761ZM73.5976 24.637C73.5976 25.1849 73.5976 25.7317 73.5976 26.2796C73.5976 26.8275 73.5387 26.7553 74.074 26.7459C74.9539 26.7366 75.835 26.7949 76.7126 26.7133C77.2988 26.6597 77.8607 26.5069 78.2272 25.9952C78.7707 25.2374 78.7568 24.4027 78.4146 23.5854C78.1174 22.8801 77.4722 22.6528 76.7646 22.5968C75.7887 22.5222 74.8094 22.5467 73.8312 22.5374C73.6369 22.5374 73.5999 22.6236 73.5999 22.7938C73.5965 23.4106 73.5942 24.0238 73.5953 24.637H73.5976Z" fill="#575757"/>
    <path d="M64.0564 12.1745C63.9991 12.2647 63.9784 12.3736 63.9986 12.4788C63.9986 14.0048 63.9928 15.5309 63.9986 17.0569C63.9986 17.2901 63.9385 17.3717 63.6945 17.367C62.9048 17.3519 62.1151 17.3542 61.3254 17.367C61.1022 17.367 61.0479 17.2936 61.0479 17.0802C61.0525 12.3952 61.0525 7.70909 61.0479 3.02177C61.0479 2.81076 61.1091 2.72798 61.33 2.72915C62.9591 2.73614 64.5883 2.71166 66.2175 2.73848C67.3747 2.75702 68.4911 3.17289 69.3824 3.91743C70.2737 4.66197 70.8865 5.69068 71.1197 6.83373C71.353 7.97679 71.1927 9.16586 70.6653 10.2047C70.1379 11.2435 69.275 12.0699 68.2189 12.5476C68.0351 12.6315 68.0073 12.7108 68.1276 12.881C69.1104 14.2908 70.0897 15.7026 71.0656 17.1164C71.1061 17.1747 71.194 17.2236 71.1535 17.3076C71.113 17.3915 71.0066 17.36 70.9303 17.36C69.9429 17.36 68.9555 17.36 67.968 17.367C67.8674 17.3759 67.7663 17.3558 67.6765 17.3092C67.5867 17.2626 67.5118 17.1913 67.4604 17.1036C66.6441 15.9098 65.8185 14.723 64.9953 13.5338L64.0564 12.1745ZM63.9974 7.88085C63.9974 8.52787 63.9974 9.1749 63.9974 9.82192C63.9974 9.99329 64.046 10.0551 64.2218 10.0551C64.8384 10.0458 65.4551 10.0458 66.0718 10.0551C66.3681 10.0652 66.6631 10.0113 66.9371 9.8971C67.2111 9.7829 67.4577 9.611 67.6604 9.3929C68.2756 8.75287 68.4698 7.88551 68.1565 7.10676C68.0012 6.69784 67.7273 6.34562 67.3704 6.09606C67.0136 5.84649 66.5904 5.71118 66.1562 5.70779C65.5144 5.70779 64.8727 5.70779 64.231 5.70779C64.0425 5.70779 63.9928 5.77307 63.9998 5.95377C63.9975 6.58681 63.9917 7.23383 63.9917 7.88085H63.9974Z" fill="#888888"/>
    <path d="M89.9692 27.1143C89.9692 24.8748 89.9692 22.6352 89.9692 20.3957C89.9692 20.1626 90.0224 20.0868 90.2676 20.0868C93.4603 20.0961 96.6527 20.0961 99.8448 20.0868C100.1 20.0868 100.165 20.1556 100.159 20.4062C100.142 21.0777 100.148 21.7504 100.159 22.4219C100.159 22.6236 100.108 22.6935 99.8968 22.6924C97.6999 22.6842 95.503 22.6924 93.3062 22.6865C92.9894 22.6865 92.9894 22.6865 92.9894 23.0001C92.9894 23.8465 92.9894 24.6929 92.9894 25.5381C92.9894 25.7538 93.0518 25.8249 93.2715 25.8237C95.1885 25.8156 97.1056 25.8237 99.0227 25.8132C99.2539 25.8132 99.3256 25.8762 99.3221 26.1082C99.3094 26.8461 99.3106 27.5853 99.3221 28.3232C99.3221 28.5307 99.2562 28.5925 99.0516 28.5914C97.1264 28.5844 95.2013 28.5914 93.2761 28.582C93.0645 28.582 92.9859 28.6333 92.9894 28.8583C93.0025 29.6627 93.0025 30.4671 92.9894 31.2715C92.9894 31.493 93.0564 31.5525 93.2726 31.5525C95.6915 31.5443 98.1104 31.5525 100.529 31.5408C100.786 31.5408 100.85 31.619 100.844 31.8661C100.828 32.5213 100.83 33.1765 100.844 33.8317C100.844 34.0648 100.792 34.1476 100.542 34.1476C97.1118 34.139 93.6816 34.139 90.2514 34.1476C90.0201 34.1476 89.9808 34.0636 89.982 33.8585C89.9773 31.61 89.9731 29.3619 89.9692 27.1143Z" fill="#575757"/>
    <path d="M84.6533 10.0504V3.05561C84.6533 2.73035 84.6533 2.73035 84.9817 2.73035C86.5126 2.73035 88.0423 2.73035 89.5732 2.73035C90.8705 2.73035 92.0441 3.08942 93.028 3.95794C93.953 4.77401 94.582 5.76961 94.7624 7.02052C95.0214 8.85083 94.5138 10.4142 93.1552 11.6709C92.3395 12.444 91.2823 12.9069 90.1652 12.9801C89.3916 13.0372 88.6193 12.9999 87.8527 13.0058C87.6561 13.0058 87.5994 13.0652 87.6006 13.2611C87.6087 14.5306 87.6006 15.799 87.6098 17.0686C87.6098 17.3018 87.5497 17.3694 87.3173 17.3659C86.5272 17.3519 85.7375 17.3519 84.9482 17.3659C84.7169 17.3659 84.6579 17.2901 84.6579 17.0663C84.6587 14.7284 84.6572 12.3898 84.6533 10.0504ZM87.596 7.87505C87.596 8.51275 87.6041 9.15744 87.596 9.78931C87.596 10.0015 87.6619 10.0563 87.8631 10.0516C88.4793 10.04 89.0968 10.033 89.7131 10.0516C90.7537 10.0831 91.6613 9.19591 91.8429 8.35187C92.1273 7.02635 91.1329 5.71831 89.7848 5.70199C89.1349 5.69383 88.4851 5.70199 87.8365 5.70199C87.6526 5.70199 87.5937 5.75678 87.596 5.94215C87.6006 6.58217 87.596 7.22803 87.596 7.87505Z" fill="#888888"/>
    <path d="M28.6148 20.7327C26.6145 20.7327 24.6153 20.7327 22.615 20.7327C22.3756 20.7327 22.2982 20.6662 22.3109 20.4261C22.3294 20.0623 22.3201 19.6963 22.3109 19.3314C22.3109 19.1717 22.3652 19.0982 22.5271 19.111C22.5757 19.111 22.6254 19.111 22.6751 19.111C26.3705 19.111 30.0659 19.111 33.7612 19.111C34.8168 19.0909 35.8693 19.2316 36.8831 19.5284C38.3556 19.9766 39.6814 20.8158 40.7219 21.9579C41.6498 22.9649 42.3291 24.1783 42.7048 25.4997C43.1673 27.0968 43.217 28.701 42.7141 30.3016C41.9498 32.7323 40.4675 34.6151 38.3481 35.9756C37.0993 36.7777 35.7234 37.2393 34.2249 37.2393C32.8706 37.2442 31.535 36.9207 30.3306 36.2962C28.2124 35.2073 26.7093 33.5437 25.9115 31.2727C25.6441 30.4953 25.515 29.6764 25.5299 28.8537C25.5391 27.7916 25.5299 26.7296 25.5299 25.6675C25.5299 25.4565 25.5854 25.3703 25.8097 25.3796C26.1866 25.3971 26.567 25.3947 26.9451 25.3796C27.1567 25.3714 27.2134 25.4542 27.2111 25.6547C27.2041 26.5874 27.2226 27.52 27.2111 28.4422C27.1764 30.1606 27.6539 31.7064 28.7581 33.0203C30.0173 34.523 31.6083 35.4183 33.5693 35.6025C35.5592 35.7891 37.2022 35.0196 38.6348 33.7069C39.6902 32.7462 40.4887 31.533 40.9566 30.1792C41.4009 28.9035 41.4556 27.5228 41.1138 26.2155C40.7865 24.8274 40.0562 23.5692 39.0164 22.6015C38.0208 21.6702 36.7732 21.0583 35.432 20.8434C34.8786 20.7616 34.3193 20.7261 33.7601 20.7373L28.6148 20.7327Z" fill="#F4AA07"/>
    <path d="M54.9737 17.3705C52.6323 17.3915 50.8493 16.4904 49.3948 14.8606C48.563 13.9544 48.0002 12.8311 47.7702 11.6184C47.4696 9.98632 47.591 8.37051 48.3345 6.84913C48.6118 6.28372 48.9647 5.75929 49.3832 5.29044C50.3221 4.23073 51.4286 3.42515 52.7988 3.03811C54.0104 2.68072 55.2934 2.64698 56.5219 2.94018C57.7342 3.22787 58.8544 3.82068 59.7779 4.66324C60.0323 4.8964 60.0288 4.8964 59.7918 5.12956C59.2333 5.69265 58.6714 6.25223 58.1198 6.82115C57.9915 6.95288 57.9105 6.94822 57.773 6.82814C56.7023 5.87568 55.4697 5.5341 54.0498 5.77076C52.4056 6.04472 50.8042 7.59058 50.5753 9.50134C50.2677 12.0661 52.1594 14.1238 54.3077 14.3756C55.6443 14.5318 56.8098 14.1681 57.8042 13.2541C57.914 13.1538 57.9869 13.1515 58.0909 13.2541C58.6875 13.8603 59.2853 14.4665 59.89 15.0646C60.0369 15.2103 59.9513 15.2802 59.845 15.3805C58.6066 16.5755 56.7323 17.4486 54.9737 17.3705Z" fill="#888888"/>
    <path d="M102.631 27.1399C102.631 24.8922 102.631 22.6434 102.631 20.3957C102.631 20.1626 102.69 20.0868 102.933 20.0868C106.134 20.0961 109.335 20.0961 112.536 20.0868C112.768 20.0868 112.832 20.1509 112.829 20.3794C112.815 21.0602 112.817 21.7399 112.829 22.4207C112.829 22.6224 112.777 22.6924 112.564 22.6912C110.367 22.683 108.17 22.6912 105.974 22.6854C105.664 22.6854 105.664 22.6854 105.664 23.0071C105.664 23.8454 105.669 24.6824 105.664 25.5206C105.664 25.7445 105.722 25.8237 105.956 25.8237C107.865 25.8144 109.772 25.8237 111.684 25.8121C111.926 25.8121 112 25.8844 111.995 26.1222C111.985 26.8434 111.985 27.5651 111.995 28.2871C111.995 28.5097 111.936 28.5925 111.703 28.5914C109.793 28.582 107.887 28.5914 105.975 28.5809C105.743 28.5809 105.661 28.631 105.663 28.8816C105.673 30.5487 105.663 32.2158 105.674 33.8841C105.674 34.1254 105.595 34.1767 105.377 34.1732C104.568 34.1627 103.747 34.1604 102.933 34.1732C102.701 34.1732 102.638 34.1149 102.639 33.883C102.634 31.6364 102.631 29.3888 102.631 27.1399Z" fill="#575757"/>
    <path d="M15.2095 19.4271H19.8495C20.1733 19.4271 20.1733 19.4271 20.1733 19.764C20.1733 20.1289 20.1675 20.4949 20.1733 20.8598C20.1733 21.0534 20.1259 21.1396 19.9085 21.1396C16.9797 21.1326 14.0498 21.1396 11.121 21.1326C9.25482 21.1326 7.6141 20.4821 6.17341 19.3046C4.68984 18.1115 3.60899 16.4846 3.07928 14.6472C2.54871 12.8691 2.62608 10.9629 3.29897 9.2344C3.83486 7.79137 4.70176 6.49664 5.82885 5.45602C7.10997 4.2634 8.59575 3.47415 10.3382 3.24099C10.6728 3.20095 11.0096 3.18303 11.3465 3.18736C14.2024 3.18736 17.0572 3.18736 19.912 3.1792C20.1663 3.1792 20.2427 3.25381 20.2288 3.50446C20.208 3.8542 20.2288 4.21677 20.223 4.5735C20.223 4.88361 20.2091 4.8976 19.9027 4.8976H12.0576C11.6876 4.8976 11.3176 4.8976 10.9476 4.90693C9.59822 4.94656 8.41538 5.45252 7.36319 6.27209C5.89374 7.39468 4.87191 9.01104 4.48297 10.8281C4.18872 12.1411 4.3009 13.5136 4.80441 14.7603C5.5051 16.5475 6.6891 17.915 8.4015 18.787C9.23279 19.2139 10.1534 19.4338 11.0863 19.4282C12.4611 19.4247 13.8347 19.4282 15.2095 19.4271Z" fill="#F4AA07"/>
    <path d="M76.7393 14.0713C76.7393 13.1923 76.7197 12.3132 76.7474 11.4354C76.7552 11.0304 76.6502 10.6314 76.4445 10.2836C75.3796 8.32384 74.3262 6.35829 73.2682 4.39507C73.0092 3.91476 72.7549 3.43328 72.482 2.96113C72.3664 2.76761 72.4357 2.72797 72.6161 2.72797C73.57 2.72797 74.5251 2.72797 75.479 2.72797C75.5478 2.72254 75.6166 2.73895 75.6757 2.77491C75.7348 2.81087 75.7812 2.86457 75.8085 2.92849C76.5023 4.23186 77.2111 5.53173 77.9141 6.83161C77.9661 6.92604 78.0204 7.01814 78.0667 7.11607C78.0944 7.17669 78.1141 7.24897 78.1927 7.25013C78.2713 7.2513 78.2864 7.16619 78.3153 7.1114C78.7338 6.34041 79.1509 5.56943 79.5663 4.79844C79.8993 4.17668 80.232 3.55725 80.5642 2.94014C80.5922 2.87211 80.6409 2.81474 80.7032 2.77622C80.7654 2.7377 80.8382 2.72 80.9111 2.72564C81.8569 2.73613 82.8027 2.72564 83.7485 2.72564C84.0098 2.72564 84.0191 2.74662 83.9011 2.96579C82.8759 4.86761 81.8496 6.7671 80.822 8.66426C80.4647 9.32644 80.1121 9.98978 79.7467 10.6461C79.6804 10.7693 79.648 10.9082 79.6531 11.0483C79.6531 13.0559 79.6531 15.0622 79.6588 17.0697C79.6588 17.2959 79.6045 17.3693 79.3721 17.3658C78.582 17.3519 77.7923 17.3519 77.0029 17.3658C76.7786 17.3658 76.7277 17.2947 76.7301 17.0814C76.7451 16.0788 76.7393 15.075 76.7393 14.0713Z" fill="#888888"/>
    <path d="M102.471 11.559C102.471 13.4009 102.471 15.2418 102.471 17.0837C102.471 17.3017 102.415 17.3705 102.195 17.367C101.406 17.3546 100.616 17.3546 99.8248 17.367C99.582 17.367 99.4987 17.3087 99.4999 17.0488C99.5076 13.3741 99.5076 9.69912 99.4999 6.02372C99.4999 5.69729 99.4999 5.69846 99.1773 5.69846C98.1737 5.69846 97.1701 5.69846 96.1653 5.69846C95.9606 5.69846 95.8947 5.63667 95.897 5.42916C95.9071 4.61543 95.9071 3.80247 95.897 2.99029C95.897 2.77811 95.9687 2.72449 96.1687 2.72449C99.37 2.72915 102.571 2.72915 105.773 2.72449C105.993 2.72449 106.075 2.77928 106.071 3.0171C106.056 3.81296 106.056 4.6096 106.071 5.40701C106.071 5.64717 105.989 5.69963 105.77 5.69846C104.767 5.68913 103.763 5.69846 102.764 5.68913C102.52 5.68913 102.459 5.76957 102.46 6.0039C102.475 7.8587 102.471 9.70884 102.471 11.559Z" fill="#888888"/>
    <path d="M28.3987 23.3732H22.5978C22.3064 23.3732 22.2971 23.3545 22.3041 23.0631C22.311 22.7238 22.3041 22.3834 22.3041 22.0442C22.2983 21.8518 22.3515 21.7585 22.5677 21.7585C26.4018 21.7644 30.2371 21.7585 34.0712 21.7679C35.7571 21.7737 37.1006 22.5501 38.2083 23.7812C38.8955 24.5355 39.4088 25.4336 39.7114 26.4113C40.0161 27.364 40.0394 28.3856 39.7785 29.3514C39.3818 30.8915 38.4495 32.2366 37.1515 33.1415C35.9085 34.0287 34.528 34.2886 33.0445 34.01C31.8013 33.7994 30.6577 33.1927 29.7816 32.2788C28.8866 31.3403 28.3744 30.227 28.364 28.9096C28.3559 27.7986 28.364 26.6864 28.3582 25.5754C28.3582 25.3924 28.4126 25.3247 28.5987 25.3294C28.9849 25.3411 29.3722 25.3457 29.755 25.3294C29.9862 25.3189 30.0579 25.3947 30.0556 25.6255C30.0452 26.6281 30.081 27.633 30.044 28.6356C29.9735 30.5569 31.3691 31.8847 32.8653 32.3138C33.6226 32.5318 34.3846 32.611 35.1477 32.3651C36.3803 31.9663 37.2232 31.1106 37.784 29.9682C38.6743 28.1542 38.258 26.5057 37.0902 24.9808C36.5891 24.3036 35.8936 23.7982 35.098 23.5329C34.7529 23.4229 34.3927 23.3686 34.0308 23.372L28.3987 23.3732Z" fill="#F4AA07"/>
    <path d="M15.2843 18.1423C13.8968 18.1423 12.5058 18.1423 11.1114 18.1423C9.76436 18.1423 8.62661 17.6328 7.67502 16.6955C6.52802 15.5635 5.89092 14.1844 5.82502 12.5592C5.73946 10.2812 6.61936 8.47891 8.51908 7.22333C9.22814 6.74353 10.0609 6.48336 10.9148 6.47488C13.9361 6.45623 16.9562 6.46439 19.9764 6.4574C20.1764 6.4574 20.2319 6.53317 20.2261 6.7232C20.2157 7.10442 20.2111 7.4868 20.2261 7.86802C20.2377 8.11168 20.1463 8.18046 19.9116 8.18046C17.021 8.17347 14.1304 8.18046 11.2397 8.17113C10.213 8.17113 9.32961 8.50222 8.6162 9.23668C7.52702 10.3757 7.19749 11.7432 7.51546 13.2715C7.73977 14.3394 8.27627 15.2266 9.18508 15.855C9.66179 16.2028 10.2297 16.4011 10.8177 16.425C11.6895 16.4437 12.5625 16.4379 13.4343 16.439H19.8538C20.166 16.439 20.1718 16.446 20.1729 16.7608C20.1729 17.1175 20.1614 17.4754 20.1729 17.831C20.1822 18.0642 20.1244 18.1516 19.8723 18.1493C18.346 18.1365 16.8152 18.1423 15.2843 18.1423Z" fill="#F4AA07"/>
    <path d="M87.6819 27.1633C87.6819 29.411 87.6819 31.6591 87.6819 33.9075C87.6819 34.0952 87.6414 34.1757 87.4379 34.1733C86.5738 34.1648 85.7101 34.1648 84.8468 34.1733C84.6514 34.1733 84.5947 34.1069 84.5947 33.9122C84.6009 29.4168 84.6009 24.9211 84.5947 20.425C84.5947 20.207 84.6629 20.137 84.8792 20.1393C85.7174 20.1487 86.5569 20.151 87.3963 20.1393C87.6357 20.1393 87.6831 20.2279 87.6831 20.4471C87.6796 22.6855 87.6819 24.925 87.6819 27.1633Z" fill="#575757"/>
    <path d="M117.669 27.1633C117.669 29.411 117.669 31.6587 117.669 33.9063C117.669 34.1209 117.598 34.1745 117.399 34.1733C116.543 34.1648 115.688 34.1648 114.832 34.1733C114.637 34.1733 114.58 34.1069 114.581 33.9122C114.586 29.4168 114.586 24.9215 114.581 20.4261C114.581 20.2081 114.647 20.137 114.863 20.1393C115.703 20.1498 116.542 20.151 117.382 20.1393C117.621 20.1393 117.668 20.2268 117.668 20.4459C117.666 22.6855 117.669 24.925 117.669 27.1633Z" fill="#575757"/>
    <path d="M3.79372 3.26429C4.08857 3.12905 4.29669 2.87841 4.54413 2.68138C5.57195 1.85426 6.74022 1.22223 7.99207 0.816093C9.2012 0.445586 10.4596 0.264716 11.7233 0.279822C14.4312 0.279822 17.1392 0.279822 19.8471 0.272827C20.1049 0.272827 20.172 0.345107 20.1558 0.593424C20.135 0.923347 20.1558 1.25677 20.1558 1.58902C20.1558 1.87814 20.1408 1.88747 19.8644 1.84783C19.7827 1.8385 19.7004 1.83499 19.6182 1.83734C16.8778 1.83734 14.1375 1.82102 11.3972 1.84317C9.99122 1.85366 8.62222 2.10897 7.33994 2.71869C5.34566 3.68211 3.72064 5.27961 2.71494 7.26534C2.28993 8.09487 1.97503 8.97719 1.77838 9.88957C1.645 10.5029 1.56759 11.1273 1.54713 11.7549C1.51872 12.4867 1.55743 13.2196 1.66275 13.9442C1.77306 14.7169 1.96732 15.4749 2.24204 16.2047C2.52611 16.9451 2.89515 17.6494 3.34163 18.3032C4.15854 19.5221 5.23847 20.5389 6.5005 21.2772C7.33246 21.7647 8.23776 22.112 9.18069 22.3054C9.87205 22.448 10.5759 22.5199 11.2816 22.5199C14.0705 22.5261 16.8601 22.5261 19.6505 22.5199C20.1015 22.5199 20.1015 22.5199 20.1015 22.9862C20.1015 23.252 20.0876 23.5178 20.1015 23.7825C20.1165 24.0156 20.0379 24.0798 19.8089 24.0786C18.0746 24.0704 16.3402 24.0786 14.5989 24.0786C13.6612 24.0786 12.7223 24.0786 11.7846 24.0786C10.4098 24.0786 9.04541 23.9737 7.7296 23.533C6.82564 23.2278 5.96625 22.802 5.17429 22.2669C2.88013 20.7085 1.22643 18.362 0.521536 15.665C0.326261 14.9315 0.192817 14.1827 0.12263 13.4266C0.0786923 12.8892 0.0139423 12.3576 0.0520985 11.819C0.100822 11.0779 0.19933 10.3409 0.346942 9.61327C0.558167 8.60358 0.89377 7.62448 1.34594 6.69875C1.76107 5.83283 2.28406 5.02383 2.90225 4.29136C3.12772 4.02789 3.35897 3.76908 3.60757 3.52776C3.65497 3.48229 3.70816 3.43799 3.69429 3.35988L3.79372 3.26429Z" fill="#F4A801"/>
  </g>
  <defs>
    <clipPath id="clip0">
      <rect width="148" height="40" fill="white"/>
    </clipPath>
  </defs>
</svg>
