<svg xmlns="http://www.w3.org/2000/svg" width="148" height="40" fill="none">
    <path fill="#575757" d="M148 27.36c-.16 0-.1.12-.1.2-.12.86-.22 1.72-.53 2.54-.29.74-.72 1.42-1.28 2a6.98 6.98 0 01-4.28 2.25 6.97 6.97 0 01-5.7-1.68 7.23 7.23 0 01-2.05-8.14c.35-.94.9-1.78 1.6-2.5a6.92 6.92 0 015.44-2.15 7.2 7.2 0 015.9 3.5c.1.14.08.23-.08.31l-2.35 1.2c-.14.08-.2.05-.3-.08a4 4 0 00-4.06-1.85 3.97 3.97 0 00-3.44 3 4.22 4.22 0 003.05 5.28 4.24 4.24 0 004.51-1.8c.03-.04.1-.09.05-.15s-.12-.03-.19-.03h-3.1c-.33 0-.33 0-.33-.34v-1.54c0-.19.06-.26.26-.26h6.69c.1 0 .19.1.3.05l-.01.2z"/>
    <path fill="#F4AA07" d="M24.15.23c-.05.12 0 .25 0 .37v13.85c0 .24-.07.32-.3.3h-1.12c-.17 0-.23-.05-.22-.22V.63v-.4h1.64zM30.52.23V14.5c0 .2-.05.28-.26.27H29.2c-.17 0-.25-.06-.24-.23v-.25V.64c0-.14.03-.28.08-.4h1.48zM27.16.23c.07.1.11.2.1.32v13.96c0 .18-.05.25-.24.25h-1.06c-.15 0-.21-.05-.2-.2v-.18V.74l.01-.51h1.39z"/>
    <path fill="#F9CA64" d="M3.8 3.26c.2-.35.56-.56.88-.8A10.71 10.71 0 019.75.29c.05 0 .1 0 .13-.06H20.3c-.05.45-.01.9-.02 1.34-.01.4-.02.4-.4.4h-8.62a9 9 0 00-5.54 1.84 10 10 0 00-3.37 4.53c-.43 1.12-.66 2.3-.7 3.5-.08 1.82.3 3.62 1.1 5.24a9.34 9.34 0 004.72 4.57c.96.43 2 .67 3.05.7 3.1.08 6.2.02 9.3.04.38 0 .38 0 .38.36v1.15c0 .18-.05.27-.25.27-3.14 0-6.29.02-9.43-.02a9.54 9.54 0 01-3.94-.97 11.04 11.04 0 01-3.21-2.28 11.63 11.63 0 01-2.42-3.66 13.23 13.23 0 01-.9-3.37.12.12 0 00-.05-.05v-3.08c.1-.23.12-.48.15-.71A12.65 12.65 0 013.3 3.69c.1-.14.24-.25.4-.33.01.08-.04.12-.09.17A11.26 11.26 0 001.35 6.7c-.46.92-.8 1.9-1 2.91-.15.73-.25 1.47-.3 2.2-.04.54.03 1.08.07 1.62.07.75.2 1.5.4 2.23.7 2.7 2.36 5.05 4.65 6.6.8.54 1.66.96 2.56 1.27 1.32.44 2.68.54 4.06.54h8.02c.23 0 .31-.06.3-.3-.02-.26 0-.52 0-.8 0-.46 0-.46-.46-.46H11.3c-.71 0-1.41-.07-2.1-.21a8.8 8.8 0 01-2.69-1.03 10.2 10.2 0 01-4.85-7.34 11.99 11.99 0 01.12-4.05c.2-.91.51-1.8.94-2.62a9.5 9.5 0 018.68-5.42c2.74-.03 5.48-.01 8.22-.01h.25c.27.05.29.04.29-.25 0-.33-.02-.67 0-1 .01-.24-.05-.32-.31-.32l-8.12.01C10.45.26 9.2.44 7.99.82c-1.25.4-2.42 1.03-3.45 1.86-.24.2-.45.45-.75.58z"/>
    <path fill="#575757" d="M56.79 27.17v-6.72c0-.23.06-.31.3-.31l6.77.01c.78-.01 1.55.16 2.27.48 1.06.52 1.56 1.4 1.64 2.56.05.6.03 1.2-.22 1.75-.27.6-.73 1.1-1.3 1.43-.06.04-.17.05-.17.15 0 .1.12.1.19.13a3.3 3.3 0 012.18 3.06c.02.7 0 1.38-.28 2.03a3.79 3.79 0 01-2.14 1.99c-.77.3-1.6.46-2.43.44h-6.37c-.5 0-.44.04-.44-.43v-6.57zm4.98 4.59h1.09c.39 0 .78-.03 1.16-.1.67-.17 1.16-.54 1.31-1.25.08-.38.07-.77-.02-1.14a1.56 1.56 0 00-.93-1.11 3.45 3.45 0 00-1.42-.23c-.95-.02-1.9 0-2.84-.01-.21 0-.26.07-.26.27v3.31c0 .22.07.27.27.26h1.64zm-1.92-7.58v1.05c0 .6 0 .6.59.59.98-.01 1.97.05 2.96-.05.37-.04.72-.2.99-.46.39-.35.42-.82.4-1.3a1.32 1.32 0 00-.72-1.19c-.49-.27-1.04-.25-1.56-.27-.81-.03-1.61 0-2.42 0-.2 0-.24.06-.24.24v1.4z"/>
    <path fill="#F4AA07" d="M28.98 17.8h-6.36c-.26 0-.34-.08-.32-.32.02-.34.01-.69 0-1.02-.01-.23.07-.29.28-.29h12a10.95 10.95 0 019.2 4.63c.62.86 1.14 1.8 1.52 2.8.72 1.9 1 3.86.73 5.88a11.96 11.96 0 01-2.96 6.34 12.14 12.14 0 01-4.82 3.4c-1.6.64-3.34.88-5.05.73-1.7-.13-3.36-.6-4.88-1.4a11.14 11.14 0 01-5.48-6.6 11.74 11.74 0 01-.44-3.42v-2.84c0-.23.05-.33.3-.31.37.02.74.02 1.11 0 .23-.01.3.08.3.3-.02.88 0 1.76-.01 2.64a9.35 9.35 0 004.74 8.64 10.45 10.45 0 005.69 1.41 9.52 9.52 0 005.15-1.7 10.8 10.8 0 004.18-5.37c.36-.98.56-2.03.58-3.08a10.65 10.65 0 00-2.62-7.16 9.4 9.4 0 00-6.74-3.26h-6.1z"/>
    <path fill="#575757" d="M120.05 27.14v-6.77c0-.21.05-.28.27-.28h3a.46.46 0 01.43.22l5.78 8.16c.04.06.07.16.16.14.1-.03.06-.14.06-.21v-8c0-.3 0-.3.31-.3h2.08c.19 0 .26.04.26.25v13.58c0 .22-.08.27-.28.27h-2.1a.46.46 0 01-.43-.22c-1.23-1.75-2.47-3.5-3.72-5.24l-3.2-4.51c-.04-.06-.08-.15-.16-.12-.09.04-.04.12-.04.18v9.58c0 .33 0 .33-.33.33h-1.82c-.22 0-.28-.07-.28-.28v-6.78z"/>
    <path fill="#888" d="M106.41 10.03c-.15-3.76 3.17-7.32 7.24-7.3a7.38 7.38 0 017.28 7.39 7.4 7.4 0 01-7.62 7.27c-3.56-.14-7.08-3.4-6.9-7.36zm2.92.03a4.37 4.37 0 004.2 4.37 4.4 4.4 0 004.46-4.42 4.42 4.42 0 00-4.31-4.32 4.38 4.38 0 00-4.35 4.37z"/>
    <path fill="#575757" d="M70.53 27.18v-6.72c0-.24.06-.32.3-.32 2.14 0 4.27-.02 6.4.01a4.4 4.4 0 013.57 1.67c.49.62.73 1.35.82 2.12.13.92.01 1.85-.36 2.7a3.9 3.9 0 01-2.53 2.26c-.25.08-.21.15-.1.31l3.28 4.73c.04.07.14.12.08.21-.04.07-.13.04-.2.04h-2.97a.41.41 0 01-.38-.2c-1.04-1.52-2.1-3.03-3.15-4.55-.15-.22-.32-.32-.59-.3-.27.02-.54.02-.8 0-.22-.01-.29.06-.29.28l.01 4.46c0 .23-.05.32-.3.31h-2.49c-.23 0-.3-.07-.3-.3v-6.71zm3.07-2.54v1.64c0 .55-.06.48.47.47.88-.01 1.77.04 2.64-.04.59-.05 1.15-.2 1.52-.71.54-.76.53-1.6.18-2.41-.3-.71-.94-.94-1.65-1-.97-.07-1.95-.04-2.93-.05-.2 0-.23.08-.23.25v1.85z"/>
    <path fill="#888" d="M64.06 12.17a.42.42 0 00-.06.3v4.59c0 .23-.06.31-.3.3h-2.37c-.23 0-.28-.07-.28-.28V3.02c0-.2.06-.3.28-.3 1.63.02 3.26 0 4.89.02a5.06 5.06 0 014.9 4.1 5.17 5.17 0 01-2.9 5.7c-.18.1-.21.17-.1.34l2.95 4.24c.04.05.12.1.08.19-.04.08-.14.05-.22.05h-2.96a.53.53 0 01-.51-.26L65 13.53l-.94-1.36zM64 7.88v1.94c0 .17.05.24.22.24h1.85a2.07 2.07 0 001.59-.67c.62-.64.81-1.5.5-2.28a2.17 2.17 0 00-2-1.4h-1.93c-.19 0-.24.06-.23.24v1.93z"/>
    <path fill="#575757" d="M89.97 27.11V20.4c0-.24.05-.31.3-.31h9.57c.26 0 .33.07.32.32-.02.67-.01 1.34 0 2.01 0 .2-.05.27-.26.27h-6.6c-.31 0-.31 0-.31.31v2.54c0 .21.06.28.28.28h5.75c.23 0 .3.06.3.29v2.21c0 .21-.06.27-.27.27h-5.77c-.22 0-.3.04-.3.27.02.8.02 1.6 0 2.41 0 .22.08.28.3.28h7.25c.26 0 .32.07.31.32v1.96c0 .23-.05.32-.3.32H90.25c-.23 0-.27-.09-.27-.3l-.01-6.74z"/>
    <path fill="#888" d="M84.65 10.05v-7c0-.32 0-.32.33-.32h4.6c1.3 0 2.46.36 3.45 1.23a4.95 4.95 0 011.73 3.06 5.02 5.02 0 01-1.6 4.65 4.8 4.8 0 01-3 1.31c-.77.06-1.54.02-2.3.03-.2 0-.26.06-.26.25l.01 3.8c0 .24-.06.3-.3.3h-2.36c-.23 0-.3-.07-.3-.3v-7.01zm2.95-2.17v1.9c0 .22.06.28.26.27.62-.01 1.24-.02 1.85 0 1.04.03 1.95-.85 2.13-1.7a2.19 2.19 0 00-2.06-2.65h-1.94c-.19 0-.25.06-.24.24v1.94z"/>
    <path fill="#F4AA07" d="M28.61 20.73h-6c-.23 0-.31-.06-.3-.3.02-.37.01-.73 0-1.1 0-.16.06-.23.22-.22h11.23c1.06-.02 2.1.12 3.12.42a8.76 8.76 0 015.82 5.97c.47 1.6.52 3.2.01 4.8a10.22 10.22 0 01-4.36 5.68 7.54 7.54 0 01-4.13 1.26 8.4 8.4 0 01-3.89-.94 8.75 8.75 0 01-4.42-5.03c-.27-.77-.4-1.6-.38-2.42v-3.18c0-.21.06-.3.28-.29.38.02.76.01 1.14 0 .2 0 .26.07.26.27v2.8a6.67 6.67 0 001.55 4.57 6.93 6.93 0 004.8 2.58c2 .19 3.64-.58 5.07-1.9a8.54 8.54 0 002.33-3.52c.44-1.28.5-2.66.15-3.96a7.19 7.19 0 00-2.1-3.62 6.83 6.83 0 00-3.58-1.76c-.55-.08-1.11-.11-1.67-.1h-5.15z"/>
    <path fill="#888" d="M54.97 17.37a7.02 7.02 0 01-5.58-2.5 6.62 6.62 0 01-1.62-3.25 7.52 7.52 0 01.56-4.77c.28-.57.63-1.1 1.05-1.56a7.13 7.13 0 017.14-2.35c1.21.29 2.33.88 3.26 1.72.25.24.25.24.01.47-.56.56-1.12 1.12-1.67 1.7-.13.12-.2.12-.35 0a4.26 4.26 0 00-3.72-1.06 4.37 4.37 0 00.26 8.6c1.33.16 2.5-.2 3.5-1.12.1-.1.18-.1.28 0l1.8 1.81c.15.15.06.22-.05.32a6.97 6.97 0 01-4.87 1.99z"/>
    <path fill="#575757" d="M102.63 27.14V20.4c0-.24.06-.31.3-.31h9.6c.24 0 .3.06.3.29-.02.68-.01 1.36 0 2.04 0 .2-.05.27-.27.27h-6.59c-.3 0-.3 0-.3.32v2.51c0 .22.05.3.29.3h5.72c.25 0 .32.06.31.3v2.17c0 .22-.05.3-.29.3h-5.73c-.23 0-.3.04-.3.3v5c0 .24-.08.29-.3.28h-2.44c-.23 0-.3-.06-.3-.29v-6.74z"/>
    <path fill="#F4AA07" d="M15.21 19.43h4.64c.32 0 .32 0 .32.33v1.1c0 .2-.04.28-.26.28h-8.79c-1.87 0-3.5-.66-4.95-1.84a9.27 9.27 0 01-3.1-4.65 8.35 8.35 0 01.23-5.42 9.77 9.77 0 012.53-3.77 8.1 8.1 0 014.5-2.22c.34-.04.68-.06 1.02-.05l8.56-.01c.26 0 .33.07.32.32-.02.35 0 .72 0 1.07 0 .31-.02.33-.33.33h-8.95a6.03 6.03 0 00-3.59 1.37 7.78 7.78 0 00-2.88 4.56 6.63 6.63 0 00.32 3.93 7.38 7.38 0 003.6 4.03 5.8 5.8 0 002.69.64h4.12z"/>
    <path fill="#888" d="M76.74 14.07c0-.88-.02-1.76 0-2.63.02-.41-.09-.8-.3-1.16L73.27 4.4c-.26-.49-.52-.97-.79-1.44-.11-.2-.04-.23.14-.23h2.86a.33.33 0 01.33.2l2.1 3.9.16.29c.02.06.04.13.12.13.08 0 .1-.08.13-.14a845.31 845.31 0 002.24-4.17.35.35 0 01.35-.21h2.84c.26 0 .27.02.15.24l-3.08 5.7c-.36.66-.7 1.32-1.07 1.98a.79.79 0 00-.1.4v6.02c0 .23-.05.3-.28.3a67.3 67.3 0 00-2.37 0c-.22 0-.27-.08-.27-.29.02-1 0-2 0-3zM102.47 11.56v5.52c0 .22-.05.3-.28.29-.78-.02-1.57-.02-2.37 0-.24 0-.32-.06-.32-.32V6.02c0-.32 0-.32-.32-.32h-3.01c-.2 0-.28-.06-.27-.27V2.99c0-.21.07-.27.27-.27h9.6c.22 0 .3.06.3.3V5.4c0 .24-.08.29-.3.29l-3-.01c-.25 0-.31.08-.31.31.02 1.86.01 3.7.01 5.56z"/>
    <path fill="#F4AA07" d="M28.4 23.37h-5.8c-.3 0-.3-.02-.3-.3v-1.03c0-.19.05-.28.27-.28h11.5c1.69.01 3.03.79 4.14 2.02.69.76 1.2 1.65 1.5 2.63.3.95.33 1.98.07 2.94a6.64 6.64 0 01-2.63 3.8 5.16 5.16 0 01-4.1.86 5.88 5.88 0 01-3.27-1.73 4.8 4.8 0 01-1.42-3.37v-3.33c0-.19.05-.26.24-.25.38.01.77.02 1.15 0 .24-.01.3.06.3.3 0 1 .03 2 0 3-.08 1.93 1.32 3.25 2.82 3.68.75.22 1.51.3 2.28.06a4.41 4.41 0 002.63-2.4c.9-1.82.48-3.46-.69-4.99a4.09 4.09 0 00-2-1.45 3.4 3.4 0 00-1.06-.16H28.4zM15.28 18.14h-4.17c-1.35 0-2.48-.5-3.43-1.44a5.98 5.98 0 01-1.85-4.14 5.75 5.75 0 012.69-5.34c.7-.48 1.54-.74 2.4-.75l9.06-.01c.2 0 .25.07.25.26-.01.38-.02.77 0 1.15 0 .24-.08.31-.32.31h-8.67a3.5 3.5 0 00-2.62 1.06 4.27 4.27 0 00-1.1 4.03 4.03 4.03 0 001.67 2.59c.47.34 1.04.54 1.63.57h9.03c.32 0 .32.02.32.33v1.07c.01.23-.05.32-.3.32h-4.59z"/>
    <path fill="#575757" d="M87.68 27.16v6.75c0 .19-.04.27-.24.26h-2.6c-.19 0-.25-.06-.25-.26V20.43c0-.22.07-.3.29-.3.84.02 1.68.02 2.52 0 .24 0 .28.1.28.32v6.71zM117.67 27.16v6.75c0 .21-.07.26-.27.26h-2.57c-.2 0-.25-.06-.25-.26V20.43c0-.22.07-.3.28-.3.84.02 1.68.02 2.52 0 .24 0 .29.1.29.32v6.71z"/>
    <path fill="#F4A801" d="M3.8 3.26c.29-.13.5-.38.74-.58a10.83 10.83 0 017.18-2.4h8.13c.25 0 .32.07.3.31v1c0 .29 0 .3-.29.26-.08-.01-.16-.02-.24-.01-2.74 0-5.48-.02-8.22 0a9.5 9.5 0 00-4.06.88c-2 .96-3.62 2.56-4.63 4.55a10.7 10.7 0 00-1.16 4.48 11.99 11.99 0 00.7 4.45 10.2 10.2 0 004.25 5.08 8.8 8.8 0 002.68 1.03c.7.14 1.4.21 2.1.21h8.37c.45 0 .45 0 .45.47v.8c.02.23-.06.29-.3.29h-8.02c-1.37 0-2.73-.1-4.05-.55-.9-.3-1.76-.73-2.56-1.26a11.49 11.49 0 01-4.65-6.6c-.2-.74-.33-1.49-.4-2.24-.04-.54-.1-1.07-.07-1.61.05-.74.15-1.48.3-2.2A12.45 12.45 0 012.9 4.28c.23-.26.46-.52.7-.76.05-.05.1-.1.1-.17l.1-.1z"/>
</svg>
