<svg xmlns="http://www.w3.org/2000/svg" width="163" height="42" fill="none">
  <path fill="#000" d="M99.3 12.4c-2.6 0-4.7.6-6.7 1.7L92.7.8 80.2 3v1.2l1.3.2c1.7.3 2.2 1.3 2.6 3.5.4 4.5.2 28.5 0 32.4 3.4.8 7 1.3 10.5 1.3 10 0 16-6.1 16-15.9 0-7.7-5-13.3-11.3-13.3zM95 39.6c-.8 0-1.7 0-2.3-.2-.1-2.6-.3-13.7-.1-23.4 1-.4 1.8-.6 2.8-.6 4 0 6.3 4.9 6.3 10.9 0 7.5-2.8 13.3-6.7 13.3zm-62-38H0v1.6l1.9.2c2.4.4 3.3 1.9 3.7 5.5.6 6.7.4 18.9 0 24.7C5.2 37 4.3 38.8 2 39l-1.9.4v1.5h21.2v-1.5l-2.3-.4c-2.4-.2-3.3-1.9-3.7-5.4-.2-2.5-.4-6.4-.4-11.3l4.5.2c2.8 0 4.1 2.3 4.7 5.5h1.7V14.7H24c-.6 3.1-1.9 5.4-4.7 5.4l-4.5.2c0-6.4.2-12.4.4-16h6.5c5 0 7.7 3.2 9.6 8.9l1.9-.6-.2-11z"/>
  <path fill="#000" d="M43.7 12c9.3 0 14 6.4 14 14.8 0 8-5.2 14.8-14.6 14.8-9.4 0-14-6.3-14-14.8 0-8 5.2-14.8 14.6-14.8zm-.6 2c-4.1 0-5.3 5.5-5.3 12.8 0 7.2 2 13 5.7 13 4.3 0 5.4-5.7 5.4-13 0-7-1.9-12.9-5.8-12.9zM113 27c0-7.7 4.8-15 14.4-15 7.9 0 11.6 5.8 11.6 13.5h-17.4c-.2 7 3.2 12 10 12 3 0 4.4-.7 6.3-2l.7.9a14 14 0 01-11.2 5.2A14 14 0 01113 27zm8.6-3.5l8.8-.2c0-3.8-.6-9.4-3.8-9.4-3.1 0-4.8 5.3-5 9.6zm39.7-10c-2.2-.9-5.2-1.5-8.6-1.5-7 0-11.2 4.2-11.2 9 0 4.9 3.1 7 7.6 8.5 4.7 1.6 6 3 6 5.2 0 2.3-1.7 4.3-4.7 4.3-3.5 0-6.1-2-8.2-7.7l-1.3.4.2 8.3c2.2.9 6.3 1.6 10 1.6 7.2 0 11.9-3.7 11.9-9.5 0-4-2-6.2-7-8-5.2-2.1-7-3.4-7-5.9 0-2.4 1.6-4.1 3.9-4.1 3.4 0 5.6 2 7.3 7.1l1.3-.4-.2-7.3zm-79.2-.7c-3.2-1.9-8.8-1-11.8 5.8l.1-6.6L58 14.5v1.1l1.3.2c1.7.2 2.4 1.1 2.6 3.5.4 4.5.2 12.4 0 16.3-.2 2.3-1 3.4-2.6 3.6l-1.3.2v1.5h17.4v-1.5l-2.2-.2c-2-.2-2.5-1.3-2.7-3.6-.3-3.5-.3-10.6-.1-15.1.9-1.3 5-2.5 8.8 0l3-7.7z"/>
</svg>
