<svg width="32" height="33" fill="none" xmlns="http://www.w3.org/2000/svg"><path d="M2 4h17v27H2V4z" fill="#E7EAF3"/><path d="M12 2h18v12H12V2z" fill="#fff"/><path d="M14.75 10.5a.75.75 0 0 1 .75-.75h3a.75.75 0 0 1 0 1.5h-3a.75.75 0 0 1-.75-.75zM25.5 9.75a.75.75 0 0 0 0 1.5h1a.75.75 0 0 0 0-1.5h-1z" fill="#181B2B"/><path fill-rule="evenodd" clip-rule="evenodd" d="M10.5 25.75a1.75 1.75 0 1 0 0 3.5 1.75 1.75 0 0 0 0-3.5zm-.25 1.75a.25.25 0 1 1 .5 0 .25.25 0 0 1-.5 0z" fill="#181B2B"/><path fill-rule="evenodd" clip-rule="evenodd" d="M10.75 1.5a.75.75 0 0 1 .75-.75h19a.75.75 0 0 1 .75.75v13a.75.75 0 0 1-.75.75h-19a.75.75 0 0 1-.75-.75V9.25h-8.5v13.5h16.5V18.5a.75.75 0 0 1 1.5 0v11a2.756 2.756 0 0 1-2.75 2.75h-14A2.756 2.756 0 0 1 .75 29.5v-24A2.756 2.756 0 0 1 3.5 2.75h7.25V1.5zm19 .75h-17.5v2.5h17.5v-2.5zm-17.5 4h17.5v7.5h-17.5v-7.5zm-1.5-2H3.5c-.686 0-1.25.564-1.25 1.25v2.25h8.5v-3.5zm-8.5 20v5.25c0 .686.564 1.25 1.25 1.25h14c.686 0 1.25-.564 1.25-1.25v-5.25H2.25z" fill="#181B2B"/></svg>