<svg width="33" height="33" fill="none" xmlns="http://www.w3.org/2000/svg"><path d="M2.25 14.5c0-6.766 5.484-12.25 12.25-12.25 6.448 0 11.734 4.983 12.214 11.307a.75.75 0 1 0 1.496-.114C27.67 6.343 21.738.75 14.5.75 6.906.75.75 6.906.75 14.5S6.906 28.25 14.5 28.25c.355 0 .708-.014 1.057-.04a.75.75 0 0 0-.114-1.496c-.311.024-.626.036-.943.036-6.766 0-12.25-5.484-12.25-12.25z" fill="#181B2B"/><path d="M14.5 7.75a.75.75 0 0 1 .75.75v6a.75.75 0 0 1-.75.75h-6a.75.75 0 0 1 0-1.5h5.25V8.5a.75.75 0 0 1 .75-.75z" fill="#181B2B"/><path fill-rule="evenodd" clip-rule="evenodd" d="M18.75 20.5c0-1.265 1.006-2.21 2.172-2.792 1.21-.605 2.83-.958 4.578-.958 1.748 0 3.368.353 4.578.958 1.166.583 2.172 1.527 2.172 2.792v8c0 1.266-1.006 2.21-2.172 2.792-1.21.605-2.83.958-4.578.958-1.748 0-3.368-.353-4.578-.958-1.166-.583-2.172-1.526-2.172-2.792v-8zm1.5 0c0-.391.337-.948 1.343-1.45.961-.481 2.341-.8 3.907-.8 1.566 0 2.946.319 3.907.8 1.006.502 1.343 1.059 1.343 1.45s-.337.948-1.343 1.45c-.961.481-2.341.8-3.907.8-1.566 0-2.946-.319-3.907-.8-1.006-.502-1.343-1.059-1.343-1.45zm10.5 2.4v1.6c0 .391-.337.948-1.343 1.45-.96.481-2.341.8-3.907.8-1.566 0-2.946-.319-3.907-.8-1.006-.502-1.343-1.059-1.343-1.45v-1.6c.213.145.44.276.672.392 1.21.605 2.83.958 4.578.958 1.748 0 3.368-.353 4.578-.958.233-.116.459-.247.672-.392zm-10.5 5.6v-1.6c.213.145.44.276.672.392 1.21.605 2.83.958 4.578.958 1.748 0 3.368-.353 4.578-.958.233-.116.459-.247.672-.391V28.5c0 .391-.337.948-1.343 1.45-.96.481-2.341.8-3.907.8-1.566 0-2.946-.319-3.907-.8-1.006-.502-1.343-1.059-1.343-1.45z" fill="#181B2B"/></svg>