<svg width="28" height="30" fill="none" xmlns="http://www.w3.org/2000/svg"><path d="M19.737 14.155c8.894 2.242-.204 11.867-5.674 11.867-5.47 0-10.12-3.59-11.464-7.812-1.344-4.222-1.8-5.765 2.72-9.43 4.521-3.666 5.523 3.134 14.418 5.375z" fill="#E7EAF3"/><path d="M23.912 13.565a9.205 9.205 0 1 0-8.47 9.885m-.205-13.194v4.016a.502.502 0 0 1-.502.502h-4.017m15.45 4.85c-.143.097-.85.456-1.005.534-.81.405-1.895.64-3.065.64s-2.254-.235-3.064-.64a17.216 17.216 0 0 1-.951-.534m-.16 2.653c.143.097.955.48 1.11.558.81.405 1.895.642 3.065.642s2.255-.236 3.065-.642c.156-.077.862-.461 1.005-.558m-7.134-5.858c-.78.39-1.454 1.022-1.454 1.87v5.355c0 .847.673 1.479 1.454 1.87.81.404 1.894.64 3.064.64 1.17 0 2.255-.236 3.065-.64.78-.391 1.454-1.023 1.454-1.87v-5.355c0-.848-.674-1.48-1.454-1.87-.81-.405-1.895-.64-3.065-.64s-2.254.235-3.064.64z" stroke="#505573" stroke-width="1.5" stroke-miterlimit="10" stroke-linecap="round" stroke-linejoin="round"/></svg>