<svg width="28" height="30" viewBox="0 0 28 30" fill="none" xmlns="http://www.w3.org/2000/svg">
  <g clip-path="url(#clip0)">
    <path d="M0.341572 10.9363C1.83689 7.47017 7.68203 9.0912 11.8876 9.09123C16.0932 9.09126 20.1704 12.5692 20.6377 18.3462C21.105 24.1231 15.7618 26.3412 13.4254 27.304C11.0889 28.2669 7.35065 27.7855 4.54692 27.7855C1.7432 27.7855 -0.593002 22.49 2.21072 20.5644C5.01444 18.6388 -1.52758 15.2689 0.341572 10.9363Z" fill="#EDF8F5"/>
    <path d="M12.354 5.54897L5.84767 13.2041L10.4213 28.803L26.5375 24.0777L21.9639 8.4788L12.354 5.54897Z" stroke="#14C393" stroke-width="1.5" stroke-linecap="round" stroke-linejoin="round"/>
    <path d="M14.5928 23.7043L20.5617 21.9542" stroke="#14C393" stroke-width="1.5" stroke-linecap="round" stroke-linejoin="round"/>
    <path d="M13.8438 21.1479L19.8127 19.3978" stroke="#14C393" stroke-width="1.5" stroke-linecap="round" stroke-linejoin="round"/>
    <circle cx="14.978" cy="14.5027" r="2.17709" transform="rotate(-16.3413 14.978 14.5027)" stroke="#14C393" stroke-width="1.5" stroke-linecap="round" stroke-linejoin="round"/>
    <path d="M11.0043 6.47535C10.5594 4.59828 9.80547 0.878065 11.2109 0.709093C13.0435 0.488757 16.3467 12.8334 15.4388 14.0506C15.3703 14.1763 15.2332 14.4278 14.6509 14.5986" stroke="#14C393" stroke-width="1.5" stroke-linecap="round" stroke-linejoin="round"/>
  </g>
  <defs>
    <clipPath id="clip0">
      <rect width="28" height="30" fill="white"/>
    </clipPath>
  </defs>
</svg>
