<svg width="28" height="30" fill="none" xmlns="http://www.w3.org/2000/svg"><g clip-path="url(#clip0)"><path d="M.342 10.936c1.495-3.466 7.34-1.845 11.546-1.845 4.205 0 8.282 3.478 8.75 9.255.467 5.777-4.876 7.995-7.213 8.958-2.336.963-6.074.482-8.878.482-2.804 0-5.14-5.296-2.336-7.222C5.014 18.64-1.528 15.27.34 10.936z" fill="#E7EAF3"/><path fill-rule="evenodd" clip-rule="evenodd" d="M11.524 5.366c-.164-.786-.317-1.678-.362-2.457-.033-.567-.003-1.002.079-1.277a.997.997 0 0 1 .034-.098c.03.03.064.067.102.113.208.251.453.657.72 1.209.285.592.575 1.308.855 2.091l-.38-.115a.75.75 0 0 0-.79.231l-.258.303zM10.32 6.783a.751.751 0 0 1-.046-.135c-.223-.941-.537-2.396-.61-3.653-.035-.62-.018-1.264.14-1.792.16-.536.538-1.145 1.317-1.238.337-.041.63.072.849.21.216.136.403.322.563.516.32.387.627.919.914 1.512.442.915.878 2.066 1.272 3.283l7.463 2.275a.75.75 0 0 1 .5.507l4.574 15.599a.75.75 0 0 1-.509.93l-16.116 4.726a.75.75 0 0 1-.93-.509L5.127 13.415a.75.75 0 0 1 .148-.697l5.045-5.935zm3.204-.093l-.918-.28-5.926 6.971 4.249 14.491 14.677-4.303-4.249-14.49-6.119-1.866c.402 1.441.73 2.89.92 4.09.031.192.058.379.082.56a2.927 2.927 0 1 1-1.555-.272l-.008-.052c-.204-1.286-.581-2.905-1.045-4.487a41.887 41.887 0 0 0-.108-.362zm1.317 6.392a1.427 1.427 0 1 0 1.44.841 1.503 1.503 0 0 1-.204.522 1.57 1.57 0 0 1-.35.43c-.213.184-.494.334-.866.443a.75.75 0 0 1-.422-1.44c.21-.06.289-.122.307-.138l.013-.012.02-.036a.736.736 0 0 1 .027-.045.686.686 0 0 0 .014-.068 2.702 2.702 0 0 0 .021-.497zm-.968 10.833a.75.75 0 0 1 .509-.93l5.969-1.75a.75.75 0 1 1 .422 1.439l-5.97 1.75a.75.75 0 0 1-.93-.509zm-.241-3.487a.75.75 0 0 0 .422 1.44l5.969-1.75a.75.75 0 1 0-.422-1.44l-5.97 1.75z" fill="#505573"/></g><defs><clipPath id="clip0"><path fill="#fff" d="M0 0h28v30H0z"/></clipPath></defs></svg>