<svg width="33" height="31" fill="none" xmlns="http://www.w3.org/2000/svg"><path d="M2 6.5L4 8h24v21H6a4 4 0 0 1-4-4V6.5z" fill="#E7EAF3"/><path d="M22 18.5a2.5 2.5 0 0 1 2.5-2.5H31v5h-6.5a2.5 2.5 0 0 1-2.5-2.5z" fill="#fff"/><path fill-rule="evenodd" clip-rule="evenodd" d="M4.5.75A3.75 3.75 0 0 0 .75 4.5v21a4.75 4.75 0 0 0 4.75 4.75h23a.75.75 0 0 0 .75-.75v-7.25h2.25a.75.75 0 0 0 .75-.75v-6a.75.75 0 0 0-.75-.75h-2.25V7.5a.75.75 0 0 0-.75-.75h-24a2.25 2.25 0 1 1 0-4.5h17.25V3.5a.75.75 0 0 0 1.5 0v-2a.75.75 0 0 0-.75-.75h-18zm0 7.5a3.733 3.733 0 0 1-2.25-.75v18a3.25 3.25 0 0 0 3.25 3.25h22.25v-6.5H24.5a3.75 3.75 0 1 1 0-7.5h3.25v-6.5H4.5zm26.25 12.5H24.5a2.25 2.25 0 1 1 0-4.5h6.25v4.5z" fill="#181B2B"/></svg>