<svg width="32" height="32" fill="none" xmlns="http://www.w3.org/2000/svg"><path d="M30.5 16c0 8.008-6.492 14.5-14.5 14.5S1.5 24.008 1.5 16 7.992 1.5 16 1.5 30.5 7.992 30.5 16z" fill="#fff"/><path d="M11.5 9.5L4 24.5l8-4c2.238 1.12 5.5 3.5 8.5 5 4-2.5 8.233-5.895 10-7 .4-6-2.167-10.167-3.5-11.5l-6.5 9.5-9-7z" fill="#E7EAF3"/><path fill-rule="evenodd" clip-rule="evenodd" d="M16 31.25a15.219 15.219 0 0 1-11.764-5.545l-2.065 4.13a.75.75 0 0 1-1.342-.67l2.408-4.815A15.179 15.179 0 0 1 .75 16C.75 7.578 7.578.75 16 .75c4.397 0 8.36 1.86 11.142 4.838l1.742-2.515a.75.75 0 0 1 1.233.854l-1.972 2.848A15.183 15.183 0 0 1 31.25 16c0 8.422-6.828 15.25-15.25 15.25zM2.25 16C2.25 8.406 8.406 2.25 16 2.25a13.72 13.72 0 0 1 10.267 4.603l-5.932 8.568-8.374-6.513a.75.75 0 0 0-1.132.257L7.037 16.75H2.27a13.97 13.97 0 0 1-.02-.75zm.183 2.25a13.658 13.658 0 0 0 1.595 4.517l.801-1.602a.75.75 0 1 1 1.342.67l-1.193 2.387A13.73 13.73 0 0 0 16 29.75c6.178 0 11.405-4.075 13.139-9.684l-8.194 6.038a.75.75 0 0 1-.838.035L7.287 18.25H2.434zm27.194-.4c.081-.606.123-1.223.123-1.85 0-2.949-.928-5.68-2.509-7.92l-6.124 8.847a.75.75 0 0 1-1.077.165l-8.278-6.438-3.284 6.567 11.984 7.375 9.093-6.7a.757.757 0 0 1 .072-.047z" fill="#1C1F31"/></svg>