<svg width="30" height="33" fill="none" xmlns="http://www.w3.org/2000/svg"><path d="M2 2h22.5v29H2V2z" fill="#E7EAF3"/><path d="M8 27h20v1a3 3 0 0 1-3 3H7l1-2v-2z" fill="#fff"/><path fill-rule="evenodd" clip-rule="evenodd" d="M.75 1.5A.75.75 0 0 1 1.5.75h23a.75.75 0 0 1 .75.75v21a.75.75 0 0 1-1.5 0V2.25H2.25V28.5a2.25 2.25 0 1 0 4.5 0v-2a.75.75 0 0 1 .75-.75h21a.75.75 0 0 1 .75.75v2a3.75 3.75 0 0 1-3.75 3.75h-21A3.75 3.75 0 0 1 .75 28.5v-27zM7.5 30.75h18a2.25 2.25 0 0 0 2.25-2.25v-1.25H8.25v1.25c0 .844-.279 1.623-.75 2.25z" fill="#181B2B"/><path d="M6.75 7.5a.75.75 0 0 1 .75-.75h11a.75.75 0 0 1 0 1.5h-11a.75.75 0 0 1-.75-.75zM6.75 13.5a.75.75 0 0 1 .75-.75h11a.75.75 0 0 1 0 1.5h-11a.75.75 0 0 1-.75-.75zM6.75 19.5a.75.75 0 0 1 .75-.75h11a.75.75 0 0 1 0 1.5h-11a.75.75 0 0 1-.75-.75z" fill="#181B2B"/></svg>