<svg width="28" height="30" fill="none" xmlns="http://www.w3.org/2000/svg"><path d="M2.394 8.41c3-4 12.63-7.21 16.464-4.587 3.834 2.623 2.541 21.39-3.62 16.949-6.162-4.442-5.752 4.67-9.581 3.524C1.827 23.15-.606 12.41 2.394 8.41z" fill="#E7EAF3"/><path d="M11.18 22.307h14.034a2.807 2.807 0 0 1-2.807 2.807h-11.93l.702-1.403v-1.404z" fill="#fff"/><path d="M23.506 20.445V7.112a.47.47 0 0 0-.464-.476H7.97a.47.47 0 0 0-.463.476v17.143c0 1.315.364 2.381 1.643 2.381h12.04c1.279 0 2.36-1.452 2.316-3.175h-12.04v.794c0 .536-.233 1.833-1.113 2.286m1.322-15.762h7.709m-7.71 3.81h7.71m-7.71 3.809h7.71" stroke="#505573" stroke-width="1.5" stroke-miterlimit="10" stroke-linecap="round" stroke-linejoin="round"/></svg>