<svg width="17" height="16" viewBox="0 0 17 16" fill="none" xmlns="http://www.w3.org/2000/svg">
<rect x="0.0244141" width="16" height="16" rx="2" fill="#E5EAFF"/>
<path fillRule="evenodd" clipRule="evenodd" d="M8.02441 5H6.02441V6V10V11H8.02441V10H9.02441V11C9.02441 11.5523 8.5767 12 8.02441 12H6.02441C5.47213 12 5.02441 11.5523 5.02441 11V5C5.02441 4.44772 5.47213 4 6.02441 4H8.02441C8.5767 4 9.02441 4.44772 9.02441 5V6H8.02441V5ZM9.70161 6.14727C9.89576 5.95091 10.2106 5.95091 10.4047 6.14727L11.8834 7.64269C12.0775 7.83904 12.0775 8.1574 11.8834 8.35376L10.4047 9.84918C10.2106 10.0455 9.89576 10.0455 9.70161 9.84918C9.50745 9.65282 9.50745 9.33446 9.70161 9.1381L10.3326 8.49993H7.24438C6.96824 8.49993 6.74438 8.27607 6.74438 7.99993C6.74438 7.72378 6.96824 7.49993 7.24438 7.49993L10.336 7.49993L9.70161 6.85835C9.50745 6.66199 9.50745 6.34363 9.70161 6.14727Z" fill="#5275FF"/>
</svg>
