
<svg width="554" height="737" viewBox="0 0 554 737" fill="none" xmlns="http://www.w3.org/2000/svg">
<g opacity="0.12" filter="url(#filter0_f)">
<path d="M455.092 333.589C405.35 253.242 378.247 166.225 413.287 128.989C448.327 91.7537 501.403 196.792 579.483 192.419C657.563 188.046 606.231 302.517 591.217 338.942C576.203 375.367 504.834 413.935 455.092 333.589Z" fill="#5275FF"/>
</g>
<g opacity="0.12" filter="url(#filter1_f)">
<path d="M379.504 189.184C393.085 326.705 530.877 277.653 551.88 353.283C572.882 428.912 374.811 598.337 269.838 616.008C164.864 633.678 425.804 374.505 192.318 278.473C-41.1668 182.44 365.922 51.6637 379.504 189.184Z" fill="#72FFFF"/>
</g>
<defs>
<filter id="filter0_f" x="277.437" y="0.987061" width="464.245" height="499.914" filterUnits="userSpaceOnUse" color-interpolation-filters="sRGB">
<feFlood flood-opacity="0" result="BackgroundImageFix"/>
<feBlend mode="normal" in="SourceGraphic" in2="BackgroundImageFix" result="shape"/>
<feGaussianBlur stdDeviation="60" result="effect1_foregroundBlur"/>
</filter>
<filter id="filter1_f" x="0.21344" y="9.61194" width="673.213" height="727.256" filterUnits="userSpaceOnUse" color-interpolation-filters="sRGB">
<feFlood flood-opacity="0" result="BackgroundImageFix"/>
<feBlend mode="normal" in="SourceGraphic" in2="BackgroundImageFix" result="shape"/>
<feGaussianBlur stdDeviation="60" result="effect1_foregroundBlur"/>
</filter>
</defs>
</svg>
