<svg width="24" height="24" fill="none" xmlns="http://www.w3.org/2000/svg"><path fill-rule="evenodd" clip-rule="evenodd" d="M4.916 13.29l2.26-.971A4.729 4.729 0 0 1 6.25 9.5v-1a4.75 4.75 0 0 1 9.5 0v1a4.73 4.73 0 0 1-.93 2.825l2.263.966c.036.016.07.031.104.048a5 5 0 0 0-1.554.964l-1.996-.852A4.727 4.727 0 0 1 11 14.25c-.98 0-1.89-.296-2.646-.805L5.508 14.67c-.46.198-.758.65-.758 1.15v.93h9.408a5.006 5.006 0 0 0-.152 1.5H4a.75.75 0 0 1-.75-.75v-1.68c0-1.1.656-2.094 1.666-2.528zm4.004-1.292a3.236 3.236 0 0 0 2.08.752 3.25 3.25 0 0 0 3.25-3.25v-1a3.25 3.25 0 0 0-6.5 0v1c0 1.004.455 1.901 1.17 2.498zM19.01 20.204l-.528.529a.755.755 0 0 1-1.068 0l-1.694-1.694a.751.751 0 1 1 1.062-1.062l1.165 1.165 3.422-3.422a.751.751 0 0 1 1.062 1.062l-3.422 3.422z" fill="#fff"/></svg>