<svg width="24" height="24" fill="none" xmlns="http://www.w3.org/2000/svg"><g clip-path="url(#clip0)" fill-rule="evenodd" clip-rule="evenodd" fill="#fff"><path d="M4.916 13.29l2.26-.971A4.729 4.729 0 0 1 6.25 9.5v-1a4.75 4.75 0 0 1 9.5 0v1a4.73 4.73 0 0 1-.93 2.825l2.263.966c.036.016.07.031.104.048a5 5 0 0 0-1.554.964l-1.996-.852A4.727 4.727 0 0 1 11 14.25c-.98 0-1.89-.296-2.646-.805L5.508 14.67c-.46.198-.758.65-.758 1.15v.93h9.408a5.006 5.006 0 0 0-.152 1.5H4a.75.75 0 0 1-.75-.75v-1.68c0-1.1.656-2.094 1.666-2.528zm4.004-1.292a3.236 3.236 0 0 0 2.08.752 3.25 3.25 0 0 0 3.25-3.25v-1a3.25 3.25 0 0 0-6.5 0v1c0 1.004.455 1.901 1.17 2.498zM18.41 15.25a.649.649 0 0 0 0 1.297h1.632l-3.394 3.393a.65.65 0 1 0 .92.92l3.327-3.328v1.5a.649.649 0 0 0 1.298 0v-3.133a.649.649 0 0 0-.65-.65H18.41z"/></g><defs><clipPath id="clip0"><path fill="#fff" d="M0 0h24v24H0z"/></clipPath></defs></svg>