<svg width="32" height="32" fill="none" xmlns="http://www.w3.org/2000/svg"><path fill-rule="evenodd" clip-rule="evenodd" d="M8.916 17.29l2.26-.971a4.728 4.728 0 0 1-.926-2.819v-1a4.75 4.75 0 0 1 9.5 0v1a4.73 4.73 0 0 1-.93 2.825l2.263.966c.036.016.07.031.104.048a5 5 0 0 0-1.554.964l-1.996-.852A4.727 4.727 0 0 1 15 18.25c-.98 0-1.89-.296-2.646-.805L9.508 18.67c-.46.198-.758.65-.758 1.15v.93h9.408a5.006 5.006 0 0 0-.152 1.5H8a.75.75 0 0 1-.75-.75v-1.68c0-1.1.656-2.094 1.666-2.528zm4.004-1.292a3.236 3.236 0 0 0 2.08.752 3.25 3.25 0 0 0 3.25-3.25v-1a3.25 3.25 0 0 0-6.5 0v1c0 1.004.455 1.901 1.17 2.498zM22.41 19.25a.649.649 0 0 0 0 1.297h1.632l-3.394 3.393a.65.65 0 1 0 .92.92l3.327-3.328v1.5a.649.649 0 0 0 1.298 0v-3.133a.649.649 0 0 0-.65-.65H22.41z" fill="#14C393"/></svg>