<svg width="317" height="350" viewBox="0 0 317 350" fill="none" xmlns="http://www.w3.org/2000/svg">
<path d="M283.033 1.01286L193.957 478.231M373.213 440.472L103.777 38.7767M436.596 100.899L40.3934 378.348M475.337 283.83L1.65331 195.414M189.845 167.094L254.449 154.15L310.161 189.438L322.156 255.238L287.144 312.155L222.541 325.093L167.55 289.304L155.647 224.158L189.845 167.094ZM147.238 103.572L268.409 79.3622L372.714 145.634L395.965 269.015L329.775 375.712L208.582 399.881L104.419 333.513L81.7789 210.37L147.238 103.572ZM113.532 53.3205L279.488 20.0066L422.516 110.759L455.306 280.091L363.558 426.078L197.465 459.439L54.7384 368.303L22.5564 199.316L113.532 53.3205Z" stroke="#222639" stroke-width="2" stroke-linecap="round"/>
</svg>
