<svg width="434" height="151" fill="none" xmlns="http://www.w3.org/2000/svg"><path d="M1 52.703c11.754-.75 23.46-1.327 33.236-7.456C57.762 30.498 62.398 1 79.576 1c22.67 0 26.092 39.226 56.889 37.03 28.613-2.041 41.28 41.396 64.161 38.598C223.723 73.804 253.237 1 275.479 1c27.803 0 18.801 49.261 44.485 37.03 48.762-23.222 42.592 20.083 85.949 20.083 15.067 0 21.542-17.279 27.087-36.62" stroke="#D2D6E7" stroke-width="1.5" stroke-linecap="round" stroke-dasharray="2 4"/><path d="M79.576 1c-17.178 0-21.814 29.498-45.34 44.247C24.461 51.376 12.754 51.953 1 52.703V151h432V21.493c-5.545 19.341-12.02 36.62-27.087 36.62-43.357 0-37.187-43.305-85.949-20.084C294.28 50.261 303.282 1 275.479 1c-22.242 0-51.756 72.804-74.853 75.628-22.881 2.798-35.548-40.64-64.161-38.599C105.668 40.227 102.246 1 79.576 1z" fill="url(#paint0_linear)"/><defs><linearGradient id="paint0_linear" x1="217" y1="1" x2="217" y2="151" gradientUnits="userSpaceOnUse"><stop stop-color="#D2D6E6" stop-opacity=".2"/><stop offset="1" stop-color="#fff" stop-opacity="0"/></linearGradient></defs></svg>