<svg xmlns="http://www.w3.org/2000/svg" width="1111" height="372" fill="none">
  <path fill="#fff" d="M102 25c15 18 6 38-6 55-12 16-45 33-67 15C6 78 4 52 22 29c18-22 66-23 80-4zm5-3C91 5 39 4 20 28 1 51 4 78 27 97c24 19 58 7 77-16s20-42 3-59z"/>
  <path fill="#fff" d="M183-26c16 13 20 35 21 61 1 41-16 87-49 118-37 34-70 15-106-6-20-12-39-23-62-28-14-3-28-10-39-19-19-15-32-37-36-62-4-23-1-46 9-61C-52-63 1-56 57-49c22 3 46 6 67 6 25 0 44 6 59 17zm1-2a93 93 0 0 0-60-17C48-45-41-82-81-24c-21 31-14 93 28 126 11 9 24 16 40 19 65 15 111 87 169 34 54-49 77-144 28-183z"/>
  <path fill="#fff" d="M270-64c25 20 38 51 39 91 1 72-39 157-98 206-58 49-100 17-150-21-33-25-67-51-110-56-30-3-56-13-78-31a163 163 0 0 1-59-141c2-15 6-28 12-37 17-27 42-41 79-45 33-4 71 0 112 5 47 6 94 12 141 6 48-6 86 2 112 23zm1-2c-25-20-62-29-114-23-128 16-274-58-333 34-26 41-14 132 48 182 20 16 47 28 79 32 106 12 168 163 267 80 91-77 131-243 53-305z"/>
  <path fill="#fff" d="M389-95c34 27 44 71 39 127a437 437 0 0 1-217 328c-78 41-147 34-221-25-51-41-93-95-132-147l-7-10-33-44c-77-99-143-185-79-287 35-57 75-84 128-85 48-1 102 20 165 43 74 28 157 59 256 66 43 3 77 15 101 34zm1-1c-23-18-57-31-102-34-268-18-429-219-550-24-73 118 23 213 112 333 40 53 86 117 140 161 63 50 137 74 228 26C355 294 516 5 390-96z"/>
  <path fill="#fff" d="M389-95c34 27 44 71 39 127a437 437 0 0 1-217 328c-78 41-147 34-221-25-51-41-93-95-132-147l-7-10-33-44c-77-99-143-185-79-287 35-57 75-84 128-85 48-1 102 20 165 43 74 28 157 59 256 66 43 3 77 15 101 34zm1-1c-23-18-57-31-102-34-268-18-429-219-550-24-73 118 23 213 112 333 40 53 86 117 140 161 63 50 137 74 228 26C355 294 516 5 390-96z"/>
  <path fill="#fff" d="M520-128c22 18 28 27 39 48 10 20 31 58 24 135-6 77-35 135-87 213a881 881 0 0 1-275 227 312 312 0 0 1-317-42 475 475 0 0 1-152-255c-21-80-54-137-83-187-50-86-86-148-16-263 114-186 225-131 393-48 98 48 220 108 373 132 42 6 76 20 101 40zm1-2c-24-19-58-33-102-40-407-63-585-382-767-83-112 182 41 233 98 452 27 105 79 197 152 256 83 66 192 89 320 42 73-27 207-123 279-226 103-147 123-319 20-401z"/>
  <path fill="#fff" d="M650-95c118 95 93 205 73 273s-55 130-102 184c-44 51-98 99-156 141-121 85-248 132-341 126-104-6-190-38-263-96-101-81-162-201-220-316l-45-87c-40-74-67-153-77-229-11-77-4-147 20-202a208 208 0 0 1 140-121c147-39 289-31 447 26A2146 2146 0 0 1 649-95h1zm1-2l-16-12C254-380-20-504-322-424c-202 53-207 329-84 555 75 138 138 301 265 403 67 54 152 90 264 98 293 18 847-473 528-729z"/>
  <path fill="#fff" d="M632-277l-2 2c78 62 150 137 219 229 59 78 82 161 79 246-3 76-25 150-77 225a885 885 0 0 1-385 291c-162 66-323 84-441 48a624 624 0 0 1-360-281c-39-62-68-128-97-191-39-86-75-166-128-230-56-66-85-160-84-266 2-99 31-198 79-273 32-49 72-85 116-106 48-23 100-26 154-10 98 28 194 48 286 66 224 45 435 88 639 252l2-2zm0 0C341-510 37-498-295-595c-296-87-461 427-267 659 131 157 163 425 373 592 56 46 126 84 214 110C416 885 1192 405 851-47c-72-96-145-171-219-230z"/>
</svg>
