<svg width="372" height="324" viewBox="0 0 372 324" fill="none" xmlns="http://www.w3.org/2000/svg">
<path d="M136.22 -49.5904L235.984 322.733M351.429 234.251L20.7768 38.895M280.44 -30.6823L91.765 303.827M370.885 87.0587L1.31981 186.083M126.4 101.299L168.234 69.8863L220.231 76.065L251.374 119.082L245.806 171.846L203.97 203.255L152.318 196.47L121.465 153.891L126.4 101.299ZM74.1124 70.4067L152.6 11.5372L250.019 23.253L308.96 103.652L298.122 202.756L219.605 261.604L122.254 249.771L63.8333 169.333L74.1124 70.4067ZM32.7484 45.9681L140.191 -34.7716L273.735 -18.7946L355.256 91.2463L339.58 227.25L232.055 308.07L98.5962 291.715L17.6283 181.714L32.7484 45.9681Z" stroke="var(--porcelain, #222639)" stroke-width="2" stroke-linecap="round"/>
</svg>
