<?xml version="1.0" standalone="no"?>
<!DOCTYPE svg PUBLIC "-//W3C//DTD SVG 20010904//EN"
 "http://www.w3.org/TR/2001/REC-SVG-20010904/DTD/svg10.dtd">
<svg version="1.0" xmlns="http://www.w3.org/2000/svg"
 width="700.000000pt" height="700.000000pt" viewBox="0 0 700.000000 700.000000"
 preserveAspectRatio="xMidYMid meet">
<metadata>
Created by potrace 1.11, written by Peter Selinger 2001-2013
</metadata>
<g transform="translate(0.000000,700.000000) scale(0.100000,-0.100000)"
fill="#000000" stroke="none">
<path d="M3215 6730 c-652 -58 -1271 -308 -1780 -716 -128 -103 -350 -321
-452 -444 -409 -492 -657 -1068 -739 -1715 -22 -170 -25 -556 -5 -720 74 -638
295 -1182 683 -1684 106 -135 392 -424 527 -530 509 -402 1106 -642 1744 -702
184 -17 594 -7 762 19 533 83 1007 273 1425 572 1310 937 1748 2668 1039 4105
-325 659 -854 1184 -1514 1501 -328 157 -639 249 -1010 299 -142 19 -535 28
-680 15z m591 -275 c365 -39 669 -127 1009 -295 436 -215 790 -509 1081 -899
632 -847 768 -1962 359 -2950 -227 -550 -668 -1066 -1189 -1389 -613 -381
-1358 -527 -2072 -407 -822 139 -1537 603 -2004 1300 -244 365 -401 777 -471
1235 -18 120 -22 190 -23 405 -1 283 8 383 54 615 143 716 552 1361 1145 1806
316 237 663 403 1062 505 136 34 362 73 483 82 131 10 436 5 566 -8z"/>
<path d="M3280 5006 c-285 -61 -471 -226 -535 -473 -22 -88 -36 -255 -29 -343
14 -172 47 -272 130 -397 96 -144 214 -248 417 -365 480 -278 609 -437 594
-733 -6 -123 -26 -180 -82 -243 -86 -96 -214 -142 -393 -142 -172 0 -361 45
-530 126 -41 20 -75 34 -77 32 -5 -5 -135 -369 -135 -379 0 -13 135 -75 237
-108 127 -42 234 -60 404 -70 295 -17 482 20 663 133 258 161 385 456 347 801
-23 202 -69 322 -186 477 -99 131 -224 236 -440 368 -429 261 -525 377 -513
616 9 158 65 246 192 298 46 19 70 21 231 20 200 -1 247 -9 426 -79 52 -20
100 -37 108 -38 10 -1 31 50 72 176 l57 178 -73 34 c-93 43 -176 70 -295 96
-125 27 -489 36 -590 15z"/>
<path d="M1430 3885 c-103 -29 -184 -97 -238 -198 -24 -47 -27 -62 -27 -157 0
-94 3 -111 27 -160 35 -70 107 -143 176 -177 64 -31 176 -42 249 -24 210 52
331 289 252 496 -31 83 -121 173 -203 204 -79 29 -166 35 -236 16z"/>
<path d="M5384 3890 c-111 -23 -214 -105 -262 -208 -24 -50 -27 -69 -27 -157
0 -93 2 -104 32 -160 38 -73 99 -133 173 -171 50 -26 65 -29 155 -29 88 0 107
3 157 27 192 90 271 327 170 511 -74 136 -250 219 -398 187z"/>
</g>
</svg>
