<svg width="674" height="220" viewBox="0 0 674 220" fill="none" xmlns="http://www.w3.org/2000/svg">
<path d="M625.5 61.5C646.656 61.5 643.367 71.8441 643.367 93C643.367 114.156 635.156 138.5 614 138.5C592.844 138.5 579.633 124.656 579.633 103.5C579.633 82.3441 604.344 61.5 625.5 61.5ZM625.5 59.8673C603.409 59.8673 578 81.4086 578 103.5C578 125.591 591.909 140.133 614 140.133C636.091 140.133 645 115.091 645 93C645 70.9086 647.591 59.8673 625.5 59.8673Z" fill="url(#paint0_linear)"/>
<path d="M646.93 -2.52048C662.268 -2.52048 676.729 4.93088 688.748 19.0253C708.828 42.5773 718.744 80.6247 713.418 113.702C707.477 150.599 680.707 154.431 649.71 158.867C633.395 161.202 616.522 163.617 601.149 171.036C591.115 175.878 580.629 178.334 569.984 178.334C552.234 178.334 534.576 171.507 520.26 159.108C507.19 147.791 498.783 133.184 497.768 120.034C495.017 84.3348 528.536 63.8915 564.021 42.2471C578.199 33.5995 592.858 24.6578 605.379 14.5463C619.398 3.22211 633.379 -2.52048 646.93 -2.52048ZM646.93 -4.16357C633.826 -4.16357 619.454 1.06308 604.344 13.2679C560.825 48.4202 492.169 68.7748 496.129 120.161C498.242 147.577 530.874 179.977 569.984 179.977C580.305 179.977 591.084 177.718 601.865 172.516C646.303 151.07 705.739 171.745 715.043 113.965C723.592 60.8551 693.148 -4.16357 646.93 -4.16357Z" fill="url(#paint1_linear)"/>
<path d="M679.305 -64.5685C702.82 -64.5685 725.177 -52.5181 743.962 -29.7202C777.635 11.1483 793.59 78.3161 782.762 133.617C771.998 188.595 732.538 189.612 686.848 190.792C656.164 191.584 624.435 192.402 597.431 209.392C578.776 221.128 558.841 227.08 538.185 227.08C511.85 227.08 485.23 217.282 463.228 199.489C453.561 191.671 445.264 182.585 439.235 173.209C433.271 163.936 429.649 154.58 428.761 146.154C426.332 123.102 434.126 103.327 453.288 83.9207C470.575 66.4136 494.979 51.3235 520.814 35.3461C550.115 17.2278 580.412 -1.50839 604.444 -26.0545C629.463 -51.6094 654.647 -64.5685 679.302 -64.5717H679.305V-64.5685ZM679.296 -66.2115C655.995 -66.2083 630.205 -54.7133 603.269 -27.1997C536.677 40.8192 418.645 65.8369 427.125 146.33C430.844 181.642 479.902 228.724 538.185 228.724C557.644 228.724 578.136 223.473 598.308 210.783C665.292 168.64 766.092 227.318 784.375 133.935C801.317 47.4146 752.57 -66.2214 679.296 -66.2115Z" fill="url(#paint2_linear)"/>
<path d="M734.104 -137.213C766.287 -137.213 795.317 -118.881 818.053 -84.1967C841.609 -48.2657 858.085 5.21185 863.262 62.526C868.315 118.485 862.264 171.1 846.66 206.88C820.513 266.836 774.011 295.981 704.496 295.981C656.186 295.981 604.39 282.271 558.692 270.174C555.722 269.389 552.779 268.609 549.867 267.841C536.626 264.353 523.404 261.118 510.616 257.989C420.809 236.021 343.739 216.362 333 128C327.089 79.2923 340.008 43.8869 367.364 21.1958C394.72 -1.49521 435.334 -14.7533 482.362 -30.103C537.628 -48.1441 600.266 -68.5907 660.31 -110.11C686.317 -128.092 711.144 -137.211 734.099 -137.213H734.104ZM734.101 -138.034C712.042 -138.033 687.273 -129.751 659.845 -110.787C497.03 1.79257 311.263 -39.5524 331.696 128.785C344.044 230.382 443.56 240.679 549.658 268.635C597.283 281.183 652.925 296.801 704.496 296.801C763.563 296.801 817.284 276.297 847.414 207.206C893.16 102.31 852.94 -138.037 734.101 -138.034Z" fill="url(#paint3_linear)"/>
<path d="M734.104 -137.213C766.287 -137.213 795.317 -118.881 818.053 -84.1967C841.609 -48.2657 858.085 5.21185 863.262 62.526C868.315 118.485 862.264 171.1 846.66 206.88C820.513 266.836 774.011 295.981 704.496 295.981C656.186 295.981 604.39 282.271 558.692 270.174C555.722 269.389 552.779 268.609 549.867 267.841C536.626 264.353 523.404 261.118 510.616 257.989C420.809 236.021 343.739 216.362 333 128C327.089 79.2923 340.008 43.8869 367.364 21.1958C394.72 -1.49521 435.334 -14.7533 482.362 -30.103C537.628 -48.1441 600.266 -68.5907 660.31 -110.11C686.317 -128.092 711.144 -137.211 734.099 -137.213H734.104ZM734.101 -138.034C712.042 -138.033 687.273 -129.751 659.845 -110.787C497.03 1.79257 311.263 -39.5524 331.696 128.785C344.044 230.382 443.56 240.679 549.658 268.635C597.283 281.183 652.925 296.801 704.496 296.801C763.563 296.801 817.284 276.297 847.414 207.206C893.16 102.31 852.94 -138.037 734.101 -138.034Z" fill="url(#paint4_linear)"/>
<path d="M793.929 -216.574C815.404 -216.574 835.359 -209.99 853.24 -197.006C869.856 -184.939 884.803 -167.288 897.665 -144.543C927.991 -90.9138 946.108 -9.56946 947.373 78.6315C948.578 162.682 934.249 237.824 909.044 279.632C860.855 359.563 790.945 401.814 706.87 401.814C640.431 401.814 567.673 374.596 501.996 325.173C453.43 288.628 408.203 270.996 368.301 255.441C299.818 228.744 250.338 209.454 237.897 111.035C217.781 -48.0933 306.963 -67.7347 441.959 -97.468C520.779 -114.829 618.874 -136.434 717.238 -192.95C744.521 -208.625 770.321 -216.574 793.924 -216.577H793.929V-216.574ZM793.919 -218.217C770.885 -218.215 745.087 -210.843 716.417 -194.371C453.32 -43.2067 203.88 -144.937 236.264 111.243C255.996 267.337 367.813 226.26 501.006 326.488C564.911 374.576 637.565 403.458 706.868 403.458C784.685 403.458 858.271 367.033 910.452 280.482C982.608 160.792 959.115 -218.23 793.919 -218.217Z" fill="url(#paint5_linear)"/>
<path d="M883.974 -257.217C995.553 -257.217 1042.32 -183.259 1061.9 -121.214C1074.67 -80.7529 1080.07 -33.4057 1077.96 19.5116C1075.99 68.7894 1067.27 121.58 1052.75 172.177C1022.75 276.717 971.13 362.725 914.657 402.249C851.799 446.243 787.708 467.629 718.725 467.629C623.268 467.629 533.511 426.716 446.709 387.151C424.998 377.255 402.548 367.021 380.785 357.836C323.78 333.778 272.007 300.48 231.064 261.542C189.34 221.861 161.124 178.351 149.466 135.712C143.041 112.213 141.69 89.1391 145.447 67.1349C149.415 43.9 159.115 21.7544 174.276 1.31439C241.042 -88.7038 326.728 -149.424 443.935 -189.775C548.269 -225.693 679.497 -246.368 869.431 -256.81C874.326 -257.079 879.215 -257.216 883.961 -257.216H883.974V-257.217ZM883.964 -258.86C879.194 -258.86 874.313 -258.726 869.344 -258.453C524.803 -239.511 310.167 -184.663 172.957 0.333466C80.9354 124.405 204.895 285.385 380.147 359.348C486.757 404.342 598.366 469.271 718.727 469.271C781.773 469.271 847.239 451.44 915.603 403.593C1092.66 279.678 1185.72 -258.873 883.964 -258.86Z" fill="url(#paint6_linear)"/>
<path d="M789.916 -354V-352.357C863.381 -352.357 939.25 -342.081 1021.86 -320.941C1091.2 -303.196 1145.18 -268.939 1182.29 -219.122C1215.85 -174.074 1235.07 -117.353 1239.42 -50.5349C1246.33 55.4936 1214.39 181.101 1151.78 294.076C1089.14 407.129 1004.71 491.365 920.141 525.183C860.956 548.852 804.298 560.357 746.931 560.357C694.037 560.357 640.432 550.29 583.054 529.582C532.302 511.265 484.956 487.138 439.169 463.806C377.502 432.382 319.258 402.699 259.612 390.6C197.305 377.961 136.706 337.125 88.9796 275.616C44.3204 218.062 15.133 147.531 8.90252 82.11C4.81793 39.2155 10.8675 -0.284302 26.4002 -32.1175C43.6018 -67.3732 71.8223 -93.2601 110.274 -109.055C179.893 -137.655 244.039 -170.72 306.075 -202.698C455.369 -279.655 596.385 -352.344 789.865 -352.357L789.916 -354ZM789.864 -354C515.009 -353.982 345.727 -207.555 109.648 -110.575C-101.232 -23.9464 40.5844 347.847 259.284 392.21C407.344 422.244 548.667 562 746.929 562C800.32 562 857.863 551.857 920.751 526.708C1200.63 414.784 1426.78 -219.019 1022.27 -322.533C936.103 -344.582 859.609 -354.005 789.864 -354Z" fill="url(#paint7_linear)"/>
<circle cx="7" cy="74" r="5" fill="#2F354D" stroke="#181B2B" stroke-width="4"/>
<circle cx="147" cy="130" r="5" fill="#2F354D" stroke="#181B2B" stroke-width="4"/>
<circle cx="235" cy="93" r="5" fill="#2F354D" stroke="#181B2B" stroke-width="4"/>
<circle cx="332" cy="126" r="5" fill="#2F354D" stroke="#181B2B" stroke-width="4"/>
<defs>
<linearGradient id="paint0_linear" x1="512" y1="27.5" x2="512.5" y2="163" gradientUnits="userSpaceOnUse">
<stop stop-color="#181B2B"/>
<stop offset="0.524862" stop-color="#2F354D"/>
<stop offset="1" stop-color="#222639"/>
</linearGradient>
<linearGradient id="paint1_linear" x1="512" y1="27.5" x2="512.5" y2="163" gradientUnits="userSpaceOnUse">
<stop stop-color="#181B2B"/>
<stop offset="0.524862" stop-color="#2F354D"/>
<stop offset="1" stop-color="#222639"/>
</linearGradient>
<linearGradient id="paint2_linear" x1="512" y1="27.5" x2="512.5" y2="163" gradientUnits="userSpaceOnUse">
<stop stop-color="#181B2B"/>
<stop offset="0.524862" stop-color="#2F354D"/>
<stop offset="1" stop-color="#222639"/>
</linearGradient>
<linearGradient id="paint3_linear" x1="512" y1="27.5" x2="512.5" y2="163" gradientUnits="userSpaceOnUse">
<stop stop-color="#181B2B"/>
<stop offset="0.524862" stop-color="#2F354D"/>
<stop offset="1" stop-color="#222639"/>
</linearGradient>
<linearGradient id="paint4_linear" x1="512" y1="27.5" x2="512.5" y2="163" gradientUnits="userSpaceOnUse">
<stop stop-color="#181B2B"/>
<stop offset="0.524862" stop-color="#2F354D"/>
<stop offset="1" stop-color="#222639"/>
</linearGradient>
<linearGradient id="paint5_linear" x1="512" y1="27.5" x2="512.5" y2="163" gradientUnits="userSpaceOnUse">
<stop stop-color="#181B2B"/>
<stop offset="0.524862" stop-color="#2F354D"/>
<stop offset="1" stop-color="#222639"/>
</linearGradient>
<linearGradient id="paint6_linear" x1="512" y1="27.5" x2="512.5" y2="163" gradientUnits="userSpaceOnUse">
<stop stop-color="#181B2B"/>
<stop offset="0.524862" stop-color="#2F354D"/>
<stop offset="1" stop-color="#222639"/>
</linearGradient>
<linearGradient id="paint7_linear" x1="512" y1="27.5" x2="512.5" y2="163" gradientUnits="userSpaceOnUse">
<stop stop-color="#181B2B"/>
<stop offset="0.524862" stop-color="#2F354D"/>
<stop offset="1" stop-color="#222639"/>
</linearGradient>
</defs>
</svg>
