<svg width="40" height="40" viewBox="0 0 40 40" fill="none" xmlns="http://www.w3.org/2000/svg">
<path d="M20 39C30.4934 39 39 30.4934 39 20C39 9.50659 30.4934 1 20 1C9.50659 1 1 9.50659 1 20C1 30.4934 9.50659 39 20 39Z" fill="#1AA168"/>
<path d="M9.46306 22.0062L10.2835 22.825L15.1936 17.925C16.3022 16.8187 16.3022 15.0187 15.1936 13.9062L14.3732 13.0875L9.46306 17.9875C8.34825 19.1 8.34825 20.9 9.46306 22.0062Z" fill="white"/>
<path d="M18.0308 9.44375L17.2103 10.2625L22.1205 15.1625C23.229 16.2688 25.0327 16.2688 26.1476 15.1625L26.968 14.3438L22.0579 9.44375C20.943 8.33125 19.1393 8.33125 18.0308 9.44375Z" fill="white"/>
<path d="M30.6193 17.9937L29.7989 17.175L24.8887 22.075C23.7802 23.1812 23.7802 24.9812 24.8887 26.0937L25.7091 26.9125L30.6193 22.0125C31.7341 20.9 31.7341 19.1 30.6193 17.9937Z" fill="white"/>
<path d="M22.0516 30.5562L22.872 29.7374L17.9619 24.8374C16.8533 23.7312 15.0496 23.7312 13.9348 24.8374L13.1143 25.6562L18.0245 30.5562C19.1393 31.6687 20.943 31.6687 22.0516 30.5562Z" fill="white"/>
</svg>
