<svg xmlns="http://www.w3.org/2000/svg" width="38" height="38" fill="none">
  <path fill="#1AA168" fill-rule="evenodd" d="M38 19a19 19 0 11-38 0 19 19 0 0138 0zM16.21 9.26l.82-.82a2.85 2.85 0 014.03 0l4.9 4.9-.81.82a2.86 2.86 0 01-4.03 0l-4.9-4.9zM9.28 21.82l-.82-.81a2.83 2.83 0 010-4.02l4.91-4.9.82.82a2.84 2.84 0 010 4.02l-4.9 4.9zM29.62 17l-.82-.81-4.91 4.9a2.84 2.84 0 000 4.01l.82.82 4.9-4.9a2.83 2.83 0 000-4.02zm-7.75 11.75l-.82.82a2.85 2.85 0 01-4.03 0l-4.9-4.9.82-.82a2.86 2.86 0 014.02 0l4.91 4.9z" clip-rule="evenodd"/>
</svg>
