<svg width="38" height="38" fill="none" xmlns="http://www.w3.org/2000/svg"><path fill-rule="evenodd" clip-rule="evenodd" d="M38 19c0 10.493-8.507 19-19 19S0 29.493 0 19 8.507 0 19 0s19 8.507 19 19zm-12.575-3.965l1.36-1.358-1.415-1.416a9.009 9.009 0 0 0-12.74 0l-5.324 5.324a4 4 0 0 0 5.657 0l2.496-2.495a5.015 5.015 0 0 1 5.37-1.121l-1.061 1.06a4 4 0 0 0 5.657.006zm-.055 10.703l5.324-5.324a4 4 0 0 0-5.656 0l-2.496 2.495a5.016 5.016 0 0 1-5.37 1.122l1.06-1.06a4 4 0 0 0-5.656-.006l-1.361 1.358 1.415 1.415a9.01 9.01 0 0 0 12.74 0z" fill="#5275FF"/></svg>