<svg xmlns="http://www.w3.org/2000/svg" width="38" height="38" fill="none">
  <path fill="#FFAD4D" fill-rule="evenodd" d="M38 19a19 19 0 11-38 0 19 19 0 0138 0zm-14.2-3.2c.2 3-1.2 5.2-2.2 4.7-.7-.4-.6-1.4-.6-1.4.3-2.3 0-4.5-.5-6.7A9 9 0 0018 8.6 6.4 6.4 0 0015.8 7a6.8 6.8 0 01-1.3 4.4c-.5.8-1 1.6-1.7 2.3C11 15.6 9 17.9 9 21.3a9.2 9.2 0 005.7 8.1l1.8.6a3.6 3.6 0 01-1.5-2.4s-.5-2 1-5c.2-.6.6-1.2 1-1.8 0 0 0 .7.6 1.7.4.7 1 1.4 2.2 2.1a3.1 3.1 0 011.3 3.4 3.2 3.2 0 01-1.4 2 9 9 0 002.7-1 9.2 9.2 0 004.8-7.7 10.4 10.4 0 00-3.7-7.8l-.3-.2.2.5c.2.7.3 1.3.3 2z" clip-rule="evenodd"/>
</svg>
