<svg width="40" height="40" fill="none" xmlns="http://www.w3.org/2000/svg"><path d="M20 39c10.493 0 19-8.507 19-19S30.493 1 20 1 1 9.507 1 20s8.507 19 19 19z" fill="#1AA168"/><path d="M9.463 22.006l.82.819 4.91-4.9a2.844 2.844 0 0 0 0-4.019l-.82-.819-4.91 4.9a2.833 2.833 0 0 0 0 4.02zM18.03 9.444l-.82.818 4.91 4.9a2.858 2.858 0 0 0 4.028 0l.82-.818-4.91-4.9a2.847 2.847 0 0 0-4.027 0zM30.62 17.994l-.821-.819-4.91 4.9a2.844 2.844 0 0 0 0 4.019l.82.819 4.91-4.9a2.833 2.833 0 0 0 0-4.02zM22.052 30.556l.82-.819-4.91-4.9a2.858 2.858 0 0 0-4.027 0l-.82.82 4.91 4.9a2.847 2.847 0 0 0 4.027 0z" fill="#fff"/></svg>