<svg width="369" height="231" fill="none" xmlns="http://www.w3.org/2000/svg"><rect x="1.5" y=".5" width="367" height="230" rx="3.5" fill="#fff" stroke="#E7EAF3"/><path fill="#E7EAF3" d="M2 115h366v2H2z"/><path d="M366 162.497l-1.215-1.586a.5.5 0 0 0-.883.189l-2.294 9.616a.5.5 0 0 1-.297.347l-7.985 3.255a.5.5 0 0 1-.689-.457L350.792 21l-5.719 151.496c-.023.611-.912.655-.995.049l-7.433-54.209c-.082-.598-.958-.565-.994.038l-3.308 55.383c-.029.494-.681.65-.93.223l-1.28-2.186a.5.5 0 0 0-.886.044l-2.117 4.603c-.216.471-.918.342-.953-.175L318.52 63.104l-2.965 84.014a.532.532 0 0 1-.016.106l-6.529 25.409c-.13.506-.851.499-.971-.009l-6.016-25.435a.5.5 0 0 0-.822-.255l-3.153 2.857a.5.5 0 0 1-.829-.284l-1.434-8.109a.5.5 0 0 0-.939-.137l-5.204 10.374c-.227.451-.903.32-.946-.183l-4.872-57.798c-.051-.615-.953-.609-.997.007l-3.997 56.737-1.873 27.458c-.041.604-.92.629-.995.028l-3.438-27.486-6.676-92.005-2.506 78.65c-.017.56-.802.671-.975.138l-5.481-16.937c-.164-.507-.902-.44-.972.089l-7.609 57.872c-.078.596-.95.572-.994-.028l-5.695-76.441c-.042-.574-.861-.633-.986-.072l-2.03 9.07c-.12.539-.895.514-.981-.031l-1.288-8.167c-.09-.569-.911-.56-.989.01l-2.973 21.74c-.081.595-.95.568-.994-.031l-1.711-23.57c-.039-.537-.79-.621-.976-.116v0c-.178.485-.891.432-.97-.079l-4.901-31.96c-.083-.537-.842-.575-.979-.05l-2.039 7.873c-.139.538-.922.48-.981-.073l-3.313-31.1c-.064-.594-.925-.598-.994-.005l-2.972 25.528c-.06.51-.757.61-.957.137l-.92-2.167a.5.5 0 0 0-.944.066l-3.07 11.446a.5.5 0 0 1-.88.175l-.388-.507a.5.5 0 0 0-.897.287l-.561 16.46c-.02.587-.86.665-.988.092l-1.305-5.856c-.127-.569-.959-.497-.988.085l-2.787 57.461-2.912-50.914a.5.5 0 0 0-.815-.359l-1.892 1.543a.5.5 0 0 1-.632 0L188.1 96.61a.498.498 0 0 1-.178-.31l-2.455-15.775c-.087-.563-.896-.565-.988-.004l-1.911 11.767c-.093.57-.916.556-.99-.016l-2.029-15.799c-.075-.582-.919-.581-.992.001l-2.384 18.885a.5.5 0 0 1-.735.377l-1.844-1.002a.5.5 0 0 0-.697.24l-2.713 6.267a.497.497 0 0 0-.041.182l-2.959 86.691a.495.495 0 0 1-.097.279l-2.387 3.244a.5.5 0 0 1-.852-.076l-2.559-5.217a.49.49 0 0 1-.05-.195l-2.958-59.797a.488.488 0 0 0-.045-.184l-2.885-6.274a.506.506 0 0 1-.046-.192l-2.96-86.423a.494.494 0 0 0-.041-.181l-2.043-4.72c-.212-.49-.941-.35-.959.183l-2.878 89.881a.5.5 0 0 1-.567.48l-2.418-.329-2.758-.375a.498.498 0 0 1-.335-.199l-2.368-3.219a.5.5 0 0 0-.846.064l-2.549 4.851a.49.49 0 0 0-.056.186l-2.48 26.384c-.057.602-.934.606-.995.004l-2.328-22.868a.5.5 0 0 0-.885-.266l-1.915 2.343a.5.5 0 0 1-.668.097l-2.541-1.727a.479.479 0 0 1-.087-.075l-2.464-2.678a.5.5 0 0 0-.803.092l-2.572 4.544a.502.502 0 0 1-.154.167l-2.13 1.447a.5.5 0 0 1-.78-.392l-2.928-66.641-2.956 66.263a.499.499 0 0 1-.239.404l-2.368 1.449a.5.5 0 0 1-.648-.11l-1.853-2.267a.5.5 0 0 0-.887.298l-2.92 79.57-2.955-60.468a.501.501 0 0 0-.208-.383l-2.771-1.981-2.968-2.122-2.767-1.979a.498.498 0 0 1-.208-.389l-2.86-84.833c-.02-.563-.81-.67-.977-.132l-2.07 6.616a.498.498 0 0 0-.022.131l-2.933 82.776a.5.5 0 0 1-.79.389l-2.118-1.515a.497.497 0 0 1-.147-.164l-2.913-5.249-2.142-4.875c-.211-.479-.923-.354-.957.169l-2.889 44.695-2.901-54.162a.499.499 0 0 0-.209-.38l-2.771-1.982-2.822-2.484a.5.5 0 0 1-.167-.322l-2.946-27.259-2.937 88.321a.5.5 0 0 1-.79.39l-1.576-1.127a.5.5 0 0 0-.782.311l-2.063 10.52c-.113.576-.955.52-.99-.066l-2.732-45.595-2.904-92.068c-.017-.52-.72-.672-.949-.204l-2.057 4.193a.499.499 0 0 1-.062.096l-2.824 3.455a.5.5 0 0 0-.113.299l-2.961 86.649-2.507 36.889c-.042.618-.948.623-.997.005L24.74 151.37 21.772 215l-2.922-74.454-2.466-26.878c-.056-.611-.95-.604-.996.008l-2.518 33.445-2.968-76.022-2.907 79.191a.5.5 0 0 1-.837.351l-2.19-2.005L1 145.919" stroke="#5275FF" stroke-width="1.5"/></svg>