<svg width="486" height="300" fill="none" xmlns="http://www.w3.org/2000/svg"><rect x="1.5" y=".5" width="483" height="299" rx="3.5" fill="#fff" stroke="#E7EAF3"/><rect y="232" width="486" height="2" rx="1" fill="#F9FAFC"/><rect y="149" width="486" height="2" rx="1" fill="#F9FAFC"/><rect y="66" width="486" height="2" rx="1" fill="#F9FAFC"/><mask id="a" maskUnits="userSpaceOnUse" x="1" y="0" width="484" height="300"><path fill="#fff" stroke="#E7EAF3" d="M1.5.5h483v299H1.5z"/></mask><g mask="url(#a)"><path d="M226.106 251.89l2.457-5.012a1 1 0 0 1 1.487-.368l2.56 1.865c.059.043.122.079.188.108l3.301 1.443c.138.061.261.151.359.265l3.462 4.036 3.175 3.395a1 1 0 0 0 1.041.268l2.783-.911c.146-.048.279-.129.389-.236l3.277-3.217c.11-.108.243-.189.389-.237l3.334-1.091 3.043-.995a.998.998 0 0 1 1.058.286l2.74 3.08a1 1 0 0 0 1.058.285l2.458-.804a.999.999 0 0 1 .956.187l2.734 2.309a.998.998 0 0 0 .956.187l3.105-1.016 3.449-1.129c.107-.035.208-.088.297-.156l3.162-2.42a.999.999 0 0 0 .378-.631l3.448-20.837a1 1 0 0 1 .675-.788l2.797-.915a.987.987 0 0 0 .41-.258l3.438-3.584 3.161-2.539a.997.997 0 0 1 .988-.152l2.63 1.022c.28.108.594.086.856-.063l2.757-1.563a1 1 0 0 0 .5-.752l3.432-29.093a1 1 0 0 1 1.128-.874l2.394.327c.149.02.302.006.446-.041l3.265-1.068a.994.994 0 0 0 .204-.094l2.859-1.715a.998.998 0 0 1 1.207.136l2.764 2.653a.998.998 0 0 0 .704.279l2.913-.033c.189-.003.373-.058.531-.16l2.836-1.831a1 1 0 0 1 1.071-.009l2.959 1.843c.075.047.144.104.204.169l2.779 2.994a1 1 0 0 0 1.473-.008l1.976-2.173a.999.999 0 0 1 1.596.156l2.918 4.838 3.197 6.428a1 1 0 0 0 1.272.481l2.386-.969a1 1 0 0 1 .734-.007l2.737 1.049c.316.12.671.074.944-.124l2.596-1.877a1 1 0 0 1 1.159-.009l2.42 1.695c.361.252.845.239 1.192-.033l2.394-1.884c.37-.29.891-.284 1.254.014l2.708 2.229c.182.15.411.23.647.228l3.245-.038 2.98-.034a.999.999 0 0 0 .896-.58l2.851-6.158a1 1 0 0 1 1.47-.406l2.461 1.674a1 1 0 0 0 .382.156l3.023.555a1 1 0 0 1 .615.377l3.191 4.186c.121.158.286.276.474.34l2.887.982a.999.999 0 0 0 .831-.086l2.42-1.432a1 1 0 0 1 1.327.284l3.078 4.364 3.611 3.859 3.122 2.578a1 1 0 0 0 1.063.133l2.946-1.388c.06-.029.117-.063.171-.102l3.417-2.54c.075-.056.142-.122.199-.197l2.565-3.364a1 1 0 0 1 1.685.148l2.689 5.227c.126.243.346.425.609.502l6.809 1.984 3.086 1.058a1 1 0 0 0 .956-.17l2.822-2.298a.998.998 0 0 1 .811-.208l2.966.542a.982.982 0 0 0 .382-.004l3.131-.644c.189-.039.362-.131.5-.266l2.164-2.128a1 1 0 0 1 1.669.463l2.745 10.634a1 1 0 0 0 1.669.464l1.114-1.095a1 1 0 0 1 1.673.48l2.951 12.293a1 1 0 0 0 1.262.723l2.36-.715a.99.99 0 0 0 .411-.244l2.469-2.427a1 1 0 0 1 1.59.254l2.704 5.224c.174.335.522.544.9.54l2.994-.034 3.208-.037a1 1 0 0 0 .69-.287l2.631-2.586a1 1 0 0 1 1.393-.008l2.63 2.524c.18.174.419.273.669.279l5.795.134a1 1 0 0 1 .977.999V343a1 1 0 0 1-1 1H-1a1 1 0 0 1-1-1V220.029a.801.801 0 0 1 1.36-.575.8.8 0 0 0 .976.109l5.433-3.327a1 1 0 0 1 1.344.284l3.524 5.092 4.82 5.275a1 1 0 0 1 .212.365l3.987 12.24a1 1 0 0 0 1.595.455l1.09-.917a.998.998 0 0 1 1.058-.145l3.519 1.6a1 1 0 0 0 .837-.004l.555-.259a1 1 0 0 1 1.418.811l.488 5.121c.091.952 1.338 1.246 1.844.434l1.044-1.672a1 1 0 0 1 1.764.128l2.211 5.048a1 1 0 0 0 1.675.25l2.155-2.512a1.001 1.001 0 0 1 1.039-.309l2.712.791c.183.053.377.053.56 0l3.33-.971 3.468-.674a1.03 1.03 0 0 1 .288-.014l3.106.302a1 1 0 0 0 .659-.168l2.103-1.43a1 1 0 0 1 1.537.602l3.065 13.308a1 1 0 0 0 1.166.757l2.199-.427a.998.998 0 0 1 .827.211l2.591 2.14a1 1 0 0 0 1.296-.019l2.472-2.161a1 1 0 0 1 1.095-.147l2.474 1.202a.998.998 0 0 0 1.026-.091l2.64-1.924a1.003 1.003 0 0 1 1.025-.091l2.511 1.22a1 1 0 0 0 1.05-.11l3.022-2.348a.986.986 0 0 1 .213-.127l3.368-1.472a1 1 0 0 0 .236-.146l2.746-2.267a1 1 0 0 1 1.396.12l2.653 3.093c.201.234.5.363.808.348l3.121-.152 3.407-.165c.135-.007.267-.041.388-.1l2.906-1.411a1 1 0 0 1 1 .072l3.055 2.078a.911.911 0 0 0 .162.089l3.263 1.427a1 1 0 0 0 .545.074l2.674-.39a1 1 0 0 1 .998.469l2.887 4.738a1 1 0 0 0 1.09.452l2.901-.705 3.141-1.221a1 1 0 0 1 .896.087l2.326 1.469a.76.76 0 0 1 .097 1.213l-.14.123c-.592.522-.037 1.481.711 1.226a.727.727 0 0 1 .387-.022l3.414.747 2.637.576a1 1 0 0 0 1.19-.759l2.935-13.195a1 1 0 0 1 1.764-.4l1.943 2.482c.224.286.586.428.945.371l3.029-.484 3.611-.923 3.04-.777c.352-.09.725.018.975.282l2.802 2.965a.999.999 0 0 0 .974.282l2.445-.625a1 1 0 0 1 1 .311l2.802 3.201a1 1 0 0 0 1 .31l3.015-.771 3.454-.882c.104-.027.203-.07.294-.128l3.474-2.239 3.203-2.604a.996.996 0 0 1 .911-.184l2.607.761a.999.999 0 0 0 .983-.248l10.157-10.028a.986.986 0 0 1 .455-.257l3.348-.856 3.335-1.05a.996.996 0 0 0 .463-.307l2.534-2.987a1 1 0 0 1 1.613.121l2.501 4.041a1 1 0 0 0 1.098.442l2.148-.549a1 1 0 0 1 1.124.488l3.174 5.786c.043.077.095.148.155.211l2.53 2.639a.999.999 0 0 0 1.619-.252z" fill="#FD9317" fill-opacity=".1" stroke="#FD9317" stroke-width="1.166"/><path d="M260.858 192.227l-2.414-9.791c-.206-.837-1.304-1.038-1.794-.329l-2.277 3.299a.978.978 0 0 1-.166.186l-3.344 2.907a.997.997 0 0 0-.262.358l-3.521 8.161-3.122 6.637a1 1 0 0 1-1.45.412l-2.426-1.578a1.007 1.007 0 0 1-.345-.382l-3.367-6.573a1.007 1.007 0 0 0-.345-.382l-3.333-2.169-2.685-1.746a1 1 0 0 0-1.458.429l-2.655 5.936c-.251.56-.944.764-1.459.429l-1.758-1.143a.999.999 0 0 0-1.404.326l-2.522 4.236a.999.999 0 0 1-1.404.326l-2.763-1.797-3.436-2.235a1.01 1.01 0 0 1-.29-.289l-2.165-3.294c-.49-.746-1.637-.525-1.815.349l-2.833 13.879a1 1 0 0 1-1.525.638l-2.145-1.395a1.007 1.007 0 0 1-.356-.404l-3.489-7.233-3.025-4.832a1 1 0 0 0-1.459-.26l-1.998 1.543a1 1 0 0 1-1.36-.127l-2.937-3.311a.994.994 0 0 1-.096-.128l-3.173-5.004a.998.998 0 0 0-1.106-.43l-2.487.674a1.003 1.003 0 0 1-.807-.127l-3.091-2.011a.984.984 0 0 1-.221-.196l-2.556-3.05a1 1 0 0 0-1.652.178l-2.63 5.02a1.001 1.001 0 0 1-.909.536l-2.515-.058a.998.998 0 0 1-.766-.385l-2.545-3.267a1 1 0 0 0-1.567-.013l-2.742 3.395a.991.991 0 0 0-.128.205l-2.643 5.663a1 1 0 0 1-1.816-.007l-1.612-3.526c-.383-.838-1.599-.756-1.866.126l-2.844 9.376-3.23 12.91a1 1 0 0 1-1.598.536l-1.783-1.439a1 1 0 0 0-1.234-.017l-2.156 1.642a1 1 0 0 1-1.427-.225l-2.207-3.172a1 1 0 0 0-1.633-.013l-1.925 2.681a1 1 0 0 1-1.655-.045l-1.954-3.056a1 1 0 0 0-1.696.017l-2.476 4.053a1 1 0 0 1-.876.478l-3.035-.069-2.836-.065a.999.999 0 0 1-.951-.773l-2.944-12.645c-.193-.83-1.271-1.053-1.778-.367l-2.145 2.9a.999.999 0 0 1-.461.344l-2.9 1.058a1.002 1.002 0 0 0-.592.581l-3.334 8.696a1 1 0 0 1-.374.471l-2.608 1.763a.999.999 0 0 1-1.322-.181l-1.907-2.242a1 1 0 0 0-1.704.313l-3.03 8.54-3.611 7.672-2.97 4.878a1 1 0 0 1-1.539.209l-2.63-2.465a.948.948 0 0 1-.145-.169l-3.484-5.148a1.001 1.001 0 0 1-.105-.202l-2.451-6.391c-.349-.909-1.658-.835-1.902.107l-2.723 10.52a.999.999 0 0 1-.467.614l-6.86 3.976-2.746 1.872a1 1 0 0 1-1.414-.301l-2.633-4.262a1 1 0 0 0-1.192-.414l-2.484.903a1 1 0 0 1-.72-.015l-2.91-1.19a1.005 1.005 0 0 1-.512-.47l-1.975-3.86c-.447-.874-1.755-.647-1.882.327l-2.781 21.427c-.127.974-1.435 1.202-1.882.327l-.653-1.275c-.45-.879-1.764-.644-1.883.335l-3.033 25.126a1 1 0 0 1-1.509.737l-2.043-1.231a.998.998 0 0 1-.374-.401l-2.285-4.465c-.418-.818-1.626-.686-1.857.204l-2.75 10.56a1 1 0 0 1-.99.747l-2.82-.064-3.015-.069a.999.999 0 0 1-.867-.544l-2.46-4.806a1 1 0 0 0-1.776-.009l-2.448 4.673a1 1 0 0 1-.84.535l-5.633.258a1 1 0 0 0-.954.999V303a1 1 0 0 0 1 1h489a1 1 0 0 0 1-1V56.622c0-.732-.982-.97-1.318-.321a.699.699 0 0 1-1.16.122l-4.966-6.046a1 1 0 0 0-1.717.306l-3.477 9.986-4.908 10.683a.997.997 0 0 0-.078.256l-4.049 24.716c-.151.92-1.368 1.152-1.846.352l-.68-1.139a1 1 0 0 0-1.529-.229l-2.93 2.65a1.003 1.003 0 0 1-1.353-.011c-.624-.579-1.645-.17-1.686.679l-.53 11.067c-.054 1.116-1.619 1.317-1.953.252l-.804-2.562c-.307-.977-1.71-.916-1.931.084l-2.136 9.699c-.209.948-1.51 1.072-1.895.181l-1.937-4.49a1 1 0 0 0-1.42-.469l-2.135 1.237a.999.999 0 0 1-1.003 0l-3.041-1.762a1.14 1.14 0 0 0-.141-.068l-3.27-1.263a.993.993 0 0 0-.55-.049l-2.71.523a1 1 0 0 1-.994-.387l-1.73-2.339c-.539-.729-1.693-.422-1.797.479l-3.171 27.365a1 1 0 0 1-1.353.817l-1.626-.628c-.452-.174-.963 0-1.215.413l-2.297 3.772a1 1 0 0 1-1.721-.022l-2.129-3.701a1 1 0 0 0-1.562-.221l-1.84 1.778a1.001 1.001 0 0 1-1.518-.152l-2.271-3.29a1 1 0 0 0-1.518-.151l-1.889 1.824a1 1 0 0 1-1.534-.176l-2.874-4.441a1.001 1.001 0 0 0-.183-.212l-3.387-2.943a.99.99 0 0 1-.198-.235l-2.524-4.144a1 1 0 0 0-1.772.124l-2.556 5.924a1.001 1.001 0 0 1-1.014.6l-2.885-.279-3.264-.315a.999.999 0 0 1-.598-.276l-2.539-2.453a1 1 0 0 0-1.499.125l-2.867 3.877a1.022 1.022 0 0 1-.148.16l-3.117 2.709a1 1 0 0 1-.935.206l-2.141-.62a1 1 0 0 0-1.235.667l-2.98 9.727a1 1 0 0 1-1.391.607l-2.468-1.191a1.031 1.031 0 0 1-.176-.109l-2.749-2.124a.999.999 0 0 0-1.393.169l-2.575 3.232a1 1 0 0 0-.086 1.119l1.36 2.384c.472.828-.497 1.726-1.286 1.192a.905.905 0 0 0-.864-.08l-3.157 1.373-3.032 1.317a1 1 0 0 1-1.055-.162l-2.066-1.796a1 1 0 0 0-1.587.388l-2.75 6.981a1 1 0 0 1-1.233.587l-2.642-.839a1.042 1.042 0 0 1-.151-.062l-3.538-1.798-2.695-1.37a.999.999 0 0 0-1.356.463l-2.729 5.742a1 1 0 0 1-1.357.462l-1.752-.891a1.001 1.001 0 0 0-1.369.489l-2.759 6.268a1 1 0 0 1-1.368.489l-2.668-1.356-3.413-1.734a1.017 1.017 0 0 1-.335-.276l-3.474-4.45-3.099-5.01a1 1 0 0 0-1.353-.338l-2.578 1.497c-.167.097-.302.24-.39.413l-10.181 20.073a1 1 0 0 1-1.345.44l-2.718-1.382-3.345-2.092a.997.997 0 0 1-.389-.455l-2.421-5.673c-.365-.855-1.598-.792-1.875.096l-2.45 7.873a1 1 0 0 1-1.408.594l-1.464-.743a1 1 0 0 0-1.417.625l-3.261 11.819a.999.999 0 0 1-.063.168l-2.365 4.905c-.407.845-1.647.715-1.872-.195z" fill="#8358FF" fill-opacity=".1" stroke="#8358FF" stroke-width="1.166"/><path d="M-2 139.66l6.159-1.448 6.158.724 6.159-5.067 6.158 32.344 6.159-1.448 6.158 6.154 6.159-6.516 6.158 3.62 6.159-5.429 6.159 3.619 6.158-5.791 6.159-3.257 6.158-6.154 6.159 8.687 6.158-.362 6.159-.362 6.158-3.619 6.159 5.067 6.158 3.258 6.159-1.086 6.158-16.437 6.159-1.809 6.158-2.896 6.159 4.705 6.158 5.665 6.159 1.628 6.159-3.257 6.158 9.515 6.159-1.19 6.158-1.905 6.159-1.904 6.158 7.885 6.159-1.905 6.158 8.515 6.159-1.905 6.158-1.904 6.159-4.8 6.158-6.059 6.269 2.216 18.366-41.027 6.158-1.905 6.159-2.344 6.158-8.781 6.159 12.039 6.158-1.905 6.159 13.582 6.158 7.773 6.159-15.202 6.158 5.429 6.159 3.258 6.158 8.687 6.159 7.966 6.159-2.438 6.158-7.314 6.065-2.401 6.252-2.475 6.159 8.376 6.158-2.438 6.116 6.252 6.201-2.455 6.159-2.438 6.158-5.703 6.159 18.364 6.158-2.438 6.159-7.768 6.159-5.986 6.158 2.896 6.159-4.224 6.158-5.911 6.192 1.021 6.125-2.425 6.159-4.472 6.158 7.153 6.159-.085 6.158-4.811 6.159 4.64 6.158 8.028 6.159-8.198 6.158 12.357L503 109.547" stroke="#2F354D" stroke-width="1.5" stroke-linecap="square" stroke-linejoin="round" stroke-dasharray="2 4"/><g opacity=".15" filter="url(#filter0_f)"><rect x="34.22" y="31.723" width="124.285" height="38.184" rx="5.99" fill="#7A859E"/></g><g filter="url(#filter1_d)"><rect x="17" y="16" width="165" height="45" rx="22.5" fill="#fff"/><rect x="17.374" y="16.374" width="164.251" height="44.251" rx="22.126" stroke="#F1F3F9" stroke-width=".749"/></g><path d="M62.973 42.728h4.097c1.645 0 2.601-.984 2.601-2.426 0-1.078-.795-2.062-1.752-2.21.822-.175 1.577-.93 1.577-2.062 0-1.348-.957-2.291-2.52-2.291h-4.003v8.989zm1.119-5.094v-2.898h2.695c1.011 0 1.55.647 1.55 1.456 0 .822-.539 1.442-1.55 1.442h-2.695zm0 4.097v-3.1h2.75c1.104 0 1.67.728 1.67 1.55 0 .957-.62 1.55-1.67 1.55h-2.75zm7.815-6.604a.69.69 0 0 0 .688-.687.679.679 0 0 0-.688-.674.676.676 0 0 0-.674.674c0 .377.31.687.674.687zm-.498 7.601h1.01v-6.51h-1.01v6.51zm4.67.162c.594 0 .958-.175 1.214-.418l-.297-.755c-.135.148-.404.27-.687.27-.445 0-.66-.35-.66-.836v-4.043h1.32v-.89h-1.32V34.44h-1.011v1.779H73.56v.89h1.078v4.258c0 .97.485 1.523 1.442 1.523zm1.94-3.423c0 1.94 1.308 3.423 3.248 3.423 1.186 0 1.887-.486 2.386-1.132l-.674-.62c-.431.58-.984.849-1.658.849-1.388 0-2.25-1.078-2.25-2.52s.862-2.507 2.25-2.507c.674 0 1.227.256 1.658.849l.674-.62c-.499-.647-1.2-1.132-2.386-1.132-1.94 0-3.247 1.482-3.247 3.41zm9.894 3.423c1.981 0 3.221-1.537 3.221-3.423 0-1.887-1.24-3.41-3.22-3.41-1.982 0-3.222 1.523-3.222 3.41 0 1.886 1.24 3.423 3.221 3.423zm0-.903c-1.388 0-2.17-1.186-2.17-2.52 0-1.321.782-2.507 2.17-2.507s2.156 1.186 2.156 2.507c0 1.334-.768 2.52-2.156 2.52zm5.367-6.86a.69.69 0 0 0 .688-.687.679.679 0 0 0-.688-.674.676.676 0 0 0-.674.674c0 .377.31.687.674.687zm-.498 7.601h1.01v-6.51h-1.01v6.51zm7.42 0h1.011v-4.569c0-1.415-.714-2.102-2.075-2.102-.97 0-1.86.566-2.319 1.105v-.943h-1.01v6.509h1.01v-4.757c.378-.526 1.132-1.011 1.928-1.011.876 0 1.455.364 1.455 1.51v4.258zm14.226 0h1.119v-8.989h-1.604l-2.803 6.846-2.79-6.846h-1.604v8.989h1.119v-7.48l3.046 7.48h.458l3.059-7.48v7.48zm5.897 0h1.388l3.626-8.989h-1.281l-3.032 7.763-3.032-7.763h-1.28l3.611 8.989zm11.391 0h1.321l-2.426-3.666c1.226-.107 2.331-.997 2.331-2.614 0-1.658-1.172-2.709-2.816-2.709h-3.612v8.989h1.118v-3.571h1.793l2.291 3.571zm.067-6.28c0 1.01-.727 1.725-1.792 1.725h-2.359v-3.437h2.359c1.065 0 1.792.701 1.792 1.712zm5.48 6.28h1.388l3.626-8.989h-1.281l-3.032 7.763-3.032-7.763h-1.28l3.611 8.989zm9.663 0h5.297v-.997h-4.178v-7.992h-1.119v8.989zm5.819.27h.795l3.194-9.529h-.795l-3.194 9.529zm4.5-1.537c.741.836 1.887 1.429 3.45 1.429 2.426 0 3.315-1.334 3.315-2.642 0-1.886-1.671-2.345-3.14-2.735-1.145-.31-2.183-.58-2.183-1.483 0-.849.768-1.428 1.846-1.428.984 0 1.927.337 2.601 1.078l.674-.822c-.755-.795-1.819-1.254-3.194-1.254-1.765 0-3.086 1.011-3.086 2.493 0 1.766 1.604 2.17 3.046 2.547 1.186.324 2.277.62 2.277 1.699 0 .687-.512 1.55-2.116 1.55-1.266 0-2.237-.62-2.83-1.28l-.66.848z" fill="#2F354D"/><circle opacity=".1" cx="40.959" cy="38.461" r="11.979" fill="#8358FF"/><path fill-rule="evenodd" clip-rule="evenodd" d="M33.097 38.461c0-.62.66-1.123 1.474-1.123h12.775c.814 0 1.474.503 1.474 1.123s-.66 1.123-1.474 1.123H34.571c-.814 0-1.474-.503-1.474-1.123z" fill="#8358FF"/><circle cx="40.959" cy="38.461" r="3.744" fill="#E7E4FF" stroke="#8358FF" stroke-width="1.497"/><g opacity=".15" filter="url(#filter2_f)"><rect x="34.22" y="84.723" width="124.285" height="38.184" rx="5.99" fill="#7A859E"/></g><g filter="url(#filter3_d)"><rect x="17" y="69" width="182" height="45" rx="22.5" fill="#fff"/><rect x="17.374" y="69.374" width="181.251" height="44.251" rx="22.126" stroke="#F1F3F9" stroke-width=".749"/></g><path d="M62.973 95.728h5.89v-.997h-4.771v-3.1h4.676v-.997h-4.676v-2.898h4.77v-.997h-5.889v8.989zm9.277.162c.593 0 .957-.175 1.213-.418l-.297-.755c-.134.148-.404.27-.687.27-.445 0-.66-.35-.66-.836v-4.043h1.32v-.89h-1.32V87.44h-1.011v1.779H69.73v.89h1.078v4.258c0 .97.485 1.523 1.442 1.523zm6.724-.162h1.01v-4.596c0-1.415-.713-2.075-2.075-2.075-.983 0-1.873.566-2.331 1.105V86.74h-1.01v8.989h1.01v-4.757c.39-.526 1.145-1.011 1.927-1.011.876 0 1.469.337 1.469 1.482v4.286zm2.652-3.261c0 2.035 1.388 3.423 3.315 3.423 1.065 0 1.94-.35 2.587-.998l-.485-.66c-.512.526-1.267.822-2.008.822-1.401 0-2.264-1.024-2.345-2.25h5.27v-.257c0-1.954-1.16-3.49-3.127-3.49-1.86 0-3.207 1.523-3.207 3.41zm3.194-2.574c1.482 0 2.129 1.199 2.142 2.17H82.69c.054-.998.742-2.17 2.13-2.17zm4.777 5.835h1.01v-4.609c.297-.526 1.146-1.038 1.766-1.038.162 0 .283.014.404.04v-1.037c-.89 0-1.644.499-2.17 1.186v-1.051h-1.01v6.509zm4.07-3.261c0 2.035 1.389 3.423 3.316 3.423 1.065 0 1.94-.35 2.588-.998l-.486-.66c-.512.526-1.266.822-2.008.822-1.401 0-2.264-1.024-2.344-2.25h5.269v-.257c0-1.954-1.16-3.49-3.127-3.49-1.86 0-3.207 1.523-3.207 3.41zm3.195-2.574c1.482 0 2.13 1.199 2.143 2.17h-4.272c.053-.998.74-2.17 2.129-2.17zm9.17 5.835h1.011v-6.51h-1.011v4.785c-.377.526-1.132.984-1.927.984-.876 0-1.455-.337-1.455-1.483V89.22h-1.011v4.595c0 1.415.714 2.076 2.075 2.076.971 0 1.82-.512 2.318-1.078v.916zm10.887 0h1.01v-4.703c0-1.308-.633-1.968-1.819-1.968-.943 0-1.819.62-2.183 1.213-.189-.674-.755-1.213-1.752-1.213-.957 0-1.833.687-2.103 1.105v-.943h-1.01v6.509h1.01v-4.757c.351-.526 1.052-1.011 1.712-1.011.849 0 1.199.526 1.199 1.348v4.42h1.011v-4.77c.337-.513 1.051-.998 1.725-.998.836 0 1.2.526 1.2 1.348v4.42zm14.223 0h1.119v-8.989h-1.604l-2.803 6.846-2.79-6.846h-1.603v8.989h1.118v-7.48l3.046 7.48h.458l3.059-7.48v7.48zm5.898 0h1.388l3.625-8.989h-1.28l-3.033 7.763-3.032-7.763h-1.28l3.612 8.989zm11.39 0h1.321l-2.426-3.666c1.226-.108 2.332-.997 2.332-2.614 0-1.658-1.173-2.709-2.817-2.709h-3.612v8.989h1.119v-3.571h1.792l2.291 3.571zm.068-6.28c0 1.01-.728 1.725-1.793 1.725h-2.358v-3.437h2.358c1.065 0 1.793.701 1.793 1.712zm5.48 6.28h1.388l3.625-8.989h-1.28l-3.033 7.763-3.032-7.763h-1.28l3.612 8.989zm9.663 0h5.296v-.997h-4.178v-7.992h-1.118v8.989zm5.818.27h.795l3.194-9.529h-.795l-3.194 9.529zm4.5-1.537c.741.836 1.887 1.429 3.45 1.429 2.426 0 3.315-1.335 3.315-2.642 0-1.886-1.671-2.345-3.14-2.736-1.145-.31-2.183-.579-2.183-1.482 0-.849.768-1.428 1.846-1.428.984 0 1.928.337 2.601 1.078l.674-.822c-.754-.796-1.819-1.254-3.194-1.254-1.765 0-3.086 1.011-3.086 2.493 0 1.766 1.604 2.17 3.046 2.547 1.186.324 2.277.62 2.277 1.699 0 .687-.512 1.55-2.115 1.55-1.267 0-2.237-.62-2.83-1.28l-.661.848z" fill="#2F354D"/><circle cx="40.959" cy="91.461" r="11.979" fill="#FFF3E4"/><path fill-rule="evenodd" clip-rule="evenodd" d="M33.097 91.461c0-.62.66-1.123 1.474-1.123h12.775c.814 0 1.474.503 1.474 1.123s-.66 1.123-1.474 1.123H34.571c-.814 0-1.474-.503-1.474-1.123z" fill="#FD9317"/><circle cx="40.959" cy="91.461" r="3.744" fill="#FFF3E4" stroke="#FD9317" stroke-width="1.497"/><g opacity=".15" filter="url(#filter4_f)"><rect x="369.712" y="31.723" width="79.363" height="38.184" rx="5.99" fill="#7A859E"/></g><g filter="url(#filter5_d)"><rect x="348" y="16" width="120.541" height="44.922" rx="22.461" fill="#fff"/><rect x="348.374" y="16.374" width="119.793" height="44.174" rx="22.087" stroke="#F1F3F9" stroke-width=".749"/></g><path d="M393.974 39.237c0 2.21 1.226 3.653 3.665 3.653s3.666-1.429 3.666-3.666v-5.485h-1.119v5.472c0 1.644-.889 2.681-2.547 2.681-1.657 0-2.547-1.037-2.547-2.681v-5.472h-1.118v5.498zm8.897 2.224c.741.836 1.887 1.429 3.45 1.429 2.426 0 3.315-1.334 3.315-2.642 0-1.886-1.671-2.345-3.14-2.735-1.146-.31-2.183-.58-2.183-1.483 0-.849.768-1.428 1.846-1.428.984 0 1.927.337 2.601 1.078l.674-.822c-.755-.795-1.819-1.254-3.194-1.254-1.765 0-3.086 1.011-3.086 2.493 0 1.766 1.604 2.17 3.046 2.547 1.185.324 2.277.62 2.277 1.699 0 .687-.512 1.55-2.116 1.55-1.267 0-2.237-.62-2.83-1.28l-.66.848zm8.435 1.267h3.073c2.79 0 4.609-1.927 4.609-4.488 0-2.547-1.819-4.501-4.609-4.501h-3.073v8.989zm1.119-.997v-6.995h1.954c2.224 0 3.45 1.564 3.45 3.504 0 1.927-1.267 3.49-3.45 3.49h-1.954zm11.792.997h1.119v-3.571h2.493c1.779 0 2.816-1.24 2.816-2.71 0-1.468-1.01-2.708-2.816-2.708h-3.612v8.989zm5.27-6.28c0 1.01-.728 1.711-1.793 1.711h-2.358v-3.423h2.358c1.065 0 1.793.701 1.793 1.712zm2.599 6.28h1.011v-4.609c.297-.526 1.146-1.038 1.766-1.038.161 0 .283.014.404.04v-1.037c-.89 0-1.644.499-2.17 1.186v-1.051h-1.011v6.509zm4.947-7.6a.69.69 0 0 0 .688-.688.679.679 0 0 0-.688-.674.675.675 0 0 0-.673.674c0 .377.309.687.673.687zm-.498 7.6h1.01v-6.51h-1.01v6.51zm2.649-3.261c0 1.94 1.308 3.423 3.248 3.423 1.186 0 1.887-.486 2.386-1.132l-.674-.62c-.431.58-.984.849-1.658.849-1.388 0-2.25-1.078-2.25-2.52s.862-2.507 2.25-2.507c.674 0 1.227.256 1.658.849l.674-.62c-.499-.647-1.2-1.132-2.386-1.132-1.94 0-3.248 1.482-3.248 3.41zm6.673 0c0 2.035 1.388 3.423 3.315 3.423 1.065 0 1.941-.35 2.588-.998l-.485-.66c-.513.526-1.267.822-2.009.822-1.401 0-2.264-1.024-2.344-2.25h5.269v-.257c0-1.954-1.159-3.49-3.127-3.49-1.859 0-3.207 1.523-3.207 3.41zm3.194-2.574c1.482 0 2.129 1.199 2.143 2.17h-4.272c.053-.998.741-2.17 2.129-2.17z" fill="#2F354D"/><path d="M364.541 38.5h15" stroke="#2F354D" stroke-width="2" stroke-linecap="round" stroke-dasharray="3 5"/></g><defs><filter id="filter0_f" x="-10.702" y="-13.2" width="214.13" height="128.028" filterUnits="userSpaceOnUse" color-interpolation-filters="sRGB"><feFlood flood-opacity="0" result="BackgroundImageFix"/><feBlend in="SourceGraphic" in2="BackgroundImageFix" result="shape"/><feGaussianBlur stdDeviation="22.461" result="effect1_foregroundBlur"/></filter><filter id="filter1_d" x="-12.948" y="-6.461" width="224.896" height="104.896" filterUnits="userSpaceOnUse" color-interpolation-filters="sRGB"><feFlood flood-opacity="0" result="BackgroundImageFix"/><feColorMatrix in="SourceAlpha" values="0 0 0 0 0 0 0 0 0 0 0 0 0 0 0 0 0 0 127 0"/><feOffset dy="7.487"/><feGaussianBlur stdDeviation="14.974"/><feColorMatrix values="0 0 0 0 0.476616 0 0 0 0 0.521707 0 0 0 0 0.620087 0 0 0 0.06 0"/><feBlend in2="BackgroundImageFix" result="effect1_dropShadow"/><feBlend in="SourceGraphic" in2="effect1_dropShadow" result="shape"/></filter><filter id="filter2_f" x="-10.702" y="39.8" width="214.13" height="128.028" filterUnits="userSpaceOnUse" color-interpolation-filters="sRGB"><feFlood flood-opacity="0" result="BackgroundImageFix"/><feBlend in="SourceGraphic" in2="BackgroundImageFix" result="shape"/><feGaussianBlur stdDeviation="22.461" result="effect1_foregroundBlur"/></filter><filter id="filter3_d" x="-12.948" y="46.539" width="241.896" height="104.896" filterUnits="userSpaceOnUse" color-interpolation-filters="sRGB"><feFlood flood-opacity="0" result="BackgroundImageFix"/><feColorMatrix in="SourceAlpha" values="0 0 0 0 0 0 0 0 0 0 0 0 0 0 0 0 0 0 127 0"/><feOffset dy="7.487"/><feGaussianBlur stdDeviation="14.974"/><feColorMatrix values="0 0 0 0 0.476616 0 0 0 0 0.521707 0 0 0 0 0.620087 0 0 0 0.06 0"/><feBlend in2="BackgroundImageFix" result="effect1_dropShadow"/><feBlend in="SourceGraphic" in2="effect1_dropShadow" result="shape"/></filter><filter id="filter4_f" x="324.79" y="-13.2" width="169.207" height="128.028" filterUnits="userSpaceOnUse" color-interpolation-filters="sRGB"><feFlood flood-opacity="0" result="BackgroundImageFix"/><feBlend in="SourceGraphic" in2="BackgroundImageFix" result="shape"/><feGaussianBlur stdDeviation="22.461" result="effect1_foregroundBlur"/></filter><filter id="filter5_d" x="318.052" y="-6.461" width="180.438" height="104.819" filterUnits="userSpaceOnUse" color-interpolation-filters="sRGB"><feFlood flood-opacity="0" result="BackgroundImageFix"/><feColorMatrix in="SourceAlpha" values="0 0 0 0 0 0 0 0 0 0 0 0 0 0 0 0 0 0 127 0"/><feOffset dy="7.487"/><feGaussianBlur stdDeviation="14.974"/><feColorMatrix values="0 0 0 0 0.476616 0 0 0 0 0.521707 0 0 0 0 0.620087 0 0 0 0.06 0"/><feBlend in2="BackgroundImageFix" result="effect1_dropShadow"/><feBlend in="SourceGraphic" in2="effect1_dropShadow" result="shape"/></filter></defs></svg>