<svg width="1440" height="200" fill="none" xmlns="http://www.w3.org/2000/svg"><path fill="#14C393" d="M0 0h1440v200H0z"/><g clip-path="url(#clip0)" fill="#fff" opacity=".5"><g clip-path="url(#clip1)"><rect opacity=".4" width="3" height="188.957" rx="1.5" transform="matrix(-1 0 0 1 1436 14.724)"/><rect opacity=".4" width="3" height="164.417" rx="1.5" transform="matrix(-1 0 0 1 1418 39.264)"/><rect opacity=".4" width="3" height="174.233" rx="1.5" transform="matrix(-1 0 0 1 1400 29.448)"/><rect opacity=".4" width="3" height="149.693" rx="1.5" transform="matrix(-1 0 0 1 1382 53.988)"/><rect opacity=".4" width="3" height="160.736" rx="1.5" transform="matrix(-1 0 0 1 1364 42.945)"/><rect opacity=".4" width="3" height="170.552" rx="1.5" transform="matrix(-1 0 0 1 1346 33.129)"/><rect opacity=".4" width="3" height="166.258" rx="1.5" transform="matrix(-1 0 0 1 1328 37.423)"/><rect opacity=".4" width="3" height="166.871" rx="1.5" transform="matrix(-1 0 0 1 1310 36.81)"/><rect opacity=".4" width="3" height="151.534" rx="1.5" transform="matrix(-1 0 0 1 1292 52.147)"/><rect opacity=".4" width="3" height="161.35" rx="1.5" transform="matrix(-1 0 0 1 1274 42.331)"/><rect opacity=".4" width="3" height="134.969" rx="1.5" transform="matrix(-1 0 0 1 1256 68.712)"/><rect opacity=".4" width="3" height="142.945" rx="1.5" transform="matrix(-1 0 0 1 1238 60.736)"/><rect opacity=".4" width="3" height="124.54" rx="1.5" transform="matrix(-1 0 0 1 1220 79.141)"/><rect opacity=".4" width="3" height="114.11" rx="1.5" transform="matrix(-1 0 0 1 1202 89.57)"/><rect opacity=".4" width="3" height="116.564" rx="1.5" transform="matrix(-1 0 0 1 1184 87.117)"/><rect opacity=".4" width="3" height="113.497" rx="1.5" transform="matrix(-1 0 0 1 1166 90.184)"/><rect opacity=".4" width="3" height="142.945" rx="1.5" transform="matrix(-1 0 0 1 1148 60.736)"/><rect opacity=".4" width="3" height="151.534" rx="1.5" transform="matrix(-1 0 0 1 1130 52.147)"/><rect opacity=".4" width="3" height="122.086" rx="1.5" transform="matrix(-1 0 0 1 1112 81.595)"/><rect opacity=".4" width="3" height="51" rx="1.5" transform="matrix(-1 0 0 1 1094 153)"/><rect opacity=".4" width="3" height="54" rx="1.5" transform="matrix(-1 0 0 1 1076 150)"/><rect opacity=".4" width="3" height="54" rx="1.5" transform="matrix(-1 0 0 1 1058 150)"/><rect opacity=".4" width="3" height="35" rx="1.5" transform="matrix(-1 0 0 1 1040 169)"/><rect opacity=".6" width="3" height="34" rx="1.5" transform="matrix(-1 0 0 1 1022 170)"/><rect opacity=".4" width="3" height="40" rx="1.5" transform="matrix(-1 0 0 1 1004 164)"/><rect opacity=".4" width="3" height="31" rx="1.5" transform="matrix(-1 0 0 1 986 173)"/><rect opacity=".4" width="3" height="34" rx="1.5" transform="matrix(-1 0 0 1 968 170)"/><rect opacity=".4" width="3" height="34" rx="1.5" transform="matrix(-1 0 0 1 950 170)"/><rect opacity=".4" width="3" height="34" rx="1.5" transform="matrix(-1 0 0 1 932 170)"/><rect opacity=".4" width="3" height="37" rx="1.5" transform="matrix(-1 0 0 1 914 172)"/><rect opacity=".4" width="3" height="34" rx="1.5" transform="matrix(-1 0 0 1 896 181)"/><rect opacity=".4" width="3" height="31" rx="1.5" transform="matrix(-1 0 0 1 878 184)"/><rect opacity=".4" width="3" height="28" rx="1.5" transform="matrix(-1 0 0 1 860 187)"/><rect opacity=".4" width="3" height="34" rx="1.5" transform="matrix(-1 0 0 1 842 181)"/><rect opacity=".4" width="3" height="32" rx="1.5" transform="matrix(-1 0 0 1 824 183)"/><rect opacity=".4" width="3" height="32" rx="1.5" transform="matrix(-1 0 0 1 806 183)"/><rect opacity=".4" width="3" height="34" rx="1.5" transform="matrix(-1 0 0 1 788 181)"/><rect opacity=".4" width="3" height="28" rx="1.5" transform="matrix(-1 0 0 1 770 187)"/><rect opacity=".4" width="3" height="28" rx="1.5" transform="matrix(-1 0 0 1 752 187)"/><rect opacity=".4" width="3" height="32" rx="1.5" transform="matrix(-1 0 0 1 734 183)"/><rect opacity=".4" width="3" height="28" rx="1.5" transform="matrix(-1 0 0 1 716 187)"/><rect opacity=".4" width="3" height="35" rx="1.5" transform="matrix(-1 0 0 1 698 180)"/><rect opacity=".4" width="3" height="32" rx="1.5" transform="matrix(-1 0 0 1 680 183)"/><rect opacity=".4" width="3" height="28" rx="1.5" transform="matrix(-1 0 0 1 662 187)"/><rect opacity=".4" width="3" height="30" rx="1.5" transform="matrix(-1 0 0 1 644 185)"/><rect opacity=".4" width="3" height="29" rx="1.5" transform="matrix(-1 0 0 1 626 181)"/><rect opacity=".4" width="3" height="26" rx="1.5" transform="matrix(-1 0 0 1 608 184)"/><rect opacity=".4" width="3" height="25" rx="1.5" transform="matrix(-1 0 0 1 590 185)"/><rect opacity=".4" width="3" height="25" rx="1.5" transform="matrix(-1 0 0 1 572 185)"/><rect opacity=".4" width="3" height="29" rx="1.5" transform="matrix(-1 0 0 1 554 192)"/><rect opacity=".4" width="3" height="30" rx="1.5" transform="matrix(-1 0 0 1 536 191)"/><rect opacity=".4" width="3" height="35.294" rx="1.5" transform="matrix(-1 0 0 1 518 185.235)"/><rect opacity=".4" width="3" height="45.882" rx="1.5" transform="matrix(-1 0 0 1 500 184.647)"/><rect opacity=".4" width="3" height="48.235" rx="1.5" transform="matrix(-1 0 0 1 482 181.294)"/><rect opacity=".4" width="3" height="60" rx="1.5" transform="matrix(-1 0 0 1 464 169.529)"/><rect opacity=".4" width="3" height="68.235" rx="1.5" transform="matrix(-1 0 0 1 446 161.294)"/><rect opacity=".4" width="3" height="68.235" rx="1.5" transform="matrix(-1 0 0 1 428 144.294)"/><rect opacity=".4" width="3" height="61.176" rx="1.5" transform="matrix(-1 0 0 1 410 151.353)"/><rect opacity=".4" width="3" height="83.436" rx="1.5" transform="matrix(-1 0 0 1 392 129.245)"/><rect opacity=".4" width="3" height="105.521" rx="1.5" transform="matrix(-1 0 0 1 374 107.159)"/><rect opacity=".4" width="3" height="110.429" rx="1.5" transform="matrix(-1 0 0 1 356 93.251)"/><rect opacity=".4" width="3" height="103.067" rx="1.5" transform="matrix(-1 0 0 1 338 100.614)"/><rect opacity=".4" width="3" height="155.215" rx="1.5" transform="matrix(-1 0 0 1 320 48.466)"/><rect opacity=".4" width="3" height="136.196" rx="1.5" transform="matrix(-1 0 0 1 302 67.485)"/><rect opacity=".4" width="3" height="114.11" rx="1.5" transform="matrix(-1 0 0 1 284 89.57)"/><rect opacity=".4" width="3" height="109.816" rx="1.5" transform="matrix(-1 0 0 1 266 73.865)"/><rect opacity=".4" width="3" height="125.153" rx="1.5" transform="matrix(-1 0 0 1 248 58.528)"/><rect opacity=".4" width="3" height="98.773" rx="1.5" transform="matrix(-1 0 0 1 230 84.908)"/><rect opacity=".4" width="3" height="112.27" rx="1.5" transform="matrix(-1 0 0 1 212 71.411)"/><rect opacity=".4" width="3" height="125.153" rx="1.5" transform="matrix(-1 0 0 1 194 58.528)"/><rect opacity=".4" width="3" height="115.951" rx="1.5" transform="matrix(-1 0 0 1 176 67.73)"/><rect opacity=".4" width="3" height="119.018" rx="1.5" transform="matrix(-1 0 0 1 158 64.663)"/><rect opacity=".4" width="3" height="152" rx="1.5" transform="matrix(-1 0 0 1 140 57)"/><rect opacity=".4" width="3" height="138" rx="1.5" transform="matrix(-1 0 0 1 122 71)"/><rect opacity=".4" width="3" height="131" rx="1.5" transform="matrix(-1 0 0 1 104 78)"/><rect opacity=".4" width="3" height="149" rx="1.5" transform="matrix(-1 0 0 1 86 60)"/><rect opacity=".4" width="3" height="141" rx="1.5" transform="matrix(-1 0 0 1 68 68)"/><rect opacity=".4" width="3" height="156" rx="1.5" transform="matrix(-1 0 0 1 50 53)"/></g><g clip-path="url(#clip2)"><rect opacity=".8" width="3" height="168.098" rx="1.5" transform="matrix(-1 0 0 1 1436 31.902)"/><rect opacity=".8" width="3" height="121.472" rx="1.5" transform="matrix(-1 0 0 1 1418 78.528)"/><rect opacity=".8" width="3" height="128.834" rx="1.5" transform="matrix(-1 0 0 1 1400 71.166)"/><rect opacity=".8" width="3" height="116.564" rx="1.5" transform="matrix(-1 0 0 1 1382 83.436)"/><rect opacity=".8" width="3" height="106.748" rx="1.5" transform="matrix(-1 0 0 1 1364 93.252)"/><rect opacity=".8" width="3" height="109.202" rx="1.5" transform="matrix(-1 0 0 1 1346 90.798)"/><rect opacity=".8" width="3" height="106.135" rx="1.5" transform="matrix(-1 0 0 1 1328 93.865)"/><rect opacity=".6" width="3" height="125.153" rx="1.5" transform="matrix(-1 0 0 1 1310 74.847)"/><rect opacity=".6" width="3" height="88.957" rx="1.5" transform="matrix(-1 0 0 1 1292 111.043)"/><rect opacity=".6" width="3" height="93.251" rx="1.5" transform="matrix(-1 0 0 1 1274 106.749)"/><rect opacity=".6" width="3" height="80.368" rx="1.5" transform="matrix(-1 0 0 1 1256 119.632)"/><rect opacity=".6" width="3" height="85.276" rx="1.5" transform="matrix(-1 0 0 1 1238 114.724)"/><rect opacity=".6" width="3" height="74.119" rx="1.5" transform="matrix(-1 0 0 1 1220 125.881)"/><rect opacity=".6" width="3" height="67.912" rx="1.5" transform="matrix(-1 0 0 1 1202 132.088)"/><rect opacity=".6" width="3" height="69.372" rx="1.5" transform="matrix(-1 0 0 1 1184 130.628)"/><rect opacity=".6" width="3" height="67.547" rx="1.5" transform="matrix(-1 0 0 1 1166 132.453)"/><rect opacity=".6" width="3" height="85.072" rx="1.5" transform="matrix(-1 0 0 1 1148 114.928)"/><rect opacity=".6" width="3" height="90.184" rx="1.5" transform="matrix(-1 0 0 1 1130 109.816)"/><rect opacity=".6" width="3" height="90.184" rx="1.5" transform="matrix(-1 0 0 1 1112 109.816)"/><rect opacity=".6" width="3" height="30" rx="1.5" transform="matrix(-1 0 0 1 1094 172)"/><rect opacity=".6" width="3" height="32" rx="1.5" transform="matrix(-1 0 0 1 1076 170)"/><rect opacity=".6" width="3" height="32" rx="1.5" transform="matrix(-1 0 0 1 1058 170)"/><rect opacity=".6" width="3" height="29" rx="1.5" transform="matrix(-1 0 0 1 1040 173)"/><rect opacity=".4" width="3" height="35" rx="1.5" transform="matrix(-1 0 0 1 1022 167)"/><rect opacity=".6" width="3" height="32" rx="1.5" transform="matrix(-1 0 0 1 1004 170)"/><rect opacity=".6" width="3" height="22" rx="1.5" transform="matrix(-1 0 0 1 986 180)"/><rect opacity=".6" width="3" height="22" rx="1.5" transform="matrix(-1 0 0 1 968 180)"/><rect opacity=".6" width="3" height="22" rx="1.5" transform="matrix(-1 0 0 1 950 180)"/><rect opacity=".6" width="3" height="21" rx="1.5" transform="matrix(-1 0 0 1 932 181)"/><rect opacity=".6" width="3" height="18" rx="1.5" transform="matrix(-1 0 0 1 914 189)"/><rect opacity=".6" width="3" height="17" rx="1.5" transform="matrix(-1 0 0 1 896 196)"/><rect opacity=".6" width="3" height="16" rx="1.5" transform="matrix(-1 0 0 1 878 197)"/><rect opacity=".6" width="3" height="15" rx="1.5" transform="matrix(-1 0 0 1 860 198)"/><rect opacity=".6" width="3" height="15" rx="1.5" transform="matrix(-1 0 0 1 842 198)"/><rect opacity=".6" width="3" height="15" rx="1.5" transform="matrix(-1 0 0 1 824 198)"/><rect opacity=".6" width="3" height="14" rx="1.5" transform="matrix(-1 0 0 1 806 199)"/><rect opacity=".6" width="3" height="18" rx="1.5" transform="matrix(-1 0 0 1 788 195)"/><rect opacity=".6" width="3" height="14" rx="1.5" transform="matrix(-1 0 0 1 734 199)"/><rect opacity=".6" width="3" height="17" rx="1.5" transform="matrix(-1 0 0 1 716 196)"/><rect opacity=".6" width="3" height="14" rx="1.5" transform="matrix(-1 0 0 1 698 199)"/><rect opacity=".6" width="3" height="16" rx="1.5" transform="matrix(-1 0 0 1 662 197)"/><rect opacity=".6" width="3" height="12" rx="1.5" transform="matrix(-1 0 0 1 626 196)"/><rect opacity=".6" width="3" height="15" rx="1.5" transform="matrix(-1 0 0 1 608 193)"/><rect opacity=".6" width="3" height="10" rx="1.5" transform="matrix(-1 0 0 1 590 198)"/><rect opacity=".6" width="3" height="10" rx="1.5" transform="matrix(-1 0 0 1 572 198)"/><rect opacity=".6" width="3" height="25.882" rx="1.5" transform="matrix(-1 0 0 1 518 192.294)"/><rect opacity=".6" width="3" height="32.941" rx="1.5" transform="matrix(-1 0 0 1 500 195.235)"/><rect opacity=".6" width="3" height="34.118" rx="1.5" transform="matrix(-1 0 0 1 464 193.059)"/><rect opacity=".6" width="3" height="40" rx="1.5" transform="matrix(-1 0 0 1 446 187.177)"/><rect opacity=".6" width="3" height="40" rx="1.5" transform="matrix(-1 0 0 1 428 170.177)"/><rect opacity=".6" width="3" height="36.471" rx="1.5" transform="matrix(-1 0 0 1 410 173.706)"/><rect opacity=".6" width="3" height="49.693" rx="1.5" transform="matrix(-1 0 0 1 392 159.307)"/><rect opacity=".6" width="3" height="61.963" rx="1.5" transform="matrix(-1 0 0 1 374 147.037)"/><rect opacity=".6" width="3" height="65.644" rx="1.5" transform="matrix(-1 0 0 1 356 134.356)"/><rect opacity=".6" width="3" height="61.35" rx="1.5" transform="matrix(-1 0 0 1 338 138.65)"/><rect opacity=".6" width="3" height="55.828" rx="1.5" transform="matrix(-1 0 0 1 320 144.172)"/><rect opacity=".6" width="3" height="53.374" rx="1.5" transform="matrix(-1 0 0 1 302 146.626)"/><rect opacity=".6" width="3" height="40.491" rx="1.5" transform="matrix(-1 0 0 1 284 159.509)"/><rect opacity=".6" width="3" height="39.264" rx="1.5" transform="matrix(-1 0 0 1 266 160.736)"/><rect opacity=".6" width="3" height="49.693" rx="1.5" transform="matrix(-1 0 0 1 248 150.307)"/><rect opacity=".6" width="3" height="34.969" rx="1.5" transform="matrix(-1 0 0 1 230 165.031)"/><rect opacity=".6" width="3" height="34.969" rx="1.5" transform="matrix(-1 0 0 1 212 165.031)"/><rect opacity=".6" width="3" height="55.215" rx="1.5" transform="matrix(-1 0 0 1 194 144.785)"/><rect opacity=".6" width="3" height="58.896" rx="1.5" transform="matrix(-1 0 0 1 176 141.104)"/><rect opacity=".6" width="3" height="69.325" rx="1.5" transform="matrix(-1 0 0 1 158 130.675)"/><rect opacity=".6" width="3" height="104" rx="1.5" transform="matrix(-1 0 0 1 140 101)"/><rect opacity=".6" width="3" height="93" rx="1.5" transform="matrix(-1 0 0 1 122 112)"/><rect opacity=".6" width="3" height="96" rx="1.5" transform="matrix(-1 0 0 1 104 109)"/><rect opacity=".6" width="3" height="115" rx="1.5" transform="matrix(-1 0 0 1 86 90)"/><rect opacity=".6" width="3" height="108" rx="1.5" transform="matrix(-1 0 0 1 68 97)"/><rect opacity=".6" width="3" height="123" rx="1.5" transform="matrix(-1 0 0 1 50 82)"/><rect opacity=".4" width="3" height="141" rx="1.5" transform="matrix(-1 0 0 1 32 68)"/><rect opacity=".4" width="3" height="156" rx="1.5" transform="matrix(-1 0 0 1 14 53)"/><rect opacity=".6" width="3" height="108" rx="1.5" transform="matrix(-1 0 0 1 32 97)"/><rect opacity=".6" width="3" height="123" rx="1.5" transform="matrix(-1 0 0 1 14 82)"/></g></g><g opacity=".5" fill="#fff"><circle opacity=".5" cx="300.5" cy="69" r="9"/><circle opacity=".5" cx="1344.5" cy="34" r="9"/><circle opacity=".5" cx="1182.5" cy="88" r="9"/><circle cx="300.5" cy="69" r="3" stroke="#14C393" stroke-width="2"/><circle opacity=".5" cx="120" cy="72" r="9"/><circle cx="120" cy="72" r="3" stroke="#14C393" stroke-width="2"/><circle cx="1344.5" cy="34" r="3" stroke="#14C393" stroke-width="2"/><circle cx="1182.5" cy="88" r="3" stroke="#14C393" stroke-width="2"/></g><defs><clipPath id="clip0"><path fill="#fff" d="M0 15h1436v185H0z"/></clipPath><clipPath id="clip1"><path transform="matrix(-1 0 0 1 1436 14.724)" fill="#fff" d="M0 0h1408v188.957H0z"/></clipPath><clipPath id="clip2"><path transform="matrix(-1 0 0 1 1436 15.294)" fill="#fff" d="M0 0h1436v184.706H0z"/></clipPath></defs></svg>