<svg width="368" height="231" fill="none" xmlns="http://www.w3.org/2000/svg"><rect x=".5" y=".5" width="367" height="230" rx="3.5" fill="#fff" stroke="#E7EAF3"/><g opacity=".15" filter="url(#filter0_f)"><rect x="26" y="33" width="86" height="28" rx="6.222" fill="#7A859E"/></g><rect x="19.389" y="24.389" width="99.222" height="31.222" rx="15.611" fill="#fff" stroke="#F1F3F9" stroke-width=".778"/><path d="M58.496 44h1.392l-2.052-3.204c1.02-.132 1.992-.9 1.992-2.34 0-1.476-1.044-2.46-2.568-2.46h-3.372V44h1.2v-3.084h1.5L58.496 44zm.096-5.544c0 .84-.624 1.404-1.488 1.404h-2.016v-2.808h2.016c.864 0 1.488.564 1.488 1.404zm2.414.492h3.576v-.684h-2.34c1.404-1.008 2.304-1.836 2.304-2.748 0-.972-.84-1.44-1.776-1.44-.672 0-1.38.252-1.812.768l.456.54c.24-.324.744-.624 1.332-.624.504 0 .96.252.96.816 0 .708-.792 1.392-2.7 2.748v.624zM70.588 44h1.163l2.388-5.796h-1.163l-1.813 4.548-1.811-4.548h-1.153L70.588 44zm6.996.144c1.812 0 2.928-1.368 2.928-3.048 0-1.668-1.116-3.036-2.928-3.036-1.8 0-2.928 1.368-2.928 3.036 0 1.68 1.128 3.048 2.928 3.048zm0-.96c-1.152 0-1.8-.984-1.8-2.088 0-1.092.648-2.076 1.8-2.076 1.164 0 1.8.984 1.8 2.076 0 1.104-.636 2.088-1.8 2.088zm4.3.816h1.08v-8.004h-1.08V44zm6.712 0h1.08v-5.796h-1.08v4.164c-.324.432-.936.816-1.608.816-.744 0-1.224-.288-1.224-1.248v-3.732h-1.08v4.092c0 1.224.612 1.848 1.848 1.848.888 0 1.62-.456 2.064-.936V44zm9.835 0h1.08v-4.188c0-1.164-.576-1.752-1.644-1.752-.852 0-1.62.54-1.956 1.08-.18-.624-.696-1.08-1.572-1.08-.864 0-1.632.6-1.872.96v-.816h-1.08V44h1.08v-4.14c.288-.42.852-.84 1.416-.84.732 0 1.02.444 1.02 1.116V44h1.08v-4.152c.276-.42.852-.828 1.44-.828.708 0 1.008.444 1.008 1.116V44zm2.44-2.904c0 1.824 1.272 3.048 3 3.048.936 0 1.752-.3 2.328-.864l-.504-.708c-.432.444-1.104.684-1.716.684-1.164 0-1.884-.816-1.968-1.8h4.584v-.264c0-1.776-1.08-3.132-2.82-3.132-1.692 0-2.904 1.356-2.904 3.036zm2.904-2.148c1.224 0 1.74.96 1.764 1.728h-3.54c.06-.792.612-1.728 1.776-1.728z" fill="#2F354D"/><circle cx="37" cy="40" r="10" fill="#FFE6E6"/><circle cx="37" cy="40" r="4" fill="#FF5B5B"/><g opacity=".15" filter="url(#filter1_f)"><rect x="134" y="33" width="85" height="28" rx="6.222" fill="#7A859E"/></g><rect x="127.389" y="24.389" width="98.222" height="31.222" rx="15.611" fill="#fff" stroke="#F1F3F9" stroke-width=".778"/><path d="M166.496 44h1.392l-2.052-3.204c1.02-.132 1.992-.9 1.992-2.34 0-1.476-1.044-2.46-2.568-2.46h-3.372V44h1.2v-3.084h1.5L166.496 44zm.096-5.544c0 .84-.624 1.404-1.488 1.404h-2.016v-2.808h2.016c.864 0 1.488.564 1.488 1.404zm2.414.492h3.576v-.684h-2.34c1.404-1.008 2.304-1.836 2.304-2.748 0-.972-.84-1.44-1.776-1.44-.672 0-1.38.252-1.812.768l.456.54c.24-.324.744-.624 1.332-.624.504 0 .96.252.96.816 0 .708-.792 1.392-2.7 2.748v.624zM184.096 44h1.08v-4.188c0-1.164-.576-1.752-1.644-1.752-.852 0-1.62.54-1.956 1.08-.18-.624-.696-1.08-1.572-1.08-.864 0-1.632.6-1.872.96v-.816h-1.08V44h1.08v-4.14c.288-.42.852-.84 1.416-.84.732 0 1.02.444 1.02 1.116V44h1.08v-4.152c.276-.42.852-.828 1.44-.828.708 0 1.008.444 1.008 1.116V44zm6.375 0h1.08v-3.912c0-1.476-1.068-2.028-2.328-2.028-.936 0-1.728.312-2.376.948l.468.744c.516-.516 1.08-.768 1.74-.768.828 0 1.416.432 1.416 1.152v.96c-.444-.516-1.116-.768-1.896-.768-.972 0-2.016.576-2.016 1.896 0 1.272 1.056 1.92 2.016 1.92.78 0 1.44-.276 1.896-.78V44zm0-1.272c-.324.432-.888.66-1.488.66-.78 0-1.332-.468-1.332-1.152 0-.684.552-1.152 1.332-1.152.6 0 1.164.228 1.488.66v.984zM193.282 44h1.08v-4.032c.252-.432.984-.84 1.524-.84a1.7 1.7 0 0 1 .372.036v-1.092c-.768 0-1.452.444-1.896 1.02v-.888h-1.08V44zm7.943 0h1.368l-2.52-3.168 2.496-2.628h-1.356l-2.796 2.94v-5.148h-1.08V44h1.08v-1.608l.876-.888L201.225 44zm1.693-2.904c0 1.824 1.272 3.048 3 3.048.936 0 1.752-.3 2.328-.864l-.504-.708c-.432.444-1.104.684-1.716.684-1.164 0-1.884-.816-1.968-1.8h4.584v-.264c0-1.776-1.08-3.132-2.82-3.132-1.692 0-2.904 1.356-2.904 3.036zm2.904-2.148c1.224 0 1.74.96 1.764 1.728h-3.54c.06-.792.612-1.728 1.776-1.728zm5.767 5.196c.564 0 .9-.156 1.128-.372l-.276-.816c-.108.12-.336.228-.588.228-.372 0-.564-.3-.564-.708v-3.324h1.176v-.948h-1.176V36.62h-1.08v1.584h-.96v.948h.96v3.564c0 .912.468 1.428 1.38 1.428z" fill="#2F354D"/><circle cx="145" cy="40" r="10" fill="#DAE0FD"/><circle cx="145" cy="40" r="4" fill="#5275FF"/><g opacity=".15" filter="url(#filter2_f)"><rect x="239" y="33" width="105" height="28" rx="6.222" fill="#7A859E"/></g><rect x="234.389" y="24.389" width="114.222" height="31.222" rx="15.611" fill="#fff" stroke="#F1F3F9" stroke-width=".778"/><path d="M273.496 44h1.392l-2.052-3.204c1.02-.132 1.992-.9 1.992-2.34 0-1.476-1.044-2.46-2.568-2.46h-3.372V44h1.2v-3.084h1.5L273.496 44zm.096-5.544c0 .84-.624 1.404-1.488 1.404h-2.016v-2.808h2.016c.864 0 1.488.564 1.488 1.404zm2.414.492h3.576v-.684h-2.34c1.404-1.008 2.304-1.836 2.304-2.748 0-.972-.84-1.44-1.776-1.44-.672 0-1.38.252-1.812.768l.456.54c.24-.324.744-.624 1.332-.624.504 0 .96.252.96.816 0 .708-.792 1.392-2.7 2.748v.624zm7.686 2.148c0 1.74 1.2 3.048 2.952 3.048 1.092 0 1.752-.456 2.172-1.02l-.72-.66c-.348.48-.816.72-1.404.72-1.14 0-1.872-.888-1.872-2.088 0-1.2.732-2.076 1.872-2.076.588 0 1.056.228 1.404.72l.72-.66c-.42-.564-1.08-1.02-2.172-1.02-1.752 0-2.952 1.296-2.952 3.036zm8.881 3.048c1.812 0 2.928-1.368 2.928-3.048 0-1.668-1.116-3.036-2.928-3.036-1.8 0-2.928 1.368-2.928 3.036 0 1.68 1.128 3.048 2.928 3.048zm0-.96c-1.152 0-1.8-.984-1.8-2.088 0-1.092.648-2.076 1.8-2.076 1.164 0 1.8.984 1.8 2.076 0 1.104-.636 2.088-1.8 2.088zm11.343.816h1.08v-4.188c0-1.164-.576-1.752-1.644-1.752-.852 0-1.62.54-1.956 1.08-.18-.624-.696-1.08-1.572-1.08-.864 0-1.632.6-1.872.96v-.816h-1.08V44h1.08v-4.14c.288-.42.852-.84 1.416-.84.732 0 1.02.444 1.02 1.116V44h1.08v-4.152c.276-.42.852-.828 1.44-.828.708 0 1.008.444 1.008 1.116V44zm2.8 0h1.08v-.828c.432.576 1.116.972 1.896.972 1.5 0 2.58-1.14 2.58-3.036 0-1.86-1.068-3.048-2.58-3.048-.756 0-1.44.36-1.896.984v-3.048h-1.08V44zm1.08-1.656v-2.46c.288-.468.948-.864 1.608-.864 1.08 0 1.752.876 1.752 2.088 0 1.212-.672 2.076-1.752 2.076-.66 0-1.32-.372-1.608-.84zm6.385-5.112c.384 0 .696-.3.696-.684a.697.697 0 0 0-.696-.696.704.704 0 0 0-.696.696c0 .384.324.684.696.684zM313.653 44h1.08v-5.796h-1.08V44zm6.713 0h1.08v-4.068c0-1.224-.636-1.872-1.86-1.872-.9 0-1.668.492-2.052.96v-.816h-1.08V44h1.08v-4.14c.312-.432.924-.84 1.596-.84.744 0 1.236.312 1.236 1.272V44zm2.431-2.904c0 1.824 1.272 3.048 3 3.048.936 0 1.752-.3 2.328-.864l-.504-.708c-.432.444-1.104.684-1.716.684-1.164 0-1.884-.816-1.968-1.8h4.584v-.264c0-1.776-1.08-3.132-2.82-3.132-1.692 0-2.904 1.356-2.904 3.036zm2.904-2.148c1.224 0 1.74.96 1.764 1.728h-3.54c.06-.792.612-1.728 1.776-1.728zM334 44h1.08v-8.004H334v3.048c-.468-.624-1.152-.984-1.896-.984-1.512 0-2.592 1.188-2.592 3.048 0 1.896 1.08 3.036 2.592 3.036.768 0 1.464-.396 1.896-.972V44zm0-1.656c-.3.468-.948.84-1.608.84-1.08 0-1.752-.876-1.752-2.076 0-1.212.672-2.088 1.752-2.088.66 0 1.308.384 1.608.852v2.472z" fill="#2F354D"/><circle cx="252" cy="40" r="10" fill="#E7E4FF"/><circle cx="252" cy="40" r="4" fill="#8358FF"/><path fill="#E7EAF3" d="M84 80v96h-2V80z"/><g opacity=".3"><rect x="84" y="88" width="118" height="4" rx="2" fill="#FF5B5B"/><rect x="84" y="94" width="40" height="4" rx="2" fill="#5275FF"/><rect x="84" y="100" width="98" height="4" rx="2" fill="#8358FF"/></g><rect x="84" y="120" width="195" height="4" rx="2" fill="#FF5B5B"/><rect x="84" y="126" width="225" height="4" rx="2" fill="#5275FF"/><rect x="84" y="132" width="162" height="4" rx="2" fill="#8358FF"/><g opacity=".3"><rect x="84" y="152" width="91" height="4" rx="2" fill="#FF5B5B"/><rect x="84" y="158" width="118" height="4" rx="2" fill="#5275FF"/><rect x="84" y="164" width="153" height="4" rx="2" fill="#8358FF"/></g><path d="M105.49 207h1.243l2.167-5.313h-1.243l-1.551 3.982-1.551-3.982h-1.232L105.49 207zm7.38 0h1.155v-3.52c0-1.43-1.034-1.925-2.211-1.925-.847 0-1.617.275-2.233.858l.473.803c.462-.451.979-.671 1.573-.671.737 0 1.243.374 1.243.99v.792c-.385-.451-1.001-.682-1.716-.682-.869 0-1.848.506-1.848 1.727 0 1.177.979 1.76 1.848 1.76.704 0 1.32-.253 1.716-.704V207zm0-1.21c-.264.363-.759.55-1.265.55-.649 0-1.133-.374-1.133-.946 0-.583.484-.957 1.133-.957.506 0 1.001.187 1.265.55v.803zm2.652 1.21h1.155v-3.619c.231-.374.88-.704 1.364-.704.143 0 .264.011.363.033v-1.144c-.693 0-1.331.396-1.727.902v-.781h-1.155V207zm4.386-6.193a.714.714 0 0 0 .715-.715.714.714 0 0 0-.715-.715.72.72 0 0 0-.715.715c0 .396.33.715.715.715zm-.572 6.193h1.155v-5.313h-1.155V207zm5.898 0h1.155v-3.52c0-1.43-1.034-1.925-2.211-1.925-.847 0-1.617.275-2.233.858l.473.803c.462-.451.979-.671 1.573-.671.737 0 1.243.374 1.243.99v.792c-.385-.451-1.001-.682-1.716-.682-.869 0-1.848.506-1.848 1.727 0 1.177.979 1.76 1.848 1.76.704 0 1.32-.253 1.716-.704V207zm0-1.21c-.264.363-.759.55-1.265.55-.649 0-1.133-.374-1.133-.946 0-.583.484-.957 1.133-.957.506 0 1.001.187 1.265.55v.803zm6.239 1.21h1.155v-3.74c0-1.089-.572-1.705-1.716-1.705-.836 0-1.518.44-1.87.858v-.726h-1.155V207h1.155v-3.707c.264-.363.77-.715 1.364-.715.649 0 1.067.275 1.067 1.1V207zm2.325-2.662c0 1.617 1.133 2.794 2.75 2.794 1.034 0 1.661-.44 2.035-.946l-.759-.704a1.444 1.444 0 0 1-1.221.627c-.968 0-1.606-.737-1.606-1.771 0-1.034.638-1.76 1.606-1.76.517 0 .924.209 1.221.627l.759-.704c-.374-.506-1.001-.946-2.035-.946-1.617 0-2.75 1.177-2.75 2.783zm5.468 0c0 1.683 1.188 2.794 2.783 2.794.847 0 1.628-.264 2.156-.77l-.528-.759c-.374.374-.99.583-1.507.583-1.001 0-1.606-.66-1.694-1.463h4.103v-.275c0-1.672-1.023-2.893-2.618-2.893-1.573 0-2.695 1.243-2.695 2.783zm2.695-1.837c1.045 0 1.474.781 1.496 1.408h-2.992c.055-.649.506-1.408 1.496-1.408zm6.253 1.837c0 1.683 1.188 2.794 2.783 2.794.847 0 1.628-.264 2.156-.77l-.528-.759c-.374.374-.99.583-1.507.583-1.001 0-1.606-.66-1.694-1.463h4.103v-.275c0-1.672-1.023-2.893-2.618-2.893-1.573 0-2.695 1.243-2.695 2.783zm2.695-1.837c1.045 0 1.474.781 1.496 1.408h-2.992c.055-.649.506-1.408 1.496-1.408zm6.673 4.499h1.298l-1.958-2.728 1.837-2.585h-1.298l-1.254 1.804-1.265-1.804h-1.298l1.837 2.585-1.947 2.728h1.287l1.386-1.958 1.375 1.958zm3.257 2.024v-2.761c.429.572 1.034.869 1.705.869 1.375 0 2.354-1.045 2.354-2.794s-.979-2.783-2.354-2.783a2.12 2.12 0 0 0-1.705.858v-.726h-1.155v7.337h1.155zm2.86-4.686c0 1.034-.583 1.771-1.496 1.771-.539 0-1.111-.33-1.364-.715v-2.101c.253-.396.825-.715 1.364-.715.913 0 1.496.737 1.496 1.76zm2.365 2.662h1.155v-7.337h-1.155V207zm5.899 0h1.155v-3.52c0-1.43-1.034-1.925-2.211-1.925-.847 0-1.617.275-2.233.858l.473.803c.462-.451.979-.671 1.573-.671.737 0 1.243.374 1.243.99v.792c-.385-.451-1.001-.682-1.716-.682-.869 0-1.848.506-1.848 1.727 0 1.177.979 1.76 1.848 1.76.704 0 1.32-.253 1.716-.704V207zm0-1.21c-.264.363-.759.55-1.265.55-.649 0-1.133-.374-1.133-.946 0-.583.484-.957 1.133-.957.506 0 1.001.187 1.265.55v.803zm3.224-4.983a.714.714 0 0 0 .715-.715.714.714 0 0 0-.715-.715.72.72 0 0 0-.715.715c0 .396.33.715.715.715zm-.572 6.193h1.155v-5.313h-1.155V207zm6.24 0h1.155v-3.74c0-1.089-.572-1.705-1.716-1.705-.836 0-1.518.44-1.87.858v-.726h-1.155V207h1.155v-3.707c.264-.363.77-.715 1.364-.715.649 0 1.067.275 1.067 1.1V207zm2.325-2.662c0 1.683 1.188 2.794 2.783 2.794.847 0 1.628-.264 2.156-.77l-.528-.759c-.374.374-.99.583-1.507.583-1.001 0-1.606-.66-1.694-1.463h4.103v-.275c0-1.672-1.023-2.893-2.618-2.893-1.573 0-2.695 1.243-2.695 2.783zm2.695-1.837c1.045 0 1.474.781 1.496 1.408h-2.992c.055-.649.506-1.408 1.496-1.408zm7.498 4.499h1.155v-7.337h-1.155v2.761c-.429-.561-1.045-.869-1.705-.869-1.375 0-2.365 1.078-2.365 2.794 0 1.749 1.001 2.783 2.365 2.783.682 0 1.298-.33 1.705-.858V207zm0-1.595c-.264.396-.825.704-1.375.704-.913 0-1.496-.737-1.496-1.76 0-1.034.583-1.771 1.496-1.771.55 0 1.111.319 1.375.715v2.112zm6.852 3.784l.715-.55c-.726-1.353-1.122-2.585-1.122-4.312 0-1.727.396-2.959 1.122-4.323l-.715-.539c-1.034 1.276-1.661 3.091-1.661 4.862s.627 3.597 1.661 4.862zm5.889-2.189h1.485l-1.793-2.882c.88-.143 1.738-.847 1.738-2.156 0-1.353-.946-2.299-2.398-2.299h-3.223V207h1.287v-2.739h1.276l1.628 2.739zm.11-5.038c0 .704-.528 1.166-1.254 1.166h-1.76v-2.332h1.76c.726 0 1.254.462 1.254 1.166zm2.353.407h3.344v-.715h-2.057c1.287-.913 2.024-1.617 2.024-2.409 0-.891-.759-1.342-1.683-1.342-.616 0-1.287.22-1.705.715l.473.561c.22-.286.682-.561 1.21-.561.44 0 .825.22.825.693 0 .583-.627 1.133-2.431 2.409v.649zm5.11 1.958c0 1.727-.396 2.959-1.133 4.312l.715.55c1.045-1.265 1.672-3.091 1.672-4.862s-.627-3.586-1.672-4.862l-.715.539c.737 1.364 1.133 2.596 1.133 4.323zM218.98 207h1.155v-.726c.407.528 1.012.858 1.705.858 1.353 0 2.354-1.034 2.354-2.783 0-1.716-.99-2.794-2.354-2.794a2.1 2.1 0 0 0-1.705.869v-2.761h-1.155V207zm1.155-1.595v-2.101c.253-.396.825-.726 1.364-.726.924 0 1.507.737 1.507 1.771 0 1.034-.583 1.76-1.507 1.76-.539 0-1.111-.308-1.364-.704zm5.182 2.64l-.176 1.034c.165.044.484.077.649.077.825-.011 1.463-.297 1.826-1.199l2.563-6.27h-1.243l-1.551 3.982-1.551-3.982h-1.232l2.178 5.379-.264.605c-.154.352-.396.462-.759.462-.132 0-.319-.033-.44-.088zm9.809-1.045h1.243l2.167-5.313h-1.243l-1.551 3.982-1.551-3.982h-1.232l2.167 5.313zm6.534.132c1.705 0 2.739-1.265 2.739-2.794 0-1.518-1.034-2.783-2.739-2.783-1.683 0-2.728 1.265-2.728 2.783 0 1.529 1.045 2.794 2.728 2.794zm0-1.023c-.979 0-1.529-.825-1.529-1.771 0-.935.55-1.76 1.529-1.76.99 0 1.54.825 1.54 1.76 0 .946-.55 1.771-1.54 1.771zm3.907.891h1.155v-7.337h-1.155V207zm6.24 0h1.155v-5.313h-1.155v3.729c-.275.363-.781.693-1.364.693-.649 0-1.067-.253-1.067-1.078v-3.344h-1.155v3.762c0 1.089.561 1.683 1.705 1.683.836 0 1.496-.407 1.881-.836V207zm9.167 0h1.155v-3.839c0-1.078-.55-1.606-1.529-1.606-.792 0-1.496.495-1.804.979-.176-.583-.66-.979-1.452-.979-.803 0-1.507.528-1.727.858v-.726h-1.155V207h1.155v-3.707c.242-.352.715-.715 1.221-.715.627 0 .88.385.88.957V207h1.155v-3.718c.231-.341.715-.704 1.232-.704.616 0 .869.385.869.957V207zm2.321-2.662c0 1.683 1.188 2.794 2.783 2.794.847 0 1.628-.264 2.156-.77l-.528-.759c-.374.374-.99.583-1.507.583-1.001 0-1.606-.66-1.694-1.463h4.103v-.275c0-1.672-1.023-2.893-2.618-2.893-1.573 0-2.695 1.243-2.695 2.783zm2.695-1.837c1.045 0 1.474.781 1.496 1.408h-2.992c.055-.649.506-1.408 1.496-1.408zM30.494 166.208v-3.012c.468.624 1.128.948 1.86.948 1.5 0 2.568-1.14 2.568-3.048 0-1.908-1.068-3.036-2.568-3.036-.756 0-1.428.36-1.86.936v-.792h-1.26v8.004h1.26zm3.12-5.112c0 1.128-.636 1.932-1.632 1.932-.588 0-1.212-.36-1.488-.78v-2.292c.276-.432.9-.78 1.488-.78.996 0 1.632.804 1.632 1.92zm6.12 2.904h1.26v-3.84c0-1.56-1.127-2.1-2.411-2.1-.924 0-1.764.3-2.436.936l.516.876c.504-.492 1.068-.732 1.716-.732.804 0 1.356.408 1.356 1.08v.864c-.42-.492-1.092-.744-1.872-.744-.948 0-2.016.552-2.016 1.884 0 1.284 1.068 1.92 2.016 1.92.768 0 1.44-.276 1.872-.768V164zm0-1.32c-.287.396-.827.6-1.38.6-.707 0-1.235-.408-1.235-1.032 0-.636.528-1.044 1.236-1.044.552 0 1.092.204 1.38.6v.876zm6.554 1.32h1.417l-2.136-2.976 2.003-2.82h-1.416l-1.367 1.968-1.38-1.968h-1.416l2.003 2.82L41.873 164h1.404l1.511-2.136 1.5 2.136zm4.605.144c1.86 0 2.988-1.38 2.988-3.048 0-1.656-1.128-3.036-2.988-3.036-1.836 0-2.976 1.38-2.976 3.036 0 1.668 1.14 3.048 2.976 3.048zm0-1.116c-1.068 0-1.668-.9-1.668-1.932 0-1.02.6-1.92 1.668-1.92 1.08 0 1.68.9 1.68 1.92 0 1.032-.6 1.932-1.68 1.932zm3.759.216c.6.588 1.5.9 2.484.9 1.56 0 2.412-.78 2.412-1.8 0-1.368-1.236-1.656-2.244-1.872-.684-.156-1.26-.312-1.26-.756 0-.408.42-.648 1.08-.648.72 0 1.368.3 1.716.696l.528-.888c-.528-.468-1.272-.816-2.256-.816-1.464 0-2.28.816-2.28 1.764 0 1.296 1.188 1.56 2.184 1.776.708.156 1.32.336 1.32.84 0 .432-.384.708-1.14.708-.756 0-1.56-.396-1.968-.816l-.576.912zM48.595 132h1.26v-8.004h-1.26v3.012c-.468-.612-1.14-.948-1.86-.948-1.5 0-2.58 1.176-2.58 3.048 0 1.908 1.092 3.036 2.58 3.036.744 0 1.416-.36 1.86-.936V132zm0-1.74c-.288.432-.9.768-1.5.768-.996 0-1.632-.804-1.632-1.92 0-1.128.636-1.932 1.632-1.932.6 0 1.212.348 1.5.78v2.304zm6.433 1.74h1.26v-3.84c0-1.56-1.128-2.1-2.412-2.1-.924 0-1.764.3-2.436.936l.516.876c.504-.492 1.068-.732 1.716-.732.804 0 1.356.408 1.356 1.08v.864c-.42-.492-1.092-.744-1.872-.744-.948 0-2.016.552-2.016 1.884 0 1.284 1.068 1.92 2.016 1.92.768 0 1.44-.276 1.872-.768V132zm0-1.32c-.288.396-.828.6-1.38.6-.708 0-1.236-.408-1.236-1.032 0-.636.528-1.044 1.236-1.044.552 0 1.092.204 1.38.6v.876zm3.517-5.436c.432 0 .78-.348.78-.78a.778.778 0 0 0-.78-.78c-.42 0-.78.348-.78.78 0 .432.36.78.78.78zM57.922 132h1.26v-5.796h-1.26V132zm-27.37-31.856c.588 0 .96-.156 1.188-.372l-.3-.948c-.096.108-.324.204-.564.204-.36 0-.552-.288-.552-.684v-3.036H31.5v-1.104h-1.176V92.62h-1.26v1.584h-.96v1.104h.96v3.348c0 .96.516 1.488 1.488 1.488zm1.732-3.048c0 1.836 1.296 3.048 3.036 3.048.924 0 1.776-.288 2.352-.84l-.576-.828c-.408.408-1.08.636-1.644.636-1.092 0-1.752-.72-1.848-1.596h4.476v-.3c0-1.824-1.116-3.156-2.856-3.156-1.716 0-2.94 1.356-2.94 3.036zm2.94-2.004c1.14 0 1.608.852 1.632 1.536h-3.264c.06-.708.552-1.536 1.632-1.536zm5.84 5.052c.588 0 .96-.156 1.188-.372l-.3-.948c-.096.108-.324.204-.564.204-.36 0-.552-.288-.552-.684v-3.036h1.176v-1.104h-1.176V92.62h-1.26v1.584h-.96v1.104h.96v3.348c0 .96.516 1.488 1.488 1.488zM47.08 100h1.26v-4.104c0-1.188-.624-1.836-1.872-1.836a2.77 2.77 0 0 0-2.052.936v-3h-1.26V100h1.26v-4.044c.3-.396.852-.78 1.488-.78.708 0 1.176.276 1.176 1.176V100zm2.536-2.904c0 1.836 1.296 3.048 3.036 3.048.924 0 1.776-.288 2.352-.84l-.576-.828c-.408.408-1.08.636-1.644.636-1.092 0-1.752-.72-1.848-1.596h4.476v-.3c0-1.824-1.116-3.156-2.856-3.156-1.716 0-2.94 1.356-2.94 3.036zm2.94-2.004c1.14 0 1.608.852 1.632 1.536h-3.264c.06-.708.552-1.536 1.632-1.536zm4.1 4.908h1.26v-3.948c.252-.408.96-.768 1.488-.768.156 0 .288.012.396.036v-1.248c-.756 0-1.452.432-1.884.984v-.852h-1.26V100z" fill="#9FAAC4"/><defs><filter id="filter0_f" x="6" y="13" width="126" height="68" filterUnits="userSpaceOnUse" color-interpolation-filters="sRGB"><feFlood flood-opacity="0" result="BackgroundImageFix"/><feBlend in="SourceGraphic" in2="BackgroundImageFix" result="shape"/><feGaussianBlur stdDeviation="10" result="effect1_foregroundBlur"/></filter><filter id="filter1_f" x="114" y="13" width="125" height="68" filterUnits="userSpaceOnUse" color-interpolation-filters="sRGB"><feFlood flood-opacity="0" result="BackgroundImageFix"/><feBlend in="SourceGraphic" in2="BackgroundImageFix" result="shape"/><feGaussianBlur stdDeviation="10" result="effect1_foregroundBlur"/></filter><filter id="filter2_f" x="219" y="13" width="145" height="68" filterUnits="userSpaceOnUse" color-interpolation-filters="sRGB"><feFlood flood-opacity="0" result="BackgroundImageFix"/><feBlend in="SourceGraphic" in2="BackgroundImageFix" result="shape"/><feGaussianBlur stdDeviation="10" result="effect1_foregroundBlur"/></filter></defs></svg>