<svg width="486" height="300" fill="none" xmlns="http://www.w3.org/2000/svg"><rect x="1.5" y=".5" width="483" height="299" rx="3.5" fill="#fff" stroke="#E7EAF3"/><rect y="232" width="486" height="2" rx="1" fill="#F9FAFC"/><rect y="149" width="486" height="2" rx="1" fill="#F9FAFC"/><rect y="66" width="486" height="2" rx="1" fill="#F9FAFC"/><mask id="a" maskUnits="userSpaceOnUse" x="1" y="0" width="484" height="300"><rect x="1.5" y=".5" width="483" height="299" rx="3.5" fill="#fff" stroke="#E7EAF3"/></mask><g mask="url(#a)"><g opacity=".15" filter="url(#filter0_f)"><rect x="319" y="123" width="101" height="28" rx="6.222" fill="#7A859E"/></g><g filter="url(#filter1_d)"><rect x="311" y="114" width="158" height="32" rx="16" fill="#fff"/><rect x="311.389" y="114.389" width="157.222" height="31.222" rx="15.611" stroke="#F1F3F9" stroke-width=".778"/></g><path d="M347.844 134h1.2v-6.948h2.472v-1.056h-6.156v1.056h2.484V134zm5.427-6.768c.384 0 .696-.3.696-.684a.697.697 0 0 0-.696-.696.704.704 0 0 0-.696.696c0 .384.324.684.696.684zm-.528 6.768h1.08v-5.796h-1.08V134zm9.845 0h1.08v-4.188c0-1.164-.576-1.752-1.644-1.752-.852 0-1.62.54-1.956 1.08-.18-.624-.696-1.08-1.572-1.08-.864 0-1.632.6-1.872.96v-.816h-1.08V134h1.08v-4.14c.288-.42.852-.84 1.416-.84.732 0 1.02.444 1.02 1.116V134h1.08v-4.152c.276-.42.852-.828 1.44-.828.708 0 1.008.444 1.008 1.116V134zm2.439-2.904c0 1.824 1.272 3.048 3 3.048.936 0 1.752-.3 2.328-.864l-.504-.708c-.432.444-1.104.684-1.716.684-1.164 0-1.884-.816-1.968-1.8h4.584v-.264c0-1.776-1.08-3.132-2.82-3.132-1.692 0-2.904 1.356-2.904 3.036zm2.904-2.148c1.224 0 1.74.96 1.764 1.728h-3.54c.06-.792.612-1.728 1.776-1.728zm11.057 5.196c1.572 0 2.544-.756 3.18-1.692l-1.02-.54a2.537 2.537 0 0 1-2.16 1.164c-1.62 0-2.868-1.284-2.868-3.072 0-1.8 1.248-3.072 2.868-3.072.948 0 1.74.492 2.16 1.164l1.02-.54c-.624-.936-1.608-1.692-3.18-1.692-2.28 0-4.104 1.68-4.104 4.14s1.824 4.14 4.104 4.14zm4.353-.144h1.08v-4.032c.252-.432.984-.84 1.524-.84a1.7 1.7 0 0 1 .372.036v-1.092c-.768 0-1.452.444-1.896 1.02v-.888h-1.08V134zm6.622.144c1.812 0 2.928-1.368 2.928-3.048 0-1.668-1.116-3.036-2.928-3.036-1.8 0-2.928 1.368-2.928 3.036 0 1.68 1.128 3.048 2.928 3.048zm0-.96c-1.152 0-1.8-.984-1.8-2.088 0-1.092.648-2.076 1.8-2.076 1.164 0 1.8.984 1.8 2.076 0 1.104-.636 2.088-1.8 2.088zm3.795.06c.588.6 1.44.9 2.412.9 1.524 0 2.34-.78 2.34-1.776 0-1.332-1.2-1.608-2.208-1.836-.72-.168-1.344-.336-1.344-.84 0-.468.456-.756 1.188-.756s1.38.3 1.716.708l.48-.756c-.492-.468-1.212-.828-2.208-.828-1.416 0-2.208.792-2.208 1.716 0 1.248 1.152 1.512 2.136 1.74.744.168 1.404.36 1.404.936 0 .492-.432.828-1.248.828-.78 0-1.548-.396-1.944-.828l-.516.792zm5.614 0c.588.6 1.44.9 2.412.9 1.524 0 2.34-.78 2.34-1.776 0-1.332-1.2-1.608-2.208-1.836-.72-.168-1.344-.336-1.344-.84 0-.468.456-.756 1.188-.756s1.38.3 1.716.708l.48-.756c-.492-.468-1.212-.828-2.208-.828-1.416 0-2.208.792-2.208 1.716 0 1.248 1.152 1.512 2.136 1.74.744.168 1.404.36 1.404.936 0 .492-.432.828-1.248.828-.78 0-1.548-.396-1.944-.828l-.516.792zm5.757-2.148c0 1.824 1.272 3.048 3 3.048.936 0 1.752-.3 2.328-.864l-.504-.708c-.432.444-1.104.684-1.716.684-1.164 0-1.884-.816-1.968-1.8h4.584v-.264c0-1.776-1.08-3.132-2.82-3.132-1.692 0-2.904 1.356-2.904 3.036zm2.904-2.148c1.224 0 1.74.96 1.764 1.728h-3.54c.06-.792.612-1.728 1.776-1.728zm8.299 5.052h1.08v-8.004h-1.08v3.048c-.468-.624-1.152-.984-1.896-.984-1.512 0-2.592 1.188-2.592 3.048 0 1.896 1.08 3.036 2.592 3.036.768 0 1.464-.396 1.896-.972V134zm0-1.656c-.3.468-.948.84-1.608.84-1.08 0-1.752-.876-1.752-2.076 0-1.212.672-2.088 1.752-2.088.66 0 1.308.384 1.608.852v2.472zM427.971 134h1.32l-3.18-8.004h-1.5l-3.18 8.004h1.32l.648-1.656h3.924l.648 1.656zm-2.616-6.96l1.62 4.236h-3.228l1.608-4.236zm4.872 6.96h1.08v-.828c.432.576 1.116.972 1.896.972 1.5 0 2.58-1.14 2.58-3.036 0-1.86-1.068-3.048-2.58-3.048-.756 0-1.44.36-1.896.984v-3.048h-1.08V134zm1.08-1.656v-2.46c.288-.468.948-.864 1.608-.864 1.08 0 1.752.876 1.752 2.088 0 1.212-.672 2.076-1.752 2.076-.66 0-1.32-.372-1.608-.84zm8.426 1.8c1.812 0 2.928-1.368 2.928-3.048 0-1.668-1.116-3.036-2.928-3.036-1.8 0-2.928 1.368-2.928 3.036 0 1.68 1.128 3.048 2.928 3.048zm0-.96c-1.152 0-1.8-.984-1.8-2.088 0-1.092.648-2.076 1.8-2.076 1.164 0 1.8.984 1.8 2.076 0 1.104-.636 2.088-1.8 2.088zm5.835.816h1.164l2.388-5.796h-1.164l-1.812 4.548-1.812-4.548h-1.152l2.388 5.796zm4.069-2.904c0 1.824 1.272 3.048 3 3.048.936 0 1.752-.3 2.328-.864l-.504-.708c-.432.444-1.104.684-1.716.684-1.164 0-1.884-.816-1.968-1.8h4.584v-.264c0-1.776-1.08-3.132-2.82-3.132-1.692 0-2.904 1.356-2.904 3.036zm2.904-2.148c1.224 0 1.74.96 1.764 1.728h-3.54c.06-.792.612-1.728 1.776-1.728z" fill="#2F354D"/><circle cx="329" cy="130" r="10" fill="#DAE0FD"/><rect x="325" y="126" width="8" height="8" rx="1" fill="#5275FF"/><g opacity=".15" filter="url(#filter2_f)"><rect x="186" y="25" width="274" height="28" rx="6.222" fill="#7A859E"/></g><g filter="url(#filter3_d)"><rect x="178" y="16" width="291" height="32" rx="16" fill="#fff"/><rect x="178.389" y="16.389" width="290.222" height="31.222" rx="15.611" stroke="#F1F3F9" stroke-width=".778"/></g><path d="M212.36 29.868c0 1.116.78 1.968 1.944 1.968 1.176 0 1.968-.852 1.968-1.968 0-1.128-.792-1.992-1.968-1.992-1.164 0-1.944.864-1.944 1.992zM213.548 36h.72l5.124-8.004h-.732L213.548 36zm1.896-6.132c0 .72-.468 1.272-1.14 1.272-.66 0-1.128-.552-1.128-1.272 0-.744.468-1.284 1.128-1.284.672 0 1.14.54 1.14 1.284zm1.152 4.308c0 1.116.792 1.968 1.956 1.968s1.956-.852 1.956-1.968c0-1.128-.792-1.992-1.956-1.992s-1.956.864-1.956 1.992zm3.096 0c0 .732-.468 1.272-1.14 1.272-.672 0-1.14-.54-1.14-1.272 0-.744.468-1.284 1.14-1.284.672 0 1.14.54 1.14 1.284zM226.809 36h1.2v-6.948h2.472v-1.056h-6.156v1.056h2.484V36zm5.427-6.768c.384 0 .696-.3.696-.684a.697.697 0 0 0-.696-.696.704.704 0 0 0-.696.696c0 .384.324.684.696.684zM231.708 36h1.08v-5.796h-1.08V36zm9.845 0h1.08v-4.188c0-1.164-.576-1.752-1.644-1.752-.852 0-1.62.54-1.956 1.08-.18-.624-.696-1.08-1.572-1.08-.864 0-1.632.6-1.872.96v-.816h-1.08V36h1.08v-4.14c.288-.42.852-.84 1.416-.84.732 0 1.02.444 1.02 1.116V36h1.08v-4.152c.276-.42.852-.828 1.44-.828.708 0 1.008.444 1.008 1.116V36zm2.439-2.904c0 1.824 1.272 3.048 3 3.048.936 0 1.752-.3 2.328-.864l-.504-.708c-.432.444-1.104.684-1.716.684-1.164 0-1.884-.816-1.968-1.8h4.584v-.264c0-1.776-1.08-3.132-2.82-3.132-1.692 0-2.904 1.356-2.904 3.036zm2.904-2.148c1.224 0 1.74.96 1.764 1.728h-3.54c.06-.792.612-1.728 1.776-1.728zM254.185 36h3.852c1.476 0 2.316-.9 2.316-2.16 0-.972-.696-1.836-1.548-1.968.732-.156 1.392-.828 1.392-1.836 0-1.164-.828-2.04-2.256-2.04h-3.756V36zm1.2-4.608v-2.34h2.328c.804 0 1.248.516 1.248 1.176 0 .66-.444 1.164-1.248 1.164h-2.328zm0 3.552v-2.496h2.388c.888 0 1.344.576 1.344 1.236 0 .78-.504 1.26-1.344 1.26h-2.388zm6.068-1.848c0 1.824 1.272 3.048 3 3.048.936 0 1.752-.3 2.328-.864l-.504-.708c-.432.444-1.104.684-1.716.684-1.164 0-1.884-.816-1.968-1.8h4.584v-.264c0-1.776-1.08-3.132-2.82-3.132-1.692 0-2.904 1.356-2.904 3.036zm2.904-2.148c1.224 0 1.74.96 1.764 1.728h-3.54c.06-.792.612-1.728 1.776-1.728zm5.767 5.196c.564 0 .9-.156 1.128-.372l-.276-.816c-.108.12-.336.228-.588.228-.372 0-.564-.3-.564-.708v-3.324H271v-.948h-1.176V28.62h-1.08v1.584h-.96v.948h.96v3.564c0 .912.468 1.428 1.38 1.428zm7.1-.144h1.116l1.824-5.796h-1.128l-1.32 4.416-1.452-4.416h-.936l-1.452 4.416-1.32-4.416h-1.128L273.252 36h1.116l1.428-4.452L277.224 36zm3.542-2.904c0 1.824 1.272 3.048 3 3.048.936 0 1.752-.3 2.328-.864l-.504-.708c-.432.444-1.104.684-1.716.684-1.164 0-1.884-.816-1.968-1.8h4.584v-.264c0-1.776-1.08-3.132-2.82-3.132-1.692 0-2.904 1.356-2.904 3.036zm2.904-2.148c1.224 0 1.74.96 1.764 1.728h-3.54c.06-.792.612-1.728 1.776-1.728zm3.811 2.148c0 1.824 1.272 3.048 3 3.048.936 0 1.752-.3 2.328-.864l-.504-.708c-.432.444-1.104.684-1.716.684-1.164 0-1.884-.816-1.968-1.8h4.584v-.264c0-1.776-1.08-3.132-2.82-3.132-1.692 0-2.904 1.356-2.904 3.036zm2.904-2.148c1.224 0 1.74.96 1.764 1.728h-3.54c.06-.792.612-1.728 1.776-1.728zM298.467 36h1.08v-4.068c0-1.224-.636-1.872-1.86-1.872-.9 0-1.668.492-2.052.96v-.816h-1.08V36h1.08v-4.14c.312-.432.924-.84 1.596-.84.744 0 1.236.312 1.236 1.272V36zm9.677.144c1.572 0 2.544-.756 3.18-1.692l-1.02-.54a2.537 2.537 0 0 1-2.16 1.164c-1.62 0-2.868-1.284-2.868-3.072 0-1.8 1.248-3.072 2.868-3.072.948 0 1.74.492 2.16 1.164l1.02-.54c-.624-.936-1.608-1.692-3.18-1.692-2.28 0-4.104 1.68-4.104 4.14s1.824 4.14 4.104 4.14zm8.265-.144h1.08v-5.796h-1.08v4.164c-.324.432-.936.816-1.608.816-.744 0-1.224-.288-1.224-1.248v-3.732h-1.08v4.092c0 1.224.612 1.848 1.848 1.848.888 0 1.62-.456 2.064-.936V36zm2.791 0h1.08v-4.032c.252-.432.984-.84 1.524-.84a1.7 1.7 0 0 1 .372.036v-1.092c-.768 0-1.452.444-1.896 1.02v-.888h-1.08V36zm4.055 0h1.08v-4.032c.252-.432.984-.84 1.524-.84a1.7 1.7 0 0 1 .372.036v-1.092c-.768 0-1.452.444-1.896 1.02v-.888h-1.08V36zm3.694-2.904c0 1.824 1.272 3.048 3 3.048.936 0 1.752-.3 2.328-.864l-.504-.708c-.432.444-1.104.684-1.716.684-1.164 0-1.884-.816-1.968-1.8h4.584v-.264c0-1.776-1.08-3.132-2.82-3.132-1.692 0-2.904 1.356-2.904 3.036zm2.904-2.148c1.224 0 1.74.96 1.764 1.728h-3.54c.06-.792.612-1.728 1.776-1.728zM337.936 36h1.08v-4.068c0-1.224-.636-1.872-1.86-1.872-.9 0-1.668.492-2.052.96v-.816h-1.08V36h1.08v-4.14c.312-.432.924-.84 1.596-.84.744 0 1.236.312 1.236 1.272V36zm4.387.144c.564 0 .9-.156 1.128-.372l-.276-.816c-.108.12-.336.228-.588.228-.372 0-.564-.3-.564-.708v-3.324h1.176v-.948h-1.176V28.62h-1.08v1.584h-.96v.948h.96v3.564c0 .912.468 1.428 1.38 1.428zm8.742-.144h1.08v-3.912c0-1.476-1.068-2.028-2.328-2.028-.936 0-1.728.312-2.376.948l.468.744c.516-.516 1.08-.768 1.74-.768.828 0 1.416.432 1.416 1.152v.96c-.444-.516-1.116-.768-1.896-.768-.972 0-2.016.576-2.016 1.896 0 1.272 1.056 1.92 2.016 1.92.78 0 1.44-.276 1.896-.78V36zm0-1.272c-.324.432-.888.66-1.488.66-.78 0-1.332-.468-1.332-1.152 0-.684.552-1.152 1.332-1.152.6 0 1.164.228 1.488.66v.984zM357.788 36h1.08v-4.068c0-1.224-.636-1.872-1.86-1.872-.9 0-1.668.492-2.052.96v-.816h-1.08V36h1.08v-4.14c.312-.432.924-.84 1.596-.84.744 0 1.236.312 1.236 1.272V36zm6.919 0h1.08v-8.004h-1.08v3.048c-.468-.624-1.152-.984-1.896-.984-1.512 0-2.592 1.188-2.592 3.048 0 1.896 1.08 3.036 2.592 3.036.768 0 1.464-.396 1.896-.972V36zm0-1.656c-.3.468-.948.84-1.608.84-1.08 0-1.752-.876-1.752-2.076 0-1.212.672-2.088 1.752-2.088.66 0 1.308.384 1.608.852v2.472zM376.262 36h1.164v-8.004h-1.2v6l-4.356-6h-1.236V36h1.2v-6.144L376.262 36zm2.555-2.904c0 1.824 1.272 3.048 3 3.048.936 0 1.752-.3 2.328-.864l-.504-.708c-.432.444-1.104.684-1.716.684-1.164 0-1.884-.816-1.968-1.8h4.584v-.264c0-1.776-1.08-3.132-2.82-3.132-1.692 0-2.904 1.356-2.904 3.036zm2.904-2.148c1.224 0 1.74.96 1.764 1.728h-3.54c.06-.792.612-1.728 1.776-1.728zM389.166 36h1.224l-2.184-2.976 2.052-2.82h-1.224l-1.488 2.088-1.5-2.088h-1.224l2.04 2.82L384.69 36h1.224l1.632-2.256 1.62 2.256zm3.782.144c.564 0 .9-.156 1.128-.372l-.276-.816c-.108.12-.336.228-.588.228-.372 0-.564-.3-.564-.708v-3.324h1.176v-.948h-1.176V28.62h-1.08v1.584h-.96v.948h.96v3.564c0 .912.468 1.428 1.38 1.428zm7.146-.144h1.2v-6.948h2.472v-1.056h-6.156v1.056h2.484V36zm8.811 0h1.08v-4.092c0-1.224-.624-1.848-1.86-1.848-.888 0-1.668.492-2.052.96v-3.024h-1.08V36h1.08v-4.14c.312-.432.924-.84 1.596-.84.744 0 1.236.288 1.236 1.248V36zm2.803 0h1.08v-4.032c.252-.432.984-.84 1.524-.84a1.7 1.7 0 0 1 .372.036v-1.092c-.768 0-1.452.444-1.896 1.02v-.888h-1.08V36zm3.694-2.904c0 1.824 1.272 3.048 3 3.048.936 0 1.752-.3 2.328-.864l-.504-.708c-.432.444-1.104.684-1.716.684-1.164 0-1.884-.816-1.968-1.8h4.584v-.264c0-1.776-1.08-3.132-2.82-3.132-1.692 0-2.904 1.356-2.904 3.036zm2.904-2.148c1.224 0 1.74.96 1.764 1.728h-3.54c.06-.792.612-1.728 1.776-1.728zm3.667 4.296c.588.6 1.44.9 2.412.9 1.524 0 2.34-.78 2.34-1.776 0-1.332-1.2-1.608-2.208-1.836-.72-.168-1.344-.336-1.344-.84 0-.468.456-.756 1.188-.756s1.38.3 1.716.708l.48-.756c-.492-.468-1.212-.828-2.208-.828-1.416 0-2.208.792-2.208 1.716 0 1.248 1.152 1.512 2.136 1.74.744.168 1.404.36 1.404.936 0 .492-.432.828-1.248.828-.78 0-1.548-.396-1.944-.828l-.516.792zm10.03.756h1.08v-4.092c0-1.224-.624-1.848-1.86-1.848-.888 0-1.668.492-2.052.96v-3.024h-1.08V36h1.08v-4.14c.312-.432.924-.84 1.596-.84.744 0 1.236.288 1.236 1.248V36zm5.37.144c1.812 0 2.928-1.368 2.928-3.048 0-1.668-1.116-3.036-2.928-3.036-1.8 0-2.928 1.368-2.928 3.036 0 1.68 1.128 3.048 2.928 3.048zm0-.96c-1.152 0-1.8-.984-1.8-2.088 0-1.092.648-2.076 1.8-2.076 1.164 0 1.8.984 1.8 2.076 0 1.104-.636 2.088-1.8 2.088zm4.3.816h1.08v-8.004h-1.08V36zm6.928 0h1.08v-8.004h-1.08v3.048c-.468-.624-1.152-.984-1.896-.984-1.512 0-2.592 1.188-2.592 3.048 0 1.896 1.08 3.036 2.592 3.036.768 0 1.464-.396 1.896-.972V36zm0-1.656c-.3.468-.948.84-1.608.84-1.08 0-1.752-.876-1.752-2.076 0-1.212.672-2.088 1.752-2.088.66 0 1.308.384 1.608.852v2.472zm2.306.9c.588.6 1.44.9 2.412.9 1.524 0 2.34-.78 2.34-1.776 0-1.332-1.2-1.608-2.208-1.836-.72-.168-1.344-.336-1.344-.84 0-.468.456-.756 1.188-.756s1.38.3 1.716.708l.48-.756c-.492-.468-1.212-.828-2.208-.828-1.416 0-2.208.792-2.208 1.716 0 1.248 1.152 1.512 2.136 1.74.744.168 1.404.36 1.404.936 0 .492-.432.828-1.248.828-.78 0-1.548-.396-1.944-.828l-.516.792z" fill="#2F354D"/><circle cx="196" cy="32" r="10" fill="#FFE6E6"/><circle cx="196" cy="32" r="4" fill="#FF5B5B"/><g opacity=".15" filter="url(#filter4_f)"><rect x="303" y="74" width="160" height="28" rx="6.222" fill="#7A859E"/></g><g filter="url(#filter5_d)"><rect x="299" y="65" width="170" height="32" rx="16" fill="#fff"/><rect x="299.389" y="65.389" width="169.222" height="31.222" rx="15.611" stroke="#F1F3F9" stroke-width=".778"/></g><path d="M335.844 85h1.2v-6.948h2.472v-1.056h-6.156v1.056h2.484V85zm5.427-6.768c.384 0 .696-.3.696-.684a.697.697 0 0 0-.696-.696.704.704 0 0 0-.696.696c0 .384.324.684.696.684zM340.743 85h1.08v-5.796h-1.08V85zm9.845 0h1.08v-4.188c0-1.164-.576-1.752-1.644-1.752-.852 0-1.62.54-1.956 1.08-.18-.624-.696-1.08-1.572-1.08-.864 0-1.632.6-1.872.96v-.816h-1.08V85h1.08v-4.14c.288-.42.852-.84 1.416-.84.732 0 1.02.444 1.02 1.116V85h1.08v-4.152c.276-.42.852-.828 1.44-.828.708 0 1.008.444 1.008 1.116V85zm2.439-2.904c0 1.824 1.272 3.048 3 3.048.936 0 1.752-.3 2.328-.864l-.504-.708c-.432.444-1.104.684-1.716.684-1.164 0-1.884-.816-1.968-1.8h4.584v-.264c0-1.776-1.08-3.132-2.82-3.132-1.692 0-2.904 1.356-2.904 3.036zm2.904-2.148c1.224 0 1.74.96 1.764 1.728h-3.54c.06-.792.612-1.728 1.776-1.728zM368.932 85h1.32l-3.18-8.004h-1.5L362.392 85h1.32l.648-1.656h3.924l.648 1.656zm-2.616-6.96l1.62 4.236h-3.228l1.608-4.236zm4.872 6.96h1.08v-.828c.432.576 1.116.972 1.896.972 1.5 0 2.58-1.14 2.58-3.036 0-1.86-1.068-3.048-2.58-3.048-.756 0-1.44.36-1.896.984v-3.048h-1.08V85zm1.08-1.656v-2.46c.288-.468.948-.864 1.608-.864 1.08 0 1.752.876 1.752 2.088 0 1.212-.672 2.076-1.752 2.076-.66 0-1.32-.372-1.608-.84zm8.426 1.8c1.812 0 2.928-1.368 2.928-3.048 0-1.668-1.116-3.036-2.928-3.036-1.8 0-2.928 1.368-2.928 3.036 0 1.68 1.128 3.048 2.928 3.048zm0-.96c-1.152 0-1.8-.984-1.8-2.088 0-1.092.648-2.076 1.8-2.076 1.164 0 1.8.984 1.8 2.076 0 1.104-.636 2.088-1.8 2.088zm5.835.816h1.164l2.388-5.796h-1.164l-1.812 4.548-1.812-4.548h-1.152L386.529 85zm4.069-2.904c0 1.824 1.272 3.048 3 3.048.936 0 1.752-.3 2.328-.864l-.504-.708c-.432.444-1.104.684-1.716.684-1.164 0-1.884-.816-1.968-1.8h4.584v-.264c0-1.776-1.08-3.132-2.82-3.132-1.692 0-2.904 1.356-2.904 3.036zm2.904-2.148c1.224 0 1.74.96 1.764 1.728h-3.54c.06-.792.612-1.728 1.776-1.728zM402.746 85h1.2v-6.948h2.472v-1.056h-6.156v1.056h2.484V85zm8.811 0h1.08v-4.092c0-1.224-.624-1.848-1.86-1.848-.888 0-1.668.492-2.052.96v-3.024h-1.08V85h1.08v-4.14c.312-.432.924-.84 1.596-.84.744 0 1.236.288 1.236 1.248V85zm2.803 0h1.08v-4.032c.252-.432.984-.84 1.524-.84a1.7 1.7 0 0 1 .372.036v-1.092c-.768 0-1.452.444-1.896 1.02v-.888h-1.08V85zm3.695-2.904c0 1.824 1.272 3.048 3 3.048.936 0 1.752-.3 2.328-.864l-.504-.708c-.432.444-1.104.684-1.716.684-1.164 0-1.884-.816-1.968-1.8h4.584v-.264c0-1.776-1.08-3.132-2.82-3.132-1.692 0-2.904 1.356-2.904 3.036zm2.904-2.148c1.224 0 1.74.96 1.764 1.728h-3.54c.06-.792.612-1.728 1.776-1.728zm3.667 4.296c.588.6 1.44.9 2.412.9 1.524 0 2.34-.78 2.34-1.776 0-1.332-1.2-1.608-2.208-1.836-.72-.168-1.344-.336-1.344-.84 0-.468.456-.756 1.188-.756s1.38.3 1.716.708l.48-.756c-.492-.468-1.212-.828-2.208-.828-1.416 0-2.208.792-2.208 1.716 0 1.248 1.152 1.512 2.136 1.74.744.168 1.404.36 1.404.936 0 .492-.432.828-1.248.828-.78 0-1.548-.396-1.944-.828l-.516.792zm10.029.756h1.08v-4.092c0-1.224-.624-1.848-1.86-1.848-.888 0-1.668.492-2.052.96v-3.024h-1.08V85h1.08v-4.14c.312-.432.924-.84 1.596-.84.744 0 1.236.288 1.236 1.248V85zm5.371.144c1.812 0 2.928-1.368 2.928-3.048 0-1.668-1.116-3.036-2.928-3.036-1.8 0-2.928 1.368-2.928 3.036 0 1.68 1.128 3.048 2.928 3.048zm0-.96c-1.152 0-1.8-.984-1.8-2.088 0-1.092.648-2.076 1.8-2.076 1.164 0 1.8.984 1.8 2.076 0 1.104-.636 2.088-1.8 2.088zm4.299.816h1.08v-8.004h-1.08V85zm6.929 0h1.08v-8.004h-1.08v3.048c-.468-.624-1.152-.984-1.896-.984-1.512 0-2.592 1.188-2.592 3.048 0 1.896 1.08 3.036 2.592 3.036.768 0 1.464-.396 1.896-.972V85zm0-1.656c-.3.468-.948.84-1.608.84-1.08 0-1.752-.876-1.752-2.076 0-1.212.672-2.088 1.752-2.088.66 0 1.308.384 1.608.852v2.472z" fill="#2F354D"/><circle cx="317" cy="81" r="10" fill="#FFF3E4"/><circle cx="317" cy="81" r="4" fill="#FFAD4D"/><rect x="258" y="194" width="16" height="105.429" rx="4" fill="#375BE9"/><rect x="34" y="194" width="16" height="105" rx="4" fill="#375BE9"/><rect x="290" y="235.429" width="16" height="64" rx="4" fill="#375BE9"/><rect x="66" y="235" width="16" height="64" rx="4" fill="#375BE9"/><rect x="322" y="249.429" width="16" height="50" rx="4" fill="#375BE9"/><rect x="98" y="249" width="16" height="50" rx="4" fill="#375BE9"/><rect x="354" y="222.429" width="16" height="77" rx="4" fill="#375BE9"/><rect x="130" y="146" width="16" height="153" rx="4" fill="#375BE9"/><rect x="386" y="274.429" width="16" height="25" rx="4" fill="#375BE9"/><rect x="162" y="92" width="16" height="207" rx="4" fill="#375BE9"/><rect x="418" y="249.429" width="16" height="50" rx="4" fill="#375BE9"/><rect x="194" y="73" width="16" height="226" rx="4" fill="#375BE9"/><rect x="450" y="277.429" width="16" height="22" rx="4" fill="#375BE9"/><rect x="226" y="118" width="16" height="181" rx="4" fill="#375BE9"/><path d="M470.484 297.206l15.747 3.735a1 1 0 0 1 .769.973V307H-13a1 1 0 0 1-1-1V177.298a1 1 0 0 1 1.255-.967l43.046 11.358c.16.042.307.123.427.236l26.435 24.668a.998.998 0 0 0 .947.233l22.159-6.067a1 1 0 0 1 .639.037l29.321 11.86 20.313 9.695c.068.033.132.073.191.119l21.843 17.336c.06.047.125.087.194.12l35.781 16.939c.083.04.172.068.264.083l33.812 5.609 38.485 1.951a.99.99 0 0 1 .314.067l19.869 7.776 23.023 7.591 28.317 6.805a.994.994 0 0 0 .424.01l21.165-4.094c.095-.018.193-.023.289-.013l24.379 2.434 24.024 3.673 20.402 2.434a.94.94 0 0 0 .237 0l20.297-2.421c.07-.009.14-.01.21-.003l26.422 2.439z" fill="#DB4040" fill-opacity=".1" stroke="#DB4040" stroke-width="1.166"/><path d="M470.62 287.058l15.816 7.669a.999.999 0 0 1 .564.899V307H-12.5a1 1 0 0 1-1-1V41.175a1 1 0 0 1 1.475-.88l42.756 23.06a1 1 0 0 1 .41.416l26.382 50.319a1 1 0 0 0 1.374.408l21.505-12.036a1 1 0 0 1 1.126.101l29.077 24.041 20.307 19.81c.058.057.11.121.153.191l21.869 35.476c.044.071.096.136.156.194l35.723 34.569a.992.992 0 0 0 .375.228l33.596 11.392c.071.024.144.04.218.048l38.206 3.958a.987.987 0 0 1 .521.214L281.5 248.5l23 15.5 28.103 13.805a.998.998 0 0 0 .808.032l20.813-8.228c.18-.071.377-.088.567-.05L379 274.5l24 7.5 20.263 4.942a1 1 0 0 0 .474 0l20.053-4.891a1 1 0 0 1 .422-.011l26.157 4.935c.087.017.171.045.251.083z" fill="#F0BB35" fill-opacity=".1" stroke="#F0BB35" stroke-width="1.166"/><path d="M39.037 205.96c0 1.404 1.356 2.184 2.976 2.184 1.596 0 2.952-.792 2.952-2.184 0-1.044-.864-1.776-1.848-2.088.912-.276 1.728-.876 1.728-1.908 0-1.452-1.476-2.088-2.832-2.088-1.392 0-2.844.636-2.844 2.088 0 1.032.804 1.632 1.716 1.908-.984.312-1.848 1.044-1.848 2.088zm4.596-3.816c0 .852-1.128 1.164-1.62 1.248-.492-.084-1.632-.396-1.632-1.248 0-.756.696-1.2 1.632-1.2.9 0 1.62.444 1.62 1.2zm.132 3.672c0 .78-.828 1.26-1.752 1.26-.96 0-1.764-.48-1.764-1.26 0-.936 1.26-1.344 1.764-1.404.48.06 1.752.468 1.752 1.404zm27.399 42.068c.624.78 1.536 1.26 2.904 1.26 1.692 0 2.94-1.032 2.94-2.676 0-1.644-1.212-2.568-2.556-2.568-.78 0-1.452.324-1.836.708v-2.556h3.864v-1.056h-5.064v4.392l.864.276c.528-.504 1.104-.72 1.8-.72 1.032 0 1.716.612 1.716 1.572 0 .876-.696 1.56-1.74 1.56-.936 0-1.656-.36-2.184-1.008l-.708.816zm31.755 13.952c.516.72 1.548 1.308 2.94 1.308 1.812 0 2.928-.972 2.928-2.316 0-1.26-1.104-1.884-1.86-1.956.792-.144 1.74-.732 1.74-1.848 0-1.344-1.176-2.148-2.808-2.148-1.284 0-2.232.54-2.832 1.248l.636.744c.588-.6 1.248-.924 2.088-.924.948 0 1.716.432 1.716 1.248 0 .828-.792 1.188-1.764 1.188-.312 0-.732 0-.864-.012v1.092c.12-.012.54-.012.864-.012 1.164 0 1.884.372 1.884 1.26 0 .84-.66 1.368-1.764 1.368-.9 0-1.728-.408-2.232-1.02l-.672.78zM134.378 160h1.2v-8.004h-1.056l-2.148 2.196.708.732 1.296-1.356V160zm2.645-3.996c0 1.98.912 4.14 3.132 4.14s3.132-2.16 3.132-4.14c0-1.98-.912-4.128-3.132-4.128s-3.132 2.148-3.132 4.128zm5.04 0c0 1.56-.492 3.072-1.908 3.072s-1.908-1.512-1.908-3.072.492-3.06 1.908-3.06 1.908 1.5 1.908 3.06zM166.648 106h1.2v-8.004h-1.056l-2.148 2.196.708.732 1.296-1.356V106zm6.256 0h1.2v-1.92h1.104v-1.056h-1.104v-5.028h-1.644l-3.36 5.1v.984h3.804V106zm0-6.912v3.936h-2.616l2.616-3.936zM198.49 87h1.2v-8.004h-1.056l-2.148 2.196.708.732 1.296-1.356V87zm2.644-3.984c0 2.196.9 4.128 3.192 4.128 1.764 0 2.88-1.212 2.88-2.652 0-1.704-1.212-2.568-2.652-2.568-.984 0-1.848.636-2.196 1.176-.012-.084-.012-.168-.012-.264 0-1.488.732-2.892 2.184-2.892.792 0 1.26.3 1.668.768l.588-.912c-.516-.552-1.248-.924-2.256-.924-2.292 0-3.396 1.896-3.396 4.14zm4.86 1.512c0 .708-.576 1.548-1.728 1.548-1.308 0-1.8-1.116-1.896-2.052.42-.636 1.14-1.068 1.884-1.068.948 0 1.74.504 1.74 1.572zM230.519 132h1.2v-8.004h-1.056l-2.148 2.196.708.732 1.296-1.356V132zm2.716 0h5.64v-1.056h-3.732c2.196-1.692 3.696-3.096 3.696-4.656 0-1.596-1.356-2.412-2.796-2.412-1.116 0-2.208.444-2.868 1.272l.708.78c.492-.588 1.224-.984 2.172-.984.78 0 1.56.408 1.56 1.344 0 1.26-1.38 2.46-4.38 4.764V132zm29.802 73.96c0 1.404 1.356 2.184 2.976 2.184 1.596 0 2.952-.792 2.952-2.184 0-1.044-.864-1.776-1.848-2.088.912-.276 1.728-.876 1.728-1.908 0-1.452-1.476-2.088-2.832-2.088-1.392 0-2.844.636-2.844 2.088 0 1.032.804 1.632 1.716 1.908-.984.312-1.848 1.044-1.848 2.088zm4.596-3.816c0 .852-1.128 1.164-1.62 1.248-.492-.084-1.632-.396-1.632-1.248 0-.756.696-1.2 1.632-1.2.9 0 1.62.444 1.62 1.2zm.132 3.672c0 .78-.828 1.26-1.752 1.26-.96 0-1.764-.48-1.764-1.26 0-.936 1.26-1.344 1.764-1.404.48.06 1.752.468 1.752 1.404zm27.399 43.068c.624.78 1.536 1.26 2.904 1.26 1.692 0 2.94-1.032 2.94-2.676 0-1.644-1.212-2.568-2.556-2.568-.78 0-1.452.324-1.836.708v-2.556h3.864v-1.056h-5.064v4.392l.864.276c.528-.504 1.104-.72 1.8-.72 1.032 0 1.716.612 1.716 1.572 0 .876-.696 1.56-1.74 1.56-.936 0-1.656-.36-2.184-1.008l-.708.816zm31.755 13.952c.516.72 1.548 1.308 2.94 1.308 1.812 0 2.928-.972 2.928-2.316 0-1.26-1.104-1.884-1.86-1.956.792-.144 1.74-.732 1.74-1.848 0-1.344-1.176-2.148-2.808-2.148-1.284 0-2.232.54-2.832 1.248l.636.744c.588-.6 1.248-.924 2.088-.924.948 0 1.716.432 1.716 1.248 0 .828-.792 1.188-1.764 1.188-.312 0-.732 0-.864-.012v1.092c.12-.012.54-.012.864-.012 1.164 0 1.884.372 1.884 1.26 0 .84-.66 1.368-1.764 1.368-.9 0-1.728-.408-2.232-1.02l-.672.78zm32.059-29.82c0 2.196.9 4.128 3.192 4.128 1.764 0 2.88-1.212 2.88-2.652 0-1.704-1.212-2.568-2.652-2.568-.984 0-1.848.636-2.196 1.176-.012-.084-.012-.168-.012-.264 0-1.488.732-2.892 2.184-2.892.792 0 1.26.3 1.668.768l.588-.912c-.516-.552-1.248-.924-2.256-.924-2.292 0-3.396 1.896-3.396 4.14zm4.86 1.512c0 .708-.576 1.548-1.728 1.548-1.308 0-1.8-1.116-1.896-2.052.42-.636 1.14-1.068 1.884-1.068.948 0 1.74.504 1.74 1.572zM394.064 289h1.2v-8.004h-1.056l-2.148 2.196.708.732 1.296-1.356V289zm28.855-26.164c.516.72 1.548 1.308 2.94 1.308 1.812 0 2.928-.972 2.928-2.316 0-1.26-1.104-1.884-1.86-1.956.792-.144 1.74-.732 1.74-1.848 0-1.344-1.176-2.148-2.808-2.148-1.284 0-2.232.54-2.832 1.248l.636.744c.588-.6 1.248-.924 2.088-.924.948 0 1.716.432 1.716 1.248 0 .828-.792 1.188-1.764 1.188-.312 0-.732 0-.864-.012v1.092c.12-.012.54-.012.864-.012 1.164 0 1.884.372 1.884 1.26 0 .84-.66 1.368-1.764 1.368-.9 0-1.728-.408-2.232-1.02l-.672.78zM458.064 292h1.2v-8.004h-1.056l-2.148 2.196.708.732 1.296-1.356V292z" fill="#fff"/></g><defs><filter id="filter0_f" x="272.333" y="76.333" width="194.333" height="121.333" filterUnits="userSpaceOnUse" color-interpolation-filters="sRGB"><feFlood flood-opacity="0" result="BackgroundImageFix"/><feBlend in="SourceGraphic" in2="BackgroundImageFix" result="shape"/><feGaussianBlur stdDeviation="23.333" result="effect1_foregroundBlur"/></filter><filter id="filter1_d" x="279.889" y="90.667" width="220.222" height="94.222" filterUnits="userSpaceOnUse" color-interpolation-filters="sRGB"><feFlood flood-opacity="0" result="BackgroundImageFix"/><feColorMatrix in="SourceAlpha" values="0 0 0 0 0 0 0 0 0 0 0 0 0 0 0 0 0 0 127 0"/><feOffset dy="7.778"/><feGaussianBlur stdDeviation="15.556"/><feColorMatrix values="0 0 0 0 0.476616 0 0 0 0 0.521707 0 0 0 0 0.620087 0 0 0 0.06 0"/><feBlend in2="BackgroundImageFix" result="effect1_dropShadow"/><feBlend in="SourceGraphic" in2="effect1_dropShadow" result="shape"/></filter><filter id="filter2_f" x="139.333" y="-21.667" width="367.333" height="121.333" filterUnits="userSpaceOnUse" color-interpolation-filters="sRGB"><feFlood flood-opacity="0" result="BackgroundImageFix"/><feBlend in="SourceGraphic" in2="BackgroundImageFix" result="shape"/><feGaussianBlur stdDeviation="23.333" result="effect1_foregroundBlur"/></filter><filter id="filter3_d" x="146.889" y="-7.333" width="353.222" height="94.222" filterUnits="userSpaceOnUse" color-interpolation-filters="sRGB"><feFlood flood-opacity="0" result="BackgroundImageFix"/><feColorMatrix in="SourceAlpha" values="0 0 0 0 0 0 0 0 0 0 0 0 0 0 0 0 0 0 127 0"/><feOffset dy="7.778"/><feGaussianBlur stdDeviation="15.556"/><feColorMatrix values="0 0 0 0 0.476616 0 0 0 0 0.521707 0 0 0 0 0.620087 0 0 0 0.06 0"/><feBlend in2="BackgroundImageFix" result="effect1_dropShadow"/><feBlend in="SourceGraphic" in2="effect1_dropShadow" result="shape"/></filter><filter id="filter4_f" x="256.333" y="27.333" width="253.333" height="121.333" filterUnits="userSpaceOnUse" color-interpolation-filters="sRGB"><feFlood flood-opacity="0" result="BackgroundImageFix"/><feBlend in="SourceGraphic" in2="BackgroundImageFix" result="shape"/><feGaussianBlur stdDeviation="23.333" result="effect1_foregroundBlur"/></filter><filter id="filter5_d" x="267.889" y="41.667" width="232.222" height="94.222" filterUnits="userSpaceOnUse" color-interpolation-filters="sRGB"><feFlood flood-opacity="0" result="BackgroundImageFix"/><feColorMatrix in="SourceAlpha" values="0 0 0 0 0 0 0 0 0 0 0 0 0 0 0 0 0 0 127 0"/><feOffset dy="7.778"/><feGaussianBlur stdDeviation="15.556"/><feColorMatrix values="0 0 0 0 0.476616 0 0 0 0 0.521707 0 0 0 0 0.620087 0 0 0 0.06 0"/><feBlend in2="BackgroundImageFix" result="effect1_dropShadow"/><feBlend in="SourceGraphic" in2="effect1_dropShadow" result="shape"/></filter></defs></svg>