<svg width="1072" height="184" fill="none" xmlns="http://www.w3.org/2000/svg"><g clip-path="url(#clip0)" opacity=".5"><g filter="url(#filter0_d)"><rect width="1072" height="184" rx="8" fill="#FFF3E4"/></g><g clip-path="url(#clip1)" fill="#FFAD4D"><rect opacity=".4" width="3" height="142.945" rx="1.5" transform="matrix(-1 0 0 1 1054 44.736)"/><rect opacity=".4" width="3" height="124.54" rx="1.5" transform="matrix(-1 0 0 1 1036 63.141)"/><rect opacity=".4" width="3" height="114.11" rx="1.5" transform="matrix(-1 0 0 1 1018 73.57)"/><rect opacity=".4" width="3" height="116.564" rx="1.5" transform="matrix(-1 0 0 1 1000 71.117)"/><rect opacity=".4" width="3" height="113.497" rx="1.5" transform="matrix(-1 0 0 1 982 74.184)"/><rect opacity=".4" width="3" height="142.945" rx="1.5" transform="matrix(-1 0 0 1 964 44.736)"/><rect opacity=".4" width="3" height="151.534" rx="1.5" transform="matrix(-1 0 0 1 946 36.147)"/><rect opacity=".4" width="3" height="122.086" rx="1.5" transform="matrix(-1 0 0 1 928 65.595)"/><rect opacity=".4" width="3" height="51" rx="1.5" transform="matrix(-1 0 0 1 910 137)"/><rect opacity=".4" width="3" height="54" rx="1.5" transform="matrix(-1 0 0 1 892 134)"/><rect opacity=".4" width="3" height="76" rx="1.5" transform="matrix(-1 0 0 1 874 112)"/><rect opacity=".4" width="3" height="49" rx="1.5" transform="matrix(-1 0 0 1 856 139)"/><rect opacity=".6" width="3" height="48" rx="1.5" transform="matrix(-1 0 0 1 838 140)"/><rect opacity=".4" width="3" height="57" rx="1.5" transform="matrix(-1 0 0 1 820 131)"/><rect opacity=".4" width="3" height="44" rx="1.5" transform="matrix(-1 0 0 1 802 144)"/><rect opacity=".4" width="3" height="94" rx="1.5" transform="matrix(-1 0 0 1 784 99)"/><rect opacity=".4" width="3" height="94" rx="1.5" transform="matrix(-1 0 0 1 766 99)"/><rect opacity=".4" width="3" height="67" rx="1.5" transform="matrix(-1 0 0 1 748 130)"/><rect opacity=".4" width="3" height="61" rx="1.5" transform="matrix(-1 0 0 1 730 128)"/><rect opacity=".4" width="3" height="56" rx="1.5" transform="matrix(-1 0 0 1 712 143)"/><rect opacity=".4" width="3" height="51" rx="1.5" transform="matrix(-1 0 0 1 694 148)"/><rect opacity=".4" width="3" height="46" rx="1.5" transform="matrix(-1 0 0 1 676 153)"/><rect opacity=".4" width="3" height="56" rx="1.5" transform="matrix(-1 0 0 1 658 143)"/><rect opacity=".4" width="3" height="53" rx="1.5" transform="matrix(-1 0 0 1 640 146)"/><rect opacity=".4" width="3" height="32" rx="1.5" transform="matrix(-1 0 0 1 622 167)"/><rect opacity=".4" width="3" height="34" rx="1.5" transform="matrix(-1 0 0 1 604 165)"/><rect opacity=".4" width="3" height="28" rx="1.5" transform="matrix(-1 0 0 1 586 171)"/><rect opacity=".4" width="3" height="28" rx="1.5" transform="matrix(-1 0 0 1 568 171)"/><rect opacity=".4" width="3" height="32" rx="1.5" transform="matrix(-1 0 0 1 550 167)"/><rect opacity=".4" width="3" height="28" rx="1.5" transform="matrix(-1 0 0 1 532 171)"/><rect opacity=".4" width="3" height="35" rx="1.5" transform="matrix(-1 0 0 1 514 164)"/><rect opacity=".4" width="3" height="32" rx="1.5" transform="matrix(-1 0 0 1 496 167)"/><rect opacity=".4" width="3" height="28" rx="1.5" transform="matrix(-1 0 0 1 478 171)"/><rect opacity=".4" width="3" height="30" rx="1.5" transform="matrix(-1 0 0 1 460 169)"/><rect opacity=".4" width="3" height="29" rx="1.5" transform="matrix(-1 0 0 1 442 165)"/><rect opacity=".4" width="3" height="26" rx="1.5" transform="matrix(-1 0 0 1 424 168)"/><rect opacity=".4" width="3" height="50" rx="1.5" transform="matrix(-1 0 0 1 406 137)"/><rect opacity=".4" width="3" height="50" rx="1.5" transform="matrix(-1 0 0 1 388 137)"/><rect opacity=".4" width="3" height="49" rx="1.5" transform="matrix(-1 0 0 1 370 149)"/><rect opacity=".4" width="3" height="51" rx="1.5" transform="matrix(-1 0 0 1 352 147)"/><rect opacity=".4" width="3" height="60" rx="1.5" transform="matrix(-1 0 0 1 334 137)"/><rect opacity=".4" width="3" height="79" rx="1.5" transform="matrix(-1 0 0 1 316 136)"/><rect opacity=".4" width="3" height="83" rx="1.5" transform="matrix(-1 0 0 1 298 130)"/><rect opacity=".4" width="3" height="103" rx="1.5" transform="matrix(-1 0 0 1 280 110)"/><rect opacity=".4" width="3" height="68.235" rx="1.5" transform="matrix(-1 0 0 1 262 145.294)"/><rect opacity=".4" width="3" height="68.235" rx="1.5" transform="matrix(-1 0 0 1 244 128.294)"/><rect opacity=".4" width="3" height="61.176" rx="1.5" transform="matrix(-1 0 0 1 226 135.353)"/><rect opacity=".4" width="3" height="83.436" rx="1.5" transform="matrix(-1 0 0 1 208 113.245)"/><rect opacity=".4" width="3" height="105.521" rx="1.5" transform="matrix(-1 0 0 1 190 91.16)"/><rect opacity=".4" width="3" height="110.429" rx="1.5" transform="matrix(-1 0 0 1 172 77.251)"/><rect opacity=".4" width="3" height="103.067" rx="1.5" transform="matrix(-1 0 0 1 154 84.614)"/><rect opacity=".4" width="3" height="155.215" rx="1.5" transform="matrix(-1 0 0 1 136 32.466)"/><rect opacity=".4" width="3" height="136.196" rx="1.5" transform="matrix(-1 0 0 1 118 51.485)"/><rect opacity=".4" width="3" height="114.11" rx="1.5" transform="matrix(-1 0 0 1 100 73.57)"/><rect opacity=".4" width="3" height="124" rx="1.5" transform="matrix(-1 0 0 1 82 60)"/><rect opacity=".4" width="3" height="141" rx="1.5" transform="matrix(-1 0 0 1 64 43)"/><rect opacity=".4" width="3" height="112" rx="1.5" transform="matrix(-1 0 0 1 46 72)"/><rect opacity=".4" width="3" height="127" rx="1.5" transform="matrix(-1 0 0 1 28 57)"/></g><g clip-path="url(#clip2)" fill="#FFAD4D"><rect opacity=".6" width="3" height="85.276" rx="1.5" transform="matrix(-1 0 0 1 1054 98.724)"/><rect opacity=".6" width="3" height="74.119" rx="1.5" transform="matrix(-1 0 0 1 1036 109.881)"/><rect opacity=".6" width="3" height="67.912" rx="1.5" transform="matrix(-1 0 0 1 1018 116.088)"/><rect opacity=".6" width="3" height="69.372" rx="1.5" transform="matrix(-1 0 0 1 1000 114.628)"/><rect opacity=".6" width="3" height="67.547" rx="1.5" transform="matrix(-1 0 0 1 982 116.453)"/><rect opacity=".6" width="3" height="85.072" rx="1.5" transform="matrix(-1 0 0 1 964 98.928)"/><rect opacity=".6" width="3" height="90.184" rx="1.5" transform="matrix(-1 0 0 1 946 93.816)"/><rect opacity=".6" width="3" height="90.184" rx="1.5" transform="matrix(-1 0 0 1 928 93.816)"/><rect opacity=".6" width="3" height="30" rx="1.5" transform="matrix(-1 0 0 1 910 156)"/><rect opacity=".6" width="3" height="32" rx="1.5" transform="matrix(-1 0 0 1 892 154)"/><rect opacity=".6" width="3" height="45" rx="1.5" transform="matrix(-1 0 0 1 874 140)"/><rect opacity=".6" width="3" height="41" rx="1.5" transform="matrix(-1 0 0 1 856 144)"/><rect opacity=".4" width="3" height="49" rx="1.5" transform="matrix(-1 0 0 1 838 136)"/><rect opacity=".6" width="3" height="45" rx="1.5" transform="matrix(-1 0 0 1 820 140)"/><rect opacity=".6" width="3" height="31" rx="1.5" transform="matrix(-1 0 0 1 802 154)"/><rect opacity=".6" width="3" height="63" rx="1.5" transform="matrix(-1 0 0 1 784 126)"/><rect opacity=".6" width="3" height="63" rx="1.5" transform="matrix(-1 0 0 1 766 126)"/><rect opacity=".6" width="3" height="41" rx="1.5" transform="matrix(-1 0 0 1 748 152)"/><rect opacity=".6" width="3" height="30" rx="1.5" transform="matrix(-1 0 0 1 730 156)"/><rect opacity=".6" width="3" height="17" rx="1.5" transform="matrix(-1 0 0 1 712 180)"/><rect opacity=".6" width="3" height="16" rx="1.5" transform="matrix(-1 0 0 1 694 181)"/><rect opacity=".6" width="3" height="15" rx="1.5" transform="matrix(-1 0 0 1 676 182)"/><rect opacity=".6" width="3" height="15" rx="1.5" transform="matrix(-1 0 0 1 658 182)"/><rect opacity=".6" width="3" height="15" rx="1.5" transform="matrix(-1 0 0 1 640 182)"/><rect opacity=".6" width="3" height="14" rx="1.5" transform="matrix(-1 0 0 1 622 183)"/><rect opacity=".6" width="3" height="18" rx="1.5" transform="matrix(-1 0 0 1 604 179)"/><rect opacity=".6" width="3" height="14" rx="1.5" transform="matrix(-1 0 0 1 550 183)"/><rect opacity=".6" width="3" height="17" rx="1.5" transform="matrix(-1 0 0 1 532 180)"/><rect opacity=".6" width="3" height="14" rx="1.5" transform="matrix(-1 0 0 1 514 183)"/><rect opacity=".6" width="3" height="16" rx="1.5" transform="matrix(-1 0 0 1 478 181)"/><rect opacity=".6" width="3" height="12" rx="1.5" transform="matrix(-1 0 0 1 442 180)"/><rect opacity=".6" width="3" height="15" rx="1.5" transform="matrix(-1 0 0 1 424 177)"/><rect opacity=".6" width="3" height="24" rx="1.5" transform="matrix(-1 0 0 1 406 168)"/><rect opacity=".6" width="3" height="24" rx="1.5" transform="matrix(-1 0 0 1 388 168)"/><rect opacity=".6" width="3" height="44" rx="1.5" transform="matrix(-1 0 0 1 334 149)"/><rect opacity=".6" width="3" height="32.941" rx="1.5" transform="matrix(-1 0 0 1 316 179.235)"/><rect opacity=".6" width="3" height="59" rx="1.5" transform="matrix(-1 0 0 1 280 150)"/><rect opacity=".6" width="3" height="40" rx="1.5" transform="matrix(-1 0 0 1 262 171.176)"/><rect opacity=".6" width="3" height="40" rx="1.5" transform="matrix(-1 0 0 1 244 154.176)"/><rect opacity=".6" width="3" height="36.471" rx="1.5" transform="matrix(-1 0 0 1 226 157.706)"/><rect opacity=".6" width="3" height="49.693" rx="1.5" transform="matrix(-1 0 0 1 208 143.307)"/><rect opacity=".6" width="3" height="61.963" rx="1.5" transform="matrix(-1 0 0 1 190 131.037)"/><rect opacity=".6" width="3" height="65.644" rx="1.5" transform="matrix(-1 0 0 1 172 118.356)"/><rect opacity=".6" width="3" height="61.35" rx="1.5" transform="matrix(-1 0 0 1 154 122.65)"/><rect opacity=".6" width="3" height="55.828" rx="1.5" transform="matrix(-1 0 0 1 136 128.172)"/><rect opacity=".6" width="3" height="53.374" rx="1.5" transform="matrix(-1 0 0 1 118 130.626)"/><rect opacity=".6" width="3" height="40.491" rx="1.5" transform="matrix(-1 0 0 1 100 143.509)"/><rect opacity=".6" width="3" height="39.264" rx="1.5" transform="matrix(-1 0 0 1 82 144.736)"/><rect opacity=".6" width="3" height="49.693" rx="1.5" transform="matrix(-1 0 0 1 64 134.307)"/><rect opacity=".6" width="3" height="34.969" rx="1.5" transform="matrix(-1 0 0 1 46 149.031)"/><rect opacity=".6" width="3" height="34.969" rx="1.5" transform="matrix(-1 0 0 1 28 149.031)"/></g><circle opacity=".5" cx="116.5" cy="53" r="9" fill="#FFAD4D"/><circle opacity=".5" cx="207" cy="114" r="9" fill="#FFAD4D"/><circle opacity=".5" cx="998.5" cy="72" r="9" fill="#FFAD4D"/><circle cx="116.5" cy="53" r="3" fill="#fff" stroke="#FFAD4D" stroke-width="2"/><circle cx="207" cy="114" r="3" fill="#fff" stroke="#FFAD4D" stroke-width="2"/><circle cx="998.5" cy="72" r="3" fill="#fff" stroke="#FFAD4D" stroke-width="2"/></g><defs><filter id="filter0_d" x="-8" y="-4" width="1088" height="200" filterUnits="userSpaceOnUse" color-interpolation-filters="sRGB"><feFlood flood-opacity="0" result="BackgroundImageFix"/><feColorMatrix in="SourceAlpha" values="0 0 0 0 0 0 0 0 0 0 0 0 0 0 0 0 0 0 127 0"/><feOffset dy="4"/><feGaussianBlur stdDeviation="4"/><feColorMatrix values="0 0 0 0 0.0941176 0 0 0 0 0.105882 0 0 0 0 0.168627 0 0 0 0.02 0"/><feBlend in2="BackgroundImageFix" result="effect1_dropShadow"/><feBlend in="SourceGraphic" in2="effect1_dropShadow" result="shape"/></filter><clipPath id="clip0"><path fill="#fff" d="M0 0h1072v184H0z"/></clipPath><clipPath id="clip1"><path transform="matrix(-1 0 0 1 1252 -1.276)" fill="#fff" d="M0 0h1408v188.957H0z"/></clipPath><clipPath id="clip2"><path transform="matrix(-1 0 0 1 1252 -.706)" fill="#fff" d="M0 0h1436v184.706H0z"/></clipPath></defs></svg>