<svg xmlns="http://www.w3.org/2000/svg" width="66" height="28" fill="none">
  <path fill="url(#paint0_linear)" d="M18 1C10 1 9 14 1 19v9h64V8c-5 6-9 0-14 6s-6-7-11-8-4 7-9 8S24 1 18 1z" opacity=".2"/>
  <path stroke="#D2D6E7" stroke-linecap="round" stroke-linejoin="round" stroke-width="1.5" d="M1 19c8-5 9-18 17-18 6 0 8 14 13 13s4-9 9-8 6 14 11 8 9 0 14-6"/>
  <defs>
    <linearGradient id="paint0_linear" x1="33" x2="33" y1="1" y2="28" gradientUnits="userSpaceOnUse">
      <stop stop-color="#9FAAC4"/>
      <stop offset="1" stop-color="#fff" stop-opacity="0"/>
    </linearGradient>
  </defs>
</svg>