<svg width="12" height="12" fill="none" xmlns="http://www.w3.org/2000/svg"><path fill-rule="evenodd" clip-rule="evenodd" d="M3.67 3.3C3.67 2.05 4.72 1 6 1A2.33 2.33 0 018.3 3.32c.03.67-.23 1.45-.68 2.05-.45.6-1.04.97-1.63.97-.56 0-1.13-.36-1.59-.97a3.63 3.63 0 01-.73-2.07zM6 0a3.33 3.33 0 00-3.32 3.3c0 .92.36 1.91.93 2.67C4.16 6.72 5 7.34 6 7.34c1.01 0 1.86-.6 2.43-1.37.57-.76.92-1.75.88-2.68C9.3 1.5 7.8 0 6 0zM2.63 7.02a.5.5 0 00-.64-.77c-.58.49-1.05.96-1.38 1.51A4.44 4.44 0 000 9.7c-.02.13 0 .25.04.36a1 1 0 00.33.45l.11.07a9 9 0 001.48.7c.97.37 2.34.71 4.02.72 2 0 3.42-.34 4.34-.71a5.44 5.44 0 001.3-.75 1.15 1.15 0 00.14-.15A1 1 0 0012 9.7a4.65 4.65 0 00-1.9-3.45.5.5 0 10-.66.75c.57.51.92.92 1.15 1.34.22.39.34.82.4 1.4a.5.5 0 00-.03.04l-.17.13c-.17.12-.44.28-.84.44-.79.32-2.07.65-3.96.64A10.7 10.7 0 011.3 9.9a4.18 4.18 0 01-.3-.18c.07-.6.22-1.04.46-1.44.26-.42.63-.8 1.17-1.26zM.96 9.69z" fill="#7A859E"/></svg>
