<svg width="198" height="104" fill="none" xmlns="http://www.w3.org/2000/svg"><path d="M27.214 35.736c-.322-2.322-.696-4.644-1.392-6.858-.215-.702-.75-1.026-1.285-1.026-.482-1.297-2.57-1.675-2.945.054-.322 1.35-.375 2.7-.268 4.05-1.392-.486-2.891-.81-3.962-.432-.803.27-1.285.918-1.66 1.566a4.072 4.072 0 0 0-1.017-1.134c-.268-.216-.697-.054-.59.324.108.27.161.54.268.81-.053-.054-.053-.108-.107-.162-.589-.918-1.231-1.836-1.98-2.7-.215-.216-.483 0-.43.27.215 1.134.59 2.214.964 3.294.322 1.026.643 2.106 1.178 3.079.59.972 2.25.486 2.142-.54.375-.162.643-.325.964-.595.321-.323.482-1.026.857-1.296.91-.648 4.069 1.027 5.033 1.404.535.216 1.017.054 1.392-.27.053.27.107.54.107.757-1.928 0-3.802-1.459-5.73-.649-1.338.54-2.034 2.16-3.158 3.079-.482.378.053 1.026.535.972 1.767-.27 2.463-2.268 4.498-1.62 1.606.486 3.802 1.674 5.515.918 1.231-.702 1.231-2.106 1.07-3.294z" fill="#E7EAF3"/><path d="M18.356 29.433c-.158 1.034-2.435.895-3.554.696 1.053.63 2.903 2.306 1.876 3.976-1.027 1.67.427 1.823 1.283 1.69.395-.696 1.52-2.008 2.864-1.69 1.678.398 2.073 1.69 3.85 1.69 1.778 0-1.086-3.38-1.777-3.777-.691-.398.691-2.585 1.777-3.579 1.087-.994-.395-.795-1.777-.696-1.382.1-2.37-2.187-2.764-3.28-.395-1.094-1.185-.299-1.778 0-.592.298.198 3.678 0 4.97z" fill="#6EDEAF"/><path d="M15.294 34.9h0m0 0c.038.322.076.64.108.954.035.345.074.696.114 1.049.085.75.171 1.51.208 2.245m-.43-4.249l.098-.011h0l.895-.106m-.993.117l.993-.116v-.001m-.993.117l.43 4.25m-.43-4.25c-.087-.732-.176-1.482-.213-2.232a14.85 14.85 0 0 0-.428-.162 14.748 14.748 0 0 1-.429-.162m1.07 2.556l-1.07-2.556m1.5 6.805l.803-.04h.022m-.825.04l.76-.126m.065.085l.01.008.286.207.431.312-.28-.462-.063-.104m-.384.04l.014-.001.16-.008-.009-.153a.842.842 0 0 1 .22.121m-.385.04l-.022-.016-.06-.043.018-.026m.448.046a.869.869 0 0 1-.001-.003m.001.003l-.001-.003m0 0l-.173-.286a4.445 4.445 0 0 1-.053.031m.226.255a1 1 0 0 0-.218-.13 17.897 17.897 0 0 0-.008-.125m0 0l-.006-.083-.107.146m.113-.063a2.095 2.095 0 0 1-.113.063m0 0a.668.668 0 0 1-.071.031m.072-.031l-.027.036m-.045-.005h-.003.003m0 0h.005-.004m-.001 0s0 0 0 0m0 0l-.002.001h.003m-.001 0h.001m0 0h.004l.04.004m0 0a19.698 19.698 0 0 0-.082.114m.082-.114a.508.508 0 0 1 .059.01.701.701 0 0 1 .055.016.11.11 0 0 1 .008.008c.016.02.02.036.021.042l-.113.019-.07.012-.042.007m-.198-4.241h0a31.978 31.978 0 0 1-.207-2.164 1 1 0 0 0-.625-.878c-.149-.06-.308-.118-.45-.17l-.008-.003a13.89 13.89 0 0 1-.428-.162l-.008-.003c-.968-.355-1.952-.716-2.939-1.047m4.665 4.427l9.82 1.712m-14.485-6.14c1.762-.439 3.472-1.036 5.148-1.665a1 1 0 0 0 .645-.837l.16-1.62h0v-.004l.04-.407m-5.993 4.534l-.394.095-.245.746.245-.746-.003.001s0 0 0 0l-.262.06a.942.942 0 0 1-.076.014.243.243 0 0 0 .215-.234s-.001-.03-.03-.071a.227.227 0 0 0-.077-.068.16.16 0 0 0-.027-.012l.028.01c.099.03.197.063.296.095h0l.003.001s0 0 0 0l.327.109zm5.993-4.534s0 0 0 0c.135-1.414.273-2.858.476-4.234m-.476 4.234a1.036 1.036 0 0 1-.01.069h0l-.986-.165m.996.096h0l-.996-.096h0m1.472-4.138c.213.297.426.6.643.909l.002.003A98.905 98.905 0 0 0 20 24.262l.001.002.808-.59m-2.718-2.087c.021-.143.043-.285.066-.427l-.08-.013.591-.469m-.577.909a56.277 56.277 0 0 0-.231-.32l.094-.07.074-.053-.086-.014-.773-.128m3.64 2.672l-.808.59h0c.483.66.973 1.332 1.429 2a1 1 0 0 0 .726.432c1.04.105 2.087.263 3.102.424h.004l1.715.267m-6.168-3.713h0c.48.658.98 1.343 1.447 2.027 1.07.108 2.142.27 3.159.432m-4.606-2.459h0l-.374-.512a97.952 97.952 0 0 1-.883-1.242 98.988 98.988 0 0 0-.883-1.242m8.308 6.71l-.477.443a25.133 25.133 0 0 1-2.162 1.818 1 1 0 0 0-.354 1.118c.416 1.26.895 2.516 1.355 3.724l.004.01-.006-.014h0l.94-.342m.7-6.758l.183-.17m-.183.17l.373.058.013-.083.008-.055.003-.017.018-.114.111-.72m-1.226 7.69l-.01.003-.924.352h0l.421 1.11h0l.004.01.338.873m.171-2.349c-.463-1.214-.935-2.453-1.344-3.692m1.344 3.692h0c.143.374.284.746.423 1.115l.482 1.242-2.249-6.049m1.173 6.041c.138.047.276.091.413.134.025.008.05.017.073.027a.435.435 0 0 0-.075-.023.335.335 0 0 0-.154.003.111.111 0 0 0-.052.027l.129.128.005.004.016.017.049.048.511.507-.542-.43-.046-.036-.084-.067-.007-.005-.102-.081m-.134-.253l.144.37h0l.002.007a.211.211 0 0 1-.012-.124m0 0c.004-.015.007-.014-.002-.002l.002.002zm-1.307-6.294a26.125 26.125 0 0 0 2.249-1.89l.696-.648a.773.773 0 0 0 .268-.864c-.054-.324-.322-.54-.643-.594m-2.57 3.996l2.227-3.236m-12.936 5.127c-1.08-.397-2.16-.793-3.24-1.148h-.004m3.244 1.147l-3.244-1.148m0 0a54.148 54.148 0 0 0-.29-.094c-.374-.108-.588-.432-.588-.81 0-.378.267-.702.642-.756 1.928-.432 3.802-1.08 5.676-1.782l.16-1.62.04-.408m-5.64 5.47l14.435-5.062m0 0l2.088.324m-2.088-.324l1.772 1.168m-8.518-6.623a.884.884 0 0 0-.857-.324.801.801 0 0 0-.643.648m1.5-.324l-.636.462-.091-.014-.773-.124m0 0c-.246 1.54-.401 3.17-.55 4.723h0m10.54 1.492v-.003.003l.005-.004.032-.03a.982.982 0 0 1 .054-.046.166.166 0 0 0-.046.07.253.253 0 0 0-.017.094m-.027-.084l.027.084m.316-.844l-.12.72-.018.102-.005.032-.007.04-.016.092a.166.166 0 0 1-.077-.043.305.305 0 0 1-.073-.1m-9.226-6.06l.11-.089.085.014a.21.21 0 0 1-.056.116.22.22 0 0 1-.122.06.092.092 0 0 1-.042-.008.138.138 0 0 1-.033-.017.094.094 0 0 1-.018-.017l.076-.06zM3.915 56.217c.128 1.917.537 5.982 1.151 6.902M1 59.942c1.922.039 4.833 0 6.368-.274M190.139 58.52c-.88 1.708-2.628 5.402-2.577 6.507M185.719 60.206c1.626 1.025 4.14 2.493 5.596 3.05" stroke="#2F354D" stroke-width="2" stroke-linecap="round" stroke-linejoin="round"/><path fill-rule="evenodd" clip-rule="evenodd" d="M86.484 32.14c-1.81-3.643-4.614-6.288-7.388-8.904-3.617-3.41-7.182-6.774-8.43-12.242-.629-2.851-3.855-3.01-5.587-1.505-2.754-.95-6.767-.237-8.341 2.693-1.564 2.933.724 5.737 2.573 8.002.199.243.392.48.575.71 4.249 5.307 10.309 9.584 16.368 13.068-1.193.093-2.412.32-3.596.54-.847.157-1.676.312-2.463.41-2.597.318-4.486.793-6.61 2.377-.394.317-.316 1.03.314 1.03 1.487.05 3.209.406 5 .776 3.895.807 8.118 1.681 10.975-.38.787-.555 1.18-1.347 1.18-2.139.118.04.217.099.315.158.099.06.197.12.315.159 3.226 1.584 6.295-1.584 4.8-4.752zM63.606 14.253h.001c.221-.152.493-.338.764-.407.125.568.3 1.086.486 1.633l.001.003.083.244.06.18c-.14-.142-.28-.278-.419-.411-.402-.391-.783-.76-1.076-1.174l.038-.026.062-.042z" fill="#E7EAF3"/><path d="M138.183 63.798l.001.018c.151 4.733.302 9.464.553 14.182.066 1.262.203 2.661.347 4.137.725 7.418 1.64 16.77-5.383 20.336-3.148 1.505-6.925-.316-7.004-4.039a783.06 783.06 0 0 0-.708-19.246 329.537 329.537 0 0 1-.217-6.556c-.077-2.916-.154-5.836-.334-8.73-1.544.017-2.911.037-4.172.055h-.002c-4.846.07-8.152.118-14.083-.134-.142 1.71-.347 3.356-.559 5.054l-.071.57c-.629 5.385-1.101 10.77-1.18 16.157-.023 1.367.013 2.781.05 4.213v.003c.09 3.54.184 7.188-.601 10.515-.236 1.03-1.574.871-1.888 0-1.488-3.81-1.755-8.437-2.001-12.678a253.3 253.3 0 0 0-.124-2.053 166.52 166.52 0 0 1-.236-15.365l.118-3.723c.039-1.247.078-2.495.118-3.722-1.417-1.268-1.417-3.565 0-4.832-.04-.514-.059-1.03-.079-1.544-.02-.515-.039-1.03-.079-1.544-.065-.89-.182-1.812-.3-2.744-.45-3.549-.92-7.265 1.323-10.087.63-.792 2.283-1.03 3.07-.396 3.461 2.668 3.269 7.417 3.102 11.585l-.033.85c-.04.435-.059.89-.079 1.346-.02.456-.039.91-.079 1.346 6.215-.347 10.157-.398 15.119-.462h.003a983.16 983.16 0 0 0 6.047-.092h.236a399.336 399.336 0 0 1-.472-13.702c-.054-3.873 3.81-5.003 6.376-3.547 1.41-1.045 4.556-1.715 7.365-2.313 1.752-.374 3.373-.719 4.359-1.11 2.363-.964 4.778-1.72 7.204-2.478.562-.176 1.125-.352 1.688-.531.866-.238 1.181.95.551 1.346-2.597 1.98-5.115 3.802-7.948 5.307-2.221 1.226-7.901 2.649-11.038 3.133.008.063.015.128.021.193.566 7.077.793 14.183 1.019 21.282zM82.952 56.351c1.025.245 1.967.631 2.745 1.213 2.282 1.663 1.968 4.832-.787 5.861-2.361.876-5.311.32-7.998-.188h-.004c-.714-.135-1.41-.267-2.07-.366l-.157-.023-.18-.025-.368-.052c-2.575-.36-5.397-.753-7.558-2.276a.72.72 0 0 1-.254-.26 6.8 6.8 0 0 1-.69-.215c-1.338-.476-2.047-2.218-.866-3.327 3.39-3.184 9.737-3.175 14.277-3.168h.596c1.935 0 3.022 1.32 3.314 2.826zM133.159 21.612c1.255.556 2.484 1.284 3.847 2.133 3.227 2.06 6.374-2.455 3.935-5.069-6.138-6.81-16.605-4.435-24.238-2.059-5.823 1.822-17.392 5.465-18.65 12.593-.08.317.235.713.629.634 1.26-.397 2.442-1.051 3.604-1.755-1.859 1.66-3.293 3.605-3.683 5.794-.078.634.237 1.267.945 1.267 2.929 0 6.052-1.532 9.058-3.007 1.678-.824 3.32-1.63 4.871-2.14 5.43-1.902 10.781-2.852 16.526-2.614 3.343.108 4.396-3.466 3.156-5.777z" fill="#E7EAF3"/><path d="M139.839 26.913c-.787-.712-2.046-1.267-3.069-.792-2.1.827-4.657 1.455-7.336 2.112-6.559 1.608-13.852 3.397-16.981 8.739-.314.554.079 1.505.787 1.426 2.309-.228 4.593-.85 6.88-1.472 1.687-.459 3.378-.919 5.082-1.221 4.485-.792 8.892-1.743 13.221-3.406 1.337-.475 2.36-1.584 2.36-3.089-.078-1.03-.236-1.584-.944-2.297z" fill="#E7EAF3"/><path d="M97.867 40.745c-.16-1.765-5.777-.735-8.566 0 .73 6.685 1.753 20.736 0 23.463-2.19 3.41 1.793 10.629 2.192 15.241.398 4.613-.399 15.843-2.191 20.456-1.793 4.612 8.565 1.604 9.76 0 1.194-1.605-.996-56.954-1.195-59.16zM150.12 18.5l-4.416 2.052c-1.698 2.109-6.285 5.868-7.507 7.92-1.529 2.565-8.288 4.733-10.835 4.733-2.548 0-17.323 2.052-19.701 4.104s4.925 1.026 6.624 1.026c1.698 0 15.964-.342 21.229 0 5.265.342 3.906-1.71 11.209-3.078 7.303-1.368 5.265-2.052 6.284-4.275 1.019-2.223-7.303-1.197-7.303-1.539 0-.273 2.944-7.41 4.416-10.943z" fill="#6EDEAF"/><path d="M58.552 57.243h30.01M100.189 56.826h27.509M58.642 102.655c-.526-14.458-.668-44.373-.507-58.836M58.642 102.71h68.223c.284-14.88 0-29.991 0-45.043 0-1.822 1.837-.733 1.837-2.636-.079-.871-.787-11.053-.787-15.409M139.784 39.203c-.833 18.883-.222 38.792.849 59.518M127.28 56.828c3.256-.41 7.572.27 10.837.42M88.252 39.902c.583 19.94.922 42.72 1.517 62.664M100.19 102.568c-.519-21.143-.959-42.637-1.25-63.785" stroke="#2F354D" stroke-width="2" stroke-linecap="round" stroke-linejoin="round"/><path d="M48.923 50.533c6.768-8.237 19.767-11.75 35.427-11.75h55.094" stroke="#2F354D" stroke-width="2" stroke-linecap="round" stroke-linejoin="round"/><path d="M49.062 50.533v-7.62c-1.801 0-8.47.475-8.814-2.06-.994-5.5 18.93-12.024 23.262-13.4" stroke="#2F354D" stroke-width="2" stroke-linecap="round" stroke-linejoin="round"/><path d="M83.25 38.593c-.237-1.742-3.576-3.364-7.747-5.106-8.892-3.802-21.09-8.95-21.09-21.543 0-5.548 5.04-11.27 12.906-10.93 7.867.341 15.739 3.485 21.72 9.584 6.596 6.805 11.348 18.29 9.97 27.995" stroke="#2F354D" stroke-width="2" stroke-linecap="round" stroke-linejoin="round"/><path d="M55.278 9.491c2.755-1.584 6.296-2.534 9.365-2.534 9.837 0 24.867 13.464 24.867 25.107 0 1.98-.393 4.118-1.259 6.494M88.518 30.808c-6.61-.634-19.59-8.393-18.756-21.821M96.022 19.071c8.262-8.87 18.829-12.276 32.05-12.276 16.132 0 17.391 9.425 17.391 12.276 0 8-12.512 11.088-24.552 14.019-7.004 1.742-13.809 3.17-16.406 5.625" stroke="#2F354D" stroke-width="2" stroke-linecap="round" stroke-linejoin="round"/><path d="M98.94 30.808c2.282-3.643 15.833-13.637 28.66-13.637 4.328 0 10.213 2.35 10.213 9.902M151.455 17.38c-2.571 3.43-2.959 9.173-5.992 12.225 2.125-.158 5.823-.396 10.702 1.03.799.16 1.14 1.476.473 1.98-.394.317-1.804 2.038-21.321 6.157M145.619 19.9c2.125-.712 3.384-1.221 5.902-2.41M140.645 98.534c-.338 5.312-9.75 4.186-14.902 4.186" stroke="#2F354D" stroke-width="2" stroke-linecap="round" stroke-linejoin="round"/><path d="M197.041 30.36c-1.155-1.665-3.289-2.296-5.1-1.31-1.723.907-3.226 2.331-4.719 3.588-1.493 1.257-2.638 2.282-3.412 4.086-.577 1.311.671 2.814 1.919 2.888 1.998.118 3.54-.547 5.336-1.282 1.884-.813 3.676-1.464 5.33-2.627 1.655-1.163 1.728-3.849.646-5.342z" fill="#E7EAF3"/><path d="M186.175 36.63a1.075 1.075 0 0 0-.073.142l-.095-.006c-.047-.027-.109-.093-.123-.231-.177-2.888-.877-4.664-1.975-5.748-1.046-1.033-2.315-1.28-3.183-1.45l-.1-.02c-.471-.109-1.052-.322-1.504-.623-.464-.309-.635-.597-.658-.828a.308.308 0 0 1 .079-.197c.059-.07.12-.091.153-.095 4.989-.27 8.262-3.858 9.707-6.066.095-.146.151-.315.161-.489.037-.614.159-1.332.39-1.852.242-.543.429-.545.504-.54.157.008.231.039.255.052.017.009.02.013.023.018h.001c.019.03.076.166.05.492-.053.65-.386 1.473-.64 1.956a1 1 0 0 0-.114.464c-.003 3.225 1.97 6.335 5.016 7.41a.432.432 0 0 1 .16.14c.043.061.047.098.048.1a.353.353 0 0 1-.067.2.236.236 0 0 1-.143.081l-.02.005c-3.744.924-6.111 4.266-7.852 7.085z" stroke="#2F354D" stroke-width="2" stroke-linecap="round" stroke-linejoin="round"/><path d="M174.537 48.497c-3.167-2.962-7.514-.024-9.755 2.617-.808.962-1.532 1.928-2.183 3.066-.744 1.301-.739 2.647-.744 4.16.029.926.808 1.897 1.909 1.626 1.19-.35 2.281-.454 3.397-.976 1.121-.606 2.242-1.213 3.436-1.646 1.366-.508 2.746-1.267 3.809-2.297 1.86-1.824 1.947-4.761.131-6.55z" fill="#E7EAF3"/><path d="M164.424 56.244a.84.84 0 0 0-.021-.07l-.001-.011c-.001-.027 0-.063.001-.111l.009-.167c.014-.227.034-.456.057-.697l.007-.075c.02-.213.041-.437.057-.657.034-.489.046-1.036-.06-1.577a3.23 3.23 0 0 0-.802-1.606c-.441-.477-1.037-.84-1.784-1.112a.383.383 0 0 1-.149-.133.306.306 0 0 1-.058-.187.35.35 0 0 1 .068-.204.236.236 0 0 1 .143-.082l.029-.007c2.291-.589 3.744-2.625 4.749-4.232a.53.53 0 0 0 .02-.034.234.234 0 0 1 .117-.093.29.29 0 0 1 .163-.02c.038.008.141.063.16.244.084 1.6.439 2.685 1.119 3.385.621.64 1.397.808 1.845.906l.113.025c.054.012.109.02.165.023.614.036 1.12.476 1.208.902a.314.314 0 0 1-.078.176.248.248 0 0 1-.15.094c-2.381.11-3.806 1.956-4.757 3.316-.146.21-.281.407-.407.592-.329.482-.602.883-.886 1.209-.404.461-.571.458-.591.457a.287.287 0 0 1-.168-.076.372.372 0 0 1-.118-.178z" stroke="#2F354D" stroke-width="2" stroke-linecap="round" stroke-linejoin="round"/><path d="M23.601 87.104c3.168-2.962 7.514-.024 9.756 2.618.807.96 1.532 1.927 2.183 3.065.744 1.301.739 2.647.743 4.16-.03.926-.808 1.897-1.909 1.626-1.19-.35-2.28-.453-3.397-.976-1.12-.606-2.242-1.212-3.436-1.646-1.366-.508-2.746-1.267-3.808-2.297-1.86-1.823-1.948-4.76-.132-6.55z" fill="#E7EAF3"/><path d="M34.012 87.505a1 1 0 0 1 .163 1.57c-1.129 1.08-2.04 2.281-2.601 3.765a1 1 0 0 1-1.597.395c-1.304-1.15-2.557-2.09-4.125-2.838a1.001 1.001 0 0 1-.114-1.742c1.075-.696 2.286-1.873 2.978-3.837a1 1 0 0 1 1.66-.364c1.13 1.163 2.41 2.285 3.636 3.05zM46.23 73.653c-1.794-.411-3.542-1.076-5.292-1.65a.844.844 0 0 1-.559-.978c.299-1.412.534-2.853.457-4.338v-.001l-3.752-1.712a.846.846 0 0 1-.458-1.004c.314-1.09.516-2.188.673-3.283l.001-.005c.066-.442.162-.879.23-1.32-1.69-.632-3.366-1.301-5.054-1.937a.843.843 0 0 1-.542-.806c.036-1.873.172-3.575.51-5.267M176.051 89.26c-1.786.45-3.645.651-5.465.936a.845.845 0 0 1-.942-.617c-.377-1.393-.824-2.783-1.569-4.071h0l-4.12.18a.847.847 0 0 1-.865-.686c-.217-1.113-.537-2.183-.895-3.23l-.002-.004c-.142-.424-.255-.857-.397-1.28-1.792.205-3.589.371-5.381.572a.843.843 0 0 1-.85-.471c-.82-1.684-1.474-3.262-1.943-4.922" stroke="#2F354D" stroke-width="2" stroke-linecap="round" stroke-linejoin="round"/></svg>