<svg width="1436" height="633" viewBox="0 0 1436 633" fill="none" xmlns="http://www.w3.org/2000/svg">
  <g clip-path="url(#clip0)">
    <g opacity="0.4">
      <path d="M235.827 462.582C236.116 462.297 239.553 464.044 245.564 467.533C251.575 471.022 260.448 476.254 271.325 482.649L272.185 482.942L272.18 483.805C272.985 493.012 274.068 503.658 275.147 515.167L275.14 516.317L274.274 516.886C264.743 525.165 254.345 534.3 243.369 544.007L242.213 545.15L240.782 544.278C228.476 536.723 217.03 529.461 206.442 522.78L205.584 522.2L205.591 521.05C204.8 509.543 204.004 498.898 203.486 489.693L203.491 488.831L204.069 488.259C213.6 479.981 221.682 473.707 227.169 469.141C232.653 464.862 235.829 462.295 235.827 462.582C236.113 462.872 233.222 465.729 228.022 470.584C222.821 475.439 215.31 482.292 206.064 490.86C206.355 490.287 206.357 489.999 206.647 489.426C207.452 498.633 208.536 509.279 209.614 520.788C209.33 520.211 209.047 519.634 208.763 519.057C219.351 525.738 231.086 532.714 243.392 540.269C242.53 540.263 241.667 540.545 240.805 540.54C251.779 531.121 262.177 521.985 271.708 513.707C271.418 514.28 271.127 514.854 271.123 515.429C270.332 503.922 269.536 493.277 269.018 484.072C269.302 484.649 269.587 484.939 269.871 485.516C259.283 478.834 250.986 473.318 244.979 469.254C238.971 465.19 235.825 462.87 235.827 462.582Z" fill="#E7EAF3"/>
      <path d="M207.604 521.063C206.748 520.195 218.31 508.766 233.331 495.347C234.488 494.204 235.642 493.348 236.798 492.205C236.507 492.779 236.217 493.352 235.926 493.925C234.599 476.088 234.397 462.284 235.546 462.291C236.695 462.299 238.623 475.826 240.237 493.665L240.23 494.815L239.363 495.673C238.206 496.815 237.052 497.671 235.896 498.814C221.45 511.949 208.461 521.931 207.604 521.063Z" fill="#E7EAF3"/>
      <path d="M272.99 515.583C273.658 514.503 266.44 508.811 256.867 502.869C247.295 496.927 238.992 492.985 238.324 494.065C237.655 495.145 244.873 500.837 254.446 506.779C264.019 512.721 272.321 516.663 272.99 515.583Z" fill="#E7EAF3"/>
      <path d="M1099.58 337.85C1099.29 337.561 1102.48 332.693 1108.57 323.818C1114.66 314.943 1123.35 302.347 1134.08 286.6L1134.66 286.029L1135.52 286.034C1149.6 285.549 1165.69 285.364 1183.21 284.9L1184.36 284.908L1184.93 285.774C1196.61 301.088 1209.44 317.56 1222.83 335.185L1223.97 336.63L1223.1 338.062C1210.35 355.808 1198.47 372.697 1187.17 388.152L1186.59 389.011L1185.44 389.004C1167.92 389.18 1151.83 389.365 1137.75 389.563L1136.89 389.557L1136.32 388.979C1124.93 373.666 1115.52 361.242 1109.26 352.576C1102.71 343.046 1099.29 338.136 1099.58 337.85C1099.87 337.564 1103.86 342.19 1110.42 350.571C1117.26 358.953 1126.95 371.091 1138.64 386.118C1138.06 385.827 1137.78 385.825 1137.2 385.534C1151.28 385.048 1167.37 384.863 1184.9 384.4C1184.32 384.684 1183.74 384.968 1183.17 385.251C1194.18 369.794 1206.06 352.618 1218.81 334.872C1218.81 335.734 1218.8 336.597 1218.8 337.459C1205.4 319.834 1192.58 303.363 1181.18 288.05C1181.75 288.342 1182.33 288.633 1182.9 288.924C1165.38 289.1 1149.29 289.285 1135.21 289.483C1135.79 289.199 1136.08 288.913 1136.65 288.629C1125.64 303.799 1116.37 316.392 1110 324.977C1103.63 333.563 1099.87 338.139 1099.58 337.85Z" fill="#E7EAF3"/>
      <path d="M1185.17 386.418C1184.3 387.275 1168.33 368.197 1149.81 344.214C1148.39 342.192 1146.96 340.171 1145.54 338.436C1146.11 338.728 1146.68 339.019 1147.26 339.31C1120.25 339.713 1099.57 339.006 1099.58 337.856C1099.59 336.706 1120.28 335.4 1147.28 334.71L1148.43 334.717L1149 335.583C1150.43 337.318 1151.85 339.339 1153.28 341.361C1171.8 365.631 1186.04 385.849 1185.17 386.418Z" fill="#E7EAF3"/>
      <path d="M1167.13 313.376C1176.97 299.533 1184.11 287.714 1183.08 286.977C1182.05 286.24 1173.23 296.864 1163.38 310.707C1153.54 324.549 1146.39 336.369 1147.43 337.106C1148.46 337.843 1157.28 327.219 1167.13 313.376Z" fill="#E7EAF3"/>
      <path d="M1151.71 170.734C1151.74 170.092 1163.89 171.94 1182.79 175.259L1183.68 175.429L1184.16 176.351C1187.23 182.668 1190.89 190.298 1194.8 198.068L1195.28 198.99L1194.72 199.994C1190.22 208.661 1185.06 217.941 1179.86 227.863L1179.03 229.368L1177.49 229.168C1166.52 226.988 1156.18 224.838 1146.74 222.857L1145.6 222.547L1145.12 221.625C1141.49 213.353 1137.95 206.114 1135.01 199.547L1134.54 198.624L1134.96 197.872C1144.84 180.706 1150.96 170.313 1151.71 170.734C1152.21 171.014 1147.1 181.969 1138.36 199.444C1138.39 198.802 1138.28 198.411 1138.56 197.91C1141.88 204.367 1145.43 211.605 1149.45 219.767C1148.95 219.486 1148.59 218.955 1148.08 218.674C1157.66 220.404 1167.99 222.554 1178.97 224.734C1178.19 224.955 1177.27 225.427 1176.6 226.039C1182.04 216.258 1186.95 206.838 1191.7 198.31C1191.67 198.952 1191.65 199.594 1191.62 200.236C1187.85 192.215 1184.44 184.725 1181.51 178.158C1182.01 178.438 1182.37 178.97 1182.62 179.11C1163.27 174.227 1151.43 171.235 1151.71 170.734Z" fill="#E7EAF3"/>
      <path d="M1147.12 220.471C1146.11 219.909 1151.12 208.557 1158.41 194.866C1158.97 193.862 1159.67 192.607 1160.22 191.603C1160.2 192.245 1160.17 192.888 1160.14 193.53C1154.24 181.03 1150.55 171.078 1151.87 170.495C1152.79 170.023 1158.18 179.282 1164.22 191.531L1164.7 192.454L1164.14 193.457C1163.58 194.461 1163.02 195.465 1162.32 196.72C1154.89 210.662 1148.13 221.032 1147.12 220.471Z" fill="#E7EAF3"/>
      <path d="M1176.95 197.796C1185.52 199.497 1192.66 199.872 1192.9 198.633C1193.15 197.394 1186.4 195.011 1177.84 193.31C1169.28 191.609 1162.14 191.234 1161.89 192.473C1161.65 193.712 1168.39 196.095 1176.95 197.796Z" fill="#E7EAF3"/>
      <path d="M309.566 367.362C309.849 366.785 298.333 362.544 280.198 356.331L279.335 356.049L278.477 356.629C272.757 360.691 265.895 365.623 258.745 370.557L257.887 371.137L257.894 372.287C257.668 382.066 257.735 392.706 257.518 403.923L257.528 405.648L258.968 406.215C269.617 409.599 279.69 412.699 288.899 415.517L290.05 415.797L290.908 415.217C298.054 409.708 304.632 405.066 310.349 400.716L311.207 400.136L311.202 399.273C310.79 379.433 310.427 367.357 309.566 367.362C308.991 367.366 308.205 379.449 307.466 399.009C307.75 398.432 308.035 398.143 308.031 397.567C302.025 401.631 295.448 406.274 288.012 411.497C288.587 411.493 289.159 411.202 289.734 411.198C280.523 408.093 270.45 404.992 259.801 401.608C260.379 402.18 260.959 403.039 261.252 403.9C261.181 392.685 261.402 382.043 261.341 372.266C261.057 372.843 260.773 373.42 260.49 373.997C267.638 368.775 274.213 363.845 279.931 359.496C279.356 359.5 278.784 359.791 278.497 359.793C297.773 364.848 309.569 367.938 309.566 367.362Z" fill="#E7EAF3"/>
      <path d="M289.746 413.212C290.895 413.204 291.966 400.832 292.156 385.302C292.149 384.151 292.14 382.714 292.133 381.563C291.849 382.14 291.565 382.717 291.282 383.294C302.433 375.172 310.432 368.22 309.563 367.075C308.983 366.216 299.826 371.738 288.673 379.572L287.815 380.152L287.823 381.303C287.83 382.453 287.837 383.603 287.846 385.041C287.658 400.859 288.597 413.219 289.746 413.212Z" fill="#E7EAF3"/>
      <path d="M274.473 378.967C266.154 376.331 259.721 373.212 260.104 372.001C260.487 370.789 267.541 371.944 275.859 374.58C284.178 377.216 290.61 380.334 290.228 381.546C289.845 382.757 282.791 381.602 274.473 378.967Z" fill="#E7EAF3"/>
      <path d="M648.484 545.812C648.522 545.527 650.99 544.409 655.642 542.133C660.293 539.857 667.375 536.748 676.602 532.766C694.772 524.765 720.916 513.483 752.927 499.51L753.857 499.054L754.675 499.454C777.014 512.587 802.87 527.639 830.856 544.136L831.673 544.536L831.808 545.713C835.559 580.992 839.751 619.518 843.965 660.076L844.025 661.822L842.487 662.486C805.33 678.09 769.996 693.068 737.737 706.719L736.807 707.174L735.99 706.775C708.042 689.993 682.223 674.656 659.884 661.523L659.067 661.123L658.894 660.231C655.428 624.99 652.522 596.489 650.805 576.553C649.804 566.565 649.357 558.97 648.894 553.692C648.393 548.698 648.162 546.059 648.484 545.812C648.769 545.85 649.001 548.49 649.749 553.806C650.497 559.123 651.514 566.794 652.552 576.497C654.877 596.225 658.069 624.764 662.142 659.796C661.895 659.473 661.685 658.865 661.438 658.543C683.777 671.676 709.633 686.728 737.904 703.263C737.334 703.187 736.764 703.111 735.909 702.996C768.205 689.061 803.824 674.121 840.696 658.479C840.298 659.295 839.9 660.111 839.217 660.889C835.003 620.331 831.096 581.844 827.344 546.564C827.554 547.172 828.087 547.533 828.296 548.141C800.348 531.359 774.53 516.022 752.476 502.927C753.046 503.003 753.616 503.079 753.901 503.118C721.68 516.484 695.288 527.442 676.909 534.836C667.719 538.533 660.675 541.358 655.776 543.31C650.877 545.263 648.447 546.097 648.484 545.812Z" fill="#E7EAF3"/>
      <path d="M736.534 705.203C735.927 705.411 734.258 693.883 731.707 675.859C729.478 657.588 726.442 632.252 723.46 604.315C722.884 599.889 722.631 595.217 722.017 591.077C722.512 591.723 722.722 592.331 723.254 592.692C701.726 579.955 682.936 568.454 669.547 559.995C656.158 551.536 648.132 546.404 648.492 545.872C648.852 545.341 657.239 549.942 671.311 557.622C685.098 565.265 704.249 576.234 725.777 588.971L726.842 589.693L726.977 590.871C727.59 595.011 727.843 599.683 728.419 604.109C731.402 632.046 733.868 657.306 735.203 675.747C736.576 693.903 737.105 705.279 736.534 705.203Z" fill="#E7EAF3"/>
      <path d="M777.73 570.574C806.639 558.277 829.671 547.358 829.174 546.186C828.676 545.013 804.837 554.031 775.928 566.328C747.019 578.624 723.987 589.543 724.485 590.716C724.982 591.889 748.821 582.871 777.73 570.574Z" fill="#E7EAF3"/>
      <path d="M583.04 78.1099C583.323 78.6868 576.112 83.5296 564.291 90.6436C552.468 98.0452 535.747 107.716 517.011 118.237C498.562 128.76 481.556 138.142 469.164 144.677C456.772 151.212 448.992 155.189 448.708 154.612C448.424 154.035 455.636 149.192 467.457 142.078C479.28 134.677 496 125.006 514.737 114.485C533.186 103.962 550.191 94.5802 562.584 88.0449C574.976 81.5096 582.756 77.533 583.04 78.1099Z" fill="#E7EAF3"/>
      <g opacity="0.87">
        <g opacity="0.87">
          <g opacity="0.87">
            <g opacity="0.87">
              <path opacity="0.87" d="M791.963 289.369L820.016 402.547L719.955 461.698L691.615 348.518L791.963 289.369Z" fill="#E7EAF3"/>
            </g>
            <g opacity="0.87">
              <path opacity="0.87" d="M719.982 461.726L636.575 427.254L608.237 313.787L691.642 348.546L719.982 461.726Z" fill="#E7EAF3"/>
            </g>
            <g opacity="0.87">
              <path opacity="0.87" d="M691.653 348.503L608.265 313.755L708.305 254.622L791.98 289.372L691.653 348.503Z" fill="#E7EAF3"/>
            </g>
          </g>
        </g>
        <g opacity="0.87">
          <path opacity="0.87" d="M791.973 289.366L708.299 254.612L608.252 313.776L636.573 427.244L719.961 461.708L820.009 402.544L791.973 289.366Z" fill="#E7EAF3"/>
        </g>
      </g>
      <path d="M664.091 390.923C664.374 391.5 658.028 395.773 647.36 402.319C636.691 408.865 621.988 417.399 605.557 426.784C589.126 436.17 574.138 444.414 563.187 450.096C552.237 455.777 545.322 459.184 545.038 458.607C544.754 458.031 551.1 453.757 561.769 447.211C572.438 440.665 587.14 432.131 603.572 422.746C620.003 413.361 634.991 405.117 645.941 399.435C656.892 393.753 663.807 390.346 664.091 390.923Z" fill="#E7EAF3"/>
      <path d="M959.375 527.648C959.658 528.225 953.025 532.496 942.067 539.328C931.11 546.16 915.831 554.978 898.821 564.934C881.814 574.604 866.248 583.419 854.721 589.385C843.194 595.351 835.992 598.756 835.706 598.466C835.423 597.889 842.056 593.618 853.014 586.786C863.971 579.954 879.25 571.137 896.547 561.182C913.554 551.513 929.12 542.697 940.647 536.731C951.601 530.474 958.804 527.069 959.375 527.648Z" fill="#E7EAF3"/>
      <path d="M699.949 308.033C699.373 308.317 696.562 298.235 692.351 282.392C688.142 266.261 682.821 244.084 676.94 219.604C671.061 194.835 666.315 172.662 662.967 156.537C659.62 140.412 657.671 130.335 658.535 130.052C659.111 129.768 661.922 139.851 666.133 155.694C670.342 171.825 675.663 194.002 681.544 218.482C687.425 242.963 692.17 265.424 695.517 281.549C698.864 297.674 700.525 307.75 699.949 308.033Z" fill="#E7EAF3"/>
      <path d="M440.259 449.907C439.682 450.191 436.87 440.395 432.945 424.842C429.019 409.288 423.695 387.686 418.095 364.07C412.498 340.166 407.748 318.568 404.399 302.731C401.05 286.893 399.387 277.105 399.961 277.109C400.538 276.825 403.35 286.62 407.275 302.174C411.201 317.728 416.525 339.329 422.123 363.233C427.72 387.137 432.47 408.735 435.819 424.572C439.17 440.122 440.833 449.91 440.259 449.907Z" fill="#E7EAF3"/>
      <path d="M386.001 435.002C386.001 435.002 305.999 404.498 305.081 407.558C304.163 410.618 386.001 435.002 386.001 435.002Z" fill="#E7EAF3"/>
      <path d="M1157.5 280C1157.5 280 1163 231.001 1160.5 230C1158 229 1157.5 280 1157.5 280Z" fill="#E7EAF3"/>
      <path d="M252.001 463C251.001 462.5 265.999 416.001 268.499 415.001C267.999 417.501 253.001 463.5 252.001 463Z" fill="#E7EAF3"/>
      <path d="M647.329 603.836C647.176 604.46 637.866 600.316 623.43 593.322C585.81 575.097 548.439 556.346 511.553 536.674C497.269 529.056 488.703 524.037 489.075 523.599C489.228 522.975 498.538 527.119 512.974 534.113C550.676 552.378 588.105 571.233 625.071 590.948C639.135 598.379 647.701 603.399 647.329 603.836Z" fill="#E7EAF3"/>
      <path d="M907.227 146.66C907.113 147.292 897.565 143.728 882.726 137.635C844.056 121.758 730.336 85.8751 692.309 68.5081C677.584 61.7831 668.726 57.2999 669.07 56.8402C669.184 56.208 678.732 59.7718 693.571 65.8646C732.324 81.7766 846.11 117.76 884.218 135.164C898.713 141.717 907.571 146.2 907.227 146.66Z" fill="#E7EAF3"/>
      <path d="M1043.4 398.707C1042.23 410.72 1008.43 264.399 1008.43 264.399C1004.05 247.818 1002.72 237.952 1003.34 238.017C1004 237.783 1006.83 247.461 1011.63 264.127C1011.63 264.127 1044.56 386.694 1043.4 398.707Z" fill="#E7EAF3"/>
      <path d="M993.615 427.78C993.038 428.064 990.223 418.844 986.579 404.155C982.648 389.464 977.604 369.014 972.285 346.55C966.966 324.086 962.498 303.353 959.429 288.667C956.362 273.694 954.695 264.481 955.27 264.485C955.846 264.201 958.662 273.421 962.305 288.11C966.236 302.801 971.28 323.251 976.599 345.715C981.918 368.179 986.386 388.912 989.455 403.598C992.524 418.284 994.191 427.496 993.615 427.78Z" fill="#E7EAF3"/>
      <path d="M904.206 439.583C903.915 440.156 895.603 437.228 881.85 431.678C868.382 426.417 849.76 418.536 829.42 409.781C809.08 401.026 790.46 392.858 777.285 386.736C764.11 380.615 756.093 376.538 756.096 375.963C756.387 375.39 764.699 378.318 778.452 383.868C791.92 389.129 810.542 397.01 831.169 405.767C851.509 414.521 870.129 422.69 883.304 428.812C896.479 434.933 904.496 439.009 904.206 439.583Z" fill="#E7EAF3"/>
      <path d="M755.784 380.563C758.163 380.578 760.104 378.659 760.119 376.277C760.134 373.894 758.217 371.951 755.838 371.936C753.458 371.921 751.517 373.84 751.502 376.222C751.488 378.604 753.405 380.548 755.784 380.563Z" fill="#E7EAF3"/>
      <path d="M699.913 312.346C702.292 312.361 704.233 310.442 704.248 308.059C704.263 305.677 702.346 303.734 699.967 303.719C697.587 303.704 695.646 305.623 695.631 308.005C695.617 310.387 697.534 312.331 699.913 312.346Z" fill="#E7EAF3"/>
      <path d="M664.063 395.231C666.443 395.246 668.384 393.327 668.399 390.945C668.413 388.563 666.496 386.619 664.117 386.604C661.738 386.589 659.797 388.508 659.782 390.89C659.767 393.273 661.684 395.216 664.063 395.231Z" fill="#E7EAF3"/>
      <path d="M440.224 454.219C442.603 454.234 444.544 452.315 444.559 449.933C444.574 447.551 442.657 445.607 440.277 445.592C437.898 445.577 435.957 447.496 435.942 449.878C435.927 452.261 437.844 454.204 440.224 454.219Z" fill="#E7EAF3"/>
      <path d="M993.58 432.092C995.959 432.107 997.9 430.188 997.915 427.806C997.93 425.423 996.013 423.48 993.634 423.465C991.254 423.45 989.313 425.369 989.298 427.751C989.284 430.133 991.201 432.077 993.58 432.092Z" fill="#E7EAF3"/>
      <path d="M583.003 83.8539C585.382 83.8689 587.323 81.9499 587.338 79.5676C587.353 77.1854 585.436 75.242 583.056 75.2269C580.677 75.2119 578.736 77.1309 578.721 79.5132C578.706 81.8954 580.623 83.8388 583.003 83.8539Z" fill="#E7EAF3"/>
      <path d="M959.348 531.955C961.727 531.97 963.668 530.051 963.683 527.669C963.697 525.286 961.781 523.343 959.401 523.328C957.022 523.313 955.081 525.232 955.066 527.614C955.051 529.997 956.968 531.94 959.348 531.955Z" fill="#E7EAF3"/>
      <path d="M673.308 63.6542C675.688 63.6692 677.629 61.7502 677.644 59.3679C677.658 56.9857 675.741 55.0423 673.362 55.0272C670.983 55.0122 669.042 56.9312 669.027 59.3135C669.012 61.6958 670.929 63.6392 673.308 63.6542Z" fill="#E7EAF3"/>
      <path d="M280.375 142.514C280.375 142.227 282.676 140.793 286.99 137.926C291.303 135.058 297.917 131.045 306.543 125.885C323.509 115.565 347.951 100.946 377.856 82.8858L378.719 82.3123L379.58 82.6015C403.405 92.7103 430.961 104.264 460.813 116.972L461.674 117.261L461.959 118.412C470.23 152.933 479.356 190.619 488.767 230.319L489.051 232.045L487.613 232.905C452.821 253.256 419.753 272.747 389.561 290.519L388.698 291.093L387.837 290.803C357.985 277.808 330.43 265.967 306.605 255.858L305.744 255.569L305.458 254.706C297.475 220.185 290.917 192.28 286.642 172.719C284.361 162.938 282.938 155.459 281.798 150.281C280.945 145.103 280.375 142.514 280.375 142.514C280.662 142.515 281.232 145.104 282.659 150.282C284.087 155.461 286.084 162.941 288.366 172.434C293.216 191.709 300.062 219.614 308.62 253.849C308.333 253.561 308.047 252.985 307.76 252.697C331.584 262.806 359.14 274.359 389.28 287.068C388.705 287.067 388.131 287.066 387.269 287.064C417.462 269.005 450.816 249.514 485.322 229.162C485.033 230.024 484.744 230.887 484.168 231.748C474.758 192.049 465.918 154.363 457.648 119.841C457.934 120.417 458.508 120.706 458.794 121.281C428.943 108.286 401.387 96.4447 377.85 86.3364C378.425 86.3375 378.999 86.3385 379.286 86.3391C349.095 103.823 324.366 118.155 307.114 127.899C298.489 132.771 291.875 136.497 287.275 139.076C282.962 141.369 280.662 142.515 280.375 142.514Z" fill="#E7EAF3"/>
      <path d="M388.417 289.087C387.842 289.373 384.702 278.153 379.849 260.603C375.283 242.766 369.007 218.024 362.447 190.694C361.306 186.379 360.452 181.776 359.31 177.748C359.883 178.324 360.169 178.9 360.743 179.189C337.78 169.369 317.687 160.417 303.336 153.776C288.985 147.136 280.374 143.094 280.662 142.519C280.95 141.945 289.849 145.412 304.777 151.191C319.417 156.97 339.798 165.347 362.761 175.167L363.909 175.744L364.195 176.895C365.337 180.923 366.19 185.525 367.332 189.84C373.892 217.171 379.594 241.911 383.297 260.034C387.001 277.582 388.992 288.8 388.417 289.087Z" fill="#E7EAF3"/>
      <path d="M412.009 150.177C439.075 134.223 460.494 120.401 459.85 119.306C459.206 118.211 436.743 130.257 409.677 146.211C382.611 162.166 361.192 175.987 361.836 177.082C362.48 178.177 384.943 166.131 412.009 150.177Z" fill="#E7EAF3"/>
      <path d="M888.205 115.238C888.223 114.951 890.607 113.662 895.087 111.066C899.568 108.469 906.415 104.87 915.341 100.251C932.905 90.9936 958.195 77.9052 989.148 61.719L990.045 61.1997L990.887 61.5409C1014.07 73.0853 1040.89 86.2997 1069.94 100.806L1070.78 101.148L1070.99 102.313C1077.17 137.261 1084.01 175.418 1091.02 215.602L1091.2 217.341L1089.71 218.111C1053.74 236.284 1019.54 253.705 988.315 269.586L987.419 270.105L986.577 269.764C957.55 254.971 930.746 241.469 907.564 229.925L906.722 229.584L906.488 228.705C900.598 193.775 895.731 165.534 892.642 145.756C890.954 135.858 889.984 128.31 889.158 123.074C888.331 117.838 888.205 115.238 888.205 115.238C888.492 115.256 888.905 117.874 890.018 123.128C891.131 128.382 892.675 135.967 894.381 145.578C898.062 165.105 903.215 193.365 909.697 228.044C909.428 227.739 909.177 227.147 908.908 226.842C932.09 238.387 958.911 251.601 988.243 266.126C987.669 266.09 987.095 266.053 986.235 265.999C1017.48 249.831 1051.96 232.428 1087.64 214.237C1087.3 215.079 1086.96 215.922 1086.34 216.746C1079.33 176.563 1072.78 138.423 1066.6 103.475C1066.85 104.067 1067.41 104.39 1067.66 104.982C1038.63 90.1887 1011.83 76.6875 988.934 65.1612C989.508 65.1975 990.082 65.2337 990.369 65.2518C959.164 80.8462 933.605 93.6297 915.789 102.295C906.881 106.627 900.053 109.94 895.303 112.231C890.858 114.254 888.205 115.238 888.205 115.238Z" fill="#E7EAF3"/>
      <path d="M987.277 268.133C986.686 268.384 984.226 256.996 980.437 239.187C976.954 221.11 972.177 196.039 967.274 168.367C966.394 163.991 965.819 159.347 964.921 155.258C965.459 155.868 965.71 156.46 966.266 156.783C943.923 145.578 924.395 135.415 910.461 127.91C896.528 120.405 888.172 115.845 888.494 115.289C888.817 114.734 897.496 118.738 912.056 125.419C926.33 132.081 946.181 141.689 968.524 152.893L969.636 153.54L969.851 154.705C970.749 158.794 971.324 163.439 972.204 167.815C977.107 195.486 981.31 220.521 983.915 238.831C986.556 256.567 987.869 267.883 987.277 268.133Z" fill="#E7EAF3"/>
      <path d="M1019.22 130.889C1047.21 116.611 1069.43 104.117 1068.86 102.983C1068.28 101.85 1045.12 112.506 1017.14 126.784C989.148 141.062 966.927 153.556 967.504 154.69C968.081 155.823 991.237 145.167 1019.22 130.889Z" fill="#E7EAF3"/>
      <g opacity="0.87">
        <path opacity="0.87" d="M702.031 -26.1131L730.34 87.0785L630.294 146.26L601.985 33.0681L702.031 -26.1131Z" fill="#E7EAF3"/>
        <path opacity="0.87" d="M630.301 146.266L546.638 111.517L518.328 -1.67407L601.991 33.0746L630.301 146.266Z" fill="#D2D6E7"/>
        <path opacity="0.87" d="M601.993 33.0657L518.333 -1.68085L618.662 -60.8565L702.035 -26.1117L601.993 33.0657Z" fill="#F9FAFC"/>
        <path opacity="0.87" d="M1081.84 418.848L1110.15 532.04L1009.82 591.219L981.508 478.027L1081.84 418.848Z" fill="#E7EAF3"/>
        <path opacity="0.87" d="M1009.82 591.225L926.448 556.479L898.139 443.287L981.514 478.034L1009.82 591.225Z" fill="#D2D6E7"/>
        <path opacity="0.87" d="M981.517 478.024L898.145 443.28L998.187 384.102L1081.85 418.849L981.517 478.024Z" fill="#F9FAFC"/>
      </g>
      <g opacity="0.87">
        <g opacity="0.87">
          <path opacity="0.87" d="M537.143 434.42L565.46 547.608L465.124 606.78L437.093 493.593L537.143 434.42Z" fill="#E7EAF3"/>
          <path opacity="0.87" d="M465.135 606.792L381.752 572.042L353.435 458.853L437.105 493.605L465.135 606.792Z" fill="#D2D6E7"/>
          <path opacity="0.87" d="M437.109 493.588L353.446 458.841L453.774 399.676L537.15 434.422L437.109 493.588Z" fill="#F9FAFC"/>
        </g>
      </g>
    </g>
  </g>
  <defs>
    <clipPath id="clip0">
      <rect width="1436" height="633" fill="white"/>
    </clipPath>
  </defs>
</svg>
