<svg width="1025" height="702" fill="none" xmlns="http://www.w3.org/2000/svg"><g opacity=".4"><path d="M33.827 521.582c.29-.285 3.726 1.462 9.737 4.951s14.884 8.721 25.761 15.116l.86.293-.005.863c.805 9.207 1.888 19.853 2.967 31.362l-.008 1.15-.865.569a4684.416 4684.416 0 0 0-30.905 27.121l-1.156 1.143-1.431-.872c-12.306-7.555-23.752-14.817-34.34-21.498l-.858-.58.007-1.15c-.791-11.507-1.587-22.152-2.105-31.357l.005-.862.578-.572c9.531-8.278 17.613-14.552 23.1-19.118 5.484-4.279 8.66-6.846 8.658-6.559.286.29-2.605 3.147-7.805 8.002-5.201 4.855-12.712 11.708-21.958 20.276.29-.573.293-.861.583-1.434.805 9.207 1.889 19.853 2.967 31.362l-.851-1.731c10.588 6.681 22.323 13.657 34.63 21.212-.863-.006-1.726.276-2.588.271 10.974-9.419 21.372-18.555 30.903-26.833-.29.573-.581 1.147-.585 1.722-.79-11.507-1.587-22.152-2.105-31.357.284.577.57.867.853 1.444a923.977 923.977 0 0 1-24.892-16.262c-6.008-4.064-9.154-6.384-9.152-6.672z" fill="#E7EAF3"/><path d="M5.604 580.063c-.856-.868 10.706-12.297 25.727-25.716 1.157-1.143 2.311-1.999 3.467-3.142l-.872 1.72c-1.327-17.837-1.529-31.641-.38-31.634 1.15.008 3.077 13.535 4.69 31.374l-.006 1.15-.867.858c-1.157 1.142-2.311 1.998-3.467 3.141C19.45 570.949 6.46 580.931 5.604 580.063z" fill="#E7EAF3"/><path d="M70.99 574.583c.668-1.08-6.55-6.772-16.123-12.714-9.572-5.942-17.875-9.884-18.543-8.804-.669 1.08 6.55 6.772 16.122 12.714 9.573 5.942 17.875 9.884 18.544 8.804zM897.58 396.85c-.285-.289 2.904-5.157 8.992-14.032 6.087-8.875 14.782-21.471 25.508-37.218l.578-.571.862.005c14.079-.485 30.166-.67 47.692-1.134l1.149.008.569.866c11.684 15.314 24.51 31.786 37.9 49.411l1.14 1.445-.87 1.432c-12.75 17.746-24.629 34.635-35.928 50.09l-.58.859-1.149-.007c-17.524.176-33.611.361-47.688.559l-.862-.006-.571-.578c-11.396-15.313-20.799-27.737-27.066-36.403-6.548-9.53-9.965-14.44-9.676-14.726.289-.286 4.282 4.34 10.838 12.721 6.842 8.382 16.534 20.52 28.219 35.547-.572-.291-.859-.293-1.432-.584 14.079-.486 30.166-.671 47.692-1.134l-1.729.851c11.012-15.457 22.892-32.633 35.642-50.379 0 .862-.01 1.725-.01 2.587-13.4-17.625-26.222-34.096-37.618-49.409l1.718.874c-17.524.176-33.612.361-47.689.559.577-.284.866-.57 1.442-.854a4330.581 4330.581 0 0 1-26.652 36.348c-6.373 8.586-10.135 13.162-10.421 12.873z" fill="#E7EAF3"/><path d="M983.17 445.418c-.867.857-16.836-18.221-35.359-42.204-1.424-2.022-2.848-4.043-4.274-5.778l1.719.874c-27.005.403-47.683-.304-47.676-1.454.007-1.15 20.698-2.456 47.704-3.146l1.149.007.569.866c1.426 1.735 2.85 3.756 4.273 5.778 18.522 24.27 32.761 44.488 31.895 45.057z" fill="#E7EAF3"/><path d="M965.127 372.376c9.845-13.843 16.987-25.662 15.953-26.399-1.034-.737-9.853 9.887-19.698 23.73-9.844 13.842-16.987 25.662-15.953 26.399 1.034.737 9.853-9.887 19.698-23.73zM949.711 229.734c.027-.642 12.175 1.206 31.08 4.525l.894.17.475.922c3.072 6.317 6.731 13.947 10.641 21.717l.474.922-.558 1.004c-4.495 8.667-9.661 17.947-14.854 27.869l-.837 1.505-1.536-.2c-10.975-2.18-21.307-4.33-30.746-6.311l-1.145-.31-.475-.922c-3.631-8.272-7.178-15.511-10.11-22.078l-.475-.923.419-.752c9.884-17.166 15.999-27.559 16.753-27.138.502.28-4.607 11.235-13.346 28.71.028-.642-.084-1.033.195-1.534 3.324 6.457 6.871 13.695 10.892 21.857-.502-.281-.865-.812-1.368-1.093 9.578 1.73 19.911 3.88 30.885 6.06-.782.221-1.703.693-2.373 1.305 5.444-9.781 10.358-19.201 15.105-27.729l-.084 1.926a1259.523 1259.523 0 0 1-10.11-22.078c.503.28.866.812 1.117.952-19.352-4.883-31.193-7.875-30.913-8.376z" fill="#E7EAF3"/><path d="M945.121 279.471c-1.007-.562 3.995-11.914 11.287-25.605l1.816-3.263-.083 1.927c-5.898-12.5-9.587-22.452-8.274-23.035.922-.472 6.317 8.787 12.353 21.036l.476.923-.559 1.003-1.816 3.263c-7.433 13.942-14.194 24.312-15.2 23.751z" fill="#E7EAF3"/><path d="M974.953 256.796c8.563 1.701 15.702 2.076 15.947.837.246-1.239-6.497-3.622-15.059-5.323-8.563-1.701-15.703-2.076-15.948-.837-.245 1.239 6.498 3.622 15.06 5.323zM107.566 426.362c.283-.577-11.233-4.818-29.368-11.031l-.863-.282-.858.58c-5.72 4.062-12.582 8.994-19.732 13.928l-.858.58.007 1.15c-.226 9.779-.16 20.419-.376 31.636l.01 1.725 1.44.567c10.65 3.384 20.722 6.484 29.931 9.302l1.15.28.859-.58c7.146-5.509 13.724-10.151 19.441-14.501l.858-.58-.005-.863c-.412-19.84-.775-31.916-1.636-31.911-.575.004-1.361 12.087-2.1 31.647.284-.577.569-.866.565-1.442-6.006 4.064-12.583 8.707-20.019 13.93.575-.004 1.147-.295 1.722-.299-9.211-3.105-19.284-6.206-29.933-9.59.578.572 1.158 1.431 1.45 2.292-.07-11.215.15-21.857.09-31.634l-.851 1.731a1256.644 1256.644 0 0 0 19.44-14.501c-.574.004-1.146.295-1.433.297 19.276 5.055 31.072 8.145 31.069 7.569z" fill="#E7EAF3"/><path d="M87.746 472.212c1.149-.008 2.22-12.38 2.41-27.91l-.023-3.739-.851 1.731c11.151-8.122 19.15-15.074 18.281-16.219-.58-.859-9.737 4.663-20.89 12.497l-.858.58.008 1.151.023 3.738c-.188 15.818.751 28.178 1.9 28.171z" fill="#E7EAF3"/><path d="M72.473 437.967c-8.319-2.636-14.752-5.755-14.369-6.966.383-1.212 7.437-.057 15.755 2.579 8.319 2.636 14.752 5.754 14.369 6.966-.383 1.211-7.437.056-15.755-2.579zM446.484 604.812c.038-.285 2.506-1.403 7.158-3.679 4.651-2.276 11.733-5.385 20.96-9.367 18.17-8.001 44.314-19.283 76.325-33.256l.93-.456.818.4c22.339 13.133 48.195 28.185 76.181 44.682l.817.4.135 1.177c3.751 35.279 7.943 73.805 12.157 114.363l.06 1.746-1.538.664c-37.157 15.604-72.491 30.582-104.75 44.233l-.93.455-.817-.399c-27.948-16.782-53.767-32.119-76.106-45.252l-.817-.4-.173-.892c-3.466-35.241-6.372-63.742-8.089-83.678-1.001-9.988-1.448-17.583-1.911-22.861-.501-4.994-.732-7.633-.41-7.88.285.038.517 2.678 1.265 7.994a682.864 682.864 0 0 1 2.803 22.691c2.325 19.728 5.517 48.267 9.59 83.299-.247-.323-.457-.931-.704-1.253 22.339 13.133 48.195 28.185 76.466 44.72l-1.995-.267c32.296-13.935 67.915-28.875 104.787-44.517-.398.816-.796 1.632-1.479 2.41-4.214-40.558-8.121-79.045-11.873-114.325.21.608.743.969.952 1.577-27.948-16.782-53.766-32.119-75.82-45.214l1.425.191c-32.221 13.366-58.613 24.324-76.992 31.718a7459.791 7459.791 0 0 1-21.133 8.474c-4.899 1.953-7.329 2.787-7.292 2.502z" fill="#E7EAF3"/><path d="M534.534 764.203c-.607.208-2.276-11.32-4.827-29.344-2.229-18.271-5.265-43.607-8.247-71.544-.576-4.426-.829-9.098-1.443-13.238.495.646.705 1.254 1.237 1.615-21.528-12.737-40.318-24.238-53.707-32.697-13.389-8.459-21.415-13.591-21.055-14.123.36-.531 8.747 4.07 22.819 11.75 13.787 7.643 32.938 18.612 54.466 31.349l1.065.722.135 1.178c.613 4.14.866 8.812 1.442 13.238 2.983 27.937 5.449 53.197 6.784 71.638 1.373 18.156 1.902 29.532 1.331 29.456z" fill="#E7EAF3"/><path d="M575.73 629.574c28.909-12.297 51.941-23.216 51.444-24.388-.498-1.173-24.337 7.845-53.246 20.142-28.909 12.296-51.941 23.215-51.443 24.388.497 1.173 24.336-7.845 53.245-20.142zM381.04 137.11c.283.577-6.928 5.42-18.749 12.534-11.823 7.401-28.544 17.072-47.28 27.593-18.449 10.523-35.455 19.905-47.847 26.44-12.392 6.535-20.172 10.512-20.456 9.935-.284-.577 6.928-5.42 18.749-12.534 11.823-7.401 28.543-17.072 47.28-27.593 18.449-10.523 35.454-19.905 47.847-26.44 12.392-6.535 20.172-10.512 20.456-9.935z" fill="#E7EAF3"/><g opacity=".87"><g opacity=".87"><path opacity=".87" d="M589.963 348.369l28.053 113.178-100.061 59.151-28.34-113.18 100.348-59.149z" fill="#E7EAF3"/><path opacity=".87" d="M517.982 520.726l-83.407-34.472-28.338-113.467 83.405 34.759 28.34 113.18zM489.653 407.503l-83.388-34.748 100.04-59.133 83.675 34.75-100.327 59.131z" fill="#E7EAF3"/></g><path opacity=".87" d="M589.973 348.366l-83.674-34.754-100.047 59.164 28.321 113.468 83.388 34.464 100.048-59.164-28.036-113.178z" fill="#E7EAF3"/></g><path d="M462.091 449.923c.283.577-6.063 4.85-16.731 11.396-10.669 6.546-25.372 15.08-41.803 24.465-16.431 9.386-31.419 17.63-42.37 23.312-10.95 5.681-17.865 9.088-18.149 8.511-.284-.576 6.062-4.85 16.731-11.396 10.669-6.546 25.371-15.08 41.803-24.465 16.431-9.385 31.419-17.629 42.369-23.311 10.951-5.682 17.866-9.089 18.15-8.512zM757.375 586.648c.283.577-6.35 4.848-17.308 11.68-10.957 6.832-26.236 15.65-43.246 25.606-17.007 9.67-32.573 18.485-44.1 24.451-11.527 5.966-18.729 9.371-19.015 9.081-.283-.577 6.35-4.848 17.308-11.68 10.957-6.832 26.236-15.649 43.533-25.604 17.007-9.669 32.573-18.485 44.1-24.451 10.954-6.257 18.157-9.662 18.728-9.083zM497.949 367.033c-.576.284-3.387-9.798-7.598-25.641-4.209-16.131-9.53-38.308-15.411-62.788-5.879-24.769-10.625-46.942-13.973-63.067-3.347-16.125-5.296-26.202-4.432-26.485.576-.284 3.387 9.799 7.598 25.642 4.209 16.131 9.53 38.308 15.411 62.788 5.881 24.481 10.626 46.942 13.973 63.067 3.347 16.125 5.008 26.201 4.432 26.484zM238.259 508.907c-.577.284-3.389-9.512-7.314-25.065a4492.994 4492.994 0 0 1-14.85-60.772c-5.597-23.904-10.347-45.502-13.696-61.339-3.349-15.838-5.012-25.626-4.438-25.622.577-.284 3.389 9.511 7.314 25.065a3739.477 3739.477 0 0 1 14.848 61.059c5.597 23.904 10.347 45.502 13.696 61.339 3.351 15.55 5.014 25.338 4.44 25.335zM184.001 494.002s-80.002-30.504-80.92-27.444c-.918 3.06 80.92 27.444 80.92 27.444zM955.502 339s5.497-48.999 2.997-50c-2.5-1-2.997 50-2.997 50zM50 522c-.999-.5 13.999-46.999 16.499-47.999C65.999 476.501 51 522.5 50 522zM445.329 662.836c-.153.624-9.463-3.52-23.899-10.514-37.62-18.225-74.991-36.976-111.877-56.648-14.284-7.618-22.85-12.637-22.478-13.075.153-.624 9.463 3.52 23.899 10.514 37.702 18.265 75.131 37.12 112.097 56.835 14.064 7.431 22.63 12.451 22.258 12.888zM705.227 205.66c-.114.632-9.662-2.932-24.501-9.025-38.67-15.877-152.39-51.76-190.417-69.127-14.725-6.725-23.583-11.208-23.239-11.668.114-.632 9.662 2.932 24.501 9.025 38.753 15.912 152.539 51.895 190.647 69.299 14.495 6.553 23.353 11.036 23.009 11.496zM841.399 457.707c-1.164 12.013-34.967-134.308-34.967-134.308-4.377-16.581-5.717-26.447-5.089-26.382.659-.234 3.483 9.444 8.291 26.11 0 0 32.928 122.567 31.765 134.58zM791.615 486.78c-.577.284-3.392-8.936-7.036-23.625-3.931-14.691-8.975-35.141-14.294-57.605-5.319-22.464-9.787-43.197-12.856-57.883-3.067-14.973-4.734-24.186-4.159-24.182.576-.284 3.392 8.936 7.035 23.625 3.931 14.691 8.975 35.141 14.294 57.605 5.319 22.464 9.787 43.197 12.856 57.883 3.069 14.686 4.736 23.898 4.16 24.182zM702.206 498.583c-.291.573-8.603-2.355-22.356-7.905-13.468-5.261-32.09-13.142-52.43-21.897-20.34-8.755-38.96-16.923-52.135-23.045-13.175-6.121-21.192-10.198-21.189-10.773.291-.573 8.603 2.355 22.356 7.905 13.468 5.261 32.09 13.142 52.717 21.899 20.34 8.754 38.96 16.923 52.135 23.045 13.175 6.121 21.192 10.197 20.902 10.771z" fill="#E7EAF3"/><path d="M553.784 439.563a4.31 4.31 0 0 0 4.335-4.286 4.311 4.311 0 0 0-4.281-4.341 4.31 4.31 0 0 0-4.336 4.286 4.313 4.313 0 0 0 4.282 4.341zM497.913 371.346a4.31 4.31 0 0 0 4.335-4.287 4.31 4.31 0 0 0-4.281-4.34 4.31 4.31 0 0 0-4.336 4.286 4.313 4.313 0 0 0 4.282 4.341zM462.063 454.231a4.31 4.31 0 0 0 4.336-4.286 4.313 4.313 0 0 0-4.282-4.341 4.31 4.31 0 0 0-4.335 4.286 4.311 4.311 0 0 0 4.281 4.341zM238.224 513.219a4.31 4.31 0 0 0 4.335-4.286 4.312 4.312 0 0 0-4.282-4.341 4.31 4.31 0 0 0-4.335 4.286 4.311 4.311 0 0 0 4.282 4.341zM791.58 491.092a4.31 4.31 0 0 0 4.335-4.286 4.311 4.311 0 0 0-4.281-4.341 4.31 4.31 0 0 0-4.336 4.286 4.313 4.313 0 0 0 4.282 4.341zM381.003 142.854a4.31 4.31 0 0 0 4.335-4.286 4.311 4.311 0 0 0-4.282-4.341 4.31 4.31 0 0 0-4.335 4.286 4.312 4.312 0 0 0 4.282 4.341zM757.348 590.955a4.31 4.31 0 0 0 4.335-4.286 4.312 4.312 0 0 0-4.282-4.341 4.31 4.31 0 0 0-4.335 4.286 4.311 4.311 0 0 0 4.282 4.341zM471.308 122.654a4.31 4.31 0 0 0 4.336-4.286 4.313 4.313 0 0 0-4.282-4.341 4.31 4.31 0 0 0-4.335 4.286 4.311 4.311 0 0 0 4.281 4.341zM78.375 201.514c0-.287 2.3-1.721 6.615-4.588 4.313-2.868 10.927-6.881 19.553-12.041 16.966-10.32 41.408-24.939 71.313-42.999l.863-.574.861.289c23.825 10.109 51.381 21.663 81.233 34.371l.861.289.285 1.151c8.271 34.521 17.397 72.207 26.808 111.907l.284 1.726-1.438.86c-34.792 20.351-67.86 39.842-98.052 57.614l-.863.574-.861-.29c-29.852-12.995-57.407-24.836-81.232-34.945l-.861-.289-.286-.863c-7.983-34.521-14.541-62.426-18.816-81.987-2.281-9.781-3.704-17.26-4.844-22.438-.853-5.178-1.423-7.767-1.423-7.767.287.001.857 2.59 2.284 7.768a686.29 686.29 0 0 1 5.707 22.152c4.85 19.275 11.695 47.18 20.254 81.415-.287-.288-.573-.864-.86-1.152 23.824 10.109 51.38 21.662 81.52 34.371l-2.011-.004c30.193-18.059 63.547-37.55 98.053-57.902-.289.862-.578 1.725-1.154 2.586-9.41-39.699-18.25-77.385-26.52-111.907.286.576.86.865 1.146 1.44-29.851-12.995-57.407-24.836-80.944-34.945l1.436.003c-30.191 17.484-54.92 31.816-72.172 41.56a7629.337 7629.337 0 0 1-19.84 11.177c-4.312 2.293-6.612 3.439-6.9 3.438z" fill="#E7EAF3"/><path d="M186.417 348.087c-.575.286-3.715-10.934-8.568-28.484-4.566-17.837-10.842-42.579-17.402-69.909-1.141-4.315-1.995-8.918-3.137-12.946.573.576.859 1.152 1.433 1.441-22.963-9.82-43.056-18.772-57.407-25.413-14.351-6.64-22.962-10.682-22.674-11.257.288-.574 9.187 2.893 24.115 8.672 14.64 5.779 35.021 14.156 57.984 23.976l1.148.577.286 1.151c1.142 4.028 1.995 8.63 3.137 12.945 6.56 27.331 12.262 52.071 15.965 70.194 3.704 17.548 5.695 28.766 5.12 29.053z" fill="#E7EAF3"/><path d="M210.009 209.177c27.066-15.954 48.485-29.776 47.841-30.871-.644-1.095-23.107 10.951-50.173 26.905-27.066 15.955-48.485 29.776-47.841 30.871.644 1.095 23.107-10.951 50.173-26.905zM686.205 174.238c.018-.287 2.402-1.576 6.882-4.172 4.481-2.597 11.328-6.196 20.254-10.815 17.564-9.257 42.854-22.346 73.807-38.532l.897-.519.842.341c23.182 11.544 50.004 24.759 79.048 39.265l.843.342.215 1.165c6.178 34.948 13.019 73.105 20.022 113.289l.18 1.739-1.487.77c-35.972 18.173-70.17 35.594-101.393 51.475l-.896.519-.842-.341c-29.027-14.793-55.831-28.295-79.013-39.839l-.842-.341-.234-.879c-5.89-34.93-10.757-63.171-13.846-82.949-1.688-9.898-2.658-17.446-3.484-22.682-.827-5.236-.953-7.836-.953-7.836.287.018.7 2.636 1.813 7.89a685.468 685.468 0 0 1 4.363 22.45c3.681 19.527 8.834 47.787 15.316 82.466-.269-.305-.52-.897-.789-1.202 23.182 11.545 50.003 24.759 79.335 39.284l-2.008-.127c31.24-16.168 65.725-33.571 101.41-51.762-.34.842-.681 1.685-1.308 2.509-7.003-40.183-13.558-78.323-19.735-113.271.251.592.807.915 1.058 1.507-29.027-14.793-55.83-28.295-78.726-39.821l1.435.091c-31.205 15.594-56.764 28.378-74.58 37.043a7715.868 7715.868 0 0 1-20.486 9.936c-4.445 2.023-7.098 3.007-7.098 3.007z" fill="#E7EAF3"/><path d="M785.277 327.133c-.591.251-3.051-11.137-6.84-28.946-3.483-18.077-8.26-43.148-13.163-70.82-.88-4.376-1.455-9.02-2.353-13.109.538.61.789 1.202 1.345 1.525-22.343-11.205-41.871-21.368-55.805-28.873-13.933-7.505-22.289-12.065-21.967-12.621.323-.555 9.002 3.449 23.562 10.13 14.274 6.662 34.125 16.27 56.468 27.474l1.112.647.215 1.165c.898 4.089 1.473 8.734 2.353 13.11 4.903 27.671 9.106 52.706 11.711 71.016 2.641 17.736 3.954 29.052 3.362 29.302z" fill="#E7EAF3"/><path d="M817.225 189.889c27.988-14.278 50.209-26.772 49.632-27.906-.577-1.133-23.734 9.523-51.721 23.801-27.988 14.278-50.209 26.772-49.632 27.906.577 1.133 23.733-9.523 51.721-23.801z" fill="#E7EAF3"/><g opacity=".87"><path opacity=".87" d="M500.031 32.887l28.309 113.191-100.046 59.182-28.309-113.192 100.046-59.181z" fill="#E7EAF3"/><path opacity=".87" d="M428.301 205.266l-83.663-34.749-28.31-113.191 83.663 34.749 28.31 113.191z" fill="#D2D6E7"/><path opacity=".87" d="M399.993 92.066l-83.66-34.747L416.662-1.856l83.373 34.744-100.042 59.178z" fill="#F9FAFC"/><path opacity=".87" d="M879.841 477.848l28.31 113.192-100.333 59.179-28.31-113.192 100.333-59.179z" fill="#E7EAF3"/><path opacity=".87" d="M807.824 650.225l-83.376-34.746-28.309-113.192 83.375 34.747 28.31 113.191z" fill="#D2D6E7"/><path opacity=".87" d="M779.517 537.024l-83.372-34.744 100.042-59.178 83.659 34.747-100.329 59.175z" fill="#F9FAFC"/></g><g opacity=".87"><path opacity=".87" d="M335.143 493.42l28.317 113.188-100.336 59.172-28.031-113.187 100.05-59.173z" fill="#E7EAF3"/><path opacity=".87" d="M263.135 665.792l-83.383-34.75-28.317-113.189 83.67 34.752 28.03 113.187z" fill="#D2D6E7"/><path opacity=".87" d="M235.109 552.588l-83.663-34.747 100.328-59.165 83.376 34.746-100.041 59.166z" fill="#F9FAFC"/></g></g></svg>