<svg xmlns="http://www.w3.org/2000/svg" width="27" height="24" fill="none">
  <path fill="#505573" fill-rule="evenodd" d="M7 .9v8.2h2V.9H7zM6.5 0c-.28 0-.5.2-.5.45v9.1c0 .25.22.45.5.45h3c.28 0 .5-.2.5-.45V.45C10 .2 9.78 0 9.5 0h-3zM21 1.82h-2v7.27h2V1.82zM18.5.9c-.28 0-.5.2-.5.45v8.19c0 .25.22.45.5.45h3c.28 0 .5-.2.5-.45V1.36c0-.25-.22-.45-.5-.45h-3zM13 9.09V5.45h2V9.1h-2zM12 5c0-.25.22-.45.5-.45h3c.28 0 .5.2.5.45v4.55c0 .25-.22.45-.5.45h-3c-.28 0-.5-.2-.5-.45V5z" />
  <path fill="#9FAAC4" fill-rule="evenodd" d="M0 13c0-.28.23-.5.5-.5h5.35c.28 0 .5.22.5.5v.64h2.61c.05 0 .1 0 .15.02l4.36 1.35h3.26c.53 0 .97.16 1.26.49.3.32.38.73.37 1.1l-.06.39a89.82 89.82 0 014.75-1.2c1.4-.3 2.44.14 2.82.99.35.8 0 1.78-.91 2.15l-10.23 5.02a.5.5 0 01-.36.03l-6.81-2.04h-1.2v.42a.5.5 0 01-.5.5H.5a.5.5 0 01-.5-.5V13zm6.35 7.94h1.28l.14.02 6.7 2c3.33-1.63 6.58-3.21 10.1-4.95.4-.16.5-.54.38-.83-.11-.25-.54-.65-1.69-.41l-2.21.53a63.78 63.78 0 00-3.93 1.09c-1.28.42-2.22.66-3.18.75-.96.1-1.93.02-3.27-.17a.5.5 0 01.13-.99c1.33.18 2.2.24 3.05.17.85-.08 1.7-.3 2.97-.72l.07-.02a.74.74 0 00.29-.3c.1-.17.17-.38.18-.56 0-.19-.04-.31-.1-.38-.06-.06-.2-.16-.53-.16H13.4a.5.5 0 01-.15-.02L8.9 14.64H6.35v6.3zm-1 .92H1V13.5h4.35v8.36z" />
</svg>
