<svg xmlns="http://www.w3.org/2000/svg" width="20" height="20" fill="none">
  <path fill="#9FAAC4" fill-rule="evenodd" d="M15.01 1h-14v11.5h5.5a1 1 0 011 1V19H15v-6.21l1 .77V19a1 1 0 01-1 1H7.02a1 1 0 01-.7-.3l-6.03-6a1 1 0 01-.29-.71V1a1 1 0 011-1h14.01a1 1 0 011 1v7.5l-1-.76V1zm-8.5 17.49l-5-4.99h5v4.99z"/>
  <path fill="#505573" d="M7.7 5.74a1 1 0 011.02-1.35l2.8.23a1 1 0 01.53.2l6.89 5.3c.58.44.95 1.01 1.04 1.66a2.4 2.4 0 01-.58 1.87 2.52 2.52 0 01-3.5.46L9 8.78a1 1 0 01-.33-.45l-.97-2.6zm3.74-.13l-2.8-.22L9.6 8l6.9 5.31c.68.5 1.56.38 2.11-.29.32-.37.41-.76.37-1.1-.05-.33-.25-.69-.65-.98l-6.9-5.32z" />
</svg>
