<svg xmlns="http://www.w3.org/2000/svg" width="24" height="22" fill="none">
  <path fill="#9FAAC4" fill-rule="evenodd" d="M1 1h22v3H1V1zM0 5V1a1 1 0 011-1h22a1 1 0 011 1v20a1 1 0 01-1 1H1a1 1 0 01-1-1V5zm23 0v16H1V5h22z" />
  <path fill="#505573" d="M10.7 16.97c-.25-.11-.39-.43-.3-.72l2.26-6.88c.09-.3.38-.44.64-.34.26.1.39.43.3.72l-2.25 6.88c-.1.3-.38.44-.64.34zm4.47-7.78a.5.5 0 00-.04.7l2.71 3.1-2.71 3.1a.5.5 0 10.75.66l3-3.42a.5.5 0 000-.66l-3-3.43a.5.5 0 00-.7-.05zm-6.3.7a.5.5 0 10-.74-.65l-3 3.43a.5.5 0 000 .66l3 3.42a.5.5 0 10.75-.65L6.16 13l2.72-3.1z"/>
</svg>
