<svg xmlns="http://www.w3.org/2000/svg" width="24" height="24" fill="none">
  <path fill="#76E5C2" d="M1 .76a.5.5 0 00-1 0v22.28c0 .52.4.96.95.96h22.3a.5.5 0 000-1H1V.76z"/>
  <path fill="#76E5C2" d="M22.96 1.69a.5.5 0 00-.92-.38l-4.38 10.84-8.46-3.6a.5.5 0 00-.65.24l-4.5 9.5a.5.5 0 10.9.43l4.3-9.07 8.49 3.62a.5.5 0 00.66-.27L22.96 1.7z"/>
  <path fill="#14C393" d="M24 1.5a1.5 1.5 0 11-3 0 1.5 1.5 0 013 0zM19.27 12.34a1.5 1.5 0 11-3 0 1.5 1.5 0 013 0zM9.41 10.26a1.5 1.5 0 100-3 1.5 1.5 0 000 3z"/>
</svg>
