<svg xmlns="http://www.w3.org/2000/svg" width="28" height="18" fill="none">
  <path fill="#505573" fill-rule="evenodd" d="M14 3.24A2.8 2.8 0 0116.85 6 2.8 2.8 0 0114 8.76 2.8 2.8 0 0111.15 6 2.8 2.8 0 0114 3.24zm0-1A3.8 3.8 0 0117.85 6 3.8 3.8 0 0114 9.76 3.8 3.8 0 0110.15 6 3.8 3.8 0 0114 2.24zm0 9.19c2.25 0 4.3 1.45 5.34 3.7A8.5 8.5 0 0114 17a8.5 8.5 0 01-5.34-1.86c1.05-2.26 3.09-3.71 5.34-3.71zm0-1c2.95 0 5.48 2.06 6.53 5C18.84 17.01 16.54 18 14 18a9.49 9.49 0 01-6.53-2.58c1.05-2.93 3.58-5 6.53-5z"/>
  <path fill="#9FAAC4" fill-rule="evenodd" d="M7.52 3.08C7.52 1.96 6.57 1 5.36 1 4.14 1 3.2 1.96 3.2 3.08c0 1.13.94 2.09 2.16 2.09 1.21 0 2.16-.96 2.16-2.09zm1 0C8.52 1.38 7.1 0 5.36 0A3.12 3.12 0 002.2 3.08c0 1.7 1.41 3.09 3.16 3.09a3.12 3.12 0 003.16-3.09zm-.48 5.6a4.3 4.3 0 00-2.68-.97 4.72 4.72 0 00-4.15 2.81 6.8 6.8 0 004.53 1.4 10.18 10.18 0 012.3-3.24zm.78-.65A5.32 5.32 0 005.36 6.7c-2.42 0-4.5 1.7-5.36 4.1a7.78 7.78 0 006.43 2.04 9.23 9.23 0 013.1-4.1c-.21-.27-.45-.5-.7-.72zM24.8 3.08c0-1.12-.94-2.08-2.16-2.08-1.21 0-2.16.96-2.16 2.08 0 1.13.95 2.09 2.16 2.09 1.22 0 2.16-.96 2.16-2.09zm1 0c0-1.7-1.41-3.08-3.16-3.08a3.12 3.12 0 00-3.16 3.08c0 1.7 1.42 3.09 3.16 3.09a3.12 3.12 0 003.16-3.09zm1 7.44a4.72 4.72 0 00-4.16-2.8 4.3 4.3 0 00-2.68.96c.97.9 1.75 2.01 2.3 3.23a6.98 6.98 0 004.54-1.39zm1.2.29c-.86-2.4-2.94-4.1-5.36-4.1a5.32 5.32 0 00-4.18 2.03 9.23 9.23 0 013.1 4.1 7.91 7.91 0 006.44-2.03z" />
</svg>
