<svg xmlns="http://www.w3.org/2000/svg" width="25" height="24" fill="none">
  <path fill="#9FAAC4" fill-rule="evenodd" d="M23.5 12a11 11 0 11-22 0 11 11 0 0122 0zm1 0a12 12 0 11-24 0 12 12 0 0124 0zm-12-7.5a7.5 7.5 0 00-4.37 13.6.5.5 0 01-.59.8A8.49 8.49 0 1121 12a.5.5 0 01-1 0 7.5 7.5 0 00-7.5-7.5zm-2.27 10.83a.5.5 0 00-.04-.7A3.49 3.49 0 0112.5 8.5 3.5 3.5 0 0116 12a.5.5 0 001 0 4.48 4.48 0 00-4.5-4.5 4.5 4.5 0 00-2.98 7.87c.21.19.53.17.7-.04z" />
  <path fill="#505573" d="M7.05 6.84A7.5 7.5 0 0120 12a.5.5 0 001 0 8.5 8.5 0 00-16.95-.93 1.5 1.5 0 101 .04 7.44 7.44 0 012-4.27z"/>
  <path fill="#505573" d="M17 12a.5.5 0 11-1 0 3.48 3.48 0 00-3.5-3.5 1.5 1.5 0 11-.37-.99l.37-.01A4.5 4.5 0 0117 12z"/>
  <path fill="#9FAAC4" d="M12.5 12.5c0-.28.22-.5.5-.5h11a.5.5 0 110 1H13a.5.5 0 01-.5-.5z" />
</svg>
