<svg width="18" height="18" viewBox="0 0 18 18" fill="none" xmlns="http://www.w3.org/2000/svg">
<path d="M2.32322 2.32322C2.37011 2.27634 2.4337 2.25 2.5 2.25H6C6.41421 2.25 6.75 1.91421 6.75 1.5C6.75 1.08579 6.41421 0.75 6 0.75H2.5C2.03587 0.75 1.59075 0.934374 1.26256 1.26256C0.934374 1.59075 0.75 2.03587 0.75 2.5V6C0.75 6.41421 1.08579 6.75 1.5 6.75C1.91421 6.75 2.25 6.41421 2.25 6V2.5C2.25 2.4337 2.27634 2.37011 2.32322 2.32322Z" fill="#111111"/>
<path d="M12 0.75C11.5858 0.75 11.25 1.08579 11.25 1.5C11.25 1.91421 11.5858 2.25 12 2.25H15.5C15.5663 2.25 15.6299 2.27634 15.6768 2.32322C15.7237 2.37011 15.75 2.4337 15.75 2.5V6C15.75 6.41421 16.0858 6.75 16.5 6.75C16.9142 6.75 17.25 6.41421 17.25 6V2.5C17.25 2.03587 17.0656 1.59075 16.7374 1.26256C16.4092 0.934375 15.9641 0.75 15.5 0.75H12Z" fill="#111111"/>
<path d="M16.5 11.25C16.9142 11.25 17.25 11.5858 17.25 12V15.5C17.25 15.9641 17.0656 16.4092 16.7374 16.7374C16.4092 17.0656 15.9641 17.25 15.5 17.25H12C11.5858 17.25 11.25 16.9142 11.25 16.5C11.25 16.0858 11.5858 15.75 12 15.75H15.5C15.5663 15.75 15.6299 15.7237 15.6768 15.6768C15.7237 15.6299 15.75 15.5663 15.75 15.5V12C15.75 11.5858 16.0858 11.25 16.5 11.25Z" fill="#111111"/>
<path d="M2.25 12C2.25 11.5858 1.91421 11.25 1.5 11.25C1.08579 11.25 0.75 11.5858 0.75 12V15.5C0.75 15.9641 0.934375 16.4092 1.26256 16.7374C1.59075 17.0656 2.03587 17.25 2.5 17.25H6C6.41421 17.25 6.75 16.9142 6.75 16.5C6.75 16.0858 6.41421 15.75 6 15.75H2.5C2.4337 15.75 2.37011 15.7237 2.32322 15.6768C2.27634 15.6299 2.25 15.5663 2.25 15.5V12Z" fill="#111111"/>
</svg>
