<svg width="18" height="18" fill="none" xmlns="http://www.w3.org/2000/svg"><path d="M2.323 2.323A.25.25 0 0 1 2.5 2.25H6a.75.75 0 0 0 0-1.5H2.5A1.75 1.75 0 0 0 .75 2.5V6a.75.75 0 0 0 1.5 0V2.5a.25.25 0 0 1 .073-.177zM12 .75a.75.75 0 0 0 0 1.5h3.5a.25.25 0 0 1 .25.25V6a.75.75 0 0 0 1.5 0V2.5A1.75 1.75 0 0 0 15.5.75H12zM16.5 11.25a.75.75 0 0 1 .75.75v3.5a1.75 1.75 0 0 1-1.75 1.75H12a.75.75 0 0 1 0-1.5h3.5a.25.25 0 0 0 .25-.25V12a.75.75 0 0 1 .75-.75zM2.25 12a.75.75 0 0 0-1.5 0v3.5a1.75 1.75 0 0 0 1.75 1.75H6a.75.75 0 0 0 0-1.5H2.5a.25.25 0 0 1-.25-.25V12z" fill="#111"/></svg>