<svg width="135" height="40" viewBox="0 0 135 40" fill="none" xmlns="http://www.w3.org/2000/svg">
  <path d="M130 40H5C2.2 40 0 37.8 0 35V5C0 2.2 2.2 0 5 0H130C132.8 0 135 2.2 135 5V35C135 37.7 132.8 40 130 40Z" fill="black"/>
  <path d="M130 0.8C132.3 0.8 134.2 2.7 134.2 5V35C134.2 37.3 132.3 39.2 130 39.2H5C2.7 39.2 0.8 37.3 0.8 35V5C0.8 2.7 2.7 0.8 5 0.8H130ZM130 0H5C2.2 0 0 2.2 0 5V35C0 37.8 2.2 40 5 40H130C132.8 40 135 37.8 135 35V5C135 2.3 132.8 0 130 0Z" fill="#A6A6A6"/>
  <path d="M47.3999 10.2C47.3999 11 47.1999 11.7 46.6999 12.2C46.0999 12.8 45.3999 13.1 44.4999 13.1C43.5999 13.1 42.8999 12.8 42.2999 12.2C41.6999 11.6 41.3999 10.9 41.3999 9.99999C41.3999 9.09999 41.6999 8.39999 42.2999 7.79999C42.8999 7.19999 43.5999 6.89999 44.4999 6.89999C44.8999 6.89999 45.2999 7 45.6999 7.2C46.0999 7.4 46.3999 7.59999 46.5999 7.89999L46.0999 8.39999C45.6999 7.89999 45.1999 7.7 44.4999 7.7C43.8999 7.7 43.2999 7.89999 42.8999 8.39999C42.3999 8.79999 42.1999 9.39999 42.1999 10.1C42.1999 10.8 42.3999 11.4 42.8999 11.8C43.3999 12.2 43.8999 12.5 44.4999 12.5C45.1999 12.5 45.6999 12.3 46.1999 11.8C46.4999 11.5 46.6999 11.1 46.6999 10.6H44.4999V9.89999H47.3999C47.3999 9.89999 47.3999 10.1 47.3999 10.2Z" fill="white" stroke="white" stroke-width="0.2" stroke-miterlimit="10"/>
  <path d="M52 7.7H49.3V9.6H51.8V10.3H49.3V12.2H52V13H48.5V7H52V7.7Z" fill="white" stroke="white" stroke-width="0.2" stroke-miterlimit="10"/>
  <path d="M55.2998 13H54.4998V7.7H52.7998V7H56.9998V7.7H55.2998V13Z" fill="white" stroke="white" stroke-width="0.2" stroke-miterlimit="10"/>
  <path d="M59.8999 13V7H60.6999V13H59.8999Z" fill="white" stroke="white" stroke-width="0.2" stroke-miterlimit="10"/>
  <path d="M64.0999 13H63.2999V7.7H61.5999V7H65.6999V7.7H63.9999V13H64.0999Z" fill="white" stroke="white" stroke-width="0.2" stroke-miterlimit="10"/>
  <path d="M73.5998 12.2C72.9998 12.8 72.2998 13.1 71.3998 13.1C70.4998 13.1 69.7998 12.8 69.1998 12.2C68.5998 11.6 68.2998 10.9 68.2998 9.99999C68.2998 9.09999 68.5998 8.39999 69.1998 7.79999C69.7998 7.19999 70.4998 6.89999 71.3998 6.89999C72.2998 6.89999 72.9998 7.19999 73.5998 7.79999C74.1998 8.39999 74.4998 9.09999 74.4998 9.99999C74.4998 10.9 74.1998 11.6 73.5998 12.2ZM69.7998 11.7C70.1998 12.1 70.7998 12.4 71.3998 12.4C71.9998 12.4 72.5998 12.2 72.9998 11.7C73.3998 11.3 73.6998 10.7 73.6998 9.99999C73.6998 9.29999 73.4998 8.69999 72.9998 8.29999C72.5998 7.89999 71.9998 7.59999 71.3998 7.59999C70.7998 7.59999 70.1998 7.79999 69.7998 8.29999C69.3998 8.69999 69.0998 9.29999 69.0998 9.99999C69.0998 10.7 69.2998 11.3 69.7998 11.7Z" fill="white" stroke="white" stroke-width="0.2" stroke-miterlimit="10"/>
  <path d="M75.5999 13V7H76.4999L79.3999 11.7V10.5V7H80.1999V13H79.3999L76.2999 8.1V9.3V13H75.5999Z" fill="white" stroke="white" stroke-width="0.2" stroke-miterlimit="10"/>
  <path d="M68.1001 21.8C65.7001 21.8 63.8001 23.6 63.8001 26.1C63.8001 28.5 65.7001 30.4 68.1001 30.4C70.5001 30.4 72.4001 28.6 72.4001 26.1C72.4001 23.5 70.5001 21.8 68.1001 21.8ZM68.1001 28.6C66.8001 28.6 65.7001 27.5 65.7001 26C65.7001 24.5 66.8001 23.4 68.1001 23.4C69.4001 23.4 70.5001 24.4 70.5001 26C70.5001 27.5 69.4001 28.6 68.1001 28.6ZM58.8001 21.8C56.4001 21.8 54.5001 23.6 54.5001 26.1C54.5001 28.5 56.4001 30.4 58.8001 30.4C61.2001 30.4 63.1001 28.6 63.1001 26.1C63.1001 23.5 61.2001 21.8 58.8001 21.8ZM58.8001 28.6C57.5001 28.6 56.4001 27.5 56.4001 26C56.4001 24.5 57.5001 23.4 58.8001 23.4C60.1001 23.4 61.2001 24.4 61.2001 26C61.2001 27.5 60.1001 28.6 58.8001 28.6ZM47.7001 23.1V24.9H52.0001C51.9001 25.9 51.5001 26.7 51.0001 27.2C50.4001 27.8 49.4001 28.5 47.7001 28.5C45.0001 28.5 43.0001 26.4 43.0001 23.7C43.0001 21 45.1001 18.9 47.7001 18.9C49.1001 18.9 50.2001 19.5 51.0001 20.2L52.3001 18.9C51.2001 17.9 49.8001 17.1 47.8001 17.1C44.2001 17.1 41.1001 20.1 41.1001 23.7C41.1001 27.3 44.2001 30.3 47.8001 30.3C49.8001 30.3 51.2001 29.7 52.4001 28.4C53.6001 27.2 54.0001 25.5 54.0001 24.2C54.0001 23.8 54.0001 23.4 53.9001 23.1H47.7001ZM93.1001 24.5C92.7001 23.5 91.7001 21.8 89.5001 21.8C87.3001 21.8 85.5001 23.5 85.5001 26.1C85.5001 28.5 87.3001 30.4 89.7001 30.4C91.6001 30.4 92.8001 29.2 93.2001 28.5L91.8001 27.5C91.3001 28.2 90.7001 28.7 89.7001 28.7C88.7001 28.7 88.1001 28.3 87.6001 27.4L93.3001 25L93.1001 24.5ZM87.3001 25.9C87.3001 24.3 88.6001 23.4 89.5001 23.4C90.2001 23.4 90.9001 23.8 91.1001 24.3L87.3001 25.9ZM82.6001 30H84.5001V17.5H82.6001V30ZM79.6001 22.7C79.1001 22.2 78.3001 21.7 77.3001 21.7C75.2001 21.7 73.2001 23.6 73.2001 26C73.2001 28.4 75.1001 30.2 77.3001 30.2C78.3001 30.2 79.1001 29.7 79.5001 29.2H79.6001V29.8C79.6001 31.4 78.7001 32.3 77.3001 32.3C76.2001 32.3 75.4001 31.5 75.2001 30.8L73.6001 31.5C74.1001 32.6 75.3001 34 77.4001 34C79.6001 34 81.4001 32.7 81.4001 29.6V22H79.6001V22.7ZM77.4001 28.6C76.1001 28.6 75.0001 27.5 75.0001 26C75.0001 24.5 76.1001 23.4 77.4001 23.4C78.7001 23.4 79.7001 24.5 79.7001 26C79.7001 27.5 78.7001 28.6 77.4001 28.6ZM101.8 17.5H97.3001V30H99.2001V25.3H101.8C103.9 25.3 105.9 23.8 105.9 21.4C105.9 19 103.9 17.5 101.8 17.5ZM101.9 23.5H99.2001V19.2H101.9C103.3 19.2 104.1 20.4 104.1 21.3C104 22.4 103.2 23.5 101.9 23.5ZM113.4 21.7C112 21.7 110.6 22.3 110.1 23.6L111.8 24.3C112.2 23.6 112.8 23.4 113.5 23.4C114.5 23.4 115.4 24 115.5 25V25.1C115.2 24.9 114.4 24.6 113.6 24.6C111.8 24.6 110 25.6 110 27.4C110 29.1 111.5 30.2 113.1 30.2C114.4 30.2 115 29.6 115.5 29H115.6V30H117.4V25.2C117.2 23 115.5 21.7 113.4 21.7ZM113.2 28.6C112.6 28.6 111.7 28.3 111.7 27.5C111.7 26.5 112.8 26.2 113.7 26.2C114.5 26.2 114.9 26.4 115.4 26.6C115.2 27.8 114.2 28.6 113.2 28.6ZM123.7 22L121.6 27.4H121.5L119.3 22H117.3L120.6 29.6L118.7 33.8H120.6L125.7 22H123.7ZM106.9 30H108.8V17.5H106.9V30Z" fill="white"/>
  <path d="M10.3999 7.5C10.0999 7.8 9.8999 8.3 9.8999 8.9V31C9.8999 31.6 10.0999 32.1 10.3999 32.4L10.4999 32.5L22.8999 20.1V20V19.9L10.3999 7.5Z" fill="url(#paint0_linear)"/>
  <path d="M26.9999 24.3L22.8999 20.2V20V19.9L26.9999 15.8L27.0999 15.9L31.9999 18.7C33.3999 19.5 33.3999 20.8 31.9999 21.6L26.9999 24.3Z" fill="url(#paint1_linear)"/>
  <path d="M27.0999 24.2L22.8999 20L10.3999 32.5C10.8999 33 11.5999 33 12.4999 32.6L27.0999 24.2Z" fill="url(#paint2_linear)"/>
  <path d="M27.0999 15.8L12.4999 7.49999C11.5999 6.99999 10.8999 7.09999 10.3999 7.59999L22.8999 20L27.0999 15.8Z" fill="url(#paint3_linear)"/>
  <path opacity="0.2" d="M26.9999 24.1L12.4999 32.3C11.6999 32.8 10.9999 32.7 10.4999 32.3L10.3999 32.4L10.4999 32.5C10.9999 32.9 11.6999 33 12.4999 32.5L26.9999 24.1Z" fill="black"/>
  <path opacity="0.12" d="M10.4 32.3C10.1 32 10 31.5 10 30.9V31C10 31.6 10.2 32.1 10.5 32.4V32.3H10.4Z" fill="black"/>
  <path opacity="0.12" d="M32 21.3L27 24.1L27.1 24.2L32 21.4C32.7 21 33 20.5 33 20C33 20.5 32.6 20.9 32 21.3Z" fill="black"/>
  <path opacity="0.25" d="M12.5 7.6L32 18.7C32.6 19.1 33 19.5 33 20C33 19.5 32.7 19 32 18.6L12.5 7.5C11.1 6.7 10 7.4 10 9V9.1C10 7.5 11.1 6.8 12.5 7.6Z" fill="white"/>
  <defs>
    <linearGradient id="paint0_linear" x1="21.7996" y1="8.7098" x2="5.0172" y2="25.4922" gradientUnits="userSpaceOnUse">
      <stop stop-color="#00A0FF"/>
      <stop offset="0.00657445" stop-color="#00A1FF"/>
      <stop offset="0.2601" stop-color="#00BEFF"/>
      <stop offset="0.5122" stop-color="#00D2FF"/>
      <stop offset="0.7604" stop-color="#00DFFF"/>
      <stop offset="1" stop-color="#00E3FF"/>
    </linearGradient>
    <linearGradient id="paint1_linear" x1="33.8343" y1="20.0015" x2="9.6374" y2="20.0015" gradientUnits="userSpaceOnUse">
      <stop stop-color="#FFE000"/>
      <stop offset="0.4087" stop-color="#FFBD00"/>
      <stop offset="0.7754" stop-color="#FFA500"/>
      <stop offset="1" stop-color="#FF9C00"/>
    </linearGradient>
    <linearGradient id="paint2_linear" x1="24.8269" y1="22.2962" x2="2.0686" y2="45.0544" gradientUnits="userSpaceOnUse">
      <stop stop-color="#FF3A44"/>
      <stop offset="1" stop-color="#C31162"/>
    </linearGradient>
    <linearGradient id="paint3_linear" x1="7.2972" y1="0.17619" x2="17.4598" y2="10.3388" gradientUnits="userSpaceOnUse">
      <stop stop-color="#32A071"/>
      <stop offset="0.0685" stop-color="#2DA771"/>
      <stop offset="0.4762" stop-color="#15CF74"/>
      <stop offset="0.8009" stop-color="#06E775"/>
      <stop offset="1" stop-color="#00F076"/>
    </linearGradient>
  </defs>
</svg>
