<svg width="658" height="400" fill="none" xmlns="http://www.w3.org/2000/svg"><path d="M548 247.633c21.156 0 38.367 17.211 38.367 38.367S569.156 324.367 548 324.367 509.633 307.156 509.633 286s17.211-38.367 38.367-38.367zm0-1.633c-22.091 0-40 17.909-40 40s17.909 40 40 40 40-17.909 40-40-17.909-40-40-40z" fill="url(#paint0_linear)"/><path d="M589.93 190.48c15.338 0 29.799 7.451 41.818 21.545 20.08 23.552 29.996 61.6 24.67 94.677-5.941 36.897-32.711 40.729-63.708 45.165-16.315 2.335-33.188 4.75-48.561 12.169-10.034 4.842-20.52 7.298-31.165 7.298-17.75 0-35.408-6.827-49.724-19.226-13.07-11.317-21.477-25.924-22.492-39.074-2.751-35.699 30.768-56.142 66.253-77.787 14.178-8.647 28.837-17.589 41.358-27.701 14.019-11.324 28-17.066 41.551-17.066zm0-1.644c-13.104 0-27.476 5.227-42.586 17.432-43.519 35.152-112.175 55.507-108.215 106.893 2.113 27.416 34.745 59.816 73.855 59.816 10.321 0 21.1-2.259 31.881-7.461 44.438-21.446 103.874-.771 113.178-58.551 8.549-53.11-21.895-118.129-68.113-118.129z" fill="url(#paint1_linear)"/><path d="M622.305 128.432c23.515 0 45.872 12.05 64.657 34.848 33.673 40.868 49.628 108.036 38.8 163.337-10.764 54.978-50.224 55.995-95.914 57.175-30.684.792-62.413 1.61-89.417 18.6-18.655 11.736-38.59 17.688-59.246 17.688-26.335 0-52.955-9.798-74.957-27.591-9.667-7.818-17.964-16.904-23.993-26.28-5.964-9.273-9.586-18.629-10.474-27.055-2.429-23.052 5.365-42.827 24.527-62.233 17.287-17.507 41.691-32.598 67.526-48.575 29.301-18.118 59.598-36.854 83.63-61.4 25.019-25.555 50.203-38.514 74.858-38.518h.003v.004zm-.009-1.644c-23.301.004-49.091 11.499-76.027 39.012-66.592 68.019-184.624 93.037-176.144 173.53 3.719 35.312 52.777 82.394 111.06 82.394 19.459 0 39.951-5.251 60.123-17.941 66.984-42.143 167.784 16.535 186.067-76.848 16.942-86.52-31.805-200.156-105.079-200.147z" fill="url(#paint2_linear)"/><path d="M677.104 55.787c32.183 0 61.213 18.332 83.949 53.016 23.556 35.931 40.032 89.409 45.209 146.723 5.053 55.959-.998 108.574-16.602 144.354-26.147 59.956-72.649 89.101-142.164 89.101-48.31 0-100.106-13.71-145.804-25.807-2.97-.785-5.913-1.565-8.825-2.333-13.241-3.488-26.463-6.723-39.251-9.852-89.807-21.968-167.367-40.94-178.106-129.302-5.911-48.708 5.163-82.865 34.854-107.491 27.356-22.691 67.97-35.949 114.998-51.299 55.266-18.041 117.904-38.488 177.948-80.007 26.007-17.982 50.834-27.101 73.789-27.103h.005zm-.003-.821c-22.059.002-46.828 8.283-74.256 27.247-162.815 112.58-348.582 71.235-328.149 239.572 12.348 101.597 111.864 111.894 217.962 139.85 47.625 12.548 103.267 28.166 154.838 28.166 59.067 0 112.788-20.504 142.918-89.595C836.16 295.31 795.94 54.962 677.101 54.966z" fill="url(#paint3_linear)"/><path d="M677.104 55.787c32.183 0 61.213 18.332 83.949 53.016 23.556 35.931 40.032 89.409 45.209 146.723 5.053 55.959-.998 108.574-16.602 144.354-26.147 59.956-72.649 89.101-142.164 89.101-48.31 0-100.106-13.71-145.804-25.807-2.97-.785-5.913-1.565-8.825-2.333-13.241-3.488-26.463-6.723-39.251-9.852-89.807-21.968-167.367-40.94-178.106-129.302-5.911-48.708 5.163-82.865 34.854-107.491 27.356-22.691 67.97-35.949 114.998-51.299 55.266-18.041 117.904-38.488 177.948-80.007 26.007-17.982 50.834-27.101 73.789-27.103h.005zm-.003-.821c-22.059.002-46.828 8.283-74.256 27.247-162.815 112.58-348.582 71.235-328.149 239.572 12.348 101.597 111.864 111.894 217.962 139.85 47.625 12.548 103.267 28.166 154.838 28.166 59.067 0 112.788-20.504 142.918-89.595C836.16 295.31 795.94 54.962 677.101 54.966z" fill="url(#paint4_linear)"/><path d="M736.929-23.574c21.475 0 41.43 6.584 59.311 19.568 16.616 12.067 31.563 29.718 44.425 52.464 30.326 53.628 48.443 134.973 49.708 223.173 1.205 84.051-13.124 159.193-38.329 201.001-48.189 79.931-118.099 122.182-202.174 122.182-66.439 0-139.197-27.218-204.874-76.641-48.566-36.545-93.793-54.177-133.695-69.732-68.483-26.697-117.963-45.987-130.404-144.406-20.116-159.128 69.066-178.77 204.062-208.503C463.779 78.172 561.874 56.566 660.238.05c27.283-15.675 53.083-23.624 76.686-23.627h.005v.003zm-.01-1.643c-23.034.002-48.832 7.374-77.502 23.846C396.32 149.793 146.88 48.063 179.264 304.243c19.732 156.094 131.549 115.017 264.742 215.245 63.905 48.088 136.559 76.97 205.862 76.97 77.817 0 151.403-36.425 203.584-122.976 72.156-119.69 48.663-498.712-116.533-498.699z" fill="url(#paint5_linear)"/><path d="M826.974-64.217c111.579 0 158.345 73.958 177.926 136.003 12.77 40.461 18.17 87.808 16.06 140.726-1.97 49.277-10.69 102.068-25.208 152.665-29.998 104.54-81.622 190.548-138.095 230.072-62.858 43.994-126.949 65.38-195.932 65.38-95.457 0-185.214-40.913-272.016-80.478-21.711-9.896-44.161-20.13-65.924-29.315-57.005-24.058-108.778-57.356-149.721-96.294-41.724-39.681-69.94-83.191-81.598-125.83-6.425-23.499-7.776-46.573-4.02-68.577 3.969-23.235 13.669-45.381 28.83-65.821C184.042 104.296 269.728 43.576 386.935 3.225 491.269-32.693 622.497-53.368 812.431-63.81c4.895-.27 9.784-.406 14.53-.406h.013v-.001zm-.01-1.643c-4.77 0-9.651.134-14.62.407C467.803-46.51 253.167 8.337 115.957 193.333c-92.022 124.072 31.938 285.052 207.19 359.015 106.61 44.994 218.219 109.923 338.58 109.923 63.046 0 128.512-17.831 196.876-65.678C1035.66 472.678 1128.72-65.873 826.964-65.86z" fill="url(#paint6_linear)"/><path d="M732.916-161v1.643c73.465 0 149.334 10.276 231.944 31.416 69.34 17.745 123.32 52.002 160.43 101.819 33.56 45.048 52.78 101.77 57.13 168.587 6.91 106.029-25.03 231.636-87.64 344.611-62.64 113.053-147.071 197.289-231.639 231.107-59.185 23.669-115.843 35.174-173.21 35.174-52.894 0-106.499-10.067-163.877-30.775-50.752-18.317-98.098-42.444-143.885-65.776-61.667-31.424-119.911-61.107-179.557-73.206-62.307-12.639-122.906-53.475-170.632-114.984-44.66-57.554-73.847-128.085-80.078-193.506-4.084-42.894 1.965-82.394 17.498-114.227 17.202-35.256 45.422-61.143 83.874-76.938 69.619-28.6 133.765-61.665 195.801-93.643 149.294-76.957 290.31-149.646 483.79-149.659l.051-1.643zm-.052 0c-274.855.018-444.137 146.445-680.216 243.425-210.88 86.629-69.064 458.422 149.636 502.785C350.344 615.244 491.667 755 689.929 755c53.391 0 110.934-10.143 173.822-35.292C1143.63 607.784 1369.78-26.019 965.268-129.533 879.103-151.582 802.609-161.005 732.864-161z" fill="url(#paint7_linear)"/><defs><linearGradient id="paint0_linear" x1="421" y1="32" x2="266" y2="361" gradientUnits="userSpaceOnUse"><stop stop-color="#68DBF4" stop-opacity="0"/><stop offset=".525" stop-color="#68DBF4"/><stop offset="1" stop-color="#68DBF4" stop-opacity="0"/></linearGradient><linearGradient id="paint1_linear" x1="421" y1="32" x2="266" y2="361" gradientUnits="userSpaceOnUse"><stop stop-color="#68DBF4" stop-opacity="0"/><stop offset=".525" stop-color="#68DBF4"/><stop offset="1" stop-color="#68DBF4" stop-opacity="0"/></linearGradient><linearGradient id="paint2_linear" x1="421" y1="32" x2="266" y2="361" gradientUnits="userSpaceOnUse"><stop stop-color="#68DBF4" stop-opacity="0"/><stop offset=".525" stop-color="#68DBF4"/><stop offset="1" stop-color="#68DBF4" stop-opacity="0"/></linearGradient><linearGradient id="paint3_linear" x1="421" y1="32" x2="266" y2="361" gradientUnits="userSpaceOnUse"><stop stop-color="#68DBF4" stop-opacity="0"/><stop offset=".525" stop-color="#68DBF4"/><stop offset="1" stop-color="#68DBF4" stop-opacity="0"/></linearGradient><linearGradient id="paint4_linear" x1="421" y1="32" x2="266" y2="361" gradientUnits="userSpaceOnUse"><stop stop-color="#68DBF4" stop-opacity="0"/><stop offset=".525" stop-color="#68DBF4"/><stop offset="1" stop-color="#68DBF4" stop-opacity="0"/></linearGradient><linearGradient id="paint5_linear" x1="421" y1="32" x2="266" y2="361" gradientUnits="userSpaceOnUse"><stop stop-color="#68DBF4" stop-opacity="0"/><stop offset=".525" stop-color="#68DBF4"/><stop offset="1" stop-color="#68DBF4" stop-opacity="0"/></linearGradient><linearGradient id="paint6_linear" x1="421" y1="32" x2="266" y2="361" gradientUnits="userSpaceOnUse"><stop stop-color="#68DBF4" stop-opacity="0"/><stop offset=".525" stop-color="#68DBF4"/><stop offset="1" stop-color="#68DBF4" stop-opacity="0"/></linearGradient><linearGradient id="paint7_linear" x1="421" y1="32" x2="266" y2="361" gradientUnits="userSpaceOnUse"><stop stop-color="#68DBF4" stop-opacity="0"/><stop offset=".525" stop-color="#68DBF4"/><stop offset="1" stop-color="#68DBF4" stop-opacity="0"/></linearGradient></defs></svg>