<svg width="11" height="7" viewBox="0 0 11 7" fill="none" xmlns="http://www.w3.org/2000/svg">
<path fill-rule="evenodd" clip-rule="evenodd" d="M10.5 2.5006C10.7761 2.5006 11 2.72446 11 3.0006C11 3.27674 10.7761 3.5006 10.5 3.5006L1.90574 3.5006L3.89273 5.11586C4.107 5.29005 4.1395 5.60496 3.96531 5.81923C3.79112 6.0335 3.47621 6.066 3.26194 5.89181L0.184242 3.3899C0.0674456 3.29496 -0.000363488 3.15245 -0.000363481 3.00193C-0.000363475 2.85141 0.0674456 2.70889 0.184242 2.61395L3.26194 0.112038C3.47621 -0.0621493 3.79112 -0.0296523 3.96531 0.184622C4.1395 0.398896 4.107 0.713806 3.89273 0.887994L1.90899 2.5006L10.5 2.5006Z" fill="#7A859E"/>
</svg>
