<svg width="16" height="16" viewBox="0 0 16 16" fill="none" xmlns="http://www.w3.org/2000/svg">
<path fill-rule="evenodd" clip-rule="evenodd" d="M7.05029 9.70023C7.27436 9.86162 7.58684 9.81081 7.74823 9.58674C7.90962 9.36266 7.8588 9.05019 7.63473 8.8888C7.46606 8.76731 7.30637 8.62796 7.15832 8.47064C5.91609 7.15058 5.98746 5.08275 7.31864 3.84997L9.44356 1.88213C10.777 0.647233 12.8684 0.718825 14.1128 2.04116C15.355 3.36121 15.2836 5.42905 13.9525 6.66182L11.8275 8.62967C11.6249 8.8173 11.6128 9.13365 11.8004 9.33626C11.9881 9.53886 12.3044 9.551 12.507 9.36337L14.6319 7.39553C16.3702 5.78572 16.4643 3.08076 14.841 1.35584C13.2199 -0.366791 10.5001 -0.459262 8.76409 1.14842L6.63917 3.11627C4.90087 4.72607 4.80685 7.43104 6.43008 9.15595C6.62221 9.36012 6.83011 9.54165 7.05029 9.70023ZM8.94982 6.29997C8.72574 6.13858 8.41327 6.18939 8.25188 6.41346C8.09049 6.63753 8.1413 6.95001 8.36538 7.1114C8.53405 7.23289 8.69374 7.37224 8.84178 7.52956C10.084 8.84962 10.0126 10.9174 8.68147 12.1502L6.55655 14.1181C5.22308 15.353 3.1317 15.2814 1.88732 13.959C0.645088 12.639 0.716458 10.5712 2.04764 9.33838L4.17256 7.37053C4.37516 7.1829 4.38731 6.86655 4.19968 6.66394C4.01205 6.46134 3.6957 6.44919 3.49309 6.63682L1.36817 8.60467C-0.370133 10.2145 -0.46415 12.9194 1.15908 14.6444C2.78016 16.367 5.50001 16.4595 7.23602 14.8518L9.36094 12.8839C11.0992 11.2741 11.1933 8.56916 9.57003 6.84424C9.3779 6.64008 9.16999 6.45855 8.94982 6.29997Z" fill="#7A859E"/>
</svg>
