<svg xmlns="http://www.w3.org/2000/svg" viewBox="0 0 128 128">
  <circle cx="63.8" cy="64.5" r="57.3" fill="#fff" stroke="#000" stroke-width="4"/>
  <path d="M50.8 82.8c1.4.9 3.2 1.6 5.2 2.2 2 .6 4 .9 6.1.9 2.4 0 4.4-.6 6.1-1.8 1.7-1.2 2.5-3.2 2.5-5.8 0-2.3-.5-4.1-1.5-5.6s-2.3-2.8-3.9-3.9c-1.6-1.2-3.2-2.2-5.1-3.2-1.8-1-3.5-2.1-5.1-3.5-1.6-1.4-2.8-3-3.9-4.9-1-1.9-1.5-4.3-1.5-7.1 0-4.6 1.2-8.1 3.7-10.4 2.5-2.3 6-3.5 10.6-3.5 3 0 5.5.3 7.7.8s4.1 1.3 5.7 2.2l-2.1 6.5c-1.4-.7-3-1.3-4.8-1.8-1.8-.5-3.7-.7-5.5-.7-2.6 0-4.5.5-5.7 1.6-1.2 1.1-1.8 2.8-1.8 5.1 0 1.8.5 3.4 1.5 4.6 1 1.3 2.3 2.4 3.9 3.5s3.2 2.1 5.1 3.2c1.8 1.1 3.5 2.4 5.1 3.9 1.6 1.5 2.8 3.3 3.9 5.3 1 2.1 1.5 4.7 1.5 7.8 0 2-.3 4-1 5.8-.7 1.8-1.6 3.4-3 4.7-1.3 1.3-3 2.4-5 3.2-2 .8-4.3 1.2-7 1.2-3.2 0-5.9-.3-8.3-.9-2.3-.6-4.3-1.4-5.9-2.4l2.5-7z"/>
  <circle cx="27.9" cy="63.5" r="6.7" /><circle cx="99.8" cy="63.5" r="6.7" />
</svg>
