<svg width="28" height="28" fill="none" xmlns="http://www.w3.org/2000/svg">
  <circle cx="13.9" cy="13.9" r="13.4" fill="#fff" stroke="#000"/>
  <path d="M13.95 19.36c-.54 0-1.04-.07-1.52-.22a3.9 3.9 0 0 1-1.1-.57c-.28-.23-.4-.42-.4-.58 0-.16.09-.39.28-.68.2-.3.35-.45.47-.45.03 0 .15.08.38.25.23.16.5.3.8.44.3.12.63.18 1 .18.55 0 .96-.14 1.25-.4.3-.28.44-.69.44-1.22 0-.51-.16-.95-.49-1.3-.31-.36-.8-.7-1.47-1.02a4.97 4.97 0 0 1-1.82-1.28 3 3 0 0 1-.58-1.92c0-.93.3-1.68.91-2.26a3.3 3.3 0 0 1 2.36-.88c.6 0 1.17.1 1.7.28.51.2.77.42.77.67 0 .17-.09.42-.27.73-.16.3-.3.46-.42.46-.03 0-.2-.09-.53-.26-.32-.2-.7-.3-1.14-.3-.43 0-.8.13-1.09.36-.28.24-.42.57-.42 1 0 .5.14.92.42 1.26.3.32.71.62 1.25.88.9.41 1.57.88 2 1.42.43.53.64 1.23.64 2.12a3.1 3.1 0 0 1-.97 2.38c-.66.6-1.47.91-2.45.91z" fill="#000"/>
  <circle cx="6.4" cy="13.35" r="1.44" fill="#000"/>
  <circle cx="21.3" cy="13.35" r="1.44" fill="#000"/>
</svg>
