<svg width="27" height="24" viewBox="0 0 27 24" fill="none" xmlns="http://www.w3.org/2000/svg">
  <path fillRule="evenodd" clipRule="evenodd" d="M0.5 3.84772L1.36294 7.98985L0.814721 8.39594L1.6269 9.01523L1.00761 9.50254L1.8198 10.2437L1.31218 10.6091L2.4797 11.9797L0.713197 17.4822L2.35787 23.0964L8.11421 21.5127L9.23096 22.4264L11.4949 24H15.3832L17.6574 22.4264L18.7741 21.5127L24.5305 23.0964L26.1853 17.4822L24.3985 11.9797L25.5761 10.6091L25.0685 10.2437L25.8807 9.50254L25.2513 9.01523L26.0634 8.39594L25.5254 7.98985L26.3883 3.84772L25.099 0L16.8655 3.07614L10.0228 3.07614L1.77919 0L0.5 3.84772Z" fill="#F6851B"/>
  <path d="M25.0991 0L14.9976 7.50254L16.8656 3.07614L25.0991 0Z" fill="#E2761B"/>
  <path d="M1.7793 0L11.7996 7.5736L10.023 3.07614L1.7793 0Z" fill="#E4761B"/>
  <path d="M21.4643 17.3909L18.7739 21.5127L24.5303 23.0965L26.1851 17.4822L21.4643 17.3909Z" fill="#E4761B"/>
  <path d="M0.713379 17.4822L2.35805 23.0965L8.11439 21.5127L5.42404 17.3909L0.713379 17.4822Z" fill="#E4761B"/>
  <path d="M7.78912 10.4265L6.18506 12.8529L11.9008 13.1067L11.6977 6.9646L7.78912 10.4265Z" fill="#E4761B"/>
  <path d="M19.0889 10.4263L15.1295 6.89331L14.9976 13.1065L20.7031 12.8527L19.0889 10.4263Z" fill="#E4761B"/>
  <path d="M8.11426 21.5128L11.5457 19.8377L8.58126 17.5229L8.11426 21.5128Z" fill="#E4761B"/>
  <path d="M15.3325 19.8377L18.7741 21.5128L18.297 17.5229L15.3325 19.8377Z" fill="#E4761B"/>
  <path d="M18.7741 21.5128L15.3325 19.8376L15.6066 22.0813L15.5762 23.0255L18.7741 21.5128Z" fill="#D7C1B3"/>
  <path d="M8.11426 21.5128L11.3122 23.0255L11.2919 22.0813L11.5457 19.8376L8.11426 21.5128Z" fill="#D7C1B3"/>
  <path d="M11.3629 16.0407L8.5 15.198L10.5203 14.2742L11.3629 16.0407Z" fill="#233447"/>
  <path d="M15.5151 16.0407L16.3578 14.2742L18.3882 15.198L15.5151 16.0407Z" fill="#233447"/>
  <path d="M8.11418 21.5127L8.60149 17.3909L5.42383 17.4822L8.11418 21.5127Z" fill="#CD6116"/>
  <path d="M18.2866 17.3909L18.7739 21.5127L21.4643 17.4822L18.2866 17.3909Z" fill="#CD6116"/>
  <path d="M20.7031 12.8528L14.9976 13.1066L15.5255 16.0406L16.3681 14.2741L18.3986 15.198L20.7031 12.8528Z" fill="#CD6116"/>
  <path d="M8.49978 15.198L10.5302 14.2741L11.3627 16.0406L11.9008 13.1066L6.18506 12.8528L8.49978 15.198Z" fill="#CD6116"/>
  <path d="M6.18506 12.8528L8.581 17.5228L8.49978 15.198L6.18506 12.8528Z" fill="#E4751F"/>
  <path d="M18.3984 15.198L18.2969 17.5228L20.703 12.8528L18.3984 15.198Z" fill="#E4751F"/>
  <path d="M11.9009 13.1067L11.3628 16.0407L12.0328 19.5026L12.1851 14.9443L11.9009 13.1067Z" fill="#E4751F"/>
  <path d="M14.9973 13.1067L14.7231 14.9341L14.845 19.5026L15.5252 16.0407L14.9973 13.1067Z" fill="#E4751F"/>
  <path d="M15.5254 16.0406L14.8452 19.5026L15.3325 19.8376L18.297 17.5229L18.3985 15.198L15.5254 16.0406Z" fill="#F6851B"/>
  <path d="M8.5 15.198L8.58122 17.5229L11.5457 19.8376L12.033 19.5026L11.3629 16.0406L8.5 15.198Z" fill="#F6851B"/>
  <path d="M15.5762 23.0254L15.6066 22.0812L15.3528 21.8579H11.5254L11.2919 22.0812L11.3122 23.0254L8.11426 21.5127L9.23101 22.4264L11.495 24H15.3833L17.6574 22.4264L18.7742 21.5127L15.5762 23.0254Z" fill="#C0AD9E"/>
  <path d="M15.3326 19.8375L14.8453 19.5024H12.0331L11.5458 19.8375L11.292 22.0811L11.5255 21.8578H15.3529L15.6067 22.0811L15.3326 19.8375Z" fill="#161616"/>
  <path d="M25.5254 7.98985L26.3884 3.84772L25.099 0L15.3325 7.24873L19.0889 10.4264L24.3985 11.9797L25.5762 10.6091L25.0686 10.2437L25.8807 9.50254L25.2513 9.01523L26.0635 8.39594L25.5254 7.98985Z" fill="#763D16"/>
  <path d="M0.5 3.84772L1.36294 7.98985L0.814721 8.39594L1.6269 9.01523L1.00761 9.50254L1.8198 10.2437L1.31218 10.6091L2.4797 11.9797L7.78934 10.4264L11.5457 7.24873L1.77919 0L0.5 3.84772Z" fill="#763D16"/>
  <path d="M24.3984 11.9798L19.0888 10.4265L20.703 12.8529L18.2969 17.523L21.4644 17.4823H26.1852L24.3984 11.9798Z" fill="#F6851B"/>
  <path d="M7.78952 10.4265L2.47988 11.9798L0.713379 17.4823H5.42404L8.5814 17.523L6.18546 12.8529L7.78952 10.4265Z" fill="#F6851B"/>
  <path d="M14.9976 13.1066L15.3326 7.24876L16.8757 3.07617H10.0229L11.5458 7.24876L11.9011 13.1066L12.023 14.9543L12.0331 19.5026H14.8453L14.8656 14.9543L14.9976 13.1066Z" fill="#F6851B"/>
</svg>
