<svg width="602" height="320" viewBox="0 0 602 320" fill="none" xmlns="http://www.w3.org/2000/svg">
<mask id="mask0" mask-type="alpha" maskUnits="userSpaceOnUse" x="28" y="8" width="558" height="300">
<rect x="28" y="8" width="558" height="300" rx="4" fill="#8358FF"/>
</mask>
<g mask="url(#mask0)">
<path d="M453.165 3.86931L458.081 2.13583L457.33 0L452.414 1.73348L453.165 3.86931Z" fill="#F588FF"/>
<path d="M140.506 23.1822L144.711 7.96406L142.532 7.36025L138.327 22.5784L140.506 23.1822Z" fill="#F588FF"/>
<path d="M301.936 20.6649L309.851 10.4752L306.281 7.69483L298.366 17.8845L301.936 20.6649Z" fill="#F588FF"/>
<path d="M532.213 50.3737L516.949 54.3363L516.382 52.1444L531.645 48.1818L532.213 50.3737Z" fill="#F588FF"/>
<path d="M355.963 58.077L346.353 50.1517L347.791 48.4037L357.401 56.329L355.963 58.077Z" fill="#F588FF"/>
<path d="M131.124 67.3928H117.556V69.6572H131.124V67.3928Z" fill="#F588FF"/>
<path d="M389.959 284.644L382.045 294.834L383.83 296.224L391.744 286.034L389.959 284.644Z" fill="#F588FF"/>
<path d="M85.1369 151.469L97.5738 140.147L99.0948 141.823L86.658 153.145L85.1369 151.469Z" fill="#F588FF"/>
<path d="M101.743 278.166L103.439 288.356L105.669 287.984L103.973 277.794L101.743 278.166Z" fill="#F588FF"/>
<path d="M148.819 219.945L152.777 223.341L151.305 225.061L147.348 221.664L148.819 219.945Z" fill="#F588FF"/>
<path d="M241.646 266.272L257.475 248.157L255.773 246.665L239.944 264.78L241.646 266.272Z" fill="#F588FF"/>
<path d="M20.9055 213.718L7.90333 206.359L10.1287 202.416L23.1308 209.776L20.9055 213.718Z" fill="#F588FF"/>
<path d="M403.882 242.005L405.578 249.364L407.782 248.855L406.086 241.495L403.882 242.005Z" fill="#F588FF"/>
<path d="M579.16 204.599L588.77 214.789L590.414 213.234L580.804 203.044L579.16 204.599Z" fill="#F588FF"/>
<path d="M499.345 206.169L495.388 200.508L497.24 199.21L501.198 204.871L499.345 206.169Z" fill="#F588FF"/>
<path d="M507.074 286.835L504.813 299.289L507.037 299.694L509.299 287.24L507.074 286.835Z" fill="#F588FF"/>
<path d="M258.697 216.024H245.129V211.495H258.697V216.024Z" fill="#F588FF"/>
<path d="M565.228 127.617L559.575 110.068L557.423 110.764L563.076 128.313L565.228 127.617Z" fill="#F588FF"/>
<path d="M458.834 115.238L454.877 111.842L456.348 110.122L460.305 113.519L458.834 115.238Z" fill="#F588FF"/>
<path d="M287.121 62.6094L285.425 55.2502L283.222 55.7594L284.918 63.1186L287.121 62.6094Z" fill="#F588FF"/>
<path d="M470.302 240.002L479.912 247.927L477.038 251.423L467.427 243.498L470.302 240.002Z" fill="#F588FF"/>
<path d="M193.547 308.42L185.632 318.61L187.417 320L195.331 309.81L193.547 308.42Z" fill="#F588FF"/>
<path d="M209.165 273.14L207.47 265.781L209.673 265.271L211.369 272.631L209.165 273.14Z" fill="#F588FF"/>
<path d="M283.5 271.703L273.889 263.778L271.014 267.274L280.625 275.199L283.5 271.703Z" fill="#F588FF"/>
<path d="M43.7565 303.243L53.3668 313.433L51.7228 314.988L42.1125 304.798L43.7565 303.243Z" fill="#F588FF"/>
<path d="M220.828 143.786L227.703 143.185L227.506 140.929L220.632 141.53L220.828 143.786Z" fill="#F588FF"/>
<path d="M334.975 99.5746L325.335 91.3866L326.798 89.6597L336.438 97.8478L334.975 99.5746Z" fill="#F588FF"/>
<path d="M29.5074 235.946L34.3626 247.904L30.1731 249.61L25.3179 237.651L29.5074 235.946Z" fill="#F588FF"/>
<path d="M183.23 86.9617L190.013 75.1956L186.097 72.9313L179.313 84.6973L183.23 86.9617Z" fill="#F588FF"/>
<path d="M386.173 16.5234L395.834 20.1475L395.04 22.268L385.38 18.6439L386.173 16.5234Z" fill="#F588FF"/>
<path d="M354.187 305.557L361.399 307.766L360.738 309.931L353.525 307.722L354.187 305.557Z" fill="#F588FF"/>
<path d="M468.299 193.268L456.64 197.64L458.226 201.881L469.885 197.509L468.299 193.268Z" fill="#F588FF"/>
<path d="M1.69594 149.165L0 141.806L2.20334 141.297L3.89928 148.656L1.69594 149.165Z" fill="#F588FF"/>
<path d="M531.568 184.658L535.525 190.319L537.378 189.02L533.42 183.359L531.568 184.658Z" fill="#F588FF"/>
<path d="M126.996 29.758L123.038 26.3614L124.51 24.6422L128.467 28.0387L126.996 29.758Z" fill="#F588FF"/>
<path d="M319.589 158.108L298.107 150.182L296.544 154.432L318.026 162.357L319.589 158.108Z" fill="#F588FF"/>
<path d="M24.4656 18.8939L13.2539 31.5469L11.5625 30.044L22.7742 17.3911L24.4656 18.8939Z" fill="#F588FF"/>
<path d="M346.192 130.373L334.532 134.745L336.118 138.986L347.777 134.614L346.192 130.373Z" fill="#F588FF"/>
<path d="M475.113 308.986L488.73 305.746L489.253 307.949L475.635 311.189L475.113 308.986Z" fill="#F588FF"/>
<path d="M355.252 253.001L351.295 247.34L349.443 248.639L353.4 254.3L355.252 253.001Z" fill="#F588FF"/>
<path d="M272.434 35.8939L270.173 48.348L267.948 47.943L270.209 35.4889L272.434 35.8939Z" fill="#F588FF"/>
<path d="M540.533 50.4831L550.144 58.4084L551.581 56.6605L541.971 48.7351L540.533 50.4831Z" fill="#F588FF"/>
<path d="M405.837 71.6669L407.533 79.0262L405.329 79.5353L403.633 72.1761L405.837 71.6669Z" fill="#F588FF"/>
<path d="M602 279.424L600.304 272.065L598.101 272.574L599.797 279.933L602 279.424Z" fill="#F588FF"/>
<path d="M421.883 143.516L415.009 144.117L414.812 141.861L421.686 141.26L421.883 143.516Z" fill="#F588FF"/>
<path d="M583.472 307.448L590.346 306.847L590.149 304.591L583.275 305.192L583.472 307.448Z" fill="#F588FF"/>
<path d="M229.352 176.077L219.712 167.889L221.175 166.162L230.815 174.35L229.352 176.077Z" fill="#F588FF"/>
<path d="M578.708 31.8007L569.048 28.1766L568.254 30.2971L577.915 33.9212L578.708 31.8007Z" fill="#F588FF"/>
<path d="M347.841 239.987L342.925 241.721L342.174 239.585L347.09 237.852L347.841 239.987Z" fill="#F588FF"/>
<path d="M359.713 200.508L363.67 206.169L365.523 204.871L361.565 199.21L359.713 200.508Z" fill="#F588FF"/>
<path d="M492.943 151.398L502.554 159.323L499.679 162.819L490.068 154.894L492.943 151.398Z" fill="#F588FF"/>
<path d="M97.8959 224.345L86.2367 228.717L87.8226 232.958L99.4818 228.586L97.8959 224.345Z" fill="#F588FF"/>
<path d="M466.901 54.009L464.64 66.4631L462.415 66.058L464.677 53.6039L466.901 54.009Z" fill="#F588FF"/>
<path d="M113.314 292.169L98.0508 296.131L98.6183 298.323L113.882 294.361L113.314 292.169Z" fill="#F588FF"/>
</g>
</svg>
