<svg width="602" height="320" fill="none" xmlns="http://www.w3.org/2000/svg"><mask id="a" maskUnits="userSpaceOnUse" x="28" y="8" width="558" height="300"><rect x="28" y="8" width="558" height="300" rx="4" fill="#8358FF"/></mask><g mask="url(#a)" fill="#F588FF"><path d="M453.165 3.87l4.916-1.734L457.33 0l-4.916 1.733.751 2.136zM140.506 23.182l4.205-15.218-2.179-.604-4.205 15.218 2.179.604zM301.936 20.665l7.915-10.19-3.57-2.78-7.915 10.19 3.57 2.78zM532.213 50.374l-15.264 3.962-.567-2.192 15.263-3.962.568 2.192zM355.963 58.077l-9.61-7.925 1.438-1.748 9.61 7.925-1.438 1.748zM131.124 67.393h-13.568v2.264h13.568v-2.264zM389.959 284.644l-7.914 10.19 1.785 1.39 7.914-10.19-1.785-1.39zM85.137 151.469l12.437-11.322 1.52 1.676-12.436 11.322-1.521-1.676zM101.743 278.166l1.696 10.19 2.23-.372-1.696-10.19-2.23.372zM148.819 219.945l3.958 3.396-1.472 1.72-3.957-3.397 1.471-1.719zM241.646 266.272l15.829-18.115-1.702-1.492-15.829 18.115 1.702 1.492zM20.905 213.718l-13.002-7.359 2.226-3.943 13.002 7.36-2.226 3.942zM403.882 242.005l1.696 7.359 2.204-.509-1.696-7.36-2.204.51zM579.16 204.599l9.61 10.19 1.644-1.555-9.61-10.19-1.644 1.555zM499.345 206.169l-3.957-5.661 1.852-1.298 3.958 5.661-1.853 1.298zM507.074 286.835l-2.261 12.454 2.224.405 2.262-12.454-2.225-.405zM258.697 216.024h-13.568v-4.529h13.568v4.529zM565.228 127.617l-5.653-17.549-2.152.696 5.653 17.549 2.152-.696zM458.834 115.238l-3.957-3.396 1.471-1.72 3.957 3.397-1.471 1.719zM287.121 62.61l-1.696-7.36-2.203.51 1.696 7.359 2.203-.51zM470.302 240.002l9.61 7.925-2.874 3.496-9.611-7.925 2.875-3.496zM193.547 308.42l-7.915 10.19 1.785 1.39 7.914-10.19-1.784-1.39zM209.165 273.14l-1.695-7.359 2.203-.51 1.696 7.36-2.204.509zM283.5 271.703l-9.611-7.925-2.875 3.496 9.611 7.925 2.875-3.496zM43.757 303.243l9.61 10.19-1.644 1.555-9.61-10.19 1.644-1.555zM220.828 143.786l6.875-.601-.197-2.256-6.874.601.196 2.256zM334.975 99.575l-9.64-8.188 1.463-1.727 9.64 8.188-1.463 1.727zM29.507 235.946l4.856 11.958-4.19 1.706-4.855-11.959 4.19-1.705zM183.23 86.962l6.783-11.766-3.916-2.265-6.784 11.766 3.917 2.265zM386.173 16.523l9.661 3.625-.794 2.12-9.66-3.624.793-2.12zM354.187 305.557l7.212 2.209-.661 2.165-7.213-2.209.662-2.165zM468.299 193.268l-11.659 4.372 1.586 4.241 11.659-4.372-1.586-4.241zM1.696 149.165L0 141.806l2.203-.509 1.696 7.359-2.203.509zM531.568 184.658l3.957 5.661 1.853-1.299-3.958-5.661-1.852 1.299zM126.996 29.758l-3.958-3.397 1.472-1.719 3.957 3.397-1.471 1.719zM319.589 158.108l-21.482-7.926-1.563 4.25 21.482 7.925 1.563-4.249zM24.466 18.894L13.254 31.547l-1.691-1.503 11.211-12.653 1.692 1.503zM346.192 130.373l-11.66 4.372 1.586 4.241 11.659-4.372-1.585-4.241zM475.113 308.986l13.617-3.24.523 2.203-13.618 3.24-.522-2.203zM355.252 253.001l-3.957-5.661-1.852 1.299 3.957 5.661 1.852-1.299zM272.434 35.894l-2.261 12.454-2.225-.405 2.261-12.454 2.225.405zM540.533 50.483l9.611 7.925 1.437-1.748-9.61-7.925-1.438 1.748zM405.837 71.667l1.696 7.36-2.204.508-1.696-7.359 2.204-.51zM602 279.424l-1.696-7.359-2.203.509 1.696 7.359 2.203-.509zM421.883 143.516l-6.874.601-.197-2.256 6.874-.601.197 2.256zM583.472 307.448l6.874-.601-.197-2.256-6.874.601.197 2.256zM229.352 176.077l-9.64-8.188 1.463-1.727 9.64 8.188-1.463 1.727zM578.708 31.8l-9.66-3.623-.794 2.12 9.661 3.624.793-2.12zM347.841 239.987l-4.916 1.734-.751-2.136 4.916-1.733.751 2.135zM359.713 200.508l3.957 5.661 1.853-1.298-3.958-5.661-1.852 1.298zM492.943 151.398l9.611 7.925-2.875 3.496-9.611-7.925 2.875-3.496zM97.896 224.345l-11.66 4.372 1.587 4.241 11.659-4.372-1.586-4.241zM466.901 54.009l-2.261 12.454-2.225-.405 2.262-12.454 2.224.405zM113.314 292.169l-15.263 3.962.567 2.192 15.264-3.962-.568-2.192z"/></g></svg>