<svg width="16" height="23" viewBox="0 0 16 23" fill="none" xmlns="http://www.w3.org/2000/svg">
<path fill-rule="evenodd" clip-rule="evenodd" d="M11.1865 13.09C12.2235 12.1127 13 11.0656 13 9.568C13 7.11456 10.833 5 7.99983 5C5.16667 5 2.99974 7.11456 3 9.56789C3 11.0655 3.77644 12.1126 4.81352 13.09C5.64734 13.7797 6.05812 14.7321 6.26582 15.575H9.73412C9.9419 14.7321 10.3527 13.7797 11.1865 13.09ZM11.2118 14.5681C10.8582 15.134 10.6812 15.7949 10.5927 16.3888C10.5378 16.9018 10.5412 17.4193 10.5412 17.9345C10.5412 19.2182 8.81148 20 7.99992 20C7.18837 20 5.4586 19.2182 5.4586 17.9345C5.45863 17.4204 5.46211 16.9039 5.40758 16.392C5.31933 15.7972 5.1425 15.135 4.78821 14.5681C4.42267 13.9832 3.84923 13.638 3.39406 13.1326C2.52446 12.1671 2 10.925 2 9.568C1.99967 6.49323 4.68608 4 7.99983 4C11.3136 4 14 6.49323 14 9.568C14 10.925 13.4755 12.1671 12.6059 13.1326C12.1456 13.6437 11.582 13.9757 11.2118 14.5681ZM7.89902 6.82252C7.94443 7.09491 7.76043 7.35253 7.48804 7.39793C6.36543 7.58507 5.56927 8.49275 5.3073 9.48262C5.23665 9.74957 4.96297 9.9087 4.69602 9.83805C4.42907 9.7674 4.26993 9.49372 4.34058 9.22677C4.6818 7.93749 5.73715 6.67601 7.32361 6.41155C7.596 6.36614 7.85362 6.55014 7.89902 6.82252Z" fill="#6339DD"/>
</svg>
