<svg width="48" height="48" fill="none" xmlns="http://www.w3.org/2000/svg"><path d="M8.296 4.364a.598.598 0 0 0-.48.22c-.259.256-.259.696 0 .989.258.256.702.256.997 0 .26-.257.26-.696 0-.99-.147-.183-.332-.22-.517-.22zm31.408 0a.598.598 0 0 0-.48.22c-.26.22-.26.66 0 .952.258.257.701.257.997 0 .259-.256.259-.696 0-.99-.148-.146-.332-.182-.517-.182zM24 8.102c-7.058 0-12.785 5.68-12.785 12.68 0 3.994 1.774 6.522 3.473 8.428.85.953 1.663 1.759 2.254 2.528.592.77.924 1.466.924 2.272v5.497c0 1.503 1.256 2.749 2.771 2.749h.629A2.776 2.776 0 0 0 24 44.455a2.775 2.775 0 0 0 2.734-2.2h.628c1.515 0 2.772-1.245 2.772-2.748v-5.534c0-.806.332-1.502.923-2.271.592-.77 1.405-1.576 2.254-2.529 1.7-1.905 3.474-4.397 3.474-8.428 0-6.963-5.728-12.643-12.785-12.643zM24 9.2c6.466 0 11.676 5.167 11.676 11.543 0 3.702-1.552 5.864-3.178 7.696-.812.916-1.662 1.723-2.327 2.602-.665.88-1.146 1.832-1.146 2.932v.55h-2.771V23.382c.96-.256 1.663-1.063 1.663-2.089 0-1.21-.998-2.199-2.217-2.199-.665 0-1.257.33-1.663.807-.444-.477-1.035-.807-1.7-.807-1.22 0-2.217.99-2.217 2.2 0 1.025.702 1.831 1.663 2.088v11.14h-2.771v-.55c0-1.135-.48-2.088-1.146-2.93-.665-.88-1.515-1.687-2.328-2.603-1.626-1.832-3.177-3.994-3.177-7.696C12.324 14.368 17.57 9.201 24 9.201zM10.735 6.782a.598.598 0 0 0-.48.22c-.26.257-.26.696 0 .99.258.256.701.256.997 0 .259-.257.259-.697 0-.99a.732.732 0 0 0-.517-.22zm26.53 0a.598.598 0 0 0-.48.22c-.259.257-.259.696 0 .99.258.256.702.256.997 0 .259-.257.259-.697 0-.99-.184-.146-.332-.22-.517-.22zM8.555 9.604c-.259-.037-.554.073-.702.293-.222.33-.111.733.184.953.333.22.74.11.961-.183.222-.33.111-.733-.185-.953-.074-.037-.184-.073-.258-.11zm30.89 0a.401.401 0 0 0-.259.11c-.332.22-.406.623-.184.953.221.33.628.403.96.183.333-.22.407-.623.185-.953-.148-.22-.443-.33-.702-.293zM3.493 11.51a.663.663 0 0 0-.629.44.715.715 0 0 0 .37.916.726.726 0 0 0 .924-.367.715.715 0 0 0-.37-.916c-.11-.073-.222-.073-.295-.073zm41.051 0c-.074 0-.185 0-.258.036-.37.147-.518.55-.37.917.148.366.554.513.924.366.37-.147.517-.55.37-.916a.78.78 0 0 0-.666-.403zM6.67 12.829a.663.663 0 0 0-.628.44.715.715 0 0 0 .37.916.726.726 0 0 0 .923-.367.715.715 0 0 0-.37-.916c-.11-.073-.184-.073-.295-.073zm34.66 0c-.074 0-.185 0-.26.037-.369.146-.516.55-.369.916.148.366.555.513.924.366.37-.146.517-.55.37-.916a.78.78 0 0 0-.665-.403zM5.747 16.31a.705.705 0 0 0-.813.55c-.074.367.184.733.554.806a.705.705 0 0 0 .813-.55c.074-.366-.185-.732-.554-.806zm36.506 0c-.37.074-.628.44-.554.806a.705.705 0 0 0 .813.55c.37-.073.628-.44.554-.806a.705.705 0 0 0-.813-.55zm-40.46 3.628a.699.699 0 0 0-.702.697c0 .366.295.696.702.696a.677.677 0 0 0 .702-.697.699.699 0 0 0-.702-.696zm3.473 0a.699.699 0 0 0-.702.697c0 .366.296.696.702.696a.677.677 0 0 0 .702-.697.699.699 0 0 0-.702-.696zm17.071.257c.628 0 1.109.476 1.109 1.1h1.108c0-.624.48-1.1 1.109-1.1.628 0 1.108.476 1.108 1.1 0 .622-.48 1.099-1.108 1.099h-.555v12.13h-2.217v-12.13h-.554a1.084 1.084 0 0 1-1.108-1.1c0-.586.48-1.1 1.108-1.1zm20.397-.257a.699.699 0 0 0-.702.697c0 .366.295.696.702.696a.677.677 0 0 0 .702-.697.677.677 0 0 0-.702-.696zm3.473 0a.699.699 0 0 0-.702.697c0 .366.295.696.702.696a.677.677 0 0 0 .702-.697.677.677 0 0 0-.702-.696zm-40.72 3.628c-.369.074-.627.44-.553.806a.705.705 0 0 0 .813.55c.369-.073.628-.44.554-.806a.705.705 0 0 0-.813-.55zm36.766 0c-.258.037-.48.257-.554.55-.074.366.185.733.554.806a.705.705 0 0 0 .813-.55c.074-.366-.185-.732-.554-.806h-.259zM6.707 27.048c-.074 0-.185 0-.258.036-.37.147-.518.55-.37.916.148.367.554.514.924.367.37-.147.517-.55.37-.916a.78.78 0 0 0-.666-.403zm34.623 0a.663.663 0 0 0-.629.44.715.715 0 0 0 .37.916.726.726 0 0 0 .924-.367.715.715 0 0 0-.37-.916c-.148-.073-.222-.073-.295-.073zM3.492 28.367c-.074 0-.185 0-.26.037-.369.146-.516.55-.369.916.148.366.555.513.924.366.37-.146.517-.55.37-.916a.78.78 0 0 0-.665-.403zm41.014 0a.663.663 0 0 0-.628.44.715.715 0 0 0 .37.916.726.726 0 0 0 .923-.367.715.715 0 0 0-.37-.916c-.11-.073-.184-.073-.295-.073zm-36.21 1.905a.4.4 0 0 0-.26.11c-.332.22-.406.623-.184.953.221.33.628.403.96.183.333-.22.407-.623.185-.952a.62.62 0 0 0-.702-.293zm31.407 0c-.259-.036-.554.074-.702.294-.222.33-.111.733.184.953.333.22.74.11.961-.184.222-.33.111-.733-.185-.953a.337.337 0 0 0-.258-.11zm-28.97 2.786a.598.598 0 0 0-.48.22c-.258.256-.258.696 0 .989.26.256.703.256.998 0 .259-.257.259-.696 0-.99a.732.732 0 0 0-.517-.22zm26.531 0a.598.598 0 0 0-.48.22c-.259.256-.259.696 0 .989.258.256.702.256.997 0 .259-.257.259-.696 0-.99-.184-.146-.332-.22-.517-.22zm2.439 2.455a.598.598 0 0 0-.48.22c-.26.256-.26.696 0 .99.258.256.701.256.997 0 .259-.257.259-.697 0-.99a.732.732 0 0 0-.517-.22zm-31.408 0a.598.598 0 0 0-.48.22c-.259.256-.259.696 0 .99.258.256.702.256.997 0 .26-.257.26-.697 0-.99a.732.732 0 0 0-.517-.22zm10.716.11h9.976v1.1h-6.65v1.099h6.65v1.099h-6.65v1.1h6.576a1.63 1.63 0 0 1-1.552 1.099h-6.65c-.74 0-1.33-.477-1.553-1.1h2.07v-1.099h-2.217v-1.1h2.217v-1.099h-2.217v-1.1zm3.436 6.596h3.14a1.63 1.63 0 0 1-1.551 1.1c-.776 0-1.367-.44-1.589-1.1z" fill="url(#paint0_linear)"/><defs><linearGradient id="paint0_linear" x1="1.097" y1="24.393" x2="46.909" y2="24.393" gradientUnits="userSpaceOnUse"><stop stop-color="#316BAE"/><stop offset="1" stop-color="#C82F3F"/></linearGradient></defs></svg>