<svg width="36" height="36" fill="none" xmlns="http://www.w3.org/2000/svg"><path d="M10.967 20.467l.833-.667-1-1.267-.7.9.867 1.034z" fill="url(#paint0_linear)"/><path d="M12.167 17.167a.967.967 0 1 0-.002-1.935.967.967 0 0 0 .002 1.935z" fill="url(#paint1_linear)"/><path d="M12.967 19.733l1 .467.6-1.2-.734-.967-.866 1.7z" fill="url(#paint2_linear)"/><path d="M11.567 21.667c-.067.533.3 1.033.833 1.1.533.066 1.033-.3 1.1-.834.067-.533-.3-1.033-.833-1.1-.534-.066-1 .3-1.1.834z" fill="url(#paint3_linear)"/><path d="M1.667 34.333V0H0v36h36v-1.667H1.667z" fill="url(#paint4_linear)"/><path d="M4.9 12.8a.967.967 0 1 0-.001-1.935A.967.967 0 0 0 4.9 12.8z" fill="url(#paint5_linear)"/><path d="M4.433 24.233c-.066.534.3 1.034.834 1.1.533.067 1.033-.3 1.1-.833.066-.533-.3-1.033-.834-1.1-.533-.067-1.033.3-1.1.833z" fill="url(#paint6_linear)"/><path d="M5.566 13.767l4.6 5.733.667-.9L6.4 13.1l-.834.667z" fill="url(#paint7_linear)"/><path d="M6.366 22.533l.834.7 2.9-3.8-.7-.9-3.034 4z" fill="url(#paint8_linear)"/><path d="M24.967 10.1l-3.733-2.233-.534.933 3.7 2.233.567-.933z" fill="url(#paint9_linear)"/><path d="M32.2 6.033l-.867-.633-3.366 4.467.867.633L32.2 6.033z" fill="url(#paint10_linear)"/><path d="M26 18.233c-.067.534.3 1.034.833 1.1.534.067 1.034-.3 1.1-.833.067-.533-.3-1.033-.833-1.1-.533-.067-1.033.3-1.1.833z" fill="url(#paint11_linear)"/><path d="M28.433 20.1l3.4 2.7.667-.867-3.4-2.666-.667.833z" fill="url(#paint12_linear)"/><path d="M33 23.533c-.067.534.3 1.034.833 1.1.534.067 1.034-.3 1.1-.833.067-.533-.3-1.033-.833-1.1-.533-.1-1.033.3-1.1.833z" fill="url(#paint13_linear)"/><path d="M33.167 4.967A.967.967 0 0 0 34.133 4c0-.533-.433-1-.966-1a.967.967 0 0 0-.967.967c0 .533.4 1 .967 1z" fill="url(#paint14_linear)"/><path d="M19.033 8.2a.967.967 0 1 0-.001-1.935.967.967 0 0 0 .001 1.935z" fill="url(#paint15_linear)"/><path d="M18.1 23.567l.8-.7-4.533-5.9-.567 1.066 4.3 5.534z" fill="url(#paint16_linear)"/><path d="M19.2 9.8l-.966-.433-3.867 7.6.733.966L19.2 9.8z" fill="url(#paint17_linear)"/><path d="M18.567 24.967c-.067.533.3 1.033.833 1.1.533.066 1.033-.3 1.1-.834.067-.533-.3-1.033-.833-1.1-.534-.1-1.034.3-1.1.834z" fill="url(#paint18_linear)"/><path d="M21.467 24l4.233-3.6-.7-.8-4.233 3.567.7.833z" fill="url(#paint19_linear)"/><path d="M26.633 12.567a.967.967 0 0 0 0-1.934c-.533 0-.966.4-.966.934 0 .533.433 1 .966 1z" fill="url(#paint20_linear)"/><defs><linearGradient id="paint0_linear" x1="-3.779" y1="24.193" x2="36.524" y2="11.295" gradientUnits="userSpaceOnUse"><stop stop-color="#316BAE"/><stop offset="1" stop-color="#C82F3F"/></linearGradient><linearGradient id="paint1_linear" x1="-5.314" y1="21.773" x2="34.989" y2="8.875" gradientUnits="userSpaceOnUse"><stop stop-color="#316BAE"/><stop offset="1" stop-color="#C82F3F"/></linearGradient><linearGradient id="paint2_linear" x1="-3.611" y1="24.719" x2="36.692" y2="11.821" gradientUnits="userSpaceOnUse"><stop stop-color="#316BAE"/><stop offset="1" stop-color="#C82F3F"/></linearGradient><linearGradient id="paint3_linear" x1="-2.955" y1="26.77" x2="37.348" y2="13.871" gradientUnits="userSpaceOnUse"><stop stop-color="#316BAE"/><stop offset="1" stop-color="#C82F3F"/></linearGradient><linearGradient id="paint4_linear" x1="-3.554" y1="24.898" x2="36.867" y2="11.962" gradientUnits="userSpaceOnUse"><stop stop-color="#316BAE"/><stop offset="1" stop-color="#C82F3F"/></linearGradient><linearGradient id="paint5_linear" x1="-6.561" y1="15.5" x2="33.742" y2="2.602" gradientUnits="userSpaceOnUse"><stop stop-color="#316BAE"/><stop offset="1" stop-color="#C82F3F"/></linearGradient><linearGradient id="paint6_linear" x1="-2.876" y1="27.015" x2="37.427" y2="14.116" gradientUnits="userSpaceOnUse"><stop stop-color="#316BAE"/><stop offset="1" stop-color="#C82F3F"/></linearGradient><linearGradient id="paint7_linear" x1="-6.558" y1="21.049" x2="39.377" y2="6.348" gradientUnits="userSpaceOnUse"><stop stop-color="#316BAE"/><stop offset="1" stop-color="#C82F3F"/></linearGradient><linearGradient id="paint8_linear" x1="-3.615" y1="24.706" x2="36.688" y2="11.808" gradientUnits="userSpaceOnUse"><stop stop-color="#316BAE"/><stop offset="1" stop-color="#C82F3F"/></linearGradient><linearGradient id="paint9_linear" x1="-5.591" y1="18.531" x2="34.712" y2="5.632" gradientUnits="userSpaceOnUse"><stop stop-color="#316BAE"/><stop offset="1" stop-color="#C82F3F"/></linearGradient><linearGradient id="paint10_linear" x1="-5.349" y1="19.287" x2="34.954" y2="6.389" gradientUnits="userSpaceOnUse"><stop stop-color="#316BAE"/><stop offset="1" stop-color="#C82F3F"/></linearGradient><linearGradient id="paint11_linear" x1="-2.613" y1="27.836" x2="37.69" y2="14.938" gradientUnits="userSpaceOnUse"><stop stop-color="#316BAE"/><stop offset="1" stop-color="#C82F3F"/></linearGradient><linearGradient id="paint12_linear" x1="-1.516" y1="31.264" x2="38.786" y2="18.365" gradientUnits="userSpaceOnUse"><stop stop-color="#316BAE"/><stop offset="1" stop-color="#C82F3F"/></linearGradient><linearGradient id="paint13_linear" x1="-.432" y1="34.652" x2="39.871" y2="21.753" gradientUnits="userSpaceOnUse"><stop stop-color="#316BAE"/><stop offset="1" stop-color="#C82F3F"/></linearGradient><linearGradient id="paint14_linear" x1="-6.216" y1="16.578" x2="34.087" y2="3.68" gradientUnits="userSpaceOnUse"><stop stop-color="#316BAE"/><stop offset="1" stop-color="#C82F3F"/></linearGradient><linearGradient id="paint15_linear" x1="-6.582" y1="15.435" x2="33.721" y2="2.536" gradientUnits="userSpaceOnUse"><stop stop-color="#316BAE"/><stop offset="1" stop-color="#C82F3F"/></linearGradient><linearGradient id="paint16_linear" x1="-6.042" y1="27.394" x2="39.992" y2="12.662" gradientUnits="userSpaceOnUse"><stop stop-color="#316BAE"/><stop offset="1" stop-color="#C82F3F"/></linearGradient><linearGradient id="paint17_linear" x1="-4.941" y1="20.562" x2="35.362" y2="7.664" gradientUnits="userSpaceOnUse"><stop stop-color="#316BAE"/><stop offset="1" stop-color="#C82F3F"/></linearGradient><linearGradient id="paint18_linear" x1="-1.354" y1="31.77" x2="38.949" y2="18.872" gradientUnits="userSpaceOnUse"><stop stop-color="#316BAE"/><stop offset="1" stop-color="#C82F3F"/></linearGradient><linearGradient id="paint19_linear" x1="-1.966" y1="29.858" x2="38.337" y2="16.96" gradientUnits="userSpaceOnUse"><stop stop-color="#316BAE"/><stop offset="1" stop-color="#C82F3F"/></linearGradient><linearGradient id="paint20_linear" x1="-4.614" y1="21.584" x2="35.689" y2="8.686" gradientUnits="userSpaceOnUse"><stop stop-color="#316BAE"/><stop offset="1" stop-color="#C82F3F"/></linearGradient></defs></svg>