<svg width="88" height="88" fill="none" xmlns="http://www.w3.org/2000/svg"><path d="M7.723 0c-.747 0-1.468.286-2.008.83L.824 5.764A2.816 2.816 0 0 0 0 7.788v22.428c0 .935.772 1.714 1.699 1.714h22.602c.927 0 1.699-.779 1.699-1.713V1.712C26 .78 25.228 0 24.301 0H7.723zm.206 1.142h16.398c.309 0 .566.26.566.571v28.503a.574.574 0 0 1-.566.572H1.699a.574.574 0 0 1-.566-.572V7.997H6.23c.926 0 1.699-.78 1.699-1.714v-5.14zm-1.133.286v4.854a.574.574 0 0 1-.566.571H1.416c.051-.104.129-.181.206-.26l4.89-4.932c.104-.103.181-.155.284-.233zm8.392 6.567a.586.586 0 0 0-.463.416l-3.398 13.68a.573.573 0 0 0 .412.701c.051 0 .103.026.128.026.258 0 .49-.182.54-.441l3.399-13.68a.573.573 0 0 0-.412-.702c-.051 0-.129-.026-.206 0zm-5.56 3.401a.628.628 0 0 0-.412.156l-3.398 3.452a.553.553 0 0 0 0 .805l3.398 3.427a.582.582 0 0 0 .412.155.628.628 0 0 0 .412-.155.553.553 0 0 0 0-.805l-3.012-3.037 2.986-3.011a.553.553 0 0 0 0-.805.598.598 0 0 0-.386-.182zm7.903 0a.628.628 0 0 0-.412.156.553.553 0 0 0 0 .805l2.986 3.01-2.986 3.038a.553.553 0 0 0 0 .805.582.582 0 0 0 .412.156.628.628 0 0 0 .412-.156l3.398-3.427a.553.553 0 0 0 0-.804l-3.424-3.401a.546.546 0 0 0-.386-.182zM4.814 26.842a.546.546 0 0 0-.412.181c-.232.234-.232.598 0 .805.232.234.592.234.798 0 .232-.233.232-.597 0-.805-.077-.13-.232-.181-.386-.181zm2.317 0a.546.546 0 0 0-.412.181c-.232.234-.232.598 0 .805.231.234.592.234.798 0 .232-.233.232-.597 0-.805-.077-.13-.232-.181-.386-.181zm2.317 0a.546.546 0 0 0-.412.181c-.232.234-.232.598 0 .805.231.234.592.234.798 0 .231-.233.231-.597 0-.805-.078-.13-.232-.181-.386-.181zm2.316 0a.546.546 0 0 0-.412.181c-.231.234-.231.598 0 .805.232.234.593.234.798 0 .232-.233.232-.597 0-.805-.077-.13-.231-.181-.386-.181zm2.317 0a.546.546 0 0 0-.412.181c-.231.234-.231.598 0 .805.232.234.592.234.798 0 .232-.233.232-.597 0-.805-.077-.13-.231-.181-.386-.181zm2.317 0a.546.546 0 0 0-.412.181c-.232.234-.232.598 0 .805.232.234.592.234.798 0 .232-.233.232-.597 0-.805-.077-.13-.232-.181-.386-.181zm2.317 0a.546.546 0 0 0-.412.181c-.232.234-.232.598 0 .805.232.234.592.234.798 0 .232-.233.232-.597 0-.805-.077-.13-.232-.181-.386-.181zm2.317 0a.546.546 0 0 0-.412.181c-.232.234-.232.598 0 .805.232.234.592.234.798 0 .232-.233.232-.597 0-.805a.462.462 0 0 0-.386-.181z" transform="matrix(2 0 0 2 16 12)" fill="url(#paint0_linear)"/><defs><linearGradient id="paint0_linear" x2="1" gradientUnits="userSpaceOnUse" gradientTransform="matrix(26.0011 0 0 26.2199 .007 2.857)"><stop stop-color="#316BAE"/><stop offset="1" stop-color="#C82F3F"/></linearGradient></defs></svg>