<svg width="48" height="50" fill="none" xmlns="http://www.w3.org/2000/svg"><path d="M21.78 25.002c0 1.573 1.295 2.816 2.85 2.816 1.59 0 2.85-1.28 2.85-2.816 0-1.572-1.296-2.815-2.85-2.815-1.592-.036-2.85 1.243-2.85 2.815z" fill="url(#paint0_linear)"/><path d="M32.29 25.003c0 3.071-1.85 5.703-4.552 6.91l.518 1.097c3.109-1.353 5.256-4.46 5.256-8.007 0-3.546-2.147-6.617-5.219-7.97l-.555 1.097c2.702 1.17 4.552 3.802 4.552 6.873z" fill="url(#paint1_linear)"/><path d="M17.005 25.002c0-3.18 1.999-5.922 4.849-7.02l-.556-1.096c-3.22 1.316-5.514 4.46-5.514 8.116 0 3.656 2.294 6.837 5.551 8.117l.518-1.097c-2.85-1.133-4.848-3.839-4.848-7.02z" fill="url(#paint2_linear)"/><path d="M19.559 36.811l.518-1.096c-4.22-1.755-7.217-5.923-7.217-10.713 0-4.789 2.96-8.92 7.143-10.675l-.555-1.097c-4.59 1.974-7.846 6.508-7.846 11.772.037 5.302 3.294 9.835 7.957 11.81z" fill="url(#paint3_linear)"/><path d="M30.144 13.34l-.555 1.097c4.034 1.865 6.81 5.886 6.81 10.566 0 4.716-2.85 8.774-6.959 10.602l.519 1.097c4.515-2.01 7.698-6.508 7.698-11.7 0-5.154-3.11-9.614-7.513-11.662z" fill="url(#paint4_linear)"/><path d="M32.253 9.062l-.555 1.097c5.33 2.705 9.03 8.336 9.03 14.843 0 6.618-3.812 12.321-9.289 14.954l.518 1.096c5.922-2.815 10.03-8.957 10.03-16.086 0-6.983-3.96-13.016-9.734-15.904z" fill="url(#paint5_linear)"/><path d="M8.604 7.636a.735.735 0 0 0-.518.22.7.7 0 0 0 0 1.023.722.722 0 0 0 1.036 0 .7.7 0 0 0 0-1.023.735.735 0 0 0-.518-.22z" fill="url(#paint6_linear)"/><path d="M39.396 7.636a.735.735 0 0 0-.518.22.7.7 0 0 0 0 1.023.722.722 0 0 0 1.036 0 .7.7 0 0 0 0-1.023.735.735 0 0 0-.518-.22z" fill="url(#paint7_linear)"/><path d="M3.57 15.058a.731.731 0 0 0-.665.439c-.148.365.037.768.407.95.37.147.777-.036.962-.402.148-.365-.037-.768-.407-.95-.111 0-.185-.037-.296-.037z" fill="url(#paint8_linear)"/><path d="M44.43 15.058c-.112 0-.186 0-.297.037a.739.739 0 0 0-.407.95.754.754 0 0 0 .962.402.739.739 0 0 0 .407-.95.774.774 0 0 0-.666-.439z" fill="url(#paint9_linear)"/><path d="M1.831 25.258c.409 0 .74-.327.74-.73a.736.736 0 0 0-.74-.732.736.736 0 0 0-.74.731c0 .404.331.731.74.731z" fill="url(#paint10_linear)"/><path d="M46.169 25.258c.409 0 .74-.327.74-.73a.736.736 0 0 0-.74-.732.736.736 0 0 0-.74.731c0 .404.331.731.74.731z" fill="url(#paint11_linear)"/><path d="M3.57 32.57c-.11 0-.185 0-.296.037a.739.739 0 0 0-.407.95.755.755 0 0 0 .963.403.739.739 0 0 0 .407-.95.731.731 0 0 0-.667-.44z" fill="url(#paint12_linear)"/><path d="M44.43 32.57a.731.731 0 0 0-.667.44c-.148.365.037.767.407.95.37.146.778-.037.963-.403.148-.365-.037-.767-.408-.95-.11 0-.221-.037-.296-.037z" fill="url(#paint13_linear)"/><path d="M39.396 39.992a.735.735 0 0 0-.518.22.7.7 0 0 0 0 1.023.721.721 0 0 0 1.036 0 .7.7 0 0 0 0-1.023.735.735 0 0 0-.518-.22z" fill="url(#paint14_linear)"/><path d="M8.604 39.992a.735.735 0 0 0-.518.22.7.7 0 0 0 0 1.023.722.722 0 0 0 1.036 0 .7.7 0 0 0 0-1.023.735.735 0 0 0-.518-.22z" fill="url(#paint15_linear)"/><path d="M18.004 40.029c-5.588-2.596-9.474-8.373-9.474-15.063 0-6.617 3.849-12.358 9.326-14.99l-.555-1.097c-5.921 2.816-10.03 8.958-10.03 16.087 0 7.166 4.183 13.344 10.178 16.16l.555-1.097z" fill="url(#paint16_linear)"/><defs><linearGradient id="paint0_linear" x1="21.772" y1="24.988" x2="27.508" y2="24.988" gradientUnits="userSpaceOnUse"><stop stop-color="#316BAE"/><stop offset="1" stop-color="#C82F3F"/></linearGradient><linearGradient id="paint1_linear" x1="27.743" y1="25" x2="33.516" y2="25" gradientUnits="userSpaceOnUse"><stop stop-color="#914760"/><stop offset="1" stop-color="#C82F3F"/></linearGradient><linearGradient id="paint2_linear" x1="15.763" y1="24.993" x2="21.842" y2="24.993" gradientUnits="userSpaceOnUse"><stop stop-color="#316BAE"/><stop offset="1" stop-color="#5C5A89"/></linearGradient><linearGradient id="paint3_linear" x1="11.633" y1="25.006" x2="20.071" y2="25.006" gradientUnits="userSpaceOnUse"><stop stop-color="#316BAE"/><stop offset="1" stop-color="#5C5A89"/></linearGradient><linearGradient id="paint4_linear" x1="29.453" y1="25.025" x2="37.646" y2="25.025" gradientUnits="userSpaceOnUse"><stop stop-color="#914760"/><stop offset="1" stop-color="#C82F3F"/></linearGradient><linearGradient id="paint5_linear" x1="31.459" y1="25.059" x2="41.982" y2="25.059" gradientUnits="userSpaceOnUse"><stop stop-color="#914760"/><stop offset="1" stop-color="#C82F3F"/></linearGradient><linearGradient id="paint6_linear" x1="7.873" y1="8.355" x2="9.321" y2="8.355" gradientUnits="userSpaceOnUse"><stop stop-color="#316BAE"/><stop offset="1" stop-color="#C82F3F"/></linearGradient><linearGradient id="paint7_linear" x1="38.677" y1="8.356" x2="40.124" y2="8.356" gradientUnits="userSpaceOnUse"><stop stop-color="#316BAE"/><stop offset="1" stop-color="#C82F3F"/></linearGradient><linearGradient id="paint8_linear" x1="2.853" y1="15.778" x2="4.3" y2="15.778" gradientUnits="userSpaceOnUse"><stop stop-color="#316BAE"/><stop offset="1" stop-color="#C82F3F"/></linearGradient><linearGradient id="paint9_linear" x1="43.696" y1="15.778" x2="45.143" y2="15.778" gradientUnits="userSpaceOnUse"><stop stop-color="#316BAE"/><stop offset="1" stop-color="#C82F3F"/></linearGradient><linearGradient id="paint10_linear" x1="1.09" y1="24.533" x2="2.537" y2="24.533" gradientUnits="userSpaceOnUse"><stop stop-color="#316BAE"/><stop offset="1" stop-color="#C82F3F"/></linearGradient><linearGradient id="paint11_linear" x1="45.458" y1="24.533" x2="46.906" y2="24.533" gradientUnits="userSpaceOnUse"><stop stop-color="#316BAE"/><stop offset="1" stop-color="#C82F3F"/></linearGradient><linearGradient id="paint12_linear" x1="2.852" y1="33.288" x2="4.3" y2="33.288" gradientUnits="userSpaceOnUse"><stop stop-color="#316BAE"/><stop offset="1" stop-color="#C82F3F"/></linearGradient><linearGradient id="paint13_linear" x1="43.695" y1="33.288" x2="45.143" y2="33.288" gradientUnits="userSpaceOnUse"><stop stop-color="#316BAE"/><stop offset="1" stop-color="#C82F3F"/></linearGradient><linearGradient id="paint14_linear" x1="38.676" y1="40.71" x2="40.123" y2="40.71" gradientUnits="userSpaceOnUse"><stop stop-color="#316BAE"/><stop offset="1" stop-color="#C82F3F"/></linearGradient><linearGradient id="paint15_linear" x1="7.872" y1="40.711" x2="9.32" y2="40.711" gradientUnits="userSpaceOnUse"><stop stop-color="#316BAE"/><stop offset="1" stop-color="#C82F3F"/></linearGradient><linearGradient id="paint16_linear" x1="7.296" y1="25.021" x2="17.998" y2="25.021" gradientUnits="userSpaceOnUse"><stop stop-color="#316BAE"/><stop offset="1" stop-color="#5C5A89"/></linearGradient></defs></svg>