<svg width="34" height="37" fill="none" xmlns="http://www.w3.org/2000/svg"><path d="M3.28 11.38l-.594-.754L5.45 8.392l.595.755L3.28 11.38zm5.41-2.656l3.33 2.023.505-.845-3.33-2.023-.505.845zm6.183.604l.713.664 3.33-3.712-.714-.664-3.33 3.712zm10.255-2.445l-3.33-2.022-.504.845 3.329 2.022.505-.845zm2.675-.21l.773.603L31.55 3.23l-.773-.603-2.973 4.044zM1.407 11.26a.87.87 0 0 0-.862.875.87.87 0 0 0 .862.875.87.87 0 0 0 .862-.875c0-.483-.356-.875-.862-.875zm5.827-4.89a.87.87 0 0 0-.862.876.87.87 0 0 0 .862.875.87.87 0 0 0 .862-.875.87.87 0 0 0-.862-.876zm6.777 3.924a.87.87 0 0 0-.862.875.87.87 0 0 0 .862.875.87.87 0 0 0 .862-.875.87.87 0 0 0-.862-.875zm6.688-6.006a.87.87 0 0 0-.862-.876.87.87 0 0 0-.862.876.87.87 0 0 0 .862.875.87.87 0 0 0 .862-.875zm6.777 3.923a.87.87 0 0 0-.862-.875.87.87 0 0 0-.862.875.87.87 0 0 0 .862.876.85.85 0 0 0 .862-.876zm4.935-5.976a.87.87 0 0 0 .862-.875c0-.483-.387-.905-.862-.905a.87.87 0 0 0-.862.875c0 .483.386.905.862.905zM.783 36.07H2.27V20.98H.783v15.09zm2.378 0h1.486V25.506H3.161v10.563zm2.378 0h1.486V24.3H5.54v11.77zm2.378 0h1.486V18.262H7.917v17.807zm2.378 0h1.486V20.98h-1.486v15.09zm2.378 0h1.486V25.506h-1.486v10.563zm2.378 0h1.487V24.3H15.05v11.77zm2.378 0h1.487V17.357h-1.487v18.712zm2.378 0h1.487V20.98h-1.487v15.09zm2.378 0h1.487V24.6h-1.487v11.47zm2.378 0h1.486V22.487h-1.486V36.07zm2.378 0h1.486V20.073h-1.486v15.996zm2.378 0h1.486V24.3H29.32v11.77zm2.378 0h1.487V18.262h-1.487v17.807z" fill="url(#paint0_linear)"/><defs><linearGradient id="paint0_linear" x1=".545" y1="18.262" x2="33.289" y2="18.262" gradientUnits="userSpaceOnUse"><stop stop-color="#316BAE"/><stop offset="1" stop-color="#C82F3F"/></linearGradient></defs></svg>