<svg width="48" height="48" fill="none" xmlns="http://www.w3.org/2000/svg">
  <g clip-path="url(#clip0)">
    <path d="M4.2 16.3C3.3 29.83 8.67 40.95 17.62 42c8.96 1.05.06-10.92 17-17 16.95-6.08 1.76-18.4-6.31-20.2C20.22 3 5.13 2.78 4.2 16.3z" fill="#F9FAFC"/>
    <path d="M37.83 18.82c-3.43.1-3.32-4.7-7.2-4.15-3.86.55-3.08 4.88 4.16 9.13 6.36 3.73-5.81 1.66-7.6 8.15-2.37 8.53 8 11.27 12.26 8.8 4.26-2.47 3.55-5.51 5.5-7.96 4.8-6.04-.7-8.05-.7-10.27 0-2.2-2.14-3.84-6.42-3.7z" fill="#DAE0FD"/>
    <path d="M31.87 7.85a2 2 0 104 0 2 2 0 00-4 0z" fill="#375BE9"/>
    <path d="M41.43 16.68a1.5 1.5 0 103 0 1.5 1.5 0 00-3 0z" fill="#375BE9"/>
    <path fill-rule="evenodd" clip-rule="evenodd" d="M20.18 25.86a7.1 7.1 0 1014.21 0 7.1 7.1 0 00-14.2 0zm7.11 5.1a5.1 5.1 0 110-10.21 5.1 5.1 0 010 10.21z" fill="#5275FF"/>
    <path fill-rule="evenodd" clip-rule="evenodd" d="M37.5 30.8l.5-1.22a1.4 1.4 0 011.23-.89h.84c.51 0 1-.41 1.07-.92 0 0 .15-.94.15-1.92 0-.97-.15-1.92-.15-1.92-.08-.5-.56-.92-1.07-.92h-.84a1.4 1.4 0 01-1.23-.88l-.5-1.22a1.38 1.38 0 01.24-1.5l.6-.58c.35-.36.39-.99.06-1.38l-2.7-2.71c-.4-.32-1.02-.3-1.39.07l-.59.59c-.36.36-1.03.47-1.5.24l-1.2-.5a1.4 1.4 0 01-.89-1.23v-.84c0-.5-.41-1-.92-1.07 0 0-.95-.15-1.92-.15s-1.92.15-1.92.15c-.5.08-.92.56-.92 1.07v.84c0 .51-.4 1.07-.89 1.23l-1.21.5c-.46.23-1.13.12-1.5-.24l-.58-.6c-.37-.35-.99-.39-1.39-.06l-2.7 2.7c-.33.4-.3 1.03.07 1.39l.59.59c.36.36.47 1.03.24 1.5l-.5 1.2a1.4 1.4 0 01-1.23.89h-.84c-.51 0-1 .41-1.07.92 0 0-.15.95-.15 1.92 0 .98.15 1.92.15 1.92.07.5.56.92 1.07.92h.84c.5 0 1.06.4 1.23.89l.5 1.21c.23.46.12 1.13-.24 1.5l-.6.58c-.36.37-.39.99-.06 1.39l2.7 2.7c.4.33 1.02.3 1.39-.07l.59-.59a1.38 1.38 0 011.49-.24l1.21.5c.49.17.89.72.89 1.24v.83c0 .51.41 1 .92 1.07 0 0 .95.15 1.92.15s1.92-.15 1.92-.15c.5-.07.92-.56.92-1.07v-.83c0-.52.4-1.07.89-1.24l1.2-.5a1.38 1.38 0 011.5.24l.6.6c.35.36.98.39 1.37.06l2.71-2.7c.33-.4.3-1.02-.07-1.39l-.59-.59a1.38 1.38 0 01-.24-1.49zM39.23 25h.02a10.56 10.56 0 010 1.68h-.02a3.3 3.3 0 00-1.91.64c-.48.34-.94.86-1.19 1.53l-.46 1.12c-.3.65-.34 1.33-.25 1.91.1.57.34 1.2.81 1.7l-1.2 1.2a3.32 3.32 0 00-1.7-.8 3.32 3.32 0 00-1.91.24l-1.12.47c-.68.24-1.2.7-1.53 1.18-.36.5-.64 1.16-.64 1.92v.01a10.56 10.56 0 01-1.68 0v-.01c0-.76-.28-1.42-.64-1.92a3.32 3.32 0 00-1.53-1.18l-1.12-.46a3.31 3.31 0 00-1.91-.25c-.57.09-1.2.33-1.7.8l-1.2-1.2c.47-.5.71-1.13.8-1.7.1-.57.06-1.26-.24-1.91l-.47-1.12a3.32 3.32 0 00-1.18-1.53 3.3 3.3 0 00-1.91-.64h-.02a10.56 10.56 0 010-1.68h.02a3.3 3.3 0 001.9-.64c.48-.34.95-.85 1.2-1.53l.45-1.11c.3-.65.35-1.34.25-1.92-.09-.56-.33-1.19-.8-1.7l1.2-1.2c.5.47 1.13.72 1.7.8.58.1 1.26.06 1.91-.24l1.12-.46a3.32 3.32 0 001.53-1.19c.36-.5.64-1.16.64-1.91v-.02a10.56 10.56 0 011.68 0v.02c0 .75.28 1.42.64 1.91.34.48.85.94 1.53 1.19l1.11.46c.65.3 1.34.34 1.92.25.56-.1 1.2-.34 1.7-.81l1.2 1.2a3.32 3.32 0 00-.8 1.7c-.1.58-.06 1.27.24 1.92l.46 1.11c.25.68.71 1.2 1.19 1.53.5.36 1.16.64 1.91.64z" fill="#5275FF"/>
  </g>
  <defs>
    <clipPath id="clip0">
      <path fill="#fff" d="M0 0h48v48H0z"/>
    </clipPath>
  </defs>
</svg>
