<svg width="48" height="48" fill="none" xmlns="http://www.w3.org/2000/svg"><g clip-path="url(#clip0)"><path d="M4.209 16.303C3.289 29.83 8.66 40.953 17.615 42c8.954 1.049.054-10.92 17-17.001 16.944-6.082 1.757-18.393-6.319-20.2C20.221 2.996 5.128 2.776 4.21 16.304z" fill="#F9FAFC"/><path d="M10.349 13.153c.894-1.663 1.77-2.591 2.684-3.56 1.093-1.156 2.226-2.357 3.66-5.096C18.865.38 21.597-3.455 24.246-7.156l.538-.754c3.628-5.08 7.31-10.291 10.868-15.331l.926-1.312c2.315-3.276 3.896-7.062 5.427-10.726l1.804.748c-1.57 3.758-3.196 7.649-5.632 11.098l-.927 1.312A3349.29 3349.29 0 0 1 26.377-6.777l-.538.754c-2.61 3.65-5.321 7.435-7.415 11.423-1.57 2.982-2.842 4.33-3.97 5.53-1.239 1.315-2.219 2.354-3.36 5.305-1.278 3.306-1.539 4.843-1.844 6.627a42.581 42.581 0 0 1-1.213 5.373c-.422 1.455-.74 2.533-1.006 3.43-.786 2.658-1.628 5.51-2.68 9.709L3.01 39.03c1.06-4.233 1.357-5.239 2.149-7.928.265-.896.584-1.974 1-3.421.693-2.382.93-3.793 1.164-5.155.321-1.888.597-3.516 1.946-7.005.367-.93.722-1.705 1.079-2.369z" fill="#375BE9"/><path d="M37.827 18.818c-3.429.11-3.319-4.7-7.19-4.147-3.87.554-3.085 4.88 4.148 9.125 6.36 3.733-5.806 1.66-7.604 8.157-2.358 8.523 8.014 11.271 12.27 8.8 4.257-2.472 3.546-5.516 5.493-7.964 4.806-6.041-.703-8.053-.703-10.265 0-2.212-2.128-3.844-6.414-3.706z" fill="#DAE0FD"/><path d="M31.874 7.852a2 2 0 1 0 4 0 2 2 0 0 0-4 0zM41.426 16.682a1.5 1.5 0 1 0 3 0 1.5 1.5 0 0 0-3 0z" fill="#375BE9"/><path fill-rule="evenodd" clip-rule="evenodd" d="M20.185 25.855a7.105 7.105 0 1 0 14.21 0 7.105 7.105 0 0 0-14.21 0zm7.105 5.105a5.105 5.105 0 1 1 0-10.21 5.105 5.105 0 0 1 0 10.21z" fill="#5275FF"/><path fill-rule="evenodd" clip-rule="evenodd" d="M37.5 30.791l.5-1.212c.164-.487.719-.885 1.232-.885h.834c.514 0 .998-.415 1.076-.923 0 0 .147-.945.147-1.92 0-.973-.147-1.919-.147-1.919a1.127 1.127 0 0 0-1.076-.922h-.833c-.514 0-1.068-.398-1.232-.885l-.5-1.212c-.23-.46-.122-1.131.24-1.494l.59-.59c.363-.363.395-.985.07-1.383l-2.706-2.706a1.057 1.057 0 0 0-1.383.07l-.59.59c-.363.363-1.035.471-1.493.24l-1.213-.5c-.486-.164-.884-.718-.884-1.231v-.835c0-.513-.416-.998-.923-1.076 0 0-.946-.146-1.92-.146s-1.92.146-1.92.146a1.127 1.127 0 0 0-.922 1.076v.834c0 .513-.398 1.068-.884 1.231l-1.213.501c-.46.23-1.131.122-1.494-.24l-.59-.59a1.058 1.058 0 0 0-1.383-.07l-2.706 2.705a1.058 1.058 0 0 0 .07 1.383l.59.59c.363.363.471 1.035.24 1.494l-.5 1.213c-.164.486-.719.884-1.232.884h-.833c-.514 0-.998.415-1.076.922 0 0-.147.947-.147 1.92 0 .975.147 1.92.147 1.92.078.508.562.923 1.076.923h.833c.514 0 1.068.398 1.232.885l.5 1.212c.23.46.122 1.131-.24 1.494l-.59.59a1.057 1.057 0 0 0-.07 1.383l2.706 2.706c.398.324 1.02.293 1.383-.07l.59-.59c.363-.363 1.035-.472 1.494-.24l1.213.5c.486.163.884.718.884 1.231v.834c0 .513.415.998.922 1.076 0 0 .946.147 1.92.147s1.92-.147 1.92-.147c.507-.078.922-.563.922-1.076v-.834c0-.513.398-1.068.885-1.232l1.212-.5c.46-.23 1.131-.123 1.494.24l.59.59c.363.364.985.395 1.383.07l2.706-2.705a1.057 1.057 0 0 0-.07-1.383l-.59-.59c-.364-.363-.472-1.035-.24-1.494zm1.733-5.781h.019c.021.261.037.555.037.842 0 .287-.016.58-.037.842h-.02a3.31 3.31 0 0 0-1.914.636 3.325 3.325 0 0 0-1.185 1.531l-.46 1.116a3.316 3.316 0 0 0-.25 1.915c.091.565.337 1.191.808 1.707l-1.195 1.195a3.322 3.322 0 0 0-1.707-.808 3.32 3.32 0 0 0-1.914.249l-1.116.46a3.321 3.321 0 0 0-1.533 1.187 3.31 3.31 0 0 0-.635 1.913v.02c-.261.02-.555.037-.842.037-.287 0-.58-.016-.842-.038v-.019c0-.753-.28-1.42-.635-1.913a3.322 3.322 0 0 0-1.532-1.186l-1.116-.46a3.314 3.314 0 0 0-1.915-.25 3.325 3.325 0 0 0-1.707.808L18.347 33.6a3.323 3.323 0 0 0 .807-1.707 3.318 3.318 0 0 0-.249-1.914l-.46-1.117a3.322 3.322 0 0 0-1.186-1.532 3.309 3.309 0 0 0-1.914-.635h-.019a10.561 10.561 0 0 1-.037-.842c0-.288.016-.581.037-.843h.02a3.31 3.31 0 0 0 1.913-.636 3.322 3.322 0 0 0 1.185-1.53l.46-1.117c.303-.65.343-1.338.25-1.915a3.323 3.323 0 0 0-.808-1.707l1.195-1.195a3.323 3.323 0 0 0 1.707.808 3.317 3.317 0 0 0 1.915-.25l1.117-.46a3.323 3.323 0 0 0 1.532-1.186 3.31 3.31 0 0 0 .635-1.913v-.02c.262-.02.555-.036.842-.036.287 0 .581.015.843.037v.02c0 .753.28 1.42.635 1.913.34.475.856.937 1.531 1.186l1.117.46c.65.302 1.337.342 1.914.25a3.324 3.324 0 0 0 1.708-.808l1.194 1.195a3.323 3.323 0 0 0-.807 1.707 3.317 3.317 0 0 0 .249 1.913l.46 1.117c.249.676.71 1.191 1.186 1.533a3.31 3.31 0 0 0 1.914.635z" fill="#5275FF"/></g><defs><clipPath id="clip0"><path fill="#fff" d="M0 0h48v48H0z"/></clipPath></defs></svg>