<svg width="48" height="48" fill="none" xmlns="http://www.w3.org/2000/svg"><g clip-path="url(#clip0)"><path d="M2.5 15c-.919 13.527 3.046 22.453 12 23.501 8.955 1.05 3.555-4.418 20.5-10.5C51.946 21.92 33.5-1.502 26.5 6c-7 7.501-23.08-4.527-24 9z" fill="#F9FAFC"/><path d="M-1.588 18.613c1.559-1.064 2.764-1.485 4.021-1.925 1.503-.523 3.062-1.068 5.595-2.84 3.825-2.654 5.294-7.465 9.35-9.532l.825-.422c5.56-2.839 14.502-1.915 19.98-4.752l1.427-.738c3.562-1.843 6.154-5.667 9.2-8.215l1.257 1.495c-3.125 2.613-5.803 6.51-9.554 8.45l-1.426.738c-5.482 2.84-14.43 1.92-19.992 4.761l-.826.422c-3.997 2.039-5.425 6.816-9.12 9.393-2.765 1.925-4.516 2.535-6.068 3.08-1.706.599-3.055 1.07-5.427 3.164-2.656 2.346-3.594 3.59-4.687 5.035a42.587 42.587 0 0 1-3.55 4.21 578.184 578.184 0 0 1-2.471 2.582c-1.922 1.999-2.637 2.748-5.504 5.99-1.84 2.084-2.65 3.317-3.432 4.514-.835 1.274-1.7 2.6-3.726 4.828l-1.443-1.315c1.923-2.118 2.71-3.317 3.54-4.589.821-1.252 1.671-2.548 3.604-4.738 2.89-3.27 3.617-4.026 5.558-6.05.648-.673 1.427-1.483 2.463-2.576 1.711-1.795 2.571-2.939 3.406-4.04 1.154-1.528 2.148-2.847 4.952-5.324a22.206 22.206 0 0 1 2.048-1.606z" fill="#1BAD44"/><path d="M80.352-139.314l-23.672-.504c-21.915-.463-48.09-1.02-65.473-1.393C-59.21-85.656-92.862-33.803-108.826 12.929c-13.918 40.745-14.216 76.716-.884 106.915 20.824 47.168 77.063 77.654 143.275 77.67h.048c67.584.002 124.946-31.234 146.161-79.588 13.232-30.16 12.99-65.826-.723-106.008-15.72-46.068-48.924-96.943-98.699-151.232zm-42.53 272.439c-46.736 0-84.759-38.029-84.759-84.773 0-46.744 38.022-84.773 84.76-84.773 46.744 0 84.774 38.029 84.774 84.773 0 46.744-38.03 84.773-84.775 84.773z" fill="#000"/><path d="M24.302 40.28c2.135-1.303-5.435-5.956-5.19-8.37.278-2.043 3.47-4.107 6.218-3.44 3.436.833 4.785-4.634 2.131-6.685-2.879-2.226-3.386 2.278-7.659-.505-6.409-4.175-3 5.5-8.5 8.5s2.5 11.499 5.5 8.999 5.365 2.803 7.5 1.5z" fill="#D6F6D6"/><path fill-rule="evenodd" clip-rule="evenodd" d="M29.24 11.988a7.063 7.063 0 0 1 2.244-.352c.727 0 1.489.098 2.323.297-.169 1.976-1.01 4.045-3.098 5.934a.96.96 0 0 1-.646.243h-6.29a1 1 0 0 1-.917-.601l-2.551-5.873c.636-.253 1.28-.445 1.93-.578a10.686 10.686 0 0 1 4.355.014c.676.144 1.494.466 2.245.883a.53.53 0 0 0 .405.033zm-3.065 1.041c.44.093 1.07.33 1.687.674l-1.687-.674zm1.687.674a2.527 2.527 0 0 0 2.003.184c.472-.155.96-.24 1.503-.25-.333.82-.874 1.653-1.71 2.473h-5.229l-1.376-3.168a8.626 8.626 0 0 1 3.122.087" fill="#26C953"/><path d="M32.731 27.598a1 1 0 1 0-1.76.949c1.771 3.291 1.55 4.922 1.073 5.678-.05.079-.106.153-.167.224-.555.637-1.557.933-2.623.933a1 1 0 1 0 0 2c1.413 0 3.423-.415 4.48-2.09.06-.093.115-.189.166-.288.886-1.701.592-4.135-1.169-7.406z" fill="#26C953"/><path fill-rule="evenodd" clip-rule="evenodd" d="M29.942 19.15c.25 0 .49.094.674.263 3.852 3.553 6.36 6.681 7.598 9.714 1.106 2.711 1.067 5.47 0 7.505C36.502 39.894 31.874 42 26.423 42h-.004c-5.341-.001-9.878-2.058-11.558-5.24-1.075-2.037-1.051-4.464.072-7.212 1.257-3.078 4.144-6.486 8.065-10.133a.995.995 0 0 1 .677-.266h6.267zm6.42 10.733c.934 2.29.817 4.417.08 5.82C35.23 38.016 31.53 40 26.424 40h-.003c-4.999-.001-8.61-1.938-9.79-4.174-.723-1.37-.814-3.15.154-5.522 1.056-2.585 3.562-5.653 7.287-9.155h5.477c3.6 3.362 5.768 6.17 6.814 8.733z" fill="#26C953"/></g><defs><clipPath id="clip0"><path fill="#fff" d="M0 0h48v48H0z"/></clipPath></defs></svg>