<svg width="48" height="48" fill="none" xmlns="http://www.w3.org/2000/svg">
  <g clip-path="url(#clip0)">
    <path d="M2.5 15c-.92 13.53 3.05 22.45 12 23.5 8.95 1.05 3.55-4.42 20.5-10.5S33.5-1.5 26.5 6s-23.08-4.53-24 9z" fill="#F9FAFC"/>
    <path d="M80.35-139.31l-23.67-.5-65.47-1.4C-59.21-85.66-92.86-33.81-108.83 12.93c-13.91 40.74-14.21 76.72-.88 106.91 20.82 47.17 77.06 77.66 143.27 77.67h.05c67.59 0 124.95-31.23 146.16-79.58 13.24-30.16 13-65.83-.72-106.01-15.72-46.07-48.92-96.94-98.7-151.23zM37.82 133.12c-46.73 0-84.76-38.02-84.76-84.77 0-46.74 38.03-84.77 84.76-84.77 46.75 0 84.78 38.03 84.78 84.77 0 46.75-38.03 84.78-84.78 84.78z" fill="#000"/>
    <path d="M24.3 40.28c2.14-1.3-5.43-5.96-5.19-8.37.28-2.04 3.47-4.1 6.22-3.44 3.44.83 4.79-4.63 2.13-6.69-2.88-2.22-3.39 2.28-7.66-.5-6.4-4.17-3 5.5-8.5 8.5s2.5 11.5 5.5 9 5.37 2.8 7.5 1.5z" fill="#D6F6D6"/>
    <path fill-rule="evenodd" clip-rule="evenodd" d="M29.24 11.99a7.06 7.06 0 012.24-.35c.73 0 1.5.1 2.33.3a8.84 8.84 0 01-3.1 5.93.96.96 0 01-.65.24h-6.29a1 1 0 01-.91-.6l-2.56-5.87a11.45 11.45 0 014.08-.8 8.53 8.53 0 014.46 1.12c.1.06.27.07.4.03zm-3.07 1.04c.45.1 1.08.33 1.7.67l-1.7-.67zm1.7.67c.63.36 1.38.39 2 .19.47-.16.95-.24 1.5-.25a7.34 7.34 0 01-1.71 2.47h-5.23l-1.38-3.17a8.63 8.63 0 013.12.09" fill="#26C953"/>
    <path d="M32.73 27.6a1 1 0 10-1.76.95c1.77 3.29 1.55 4.92 1.07 5.67l-.16.23c-.56.64-1.56.93-2.63.93a1 1 0 100 2c1.42 0 3.43-.41 4.48-2.09a4 4 0 00.17-.29c.89-1.7.6-4.13-1.17-7.4z" fill="#26C953"/>
    <path fill-rule="evenodd" clip-rule="evenodd" d="M29.94 19.15a1 1 0 01.68.26c3.85 3.56 6.36 6.68 7.6 9.72 1.1 2.7 1.06 5.47 0 7.5C36.5 39.9 31.86 42 26.41 42c-5.34 0-9.88-2.06-11.56-5.24-1.07-2.04-1.05-4.46.07-7.21 1.26-3.08 4.15-6.49 8.07-10.13a1 1 0 01.68-.27h6.26zm6.42 10.73c.94 2.3.82 4.42.08 5.82-1.21 2.32-4.91 4.3-10.02 4.3-5 0-8.61-1.94-9.79-4.17-.72-1.37-.81-3.15.15-5.52 1.06-2.59 3.57-5.66 7.3-9.16h5.47c3.6 3.36 5.77 6.17 6.81 8.73z" fill="#26C953"/>
  </g>
  <defs>
    <clipPath id="clip0">
      <path fill="#fff" d="M0 0h48v48H0z"/>
    </clipPath>
  </defs>
</svg>
