<svg width="48" height="48" fill="none" xmlns="http://www.w3.org/2000/svg"><g clip-path="url(#clip0)"><path d="M4.209 16.303C3.289 29.83 8.66 40.953 17.615 42c8.954 1.049.054-10.92 17-17.001 16.944-6.082 1.757-18.393-6.319-20.2C20.221 2.996 5.128 2.776 4.21 16.304z" fill="#F9FAFC"/><path d="M8.565 16.385c1.311-1.359 2.406-2.015 3.549-2.7 1.365-.817 2.781-1.666 4.903-3.914 3.209-3.374 6.877-6.325 10.43-9.17l.723-.58A3346.48 3346.48 0 0 0 42.785-11.79l1.248-1.011c3.115-2.526 5.663-5.743 8.13-8.854l1.534 1.208c-2.53 3.193-5.15 6.497-8.429 9.157l-1.248 1.012c-4.793 3.89-9.753 7.913-14.625 11.822l-.723.58C25.17 4.93 21.536 7.839 18.44 11.11c-2.32 2.445-3.91 3.398-5.32 4.246-1.55.931-2.774 1.666-4.673 4.197-2.126 2.835-2.793 4.244-3.57 5.88a42.583 42.583 0 0 1-2.624 4.842c-.8 1.287-1.4 2.238-1.898 3.029-1.477 2.346-2.025 3.224-4.177 6.98-1.38 2.413-1.923 3.785-2.446 5.115-.56 1.417-1.14 2.89-2.671 5.483l-1.68-.995c1.455-2.464 1.981-3.798 2.538-5.211.55-1.393 1.12-2.834 2.57-5.37 2.168-3.787 2.726-4.676 4.217-7.05.498-.79 1.097-1.742 1.89-3.022 1.313-2.105 1.923-3.398 2.517-4.647.82-1.73 1.528-3.222 3.772-6.215a22.203 22.203 0 0 1 1.68-1.987z" fill="#FD9317"/><path d="M29 23c-3.2 2-2.498 6 0 8 2.5 2 1.8 5.599 5 5.999 4 .5-.097-.163 3 5 1.5 2.5 4.5-3.5 4.5-5s1-5.5 0-9-2-2.5-3 1.5-3.5.5-4.5 0 0-4 0-7.5-1-1.5-5 1z" fill="#FFE7CA"/><path fill-rule="evenodd" clip-rule="evenodd" d="M39.167 24.832c.267 4.175-1.6 6.976-3.026 6.319-.938-.434-.828-1.86-.828-1.86a23.071 23.071 0 0 0-.688-9.053 12.018 12.018 0 0 0-3.313-5.13A8.786 8.786 0 0 0 28.235 13a9.046 9.046 0 0 1-1.843 5.983 25.123 25.123 0 0 1-2.328 3.007l-.017.019C21.799 24.532 19 27.675 19 32.297c0 4.289 2.847 8.35 6.78 10.441.357.19.724.364 1.098.52.792.33 1.618.582 2.466.742a4.917 4.917 0 0 1-1.964-2.702 4.846 4.846 0 0 1-.13-.584s-.692-2.69 1.3-6.751c.366-.745.821-1.535 1.387-2.363 0 0 0 .986.888 2.343.556.85 1.458 1.844 2.925 2.834a4.262 4.262 0 0 1 1.48 1.55 4.22 4.22 0 0 1-.017 4.135A4.264 4.264 0 0 1 33.719 44a12.457 12.457 0 0 0 2.688-.86c.31-.139.613-.29.91-.451C41.188 40.58 44 36.56 44 32.297a13.751 13.751 0 0 0-2.894-8.25 13.895 13.895 0 0 0-2.169-2.227l-.406-.326c.064.203.123.405.177.605l.002.005c.257.955.402 1.87.457 2.728zM42 32.312a11.749 11.749 0 0 0-.981-4.525c-.102.61-.246 1.18-.425 1.704-.372 1.088-.941 2.109-1.733 2.818-.81.725-2.138 1.313-3.558.658l-.003-.002c-1.317-.61-1.74-1.842-1.879-2.48a4.997 4.997 0 0 1-.107-1.287l.002-.035.002-.014v-.01s0-.002 1.995.152l-1.995-.154.01-.09a21.07 21.07 0 0 0-.617-8.226 10.018 10.018 0 0 0-2.749-4.238 2.01 2.01 0 0 1-.104-.102l-.018-.02a11.084 11.084 0 0 1-1.816 3.678 27.116 27.116 0 0 1-2.473 3.186C23.248 25.912 21 28.525 21 32.298c0 2.883 1.652 5.763 4.147 7.669a11.27 11.27 0 0 1 .093-2.07c.256-1.918 1.041-4.493 3.047-7.426a2 2 0 0 1 3.65 1.059c.001.016.006.052.018.107.028.133.095.38.255.707.311.635 1.016 1.66 2.63 2.756a6.26 6.26 0 0 1 2.138 2.256 6.22 6.22 0 0 1 .776 2.685c2.54-1.902 4.24-4.809 4.246-7.73z" fill="#FFAD4D"/><path d="M22.146 12.175c-.163 1.456-1.47 2.42-3.097 4.17a4.788 4.788 0 0 0-1.011 2.013 5.063 5.063 0 0 0-.014 2.295c6.675-3.081 4.122-8.478 4.122-8.478z" fill="#FD9317"/></g><defs><clipPath id="clip0"><path fill="#fff" d="M0 0h48v48H0z"/></clipPath></defs></svg>