<svg width="48" height="48" fill="none" xmlns="http://www.w3.org/2000/svg">
  <g clip-path="url(#clip0)">
    <path d="M4.2 16.3C3.3 29.83 8.67 40.95 17.62 42c8.96 1.05.06-10.92 17-17 16.95-6.08 1.76-18.4-6.31-20.2C20.22 3 5.13 2.78 4.2 16.3z" fill="#F9FAFC"/>
    <path d="M29 23c-3.2 2-2.5 6 0 8s1.8 5.6 5 6c4 .5-.1-.16 3 5 1.5 2.5 4.5-3.5 4.5-5s1-5.5 0-9-2-2.5-3 1.5-3.5.5-4.5 0 0-4 0-7.5-1-1.5-5 1z" fill="#FFE7CA"/>
    <path fill-rule="evenodd" clip-rule="evenodd" d="M39.17 24.83c.26 4.18-1.6 6.98-3.03 6.32-.94-.43-.83-1.86-.83-1.86.38-3.03.14-6.1-.69-9.05a12.02 12.02 0 00-3.3-5.13A8.79 8.79 0 0028.22 13a9.05 9.05 0 01-1.84 5.98A25.12 25.12 0 0124.06 22l-.01.02C21.8 24.53 19 27.67 19 32.3c0 4.29 2.85 8.35 6.78 10.44A13.05 13.05 0 0029.34 44a4.92 4.92 0 01-2.09-3.29s-.7-2.69 1.3-6.75c.37-.74.82-1.53 1.39-2.36 0 0 0 .99.89 2.34.55.85 1.45 1.85 2.92 2.84a4.26 4.26 0 011.91 4.5A4.23 4.23 0 0133.72 44a12.46 12.46 0 003.6-1.31c3.87-2.1 6.68-6.13 6.68-10.4a13.75 13.75 0 00-5.06-10.47l-.4-.33.17.6v.01c.26.96.4 1.87.46 2.73zM42 32.31c-.02-1.56-.36-3.1-.98-4.52-.1.6-.25 1.18-.43 1.7a6.65 6.65 0 01-1.73 2.82c-.8.72-2.14 1.31-3.56.66a3.47 3.47 0 01-1.88-2.48 5 5 0 01-.1-1.3v-.05l2 .15-2-.15a21.07 21.07 0 00-.6-8.32 10.02 10.02 0 00-2.86-4.34l-.02-.02a11.08 11.08 0 01-1.82 3.68 27.12 27.12 0 01-2.47 3.19C23.25 25.9 21 28.53 21 32.3c0 2.88 1.65 5.76 4.15 7.67-.03-.54-.02-1.24.09-2.07.26-1.92 1.04-4.5 3.05-7.43a2 2 0 013.65 1.06l.01.1c.03.14.1.39.26.71a7.42 7.42 0 002.63 2.76 6.26 6.26 0 012.91 4.94c2.54-1.9 4.24-4.8 4.25-7.73z" fill="#FFAD4D"/>
    <path d="M22.15 12.17c-.17 1.46-1.47 2.42-3.1 4.18a5.06 5.06 0 00-1.02 4.3c6.67-3.08 4.12-8.48 4.12-8.48z" fill="#FD9317"/>
  </g>
  <defs>
    <clipPath id="clip0">
      <path fill="#fff" d="M0 0h48v48H0z"/>
    </clipPath>
  </defs>
</svg>
