<svg width="48" height="48" fill="none" xmlns="http://www.w3.org/2000/svg">
  <g clip-path="url(#clip0)">
    <path d="M13.71 5.51c-11.8-1.77-8.12 26.75.13 30.4 8.24 3.65 3.24-7.29 21.22-8.08 18-.8 6.53-19.12-.65-23.23-7.18-4.12-8.9 2.68-20.7.91z" fill="#F9FAFC"/>
    <path d="M24.39 16c-3.36.11-3.43 4.48-8.8 5.97-5.38 1.5-9.29 5.47-6.85 11.94 2.45 6.46 9.64 8.55 13.8 6.09 4.16-2.46 3.47-5.49 5.37-7.92 4.7-6.01 0-5.42 0-7.62s.67-8.6-3.52-8.46z" fill="#F0EEFF"/>
    <path fill-rule="evenodd" clip-rule="evenodd" d="M35.74 20.83c-1.1-4.37-4.86-7.81-9.74-8.66v8.66h9.74zM24.68 10c7.04.46 12.64 5.58 13.32 12.18a.58.58 0 01-.17.46c-.12.12-.29.2-.47.2H24.64c-.36 0-.64-.28-.64-.6V10.6c0-.17.07-.33.2-.44.13-.11.3-.17.48-.16z" fill="#8358FF"/>
    <path fill-rule="evenodd" clip-rule="evenodd" d="M12.6 31.81a.64.64 0 00-.12.93A14.4 14.4 0 0023.63 38c7.5 0 13.81-5.85 14.37-13.31a.64.64 0 00-.64-.69H24a.63.63 0 00-.37.12l-11.01 7.7zM35.8 26H24.42l-9.38 6.56c2.3 2.2 5.36 3.44 8.6 3.44 5.95 0 11.05-4.3 12.18-10z" fill="#8358FF"/>
    <path fill-rule="evenodd" clip-rule="evenodd" d="M22.58 23.75c.16-.12.25-.3.25-.5V10.61a.62.62 0 00-.2-.46.6.6 0 00-.46-.16A13.74 13.74 0 0010 23.84c0 2.39.61 4.76 1.77 6.85a.6.6 0 00.52.31c.12 0 .24-.04.35-.11l9.94-7.14zm-9.74 4.53a12.19 12.19 0 01-.84-4.44 11.8 11.8 0 018.83-11.58v10.28l-7.99 5.74zm8.57-6.16z" fill="#8358FF"/>
    <path fill-rule="evenodd" clip-rule="evenodd" d="M34 9a1 1 0 011-1h5.06a1 1 0 110 2H35a1 1 0 01-1-1z" fill="#8358FF"/>
    <path fill-rule="evenodd" clip-rule="evenodd" d="M1 22a1 1 0 011-1h3a1 1 0 110 2H2a1 1 0 01-1-1z" fill="#8358FF"/>
    <path fill-rule="evenodd" clip-rule="evenodd" d="M38 36a1 1 0 011-1h5.06a1 1 0 110 2H39a1 1 0 01-1-1z" fill="#8358FF"/>
    <path fill-rule="evenodd" clip-rule="evenodd" d="M38 39a1 1 0 011-1h3a1 1 0 110 2h-3a1 1 0 01-1-1z" fill="#8358FF"/>
  </g>
  <defs>
    <clipPath id="clip0">
      <path fill="#fff" d="M0 0h48v48H0z"/>
    </clipPath>
  </defs>
</svg>
