<svg width="16" height="16" fill="none" xmlns="http://www.w3.org/2000/svg"><rect width="16" height="16" rx="2" fill="#FFE6E6"/><path d="M5.994 7.52c-.44 0-.793-.116-1.06-.35-.26-.233-.403-.55-.43-.95a8.02 8.02 0 0 1-.01-.45c0-.2.003-.36.01-.48.027-.413.167-.74.42-.98s.61-.36 1.07-.36c.46 0 .817.12 1.07.36.26.24.403.567.43.98.013.24.02.4.02.48 0 .074-.007.224-.02.45-.027.4-.173.717-.44.95-.26.234-.613.35-1.06.35zM5.184 11a.242.242 0 0 1-.16-.05.204.204 0 0 1-.06-.15.17.17 0 0 1 .04-.11l4.93-6.5a.566.566 0 0 1 .15-.14.341.341 0 0 1 .2-.05h.53c.067 0 .117.02.15.06.04.034.06.08.06.14a.17.17 0 0 1-.04.11l-4.93 6.5a.789.789 0 0 1-.15.15.383.383 0 0 1-.19.04h-.53zm.81-4.23c.193 0 .333-.056.42-.17a.805.805 0 0 0 .17-.43c.013-.226.02-.366.02-.42 0-.073-.007-.21-.02-.41a.748.748 0 0 0-.16-.43c-.093-.12-.237-.18-.43-.18-.187 0-.327.06-.42.18a.748.748 0 0 0-.16.43c-.007.1-.01.237-.01.41 0 .167.003.307.01.42.013.167.063.31.15.43.093.114.237.17.43.17zm4 4.29c-.44 0-.793-.12-1.06-.36-.26-.246-.403-.573-.43-.98a8.02 8.02 0 0 1-.01-.45c0-.193.003-.35.01-.47.027-.413.167-.74.42-.98s.61-.36 1.07-.36c.467 0 .827.12 1.08.36.254.24.393.567.42.98.014.24.02.397.02.47 0 .074-.006.224-.02.45-.027.407-.173.733-.44.98-.26.24-.613.36-1.06.36zm0-.78c.2 0 .344-.056.43-.17a.785.785 0 0 0 .16-.43c.014-.226.02-.37.02-.43 0-.066-.006-.2-.02-.4a.747.747 0 0 0-.16-.43c-.093-.12-.236-.18-.43-.18-.187 0-.327.06-.42.18a.748.748 0 0 0-.16.43c-.007.1-.01.234-.01.4 0 .174.003.317.01.43.013.167.063.31.15.43.093.114.237.17.43.17z" fill="#FF5B5B"/></svg>