<svg width="16" height="16" fill="none" xmlns="http://www.w3.org/2000/svg"><rect width="16" height="16" rx="1" fill="#FFE6E6"/><path d="M0 1a1 1 0 0 1 1-1h7v16H1a1 1 0 0 1-1-1V1z" fill="#E3FBE3"/><path d="M2.52 8.071c-.317 0-.57-.082-.762-.245a.938.938 0 0 1-.315-.672 5.165 5.165 0 0 1-.014-.294c0-.056.004-.177.014-.364.014-.285.114-.511.3-.679.187-.168.446-.252.778-.252.326 0 .583.084.77.252.186.168.287.394.3.679.01.187.015.308.015.364 0 .056-.005.154-.014.294a.938.938 0 0 1-.315.672c-.192.163-.444.245-.756.245zM1.96 10.5a.2.2 0 0 1-.118-.035.142.142 0 0 1-.042-.105.12.12 0 0 1 .028-.077l3.458-4.55a.396.396 0 0 1 .105-.098.239.239 0 0 1 .14-.035h.497c.046 0 .084.014.112.042a.114.114 0 0 1 .049.098.12.12 0 0 1-.028.077l-3.458 4.55a.552.552 0 0 1-.105.105.285.285 0 0 1-.14.028H1.96zm.56-3.038c.197 0 .304-.114.323-.343.01-.15.014-.247.014-.294 0-.06-.005-.156-.014-.287a.403.403 0 0 0-.091-.252c-.052-.065-.129-.098-.231-.098-.108 0-.187.033-.238.098a.467.467 0 0 0-.091.252 4.358 4.358 0 0 0-.007.287c0 .121.002.22.007.294.018.229.128.343.329.343zm2.962 3.073c-.318 0-.572-.082-.763-.245-.187-.168-.292-.394-.315-.679a5.776 5.776 0 0 1-.007-.322c0-.14.002-.252.007-.336.018-.29.119-.518.3-.686.187-.168.446-.252.778-.252.331 0 .588.084.77.252.186.168.29.397.308.686.01.187.014.308.014.364 0 .056-.005.154-.014.294a.938.938 0 0 1-.315.672c-.192.168-.446.252-.763.252zm0-.616c.107 0 .186-.033.238-.098a.497.497 0 0 0 .09-.252c.01-.14.015-.238.015-.294 0-.06-.005-.156-.014-.287a.457.457 0 0 0-.091-.245c-.052-.07-.13-.105-.238-.105-.108 0-.187.035-.238.105a.418.418 0 0 0-.084.245 4.358 4.358 0 0 0-.007.287c0 .126.002.224.007.294.01.103.037.187.084.252.051.065.13.098.238.098z" fill="#26C953"/><path d="M10.52 8.071c-.317 0-.57-.082-.762-.245a.938.938 0 0 1-.315-.672 5.165 5.165 0 0 1-.014-.294c0-.056.004-.177.014-.364.014-.285.114-.511.3-.679.187-.168.446-.252.778-.252.326 0 .583.084.77.252.186.168.287.394.3.679.01.187.015.308.015.364 0 .056-.005.154-.014.294a.938.938 0 0 1-.315.672c-.192.163-.444.245-.756.245zM9.96 10.5a.2.2 0 0 1-.118-.035.142.142 0 0 1-.042-.105.12.12 0 0 1 .028-.077l3.458-4.55a.395.395 0 0 1 .105-.098.238.238 0 0 1 .14-.035h.497c.046 0 .084.014.112.042a.114.114 0 0 1 .049.098.12.12 0 0 1-.028.077l-3.458 4.55a.556.556 0 0 1-.105.105.286.286 0 0 1-.14.028H9.96zm.56-3.038c.197 0 .304-.114.323-.343.01-.15.014-.247.014-.294 0-.06-.005-.156-.014-.287a.403.403 0 0 0-.091-.252c-.052-.065-.129-.098-.231-.098-.108 0-.187.033-.238.098a.466.466 0 0 0-.091.252 4.337 4.337 0 0 0-.007.287c0 .121.002.22.007.294.018.229.128.343.329.343zm2.962 3.073c-.318 0-.572-.082-.763-.245-.187-.168-.292-.394-.315-.679a5.747 5.747 0 0 1-.007-.322c0-.14.002-.252.007-.336.018-.29.119-.518.3-.686.187-.168.446-.252.778-.252.331 0 .588.084.77.252.186.168.29.397.308.686.01.187.014.308.014.364 0 .056-.005.154-.014.294a.938.938 0 0 1-.315.672c-.192.168-.446.252-.763.252zm0-.616c.107 0 .186-.033.238-.098a.498.498 0 0 0 .09-.252c.01-.14.015-.238.015-.294 0-.06-.005-.156-.014-.287a.458.458 0 0 0-.091-.245c-.052-.07-.13-.105-.238-.105-.108 0-.187.035-.238.105a.417.417 0 0 0-.084.245 4.337 4.337 0 0 0-.007.287c0 .126.002.224.007.294.01.103.037.187.084.252.051.065.13.098.238.098z" fill="#FF5B5B"/></svg>