<svg width="18" height="14" fill="none" xmlns="http://www.w3.org/2000/svg"><path fill-rule="evenodd" clip-rule="evenodd" d="M9 5.25a1.75 1.75 0 1 0 0 3.5 1.75 1.75 0 0 0 0-3.5zM5.75 7a3.25 3.25 0 1 1 6.5 0 3.25 3.25 0 0 1-6.5 0zM5.099.55a.75.75 0 0 1-.15 1.05A6.74 6.74 0 0 0 2.25 7a6.74 6.74 0 0 0 2.7 5.4.75.75 0 1 1-.901 1.2A8.24 8.24 0 0 1 .75 7 8.24 8.24 0 0 1 4.049.4a.75.75 0 0 1 1.05.15zm7.802 0a.75.75 0 0 1 1.05-.15A8.24 8.24 0 0 1 17.25 7a8.24 8.24 0 0 1-3.299 6.6.75.75 0 1 1-.9-1.2A6.74 6.74 0 0 0 15.75 7a6.74 6.74 0 0 0-2.7-5.4.75.75 0 0 1-.149-1.05z" fill="#14C393"/></svg>