<svg width="67" height="66" viewBox="0 0 67 66" fill="none" xmlns="http://www.w3.org/2000/svg">
<path d="M16.0001 18C13.0855 14.3564 17.2156 9.89633 21.3066 9.07474C25.3976 8.25315 25.6022 15.1121 24 17.5C21.5113 21.2091 17.9999 20.5 16.0001 18Z" fill="#8AFFC2"/>
<path d="M1.5 45.5C-0.5 37 4.5 38 6 41C13.3971 55.7941 26.8231 56.049 39.5 53C51.5 50.1138 58.3842 38.0174 56.0107 28.5225C55.0108 24.5224 55.5107 16.5224 59.0107 17.0224C62.5107 17.5224 67.0107 26.023 66.0107 35.523C65.0107 45.023 63.5106 50.5229 58.5107 56.0229C54.4467 60.4934 39.2374 65.0229 32.5106 65.0229C13.5106 65.0229 4.22372 57.0758 1.5 45.5Z" fill="#E7EAF3"/>
<path d="M35.4895 1.03475C25.5922 0.581869 15.5726 4.57739 8.68913 11.7346C1.64971 19.0485 -0.656012 29.6468 2.18504 39.4578C5.03875 49.3281 13.0434 57.8313 23.337 59.3508C28.4248 60.0999 33.9973 60.7983 38.8111 58.8344C47.3806 55.3468 58.0535 50.8222 62.2013 42.1328C66.1046 33.9597 62.8758 24.4619 59.8745 16.1111C57.3201 9.00887 48.7211 3.85363 41.7533 2.06749C40.299 1.69503 37.5 1.03475 35.4895 1.03475Z" stroke="#181B2B" stroke-width="2" stroke-linecap="round"/>
<path d="M21.3097 10.1637C20.141 9.02348 18.5495 9.69116 17.5443 10.5019C16.8662 11.0482 16.216 11.7462 15.7253 12.4919C14.6882 14.0614 14.6882 16.1945 16.216 17.4085C17.1015 18.1109 18.3021 18.28 19.3552 17.9461C20.4083 17.6123 21.3097 16.8102 21.9081 15.813C22.4785 14.8548 22.7856 13.7146 22.7776 12.5743C22.7696 11.4341 21.9998 10.684 21.3097 10.1637Z" stroke="#181B2B" stroke-width="2" stroke-linecap="round"/>
<path d="M38.2688 31.7482C41.1835 28.1046 38.9998 23.7525 36.4999 27.5002C34 31.2479 28.6667 28.8603 30.269 31.2482C32.7577 34.9573 36.269 34.2482 38.2688 31.7482Z" fill="#E7EAF3"/>
<path d="M55.2947 43.6857C58.2093 40.0421 56.0257 35.69 53.5258 39.4377C51.0259 43.1854 45.6926 40.7978 47.2948 43.1857C49.7836 46.8948 53.2949 46.1857 55.2947 43.6857Z" fill="#E7EAF3"/>
<path d="M54 19C57.2223 15.0678 53.1862 9.09952 51.5282 13.956C49.8701 18.8124 46.0002 14.0902 46.0002 17.1936C46.0002 20.4312 51.7891 21.698 54 19Z" fill="#E7EAF3"/>
<path d="M17 41.5C19.9146 37.8564 15.4997 32.3121 14 36.8122C12.5002 41.3123 8.99983 36.9366 8.99983 39.8123C8.99983 42.8123 15.0002 44 17 41.5Z" fill="#E7EAF3"/>
<path d="M36.0357 55.3185C40.195 51.9631 37.3632 43.8025 34.5 48.5C31.6368 53.1974 27.792 47.7457 27 51C26.1738 54.3951 33.1819 57.6208 36.0357 55.3185Z" fill="#E7EAF3"/>
<path d="M30.6332 26.7476C30.8553 27.8519 30.928 30.0481 32.7781 30.9184C33.7071 31.3576 34.8301 31.5424 35.7026 30.9964C36.7084 30.3642 37.0921 29.0793 37.3143 27.897C37.5647 26.5629 37.7021 25.163 37.3103 23.8699C36.7973 22.1745 35.1492 20.6967 33.3517 21.4028C31.8207 22.0103 30.1767 24.223 30.6332 26.7476Z" stroke="#181B2B" stroke-width="2" stroke-linecap="round"/>
<path d="M52.6432 16.1983C53.6479 14.3426 52.8407 12.5174 52.0421 11.9119C49.6678 10.1128 46.027 11.4763 46.1128 14.6998C46.1257 15.2356 46.2588 15.7714 46.5078 16.2462C47.0187 17.222 48.0062 17.9233 49.0839 18.0802C50.4664 18.2762 52.0679 17.5356 52.6432 16.1983Z" stroke="#181B2B" stroke-width="2" stroke-linecap="round"/>
<path d="M53.1331 42.867C53.7985 42.3198 54.3116 41.972 54.54 41.0771C54.7324 40.3178 54.7084 39.495 54.4519 38.7612C54.0149 37.5057 52.9247 36.6192 51.7462 36.2247C50.7802 35.9024 49.1007 35.8303 48.327 36.6701C46.9241 38.1886 46.3068 41.0134 47.5895 42.7991C48.4353 43.9783 51.5297 44.1988 53.1331 42.867Z" stroke="#181B2B" stroke-width="2" stroke-linecap="round"/>
<path d="M32.5825 44.8449C30.9174 44.1871 28.8457 44.6825 27.6857 46.0147C24.8221 49.3078 28.5075 53.6583 32.4113 53.0546C34.0764 52.7965 35.5831 51.7182 36.3279 50.2528C36.7559 49.4119 36.94 48.4127 36.6061 47.5301C36.1053 46.1854 33.7853 45.257 32.5825 44.8449Z" stroke="#181B2B" stroke-width="2" stroke-linecap="round"/>
<path d="M12.6691 34.4627C10.9515 34.3003 9.91543 35.2352 9.6436 36.5389C9.37178 37.8426 9.74209 39.2912 10.5891 40.2393C11.3494 41.0909 12.8425 41.802 13.8904 41.2489C14.9816 40.6739 15.801 39.3 15.7774 37.9568C15.7577 36.5258 14.3434 34.4451 12.6691 34.4627Z" stroke="#181B2B" stroke-width="2" stroke-linecap="round"/>
</svg>
