<svg width="668" height="270" viewBox="0 0 668 270" fill="none" xmlns="http://www.w3.org/2000/svg">
<path d="M622.5 125.5C643.656 125.5 640.367 135.844 640.367 157C640.367 178.156 632.156 202.5 611 202.5C589.844 202.5 576.633 188.656 576.633 167.5C576.633 146.344 601.344 125.5 622.5 125.5ZM622.5 123.867C600.409 123.867 575 145.409 575 167.5C575 189.591 588.909 204.133 611 204.133C633.091 204.133 642 179.091 642 157C642 134.909 644.591 123.867 622.5 123.867Z" fill="url(#paint0_linear)"/>
<path d="M643.93 61.4795C659.268 61.4795 673.729 68.9309 685.748 83.0253C705.828 106.577 715.744 144.625 710.418 177.702C704.477 214.599 677.707 218.431 646.71 222.867C630.395 225.202 613.522 227.617 598.149 235.036C588.115 239.878 577.629 242.334 566.984 242.334C549.234 242.334 531.576 235.507 517.26 223.108C504.19 211.791 495.783 197.184 494.768 184.034C492.017 148.335 525.536 127.892 561.021 106.247C575.199 97.5995 589.858 88.6578 602.379 78.5463C616.398 67.2221 630.379 61.4795 643.93 61.4795ZM643.93 59.8364C630.826 59.8364 616.454 65.0631 601.344 77.2679C557.825 112.42 489.169 132.775 493.129 184.161C495.242 211.577 527.874 243.977 566.984 243.977C577.305 243.977 588.084 241.718 598.865 236.516C643.303 215.07 702.739 235.745 712.043 177.965C720.592 124.855 690.148 59.8364 643.93 59.8364Z" fill="url(#paint1_linear)"/>
<path d="M676.305 -0.568451C699.82 -0.568451 722.177 11.4819 740.962 34.2798C774.635 75.1483 790.59 142.316 779.762 197.617C768.998 252.595 729.538 253.612 683.848 254.792C653.164 255.584 621.435 256.402 594.431 273.392C575.776 285.128 555.841 291.08 535.185 291.08C508.85 291.08 482.23 281.282 460.228 263.489C450.561 255.671 442.264 246.585 436.235 237.209C430.271 227.936 426.649 218.58 425.761 210.154C423.332 187.102 431.126 167.327 450.288 147.921C467.575 130.414 491.979 115.323 517.814 99.3461C547.115 81.2278 577.412 62.4916 601.444 37.9455C626.463 12.3906 651.647 -0.568451 676.302 -0.571747H676.305V-0.568451ZM676.296 -2.21155C652.995 -2.20825 627.205 9.28674 600.269 36.8003C533.677 104.819 415.645 129.837 424.125 210.33C427.844 245.642 476.902 292.724 535.185 292.724C554.644 292.724 575.136 287.473 595.308 274.783C662.292 232.64 763.092 291.318 781.375 197.935C798.317 111.415 749.57 -2.22141 676.296 -2.21155Z" fill="url(#paint2_linear)"/>
<path d="M731.104 -73.2126C763.287 -73.2126 792.317 -54.8807 815.053 -20.1967C838.609 15.7343 855.085 69.2119 860.262 126.526C865.315 182.485 859.264 235.1 843.66 270.88C817.513 330.836 771.011 359.981 701.496 359.981C653.186 359.981 601.39 346.271 555.692 334.174C552.722 333.389 549.779 332.609 546.867 331.841C533.626 328.353 520.404 325.118 507.616 321.989C417.809 300.021 340.249 281.049 329.51 192.687C323.599 143.979 334.673 109.822 364.364 85.1958C391.72 62.5048 432.334 49.2467 479.362 33.897C534.628 15.8559 597.266 -4.5907 657.31 -46.1099C683.317 -64.0918 708.144 -73.211 731.099 -73.2126H731.104ZM731.101 -74.0342C709.042 -74.0325 684.273 -65.7514 656.845 -46.7868C494.03 65.7926 308.263 24.4476 328.696 192.785C341.044 294.382 440.56 304.679 546.658 332.635C594.283 345.183 649.925 360.801 701.496 360.801C760.563 360.801 814.284 340.297 844.414 271.206C890.16 166.31 849.94 -74.0375 731.101 -74.0342Z" fill="url(#paint3_linear)"/>
<path d="M731.104 -73.2126C763.287 -73.2126 792.317 -54.8807 815.053 -20.1967C838.609 15.7343 855.085 69.2119 860.262 126.526C865.315 182.485 859.264 235.1 843.66 270.88C817.513 330.836 771.011 359.981 701.496 359.981C653.186 359.981 601.39 346.271 555.692 334.174C552.722 333.389 549.779 332.609 546.867 331.841C533.626 328.353 520.404 325.118 507.616 321.989C417.809 300.021 340.249 281.049 329.51 192.687C323.599 143.979 334.673 109.822 364.364 85.1958C391.72 62.5048 432.334 49.2467 479.362 33.897C534.628 15.8559 597.266 -4.5907 657.31 -46.1099C683.317 -64.0918 708.144 -73.211 731.099 -73.2126H731.104ZM731.101 -74.0342C709.042 -74.0325 684.273 -65.7514 656.845 -46.7868C494.03 65.7926 308.263 24.4476 328.696 192.785C341.044 294.382 440.56 304.679 546.658 332.635C594.283 345.183 649.925 360.801 701.496 360.801C760.563 360.801 814.284 340.297 844.414 271.206C890.16 166.31 849.94 -74.0375 731.101 -74.0342Z" fill="url(#paint4_linear)"/>
<path d="M790.929 -152.574C812.404 -152.574 832.359 -145.99 850.24 -133.006C866.856 -120.939 881.803 -103.288 894.665 -80.5425C924.991 -26.9138 943.108 54.4305 944.373 142.631C945.578 226.682 931.249 301.824 906.044 343.632C857.855 423.563 787.945 465.814 703.87 465.814C637.431 465.814 564.673 438.596 498.996 389.173C450.43 352.628 405.203 334.996 365.301 319.441C296.818 292.744 247.338 273.454 234.897 175.035C214.781 15.9067 303.963 -3.73474 438.959 -33.468C517.779 -50.8289 615.874 -72.4339 714.238 -128.95C741.521 -144.625 767.321 -152.574 790.924 -152.577H790.929V-152.574ZM790.919 -154.217C767.885 -154.215 742.087 -146.843 713.417 -130.371C450.32 20.7933 200.88 -80.9369 233.264 175.243C252.996 331.337 364.813 290.26 498.006 390.488C561.911 438.576 634.565 467.458 703.868 467.458C781.685 467.458 855.271 431.033 907.452 344.482C979.608 224.792 956.115 -154.23 790.919 -154.217Z" fill="url(#paint5_linear)"/>
<path d="M880.974 -193.217C992.553 -193.217 1039.32 -119.259 1058.9 -57.2139C1071.67 -16.7529 1077.07 30.5943 1074.96 83.5116C1072.99 132.789 1064.27 185.58 1049.75 236.177C1019.75 340.717 968.13 426.725 911.657 466.249C848.799 510.243 784.708 531.629 715.725 531.629C620.268 531.629 530.511 490.716 443.709 451.151C421.998 441.255 399.548 431.021 377.785 421.836C320.78 397.778 269.007 364.48 228.064 325.542C186.34 285.861 158.124 242.351 146.466 199.712C140.041 176.213 138.69 153.139 142.447 131.135C146.415 107.9 156.115 85.7544 171.276 65.3144C238.042 -24.7038 323.728 -85.4241 440.935 -125.775C545.269 -161.693 676.497 -182.368 866.431 -192.81C871.326 -193.079 876.215 -193.216 880.961 -193.216H880.974V-193.217ZM880.964 -194.86C876.194 -194.86 871.313 -194.726 866.344 -194.453C521.803 -175.511 307.167 -120.663 169.957 64.3335C77.9354 188.405 201.895 349.385 377.147 423.348C483.757 468.342 595.366 533.271 715.727 533.271C778.773 533.271 844.239 515.44 912.603 467.593C1089.66 343.678 1182.72 -194.873 880.964 -194.86Z" fill="url(#paint6_linear)"/>
<path d="M786.916 -290V-288.357C860.381 -288.357 936.25 -278.081 1018.86 -256.941C1088.2 -239.196 1142.18 -204.939 1179.29 -155.122C1212.85 -110.074 1232.07 -53.3527 1236.42 13.4651C1243.33 119.494 1211.39 245.101 1148.78 358.076C1086.14 471.129 1001.71 555.365 917.141 589.183C857.956 612.852 801.298 624.357 743.931 624.357C691.037 624.357 637.432 614.29 580.054 593.582C529.302 575.265 481.956 551.138 436.169 527.806C374.502 496.382 316.258 466.699 256.612 454.6C194.305 441.961 133.706 401.125 85.9796 339.616C41.3204 282.062 12.133 211.531 5.90252 146.11C1.81793 103.216 7.86753 63.7157 23.4002 31.8825C40.6018 -3.37323 68.8223 -29.2601 107.274 -45.0551C176.893 -73.6546 241.039 -106.72 303.075 -138.698C452.369 -215.655 593.385 -288.344 786.865 -288.357L786.916 -290ZM786.864 -290C512.009 -289.982 342.727 -143.555 106.648 -46.5749C-104.232 40.0536 37.5844 411.847 256.284 456.21C404.344 486.244 545.667 626 743.929 626C797.32 626 854.863 615.857 917.751 590.708C1197.63 478.784 1423.78 -155.019 1019.27 -258.533C933.103 -280.582 856.609 -290.005 786.864 -290Z" fill="url(#paint7_linear)"/>
<circle cx="7" cy="167" r="5" fill="#14C393" stroke="#181B2B" stroke-width="4"/>
<circle cx="151" cy="99" r="5" fill="#14C393" stroke="#181B2B" stroke-width="4"/>
<circle cx="235" cy="181" r="5" fill="#14C393" stroke="#181B2B" stroke-width="4"/>
<circle cx="350" cy="99" r="5" fill="#14C393" stroke="#181B2B" stroke-width="4"/>
<circle cx="445" cy="153" r="5" fill="#14C393" stroke="#181B2B" stroke-width="4"/>
<circle cx="549" cy="113" r="5" fill="#14C393" stroke="#181B2B" stroke-width="4"/>
<defs>
<linearGradient id="paint0_linear" x1="515.5" y1="2.49999" x2="523" y2="260.5" gradientUnits="userSpaceOnUse">
<stop stop-color="#14C393" stop-opacity="0"/>
<stop offset="0.524862" stop-color="#14C393"/>
<stop offset="1" stop-color="#14C393" stop-opacity="0"/>
</linearGradient>
<linearGradient id="paint1_linear" x1="515.5" y1="2.49999" x2="523" y2="260.5" gradientUnits="userSpaceOnUse">
<stop stop-color="#14C393" stop-opacity="0"/>
<stop offset="0.524862" stop-color="#14C393"/>
<stop offset="1" stop-color="#14C393" stop-opacity="0"/>
</linearGradient>
<linearGradient id="paint2_linear" x1="515.5" y1="2.49999" x2="523" y2="260.5" gradientUnits="userSpaceOnUse">
<stop stop-color="#14C393" stop-opacity="0"/>
<stop offset="0.524862" stop-color="#14C393"/>
<stop offset="1" stop-color="#14C393" stop-opacity="0"/>
</linearGradient>
<linearGradient id="paint3_linear" x1="515.5" y1="2.49999" x2="523" y2="260.5" gradientUnits="userSpaceOnUse">
<stop stop-color="#14C393" stop-opacity="0"/>
<stop offset="0.524862" stop-color="#14C393"/>
<stop offset="1" stop-color="#14C393" stop-opacity="0"/>
</linearGradient>
<linearGradient id="paint4_linear" x1="515.5" y1="2.49999" x2="523" y2="260.5" gradientUnits="userSpaceOnUse">
<stop stop-color="#14C393" stop-opacity="0"/>
<stop offset="0.524862" stop-color="#14C393"/>
<stop offset="1" stop-color="#14C393" stop-opacity="0"/>
</linearGradient>
<linearGradient id="paint5_linear" x1="515.5" y1="2.49999" x2="523" y2="260.5" gradientUnits="userSpaceOnUse">
<stop stop-color="#14C393" stop-opacity="0"/>
<stop offset="0.524862" stop-color="#14C393"/>
<stop offset="1" stop-color="#14C393" stop-opacity="0"/>
</linearGradient>
<linearGradient id="paint6_linear" x1="515.5" y1="2.49999" x2="523" y2="260.5" gradientUnits="userSpaceOnUse">
<stop stop-color="#14C393" stop-opacity="0"/>
<stop offset="0.524862" stop-color="#14C393"/>
<stop offset="1" stop-color="#14C393" stop-opacity="0"/>
</linearGradient>
<linearGradient id="paint7_linear" x1="515.5" y1="2.49999" x2="523" y2="260.5" gradientUnits="userSpaceOnUse">
<stop stop-color="#14C393" stop-opacity="0"/>
<stop offset="0.524862" stop-color="#14C393"/>
<stop offset="1" stop-color="#14C393" stop-opacity="0"/>
</linearGradient>
</defs>
</svg>
