<svg width="624" height="120" fill="none" xmlns="http://www.w3.org/2000/svg">
  <path d="M625.5 17.5c21.16 0 17.87 10.34 17.87 31.5S635.16 94.5 614 94.5s-34.37-13.84-34.37-35 24.71-42 45.87-42zm0-1.63c-22.1 0-47.5 21.54-47.5 43.63 0 22.1 13.9 36.63 36 36.63S645 71.1 645 49c0-22.1 2.6-33.13-19.5-33.13z" fill="#E7EAF3"/>
  <path d="M646.93-46.52c15.34 0 29.8 7.45 41.82 21.55 20.08 23.55 30 61.6 24.67 94.67-5.94 36.9-32.71 40.73-63.71 45.17-16.32 2.33-33.19 4.75-48.56 12.17a71.26 71.26 0 0 1-31.17 7.3c-17.75 0-35.4-6.83-49.72-19.23-13.07-11.32-21.48-25.93-22.5-39.08-2.74-35.7 30.78-56.14 66.26-77.78 14.18-8.65 28.84-17.6 41.36-27.7 14.02-11.33 28-17.07 41.55-17.07zm0-1.64c-13.1 0-27.48 5.22-42.59 17.43-43.51 35.15-112.17 55.5-108.21 106.9 2.11 27.4 34.74 59.8 73.85 59.8 10.32 0 21.1-2.25 31.88-7.45 44.44-21.45 103.88-.78 113.18-58.56 8.55-53.1-21.9-118.12-68.11-118.12z" fill="#E7EAF3"/>
  <path d="M679.3-108.57c23.52 0 45.88 12.05 64.66 34.85 33.67 40.87 49.63 108.04 38.8 163.34-10.76 54.97-50.22 56-95.91 57.17-30.69.8-62.42 1.61-89.42 18.6-18.65 11.74-38.59 17.69-59.25 17.69-26.33 0-52.95-9.8-74.95-27.6-9.67-7.8-17.97-16.9-24-26.27-5.96-9.27-9.58-18.63-10.47-27.06-2.43-23.05 5.37-42.82 24.53-62.23 17.28-17.5 41.69-32.6 67.52-48.57 29.3-18.12 59.6-36.86 83.63-61.4 25.02-25.56 50.2-38.52 74.86-38.52zm0-1.64c-23.3 0-49.1 11.5-76.03 39.01-66.6 68.02-184.63 93.04-176.14 173.53 3.71 35.31 52.77 82.4 111.05 82.4 19.46 0 39.96-5.26 60.13-17.95 66.98-42.14 167.78 16.54 186.07-76.85C801.32 3.41 752.57-110.22 679.3-110.2z" fill="#E7EAF3"/>
  <path d="M734.1-181.21c32.19 0 61.22 18.33 83.95 53.01 23.56 35.93 40.04 89.41 45.21 146.73 5.06 55.95-1 108.57-16.6 144.35-26.15 59.96-72.65 89.1-142.16 89.1-48.31 0-100.11-13.7-145.8-25.8l-8.83-2.34c-13.24-3.49-26.47-6.72-39.25-9.85C420.8 192.02 343.74 172.36 333 84c-5.91-48.7 7-84.11 34.36-106.8 27.36-22.7 67.97-35.95 115-51.3 55.27-18.04 117.9-38.5 177.95-80.01 26-17.98 50.83-27.1 73.79-27.1zm0-.82c-22.06 0-46.83 8.28-74.25 27.24C497.03-42.2 311.26-83.55 331.7 84.8c12.34 101.6 111.86 111.89 217.96 139.84 47.62 12.55 103.26 28.17 154.84 28.17 59.06 0 112.78-20.5 142.91-89.6 45.75-104.89 5.53-345.24-113.3-345.23z" fill="#E7EAF3"/>
  <path d="M734.1-181.21c32.19 0 61.22 18.33 83.95 53.01 23.56 35.93 40.04 89.41 45.21 146.73 5.06 55.95-1 108.57-16.6 144.35-26.15 59.96-72.65 89.1-142.16 89.1-48.31 0-100.11-13.7-145.8-25.8l-8.83-2.34c-13.24-3.49-26.47-6.72-39.25-9.85C420.8 192.02 343.74 172.36 333 84c-5.91-48.7 7-84.11 34.36-106.8 27.36-22.7 67.97-35.95 115-51.3 55.27-18.04 117.9-38.5 177.95-80.01 26-17.98 50.83-27.1 73.79-27.1zm0-.82c-22.06 0-46.83 8.28-74.25 27.24C497.03-42.2 311.26-83.55 331.7 84.8c12.34 101.6 111.86 111.89 217.96 139.84 47.62 12.55 103.26 28.17 154.84 28.17 59.06 0 112.78-20.5 142.91-89.6 45.75-104.89 5.53-345.24-113.3-345.23z" fill="#E7EAF3"/>
  <path d="M793.93-260.57c21.47 0 41.43 6.58 59.31 19.56 16.62 12.07 31.56 29.72 44.42 52.47C928-134.91 946.12-53.57 947.38 34.63c1.2 84.05-13.12 159.2-38.33 201-48.18 79.93-118.1 122.18-202.17 122.18-66.44 0-139.2-27.21-204.87-76.64-48.57-36.54-93.8-54.17-133.7-69.73-68.48-26.7-117.96-45.99-130.4-144.4-20.12-159.13 69.06-178.77 204.06-208.5 78.82-17.37 176.91-38.97 275.28-95.49 27.28-15.68 53.08-23.62 76.68-23.63zm-.01-1.65c-23.03 0-48.83 7.38-77.5 23.85-263.1 151.16-512.54 49.43-480.16 305.61C256 223.34 367.81 182.26 501.01 282.5c63.9 48.09 136.56 76.97 205.86 76.97 77.81 0 151.4-36.43 203.58-122.98 72.16-119.69 48.66-498.71-116.53-498.7z" fill="#E7EAF3"/>
  <path d="M883.97-301.22c111.58 0 158.35 73.96 177.93 136 12.77 40.47 18.17 87.81 16.06 140.73-1.97 49.28-10.69 102.07-25.21 152.67-30 104.54-81.62 190.55-138.1 230.07-62.85 44-126.94 65.38-195.92 65.38-95.46 0-185.22-40.91-272.02-80.48-21.71-9.9-44.16-20.13-65.92-29.31-57.01-24.06-108.78-57.36-149.73-96.3-41.72-39.68-69.94-83.19-81.6-125.83-6.42-23.5-7.77-46.57-4.01-68.58 3.97-23.23 13.67-45.38 28.83-65.82 66.76-90.01 152.45-150.73 269.65-191.09 104.34-35.91 235.57-56.59 425.5-67.03 4.9-.27 9.79-.4 14.53-.4h.01zm0-1.64c-4.78 0-9.66.13-14.63.4-344.54 18.95-559.17 73.8-696.38 258.8-92.02 124.06 31.94 285.04 207.19 359 106.6 45 218.22 109.93 338.58 109.93 63.04 0 128.5-17.83 196.87-65.68 177.06-123.91 270.12-662.46-31.64-662.45z" fill="#E7EAF3"/>
  <path d="M789.92-398v1.64c73.46 0 149.33 10.28 231.94 31.42 69.34 17.74 123.32 52 160.43 101.82 33.56 45.05 52.78 101.77 57.13 168.59 6.91 106.02-25.03 231.63-87.64 344.6-62.64 113.06-147.07 197.3-231.64 231.11-59.18 23.67-115.84 35.18-173.2 35.18-52.9 0-106.5-10.07-163.89-30.78-50.75-18.31-98.1-42.44-143.88-65.77-61.67-31.43-119.91-61.11-179.56-73.21-62.3-12.64-122.9-53.48-170.63-114.98C44.32 174.06 15.13 103.53 8.9 38.1c-4.08-42.9 1.97-82.4 17.5-114.23 17.2-35.25 45.42-61.14 83.87-76.94 69.62-28.6 133.77-61.66 195.8-93.64 149.3-76.95 290.31-149.64 483.8-149.66l.05-1.64zm-.06 0c-274.85.02-444.13 146.44-680.21 243.43-210.88 86.62-69.07 458.42 149.63 502.78C407.34 378.24 548.67 518 746.93 518c53.39 0 110.93-10.14 173.82-35.3 279.88-111.92 506.03-745.72 101.52-849.23-86.17-22.05-162.66-31.48-232.4-31.47z" fill="#E7EAF3"/>
  <circle cx="7" cy="30" r="5" fill="#E7EAF3" stroke="#fff" stroke-width="4"/>
  <circle cx="147" cy="86" r="5" fill="#E7EAF3" stroke="#fff" stroke-width="4"/>
  <circle cx="235" cy="49" r="5" fill="#E7EAF3" stroke="#fff" stroke-width="4"/>
  <circle cx="332" cy="82" r="5" fill="#E7EAF3" stroke="#fff" stroke-width="4"/>
</svg>
