<svg width="618" height="120" viewBox="0 0 618 120" fill="none" xmlns="http://www.w3.org/2000/svg">
<path d="M619.5 17.5C640.656 17.5 637.367 27.8441 637.367 49C637.367 70.1559 629.156 94.5 608 94.5C586.844 94.5 573.633 80.6559 573.633 59.5C573.633 38.3441 598.344 17.5 619.5 17.5ZM619.5 15.8673C597.409 15.8673 572 37.4086 572 59.5C572 81.5914 585.909 96.1327 608 96.1327C630.091 96.1327 639 71.0914 639 49C639 26.9086 641.591 15.8673 619.5 15.8673Z" fill="#E7EAF3"/>
<path d="M640.93 -46.5205C656.268 -46.5205 670.729 -39.0691 682.748 -24.9747C702.828 -1.42267 712.744 36.6247 707.418 69.7017C701.477 106.599 674.707 110.431 643.71 114.867C627.395 117.202 610.522 119.617 595.149 127.036C585.115 131.878 574.629 134.334 563.984 134.334C546.234 134.334 528.576 127.507 514.26 115.108C501.19 103.791 492.783 89.1838 491.768 76.0342C489.017 40.3348 522.536 19.8915 558.021 -1.7529C572.199 -10.4005 586.858 -19.3422 599.379 -29.4537C613.398 -40.7779 627.379 -46.5205 640.93 -46.5205ZM640.93 -48.1636C627.826 -48.1636 613.454 -42.9369 598.344 -30.7321C554.825 4.42017 486.169 24.7748 490.129 76.1607C492.242 103.577 524.874 135.977 563.984 135.977C574.305 135.977 585.084 133.718 595.865 128.516C640.303 107.07 699.739 127.745 709.043 69.9646C717.592 16.8551 687.148 -48.1636 640.93 -48.1636Z" fill="#E7EAF3"/>
<path d="M673.305 -108.568C696.82 -108.568 719.177 -96.5181 737.962 -73.7202C771.635 -32.8517 787.59 34.3161 776.762 89.6175C765.998 144.595 726.538 145.612 680.848 146.792C650.164 147.584 618.435 148.402 591.431 165.392C572.776 177.128 552.841 183.08 532.185 183.08C505.85 183.08 479.23 173.282 457.228 155.489C447.561 147.671 439.264 138.585 433.235 129.209C427.271 119.936 423.649 110.58 422.761 102.154C420.332 79.1017 428.126 59.3272 447.288 39.9207C464.575 22.4136 488.979 7.32346 514.814 -8.65393C544.115 -26.7722 574.412 -45.5084 598.444 -70.0545C623.463 -95.6094 648.647 -108.568 673.302 -108.572H673.305V-108.568ZM673.296 -110.212C649.995 -110.208 624.205 -98.7133 597.269 -71.1997C530.677 -3.18085 412.645 21.8369 421.125 102.33C424.844 137.642 473.902 184.724 532.185 184.724C551.644 184.724 572.136 179.473 592.308 166.783C659.292 124.64 760.092 183.318 778.375 89.9346C795.317 3.41455 746.57 -110.221 673.296 -110.212Z" fill="#E7EAF3"/>
<path d="M728.104 -181.213C760.287 -181.213 789.317 -162.881 812.053 -128.197C835.609 -92.2657 852.085 -38.7881 857.262 18.526C862.315 74.4847 856.264 127.1 840.66 162.88C814.513 222.836 768.011 251.981 698.496 251.981C650.186 251.981 598.39 238.271 552.692 226.174C549.722 225.389 546.779 224.609 543.867 223.841C530.626 220.353 517.404 217.118 504.616 213.989C414.809 192.021 337.739 172.362 327 84C321.089 35.2923 334.008 -0.113129 361.364 -22.8042C388.72 -45.4952 429.334 -58.7533 476.362 -74.103C531.628 -92.1441 594.266 -112.591 654.31 -154.11C680.317 -172.092 705.144 -181.211 728.099 -181.213H728.104ZM728.101 -182.034C706.042 -182.033 681.273 -173.751 653.845 -154.787C491.03 -42.2074 305.263 -83.5524 325.696 84.7852C338.044 186.382 437.56 196.679 543.658 224.635C591.283 237.183 646.925 252.801 698.496 252.801C757.563 252.801 811.284 232.297 841.414 163.206C887.16 58.3101 846.94 -182.037 728.101 -182.034Z" fill="#E7EAF3"/>
<path d="M728.104 -181.213C760.287 -181.213 789.317 -162.881 812.053 -128.197C835.609 -92.2657 852.085 -38.7881 857.262 18.526C862.315 74.4847 856.264 127.1 840.66 162.88C814.513 222.836 768.011 251.981 698.496 251.981C650.186 251.981 598.39 238.271 552.692 226.174C549.722 225.389 546.779 224.609 543.867 223.841C530.626 220.353 517.404 217.118 504.616 213.989C414.809 192.021 337.739 172.362 327 84C321.089 35.2923 334.008 -0.113129 361.364 -22.8042C388.72 -45.4952 429.334 -58.7533 476.362 -74.103C531.628 -92.1441 594.266 -112.591 654.31 -154.11C680.317 -172.092 705.144 -181.211 728.099 -181.213H728.104ZM728.101 -182.034C706.042 -182.033 681.273 -173.751 653.845 -154.787C491.03 -42.2074 305.263 -83.5524 325.696 84.7852C338.044 186.382 437.56 196.679 543.658 224.635C591.283 237.183 646.925 252.801 698.496 252.801C757.563 252.801 811.284 232.297 841.414 163.206C887.16 58.3101 846.94 -182.037 728.101 -182.034Z" fill="#E7EAF3"/>
<path d="M787.929 -260.574C809.404 -260.574 829.359 -253.99 847.24 -241.006C863.856 -228.939 878.803 -211.288 891.665 -188.543C921.991 -134.914 940.108 -53.5695 941.373 34.6315C942.578 118.682 928.249 193.824 903.044 235.632C854.855 315.563 784.945 357.814 700.87 357.814C634.431 357.814 561.673 330.596 495.996 281.173C447.43 244.628 402.203 226.996 362.301 211.441C293.818 184.744 244.338 165.454 231.897 67.0348C211.781 -92.0933 300.963 -111.735 435.959 -141.468C514.779 -158.829 612.874 -180.434 711.238 -236.95C738.521 -252.625 764.321 -260.574 787.924 -260.577H787.929V-260.574ZM787.919 -262.217C764.885 -262.215 739.087 -254.843 710.417 -238.371C447.32 -87.2067 197.88 -188.937 230.264 67.2435C249.996 223.337 361.813 182.26 495.006 282.488C558.911 330.576 631.565 359.458 700.868 359.458C778.685 359.458 852.271 323.033 904.452 236.482C976.608 116.792 953.115 -262.23 787.919 -262.217Z" fill="#E7EAF3"/>
<path d="M877.974 -301.217C989.553 -301.217 1036.32 -227.259 1055.9 -165.214C1068.67 -124.753 1074.07 -77.4057 1071.96 -24.4884C1069.99 24.7894 1061.27 77.5802 1046.75 128.177C1016.75 232.717 965.13 318.725 908.657 358.249C845.799 402.243 781.708 423.629 712.725 423.629C617.268 423.629 527.511 382.716 440.709 343.151C418.998 333.255 396.548 323.021 374.785 313.836C317.78 289.778 266.007 256.48 225.064 217.542C183.34 177.861 155.124 134.351 143.466 91.7124C137.041 68.213 135.69 45.1391 139.447 23.1349C143.415 -0.100037 153.115 -22.2456 168.276 -42.6856C235.042 -132.704 320.728 -193.424 437.935 -233.775C542.269 -269.693 673.497 -290.368 863.431 -300.81C868.326 -301.079 873.215 -301.216 877.961 -301.216H877.974V-301.217ZM877.964 -302.86C873.194 -302.86 868.313 -302.726 863.344 -302.453C518.803 -283.511 304.167 -228.663 166.957 -43.6665C74.9354 80.4047 198.895 241.385 374.147 315.348C480.757 360.342 592.366 425.271 712.727 425.271C775.773 425.271 841.239 407.44 909.603 359.593C1086.66 235.678 1179.72 -302.873 877.964 -302.86Z" fill="#E7EAF3"/>
<path d="M783.916 -398V-396.357C857.381 -396.357 933.25 -386.081 1015.86 -364.941C1085.2 -347.196 1139.18 -312.939 1176.29 -263.122C1209.85 -218.074 1229.07 -161.353 1233.42 -94.5349C1240.33 11.4936 1208.39 137.101 1145.78 250.076C1083.14 363.129 998.709 447.365 914.141 481.183C854.956 504.852 798.298 516.357 740.931 516.357C688.037 516.357 634.432 506.29 577.054 485.582C526.302 467.265 478.956 443.138 433.169 419.806C371.502 388.382 313.258 358.699 253.612 346.6C191.305 333.961 130.706 293.125 82.9796 231.616C38.3204 174.062 9.133 103.531 2.90252 38.11C-1.18207 -4.78448 4.86753 -44.2843 20.4002 -76.1175C37.6018 -111.373 65.8223 -137.26 104.274 -153.055C173.893 -181.655 238.039 -214.72 300.075 -246.698C449.369 -323.655 590.385 -396.344 783.865 -396.357L783.916 -398ZM783.864 -398C509.009 -397.982 339.727 -251.555 103.648 -154.575C-107.232 -67.9464 34.5844 303.847 253.284 348.21C401.344 378.244 542.667 518 740.929 518C794.32 518 851.863 507.857 914.751 482.708C1194.63 370.784 1420.78 -263.019 1016.27 -366.533C930.103 -388.582 853.609 -398.005 783.864 -398Z" fill="#E7EAF3"/>
</svg>
