<svg width="12" height="12" viewBox="0 0 12 12" fill="none" xmlns="http://www.w3.org/2000/svg">
<path fill-rule="evenodd" clip-rule="evenodd" d="M0.146447 11.1429C-0.0488155 11.3381 -0.0488155 11.6547 0.146447 11.85C0.341709 12.0452 0.658291 12.0452 0.853553 11.85L5.99807 6.70547L11.144 11.8514C11.3393 12.0467 11.6559 12.0467 11.8511 11.8514C12.0464 11.6562 12.0464 11.3396 11.8511 11.1443L6.70518 5.99836L11.85 0.853554C12.0452 0.658292 12.0452 0.341709 11.85 0.146447C11.6547 -0.0488157 11.3381 -0.0488157 11.1429 0.146447L5.99807 5.29125L0.854711 0.147896C0.659449 -0.0473662 0.342866 -0.0473662 0.147604 0.147896C-0.0476582 0.343158 -0.0476582 0.659741 0.147604 0.855003L5.29096 5.99836L0.146447 11.1429Z" fill="#7A859E"/>
</svg>
