<svg width="280" height="262" viewBox="0 0 280 262" fill="none" xmlns="http://www.w3.org/2000/svg">
<path d="M133.712 130.222L139.84 133.272L163.744 171.143L175.188 189.274L188.182 209.861C188.126 217.147 188.068 224.434 188.012 231.72C165.317 241.492 141.172 250.838 118.477 260.61L66.9849 225.111V179.022C65.567 178.062 64.1474 177.103 62.7294 176.142L62.2188 154.283C86.0497 146.264 109.881 138.242 133.712 130.222Z" fill="#8AFFCE"/>
<path d="M118.8 187.541L188 164.447V231.34L118.8 260.009V187.541Z" fill="#14C393"/>
<path fillRule="evenodd" clipRule="evenodd" d="M133.767 129.412L140.362 132.694L188.934 209.647L188.932 209.867C188.904 213.51 188.876 217.153 188.847 220.796L188.847 220.806C188.819 224.446 188.79 228.086 188.762 231.726L188.758 232.215L188.309 232.409C176.954 237.297 165.239 242.079 153.531 246.858L153.528 246.859C141.817 251.639 130.114 256.416 118.773 261.299L118.393 261.463L66.2349 225.505V179.42C65.6359 179.014 65.0365 178.609 64.4369 178.203L64.4342 178.201C63.7257 177.722 63.017 177.243 62.3087 176.763L61.9886 176.546L61.4561 153.749L61.9795 153.573C73.895 149.563 85.8105 145.552 97.726 141.542L97.9297 141.473C109.777 137.486 121.625 133.498 133.472 129.511L133.767 129.412ZM67.7349 180.389V224.717L118.561 259.757C129.796 254.926 141.38 250.198 152.956 245.473L152.961 245.471C164.518 240.754 176.066 236.04 187.266 231.224C187.293 227.744 187.32 224.265 187.347 220.785L187.347 220.774C187.375 217.208 187.403 213.642 187.431 210.076L174.886 190.201L118.397 212.649L67.7349 180.389ZM174.071 188.91L163.434 172.058L118.4 188.746L63.0003 155.624L63.4702 175.738C64.0656 176.141 64.6613 176.544 65.2571 176.947L65.2775 176.961C65.9839 177.439 66.6905 177.917 67.3968 178.395L118.556 210.971L174.071 188.91ZM64.0008 154.475L118.553 187.09L162.616 170.761L139.317 133.85L133.656 131.032C121.839 135.009 110.022 138.986 98.2044 142.964L98.0476 143.016C86.6987 146.836 75.3497 150.656 64.0008 154.475ZM118.477 190.218C118.891 190.218 119.227 190.554 119.227 190.968V207.913C119.227 208.327 118.891 208.663 118.477 208.663C118.063 208.663 117.727 208.327 117.727 207.913V190.968C117.727 190.554 118.063 190.218 118.477 190.218ZM118.477 215.042C118.891 215.042 119.227 215.378 119.227 215.792V256.882C119.227 257.297 118.891 257.632 118.477 257.632C118.063 257.632 117.727 257.297 117.727 256.882V215.792C117.727 215.378 118.063 215.042 118.477 215.042Z" fill="#1A1D2F"/>
<path d="M96.8002 175.197V245.675L73.2002 229.748V160.067L110.8 150.112L137.2 151.307V164.048L96.8002 175.197Z" fill="#8358FF"/>
<path fillRule="evenodd" clipRule="evenodd" d="M110.719 149.358L137.95 150.59V164.62L97.5502 175.769V247.086L72.4502 230.146V159.489L110.719 149.358ZM110.881 150.867L73.9502 160.644V229.349L96.0502 244.264V174.626L136.45 163.477V152.024L110.881 150.867Z" fill="#1A1D2F"/>
<path d="M140.8 179.975V251.249L166.4 240.728V171.216L110.4 137.371L86 146.13L140.8 179.975Z" fill="#8358FF"/>
<path d="M140.8 179.577L165.2 170.817L166.4 240.498L140.8 251.249V179.577Z" fill="#6339DD"/>
<path fillRule="evenodd" clipRule="evenodd" d="M110.482 136.544L167.15 170.793V241.231L140.05 252.368V180.394L84.2812 145.951L110.482 136.544ZM87.7184 146.311L141.55 179.557V250.13L165.65 240.226V171.639L110.317 138.197L87.7184 146.311Z" fill="#1A1D2F"/>
<path fillRule="evenodd" clipRule="evenodd" d="M158.699 172.538C158.849 172.924 158.657 173.358 158.271 173.508L143.871 179.082C143.484 179.232 143.05 179.04 142.9 178.654C142.751 178.267 142.943 177.833 143.329 177.683L157.729 172.109C158.115 171.959 158.55 172.151 158.699 172.538Z" fill="#1A1D2F"/>
<path fillRule="evenodd" clipRule="evenodd" d="M74.9583 161.669C75.1729 161.315 75.6341 161.202 75.9884 161.416L94.3884 172.565C94.7426 172.78 94.8558 173.241 94.6412 173.595C94.4265 173.95 93.9653 174.063 93.6111 173.848L75.2111 162.699C74.8568 162.485 74.7436 162.023 74.9583 161.669Z" fill="#1A1D2F"/>
<path d="M127.073 60.8921C127.073 109.936 132.239 144.278 144.063 167.988C144.424 168.712 144.936 169.345 145.56 169.861C146.869 170.946 148.179 172.031 149.488 173.116C150.611 174.046 151.271 175.421 151.297 176.879L151.966 215.847C151.985 216.934 152.865 217.806 153.952 217.76C160.189 217.498 171.443 216.065 179.188 214.657C187.213 213.199 205.637 208.981 225.172 195.738C231.986 191.118 248.387 178.992 261.618 157.21C274.41 136.151 277.582 117.028 278.309 112.147C279.545 103.86 281.662 88.6077 276.776 69.8359C270.497 45.7116 256.594 30.9388 253.614 27.8687C227.522 0.988983 193.174 0.0945968 184.468 0.00515841C176.189 -0.0791201 149.099 0.665627 125.54 17.8928C114.485 25.9767 115.286 29.5903 99.8232 41.9724C84.8563 53.9589 78.0473 55.426 58.608 67.256C32.1145 83.3789 18.8694 91.4404 10.7507 104.407C1.35806 119.409 -4.08677 142.505 3.76796 164.606C12.9715 190.502 36.9172 208.152 66.7829 210.782C66.7829 210.782 67.2376 189.718 66.7829 178.882C65.3642 177.907 63.9438 176.933 62.5251 175.958C62.3548 168.562 62.1845 161.166 62.0142 153.77C77.9093 148.382 93.8061 142.991 109.701 137.603C115.492 112.032 121.282 86.4628 127.073 60.8921Z" fill="#15181F"/>
<path d="M125 153.298L130.019 143.323C131.667 142.521 132.889 141.769 134.5 141L135 142.5C136.5 149 137.3 153 139.8 160L142.8 166.5C138.335 164.969 133.47 162.043 130.529 159.701L125 153.298Z" fill="#8358FF"/>
<path fillRule="evenodd" clipRule="evenodd" d="M134.5 141C133.759 141.354 133.666 141.304 132.725 141.601L132.698 141.61C131.77 141.903 130.773 142.219 129.89 142.648L129.663 142.759L124.305 153.409L130.207 160.245L130.262 160.288C133.306 162.712 138.871 165.21 143.357 166.749L144 167.5L140.297 159.847C138.185 154.305 136.214 148.217 135.046 142.402L134.5 141ZM140.297 160.418L142.207 164.743C138.44 163.334 134.334 161.406 131.767 159.547C134.124 159.934 137.819 160.241 140.297 160.418ZM131.558 159.393C131.473 159.33 131.391 159.267 131.311 159.205L131.66 158.804L131.558 159.393ZM131.791 158.044L126.132 153.115L130.772 143.892C131.485 143.569 132.293 143.311 133.149 143.04C133.176 143.032 133.203 143.023 133.229 143.015C133.828 142.826 134.45 142.63 135.046 142.402L135.095 142.647C136.5 150 137.739 153.589 139.687 158.869C137.175 158.682 133.85 158.387 131.794 158.03L131.791 158.044Z" fill="#1A1D2F"/>
<path d="M115.917 158.262C106.533 162.619 86.2249 164.2 83.6823 154.772C85.3421 114.473 101.297 127.938 118.983 142.56L115.237 157.161L115.917 158.262Z" fill="#8358FF"/>
<path fillRule="evenodd" clipRule="evenodd" d="M119.104 141.686C119.223 141.785 119.343 141.883 119.463 141.982L119.828 142.285L116.043 157.037L117 158.586L116.233 158.942C111.421 161.176 103.878 162.678 97.2058 162.435C93.8671 162.314 90.6882 161.754 88.157 160.588C85.6156 159.417 83.6685 157.603 82.958 154.968L82.9285 154.858L82.9328 154.745C82.933 154.738 82.9333 154.732 82.9336 154.726C83.3503 144.634 84.6625 137.799 86.7351 133.483C87.7768 131.314 89.0282 129.744 90.4905 128.728C91.962 127.705 93.599 127.278 95.343 127.321C98.7769 127.405 102.636 129.311 106.659 132.01C110.596 134.65 114.815 138.139 119.104 141.686ZM84.4404 154.694C85.0273 156.713 86.5564 158.198 88.7876 159.226C91.0726 160.279 94.034 160.82 97.2632 160.937C103.373 161.159 110.232 159.861 114.827 157.925L114.8 157.882C109.643 157.506 104.011 156.384 99.008 155.388C97.3166 155.051 95.697 154.728 94.1919 154.453C91.1209 153.893 88.5625 153.538 86.7758 153.62C85.8768 153.661 85.2692 153.81 84.9023 154.024C84.621 154.188 84.4764 154.388 84.4404 154.694ZM114.666 156.368C109.683 155.983 104.289 154.909 99.3861 153.933C97.6727 153.592 96.0192 153.262 94.4642 152.979C91.4056 152.421 88.6896 152.032 86.7101 152.122C85.9071 152.159 85.1611 152.276 84.5441 152.534C85.0515 143.749 86.3003 137.852 88.0879 134.13C89.0518 132.122 90.1545 130.786 91.3458 129.958C92.5279 129.137 93.844 128.784 95.3035 128.82C98.2767 128.893 101.826 130.575 105.821 133.255C109.682 135.845 113.838 139.279 118.139 142.836L114.666 156.368Z" fill="#1A1D2F"/>
<path d="M115.999 157.279C100.401 156.482 83.0111 149.541 84.0024 154.493C84.1428 163.443 109.599 163.65 115.999 157.279Z" fill="#1A1D2F"/>
<path d="M130.8 158.872L140 159.5L142.5 165C138 165 130.8 160.863 130.8 158.872Z" fill="#1A1D2F"/>
<path d="M134.651 151.656C134.651 157.458 129.926 162.162 124.098 162.162C118.269 162.162 113.544 157.458 113.544 151.656C113.544 145.854 118.269 141.15 124.098 141.15C129.926 141.15 134.651 145.854 134.651 151.656Z" fill="#8358FF"/>
<path fillRule="evenodd" clipRule="evenodd" d="M124.098 160.662C129.104 160.662 133.151 156.623 133.151 151.656C133.151 146.689 129.104 142.65 124.098 142.65C119.091 142.65 115.044 146.689 115.044 151.656C115.044 156.623 119.091 160.662 124.098 160.662ZM124.098 162.162C129.926 162.162 134.651 157.458 134.651 151.656C134.651 145.854 129.926 141.15 124.098 141.15C118.269 141.15 113.544 145.854 113.544 151.656C113.544 157.458 118.269 162.162 124.098 162.162Z" fill="#1A1D2F"/>
<path fillRule="evenodd" clipRule="evenodd" d="M227.592 57.2977C234.197 57.2977 239.539 51.9696 239.539 45.4116C239.539 38.8535 234.197 33.5254 227.592 33.5254C220.987 33.5254 215.645 38.8535 215.645 45.4116C215.645 51.9696 220.987 57.2977 227.592 57.2977ZM227.592 58.7977C235.019 58.7977 241.039 52.8045 241.039 45.4116C241.039 38.0186 235.019 32.0254 227.592 32.0254C220.165 32.0254 214.145 38.0186 214.145 45.4116C214.145 52.8045 220.165 58.7977 227.592 58.7977Z" fill="#8358FF"/>
<path fillRule="evenodd" clipRule="evenodd" d="M58.2102 115.586C63.5929 115.586 67.9448 111.245 67.9448 105.903C67.9448 100.562 63.5929 96.2197 58.2102 96.2197C52.8274 96.2197 48.4756 100.562 48.4756 105.903C48.4756 111.245 52.8274 115.586 58.2102 115.586ZM58.2102 117.086C64.4149 117.086 69.4448 112.08 69.4448 105.903C69.4448 99.7267 64.4149 94.7197 58.2102 94.7197C52.0055 94.7197 46.9756 99.7267 46.9756 105.903C46.9756 112.08 52.0055 117.086 58.2102 117.086Z" fill="#8358FF"/>
<path fillRule="evenodd" clipRule="evenodd" d="M275.161 64.3132C271.604 63.2183 267.826 62.6289 263.91 62.6289C242.911 62.6289 225.882 79.5755 225.882 100.487C225.882 105.15 226.729 109.618 228.279 113.744L229.683 113.217C228.195 109.256 227.382 104.967 227.382 100.487C227.382 80.4104 243.733 64.1289 263.91 64.1289C268.042 64.1289 272.012 64.8113 275.713 66.0686C275.533 65.4772 275.349 64.8921 275.161 64.3132ZM271.966 135.959C269.375 136.539 266.679 136.846 263.91 136.846C256.058 136.846 248.787 134.381 242.833 130.186L241.969 131.412C248.168 135.78 255.74 138.346 263.91 138.346C266.446 138.346 268.925 138.099 271.323 137.627C271.544 137.065 271.759 136.509 271.966 135.959Z" fill="#8358FF"/>
<path fillRule="evenodd" clipRule="evenodd" d="M279.567 86.5801C273.222 90.9816 264.331 96.2815 254.233 101.532C244.818 106.427 235.966 110.44 228.93 113.125C224.573 114.788 220.937 115.931 218.306 116.464C216.985 116.732 215.961 116.836 215.243 116.794C214.462 116.747 214.322 116.548 214.316 116.536L214.315 116.536C214.313 116.532 214.282 116.473 214.327 116.292C214.375 116.102 214.494 115.837 214.722 115.492C215.177 114.802 215.974 113.928 217.112 112.892C219.378 110.829 222.868 108.239 227.279 105.345L226.452 104.094C222.014 107.004 218.449 109.644 216.097 111.785C214.926 112.852 214.022 113.824 213.466 114.667C213.188 115.088 212.974 115.512 212.87 115.926C212.765 116.345 212.763 116.805 212.985 117.228C213.393 118.007 214.312 118.238 215.157 118.289C216.067 118.343 217.239 118.209 218.608 117.932C221.358 117.375 225.083 116.198 229.47 114.524C236.571 111.814 245.477 107.775 254.93 102.86C264.68 97.7906 273.331 92.6639 279.684 88.3221C279.651 87.7476 279.612 87.1669 279.567 86.5801Z" fill="#8358FF"/>
<path fillRule="evenodd" clipRule="evenodd" d="M278.649 109.815C271.553 114.665 263.401 119.551 254.528 124.164C237.878 132.821 221.886 138.855 209.505 141.621C203.309 143.006 198.059 143.562 194.101 143.242C190.097 142.918 187.654 141.723 186.681 139.868C185.826 138.238 186.034 135.974 187.485 133.079C188.926 130.204 191.518 126.868 195.116 123.242C202.305 115.995 213.384 107.715 226.854 99.7913L226.088 98.501C212.55 106.464 201.356 114.82 194.047 122.187C190.396 125.867 187.682 129.333 186.141 132.407C184.61 135.46 184.16 138.292 185.35 140.56C186.701 143.134 189.855 144.401 193.982 144.734C198.155 145.072 203.571 144.483 209.837 143.083C222.378 140.281 238.493 134.192 255.225 125.493C263.67 121.102 271.477 116.459 278.357 111.826C278.451 111.194 278.549 110.523 278.649 109.815Z" fill="#8358FF"/>
<path fillRule="evenodd" clipRule="evenodd" d="M1.24825 155.406C5.74152 158.884 11.3887 160.956 17.5208 160.956C32.1703 160.956 44.0539 149.133 44.0539 134.539C44.0539 119.945 32.1703 108.122 17.5208 108.122C14.0197 108.122 10.6757 108.798 7.61418 110.025C7.1619 110.936 6.72449 111.867 6.30345 112.818C9.66447 111.095 13.4773 110.122 17.5208 110.122C31.0744 110.122 42.0539 121.058 42.0539 134.539C42.0539 148.02 31.0744 158.956 17.5208 158.956C11.0199 158.956 5.11089 156.44 0.720703 152.332C0.871562 153.356 1.0471 154.38 1.24825 155.406Z" fill="#8358FF"/>
<path d="M131.758 13.0272C152.423 11.721 161.155 10.1947 169.2 1.59273C171.243 1.33828 190.076 -1.57621 212.8 4.77792C204.11 19.5605 186.8 31.456 180.03 35.6009C179.29 42.012 178.135 45.5306 176.32 48.5716C174.309 51.9423 170.573 53.8078 166.709 54.4978C154.906 56.6054 149.671 58.6962 146.15 63.1468C143.556 62.8738 141.723 63.0438 139.922 63.5654C136.952 64.4257 134.597 66.6376 131.864 68.0846C130.227 68.9512 129.354 68.5842 128.891 66.9269C127.42 61.661 129.524 55.5043 133.855 52.167C136.001 50.5134 138.934 49.2289 143.451 48.827L147.949 44.7498L144.95 39.4792C138.283 40.7023 134.372 40.592 126.761 38.5843C125.373 42.1173 123.931 43.479 121.065 45.6448L122.841 47.6499C126.064 51.2874 128.735 55.7382 128.311 60.5793C127.806 66.3419 124.75 68.7331 122.164 68.2185C116.32 56.0031 112.91 53.1582 106.873 46.7386L109.472 38.982C107.725 39.3586 106.829 40.0906 105.274 41.667C99.1777 53.3019 83.2872 55.788 82.3877 45.7442C85.6067 44.4664 88.2972 42.6828 90.8993 40.0759C88.1207 39.3746 86.9723 38.5406 86.1854 35.5015L98.578 29.9482C100.234 27.3312 102.004 24.3305 103.975 20.8833H106.873L114.169 12.4306C121.536 14.4457 125.558 15.1783 131.758 13.0272Z" fill="#8358FF"/>
<path fillRule="evenodd" clipRule="evenodd" d="M213.002 4.05541L213.941 4.3178L213.447 5.15779C204.788 19.8878 187.725 31.7287 180.732 36.0492C179.984 42.296 178.816 45.8516 176.964 48.9557C174.802 52.579 170.83 54.5237 166.841 55.2359C155.038 57.3435 150.069 59.4027 146.738 63.612L146.482 63.9357L146.071 63.8925C143.557 63.628 141.824 63.7952 140.131 64.2856C138.755 64.6841 137.499 65.4024 136.211 66.2346C135.881 66.4481 135.546 66.6713 135.206 66.8979C134.248 67.535 133.252 68.1985 132.215 68.7472C131.354 69.2032 130.464 69.4675 129.661 69.1492C128.841 68.8241 128.417 68.0171 128.169 67.1284C128.012 66.5686 127.894 65.9997 127.813 65.4255C127.455 66.1406 127.036 66.7523 126.57 67.2597C125.272 68.6749 123.607 69.2701 122.018 68.9538L121.65 68.8806L121.488 68.542C118.581 62.4661 116.293 58.7495 113.996 55.762C112.186 53.4077 110.369 51.5018 108.202 49.2282C107.606 48.603 106.983 47.95 106.327 47.2523L106.02 46.9255L108.283 40.1678C107.517 40.5484 106.854 41.1371 105.886 42.115C102.718 48.081 97.0567 51.7197 92.0073 52.5744C89.468 53.0042 87.0151 52.7397 85.1082 51.6283C83.1703 50.4988 81.8855 48.5443 81.6407 45.8109L81.5908 45.2534L82.111 45.0469C84.8531 43.9584 87.1979 42.4938 89.4459 40.4312C88.6019 40.1381 87.8842 39.7674 87.287 39.2164C86.4008 38.3989 85.8684 37.2687 85.4594 35.6893L85.3006 35.076L98.0648 29.3562C99.6773 26.7978 101.403 23.8701 103.324 20.5108L103.54 20.1331H106.53L113.91 11.5821L114.367 11.7069C118.052 12.715 120.832 13.3816 123.447 13.5424C126.039 13.7018 128.495 13.3653 131.513 12.3184L131.609 12.285L131.711 12.2785C152.401 10.9706 160.834 9.43935 168.653 1.08021C184.5 -1.00024 202.192 1.03284 213.002 4.05541ZM106.858 21.6331H104.41C102.522 24.9268 100.815 27.8147 99.2119 30.349C96.4589 34.7005 93.9968 38.0342 91.4302 40.6055C88.9045 43.1358 86.285 44.9207 83.2013 46.2214C83.5121 48.2062 84.4997 49.5374 85.8636 50.3324C87.3797 51.216 89.4491 51.4861 91.7569 51.0954C96.3736 50.314 101.671 46.9282 104.61 41.3187L104.662 41.2197L104.74 41.1401C106.205 39.6547 107.192 38.805 108.89 38.3507L112.586 27.1192L112.985 27.0178C120.731 25.0494 124.694 23.6696 130.213 19.5841C130.546 19.3377 131.015 19.4078 131.262 19.7407C131.508 20.0737 131.438 20.5433 131.105 20.7898C125.458 24.9701 121.325 26.4326 113.753 28.3698L110.184 39.2163L110.183 39.2201L107.727 46.5509C108.255 47.1099 108.764 47.6444 109.259 48.163C111.437 50.4472 113.323 52.4245 115.186 54.8478C117.516 57.8797 119.81 61.603 122.665 67.5297C123.575 67.5907 124.58 67.2105 125.465 66.2456C126.474 65.1463 127.321 63.2809 127.564 60.5136C127.96 55.9888 125.464 51.7408 122.28 48.1471L119.966 45.535L120.613 45.0462C122.041 43.967 123.06 43.1271 123.895 42.1421C124.721 41.1672 125.391 40.0204 126.063 38.3097L126.307 37.6886L126.953 37.8589C130.732 38.856 133.555 39.3716 136.243 39.4939C138.928 39.616 141.512 39.3473 144.815 38.7414L145.339 38.6453L148.071 43.4478C148.856 42.424 149.424 41.2939 149.936 39.9927C150.324 39.0084 150.663 37.9735 151.04 36.8245C151.31 36.0019 151.599 35.1208 151.939 34.158C152.076 33.7674 152.505 33.5624 152.895 33.7001C153.286 33.8379 153.491 34.2662 153.353 34.6569C153.041 35.542 152.759 36.4001 152.489 37.2212C152.096 38.4167 151.729 39.5338 151.332 40.5419C150.645 42.2871 149.823 43.8464 148.496 45.2624L148.475 45.2847L143.769 49.5515L143.518 49.5738C139.122 49.9649 136.33 51.2063 134.313 52.7609C130.219 55.9152 128.227 61.7591 129.613 66.7249C129.828 67.4937 130.072 67.6987 130.214 67.7548C130.372 67.8177 130.738 67.8321 131.513 67.4216C132.478 66.9109 133.381 66.3099 134.318 65.6864C134.671 65.4513 135.029 65.2129 135.397 64.9749C136.713 64.1244 138.119 63.3066 139.714 62.8448C141.524 62.3204 143.356 62.1381 145.821 62.3609C149.531 57.8914 155.047 55.8182 166.578 53.7593C170.317 53.0916 173.815 51.3052 175.676 48.1871C177.417 45.2687 178.553 41.8642 179.285 35.5148L179.326 35.1519L179.638 34.9611C186.264 30.9044 202.906 19.4621 211.648 5.23902C190.436 -0.478958 172.833 1.8659 169.631 2.29247C169.607 2.2956 169.585 2.29864 169.563 2.30156C161.354 10.9581 152.32 12.4756 131.907 13.7691C128.767 14.8474 126.138 15.2108 123.355 15.0396C120.684 14.8753 117.896 14.219 114.428 13.2782L108.463 20.1888C119.219 20.5212 123.188 19.5768 127.108 16.6059C127.438 16.3557 127.908 16.4205 128.159 16.7506C128.409 17.0807 128.344 17.5512 128.014 17.8014C123.461 21.2523 118.827 22.105 106.858 21.6331ZM146.999 44.5978L144.561 40.3112C141.437 40.8629 138.866 41.1148 136.175 40.9923C133.498 40.8705 130.73 40.3796 127.207 39.4752C126.566 40.9818 125.886 42.1132 125.039 43.112C124.236 44.0598 123.3 44.8668 122.161 45.7507L123.403 47.1524C125.971 50.0518 128.283 53.5544 128.927 57.4313C129.909 55.1382 131.436 53.0837 133.397 51.5727C135.63 49.8521 138.634 48.541 143.133 48.1032L146.999 44.5978ZM96.5692 31.6701L87.0837 35.9207C87.4217 37.0061 87.8106 37.6586 88.3041 38.1139C88.8307 38.5998 89.548 38.9291 90.6701 39.2396C92.5992 37.2534 94.5013 34.7815 96.5692 31.6701Z" fill="#1A1D2F"/>
<path fillRule="evenodd" clipRule="evenodd" d="M137.284 68.2914C137.648 68.0931 138.104 68.2271 138.302 68.5907L141.072 73.6625C148.677 87.586 159.662 99.3742 173.017 107.941C173.365 108.165 173.467 108.629 173.243 108.977C173.02 109.326 172.556 109.427 172.207 109.203C158.641 100.5 147.481 88.5252 139.756 74.3807L136.986 69.3089C136.787 68.9453 136.921 68.4898 137.284 68.2914Z" fill="#8AFFCE"/>
<path fillRule="evenodd" clipRule="evenodd" d="M142.528 167.966C139.181 161.233 136.009 152.692 133.5 143L135 142.5C137.5 153 141 160.5 144 168L142.528 167.966Z" fill="#8358FF"/>
<path fillRule="evenodd" clipRule="evenodd" d="M114.433 65.0869C114.771 65.326 114.851 65.794 114.612 66.1322L114.45 66.3625C109.521 73.334 102.552 78.6054 94.5023 81.4503L94.0025 80.036C101.76 77.2945 108.476 72.2147 113.225 65.4966L113.388 65.2663C113.627 64.9281 114.095 64.8478 114.433 65.0869ZM117.888 68.5929C118.271 68.7522 118.452 69.1913 118.292 69.5736L117.467 71.5553C109.005 91.8677 96.334 110.156 80.2881 125.213L79.2617 124.119C95.1529 109.207 107.702 91.0952 116.082 70.9785L116.908 68.9968C117.067 68.6145 117.506 68.4336 117.888 68.5929Z" fill="#8AFFCE"/>
</svg>
