<svg width="120" height="96" viewBox="0 0 120 96" fill="none" xmlns="http://www.w3.org/2000/svg">
<path d="M81.8172 30.3225L89.3281 24.8222C98.7118 24.9866 116.267 55.1347 116.267 68.8873L108.445 73.6401C105.476 75.5012 97.3178 67.6616 90.0129 55.7577C82.7039 43.8525 78.8527 32.1851 81.8172 30.3225Z" fill="#DCF6EF"/>
<path fill-rule="evenodd" clip-rule="evenodd" d="M108.268 74.8428C107.24 75.2241 106.008 74.8722 104.805 74.2117C103.402 73.441 101.799 72.1244 100.099 70.4C96.6921 66.9436 92.7849 61.7352 89.1689 55.5957C85.5527 49.4562 82.8897 43.5089 81.5146 38.8454C80.8286 36.5187 80.4518 34.4743 80.4551 32.8688C80.4583 31.3174 80.8209 29.925 81.913 29.2728L81.9172 29.2703L89.0723 24.888C90.1699 24.2355 91.5651 24.588 92.9231 25.3338C94.3265 26.1044 95.9294 27.4211 97.6292 29.1455C101.036 32.6019 104.943 37.8103 108.56 43.9497C112.176 50.0893 114.839 56.0366 116.214 60.7001C116.9 63.0267 117.273 66.1364 117.273 66.6767C117.273 68.1818 116.591 68.8636 115.815 70.2727C115.163 70.6723 108.318 74.9269 108.268 74.8428ZM90.3374 54.9091C86.7607 48.8364 84.1507 42.9921 82.8151 38.4628C82.1459 36.193 81.8079 34.2907 81.8109 32.8716C81.8127 31.9581 81.9536 31.3386 82.1637 30.9385C82.6019 30.7067 83.3951 30.7429 84.6619 31.417C85.9198 32.0863 87.4427 33.2825 89.1257 34.944C92.4842 38.2597 96.3734 43.3217 99.9244 49.3635C103.478 55.4095 106.071 61.2282 107.398 65.7376C108.063 67.9974 108.399 69.8912 108.396 71.304C108.393 72.5333 108.139 73.2269 107.804 73.5691C107.348 73.7368 106.598 73.6509 105.458 73.025C104.22 72.3449 102.723 71.132 101.065 69.4499C97.7567 66.0935 93.9141 60.9818 90.3374 54.9091ZM111.724 52.8535C109.992 52.1786 108.186 52.6669 107.922 52.7433C106.19 53.2383 105.142 54.3832 104.598 55.1712C103.564 53.0658 102.39 50.8843 101.094 48.6779C99.0063 45.1266 96.7969 41.8971 94.6333 39.1441L100.975 35.0908C103.097 37.8338 105.29 41.0693 107.391 44.6364C109.055 47.4613 110.509 50.2368 111.724 52.8535ZM100.132 34.0221L93.781 38.0812C92.6072 36.6472 91.4538 35.3615 90.3481 34.2493L96.72 30.1767L96.6771 30.1098C97.7794 31.2292 98.9408 32.5431 100.132 34.0221ZM85.2993 30.2217C86.5197 30.8711 87.8931 31.9184 89.3495 33.2798L95.7423 29.1938C94.4494 27.9747 93.2748 27.0723 92.2699 26.5204C90.9893 25.8172 90.2006 25.7957 89.769 26.0497L89.7657 26.0517L83.9109 29.6377C84.3683 29.7726 84.8355 29.975 85.2993 30.2217Z" fill="#181B2B"/>
<path d="M101.276 62.3679C101.948 63.3847 102.881 64.154 103.362 64.0867C103.839 64.0179 103.68 63.133 103.008 62.1162C102.336 61.0994 101.403 60.3302 100.922 60.3974C100.443 60.4702 100.603 61.3512 101.276 62.3679Z" fill="#181B2B"/>
<path d="M87.9031 41.52C88.5752 42.5367 89.5082 43.306 89.9892 43.2388C90.4663 43.1699 90.3078 42.285 89.6356 41.2682C88.9635 40.2515 88.0305 39.4822 87.5495 39.5495C87.0709 39.6222 87.2309 40.5032 87.9031 41.52Z" fill="#181B2B"/>
<path d="M92.1721 53.6905C91.8512 53.279 91.5358 52.8425 91.236 52.3896C90.4976 51.2689 89.8492 50.0578 89.395 48.9121L90.9501 49.7894C91.2937 50.6498 91.7588 51.5099 92.2436 52.2419C92.4371 52.5337 92.6345 52.8043 92.8242 53.0492C93.476 53.8809 93.9912 54.2899 94.3503 54.3362C94.7868 54.3914 94.8905 54.1435 94.8537 53.7296C94.8125 53.2596 94.5877 52.5743 94.2782 51.696C94.2503 51.6166 94.2217 51.5353 94.1925 51.4526C93.9225 50.6873 93.6085 49.7972 93.4806 49.0826C93.3274 48.2406 93.413 47.5773 94.0581 47.4817C94.6351 47.3991 95.3643 47.7228 96.1914 48.4309C96.9907 49.1186 97.749 50.0435 98.3743 50.9415C98.4753 51.0823 98.5709 51.2254 98.6688 51.374C99.7602 53.0282 100.645 54.8614 100.979 56.0489L99.3167 54.8559C99.0899 54.052 98.4312 52.6871 97.6634 51.5272C97.5995 51.4287 97.5339 51.334 97.4684 51.2394C97.0528 50.6488 96.6948 50.2403 96.4075 49.992C96.1465 49.768 95.8165 49.5703 95.4672 49.6231C95.1566 49.669 95.0938 49.9608 95.1898 50.4849C95.2871 51.0105 95.5261 51.6907 95.8122 52.5047C95.8356 52.5712 95.8593 52.6386 95.8833 52.7069C96.1766 53.547 96.5213 54.5393 96.5881 55.2827C96.657 56.0768 96.4125 56.5756 95.6115 56.4765C94.648 56.3566 93.3168 55.1443 92.1721 53.6905Z" fill="#181B2B"/>
<path d="M58.8799 14.8036C46.3612 1.39525 24.886 15.383 14.7727 29.8447C2.33768 47.6264 -0.329864 67.5652 9.42337 74.968C10.7031 75.9393 13.2378 77.2615 14.7699 77.7027C14.7699 77.7027 16.2093 79.5011 17.4432 80.4377C26.9787 87.6752 45.6196 79.2329 58.0001 61.5292C64.6313 52.0469 78.4727 24.9982 58.8799 14.8036Z" fill="#B0EBDB"/>
<path fill-rule="evenodd" clip-rule="evenodd" d="M14.0971 29.7704C27.0042 11.8955 45.6741 3.43768 55.7976 10.8793C56.716 11.5543 57.6425 12.22 58.5693 12.8859C60.1489 14.0209 61.7292 15.1562 63.2703 16.339C68.3771 20.2765 70.228 27.5804 69.3214 35.9181C69.1386 37.599 68.8452 39.2634 68.4789 40.9129C66.8526 48.1086 63.382 55.8632 58.2033 63.0574C51.8064 71.9436 44.1305 78.496 36.7508 81.8993C29.3865 85.2955 22.1744 85.6073 16.9004 81.7185L9.04993 75.6048C-1.06559 68.1589 1.1929 47.6412 14.0971 29.7704ZM60.5504 29.7339C61.3705 22.2747 59.7574 16.2597 55.9518 12.7871C55.6386 12.5137 55.3248 12.2444 54.9897 11.9981C50.4977 8.69606 43.8854 8.77235 36.5532 12.094C29.2617 15.3971 21.545 21.8067 15.206 30.5855C8.86695 39.3643 5.18539 48.7401 4.3041 56.7552C3.61897 62.9864 4.45895 70.5279 9.88732 74.5076L10.7332 75.0717C15.1878 77.7708 21.4283 77.5088 28.3013 74.3952C35.5927 71.092 43.3095 64.6824 49.6485 55.9036C55.9875 47.1248 59.6691 37.749 60.5504 29.7339ZM66.8815 41.3041C64.9944 49.091 61.2827 56.4013 56.5598 62.8173C56.9544 59.3558 51.7652 56.033 49.1811 58.819C49.7152 58.1343 50.2409 57.4341 50.7574 56.7188C55.3844 50.311 58.6426 43.5628 60.4525 37.199L66.8815 41.3041ZM60.8679 35.6441C61.5857 32.7697 62.0002 29.9877 62.104 27.3672L68.0773 31.6882C68.088 32.9948 68.0172 34.354 67.8647 35.7569C67.7246 37.0456 67.5156 38.3666 67.2385 39.7119L60.8679 35.6441ZM59.8572 15.6579C61.3067 18.4022 62.0544 21.7528 62.1244 25.4895L67.9981 29.7384C67.5981 24.3745 65.7047 20.0591 62.3463 17.4876L59.8572 15.6579Z" fill="#181B2B"/>
<path d="M19.9954 54.4961C19.5496 54.1342 19.164 53.6828 18.84 53.1586C18.0393 51.8581 17.6398 50.0931 17.7397 48.0744L21.2849 46.8755C21.2143 48.3903 21.526 49.6192 22.0473 50.4719C22.2583 50.8119 22.5025 51.0943 22.7662 51.3075C23.6669 52.039 24.6898 51.9635 25.7106 51.2645C26.9475 50.4163 27.5791 49.5233 27.9961 48.497C28.4698 47.3395 28.663 46.0207 28.8502 44.3822C28.8635 44.2646 28.8768 44.1452 28.8903 44.024C29.0514 42.578 29.2405 40.8813 29.7694 39.2377C30.3678 37.353 31.463 35.3834 33.5194 33.6597C35.3506 32.1281 37.1258 31.3346 38.7102 31.3372C40.2437 31.3399 41.3364 32.0885 42.0751 33.0573C42.1941 33.2114 42.3053 33.3746 42.4089 33.5469C43.5838 35.4642 43.9081 38.3398 43.4048 40.7472L39.9357 41.3453C40.2764 39.7188 40.0318 37.5823 39.2054 36.2291C39.1366 36.1171 39.0598 36.0099 38.9833 35.9069C38.4931 35.2707 37.9363 34.9984 37.3896 34.995C36.8899 34.9959 36.1545 35.2152 35.0393 36.1498C34.0467 36.9813 33.4858 37.9103 33.111 39.0846C32.734 40.2599 32.5882 41.5265 32.4141 43.0389C32.3994 43.1661 32.3846 43.295 32.3694 43.4258C32.1929 44.9917 31.9615 46.8574 31.2186 48.6871C30.4195 50.6523 29.0505 52.5402 26.7767 54.0972C24.0301 55.9731 21.5775 55.7715 19.9954 54.4961Z" fill="#181B2B"/>
<path d="M20.7729 34.0925C21.4961 35.2775 23.3235 35.2001 24.8463 33.9269C26.3687 32.6495 27.0133 30.6597 26.2901 29.4747C25.5628 28.29 23.7434 28.3625 22.221 29.6399C20.6986 30.9173 20.0498 32.9074 20.7729 34.0925Z" fill="#181B2B"/>
<path d="M35.2935 57.7907C36.0208 58.9753 37.8441 58.8983 39.3669 57.6251C40.8893 56.3477 41.538 54.3576 40.8107 53.1729C40.0876 51.9878 38.264 52.0607 36.7415 53.3381C35.2146 54.6116 34.5665 56.6101 35.2935 57.7907Z" fill="#181B2B"/>
<path fill-rule="evenodd" clip-rule="evenodd" d="M17.8778 81.7859C18.1229 81.4463 18.5791 81.3833 18.8968 81.6452C23.054 85.0722 28.9279 85.1875 35.3689 82.345C41.7991 79.5072 48.6656 73.7641 54.6126 65.7482C54.8619 65.4122 55.3189 65.3558 55.6333 65.6223C55.9476 65.8887 56.0004 66.3772 55.7511 66.7132C49.6883 74.8851 42.6335 80.8192 35.9234 83.7805C29.224 86.7371 22.7384 86.7733 18.0094 82.875C17.6917 82.6131 17.6328 82.1255 17.8778 81.7859Z" fill="#14C393"/>
<path fill-rule="evenodd" clip-rule="evenodd" d="M111.898 71.9538C111.733 71.6503 111.833 71.2635 112.121 71.09L114.655 69.565C115.537 69.0341 116.092 68.0965 116.07 67.0923C115.975 62.7155 114.631 58.7209 113.084 55.4621C112.935 55.1493 113.056 54.769 113.353 54.6126C113.65 54.4563 114.011 54.583 114.159 54.8958C115.752 58.2529 117.171 62.4356 117.272 67.0633C117.305 68.5959 116.461 69.9364 115.251 70.6644L112.718 72.1894C112.429 72.3629 112.062 72.2574 111.898 71.9538Z" fill="#14C393"/>
</svg>
