<svg viewBox="0 0 70 88" fill="none" xmlns="http://www.w3.org/2000/svg">
<path d="M47.7633 59.9985L51.7969 65.5065C51.6763 72.3878 29.5677 85.2617 19.4825 85.2617L15.9971 79.5252C14.6323 77.3482 20.3813 71.3656 29.1108 66.0087C37.8413 60.6487 46.3974 57.8245 47.7633 59.9985Z" fill="#DCF6EF"/>
<path fill-rule="evenodd" clip-rule="evenodd" d="M15.1153 79.3963C14.8356 78.6421 15.0937 77.7387 15.5781 76.8568C16.1432 75.8276 17.1088 74.6522 18.3733 73.4057C20.908 70.9071 24.7275 68.0419 29.2298 65.3901C33.7321 62.7383 38.0935 60.7854 41.5134 59.777C43.2196 59.2739 44.7188 58.9976 45.8962 59C47.0339 59.0024 48.055 59.2683 48.5333 60.0691L48.5351 60.0722L51.7488 65.3193C52.2273 66.1242 51.9688 67.1474 51.4219 68.1432C50.8567 69.1724 49.8912 70.3478 48.6267 71.5943C46.092 74.0929 42.2725 76.9581 37.7702 79.6099C33.2679 82.2617 28.9065 84.2146 25.4866 85.223C23.7804 85.7261 21.5 86 21.1037 86C20 86 19.5 85.5 18.4667 84.9308C18.1736 84.4523 15.0536 79.4331 15.1153 79.3963ZM29.7333 66.247C34.1866 63.6241 38.4724 61.7101 41.7939 60.7307C43.4584 60.2399 44.8535 59.9921 45.8942 59.9942C46.564 59.9956 47.0183 60.0989 47.3117 60.253C47.4817 60.5743 47.4552 61.156 46.9609 62.085C46.4701 63.0075 45.5928 64.1243 44.3744 65.3584C41.9429 67.8213 38.2307 70.6734 33.8001 73.2775C29.3663 75.8835 25.0993 77.7851 21.7924 78.7582C20.1353 79.2458 18.7465 79.492 17.7104 79.4899C16.8089 79.4881 16.3003 79.3012 16.0493 79.0555C15.9264 78.7215 15.9894 78.1715 16.4483 77.3358C16.9471 76.4275 17.8366 75.3301 19.0701 74.1141C21.5314 71.6879 25.28 68.87 29.7333 66.247ZM31.2407 81.9305C31.7357 80.6602 31.3776 79.3361 31.3216 79.1425C30.9586 77.872 30.119 77.1038 29.5411 76.7051C31.0851 75.9464 32.6848 75.0859 34.3029 74.1349C36.9072 72.6042 39.2754 70.984 41.2943 69.3974L44.2667 74.0479C42.2552 75.6043 39.8825 77.2123 37.2666 78.753C35.195 79.9731 33.1597 81.0399 31.2407 81.9305ZM45.0504 73.4295L42.0738 68.7723C43.1254 67.9116 44.0683 67.0657 44.8839 66.2549L47.8704 70.9276L47.9194 70.8962C47.0986 71.7045 46.1351 72.5562 45.0504 73.4295ZM47.8374 62.5524C47.3612 63.4474 46.5932 64.4546 45.5948 65.5226L48.5912 70.2106C49.4852 69.2625 50.147 68.4011 50.5517 67.6642C51.0674 66.7251 51.0831 66.1467 50.8969 65.8302L50.8954 65.8278L48.2657 61.5343C48.1668 61.8697 48.0183 62.2123 47.8374 62.5524Z" fill="#181B2B"/>
<path d="M24.2634 74.2682C23.5178 74.7611 22.9537 75.4453 23.003 75.798C23.0535 76.1479 23.7024 76.0317 24.448 75.5388C25.1937 75.0459 25.7578 74.3617 25.7085 74.009C25.6551 73.658 25.0091 73.7753 24.2634 74.2682Z" fill="#181B2B"/>
<path d="M39.552 64.4617C38.8063 64.9546 38.2422 65.6388 38.2915 65.9915C38.342 66.3414 38.9909 66.2252 39.7366 65.7323C40.4822 65.2394 41.0463 64.5552 40.997 64.2025C40.9436 63.8515 40.2976 63.9688 39.552 64.4617Z" fill="#181B2B"/>
<path d="M30.6269 67.5923C30.9287 67.357 31.2488 67.1258 31.5809 66.9059C32.4028 66.3644 33.2909 65.8889 34.1311 65.5558L33.4877 66.6962C32.8567 66.9482 32.226 67.2893 31.6892 67.6448C31.4752 67.7867 31.2768 67.9315 31.0972 68.0706C30.4873 68.5486 30.1873 68.9264 30.1534 69.1897C30.1129 69.5098 30.2947 69.5858 30.5982 69.5589C30.9429 69.5287 31.4454 69.3638 32.0895 69.1368C32.1478 69.1164 32.2074 69.0954 32.268 69.074C32.8292 68.876 33.482 68.6457 34.0061 68.5519C34.6235 68.4396 35.1099 68.5023 35.18 68.9754C35.2406 69.3986 35.0032 69.9333 34.4839 70.5398C33.9796 71.126 33.3013 71.6821 32.6428 72.1406C32.5396 72.2147 32.4346 72.2848 32.3256 72.3566C31.1126 73.157 29.7683 73.806 28.8974 74.051L29.7723 72.8318C30.3618 72.6654 31.3627 72.1823 32.2133 71.6193C32.2856 71.5724 32.355 71.5244 32.4244 71.4763C32.8575 71.1715 33.1571 70.909 33.3392 70.6983C33.5034 70.5069 33.6484 70.2649 33.6097 70.0087C33.576 69.781 33.362 69.7349 32.9777 69.8054C32.5922 69.8767 32.0935 70.052 31.4965 70.2618C31.4477 70.2789 31.3983 70.2963 31.3482 70.3139C30.7322 70.529 30.0044 70.7818 29.4593 70.8307C28.877 70.8813 28.5111 70.702 28.5839 70.1146C28.6718 69.408 29.5608 68.4318 30.6269 67.5923Z" fill="#181B2B"/>
<path d="M59.1448 43.1785C68.9775 33.998 58.7198 18.2496 48.1146 10.8332C35.0747 1.71417 20.4529 -0.242031 15.0242 6.91034C14.3119 7.84881 13.3423 9.70758 13.0187 10.8311C13.0187 10.8311 11.6999 11.8867 11.0131 12.7916C5.70554 19.7842 11.8966 33.4543 24.8793 42.5333C31.833 47.3961 51.6687 57.5465 59.1448 43.1785Z" fill="#B0EBDB"/>
<path fill-rule="evenodd" clip-rule="evenodd" d="M48.169 10.3378C61.2773 19.8031 67.4797 33.4944 62.0225 40.9183C61.5275 41.5917 61.0393 42.2712 60.551 42.9508C59.7187 44.1092 58.8861 45.2681 58.0187 46.3982C55.1312 50.1432 49.775 51.5005 43.6607 50.8357C42.4281 50.7017 41.2075 50.4865 39.9979 50.2179C34.721 49.0252 29.0343 46.4802 23.7586 42.6824C17.242 37.9913 12.437 32.3623 9.94115 26.9506C7.45058 21.5501 7.22197 16.2612 10.0737 12.3936L14.5571 6.63662C20.0174 -0.781432 35.0638 0.874794 48.169 10.3378ZM48.1958 44.4036C53.6658 45.0051 58.0769 43.8221 60.6234 41.0313C60.8239 40.8016 61.0214 40.5715 61.202 40.3258C63.6235 37.0316 63.5676 32.1826 61.1317 26.8057C58.7094 21.4586 54.0091 15.7996 47.5713 11.151C41.1335 6.50243 34.2579 3.80262 28.3801 3.15634C23.8106 2.65391 18.2802 3.26989 15.3617 7.2507L14.9481 7.87105C12.9687 11.1377 13.1609 15.7141 15.4442 20.7543C17.8665 26.1013 22.5669 31.7603 29.0046 36.4089C35.4424 41.0575 42.318 43.7573 48.1958 44.4036ZM39.711 49.0464C34.0006 47.6626 28.6397 44.9407 23.9346 41.4772C26.4731 41.7666 28.9098 37.9612 26.8667 36.0662C27.3689 36.4578 27.8823 36.8433 28.4069 37.2221C33.1059 40.6152 38.0546 43.0046 42.7214 44.3319L39.711 49.0464ZM43.8616 44.6365C45.9696 45.1629 48.0097 45.4669 49.9314 45.5429L46.7626 49.9234C45.8044 49.9312 44.8077 49.8793 43.7789 49.7674C42.8339 49.6647 41.8651 49.5114 40.8786 49.3083L43.8616 44.6365ZM58.5182 43.8953C56.5057 44.9583 54.0486 45.5066 51.3084 45.5579L48.1925 49.8653C52.126 49.572 55.2906 48.1835 57.1764 45.7206L58.5182 43.8953Z" fill="#181B2B"/>
<path d="M30.0368 14.6633C30.3022 14.3364 30.6332 14.0536 31.0176 13.816C31.9713 13.2288 33.2657 12.9358 34.746 13.0091L35.6252 15.609C34.5144 15.5571 33.6132 15.7858 32.9879 16.168C32.7385 16.3227 32.5315 16.5018 32.3751 16.6952C31.8386 17.3557 31.894 18.1058 32.4066 18.8544C33.0286 19.7615 33.6835 20.2247 34.4361 20.5305C35.285 20.8779 36.2521 21.0195 37.4537 21.1568C37.5398 21.1665 37.6275 21.1763 37.7164 21.1862C38.7767 21.3044 40.021 21.443 41.2263 21.8309C42.6084 22.2697 44.0528 23.0729 45.3168 24.5809C46.44 25.9238 47.0219 27.2256 47.02 28.3875C47.018 29.5121 46.469 30.3134 45.7585 30.8551C45.6455 30.9423 45.5259 31.0239 45.3995 31.0998C43.9935 31.9614 41.8848 32.1992 40.1193 31.8302L39.6807 29.2862C40.8735 29.5361 42.4402 29.3566 43.4325 28.7507C43.5147 28.7002 43.5933 28.6438 43.6688 28.5877C44.1354 28.2282 44.3351 27.8199 44.3376 27.419C44.3369 27.0526 44.1761 26.5133 43.4907 25.6955C42.881 24.9675 42.1997 24.5563 41.3385 24.2814C40.4766 24.0049 39.5478 23.898 38.4387 23.7703C38.3454 23.7596 38.2509 23.7487 38.155 23.7375C37.0066 23.6082 35.6385 23.4384 34.2967 22.8937C32.8556 22.3077 31.4711 21.3037 30.3293 19.6363C28.9536 17.6221 29.1015 15.8235 30.0368 14.6633Z" fill="#181B2B"/>
<path d="M44.9995 15.2335C44.1304 15.7638 44.1872 17.1039 45.1209 18.2206C46.0576 19.3371 47.5168 19.8097 48.3858 19.2794C49.2546 18.7461 49.2014 17.4118 48.2647 16.2954C47.3279 15.179 45.8685 14.7032 44.9995 15.2335Z" fill="#181B2B"/>
<path d="M27.6208 25.8819C26.752 26.4153 26.8085 27.7523 27.7422 28.869C28.6789 29.9855 30.1384 30.4612 31.0071 29.9278C31.8762 29.3976 31.8228 28.0602 30.886 26.9438C29.9521 25.824 28.4865 25.3488 27.6208 25.8819Z" fill="#181B2B"/>
<path fill-rule="evenodd" clip-rule="evenodd" d="M10.0234 13.1109C10.2724 13.2906 10.3186 13.6252 10.1266 13.8582C7.61345 16.9068 7.52887 21.2143 9.61336 25.9377C11.6944 30.6532 15.906 35.6886 21.7843 40.0498C22.0308 40.2326 22.0721 40.5677 21.8767 40.7982C21.6813 41.0288 21.3231 41.0675 21.0767 40.8847C15.084 36.4386 10.7323 31.2651 8.56066 26.3443C6.39251 21.4314 6.36598 16.6753 9.2247 13.2074C9.41677 12.9744 9.77436 12.9312 10.0234 13.1109Z" fill="#14C393"/>
<path fill-rule="evenodd" clip-rule="evenodd" d="M17.234 82.0581C17.4566 81.9374 17.7402 82.0108 17.8675 82.2221L18.9858 84.08C19.3751 84.7268 20.0627 85.1341 20.7991 85.1181C24.0088 85.0481 26.9382 84.0624 29.328 82.9281C29.5573 82.8192 29.8362 82.9075 29.9509 83.1252C30.0656 83.3429 29.9726 83.6076 29.7433 83.7165C27.2814 84.885 24.214 85.9253 20.8204 85.9993C19.6965 86.0238 18.7135 85.4042 18.1796 84.5173L17.0613 82.6595C16.934 82.4481 17.0114 82.1789 17.234 82.0581Z" fill="#14C393"/>
</svg>
