<svg width="658" height="400" fill="none" xmlns="http://www.w3.org/2000/svg"><path fill-rule="evenodd" clip-rule="evenodd" d="M-13.524-17.513l-197.99 197.99a8 8 0 0 0 0 11.313l194.402 194.402a8 8 0 0 0 11.313 0l197.99-197.99a8 8 0 0 0 0-11.313L-2.211-17.513a8 8 0 0 0-11.313 0zm-199.404 196.575c-3.906 3.906-3.906 10.237 0 14.142l194.401 194.402c3.906 3.906 10.237 3.906 14.143 0l197.989-197.989c3.906-3.906 3.906-10.237 0-14.143L-.796-18.928c-3.906-3.905-10.237-3.905-14.143 0l-197.989 197.99zM345.84 97.266L82.486 360.62a8 8 0 0 0 0 11.314l267.292 267.292a8 8 0 0 0 11.313 0l263.355-263.355a8 8 0 0 0 0-11.313L357.154 97.266a8 8 0 0 0-11.314 0zM81.072 359.206c-3.906 3.905-3.906 10.237 0 14.142L348.363 640.64c3.906 3.905 10.237 3.905 14.142 0L625.86 377.285c3.905-3.905 3.905-10.236 0-14.142L358.568 95.852c-3.905-3.906-10.237-3.906-14.142 0L81.072 359.205z" fill="#333A5A"/><path fill-rule="evenodd" clip-rule="evenodd" d="M341.053-75.08l-400.15 400.149a8 8 0 0 0 0 11.314l272.38 272.38a8 8 0 0 0 11.314 0l400.149-400.15a7.998 7.998 0 0 0 0-11.313L352.367-75.08a8 8 0 0 0-11.314 0zM-60.511 323.655c-3.905 3.905-3.905 10.237 0 14.142l272.38 272.38c3.905 3.905 10.237 3.905 14.142 0l400.15-400.15c3.905-3.905 3.905-10.236 0-14.142l-272.38-272.38c-3.905-3.905-10.237-3.905-14.142 0l-400.15 400.15z" fill="#333A5A"/><path fill-rule="evenodd" clip-rule="evenodd" d="M341.62 206.485L69.486 478.619a8 8 0 0 0 0 11.314l267.292 267.292a8 8 0 0 0 11.313 0l272.134-272.134a8 8 0 0 0 0-11.314L352.933 206.485a8 8 0 0 0-11.313 0zM68.072 477.205c-3.906 3.905-3.906 10.237 0 14.142l267.291 267.292c3.906 3.905 10.237 3.905 14.142 0l272.134-272.134c3.906-3.905 3.906-10.237 0-14.142L354.347 205.071c-3.905-3.905-10.236-3.905-14.142 0L68.072 477.205z" fill="#333A5A"/><path fill-rule="evenodd" clip-rule="evenodd" d="M384.62 284.485L112.486 556.619a8 8 0 0 0 0 11.313l267.292 267.292a8 8 0 0 0 11.313 0L663.225 563.09a8 8 0 0 0 0-11.313L395.933 284.485a8 8 0 0 0-11.313 0zm-273.548 270.72c-3.906 3.905-3.906 10.236 0 14.142l267.291 267.291c3.906 3.906 10.237 3.906 14.142 0l272.134-272.133c3.906-3.906 3.906-10.237 0-14.142L397.347 283.071c-3.905-3.906-10.236-3.906-14.142 0L111.072 555.205zM473.647-87.212L310.894 75.542a8 8 0 0 0 0 11.314l139.089 139.089a8 8 0 0 0 11.314 0L624.05 63.191a7.999 7.999 0 0 0 0-11.313L484.961-87.212a8 8 0 0 0-11.314 0zM309.48 74.129c-3.906 3.905-3.906 10.237 0 14.142l139.089 139.089c3.905 3.905 10.237 3.905 14.142 0L625.465 64.606c3.905-3.905 3.905-10.237 0-14.142l-139.09-139.09c-3.905-3.905-10.237-3.905-14.142 0L309.48 74.128z" fill="#333A5A"/><path fill-rule="evenodd" clip-rule="evenodd" d="M85.476 231.485l-197.99 197.99a8 8 0 0 0 0 11.314L81.888 635.191a8 8 0 0 0 11.313 0l197.99-197.99a8 8 0 0 0 0-11.314L96.789 231.485a8 8 0 0 0-11.313 0zm-199.404 196.576c-3.906 3.905-3.906 10.237 0 14.142L80.473 636.605c3.906 3.905 10.237 3.905 14.143 0l197.989-197.99c3.906-3.905 3.906-10.237 0-14.142L98.204 230.071c-3.906-3.905-10.237-3.905-14.143 0l-197.989 197.99z" fill="#333A5A"/></svg>